<svg xmlns="http://www.w3.org/2000/svg" width="506.884" height="394.484" viewBox="0 0 475.204 369.828"><defs><marker id="n" orient="auto" overflow="visible"><path d="M-10 0l-4 4L0 0l-14-4 4 4z" fill-rule="evenodd" stroke="#000" stroke-width=".8pt"/></marker><marker orient="auto" id="m" overflow="visible"><path d="M10 0l4-4L0 0l14 4-4-4z" fill-rule="evenodd" stroke="#000" stroke-width=".8pt"/></marker><marker orient="auto" id="l" overflow="visible"><path d="M-10 0l-4 4L0 0l-14-4 4 4z" fill-rule="evenodd" stroke="#000" stroke-width=".8pt"/></marker><marker id="k" orient="auto" overflow="visible"><path d="M10 0l4-4L0 0l14 4-4-4z" fill-rule="evenodd" stroke="#000" stroke-width=".8pt"/></marker><marker orient="auto" id="j" overflow="visible"><path d="M-10 0l-4 4L0 0l-14-4 4 4z" fill-rule="evenodd" stroke="#000" stroke-width=".8pt"/></marker><marker id="i" orient="auto" overflow="visible"><path d="M10 0l4-4L0 0l14 4-4-4z" fill-rule="evenodd" stroke="#000" stroke-width=".8pt"/></marker><marker orient="auto" id="c" overflow="visible"><path d="M10 0l4-4L0 0l14 4-4-4z" fill-rule="evenodd" stroke="#000" stroke-width=".8pt"/></marker><marker orient="auto" id="h" overflow="visible"><path d="M-10 0l-4 4L0 0l-14-4 4 4z" fill-rule="evenodd" stroke="#000" stroke-width=".8pt"/></marker><marker id="g" orient="auto" overflow="visible"><path d="M10 0l4-4L0 0l14 4-4-4z" fill-rule="evenodd" stroke="#000" stroke-width=".8pt"/></marker><marker orient="auto" id="e" overflow="visible"><path d="M10 0l4-4L0 0l14 4-4-4z" fill-rule="evenodd" stroke="#000" stroke-width=".8pt"/></marker><marker id="f" orient="auto" overflow="visible"><path d="M-10 0l-4 4L0 0l-14-4 4 4z" fill-rule="evenodd" stroke="#000" stroke-width=".8pt"/></marker><marker orient="auto" id="d" overflow="visible"><path d="M-10 0l-4 4L0 0l-14-4 4 4z" fill-rule="evenodd" stroke="#000" stroke-width=".8pt"/></marker><marker id="b" orient="auto" overflow="visible"><path d="M-10 0l-4 4L0 0l-14-4 4 4z" fill-rule="evenodd" stroke="#000" stroke-width=".8pt"/></marker><marker orient="auto" id="a" overflow="visible"><path d="M-10 0l-4 4L0 0l-14-4 4 4z" fill-rule="evenodd" stroke="#000" stroke-width=".8pt"/></marker></defs><path fill="#afdde9" stroke="#000" d="M27.989 99.934h383.554v222.71H27.989z"/><path fill="#faa" stroke="#000" d="M5.703 153.364l370.484-99.27 57.642 215.12-370.485 99.27z"/><path fill="none" stroke="#000" stroke-width=".5" d="M27.989 99.934h191.777v111.354H27.989z"/><path d="M388.093 325.728l183.165-57.387" fill="none" stroke="#000" marker-end="url(#a)" transform="translate(-168.327 -114.44)"/><path d="M219.766 211.288l191.777.506" fill="none" stroke="#000"/><path fill="none" stroke="#000" stroke-width=".894" d="M3.676 51.33h432.582v318.05H3.676z"/><text style="line-height:125%" x="264.928" y="358.914" font-weight="400" font-size="27.5" font-family="sans-serif" letter-spacing="0" word-spacing="0" transform="translate(-168.327 -114.44)"><tspan x="264.928" y="358.914">cx</tspan></text><text y="470.148" x="371.232" style="line-height:125%" font-weight="400" font-size="27.5" font-family="sans-serif" letter-spacing="0" word-spacing="0" transform="translate(-168.327 -114.44)"><tspan y="470.148" x="371.232">w</tspan></text><path d="M402.931 153.901l-.227 57.87" fill="none" stroke="#000" stroke-dasharray="1.00000002,1.00000002"/><path d="M388.093 325.728H196.316" fill="none" stroke="#000" marker-end="url(#b)" transform="translate(-168.327 -114.44)"/><text transform="matrix(.97313 0 0 1.02761 -168.327 -114.44)" y="253.119" x="302.147" style="line-height:125%" font-weight="400" font-size="25.685" font-family="sans-serif" letter-spacing="0" word-spacing="0"><tspan y="253.119" x="302.147">θ</tspan></text><text style="line-height:125%" x="316.222" y="131.739" transform="matrix(.97313 0 0 1.02761 -168.327 -114.44)" font-weight="400" font-size="25.685" font-family="sans-serif" letter-spacing="0" word-spacing="0"><tspan x="316.222" y="131.739">w*cos(θ)</tspan></text><path d="M5.703 153.364H197.48" fill="none" stroke="#000" stroke-dasharray="1,1"/><path d="M376.188 54.093l.963 214.19" fill="none" stroke="#000" stroke-dasharray="1.00000002,1.00000002"/><text transform="matrix(.97313 0 0 1.02761 -168.327 -114.44)" y="130.879" x="553.253" style="line-height:125%" font-weight="400" font-size="25.685" font-family="sans-serif" letter-spacing="0" word-spacing="0"><tspan y="130.879" x="553.253">h*sin(θ)</tspan></text><path d="M388.093 325.728H196.316" fill="none" stroke="#000" marker-start="url(#c)" marker-end="url(#d)" transform="translate(-168.327 -114.44)"/><path d="M174.914 144.96H542.56" fill="none" stroke="#000" marker-start="url(#e)" marker-end="url(#f)" transform="translate(-168.327 -114.44)"/><path d="M545.211 144.96h57.445" fill="none" stroke="#000" marker-start="url(#g)" marker-end="url(#h)" transform="translate(-168.327 -114.44)"/><text style="line-height:125%" x="492.628" y="312.591" transform="matrix(.97313 0 0 1.02761 -168.327 -114.44)" font-weight="400" font-size="25.685" font-family="sans-serif" letter-spacing="0" word-spacing="0"><tspan x="492.628" y="312.591">θ</tspan></text><path d="M170.08 260.318l368.768-103.04" fill="none" stroke="#000" marker-start="url(#i)" marker-end="url(#j)" transform="translate(-168.327 -114.44)"/><text style="line-height:125%" x="342.948" y="200.437" font-weight="400" font-size="27.5" font-family="sans-serif" letter-spacing="0" word-spacing="0" transform="translate(-168.327 -114.44)"><tspan x="342.948" y="200.437">w</tspan></text><path d="M199.157 452.046h376.738" fill="none" stroke="#000" marker-start="url(#k)" marker-end="url(#l)" transform="translate(-168.327 -114.44)"/><text style="line-height:125%" x="560.619" y="253.119" transform="matrix(.97313 0 0 1.02761 -168.327 -114.44)" font-weight="400" font-size="25.685" font-family="sans-serif" letter-spacing="0" word-spacing="0"><tspan x="560.619" y="253.119">θ</tspan></text><path d="M556.751 168.194l56.52 205.06" fill="none" stroke="#000" marker-start="url(#m)" marker-end="url(#n)" transform="translate(-168.327 -114.44)"/><text y="267.107" x="584.375" style="line-height:125%" font-weight="400" font-size="27.5" font-family="sans-serif" letter-spacing="0" word-spacing="0" transform="translate(-168.327 -114.44)"><tspan y="267.107" x="584.375">h</tspan></text></svg>