<svg width="600" height="480" xmlns="http://www.w3.org/2000/svg" xmlns:xlink="http://www.w3.org/1999/xlink"><path fill="none" d="M0 0h600v480H0z"/><defs><path id="d" stroke-width=".148" stroke="currentColor" d="M-1-1h2v2h-2z"/><circle id="a" stroke-width=".148" stroke="currentColor" r="1"/><path id="b" stroke-width=".148" stroke="currentColor" d="M0-1.33l-1.33 2h2.66z"/><use xlink:href="#b" id="c" stroke="currentColor" transform="rotate(180)"/><use xlink:href="#d" id="e" stroke="currentColor" transform="rotate(45)"/><path id="f" stroke-width=".148" stroke="currentColor" d="M0 1.33L1.265.411.782-1.067l-1.564-.009-.483 1.487z"/></defs><path stroke="#000" d="M77.4 216h13.5m471.2 0h-13.5" fill="none" color="#000"/><g fill="none" color="#000" stroke="currentColor"><path stroke="#000" d="M77.4 216h13.5m471.2 0h-13.5m-471.2-8h6.7m478 0h-6.7m-478-8h6.7m478 0h-6.7m-478-8h6.7m478 0h-6.7m-478-8h6.7m478 0h-6.7m-478-8h13.5m471.2 0h-13.5"/><text transform="translate(71.1 181.9)" stroke="none" fill="#000" font-family="Lato" font-size="18" text-anchor="end"><tspan>5</tspan></text></g><g fill="none" color="#000" stroke="currentColor"><path stroke="#000" d="M77.4 168h6.7m478 0h-6.7m-478-8h6.7m478 0h-6.7m-478-8h6.7m478 0h-6.7m-478-8h6.7m478 0h-6.7m-478-8h13.5m471.2 0h-13.5"/><text transform="translate(71.1 141.9)" stroke="none" fill="#000" font-family="Lato" font-size="18" text-anchor="end"><tspan>10</tspan></text></g><g fill="none" color="#000" stroke="currentColor"><path stroke="#000" d="M77.4 128.1h6.7m478 0h-6.7m-478-8h6.7m478 0h-6.7m-478-8h6.7m478 0h-6.7m-478-8h6.7m478 0h-6.7m-478-8h13.5m471.2 0h-13.5"/><text transform="translate(71.1 102)" stroke="none" fill="#000" font-family="Lato" font-size="18" text-anchor="end"><tspan>15</tspan></text></g><g fill="none" color="#000" stroke="currentColor"><path stroke="#000" d="M77.4 88.1h6.7m478 0h-6.7m-478-8h6.7m478 0h-6.7m-478-8h6.7m478 0h-6.7m-478-8h6.7m478 0h-6.7m-478-8h13.5m471.2 0h-13.5"/><text transform="translate(71.1 62)" stroke="none" fill="#000" font-family="Lato" font-size="18" text-anchor="end"><tspan>20</tspan></text></g><path stroke="#000" d="M77.4 48.1h6.7m478 0h-6.7M77.4 216v-13.5m0-154.4v13.5M121.5 216v-13.5m0-154.4v13.5M167.4 216v-13.5m0-154.4v13.5M213.3 216v-13.5m0-154.4v13.5M259.2 216v-13.5m0-154.4v13.5M305.1 216v-13.5m0-154.4v13.5M351 216v-13.5m0-154.4v13.5M396.9 216v-13.5m0-154.4v13.5M442.8 216v-13.5m0-154.4v13.5M488.7 216v-13.5m0-154.4v13.5M562.1 216v-13.5m0-154.4v13.5M77.4 48.1V216h484.7V48.1H77.4z" fill="none" color="#000"/><text transform="rotate(-90 78.85 53.25)" font-family="Lato" font-size="18" text-anchor="middle" color="#000"><tspan>Concentration Ox [%]</tspan></text><text transform="translate(473.4 84.2)" font-family="Lato" font-size="18" text-anchor="middle" color="#000"><tspan>Voltage [V]</tspan></text><text transform="translate(460.4 111.2)" font-family="Lato" font-size="18" text-anchor="end" color="#000"><tspan>0.8</tspan></text><path stroke="#500" d="M473 105.3h63.9M77.4 54.5l1.8.2 1.9.3 1.8.4h1.8l1.9-.1 1.8.3 1.9.1 1.8-1.2 1.8 1.3 1.9-.3 1.8.1 1.8.2 1.9-.3 1.8-.3 1.8.5 1.9-.3 1.8.2 1.8-.6 1.9.7 1.8-.6 1.9.1 1.8.1 1.8.1 1.9.1h1.8l1.8-.7 1.9.2 1.8.2 1.8-.1 1.9 1 1.8-.1 1.9-.2 1.8-.4 1.8-.3 1.9.3 1.8-.6 1.8 1.2 1.9-1.4L149 56l1.8-.4 1.9-.4h1.8l1.8.9 1.9-.5 1.8-.3 1.9.3 1.8-.3 1.8.1 1.9.4 1.8-.4 1.8.5 1.9-.9 1.8.4 1.8.2 1.9.1 1.8-.9 1.9.5 1.8-.7 1.8.8 1.9.2 1.8.1 1.8-.7 1.9.8 1.8-.4 1.8.3 1.9.1 1.8-.1 1.8-.8 1.9.2 1.8.3 1.9-1 1.8 1 1.8-.3 1.9 1 1.8-.2 1.8.2 1.9-.4 1.8-.4 1.8.2 1.9-.1 1.8.4h1.9l1.8-.5h1.8l1.9-.1 1.8.1 1.8.8L239 55l1.8-.3 1.8.4 1.9.8 1.8.3 1.8-.5 1.9-.3 1.8.2 1.9.1 1.8-.1 1.8.1 1.9.3 1.8-.4 1.8.4 1.9-.5 1.8.1 1.8-.9 1.9 1.2 1.8-.9 1.9.4 1.8.6 1.8.1h1.9l1.8-.5 1.8.4 1.9-.1 1.8-.8 1.8.7 1.9-.5h1.8l1.8.5 1.9-.6 1.8.2 1.9-.5 1.8.5 1.8.7 1.9-.1 1.8-.9 1.8.9 1.9-.2 1.8-.7 1.8-.5 1.9 1 1.8.2 1.9-.2 1.8-.1 1.8-.9 1.9 1.1h1.8l1.8-.5 1.9 1.2 1.8-.7 1.8-.6 1.9.2h1.8l1.8.9 1.9-1.6 1.8.2 1.9.7 1.8-.4 1.8.9 1.9-.7 1.8-.2 1.8-.1 1.9.3 1.8.2 1.8.3 1.9-.6 1.8.5 1.8-.4 1.9.5 1.8-.2 1.9.2 1.8.2 1.8-.8h1.9l1.8.4 1.8.5 1.9-.2 1.8-.3 1.8-.5 1.9-.4 1.8.8 1.9.4 1.8-1.7 1.8 1.2 1.9-.1 1.8.4 1.8-.2 1.9-.2 1.8 1.2 1.8-1.2 1.9.6 1.8-.1 1.8-.2 1.9-.8 1.8 1.3 1.9-.9 1.8.8h1.8l1.9-.6 1.8-.6 1.8.7 1.9.2 1.8-.3 1.8-.1 1.9-.3 1.8.1 1.9.1h1.8l1.8.5h1.9l1.8-.2 1.8.2 1.9.2 1.8-.8 1.8.8 1.9-.6 1.8.6 1.8-.4 1.9-.1 1.8 1.1 1.9-1.3 1.8-.3 1.8.3h1.9l1.8-.2h3.7l1.8.7 1.8.4h1.9l1.8-.4 1.9-.1 1.8-.5 1.8 1 1.9-.4 1.8-.3 1.8 1.1 1.9-.9 1.8-.2 1.8 1.6 1.9-1.5h1.8l1.8.4 1.9-.4 1.8-.3 1.9.9 1.8-.3 1.8-.7 1.9.8 1.8-.1 1.8-.7 1.9.6 1.8.1 1.8.8 1.9-.4 1.8-.8 1.9.4 1.8-.9 1.8.3 1.9.3 1.8-.2 1.8.6 1.9-.4 1.8-.2 1.8.1h1.9l1.8.6 1.8-1.3 1.9.8 1.8.3 1.9-.3 1.8.1 1.8-.9 1.9 1.4" fill="none" color="#000"/><path stroke="maroon" d="M77.4 55.4l1.8-.1 1.9-.2 1.8.2 1.8-.7 1.9.7 1.8-.9 1.9.7 1.8.5 1.8-.4 1.9.1 1.8-.7 1.8.4 1.9 1.3 1.8-1.6 1.8 1.3 1.9-1.5 1.8 1.2 1.8-1.1 1.9.4 1.8 1.2 1.9-.2 1.8-1 1.8 1.2 1.9-.7 1.8-.6 1.8.1 1.9.4 1.8.2 1.8-1.1 1.9 1.4 1.8-.9h1.9l1.8 1.4 1.8-.6 1.9-.6 1.8.4 1.8.6 1.9-.9 1.8.6 1.8-.7 1.9-.2 1.8 1.2 1.8-.7 1.9.1 1.8-.6 1.9 1.1 1.8-.9 1.8.1 1.9.4 1.8-.4 1.8.9 1.9-.3 1.8-.6 1.8-.3 1.9.9 1.8-1 1.9-.1 1.8.9 1.8-.3 1.9.2 1.8.1 1.8-.7 1.9.8 1.8-.4 1.8-.3 1.9.3 1.8.9 1.8-1.3 1.9.4 1.8-.2 1.9.2 1.8-.2 1.8.5 1.9.5 1.8-.6 1.8-.2 1.9-.2 1.8.6 1.8-.3 1.9-.6 1.8 1.3h1.9l1.8-.2 1.8-.4 1.9.1 1.8-.8 1.8.7 1.9.3 1.8-1.1 1.8.7 1.9.1 1.8-.4 1.8 1 1.9-.7 1.8-.3 1.9.5 1.8.3 1.8-.6 1.9.4 1.8-.7 1.8-.1 1.9.8 1.8.2 1.8-.2 1.9-.3 1.8.6 1.9-.1 1.8.2 1.8-.4 1.9-.6 1.8-.1 1.8.7 1.9-1 1.8 1 1.8.4 1.9-.6 1.8-.4 1.8.4 1.9.2 1.8-.3 1.9.3 1.8-.4 1.8-.1 1.9-.6 1.8.5 1.8.4 1.9-.2 1.8-.3 1.8.1 1.9.9 1.8-.2 1.9.1 1.8-.8 1.8.7 1.9-.2 1.8-.3 1.8.5 1.9-.3 1.8-.3 1.8-.3 1.9.6 1.8-.5 1.8.8 1.9-.7h1.8l1.9-.7h1.8l1.8.9 1.9-.1 1.8.6 1.8-.2 1.9-.9 1.8 1.4 1.8-1.1 1.9-.1 1.8.6 1.8.1 1.9.1 1.8-.6 1.9.8 1.8-.9 1.8.9 1.9-.3 1.8-1.4 1.8.6 1.9.7 1.8 1.2 1.8-1.9 1.9.1 1.8.9 1.9.1 1.8-.7 1.8-.6 1.9.3 1.8.2 1.8.9h1.9l1.8-1.1 1.8.2 1.9.4 1.8-.4 1.8.3 1.9-.8 1.8 1.3 1.9-1.5 1.8.8 1.8.6 1.9-1.3 1.8 1.2 1.8-.3 1.9-.1 1.8.6 1.8-.6 1.9.9h1.8l1.9-1 1.8.4 1.8-.8 1.9 1.3 1.8.4 1.8-.9h1.9l1.8-.6 1.8.4 1.9-.1 1.8-.7 1.8 1.2 1.9-.2 1.8.3 1.9-.5 1.8-.4 1.8.4 1.9.7 1.8-1.1 1.8.6 1.9.4 1.8-.8 1.8.2 1.9.1 1.8-1 1.9 1h3.6l1.9-.5 1.8 1.2 1.8-.3 1.9-.6 1.8.9 1.8-.4 1.9-.1 1.8.2 1.8.8 1.9-1.5 1.8.7 1.9-.2 1.8.3 1.8-.6 1.9.6 1.8-.3 1.8-.3 1.9.6h1.8l1.8-.7 1.9-.7 1.8.6 1.9.7 1.8-.2h1.8l1.9.4 1.8.4 1.8-.3 1.9.1 1.8-1.2 1.8.8 1.9.1 1.8-.9 1.8.1 1.9.5 1.8.4 1.9-1.1 1.8 1 1.8.4 1.9-.4" fill="none" color="#000"/><text transform="translate(460.4 132.8)" font-family="Lato" font-size="18" text-anchor="end" color="#000"><tspan>0.611</tspan></text><path stroke="#A00" d="M473 126.9h63.9M77.4 55.4l1.8-.3 1.9.5 1.8-.3 1.8-.9 1.9.9 1.8.2 1.9.5 1.8-.5 1.8-.3 1.9.2h1.8l1.8-.6 1.9 1.4 1.8-.7 1.8-.7 1.9.2 1.8.1 1.8.3 1.9-.8 1.8 1.5 1.9-.9 1.8.2 1.8-.9 1.9 1.3 1.8-.6 1.8.7 1.9-.1 1.8-.6 1.8.6 1.9-.7h3.7l1.8.5 1.8.4 1.9-.6 1.8-.7h1.8l1.9.7 1.8-.6 1.8.9 1.9.5 1.8-1.1 1.8.3 1.9.7 1.8-.3 1.9.2 1.8-1.4 1.8 1.4 1.9-.2 1.8.4 1.8-.9 1.9.3 1.8.1 1.8-.8 1.9.4 1.8 1 1.9-1 1.8.4 1.8.1 1.9.2 1.8-1 1.8.9 1.9-.2 1.8-.1 1.8-.5 1.9.2h1.8l1.8.8 1.9-.9 1.8.2 1.9-.9 1.8.5 1.8 1.3 1.9-1.2 1.8.3 1.8.1h1.9l1.8.7 1.8-.8 1.9.4h1.8l1.9-.6 1.8.6 1.8.2 1.9-.9 1.8.4 1.8.6 1.9-1.2 1.8-.1 1.8.1 1.9.5 1.8.5 1.8-.9 1.9.6 1.8.4 1.9-.2 1.8-.9 1.8.4 1.9-.7 1.8.9 1.8-.3 1.9-.6 1.8.7 1.8.8 1.9-.6 1.8.6 1.9-1.2 1.8.7 1.8.3 1.9.7 1.8-1.5h1.8l1.9.5 1.8-1 1.8 1.1 1.9-.6 1.8-.1h1.8l1.9.7 1.8-.6 1.9.6 1.8-.1 1.8.5 1.9-.1 1.8-2.1 1.8 1.8 1.9.3 1.8-.1 1.8-.3 1.9.5 1.8-.1 1.9.1 1.8-.3 1.8-1 1.9 1.3 1.8-.2 1.8-.3 1.9.3 1.8.2 1.8-.6h1.9l1.8.5 1.8-.8 1.9-.8 1.8 1.2 1.9-.2 1.8-.3 1.8.7 1.9-1.3 1.8.5 1.8.1 1.9 1.2 1.8-1.6 1.8 1.1 1.9-.2 1.8-.3 1.8.2h1.9l1.8-.8 1.9 1.3 1.8.7 1.8-1 1.9.1 1.8-.2 1.8.2 1.9-.1 1.8.3 1.8-1 1.9.7 1.8-.8 1.9 1.4 1.8-.6 1.8-.3 1.9-.1 1.8-.5 1.8 1.1h1.9l1.8-.6 1.8-.3 1.9.4 1.8-.1 1.8-.2 1.9.8 1.8-.9 1.9.8 1.8-.1 1.8-.1 1.9-.1 1.8-.1 1.8.7 1.9-.2 1.8-.9h1.8l1.9.7 1.8-.5 1.9.3h1.8l1.8.1 1.9.7 1.8-.5 1.8.2 1.9-.8 1.8.6 1.8.2 1.9-1 1.8.5 1.8.2 1.9-1.2 1.8 1.5 1.9-.1 1.8.8 1.8-.3h1.9l1.8-.8 1.8-.2 1.9.2 1.8-.2 1.8.2 1.9.8 1.8-.7 1.9-.1 1.8.5 1.8-1 1.9.9 1.8-.4h1.8l1.9-.8 1.8.1 1.8.6 1.9.6 1.8-.1 1.8-.4h1.9l1.8.6 1.9-.3 1.8-1 1.8 1.3 1.9-.1 1.8.3 1.8-.9 1.9-.5 1.8.9 1.8-.6 1.9.9 1.8.2 1.9.1 1.8-1.6 1.8.7 1.9.4 1.8.1 1.8.1 1.9-.2 1.8-.1 1.8.6 1.9-.8 1.8.1 1.8.3 1.9-.7 1.8.6 1.9.1 1.8-.4 1.8-.3 1.9.7" fill="none" color="#000"/><path stroke="#D40000" d="M77.4 55.7l1.8-.8 1.9.1 1.8.1 1.8.9 1.9-.9 1.8.1 1.9.6 1.8-.7 1.8.4 1.9-.1 1.8.1 1.8-.5 1.9.3 1.8.8 1.8-.8 1.9-.2 1.8.5 1.8-.9 1.9 1 1.8-1 1.9 1.4 1.8-.6 1.8-.4 1.9.1 1.8.5 1.8-.5 1.9.4 1.8-.3 1.8.1 1.9-.1 1.8.2 1.9.1 1.8-.3 1.8.9 1.9-.2 1.8-.3 1.8-.5 1.9.6 1.8-.4 1.8.5 1.9-.7 1.8-.3 1.8.6 1.9-.4 1.8.2 1.9.6 1.8-1.5 1.8 1.1 1.9-.2 1.8-.6 1.8.7 1.9.3h3.6l1.9.1 1.8-.6 1.9.7 1.8-.8 1.8-.4 1.9.5 1.8.2 1.8.2 1.9.7 1.8-1.1 1.8 1 1.9-.4 1.8.3 1.8-1 1.9.9 1.8-.5 1.9.2 1.8-.5 1.8.2 1.9.7 1.8-.6 1.8-.3 1.9.2h1.8l1.8-.3 1.9-.2 1.8.2 1.9.9 1.8-1.5 1.8 2.3 1.9-1.4 1.8-.1 1.8.3 1.9-.8 1.8 1 1.8-.4 1.9.3 1.8-.3h1.8l1.9.2 1.8.5 1.9-.8 1.8.6 1.8-.7 1.9.6 1.8-.2 1.8-.7 1.9 1.3 1.8-.7 1.8.4 1.9-1.4 1.8.8 1.9-.1 1.8.4 1.8-.6 1.9.6 1.8-.9 1.8.9 1.9-.5 1.8.5 1.8-.1 1.9-.2 1.8-.8 1.8 1.3 1.9.6 1.8-1.1 1.9.3h1.8l1.8.3 1.9-.8 1.8 1.4 1.8-1.3 1.9.2 1.8.2 1.8-.5 1.9.4h1.8l1.9.3 1.8.4 1.8-1.1 1.9-.2h1.8l1.8 1.2 1.9-.5 1.8.9 1.8-1.2 1.9-.2 1.8.4 1.8.2 1.9-.3 1.8-.6 1.9.8 1.8.1 1.8-.2 1.9.7 1.8-.8 1.8-.1 1.9.3 1.8.4 1.8-.2 1.9-.4 1.8.3 1.8-.5 1.9-.1 1.8.3 1.9-.2h3.6l1.9-.4 1.8 1.3 1.8-1 1.9.9 1.8-.9 1.8.8 1.9.4 1.8-.5 1.9-.5 1.8 1.1L395 55l1.9 1 1.8.1 1.8-.2 1.9.1 1.8-.6 1.8.3 1.9-.6 1.8.7 1.8-.5 1.9.3 1.8-1 1.9 1.4 1.8-.3 1.8-.2 1.9.4 1.8-.6 1.8 1.2 1.9-1 1.8.4 1.8.4 1.9-.7 1.8.1 1.9.5 1.8-.6 1.8-.6 1.9.6 1.8-.9 1.8.8 1.9.2 1.8-.2 1.8-.2 1.9.4 1.8.3 1.8-.3 1.9.3 1.8-.7 1.9.4 1.8-.3 1.8.7 1.9-.5h1.8l1.8-.3 1.9.7 1.8-.3 1.8-.1h1.9l1.8-.4 1.9.9 1.8-.3 1.8-.4 1.9.4 1.8-.6 1.8.7h1.9l1.8.1 1.8.5 1.9-.8 1.8.2 1.8-.1 1.9.2 1.8-.8 1.9.5 1.8.3 1.8-.2 1.9-.5 1.8 1.2 1.8-1.1 1.9.1 1.8-.1 1.8 1.3 1.9-1.1 1.8.9 1.9.1 1.8-.6 1.8-.2 1.9-.1 1.8.7 1.8-.7 1.9.3 1.8.1 1.8.3 1.9.1 1.8-.2 1.8-.9 1.9 1 1.8-.2 1.9-.1 1.8-.3 1.8.4 1.9-.1" fill="none" color="#000"/><text transform="translate(460.4 154.4)" font-family="Lato" font-size="18" text-anchor="end" color="#000"><tspan>0.422</tspan></text><path stroke="red" d="M473 148.5h63.9M77.4 55.9l1.8-.5 1.9-.5 1.8-.1 1.8.7 1.9-.2h1.8l1.9-.2 1.8.9 1.8-.1 1.9-.6h1.8l1.8.1 1.9.3 1.8.4 1.8-.6 1.9.3 1.8.1 1.8-1.1h1.9l1.8-.1 1.9 1.5 1.8-.7h1.8l1.9.5 1.8-.6 1.8-.1h1.9l1.8.4 1.8.9 1.9-1.2 1.8-.6 1.9 1.7 1.8-1.1 1.8.7 1.9-.7 1.8.3 1.8-.4 1.9-.3 1.8-.1 1.8.7 1.9-.2 1.8.1 1.8-.3 1.9-.3 1.8.4 1.9.5 1.8-.7 1.8.7 1.9-.9 1.8.3h1.8l1.9-.2 1.8.8h1.8l1.9-.5 1.8.7 1.9-1.3 1.8.6 1.8.3 1.9-.1h1.8l1.8-.5 1.9.8 1.8-1.1 1.8.1 1.9.4 1.8-.3 1.8.5 1.9-.1h1.8l1.9.6 1.8-.5 1.8.6 1.9-.3 1.8-1 1.8 1.9 1.9-1.3 1.8.4 1.8-.2 1.9.5 1.8-.3 1.9-.1 1.8.1 1.8 1 1.9-1.4h3.6l1.9-.1 1.8.2 1.8-.2 1.9.4 1.8.8 1.8-1.1 1.9 1.3 1.8-.7 1.9-.8 1.8.2 1.8.1 1.9-.1 1.8.5 1.8-1.5 1.9.6 1.8.3h1.8l1.9.6 1.8-.5 1.9-.2 1.8.2 1.8.1 1.9-.4 1.8.4 1.8-.5 1.9.9 1.8-.8 1.8.8 1.9-.8 1.8.7 1.8.1 1.9-.4h1.8l1.9-.5 1.8 1.1 1.8-.8h1.9l1.8-.1 1.8.3 1.9-.5 1.8 1.2 1.8-1.7 1.9 1.1 1.8-.5 1.9.4 1.8-.3 1.8-.3 1.9 1.5 1.8-.8 1.8.1 1.9.8h1.8l1.8-1.2 1.9.5 1.8-.1 1.8.3 1.9-.4 1.8.4 1.9-.3 1.8-.4 1.8-.5 1.9.8 1.8.1 1.8-.1 1.9.6 1.8-1.4 1.8 1.1 1.9-.5 1.8 1.3 1.8-1.1 1.9.4 1.8-.7 1.9.8 1.8-.6h1.8l1.9-.2 1.8.3 1.8-.5 1.9-.1 1.8.4 1.8.3 1.9.1 1.8.4 1.9.9 1.8-.7 1.8.1 1.9-.6 1.8-1 1.8 1.3 1.9-.1 1.8.9 1.8-1 1.9.1 1.8-.6 1.8.4 1.9-.4 1.8.4 1.9-.5 1.8-.7 1.8 2.1 1.9-1.8 1.8.4 1.8.9 1.9-.8h1.8l1.8-.3 1.9-.8 1.8 1.3 1.9.6 1.8-.4 1.8-.4 1.9.3 1.8-.5 1.8 1 1.9-1 1.8.3 1.8.2 1.9.6 1.8-.6 1.8.4 1.9-1.3 1.8 1.2 1.9-.3 1.8.3h1.8l1.9-.4h1.8l1.8.3h1.9l1.8.5 1.8-.7 1.9.7 1.8-.3 1.9-.3 1.8.1 1.8-.3 1.9.8 1.8.4 1.8-.2 1.9-1.3 1.8.3 1.8-.4 1.9 1.4 1.8-.7 1.8.1 1.9-.3 1.8-.6 1.9 1 1.8-.1 1.8-.4 1.9.7 1.8-.3 1.8-.3 1.9-.3 1.8.8h1.8l1.9-.5 1.8-.5 1.9 1.6 1.8-.2 1.8-.7 1.9.7 1.8-.8 1.8-.3 1.9.8 1.8.5 1.8-.4 1.9-1 1.8.9 1.8.1 1.9-.2 1.8.1 1.9-.3h1.8l1.8-.6 1.9.7" fill="none" color="#000"/><path stroke="#FF2A2A" d="M77.4 59.3l1.8-1 1.9-.9 1.8.9 1.8-1.5 1.9.4 1.8.1 1.9-.8 1.8-.4 1.8.6 1.9-.7 1.8.8 1.8-.2h1.9l1.8-1.6 1.8.4 1.9 1.1 1.8-.4 1.8-.5 1.9.7 1.8-.9 1.9 1.5 1.8-1.3h1.8l1.9.3 1.8.2 1.8-.6 1.9-.6 1.8.1 1.8-.8 1.9 1.4 1.8-.3 1.9-.5 1.8 1 1.8-.4 1.9.1 1.8-.8 1.8.9 1.9-.5 1.8.6 1.8.4 1.9-.8 1.8.4 1.8.2 1.9-.5 1.8.3 1.9.4 1.8-.5 1.8.7 1.9-1.4 1.8.4 1.8.5 1.9-.6 1.8 1.3 1.8-.1 1.9-1.1 1.8.3 1.9-.8 1.8.7h1.8l1.9-.2h1.8l1.8.2 1.9-.2 1.8-.1 1.8-.2 1.9 1.2 1.8-.4 1.8.3 1.9-.7 1.8.1 1.9-.5 1.8.1h1.8l1.9.7h1.8l1.8-.6 1.9-.1 1.8.6 1.8-.3 1.9-.1 1.8-.4 1.9.6 1.8.5 1.8-.1 1.9-.1 1.8-1.3 1.8 1.7 1.9-1h1.8l1.8-.3 1.9.4 1.8.3 1.8-.1 1.9-.2 1.8-.1 1.9.2 1.8.3 1.8.3 1.9-.8 1.8.2 1.8-.2 1.9-.2 1.8.9 1.8-.2 1.9-.2 1.8.2 1.9-.1h1.8l1.8-.5 1.9.3 1.8.5 1.8-.6 1.9-.4 1.8.4 1.8.4 1.9.3 1.8-.6 1.8.1 1.9.1 1.8-.1 1.9-.4 1.8.1h1.8l1.9.9 1.8-.6 1.8.4 1.9-.4 1.8-.7 1.8.6 1.9.4 1.8-.5h3.7l1.8-.3 1.9.8 1.8.1 1.8-.1 1.9-.1 1.8-.4 1.8-.2h1.9l1.8.9 1.8-.4 1.9-.6 1.8.4 1.9.4 1.8-.2 1.8.9 1.9-.8 1.8-.5 1.8.9 1.9-1 1.8 1 1.8-.6 1.9-.1 1.8.7 1.8-1.2 1.9.7 1.8-.3h1.9l1.8.9 1.8-1.5 1.9.3 1.8.8 1.8-.3 1.9.2h1.8l1.8-.3 1.9.3 1.8.1 1.9-.8 1.8.2 1.8.2 1.9.1 1.8.2 1.8.5 1.9-.5 1.8.6 1.8-.9 1.9.1 1.8 1.1 1.8-.9 1.9-.3 1.8.9 1.9-1.1 1.8 1.1 1.8-.5 1.9-.7 1.8.3 1.8 1 1.9-1.5 1.8.5 1.8.6 1.9.4 1.8-.7h1.9l1.8.2h1.8l1.9.4 1.8-.6 1.8-.7 1.9.6 1.8.4 1.8.2 1.9-.3 1.8.5 1.8-.2 1.9-.5 1.8.5L463 55l1.8 1.9 1.8-1.3 1.9.7 1.8-1.5 1.8 1.2 1.9-.1 1.8-.4 1.8.9 1.9-.5 1.8-.7 1.9 1 1.8-.6 1.8.2 1.9.1 1.8-.6h1.8l1.9 1.1 1.8-.1 1.8.2h1.9l1.8-.2 1.8-.3 1.9-.1 1.8-.4 1.9.7 1.8-.3 1.8-.3 1.9-.1 1.8 1.4 1.8-.5 1.9-.2 1.8-.3 1.8-.4 1.9-.2 1.8.8 1.9.6 1.8-.7 1.8-.1 1.9-.9 1.8 1 1.8-.3 1.9.2 1.8-.1 1.8.4h3.7l1.8.1 1.9-.2 1.8.3h1.9l1.8.3 1.8-1 1.9.4" fill="none" color="#000"/><text transform="translate(460.4 176)" font-family="Lato" font-size="18" text-anchor="end" color="#000"><tspan>0.233</tspan></text><path stroke="#F55" d="M473 170.1h63.9M77.4 123.3l1.8-6.1 1.9-4.3 1.8-5.4 1.8-4.3 1.9-3.5 1.8-4.8 1.9-2.8 1.8-3.8 1.8-2.8 1.9-2 1.8-2.6 1.8-2 1.9-2.4 1.8-1.6 1.8-2 1.9-1 1.8-1.9 1.8-.8 1.9-1.4 1.8-.8 1.9-2.2 1.8-.6 1.8-.8 1.9-.9 1.8.7 1.8-2h1.9l1.8.1 1.8-2.1 1.9-.1h1.8l1.9.1 1.8-.8 1.8.3 1.9-.8 1.8.8 1.8-.8 1.9-1.2 1.8.5 1.8.7 1.9-.3 1.8-.8h1.8l1.9-.4 1.8-.2 1.9-.5 1.8.3 1.8.4 1.9-.9 1.8.2 1.8-.1 1.9.6 1.8.2 1.8-.3 1.9-.3 1.8-.6 1.9.1 1.8.6 1.8.3 1.9-.3 1.8-.5 1.8.4 1.9-.2 1.8-.8 1.8.3 1.9.9 1.8-.8 1.8-.2 1.9 1.3 1.8-.3 1.9-.4h1.8l1.8.4 1.9-.7h1.8l1.8.4 1.9.1 1.8-.8 1.8 1.3 1.9-1.5 1.8.5h1.9l1.8.5 1.8-.6 1.9.9 1.8-1.3 1.8.2h1.9l1.8-.3 1.8.5 1.9.5 1.8-.2 1.8 1 1.9-.9 1.8-.5 1.9.4 1.8-.5 1.8-.6 1.9.4h1.8l1.8 1.5 1.9-1.3 1.8.7 1.8.3 1.9.1h1.8l1.9-.4 1.8-.5 1.8.4 1.9-.3 1.8-.4 1.8 1.2 1.9-.1 1.8-.5 1.8-1.2 1.9 1.7 1.8-.9 1.8.9 1.9-.7 1.8.5h1.9l1.8-.9 1.8.4 1.9-.7 1.8 1.2 1.8-.7 1.9.3 1.8-.2 1.8.7 1.9-.9h1.8l1.9.1 1.8.5 1.8.4 1.9-.9 1.8.3 1.8-.2 1.9-.1 1.8.1 1.8.9 1.9-.6 1.8.2h3.7l1.8.5 1.9-.9 1.8 1.1 1.8-.8 1.9-.1 1.8-.1 1.8 1 1.9-1.2 1.8.6 1.8.6 1.9-.2 1.8.1 1.8-1.2 1.9-.3 1.8 1.3 1.9-.5 1.8-.1 1.8.6 1.9-.5 1.8.9 1.8-1.2h1.9l1.8.7 1.8-1.3 1.9.4 1.8.5 1.9.4 1.8-1.3 1.8.6 1.9-.2 1.8.3 1.8.2 1.9-.4 1.8.3 1.8.6 1.9.6 1.8-.6 1.8-.6 1.9-.5 1.8 1.6 1.9-.9 1.8-.6 1.8.7 1.9-.5 1.8 1.1 1.8-1.2 1.9.9 1.8-.6 1.8-.3 1.9.1 1.8.5 1.9.1 1.8.6 1.8-.7 1.9.2 1.8-.8 1.8 1.2 1.9-.1 1.8-1 1.8.4 1.9.8 1.8-1.4 1.8.2 1.9.7 1.8.2 1.9-.6 1.8.1 1.8.4 1.9-.4 1.8-.5 1.8.3 1.9.7h1.8l1.8-.7 1.9.5h1.8l1.9 1.1 1.8-.1 1.8-.5 1.9-.8 1.8 1.1 1.8-.8 1.9.1 1.8-.1 1.8.3 1.9-.5 1.8.4 1.8.8 1.9-.8 1.8.1 1.9-.5 1.8-.4 1.8.3 1.9.6 1.8-1 1.8.4h1.9l1.8 1 1.8-1.7 1.9 1.2 1.8-.1 1.9.1 1.8.2 1.8.8 1.9-.8 1.8.1 1.8-.6 1.9.9 1.8-1.6 1.8.8 1.9.4 1.8-.7 1.8.8 1.9-.9 1.8.4 1.9.2 1.8-.2 1.8.3 1.9-.2" fill="none" color="#000"/><path stroke="#FF8080" d="M77.4 205.5l1.8-5.3 1.9-5.4 1.8-5.9 1.8-5.4 1.9-4.9 1.8-5.2 1.9-4 1.8-6.3 1.8-3.9 1.9-5.1 1.8-4.3 1.8-4.2 1.9-4.5 1.8-3.8 1.8-4.2 1.9-4.2 1.8-3.6 1.8-3.7 1.9-3.3 1.8-3.6 1.9-3.1 1.8-2.2 1.8-3.3 1.9-3.6 1.8-1.3 1.8-3.8 1.9-2.3 1.8-2.6 1.8-2.2 1.9-1.5 1.8-2.4 1.9-1.7 1.8-2 1.8-1.6 1.9-1.6 1.8-2.2 1.8-1 1.9-2.4h1.8l1.8-1.4 1.9-1.4 1.8-1.3 1.8-.1 1.9-.7 1.8-1.5 1.9-1.7 1.8-.2 1.8-.4 1.9-1.2 1.8-.4 1.8-1 1.9.1 1.8-1.1 1.8.2 1.9-.8 1.8-.5 1.9-.6 1.8.4 1.8-.6 1.9-.2 1.8-.3 1.8-.9 1.9.4 1.8.1 1.8-.7 1.9-.6 1.8.3 1.8-.3 1.9-.5 1.8-.4 1.9.2h1.8l1.8.5 1.9-.1h1.8l1.8-.9 1.9-.2 1.8.7 1.8-.6h1.9l1.8 1 1.9-1.9 1.8.8 1.8.6 1.9-1 1.8-.7 1.8 1.1 1.9.4 1.8-1.3 1.8.8 1.9-.2 1.8-1.4 1.8 1.5 1.9-.5 1.8-1.1 1.9 1.4 1.8-1.3 1.8.6 1.9.4h1.8l1.8-.2 1.9.2 1.8.3 1.8-.4h1.9l1.8.4 1.9.1 1.8-.7 1.8.9 1.9-.6 1.8.6 1.8-.9 1.9.4h3.6l1.9.5 1.8-.7 1.8.1 1.9.1 1.8-.3 1.9-.7 1.8.3 1.8-.3 1.9 1.3 1.8-.4 1.8-.6 1.9.7 1.8-.4 1.8-.2 1.9.5 1.8.2 1.9.2 1.8-.3 1.8.2h1.9l1.8-.2 1.8.7 1.9-.5 1.8-.3 1.8-.1 1.9.5h1.8l1.8-1.1 1.9.5 1.8 1.1 1.9-1.2 1.8.3h1.8l1.9.7 1.8-.3 1.8-.1 1.9-.1 1.8-.6 1.8.5 1.9 1 1.8-.3 1.8-.6h1.9l1.8-.2 1.9.6 1.8-.5 1.8.3 1.9.4 1.8-.6 1.8.3 1.9-.8 1.8 1.5 1.8-1.2 1.9.8 1.8-1.3 1.9.9 1.8.4 1.8-.8 1.9-.3 1.8.3 1.8.3 1.9-.1 1.8.3h1.8l1.9.3 1.8-.3h1.8l1.9.2 1.8-.3 1.9-.1h1.8l1.8.1h1.9l1.8.1 1.8.6 1.9-.8 1.8-.1 1.8-.1 1.9.2 1.8-.9 1.9.3 1.8 1.1 1.8-.9 1.9.3 1.8.5 1.8-.5h1.9l1.8.3 1.8.3 1.9-.3 1.8.3 1.8-.9 1.9.2 1.8.5 1.9.2 1.8-.5 1.8.3 1.9.1 1.8-.1 1.8-.6 1.9 1.3 1.8-.7 1.8.7 1.9-.8 1.8-.4 1.9 1.1 1.8-.9 1.8.1 1.9.5 1.8-.4h1.8l1.9.4 1.8-.4 1.8.8 1.9-.5 1.8-.4 1.8.6 1.9-.2 1.8-1.4 1.9 1.8 1.8-1 1.8 1.3 1.9-.4h1.8l1.8-1.1 1.9.4 1.8-.1 1.8.4 1.9.1 1.8-.3 1.9-.1 1.8.5 1.8-.2 1.9-.3 1.8.2 1.8.1 1.9-.1 1.8.6 1.8-1.3 1.9 1.3 1.8-1.2 1.8.7 1.9.9 1.8-.9 1.9-.2 1.8.1h1.8l1.9.1" fill="none" color="#000"/><text transform="translate(460.4 197.6)" font-family="Lato" font-size="18" text-anchor="end" color="#000"><tspan>0.044</tspan></text><path stroke="#FAA" d="M473 191.7h63.9M77.4 212.3l1.8-3.9 1.9-3.5 1.8-3.7 1.8-3.7 1.9-3.7 1.8-3.5 1.9-3.6 1.8-3.5 1.8-3.3 1.9-3.5 1.8-3.1 1.8-3.8 1.9-3.1 1.8-3.5 1.8-3.5 1.9-3.1 1.8-3.5 1.8-3.1 1.9-2.7 1.8-3.2 1.9-3.2 1.8-2.9 1.8-3 1.9-2.7 1.8-2.5 1.8-2.4 1.9-3.5 1.8-2.8 1.8-1.6 1.9-2.7 1.8-2.7 1.9-1.9 1.8-1.7 1.8-2.6 1.9-2.9 1.8-1.7 1.8-1.6 1.9-1.7 1.8-2.2 1.8-1.9 1.9-1.9 1.8-2.2 1.8-1.2 1.9-1.5 1.8-1.5 1.9-2.2 1.8-.9 1.8-1.7 1.9-1.1 1.8-1.2 1.8-1 1.9-1 1.8-.8 1.8-2.5 1.9-1.4 1.8.3 1.9-1.2 1.8-1.1 1.8-1 1.9-.7 1.8-.3 1.8-1.3 1.9.1 1.8-1.4 1.8-.2 1.9-1.4 1.8.2 1.8-.9 1.9-.3 1.8-.5 1.9-.9 1.8-.9 1.8-.3 1.9-.1 1.8-.9 1.8.1 1.9-.5 1.8-.1 1.8-.4 1.9 1.1 1.8-1.8 1.9.1 1.8.2 1.8-.4 1.9-.4h1.8l1.8-.2 1.9-1 1.8-.5 1.8 1.2 1.9-1 1.8 1.1 1.8-1.1 1.9-.7 1.8.3 1.9.6 1.8-.9 1.8.1 1.9.5 1.8-.8 1.8.2 1.9-.3 1.8.8 1.8-1.4 1.9.9 1.8.2 1.9-1 1.8-.2 1.8.4 1.9.9 1.8-.8 1.8.9 1.9-.8 1.8-.2 1.8-.1 1.9-.6 1.8.2 1.8.2 1.9.4 1.8-.2 1.9-.2 1.8-.1 1.8.1 1.9.4 1.8-.5 1.8-.2 1.9.5 1.8-.1 1.8.9 1.9-1.1 1.8-.8 1.9.2 1.8 1 1.8-.2 1.9-.3 1.8.9h1.8l1.9-.8h1.8l1.8.3 1.9-1.1 1.8.9 1.8.1 1.9-.1 1.8.5 1.9-1.1 1.8.9 1.8-.5 1.9 1.4 1.8-.9 1.8-.4 1.9.7 1.8.2 1.8.1 1.9-.8 1.8.3 1.8.5 1.9-1 1.8.3 1.9.5 1.8-.5 1.8.4 1.9-.4 1.8.1 1.8.3 1.9-.1 1.8-.1 1.8-.4 1.9.9 1.8-.6 1.9-.9h1.8l1.8.4 1.9 1.3 1.8-.8 1.8.4 1.9-.1 1.8-.5 1.8-.2 1.9.1 1.8-.5 1.8.9 1.9.3 1.8-.6 1.9-.5h1.8l1.8-.2 1.9 1.9 1.8-.3 1.8-.9 1.9-.6 1.8.8 1.8.1 1.9-1.1 1.8 1.1 1.9-.5 1.8.1 1.8 1.1 1.9-1.1 1.8.4 1.8-.6 1.9 1.4 1.8-.7h1.8l1.9-.7 1.8.6 1.8-.7 1.9.3 1.8.1 1.9.1 1.8-.5 1.8 1.5 1.9-.7h1.8l1.8-.6 1.9.5 1.8.6 1.8-.6 1.9.4 1.8-.8 1.9.7h1.8l1.8-1.1 1.9.7h1.8l1.8.2 1.9.2 1.8-.8 1.8 1.3 1.9-1.2 1.8 1 1.8.2 1.9-.6 1.8.3 1.9-.6 1.8.7 1.8-.1 1.9-.3 1.8.7 1.8-1.1 1.9-.6 1.8 1.7 1.8-.7 1.9.1 1.8.2 1.9-.4 1.8.1 1.8.6 1.9-.6 1.8.2 1.8.2 1.9.6 1.8-1 1.8.2 1.9-.5 1.8.2 1.8 1.3 1.9-1.7 1.8.4 1.9.2 1.8.4 1.8-1.3 1.9.8" fill="none" color="#000"/><path stroke="#FFD5D5" d="M77.4 213l1.8-2.8 1.9-3 1.8-2.9 1.8-3.2 1.9-2.5 1.8-3 1.9-3.1 1.8-2.7 1.8-2.6 1.9-3 1.8-2.9 1.8-2.7 1.9-2.8 1.8-2.5 1.8-2.9 1.9-3.1 1.8-2.9 1.8-2.7 1.9-2.2 1.8-3 1.9-2.2 1.8-2.8 1.8-2.3 1.9-2.9 1.8-2.2 1.8-2.5 1.9-1.7 1.8-3.2 1.8-2 1.9-2.2 1.8-2.3 1.9-1.9 1.8-2.2 1.8-2.3 1.9-1.9 1.8-2.6 1.8-1.9 1.9-1.6 1.8-2.2 1.8-1.7 1.9-1.9 1.8-1.8 1.8-1.8 1.9-2.5 1.8-1 1.9-1.5 1.8-.8 1.8-2.4 1.9-2.3 1.8-.2 1.8-2.3 1.9-1.2 1.8-1.2 1.8-1.7 1.9-1.5 1.8-1.2 1.9-1 1.8-.3 1.8-2 1.9-1.4 1.8-.2 1.8-2.3 1.9-.2 1.8-.7 1.8-1.3 1.9-.9 1.8-.7 1.8-.8 1.9-1.5 1.8-.3 1.9-1.4 1.8.2 1.8-1.3 1.9.3 1.8-1.5h1.8l1.9-1.9 1.8-.4h1.8l1.9-.6 1.8-.7 1.9-.1 1.8-1.7 1.8.6 1.9-.8 1.8-.2 1.8-.5 1.9-.2 1.8-1 1.8.6 1.9-.6 1.8-.7 1.8-.3 1.9-.1 1.8.3 1.9-.9 1.8.6 1.8-.6 1.9-1 1.8.6 1.8-1 1.9.6 1.8-1.5 1.8 1.8 1.9-1 1.8-.7 1.9.1h1.8l1.8-.9 1.9-.1 1.8.1 1.8-.2 1.9-.2 1.8.5 1.8-.5 1.9.7 1.8-.4 1.8-.4 1.9-.3 1.8.5 1.9-1.4 1.8.7 1.8-.1 1.9 1.3 1.8-.7h1.8l1.9-.4 1.8-.4 1.8.4 1.9-.1 1.8 1.1 1.9-1.5 1.8.1 1.8.3h3.7l1.8-.5 1.9.4 1.8-.3 1.8-.4 1.9.4 1.8.7 1.8-.6 1.9-.8 1.8-.1 1.9 1.7 1.8-1.1 1.8.6 1.9.2 1.8-.2 1.8-.5 1.9 1 1.8-.3 1.8-.2 1.9-.5 1.8.2 1.8.3 1.9-.1h1.8l1.9.1 1.8-.4 1.8.1 1.9-.7 1.8 1.2 1.8-.7 1.9.2 1.8.8 1.8-1.4 1.9.2 1.8 1 1.9-1.7 1.8 1 1.8.3 1.9.2 1.8-.3 1.8.1 1.9-.1 1.8-1.2 1.8 1.2 1.9-.5 1.8.2 1.8.1 1.9.5 1.8-.9 1.9 1.2 1.8-1.3 1.8.3 1.9.3 1.8-.4 1.8.1 1.9-.6 1.8 1.5 1.8-.2 1.9-.9 1.8.8 1.9-.3 1.8-.6 1.8-.2 1.9.8h1.8l1.8-.1 1.9.3 1.8-.3 1.8.7 1.9-.6 1.8.7 1.8-.6 1.9.1 1.8-.1 1.9-.2 1.8.7 1.8-.8 1.9-.2 1.8.7 1.8.1 1.9.3 1.8-.6 1.8.8 1.9-.7 1.8-.4 1.9-.4 1.8 1 1.8-.3 1.9-.3 1.8.8 1.8-.7 1.9.5 1.8-.8 1.8.8 1.9-.6 1.8-.2 1.8.8 1.9.4 1.8-.7 1.9.5 1.8-.7 1.8.2 1.9.1 1.8.1 1.8.5 1.9-.2 1.8.3 1.8-1.7 1.9.8 1.8.1 1.9-.7 1.8.4 1.8-.8 1.9 1.7 1.8-.3 1.8.2 1.9-1.6 1.8 1.7 1.8-.3 1.9-.5h1.8l1.8.7 1.9-1.2 1.8 1.6 1.9-1.3 1.8.1 1.8.2 1.9.3" fill="none" color="#000"/><path stroke="#D5E5FF" d="M77.4 213.5l1.8-2.4 1.9-2.7 1.8-2.6 1.8-2.4 1.9-2.4 1.8-2.6 1.9-2.5 1.8-2.5 1.8-2.7 1.9-2 1.8-2.5 1.8-2.5 1.9-2.7 1.8-2 1.8-2.7 1.9-2.2 1.8-2.7 1.8-2.2 1.9-1.9 1.8-2.6 1.9-2.4 1.8-2.1 1.8-2.4 1.9-1.5 1.8-2.8 1.8-2.4 1.9-1.7 1.8-2.2 1.8-2.7 1.9-1.7 1.8-2.2 1.9-1.9 1.8-2.3 1.8-1.7 1.9-2.5 1.8-1.9 1.8-1.9 1.9-1.6 1.8-1.8 1.8-2 1.9-1.3 1.8-2.8 1.8-.8 1.9-1.9 1.8-1.7 1.9-1.4 1.8-1.9 1.8-1.7 1.9-2 1.8-1 1.8-1.8 1.9-1.4 1.8-1.8 1.8-.9 1.9-1.4 1.8-.9 1.9-1.6 1.8-1.3 1.8-1.5 1.9-1 1.8-2.1 1.8-.4 1.9-1.1 1.8-1.6 1.8-.7 1.9-1.6 1.8-1.5 1.8-.2 1.9-.6 1.8-1 1.9-.5 1.8-1.2 1.8-1.3 1.9-.3 1.8-.9 1.8-.6 1.9-1.4 1.8.1 1.8-1.8 1.9-1.2 1.8.4 1.9-1.5 1.8-1 1.8-.6 1.9.4 1.8-.7 1.8-.8 1.9-.6 1.8-.3 1.8-.8 1.9.2 1.8-1.3 1.8-.2 1.9-.6 1.8-.5h1.9l1.8-.4h1.8l1.9-1.5 1.8.1 1.8.5 1.9-.6 1.8-.8 1.8-.4 1.9-.1 1.8-.3 1.9-1.1 1.8.4 1.8.1 1.9-.6 1.8-.4 1.8-.5h1.9l1.8-.1 1.8.4 1.9-.9 1.8.7 1.8-1.2 1.9-.2 1.8.3 1.9-.7 1.8 1 1.8-.3 1.9-1.2 1.8.5h1.8l1.9-.4 1.8.2 1.8.1 1.9-1 1.8.5 1.9.6 1.8-1.1 1.8.1 1.9.6 1.8-.7 1.8.4 1.9-.3 1.8-.3 1.8.5 1.9-1 1.8.3 1.8-.7 1.9.9 1.8.5 1.9-.1 1.8-.5 1.8-.8 1.9.3 1.8.8 1.8-.6 1.9.7h1.8l1.8-.2 1.9-.3 1.8-.8 1.8.6 1.9-.2 1.8.9 1.9-1.6 1.8.4 1.8.2 1.9-.1 1.8.5 1.8-.7 1.9.6 1.8.6 1.8-.4 1.9-.1 1.8-1h1.9l1.8.9 1.8-.8 1.9.7 1.8-.1 1.8.2 1.9-.5 1.8-.8 1.8.9 1.9.3 1.8-.4 1.8.4 1.9-.3 1.8.5 1.9-.4 1.8-.1 1.8 1 1.9-1 1.8-.3 1.8.7 1.9.4 1.8.1 1.8-1 1.9.4 1.8-.2 1.9.5 1.8-1 1.8.4 1.9.8 1.8-.9 1.8.4h1.9l1.8-.2 1.8-.2h1.9l1.8.5 1.8-.6h1.9l1.8.2 1.9.4 1.8-.6 1.8.4 1.9.4 1.8.5 1.8-1.4 1.9.8 1.8-1.2 1.8 1.4 1.9-.6 1.8-.7 1.9.5 1.8.2 1.8-.9 1.9.7 1.8.7 1.8-.3 1.9.2 1.8-.1h1.8l1.9-.3h1.8l1.8 1.1 1.9-.6h1.8l1.9-1 1.8.4 1.8 1 1.9-1 1.8.5 1.8-.7 1.9.2 1.8-.3 1.8.4 1.9-.1 1.8.6 1.9.2 1.8-.9 1.8.5 1.9.1 1.8.5 1.8-.5 1.9-1.2 1.8.4 1.8.7 1.9.5h3.6l1.9.1 1.8.3 1.9-1.3 1.8.3 1.8.2 1.9-.1" fill="none" color="#000"/><path stroke="#ACF" d="M77.4 213.7l1.8-2.1 1.9-2.2 1.8-2.5 1.8-2.1 1.9-2.2 1.8-2.4 1.9-1.9 1.8-2.3 1.8-2.2 1.9-2.4 1.8-2.3 1.8-2 1.9-1.9 1.8-2.8 1.8-2 1.9-2.4 1.8-1.8 1.8-1.8 1.9-2.2 1.8-2.7 1.9-1.5 1.8-2 1.8-2.4 1.9-2.1 1.8-1.9 1.8-1.9 1.9-2.5 1.8-1.4 1.8-1.6 1.9-2.2 1.8-2 1.9-2.1 1.8-2.6 1.8-1.1 1.9-1.2 1.8-2.6 1.8-1.6 1.9-2 1.8-2.2 1.8-.8 1.9-2.2 1.8-.8 1.8-2.6 1.9-1.6 1.8-1.9 1.9-1.4 1.8-1 1.8-2.2 1.9-1.3 1.8-2 1.8-.6 1.9-1.9 1.8-2 1.8-.8 1.9-1.4 1.8-1.7 1.9-1.5 1.8-1.1 1.8-.9 1.9-1.8 1.8-.8 1.8-1.7 1.9-.7 1.8-1.5 1.8-1.5 1.9.5 1.8-2.4 1.8-.8 1.9-.9 1.8-1.8 1.9-.9 1.8-.4 1.8-1.5 1.9-.1 1.8-.8 1.8-2 1.9-.6 1.8-.9 1.8-.7 1.9-.8 1.8.1 1.9-2.1h1.8l1.8-1.8 1.9.5 1.8-.9 1.8-1.5 1.9-.5 1.8-.4 1.8-.4 1.9-.5 1.8-1.6 1.8.5h1.9l1.8-1.2 1.9-.8 1.8-.3 1.8-.5 1.9-1.4h1.8l1.8-.4 1.9-.1 1.8-.8 1.8.2 1.9-.4 1.8-1 1.9-.4 1.8-.2 1.8-.9 1.9-1.3 1.8.2 1.8.3 1.9-.3 1.8-.1 1.8-.5 1.9-.3 1.8-.6 1.8.2 1.9-.5 1.8-.2 1.9-.6 1.8.8 1.8-.4 1.9.1 1.8-1 1.8.3h3.7l1.8-.3 1.9-.7 1.8.1 1.9-.7 1.8.5 1.8-.3 1.9-.4 1.8-.2 1.8.8 1.9-.6 1.8-.5 1.8-.1 1.9.5 1.8-1h1.8l1.9 1.1 1.8-1.3 1.9.8h1.8l1.8-.4 1.9-.3 1.8.3 1.8-.2 1.9-.1 1.8.4 1.8-1.2 1.9.1 1.8-.3 1.8.5 1.9-.5 1.8.3 1.9.7 1.8-1.4 1.8 1.6 1.9-.5 1.8.1 1.8-.9 1.9.2 1.8.7 1.8-.6 1.9-.1 1.8-.1h3.7l1.8.1 1.9-.2 1.8.3 1.8-.9 1.9.4 1.8.4 1.8-.7 1.9.5 1.8.2 1.8-.8 1.9.6 1.8-.7 1.9.8 1.8.2 1.8-.6 1.9.2 1.8-.2 1.8.2h1.9l1.8-.1 1.8.6 1.9.3 1.8-.6 1.9-1 1.8.8 1.8-.2 1.9.3 1.8.2 1.8-.5 1.9.2 1.8.4 1.8.2 1.9-.5 1.8.2 1.8.8 1.9-1.7 1.8.4 1.9-.2 1.8.5 1.8.1 1.9-.4 1.8-.1 1.8.8 1.9-.1h1.8l1.8.2h1.9l1.8-.5 1.9.2 1.8-.2 1.8-1.8 1.9 1.2 1.8.4 1.8.3 1.9-.5 1.8-.2 1.8.3 1.9-.7 1.8 1.4 1.8-1.1 1.9-.1 1.8.9 1.9.4h1.8l1.8-.6 1.9 1 1.8-1.4 1.8 1.2 1.9-.9 1.8.4 1.8-.5 1.9.9 1.8-.9 1.9-.2 1.8.8 1.8-.8 1.9.3 1.8-.3 1.8.5 1.9.2 1.8.3 1.8-1.2 1.9.4 1.8.2 1.8.4 1.9-.4 1.8-.2 1.9.5 1.8-.4 1.8.6 1.9-.3" fill="none" color="#000"/><path stroke="#80B3FF" d="M77.4 213.9l1.8-2.1 1.9-2.1 1.8-2 1.8-1.9 1.9-2 1.8-2.1 1.9-2.2 1.8-1.8 1.8-2.2 1.9-1.8 1.8-2.1 1.8-1.9 1.9-2.3 1.8-2.2 1.8-1.5 1.9-2.2 1.8-1.4 1.8-2.2 1.9-2.2 1.8-1.6 1.9-2 1.8-2.3 1.8-1.7 1.9-2.3 1.8-1.4 1.8-1.5 1.9-2 1.8-2.1 1.8-1.6 1.9-1.9 1.8-2.3 1.9-1.4 1.8-1.4 1.8-2.1 1.9-1.7 1.8-2 1.8-1.5 1.9-1.7 1.8-1.9 1.8-1.8 1.9-1.3 1.8-1.2 1.8-2 1.9-1.8 1.8-1.6 1.9-1.3 1.8-1.3 1.8-1.7 1.9-1.1 1.8-2.5 1.8-.9 1.9-2 1.8-.5 1.8-1.8 1.9-1.4 1.8-1.6 1.9-.5 1.8-2.3 1.8-1.1 1.9-1 1.8-1.4 1.8-1.1 1.9-1.9 1.8.1 1.8-1.6 1.9-1.5 1.8-1 1.8-1.8 1.9-.7 1.8-.6 1.9-1.4 1.8-.2 1.8-2.5 1.9-.5 1.8-1.2 1.8-1.2 1.9.2 1.8-1.4 1.8-1.2 1.9-.1 1.8-.9 1.9-.3 1.8-2.2 1.8-1.1 1.9.3 1.8-1.7 1.8.2 1.9-1.1 1.8-.5 1.8-.7 1.9-.5 1.8-2.2 1.8.4 1.9-.6 1.8-.9 1.9-.6 1.8.2 1.8-1.8 1.9-.7h1.8l1.8-.5 1.9-.5 1.8.4 1.8-1 1.9-.7 1.8-.6 1.9-2 1.8.7 1.8-.6 1.9-.1 1.8.2 1.8-.7 1.9-.6 1.8-.6 1.8.4 1.9-.3 1.8-1.2 1.8.2 1.9-.7 1.8-.7 1.9-.9 1.8.1 1.8.1 1.9-.1h1.8l1.8-.2 1.9-1 1.8-.2 1.8-.4 1.9.1h1.8l1.9-.7 1.8-.2h1.8l1.9.3 1.8-.5 1.8-.7 1.9.5 1.8-.6 1.8.5 1.9-.3 1.8-1h1.8l1.9.8 1.8-.8 1.9-.4h1.8l1.8.5 1.9-.7 1.8.3 1.8.4 1.9-.4 1.8-.5 1.8.2 1.9-.5 1.8.2 1.8.1 1.9-.6 1.8.5 1.9-.4 1.8.3 1.8-.4 1.9-.8 1.8.6 1.8.6 1.9-.2 1.8-.9 1.8-.3 1.9.2 1.8-.3 1.9 1.1 1.8-.9 1.8.2 1.9-.2 1.8.4 1.8-1.8 1.9 1 1.8-.1h1.8l1.9.1h1.8l1.8.3 1.9-.2 1.8-.2 1.9.1 1.8.4h1.8l1.9.1 1.8-1.3 1.8 1 1.9-.3 1.8.7 1.8-.1 1.9.1 1.8.1 1.9-1.2 1.8.5 1.8.1h1.9l1.8-.2h1.8l1.9.6 1.8-1.2 1.8.7 1.9-.3 1.8-.2 1.8.2 1.9.4 1.8.7 1.9-1.2 1.8.4h1.8l1.9-1.1 1.8.7 1.8.8 1.9-.4 1.8.3 1.8-1 1.9.8 1.8-.1 1.9-.2 1.8.4 1.8.2 1.9-1.1 1.8-.8 1.8.7 1.9.2 1.8.8 1.8.3 1.9-1.1h1.8l1.8 1.3 1.9-1.1h3.7l1.8-.3 1.8 1.2 1.9-.6 1.8-.8 1.8 1.3 1.9.5 1.8-.8 1.8-.6 1.9-.3 1.8 1.7 1.9-1.5 1.8.6 1.8-.2 1.9.8 1.8-.5 1.8.3 1.9-1 1.8.3 1.8.6 1.9-.2 1.8.1 1.8-.5 1.9.6 1.8-.6 1.9.7h1.8l1.8-.5 1.9.1" fill="none" color="#000"/><path stroke="#59F" d="M77.4 209.7l1.8-1.6 1.9-1.5 1.8-1.3 1.8-1.8 1.9-1.6 1.8-1.5 1.9-1.8 1.8-1.5 1.8-1.7 1.9-1.3 1.8-2 1.8-1.8 1.9-1.6 1.8-1.7 1.8-2 1.9-1.8 1.8-1.5 1.8-1.9 1.9-1.7 1.8-1.7 1.9-1.7 1.8-1.6 1.8-1.9 1.9-1.8 1.8-1.3 1.8-2 1.9-1.6 1.8-2 1.8-1.7 1.9-1.8 1.8-1.5 1.9-1.8 1.8-1.4 1.8-1.2 1.9-2.4 1.8-1.1 1.8-1.8 1.9-1.8 1.8-1.3 1.8-1.4 1.9-1.6 1.8-2.6 1.8-.7 1.9-1.3 1.8-2.2 1.9-1.3 1.8-1.5 1.8-2 1.9-.3 1.8-1.7 1.8-1.3 1.9-1.1 1.8-1.6 1.8-1.4 1.9-1.4 1.8-1.7 1.9-.4 1.8-1.8 1.8-1.6 1.9-1.3 1.8-1.5 1.8-1.3 1.9-.9 1.8-1.4 1.8-.8 1.9-.4 1.8-1.3 1.8-2 1.9-.4 1.8-1.6 1.9-2 1.8.3 1.8-1.5 1.9-1.6 1.8-.5 1.8-1 1.9-.8 1.8-1.7 1.8-.3 1.9-1 1.8-1.3 1.9-.3 1.8-.9 1.8-.4 1.9-.8 1.8-.8 1.8-1.3 1.9-1.5 1.8-.1 1.8-1.6 1.9-.2 1.8-.7 1.8-.2 1.9-1.2 1.8-.7 1.9-1.2 1.8-.2 1.8-.7 1.9-.2 1.8-1.6h1.8l1.9-.6 1.8.1 1.8-1.3 1.9-.4 1.8-.8 1.9-.4 1.8-.5 1.8-1.3 1.9.6h1.8l1.8-1.4 1.9.1 1.8-1.1 1.8.2 1.9-1.4 1.8.1 1.8-.4 1.9 1 1.8-2.1 1.9.1 1.8.1 1.8-1h1.9l1.8.3 1.8-2.1 1.9.7 1.8-.5 1.8-.5 1.9.3 1.8-.7 1.9.3 1.8-1.3 1.8.5 1.9.1 1.8-.2 1.8-1.4 1.9-.5 1.8-.1 1.8.3 1.9-1.2 1.8.5 1.8.5 1.9-.4 1.8-1 1.9.5 1.8-.4 1.8.2 1.9.5 1.8-.9 1.8-1.2 1.9.7 1.8-.3 1.8.1 1.9.2 1.8-.6 1.8.9 1.9-.8 1.8-.1 1.9-.3 1.8-.5 1.8.5 1.9-.6 1.8.2 1.8-.4 1.9-.7 1.8.2 1.8.9 1.9-.8 1.8.6 1.9-.8 1.8.5 1.8-.1 1.9-.9 1.8.3 1.8.6 1.9-.3 1.8-.4 1.8-.1 1.9.6 1.8.3 1.8-1.5 1.9.8 1.8-.4 1.9.1 1.8.8 1.8-1 1.9-.1 1.8-.3 1.8.2 1.9.5 1.8-.5 1.8.4 1.9-.3 1.8.2 1.9.1h1.8l1.8-1.2 1.9.7 1.8-.2 1.8-.2 1.9.4 1.8-.3 1.8.7 1.9-.6 1.8.6 1.8-1.4 1.9.7 1.8.2 1.9-.7 1.8.7h1.8l1.9-.2 1.8.4 1.8.2 1.9-1 1.8.9 1.8-.2 1.9-.1 1.8.7 1.9-.3 1.8-1.2 1.8.7 1.9-.3 1.8 1.2 1.8-.9 1.9.2 1.8-.8 1.8.9 1.9-.9h1.8l1.8 1.8 1.9-1.1h1.8l1.9.4 1.8-1 1.8.7 1.9.3 1.8-1.3 1.8 1.1 1.9.1 1.8-1 1.8.5 1.9.3 1.8-.8h1.9l1.8.5 1.8-.2 1.9.7 1.8-.3 1.8-.5 1.9-.1 1.8 1.3 1.8-1 1.9 1.1 1.8-.6 1.8-.6 1.9.5 1.8-.7 1.9 1 1.8.1 1.8-.6 1.9.1" fill="none" color="#000"/><path stroke="#2A7FFF" d="M77.4 129.3l1.8 4.5 1.9 4.5 1.8 3.5 1.8 3.8 1.9 2.4 1.8 2.9 1.9 2.7 1.8 2.2 1.8 2 1.9 1.1 1.8 1.1 1.8 1.6 1.9.9 1.8.6 1.8 1.2 1.9-.1 1.8.3 1.8-.2 1.9-.2h1.8l1.9-1.1h1.8l1.8-.1 1.9-.8 1.8-.9 1.8-.4 1.9-1 1.8-.9 1.8-1.1 1.9-.8 1.8-.7 1.9-1.5 1.8-1.1 1.8-1.4 1.9-1.1 1.8-1 1.8-1.2 1.9-1.4 1.8-1.5 1.8-.7 1.9-1.5 1.8-2 1.8-.4 1.9-1.6 1.8-1.9 1.9-.5 1.8-1.1 1.8-1.9 1.9-1 1.8-1.6 1.8-1.4 1.9-1.5 1.8-.7 1.8-1.1 1.9-1.7 1.8-1 1.9-1 1.8-2 1.8-.5 1.9-1.6 1.8-.8 1.8-1.6 1.9-.8 1.8-1.4 1.8-1.3 1.9-1.1 1.8-.8 1.8-1.3 1.9-1.5 1.8-1 1.9-1.2 1.8-.9 1.8-.9 1.9-.8 1.8-1.2 1.8-1.1 1.9-1.1 1.8-1.1 1.8-.9 1.9-.9 1.8-.3 1.9-1.3 1.8-.3 1.8-1.8 1.9-.6 1.8-.4 1.8-1.4 1.9-2 1.8.8 1.8-.4 1.9-1.6 1.8-.6 1.8-.5 1.9-.7 1.8-1 1.9-1 1.8-.5 1.8-.8 1.9-.4 1.8-1.5 1.8.2 1.9-.6 1.8-1.2 1.8-.8 1.9-.1 1.8-1 1.9-.5 1.8-.7 1.8-.1 1.9-1 1.8-.3 1.8-1 1.9.6 1.8-1.5 1.8-1.1 1.9.2 1.8-.7 1.8-.6 1.9 1.2 1.8-1.6 1.9.1 1.8-.8 1.8-.4 1.9.2 1.8-1.5 1.8.1 1.9-.6h1.8l1.8-.5 1.9.6 1.8-.2 1.9-1.1 1.8-1.4 1.8.8 1.9-.2 1.8.1 1.8-1.2 1.9-.6 1.8-.1 1.8-.5 1.9-.4 1.8.7 1.8-.3 1.9-.1 1.8-.7 1.9-.8 1.8.1 1.8.4 1.9-.3 1.8-1h1.8l1.9.3 1.8.1 1.8-.9 1.9.6 1.8-1 1.8-1 1.9.8 1.8.3 1.9-.6 1.8.4 1.8.2 1.9-1 1.8.6 1.8-.3 1.9-.6 1.8.7 1.8-.7 1.9-.4 1.8.7 1.9-1.1 1.8.3 1.8-.4 1.9.4 1.8-.9 1.8.1 1.9-.5 1.8.9 1.8-.8 1.9.2 1.8.1 1.8-.3 1.9.1 1.8-.9 1.9.6 1.8-.1h1.8l1.9-.4 1.8.5 1.8.6 1.9.1 1.8-1.3 1.8.2 1.9.4h1.8l1.9.3 1.8-1.3 1.8.3 1.9.9 1.8-.7h1.8l1.9.4 1.8-.3 1.8-.7 1.9 1.3 1.8-.8h1.8l1.9-.1 1.8.1 1.9-.3 1.8.5 1.8-.6 1.9.3 1.8.2 1.8-.4 1.9-.3 1.8.2 1.8.2 1.9-1.2 1.8 1.4 1.9-.6 1.8-.6 1.8.7 1.9-.9 1.8.3 1.8.4 1.9.1 1.8-.2 1.8 1.4 1.9-1 1.8.3 1.8-.7 1.9.7 1.8-.1 1.9-1 1.8.5 1.8.1 1.9.3 1.8-.1 1.8-.5 1.9.5 1.8.1 1.8-.3h1.9l1.8.1 1.9-.2 1.8 1 1.8-.4 1.9-.2 1.8-.5 1.8.4 1.9-.4 1.8.7 1.8.1 1.9.1 1.8-.5 1.8-.6 1.9-.1 1.8 1.3 1.9.2 1.8-.9 1.8-.1 1.9.1" fill="none" color="#000"/><path stroke="#06F" d="M77.4 62.2l1.8 2.7 1.9 3.5 1.8 4.1 1.8 2.5 1.9 4.1 1.8 3.5 1.9 3.1 1.8 3.2 1.8 2.3 1.9 3.2 1.8 2.9 1.8 3 1.9 1.4 1.8 3.7 1.8 2 1.9 2 1.8 1.5 1.8 2.5 1.9 2.1 1.8 1.2 1.9 2.2 1.8 1.4 1.8 1.5 1.9 1.4 1.8.6 1.8 2 1.9.2 1.8 1 1.8 1.5 1.9-.1 1.8 1.7 1.9-.5 1.8.9 1.8.1 1.9.1 1.8.3 1.8.1 1.9.1 1.8.4 1.8-.3 1.9-.6 1.8.1 1.8-.6 1.9-.3 1.8-.6 1.9-.4 1.8-.3 1.8-.3 1.9-1 1.8-.4 1.8-1 1.9-.2 1.8-.7 1.8-.5 1.9-.9 1.8-.1 1.9-1.3 1.8-.7 1.8-1 1.9-1.2 1.8-.4 1.8-.4 1.9-1.7 1.8-.6 1.8-1.2 1.9-1.1 1.8-.5 1.8-1.7 1.9-.1 1.8-1.5 1.9-.6 1.8-.8 1.8-.6 1.9-1.5 1.8-.3 1.8-.8 1.9-.6 1.8-.9 1.8-1 1.9-1 1.8-1.4 1.9-1.4 1.8-.4 1.8-.2 1.9-.8 1.8-1.5 1.8-.9 1.9.1 1.8-1.5 1.8-.9 1.9-.6 1.8-.8 1.8-.2 1.9-1.2h1.8l1.9-2.2 1.8-.1 1.8-1.1 1.9-.2 1.8-.4 1.8-.7 1.9-1.2 1.8-.4 1.8-.3 1.9-.7 1.8-1.2 1.9-.6 1.8-.3 1.8-.6 1.9-.8 1.8-.9 1.8-.4 1.9-.5 1.8-.7h1.8l1.9-.9 1.8-.1 1.8-.8 1.9-.6h1.8l1.9-.9 1.8-.7 1.8-.5 1.9-.4 1.8-.2 1.8-.4 1.9-.2 1.8-.3 1.8-1.2 1.9 1 1.8-1.5 1.9 1.5 1.8-2.4 1.8-.6 1.9.1 1.8-.1 1.8-.8 1.9-.3 1.8-.3 1.8.2 1.9-.4 1.8.2 1.8-1.1h1.9l1.8-.5h1.9l1.8-.7 1.8-.1 1.9-.8 1.8.1 1.8.3 1.9.7 1.8-1.6 1.8-.1 1.9.8 1.8-.8 1.8.5 1.9-1.2 1.8.9 1.9-1.3 1.8-.2 1.8.4 1.9-.4 1.8-.8 1.8.3h3.7l1.8-1.7 1.9.9 1.8.6 1.9-.7 1.8-1 1.8.9 1.9-.1 1.8-.3 1.8-1 1.9.9 1.8-.6 1.8-.3 1.9.6 1.8.2 1.8-.8 1.9.3 1.8-.2 1.9-.1 1.8.2 1.8-.1 1.9.3 1.8-1.6 1.8.1 1.9-.1 1.8.1 1.8.6 1.9-1.8 1.8 1.5 1.9.6 1.8-1.4 1.8.5 1.9-.7 1.8 1.2 1.8-.3 1.9.1 1.8-.8 1.8-.4 1.9.5 1.8.3h1.8l1.9-.9 1.8.5 1.9.4 1.8-.6 1.8.2 1.9.6 1.8-1.3 1.8.8 1.9-.1 1.8.1 1.8-.5 1.9.5 1.8-.5 1.9 1.6 1.8-2h1.8l1.9-.1 1.8.8 1.8.6 1.9-1.5 1.8 1 1.8-.2 1.9-.8 1.8.8 1.8-.1 1.9-.6 1.8 1.5 1.9-1.5 1.8.1 1.8.4h3.7l1.8-.2 1.9-.3 1.8.7 1.8-.3 1.9-.2 1.8.4 1.9-1 1.8.1 1.8.3 1.9-.1 1.8-1.1 1.8 1.7 1.9-.3 1.8-.4 1.8.6 1.9-.5h1.8l1.8.8 1.9-.5 1.8-.2 1.9-1.2 1.8 1.6 1.8-.3 1.9.1" fill="none" color="#000"/><path stroke="#0055D4" d="M77.4 56.5l1.8 1.7 1.9 3.3 1.8 2 1.8 1.3 1.9 3.3 1.8.6 1.9 2.5 1.8 1.6 1.8 2.2 1.9 1.6 1.8 2.2 1.8 1.7 1.9 1.2 1.8 2.5 1.8.5 1.9 1.5 1.8 1.9 1.8 2.5 1.9.9 1.8 1.9 1.9 1.1 1.8 1.5 1.8.9 1.9 2 1.8.5 1.8.9 1.9 1.1 1.8 1.9 1.8.8 1.9.5 1.8.6 1.9 1.3 1.8.3 1.8 1.7 1.9.3 1.8.5 1.8.6 1.9 1 1.8.5 1.8.8 1.9-.2 1.8.5 1.8.2 1.9.8 1.8.1 1.9-.2 1.8.2 1.8-.3 1.9 1 1.8-.7 1.8.3 1.9-.2 1.8-.1 1.8-.3 1.9.3 1.8-.4 1.9-.1 1.8-.5 1.8-.2 1.9.2 1.8-.3 1.8-.4 1.9-.5 1.8-.5 1.8-.8 1.9-1.3 1.8.3 1.8-.1 1.9-.9 1.8-.3 1.9-.5 1.8-.6 1.8-.6 1.9-.7 1.8-.2 1.8-.7 1.9-.3 1.8-1.7 1.8-.4 1.9-.8 1.8-.5 1.9-.1 1.8-.8 1.8-1 1.9.4 1.8-1.2 1.8-.5 1.9-.9 1.8-1 1.8-.3 1.9-1 1.8-.2 1.8-1.2 1.9-.4 1.8-1.3 1.9-.7 1.8-.9 1.8.3 1.9-.9 1.8-.4 1.8-.3 1.9-1.2 1.8-1h1.8l1.9-.3 1.8-1.8h1.9l1.8-.7 1.8-.1 1.9-.5 1.8-.3 1.8-.5 1.9-1 1.8-.8 1.8-.3 1.9-.1 1.8-1.2 1.8-.8 1.9.2 1.8-1 1.9.2 1.8-1.2h1.8l1.9-.4 1.8-.5 1.8-.4 1.9-1.3 1.8.1 1.8-.2 1.9-1.1 1.8.1 1.9-.5 1.8-.7 1.8-.1 1.9-.5 1.8-.7 1.8-.2 1.9-.1 1.8-.2 1.8-.1 1.9-1.3 1.8-.1 1.8.2 1.9-.3 1.8-.8 1.9.5 1.8-1 1.8.6 1.9-.6 1.8-.4 1.8-.9 1.9.1 1.8-1 1.8.7 1.9-.4 1.8-.4 1.8.2 1.9-1.1 1.8.3 1.9.2 1.8-.8 1.8 1 1.9-.6 1.8-.4 1.8-1.1 1.9.2 1.8-.1 1.8-.2 1.9-.1 1.8-.5 1.9.3 1.8-.7 1.8.3 1.9.8 1.8-1.5 1.8-.2 1.9-.1 1.8.1 1.8-.2 1.9-.2 1.8.2 1.8.1 1.9-.9 1.8-.3 1.9.5 1.8.3 1.8-.4 1.9.2 1.8-1 1.8-.3 1.9.5 1.8.4 1.8-.5 1.9.7 1.8-.4 1.9-.6 1.8-.6 1.8.6 1.9-.3 1.8.2 1.8.1 1.9-.2 1.8-.7 1.8.6 1.9-.7 1.8.4 1.8-.1 1.9.4 1.8-.1 1.9-.3 1.8.2h1.8l1.9-.8 1.8-.1 1.8 1 1.9-.7h1.8l1.8.3h1.9l1.8-.3h1.9l1.8-.6 1.8-.1 1.9.1 1.8.1 1.8-.4 1.9.2h1.8l1.8.2 1.9-.1 1.8.1 1.8.2 1.9-.2 1.8-.5h1.9l1.8.1 1.8-.4 1.9 1.6 1.8-1.2 1.8.5h1.9l1.8-.5h1.8l1.9-.4 1.8.1 1.9.5 1.8-1.2 1.8 1 1.9.2 1.8.2 1.8-.7 1.9.1 1.8 1.3 1.8-1.1 1.9.3 1.8-1.1 1.8 1.8 1.9-1 1.8-.2 1.9.2 1.8.3 1.8-.4h1.9" fill="none" color="#000"/><path stroke="#04A" d="M77.4 56l1.8 2.6 1.9 1 1.8 1.3 1.8 1.6 1.9 1.8 1.8.6 1.9 1.4 1.8 1.6 1.8.9 1.9 1.2 1.8 1.6 1.8 1.4 1.9.3 1.8 1 1.8 2.3 1.9 1.5 1.8.8 1.8 1.3 1.9.7 1.8 1.4L116 84l1.8.3 1.8.9 1.9 1.2 1.8 1.4 1.8-.1 1.9 1.7 1.8 1.3 1.8-.1 1.9 1.3 1.8.5 1.9 1.1 1.8.7 1.8.4 1.9 1.5 1.8.2 1.8 1.3 1.9.1 1.8.3 1.8.4 1.9 1.6 1.8-.7 1.8.8 1.9.1 1.8.9 1.9.8 1.8-.4 1.8.8 1.9-.2 1.8.4 1.8.2 1.9.5 1.8-.6 1.8 1 1.9-.8 1.8.8 1.9-.3 1.8.7 1.8-.8 1.9.2 1.8-.2 1.8.8 1.9-.5 1.8-.5 1.8.7 1.9-.7 1.8-.2 1.8-.8 1.9.1 1.8.1 1.9-.2 1.8-.4 1.8-.5 1.9-1 1.8.3 1.8.4 1.9-1.3 1.8-.3 1.8.1 1.9-.5 1.8-.8 1.9-.8 1.8.1 1.8.4 1.9-1 1.8-.8 1.8-.4 1.9-.2 1.8-.3 1.8-1.3 1.9-.3 1.8-.3 1.8-.3 1.9-.6 1.8-.7 1.9-.5 1.8.6 1.8-1.1 1.9-.9 1.8-.8 1.8-.5 1.9-.3 1.8.4 1.8-1.6 1.9-.3 1.8-1.3 1.9.2 1.8-.6h1.8l1.9.3 1.8-1.8 1.8.4 1.9-1.4 1.8-1 1.8 1.4 1.9-1.5 1.8-.6 1.8.1 1.9-.7 1.8-.6 1.9-1 1.8-.1 1.8-.2 1.9-.9h1.8l1.8.2 1.9-1 1.8-.2 1.8-1.4 1.9.9 1.8-.6 1.9-.7 1.8-1.1 1.8.6 1.9-.9 1.8-.7 1.8.1 1.9-.8 1.8-.4 1.8.7 1.9-1.7 1.8.4 1.8-1.1 1.9.2 1.8-.4 1.9-.2 1.8.3 1.8-2 1.9.7 1.8-1 1.8.6 1.9-.1 1.8-.9 1.8.3 1.9-.7 1.8-.3h1.8l1.9-.8 1.8.4 1.9-.6 1.8-.2h1.8l1.9.1 1.8-.8 1.8-.9 1.9.9 1.8-.6 1.8-.8 1.9.9 1.8-1.5 1.9.8 1.8-.6 1.8.3h1.9l1.8-.4 1.8-1 1.9.5 1.8-.1 1.8.4 1.9-1.4 1.8.9 1.8-.6 1.9.5 1.8-.7 1.9-.2 1.8.1 1.8-1.5 1.9.5 1.8-.6 1.8.4 1.9-.3 1.8.3 1.8.4 1.9-1.3 1.8 1 1.9.1 1.8-.2 1.8-.1 1.9-.9 1.8.6 1.8-.8 1.9 1.1 1.8-.6 1.8-.3 1.9.6 1.8-.2 1.8-.4 1.9.6 1.8-1.4 1.9.6 1.8-.4 1.8.2 1.9.1 1.8-.4 1.8.2 1.9-.2 1.8-.7 1.8.4 1.9.2 1.8-.4h1.9l1.8.8 1.8-.7 1.9-.1 1.8.3 1.8-.6 1.9.1 1.8-.1 1.8-.1 1.9.5 1.8-.6 1.8-.1 1.9.1 1.8.1 1.9.1 1.8-.4 1.8-.2 1.9.3 1.8.7 1.8-.4 1.9-.4 1.8.3h1.8l1.9-.4h1.8l1.9.4 1.8-1.6 1.8.8 1.9.4 1.8-.5 1.8.6 1.9-.4 1.8.1 1.8-.4 1.9 1.2 1.8-.7 1.8.1 1.9-.2 1.8.4 1.9-.6 1.8-.3 1.8.1 1.9.3" fill="none" color="#000"/><path stroke="#003380" d="M77.4 57l1.8.7 1.9 1.5 1.8-.2 1.8 1.5 1.9 2.5h1.8l1.9 1.1 1.8.2 1.8 1.5 1.9 1 1.8.6 1.8 1.1 1.9 1.7 1.8.5h1.8l1.9 2.2 1.8-.3 1.8 1.6 1.9.2 1.8 1.3 1.9 1 1.8 1.8 1.8.2 1.9.7 1.8.9 1.8.7 1.9.9 1.8.5 1.8.9 1.9.6 1.8 1.3 1.9.8 1.8.8 1.8-.4 1.9.8 1.8.8 1.8.4 1.9.5 1.8.5 1.8 1.6 1.9-.2 1.8 1.2 1.8-.5 1.9.8 1.8.4 1.9.6 1.8-.2 1.8.7 1.9.2 1.8.1 1.8.3 1.9.5 1.8.2 1.8.4 1.9.3 1.8.2 1.9.5 1.8-.2 1.8.6 1.9-.8 1.8.2 1.8.2 1.9-.3 1.8.3 1.8.4 1.9-.7 1.8.6 1.8-.8 1.9.2 1.8-.4 1.9.6 1.8.2 1.8-1 1.9 1 1.8-.5 1.8-1.1 1.9-.2 1.8.1 1.8.4 1.9-.7 1.8-.5 1.9-.3 1.8.4 1.8-.6 1.9-.2 1.8-.6 1.8.6 1.9-.7 1.8-1 1.8-.5 1.9.3 1.8-.7 1.8.1 1.9-.4 1.8-.5 1.9.2 1.8-.7 1.8-.2 1.9-.7 1.8-.2 1.8.1 1.9-1.2 1.8.1 1.8-.8 1.9-.2 1.8-.8 1.9-.6 1.8.5 1.8-.8 1.9-.9 1.8.3 1.8-.4 1.9-.1 1.8-1.4 1.8-.8h1.9l1.8.1 1.8.5 1.9-1.6 1.8.5 1.9-1.2 1.8-.5 1.8-.4 1.9.1 1.8-1.7 1.8 1.1 1.9-.1 1.8-1.5 1.8.4 1.9-1 1.8-.1 1.9-1.6 1.8.9 1.8-.4 1.9-.2 1.8-.4 1.8.1 1.9-1.4 1.8.4 1.8-1.2 1.9.1 1.8-.5 1.8-.4 1.9.2 1.8-.3 1.9-.5 1.8.2 1.8-1.2 1.9.5 1.8-.1 1.8-.7 1.9-.7 1.8-.7 1.8.3 1.9-.2 1.8-.2 1.8-.3 1.9-.4 1.8-.1 1.9-.7 1.8-.1 1.8.1 1.9-.9h1.8l1.8.4 1.9-1 1.8.4 1.8-.6 1.9.2 1.8-.4 1.9-.5 1.8.8 1.8-1.2 1.9-1.1 1.8.4 1.8.3 1.9-.4h1.8l1.8-.6 1.9.4 1.8-.6 1.8.5 1.9-1.1 1.8-.2 1.9-.2 1.8.5 1.8-.1 1.9-.1 1.8.4 1.8-1 1.9.6 1.8-.4 1.8-.2 1.9-.7 1.8-.5 1.9-.3 1.8-.4 1.8 1.4 1.9-.8 1.8.2 1.8.8 1.9-1 1.8.2 1.8-.3 1.9.1 1.8-.8 1.8.2 1.9-.3 1.8-.1 1.9-.1 1.8.1 1.8.1 1.9-.1 1.8.1 1.8-.3 1.9.6 1.8-.4 1.8-.8 1.9.5 1.8-.7 1.9.9 1.8-.6 1.8-.6 1.9 1.4 1.8-.4 1.8-1 1.9-.7 1.8 1 1.8-.2 1.9.5 1.8.1 1.8-.3 1.9-.6h1.8l1.9.9 1.8-1.4 1.8-.1 1.9.9 1.8-.9 1.8.4 1.9.4 1.8-.8 1.8.2 1.9.4 1.8-.5 1.9-.4 1.8 1 1.8-.6 1.9-.2 1.8-.1 1.8-.6 1.9 1.4 1.8-.4 1.8-.1 1.9-1.2 1.8 1.1 1.8-.7 1.9.8h1.8l1.9-1.1 1.8.4 1.8.5 1.9-.2" fill="none" color="#000"/><path stroke="#025" d="M77.4 56.2l1.8 1 1.9.6 1.8.8 1.8.9 1.9.9 1.8 1.4 1.9.5 1.8.4 1.8 1.4 1.9.5 1.8.9 1.8.7 1.9.5 1.8 1 1.8.4 1.9 1.6 1.8.3 1.8.5 1.9.5 1.8 1.5 1.9.8 1.8-.2 1.8 1.4 1.9.6 1.8.3 1.8 1.5 1.9 1 1.8-.6 1.8.7 1.9 1.1 1.8.6 1.9-.2 1.8 1 1.8.9 1.9.6 1.8.6 1.8.3 1.9-.2L149 84l1.8.6h1.9l1.8.5 1.8-.4 1.9 1.1 1.8.5 1.9.5 1.8.3 1.8.3 1.9 1 1.8.4 1.8-.9 1.9.7 1.8.7 1.8.3 1.9.2 1.8-.5 1.9 1 1.8.3 1.8.2 1.9-.1 1.8-.4 1.8 1.4 1.9-.7 1.8.1 1.8.2 1.9-.4 1.8.1 1.8.1 1.9.5 1.8-.5 1.9.8 1.8-.4h3.7l1.8-.3 1.8-.3 1.9.4 1.8-.4h1.8l1.9.1 1.8-.3 1.9-.4 1.8-.2 1.8.6 1.9-.5h1.8l1.8.3 1.9-1.1h1.8l1.8.6 1.9-1 1.8-1.3 1.8 1.1 1.9-.1 1.8-1.2 1.9.4 1.8-1 1.8-.6 1.9.2 1.8.2 1.8-.2h1.9l1.8-1.1 1.8-.4 1.9.4 1.8-.5 1.9.3 1.8-.3 1.8-.7 1.9-.5h3.6l1.9-.8 1.8-.2 1.8-.3 1.9-.4 1.8-.7 1.8-.5 1.9-.7 1.8.2 1.9-.7 1.8.2 1.8-.2 1.9-.6 1.8-.9 1.8-.4 1.9.6 1.8-.6 1.8-.9 1.9.1 1.8-.3 1.9-.8 1.8.2 1.8-.3 1.9-.1 1.8-.6 1.8-.4h1.9l1.8-1.3h1.8l1.9.1 1.8-.2 1.8-.1 1.9-.1 1.8-1.1 1.9-.1h1.8l1.8-.2 1.9-.2 1.8.4 1.8-1.2 1.9.3 1.8-1.2 1.8.1 1.9-.6 1.8-.4h1.8l1.9-.8 1.8.4 1.9-.8 1.8.4 1.8.4 1.9-.8 1.8-.4 1.8-.7 1.9-.5 1.8-.1 1.8.6 1.9-.2 1.8-.1 1.9-1.6 1.8.4 1.8.6 1.9-1 1.8.6 1.8-.6 1.9.4 1.8-.6 1.8-1.6 1.9 1 1.8-.1 1.8-.5 1.9.3 1.8-.9 1.9-.4 1.8.3 1.8-.3 1.9.1h1.8l1.8-.4 1.9.5 1.8-.6h1.8l1.9-.3 1.8.4 1.9-1 1.8.3 1.8-.6 1.9.5 1.8-.5 1.8-.4 1.9.3 1.8-.1 1.8-.8 1.9.6h1.8l1.8-.9 1.9.1h1.8l1.9.3 1.8-.7 1.8.2 1.9.1 1.8-1.2 1.8.8 1.9-.6 1.8.2 1.8 1.1 1.9-1.2 1.8.1 1.9-.4 1.8 1.1 1.8-.9 1.9-.6 1.8.9 1.8-.8 1.9.1 1.8.1 1.8.8 1.9-.9h1.8l1.8-.6 1.9.1 1.8-.2 1.9.3 1.8.3 1.8-.3 1.9 1 1.8-1.3 1.8-.4 1.9 1.2 1.8-1.8 1.8.5 1.9.7 1.8-.9 1.9.1 1.8.5 1.8-.8 1.9.1 1.8.4 1.8-1 1.9.3 1.8-.7 1.8.7 1.9.4 1.8-.4 1.8-.2 1.9 1 1.8-.4 1.9-.3 1.8-.2 1.8.9 1.9-.8" fill="none" color="#000"/><path stroke="#000" d="M77.4 48.1V216h484.7V48.1H77.4z" fill="none" color="#000"/><g fill="none" color="#000" stroke="currentColor"><path stroke="#000" d="M77.4 384h13.5m471.2 0h-13.5"/><text transform="translate(71.1 389.9)" stroke="none" fill="#000" font-family="Lato" font-size="18" text-anchor="end"><tspan>0</tspan></text></g><g fill="none" color="#000" stroke="currentColor"><path stroke="#000" d="M77.4 384h13.5m471.2 0h-13.5m-471.2-8h6.7m478 0h-6.7m-478-8h6.7m478 0h-6.7m-478-8h6.7m478 0h-6.7m-478-8h6.7m478 0h-6.7m-478-8h13.5m471.2 0h-13.5"/><text transform="translate(71.1 349.9)" stroke="none" fill="#000" font-family="Lato" font-size="18" text-anchor="end"><tspan>5</tspan></text></g><g fill="none" color="#000" stroke="currentColor"><path stroke="#000" d="M77.4 336h6.7m478 0h-6.7m-478-8h6.7m478 0h-6.7m-478-8h6.7m478 0h-6.7m-478-8h6.7m478 0h-6.7m-478-8h13.5m471.2 0h-13.5"/><text transform="translate(71.1 309.9)" stroke="none" fill="#000" font-family="Lato" font-size="18" text-anchor="end"><tspan>10</tspan></text></g><g fill="none" color="#000" stroke="currentColor"><path stroke="#000" d="M77.4 296.1h6.7m478 0h-6.7m-478-8h6.7m478 0h-6.7m-478-8h6.7m478 0h-6.7m-478-8h6.7m478 0h-6.7m-478-8h13.5m471.2 0h-13.5"/><text transform="translate(71.1 270)" stroke="none" fill="#000" font-family="Lato" font-size="18" text-anchor="end"><tspan>15</tspan></text></g><g fill="none" color="#000" stroke="currentColor"><path stroke="#000" d="M77.4 256.1h6.7m478 0h-6.7m-478-8h6.7m478 0h-6.7m-478-8h6.7m478 0h-6.7m-478-8h6.7m478 0h-6.7m-478-8h13.5m471.2 0h-13.5"/><text transform="translate(71.1 230)" stroke="none" fill="#000" font-family="Lato" font-size="18" text-anchor="end"><tspan>20</tspan></text></g><g fill="none" color="#000" stroke="currentColor"><path stroke="#000" d="M77.4 216.1h6.7m478 0h-6.7M77.4 384v-13.5m0-154.4v13.5"/><text transform="translate(77.4 408.8)" stroke="none" fill="#000" font-family="Lato" font-size="18" text-anchor="middle"><tspan>0</tspan></text></g><g fill="none" color="#000" stroke="currentColor"><path stroke="#000" d="M121.5 384v-13.5m0-154.4v13.5"/><text transform="translate(121.5 408.8)" stroke="none" fill="#000" font-family="Lato" font-size="18" text-anchor="middle"><tspan>50</tspan></text></g><g fill="none" color="#000" stroke="currentColor"><path stroke="#000" d="M167.4 384v-13.5m0-154.4v13.5"/><text transform="translate(167.4 408.8)" stroke="none" fill="#000" font-family="Lato" font-size="18" text-anchor="middle"><tspan>100</tspan></text></g><g fill="none" color="#000" stroke="currentColor"><path stroke="#000" d="M213.3 384v-13.5m0-154.4v13.5"/><text transform="translate(213.3 408.8)" stroke="none" fill="#000" font-family="Lato" font-size="18" text-anchor="middle"><tspan>150</tspan></text></g><g fill="none" color="#000" stroke="currentColor"><path stroke="#000" d="M259.2 384v-13.5m0-154.4v13.5"/><text transform="translate(259.2 408.8)" stroke="none" fill="#000" font-family="Lato" font-size="18" text-anchor="middle"><tspan>200</tspan></text></g><g fill="none" color="#000" stroke="currentColor"><path stroke="#000" d="M305.1 384v-13.5m0-154.4v13.5"/><text transform="translate(305.1 408.8)" stroke="none" fill="#000" font-family="Lato" font-size="18" text-anchor="middle"><tspan>250</tspan></text></g><g fill="none" color="#000" stroke="currentColor"><path stroke="#000" d="M351 384v-13.5m0-154.4v13.5"/><text transform="translate(351 408.8)" stroke="none" fill="#000" font-family="Lato" font-size="18" text-anchor="middle"><tspan>300</tspan></text></g><g fill="none" color="#000" stroke="currentColor"><path stroke="#000" d="M396.9 384v-13.5m0-154.4v13.5"/><text transform="translate(396.9 408.8)" stroke="none" fill="#000" font-family="Lato" font-size="18" text-anchor="middle"><tspan>350</tspan></text></g><g fill="none" color="#000" stroke="currentColor"><path stroke="#000" d="M442.8 384v-13.5m0-154.4v13.5"/><text transform="translate(442.8 408.8)" stroke="none" fill="#000" font-family="Lato" font-size="18" text-anchor="middle"><tspan>400</tspan></text></g><g fill="none" color="#000" stroke="currentColor"><path stroke="#000" d="M488.7 384v-13.5m0-154.4v13.5"/><text transform="translate(488.7 408.8)" stroke="none" fill="#000" font-family="Lato" font-size="18" text-anchor="middle"><tspan>450</tspan></text></g><g fill="none" color="#000" stroke="currentColor"><path stroke="#000" d="M562.1 384v-13.5m0-154.4v13.5"/><text transform="translate(562.1 408.8)" stroke="none" fill="#000" font-family="Lato" font-size="18" text-anchor="middle"><tspan>530</tspan></text></g><path stroke="#000" d="M77.4 216.1V384h484.7V216.1H77.4z" fill="none" color="#000"/><text transform="rotate(-90 169.6 144)" font-family="Lato" font-size="18" text-anchor="middle" color="#000"><tspan>Concentration Re [%]</tspan></text><text transform="translate(319.7 443.9)" font-family="Lato" font-size="18" text-anchor="middle" color="#000"><tspan>Distance from the electrode [µm]</tspan></text><path stroke="#500" d="M77.4 384h482.9" fill="none" color="#000"/><path stroke="maroon" d="M77.4 384h482.9" fill="none" color="#000"/><path stroke="#A00" d="M77.4 384h482.9" fill="none" color="#000"/><path stroke="#D40000" d="M77.4 384h482.9" fill="none" color="#000"/><path stroke="red" d="M77.4 383.9h5.5l1.8.1 1.9-.1 1.8.1h471.9" fill="none" color="#000"/><path stroke="#FF2A2A" d="M77.4 381.1l1.8.3 1.9.2 1.8.3 1.8.1 1.9.3 1.8.2 1.9.1 1.8.1 1.8.2h1.9l1.8.2h1.8l1.9.1 1.8.1 1.8.1h1.9l1.8.2 1.8-.1 1.9.1h3.7l1.8.1 1.8.1h11l1.9.1h18.3l1.9.1h407.6" fill="none" color="#000"/><path stroke="#F55" d="M77.4 316.3l1.8 5.5 1.9 5.2 1.8 4.6 1.8 4.7 1.9 4.3 1.8 2.9 1.9 3.6 1.8 3.2 1.8 2.9 1.9 3 1.8 2.2 1.8 2 1.9 2.4 1.8 1.6 1.8 2.1 1.9 1.5 1.8 1.7 1.8 1 1.9 1.2 1.8 1.2 1.9.8 1.8.9 1.8 1 1.9.7 1.8.7 1.8.6 1.9.7 1.8.5 1.8.4 1.9.4 1.8.5 1.9.2 1.8.4 1.8.2 1.9.4 1.8.2 1.8.4h1.9l1.8.2 1.8.2 1.9.2 1.8.1h1.8l1.9.2 1.8.1h1.9l1.8.1 1.8.2h3.7l1.8.2 1.9-.1 1.8.1h1.8l1.9.1h5.5l1.8.1h5.5l1.9.1h16.5l1.8.1h348.9" fill="none" color="#000"/><path stroke="#FF8080" d="M77.4 234.4l1.8 5.2 1.9 5.1 1.8 5.2 1.8 5.2 1.9 5.7 1.8 4.1 1.9 5.9 1.8 4.9 1.8 4.2 1.9 5.2 1.8 4.5 1.8 4.7 1.9 4.1 1.8 4.2 1.8 3.6 1.9 3.3 1.8 4.2 1.8 4.3 1.9 3.3 1.8 3 1.9 3.2 1.8 3.1 1.8 3.2 1.9 2.4 1.8 2.6 1.8 2.9 1.9 3.1 1.8 1.8 1.8 2.3 1.9 1.9 1.8 1.9 1.9 2.5 1.8 1.4 1.8 2 1.9 1.4 1.8 1.7 1.8 1.8 1.9 1 1.8 1.5 1.8 1 1.9 1.4 1.8.7 1.8 1.3 1.9.6 1.8 1.1 1.9 1 1.8.6 1.8.9 1.9.7 1.8.7 1.8.6 1.9.5 1.8.3 1.8.7 1.9.4 1.8.5 1.9.4 1.8.3 1.8.2 1.9.4 1.8.3 1.8.3 1.9.3 1.8.1 1.8.2 1.9.3 1.8.1 1.8.3 1.9.2h1.8l1.9.1 1.8.2 1.8.2h1.9l1.8.1 1.8.1h1.9l1.8.2h1.8l1.9.1h3.7l1.8.1 1.8.1h3.7l1.8.1h3.7l1.8.1h5.5l1.9.1h18.3l1.9.1h1.8l1.9-.1 1.8.1h284.6" fill="none" color="#000"/><path stroke="#FAA" d="M77.4 227.9l1.8 2.6 1.9 4.1 1.8 4.2 1.8 2.5 1.9 4 1.8 3.4 1.9 4 1.8 2.9 1.8 3.4 1.9 4.3 1.8 2.4 1.8 4.7 1.9 3.1 1.8 3.5 1.8 3.1 1.9 2.6 1.8 3.2 1.8 3.7 1.9 2.7 1.8 3.8 1.9 2.5 1.8 3 1.8 2.8 1.9 3.3 1.8 2.9 1.8 2.3 1.9 2.6 1.8 2.6 1.8 2.7 1.9 2.1 1.8 1.7 1.9 3.5 1.8 1.7 1.8 2.3 1.9 2.4 1.8 1.6 1.8 2.4 1.9 1.9 1.8 1.6 1.8 2.5 1.9 1.5 1.8 1.6 1.8 1.9 1.9 1.8 1.8.9 1.9 1.9 1.8 1.2 1.8 1.3 1.9 1.6 1.8 1 1.8 1.4 1.9 1.2 1.8 1.1 1.8 1 1.9 1.2 1.8.7 1.9 1 1.8 1 1.8 1.1 1.9.4 1.8 1.1 1.8.5 1.9.8 1.8.6 1.8.8 1.9.4 1.8.6 1.8.8 1.9.4 1.8.7 1.9.3 1.8.5 1.8.3 1.9.5 1.8.5 1.8.5 1.9.2 1.8.2 1.8.5 1.9.3 1.8.1 1.9.3 1.8.3 1.8.2 1.9.3 1.8.1 1.8.2 1.9.2 1.8.2 1.8.1 1.9.1 1.8.3 1.8.1 1.9.1 1.8.1 1.9.1 1.8.1h1.8l1.9.2h1.8l1.8.2h3.7l1.8.2h3.7l1.9.1h1.8l1.8.1h3.7l1.8.1h1.9l1.8.1h7.3l1.9.1h9.2l1.8.1h18.4l1.8.1h1.8l1.9-.1h1.8l1.8.1h225.9" fill="none" color="#000"/><g color="#000"><text transform="translate(460.4 246.3)" font-family="Lato" font-size="18" text-anchor="end"><tspan>-0.145</tspan></text><path stroke="#FFD5D5" d="M473 240.4h63.9M77.4 226.5l1.8 2.6 1.9 2.5 1.8 3.2 1.8 2.9 1.9 3.2 1.8 2.8 1.9 3 1.8 2.3 1.8 3.3 1.9 2.4 1.8 4.2 1.8 1.8 1.9 3.3 1.8 2.6 1.8 3.1 1.9 1.4 1.8 3.7 1.8 2.3 1.9 3 1.8 2.5 1.9 2.8 1.8 2.6 1.8 1.9 1.9 2.5 1.8 3.2 1.8 2 1.9 2.7 1.8 2.4 1.8 2.7 1.9 1.6 1.8 2.3 1.9 1.6 1.8 2.5 1.8 2.5 1.9 2.2 1.8 1.7 1.8 2.4 1.9 1.5 1.8 2.4 1.8 1.5 1.9 2.3 1.8 1.3 1.8 2 1.9 1.4 1.8 2.2 1.9 1.1 1.8 2 1.8 1.6 1.9 1.4 1.8 1.4 1.8 1.6 1.9 1 1.8 1.8 1.8 1.2 1.9 1.5 1.8 1.2 1.9 1.2 1.8 1.3 1.8 1.2 1.9.9 1.8 1.1 1.8 1.2 1.9 1 1.8 1.1 1.8.5 1.9 1.3 1.8.6 1.8 1.1 1.9.8 1.8.8 1.9.8 1.8.4 1.8.9 1.9.8 1.8.9 1.8.3 1.9.8 1.8.6 1.8.4 1.9.4 1.8.6 1.9.7 1.8.5 1.8.1 1.9.5 1.8.6 1.8.5 1.9.2 1.8.4 1.8.6 1.9.1 1.8.2 1.8.5 1.9.2 1.8.2 1.9.3 1.8.3 1.8.2 1.9.3 1.8.4 1.8.2h1.9l1.8.2 1.8.2 1.9.1 1.8.3h1.9l1.8.3 1.8-.1 1.9.3 1.8.2h1.8l1.9.1 1.8.2h1.8l1.9.2 1.8.1 1.8.1h1.9l1.8.1 1.9.1h1.8l1.8.1h1.9l1.8.1h1.8l1.9.1h1.8l1.8.1h3.7l1.9.1 1.8.1h7.3l1.9.1h7.3l1.8.1H351l1.8.1h23.9l1.8.1h181.8" fill="none"/></g><path stroke="#D5E5FF" d="M77.4 225.6l1.8 2.4 1.9 2.3 1.8 3.2 1.8 2.5 1.9 2.7 1.8 2.2 1.9 3 1.8 2.5 1.8 2.7 1.9 1.6 1.8 2.2 1.8 2.5 1.9 2.5 1.8 3.2 1.8 1.6 1.9 2.5 1.8 2.4 1.8 2.5 1.9 2.2 1.8 2 1.9 2.4 1.8 2.6 1.8 3.1 1.9 1.6 1.8 2.1 1.8 2.4 1.9 1.7 1.8 2.4 1.8 2.1 1.9 2.4 1.8 1.8 1.9 1.7 1.8 2.2 1.8 2 1.9 2.2 1.8 1.8 1.8 2.1 1.9 1.6 1.8 2.2 1.8 1.5 1.9 2.1 1.8 1.7 1.8 2 1.9 1.3 1.8 1.3 1.9 2.6 1.8 1.1 1.8 1.2 1.9 1.8 1.8 1.8 1.8 1.7 1.9 1.2 1.8 1.7 1.8 1.5 1.9.9 1.8 1.6 1.9.9 1.8 1.6 1.8 1.2 1.9 1.7 1.8.7 1.8 1.7 1.9.9 1.8 1.1 1.8 1.3 1.9 1 1.8.8 1.8 1.3 1.9.7 1.8.6 1.9 1.1 1.8.9 1.8.9 1.9.8 1.8 1.2 1.8.7 1.9 1 1.8.7 1.8.4 1.9.9 1.8.9 1.9.2 1.8.8 1.8.5 1.9.9 1.8.8 1.8.2 1.9.7 1.8.4 1.8.9 1.9.2 1.8.4 1.8.5 1.9.5 1.8.5 1.9.6 1.8.3 1.8.3 1.9.3 1.8.5 1.8.4 1.9.1 1.8.4 1.8.4 1.9.3 1.8.2 1.9.2 1.8.4 1.8.2 1.9.3 1.8.3 1.8.1 1.9.2 1.8.3 1.8.1 1.9.2 1.8.2 1.8.2 1.9.2 1.8.1 1.9.2 1.8.1 1.8.2 1.9.1 1.8.1 1.8.1 1.9.1 1.8.1 1.8.2h1.9l1.8.1 1.9.1h1.8l1.8.2h1.9l1.8.1 1.8.1 1.9.1h1.8l1.8.1 1.9.1h3.6l1.9.1 1.8.1h1.9l1.8.1h3.7l1.8.1h5.5l1.8.1h5.5l1.9.1h9.2l1.8.1h11l1.9.1h23.8l1.9.1 1.8-.1h1.8l1.9.1h137.7" fill="none" color="#000"/><g color="#000"><text transform="translate(460.4 267.9)" font-family="Lato" font-size="18" text-anchor="end"><tspan>0.034</tspan></text><path stroke="#ACF" d="M473 262h63.9M77.4 226l1.8 1.2 1.9 2.7 1.8 2.8 1.8 2.6 1.9 1.6 1.8 2 1.9 1.7 1.8 3.1 1.8 2.3 1.9 2.2 1.8 1.5 1.8 2.8 1.9 1.9 1.8 1.9 1.8 3.4 1.9 1.3 1.8 1.8 1.8 2.5 1.9 2.6 1.8 1.8 1.9 1.7 1.8 2 1.8 2.3 1.9 1.5 1.8 2.2 1.8 2.6 1.9 2.2 1.8 1.3 1.8 1.8 1.9 2.7 1.8 1.4 1.9 2.1 1.8 1.8 1.8 2.3 1.9 1.2 1.8 2.2 1.8 1.3 1.9 1.9 1.8 2.4 1.8 1.1 1.9 2.3 1.8 1.3 1.8 2.1 1.9 1.1 1.8 2 1.9 1 1.8 1.9 1.8 1.7 1.9 1.8 1.8 1 1.8 2 1.9 1.6 1.8 1.3 1.8 1.2 1.9 1.6 1.8.7 1.9 1.8 1.8 1.7 1.8.4 1.9 2.2 1.8.7 1.8 1.3 1.9 1.7 1.8 1 1.8 1 1.9 1.1 1.8 1 1.8 1.1 1.9 1.3 1.8 1.3 1.9.5 1.8 1.3 1.8.8 1.9 1 1.8 1 1.8.9 1.9 1 1.8.7 1.8.8 1.9.9 1.8.8 1.9.8 1.8.9 1.8.5 1.9.8 1.8.8 1.8.6 1.9.8 1.8.4 1.8.9 1.9.5 1.8.6 1.8.6 1.9.6 1.8.7 1.9.5 1.8.3 1.8.4 1.9.8 1.8.7 1.8.2 1.9.3 1.8.7 1.8.3 1.9.2 1.8.4 1.9.5 1.8.3 1.8.3 1.9.6 1.8.3 1.8.4 1.9.2 1.8.2 1.8.3 1.9.3 1.8.3 1.8.2 1.9.3 1.8.3 1.9.2 1.8.1 1.8.3 1.9.3 1.8.2 1.8.1 1.9.2 1.8.2 1.8.2 1.9.1 1.8.3 1.9.1 1.8.1 1.8.1 1.9.1 1.8.2 1.8.1 1.9.1 1.8.1 1.8.2 1.9.1 1.8.1 1.8.3h1.9l1.8-.1 1.9.2 1.8.1 1.8.1 1.9.1h1.8l1.8.1h1.9l1.8.1 1.8.1h1.9l1.8.1h1.8l1.9.1h3.7l1.8.1 1.8.1h3.7l1.8.1h3.7l1.8.1h5.6l1.8.1h7.3l1.9.1h7.3l1.8.1 1.9-.1 1.8.1h3.7l1.8.1 1.9-.1h3.6l1.9.1h29.3l1.9.1h1.8l1.9-.1 1.8.1h95.5" fill="none"/></g><path stroke="#80B3FF" d="M77.4 225.4l1.8 2.5 1.9 1.6 1.8 3 1.8 1.5 1.9 1.8 1.8 1.5 1.9 2.4 1.8 1.9 1.8 2.3 1.9 1.4 1.8 2.8 1.8 2.3 1.9 1.1 1.8 2.3 1.8 1.9 1.9 1.7 1.8 2.6 1.8.9 1.9 2.9 1.8 2.2 1.9 1.5 1.8 2 1.8 2.1 1.9 1.9 1.8 1.3 1.8 1.5 1.9 3.1 1.8 1.6 1.8.8 1.9 2.8 1.8.9 1.9 2.2 1.8 2.2 1.8 1.1 1.9 2.3 1.8 1.6 1.8 1.5 1.9 2.4 1.8 1.5 1.8.8 1.9 2.2 1.8 1.5 1.8 2.5 1.9.7 1.8 1.6 1.9 1.4 1.8 1.7 1.8 1.6 1.9 1 1.8 2.1 1.8.9 1.9 1.8 1.8 1.1 1.8 1.7 1.9 1.1 1.8 1.4 1.9 1.9 1.8 1 1.8 1.1 1.9.8 1.8 1.4 1.8 1.7 1.9 1.5 1.8 1.3 1.8 1.1 1.9 1.1 1.8.9 1.8 1.4 1.9.9 1.8 1.1 1.9 1 1.8 1.3 1.8.5 1.9 1.7 1.8.2 1.8 1.4 1.9.9 1.8 1.3 1.8.5 1.9 1 1.8.8 1.9 1.1 1.8.6 1.8.8 1.9 1.1 1.8.4 1.8.8 1.9 1.1 1.8.4 1.8.9 1.9.4 1.8 1 1.8.6 1.9.7 1.8.5 1.9.4 1.8 1.5 1.8.2 1.9.6 1.8.4 1.8.4 1.9.6 1.8.8 1.8.3 1.9.5 1.8.4 1.9.7 1.8.2 1.8.6 1.9.4 1.8.5 1.8.3 1.9.3 1.8.6 1.8.4h1.9l1.8.6 1.8.3 1.9.4 1.8.3 1.9.3 1.8.3 1.8.2 1.9.4 1.8.2 1.8.3 1.9.3 1.8.5 1.8-.2 1.9.4 1.8.3 1.9.1 1.8.3 1.8.1 1.9.2 1.8.2 1.8.3 1.9.1 1.8.1 1.8.4h1.9l1.8.2h1.8l1.9.4h1.8l1.9.2h1.8l1.8.2 1.9.1 1.8.1 1.8.1 1.9.1 1.8.2 1.8.1 1.9.1h1.8l1.8.2h1.9l1.8.1h1.9l1.8.2 1.8.1h1.9l1.8.1h1.8l1.9.1 1.8.1h3.7l1.8.1h1.9l1.8.1 1.8.1h1.9l1.8.1 1.8-.1 1.9.1 1.8.1h3.7l1.8.1h3.7l1.8.1h3.7l1.8.1h9.2l1.8.1h11.1l1.8.1h14.7l1.8.1h31.2l1.9.1h66.1" fill="none" color="#000"/><g color="#000"><text transform="translate(460.4 289.5)" font-family="Lato" font-size="18" text-anchor="end"><tspan>0.223</tspan></text><path stroke="#59F" d="M473 283.6h63.9M77.4 230.3l1.8 1.6 1.9.6 1.8 1.3 1.8 2.1 1.9 1.9 1.8 1.6 1.9.8 1.8 2.1 1.8 1.7 1.9 2.1 1.8 1.1 1.8 1.4 1.9 2.2 1.8 2.8 1.8-.1 1.9 2.1 1.8 2.1 1.8 1.9 1.9 1.8 1.8 1.6 1.9 1.9 1.8 1.5 1.8 1.9 1.9 1.8 1.8 1.2 1.8 1.6 1.9 2 1.8 2 1.8 1.3 1.9 1.9 1.8 1.7 1.9 1.7 1.8 1.2 1.8 1.6 1.9 2.2 1.8 1.4 1.8 2.5 1.9.7 1.8 1.7 1.8 1.5 1.9 1.9 1.8 1.6 1.8 1.5 1.9 1.2 1.8 1.4 1.9 2.3 1.8 1.3 1.8 1.2 1.9 1.3 1.8 1.6 1.8 1.4 1.9 1.2 1.8 1.4 1.8 1.6 1.9 1.1 1.8 1 1.9 1.7 1.8 1.4 1.8 1.5 1.9.9 1.8 1.3 1.8 1.4 1.9 1.1 1.8 1.4 1.8 1.2 1.9 1.2 1.8.8 1.8.7 1.9 1.4 1.8 1.1 1.9 1.2 1.8 1.3 1.8 1.1 1.9 1.1 1.8.8 1.8.7 1.9 1.2 1.8.6 1.8 1.4 1.9.9 1.8.9 1.9 1.2 1.8.8h1.8l1.9 1.5 1.8.8 1.8.7 1.9 1.1 1.8.7 1.8.5 1.9.9 1.8.8 1.8.9 1.9.5 1.8.5 1.9.8 1.8.8 1.8.4 1.9.9 1.8.7 1.8.6 1.9.6 1.8.5 1.8.7 1.9.3 1.8 1 1.9.4 1.8.5 1.8.4 1.9.3 1.8.8 1.8.3 1.9.5 1.8.7 1.8.3 1.9.4 1.8.5 1.8.2 1.9.6 1.8.1 1.9.5 1.8.4 1.8.3 1.9.3 1.8.5 1.8.3 1.9.2 1.8.4 1.8.5 1.9.2h1.8l1.9.6 1.8.2 1.8.3 1.9.1 1.8.3 1.8.5 1.9.1h1.8l1.8.1 1.9.5 1.8.2 1.8.4 1.9.1 1.8.1 1.9.1 1.8.2 1.8.3 1.9.2 1.8-.1 1.8.3 1.9.3 1.8.1 1.8.1 1.9.1h1.8l1.8.3 1.9.1h1.8l1.9.2 1.8.2h1.8l1.9.1 1.8.1 1.8.2 1.9-.1 1.8.2h1.8l1.9.2h1.8l1.9.1 1.8.1 1.8.2 1.9-.1 1.8.2h3.7l1.8.1h3.7l1.8.2h1.8l1.9.1 1.8.1h3.7l1.8.1h3.7l1.8.1h1.9l1.8.1h5.5l1.9.1h3.6l1.9.1h3.6l1.9.1 1.8-.1 1.8.1h5.5l1.9.1h11l1.8.1 1.9-.1 1.8.1h11l1.9.1h3.6l1.9-.1 1.8.1h29.4l1.8.1h33.1" fill="none"/></g><path stroke="#2A7FFF" d="M77.4 309.8l1.8-4.3 1.9-3.8 1.8-4.2 1.8-3 1.9-3.5 1.8-2.3 1.9-3.5 1.8-1.7 1.8-1.5 1.9-1.6 1.8-1.7 1.8-.9 1.9-1 1.8-.2 1.8-.8 1.9-1.1 1.8.3 1.8.7 1.9-.9 1.8.7 1.9.3 1.8-.1 1.8.6 1.9.7 1.8.3 1.8 2.1 1.9.4 1.8.9 1.8 1.3 1.9.2 1.8 1.7 1.9 1.3 1.8.3 1.8 1 1.9 1.5 1.8 1.4 1.8 1.2 1.9 1.5 1.8 1.1 1.8.9 1.9 1.2 1.8 1.5 1.8 1.5 1.9 1.4 1.8 1.1 1.9 1.5 1.8 1.4 1.8 1 1.9 1.5 1.8 1.7 1.8 1 1.9 1.2 1.8 1 1.8 1.5 1.9 1 1.8 1.9 1.9 1.2 1.8 1 1.8 1.1 1.9 1.3 1.8 1.1 1.8 1 1.9 1.6 1.8.9 1.8 1 1.9 1.2 1.8 1.2 1.8.9 1.9 1.1 1.8 1.3 1.9 1.6 1.8.5 1.8 1.4 1.9.7 1.8 1.3 1.8.9 1.9 1.3 1.8.3 1.8 1.5 1.9.8 1.8.3 1.9 1.5 1.8 1 1.8.5 1.9 1.1 1.8.6 1.8 1.4 1.9.7 1.8 1 1.8.3 1.9.7 1.8 1 1.8.6 1.9 1.1 1.8.7 1.9.7 1.8.6 1.8 1.1 1.9.9h1.8l1.8.9 1.9.8 1.8.6 1.8.4 1.9.6 1.8.6 1.9.8 1.8.4 1.8.7 1.9.4 1.8.6 1.8.1 1.9.8 1.8.8 1.8.3 1.9.4 1.8.7 1.8.3 1.9.1 1.8 1 1.9.4 1.8.1 1.8.7 1.9.4 1.8.5 1.8.1 1.9.4 1.8.5 1.8.3 1.9.2 1.8.5 1.9.3 1.8.1 1.8.5 1.9.1 1.8.5 1.8.5 1.9.1 1.8.2 1.8.3 1.9.3 1.8.2 1.8.3 1.9.2 1.8.4 1.9.1 1.8.3 1.8.4h1.9l1.8.3 1.8.2h1.9l1.8.4 1.8.2 1.9.2 1.8.1 1.8.1 1.9.2 1.8.1 1.9.2 1.8.2 1.8.2h1.9l1.8.2 1.8.1 1.9.1 1.8.1 1.8.1h1.9l1.8.2 1.9.3h1.8l1.8.1 1.9.1 1.8.1 1.8.1 1.9.2 1.8-.1 1.8.1 1.9.1 1.8.1 1.8.2h5.6l1.8.2 1.8.1h1.9l1.8.1h3.7l1.8.1 1.8.1h1.9l1.8.1 1.9.1h1.8l1.8-.1 1.9.2 1.8-.1 1.8.1h1.9l1.8.1h3.7l1.8.1h1.8l1.9.1h1.8l1.9-.1 1.8.2 1.8-.1 1.9.1h5.5l1.8.1h7.4l1.8.1h12.8l1.9.1h16.5l1.8.1h20.2l1.9.1 1.8-.1 1.8.1h16.6" fill="none" color="#000"/><g color="#000"><text transform="translate(460.4 311.1)" font-family="Lato" font-size="18" text-anchor="end"><tspan>0.412</tspan></text><path stroke="#06F" d="M473 305.2h63.9M77.4 377.3l1.8-3.6 1.9-3.4 1.8-3.5 1.8-3.5 1.9-3.1 1.8-2.8 1.9-3.7 1.8-2.8 1.8-2.9 1.9-2.9 1.8-2.7 1.8-2.8 1.9-2.6 1.8-2.1 1.8-2.6 1.9-2.6 1.8-2.2 1.8-1.8 1.9-1.6 1.8-1.2 1.9-2.5 1.8-.9 1.8-1.7 1.9-1.2 1.8-1.4 1.8-.8 1.9-1.1 1.8-.6 1.8-1.4 1.9-.7 1.8.2 1.9-.9 1.8-1h1.8l1.9-.3 1.8-.1 1.8-.3h1.9l1.8-.1 1.8-.1 1.9.6 1.8.2 1.8-.2 1.9 1.1 1.8.1 1.9.9 1.8-.2 1.8.8 1.9.3 1.8 1.1 1.8.5 1.9.3 1.8 1.3 1.8.7h1.9l1.8.8 1.9 1.5 1.8.3 1.8.9 1.9.6 1.8 1 1.8 1 1.9 1.2 1.8 1.2 1.8.3 1.9 1.2 1.8 1.4 1.8.1 1.9.5 1.8 1.4 1.9 1.3 1.8.4 1.8 1.1 1.9 1 1.8 1.1 1.8.4 1.9.6 1.8 1.8 1.8.1 1.9 1 1.8 1 1.9.7 1.8.9 1.8 1 1.9.8 1.8.8 1.8.8 1.9.6 1.8 1.2 1.8.8 1.9.6 1.8 1 1.8.6 1.9.8 1.8.8 1.9 1 1.8.6 1.8.6 1.9.8 1.8.2 1.8.9 1.9.8 1.8.8 1.8.8 1.9.4 1.8.8 1.9.6 1.8.3 1.8.7 1.9.6 1.8.7 1.8.5 1.9.3 1.8.6 1.8.7 1.9.4 1.8.6 1.8.7 1.9.3 1.8.3 1.9.3 1.8.8 1.8.4 1.9.5 1.8.6 1.8.1 1.9.4 1.8.6 1.8.4 1.9.4 1.8.5 1.9.5 1.8.3 1.8.3 1.9.5 1.8.1 1.8.4 1.9.3 1.8.3 1.8.4 1.9.1 1.8.6 1.8.3h1.9l1.8.6 1.9.2 1.8.2 1.8.4 1.9.2 1.8.2 1.8.2 1.9.2 1.8.3 1.8.2 1.9.3 1.8.2 1.8.2 1.9.1 1.8.3h1.9l1.8.2 1.8.1 1.9.2 1.8.2 1.8.3 1.9.2h1.8l1.8.2 1.9.2 1.8.1 1.9.3h1.8l1.8.1h1.9l1.8.3h1.8l1.9.2h1.8l1.8.2 1.9.1 1.8.2 1.8.1 1.9.1 1.8.1 1.9-.1 1.8.3 1.8-.1 1.9.2 1.8.1 1.8.1 1.9.1h1.8l1.8.1 1.9.1h1.8l1.9.1 1.8.1h1.8l1.9.1h1.8l1.8.1 1.9.1h3.6l1.9.1h1.8l1.8.1h1.9l1.8.1h1.9l1.8.1 1.8-.1 1.9.1 1.8.1 1.8-.1 1.9.1h3.6l1.9.2 1.8-.1 1.9.1h7.3l1.8.1h3.7l1.8.1h9.2l1.9.1h11l1.8.1 1.8-.1 1.9.1h5.5l1.8.1h16.5l1.9.1h9.2" fill="none"/></g><path stroke="#0055D4" d="M77.4 382l1.8-2 1.9-2 1.8-1.8 1.8-2.2 1.9-1.9 1.8-1.9 1.9-1.8 1.8-1.7 1.8-1.8 1.9-2 1.8-1.6 1.8-1.8 1.9-2.1 1.8-1.3 1.8-2.2 1.9-1.4 1.8-1.7 1.8-1.3 1.9-2.2 1.8-.7 1.9-1.9 1.8-1 1.8-1.5 1.9-.9 1.8-1.3 1.8-1.4 1.9-.8 1.8-1.5 1.8-.2 1.9-1.8 1.8-.4 1.9-1.1 1.8-.7 1.8-.5 1.9-1.4 1.8-.1 1.8-.9 1.9-.6 1.8-.9 1.8.2 1.9-.8 1.8-.2 1.8-.7 1.9.2 1.8-.2 1.9.1 1.8-.8 1.8.2 1.9-.3 1.8-.2 1.8.6 1.9.1 1.8-.7 1.8.9 1.9-.4 1.8.9 1.9.2 1.8-.4 1.8.8 1.9-.1 1.8.8 1.8.6 1.9.1 1.8.3 1.8.1 1.9.7 1.8.3 1.8 1.2 1.9.2 1.8.8 1.9.1 1.8.3 1.8.9 1.9 1.1 1.8.1 1.8.6 1.9.8 1.8.7 1.8.7 1.9.4 1.8.7 1.9.4 1.8.4 1.8.8 1.9.7 1.8 1 1.8.5 1.9.7 1.8.9 1.8.3 1.9 1 1.8.3 1.8.8 1.9.8 1.8.6 1.9.4 1.8.6 1.8.5 1.9 1.2 1.8.7 1.8.5 1.9.6 1.8.2 1.8 1.2 1.9.7 1.8.1 1.9.9 1.8.5 1.8.5 1.9.4 1.8.9 1.8.4 1.9.4 1.8.8 1.8.3 1.9.9 1.8.5 1.8.5 1.9.2 1.8.7 1.9.5 1.8.1 1.8 1 1.9.5 1.8.3 1.8.2 1.9.6 1.8.7 1.8.3 1.9.1 1.8.7 1.9.3 1.8.3 1.8.4 1.9.6 1.8.3 1.8.5 1.9.1 1.8.3 1.8.7 1.9.2 1.8.4 1.8.3 1.9.3 1.8.4 1.9.2 1.8.2 1.8.5 1.9.3 1.8.3 1.8.1 1.9.3 1.8.4 1.8.2 1.9.3h1.8l1.8.4 1.9.2 1.8.1 1.9.4 1.8.1 1.8.1 1.9.4 1.8.2 1.8.1 1.9.1 1.8.3 1.8.1 1.9.4 1.8.2 1.9.2h1.8l1.8.3 1.9.2h1.8l1.8.1 1.9.3 1.8.1 1.8.2 1.9-.1 1.8.1 1.8.4 1.9-.1 1.8.3h1.9l1.8.1 1.8.2 1.9.1h1.8l1.8.2 1.9.1h1.8l1.8.1 1.9.3h1.8l1.9.1 1.8-.1 1.8.2h1.9l1.8.2 1.8.1h1.9l1.8.1h1.8l1.9.1h1.8l1.8.1h1.9l1.8.1 1.9.1h1.8l1.8.1h1.9l1.8.1h1.8l1.9.1h1.8l1.8.1 1.9-.1 1.8.2h3.7l1.8.1h1.9l1.8.1h3.7l1.8.1h3.7l1.8.1h9.2l1.8.1h1.9l1.8.1h3.7l1.8.1 1.8-.1h1.9l1.8.1h9.2l1.8.1h5.5l1.9.1h7.3l1.9.1h5.5" fill="none" color="#000"/><g color="#000"><text transform="translate(460.4 332.7)" font-family="Lato" font-size="18" text-anchor="end"><tspan>0.601</tspan></text><path stroke="#04A" d="M473 326.8h63.9M77.4 382.7l1.8-1.4 1.9-1.3 1.8-1.4 1.8-1.3 1.9-1.4 1.8-1.2 1.9-1.6 1.8-1.2 1.8-1.2 1.9-1.4 1.8-1.4 1.8-1.1 1.9-1.3 1.8-1.4 1.8-1.2 1.9-1 1.8-1.3 1.8-1.2 1.9-.8 1.8-1.3 1.9-1.3 1.8-1.1 1.8-1 1.9-.8 1.8-1.1 1.8-1.1 1.9-.8 1.8-1 1.8-.7 1.9-.7 1.8-.9 1.9-1 1.8-.8 1.8-.7 1.9-.5 1.8-1 1.8-.2 1.9-.7 1.8-.5 1.8-.6 1.9-1 1.8-.1 1.8-.6 1.9-.2 1.8-.3 1.9-.4 1.8-.7 1.8-.2h1.9l1.8-.4 1.8-.3 1.9.6 1.8-1.1 1.8.1 1.9-.1h1.8l1.9-.3 1.8-.3h1.8l1.9.4 1.8.2h1.8l1.9.2 1.8.2 1.8.3h1.9l1.8-.1 1.8.3 1.9-.1 1.8.7 1.9.1 1.8.4 1.8.6 1.9.3 1.8.4 1.8.1 1.9-.2 1.8.5 1.8.6 1.9.7 1.8.3 1.9.2 1.8.4 1.8.9h1.9l1.8.7 1.8.2 1.9.4 1.8.7 1.8.4 1.9.2 1.8.6 1.8 1.2 1.9-.2 1.8.7 1.9.3 1.8.7 1.8 1 1.9-.1 1.8.5 1.8.8 1.9.4 1.8.4 1.8.7 1.9.3 1.8.5 1.9.6 1.8.9 1.8-.1 1.9.7 1.8.8 1.8.4 1.9.2 1.8.3 1.8.9 1.9.4 1.8.9 1.8.2 1.9.3 1.8.3 1.9.6 1.8.6 1.8.2 1.9.8 1.8.4 1.8.4 1.9.3 1.8.3 1.8.5 1.9.5 1.8.4 1.9.5 1.8.7h1.8l1.9.5 1.8.2 1.8.5 1.9.3 1.8.6 1.8.4 1.9.1 1.8.3 1.8.5 1.9.4 1.8.1 1.9.3 1.8.3 1.8.4 1.9.3 1.8.5 1.8.2 1.9.4 1.8.2 1.8.2 1.9.3 1.8.2 1.8.5 1.9.1 1.8.4 1.9.1 1.8.2 1.8.1 1.9.4 1.8.3 1.8.3 1.9.2 1.8.1 1.8.4h1.9l1.8.2 1.9.2 1.8.2h1.8l1.9.5 1.8-.1 1.8.4 1.9.1 1.8.3 1.8.1 1.9.1 1.8.2h1.8l1.9.2 1.8.1 1.9.1 1.8.2 1.8.2 1.9.1 1.8.2h1.8l1.9.3h3.6l1.9.3 1.8.1h1.9l1.8.1 1.8.1 1.9.2 1.8.2 1.8.1 1.9-.1h1.8l1.8.3 1.9-.1 1.8.2 1.8.1h1.9l1.8.1h1.9l1.8.2 1.8-.1 1.9.2h1.8l1.8.1 1.9.1h1.8l1.8.1h3.7l1.9.2h1.8l1.8.1h1.9l1.8.1h1.8l1.9.1h3.6l1.9.1 1.8.1 1.8-.1 1.9.1 1.8.1h3.7l1.8.1h3.7l1.8.1h5.5l1.9.1h3.7l1.8.1h3.7l1.8.1h7.3l1.9.1h1.8l1.8.1h7.4l1.8.1h1.9" fill="none"/></g><path stroke="#003380" d="M77.4 383l1.8-1.1 1.9-1 1.8-1 1.8-1.2 1.9-1 1.8-.9 1.9-1.1 1.8-1 1.8-1.1 1.9-.9 1.8-1 1.8-1 1.9-1 1.8-.9 1.8-.9 1.9-1.3 1.8-.4 1.8-1 1.9-1 1.8-1 1.9-.5 1.8-.6 1.8-1.7 1.9-.5 1.8-.9 1.8-.7 1.9-.7 1.8-.3 1.8-1.2 1.9-.7 1.8-.6 1.9-.7 1.8-1 1.8-.7 1.9-.7 1.8-.3 1.8-.6 1.9-.4 1.8-.7 1.8-.5 1.9-.7 1.8-.3 1.8-.1 1.9-.9 1.8-.3 1.9-.8 1.8-.5 1.8.6 1.9-.5 1.8-.8 1.8-.3 1.9-.3 1.8.2 1.8-.1 1.9-.2 1.8-.5 1.9-.2h1.8l1.8-.2 1.9-.1 1.8.2 1.8-.2 1.9-.1 1.8-.6 1.8.3 1.9.1 1.8.1 1.8.1 1.9-.3 1.8.7 1.9-.2 1.8.1 1.8.2h1.9l1.8.5 1.8-.2 1.9.2 1.8.5 1.8-.5 1.9.5 1.8.7 1.9.2 1.8-.2 1.8.4h1.9l1.8.6 1.8.6 1.9.1 1.8.5 1.8.4 1.9.4 1.8-.1 1.8.5 1.9.6 1.8.2 1.9.6 1.8-.1 1.8.4 1.9.6 1.8.3 1.8.6 1.9.4 1.8.1 1.8.5 1.9.8 1.8.3 1.9.2 1.8.5 1.8-.1 1.9.9 1.8-.1 1.8 1 1.9-.2 1.8.2 1.8.9 1.9.4 1.8.3 1.8.6h1.9l1.8.8 1.9.4 1.8.3 1.8.1 1.9.6 1.8.8h1.8l1.9.2 1.8.6 1.8.7 1.9.2 1.8.1 1.9.6 1.8.3 1.8.6 1.9.1 1.8.6 1.8.5 1.9.2 1.8.2 1.8.5 1.9.2 1.8.3 1.8.5 1.9.4 1.8.2 1.9.2 1.8.3 1.8.5 1.9.5 1.8.2 1.8.2 1.9.3 1.8.2 1.8.5 1.9.1 1.8.4 1.8.4 1.9.3h1.8l1.9.4 1.8.3 1.8.1 1.9.2 1.8.1 1.8.3 1.9.3 1.8.3 1.8.3 1.9.2h1.8l1.9.2 1.8.5 1.8.3 1.9.2 1.8-.1 1.8.3 1.9.3h1.8l1.8.3 1.9.1 1.8.1 1.8.3 1.9.2 1.8-.1 1.9.5h1.8l1.8.3 1.9-.1 1.8.4 1.8-.1 1.9.3 1.8.1 1.8.3 1.9-.1 1.8.2 1.9.1 1.8.1 1.8.1h1.9l1.8.3 1.8.1 1.9.2h1.8l1.8.1 1.9.1 1.8.1 1.8.1 1.9.1h1.8l1.9.3 1.8-.1 1.8.2h1.9l1.8.1 1.8.1 1.9.2 1.8-.1 1.8.2 1.9-.1 1.8.2h1.9l1.8.1 1.8.1h1.9l1.8.1h1.8l1.9.1 1.8.1 1.8.1h1.9l1.8.1h1.8l1.9.1h1.8l1.9.1h3.6l1.9.1h1.8l1.8.1h1.9l1.8.1 1.8.1h1.9l1.8.1h3.7l1.8.1h5.5l1.9.1 1.8.1h5.5l1.8.1h1.9l1.8.1h3.7l1.8.1h1.9" fill="none" color="#000"/><g color="#000"><text transform="translate(460.4 354.3)" font-family="Lato" font-size="18" text-anchor="end"><tspan>0.79</tspan></text><path stroke="#025" d="M473 348.4h63.9M77.4 383.2l1.8-.9 1.9-.8 1.8-.9 1.8-.7 1.9-.9 1.8-.9 1.9-.8 1.8-.7 1.8-.8 1.9-1 1.8-.7 1.8-.7 1.9-1 1.8-.5 1.8-.9 1.9-.7 1.8-.9 1.8-.9 1.9-.4 1.8-1 1.9-.7 1.8-.4 1.8-1 1.9-.6 1.8-1 1.8-.5 1.9-.5 1.8-1 1.8.2 1.9-1 1.8-.7 1.9-.6 1.8-.8 1.8-.3 1.9-.8 1.8-.3 1.8-.4 1.9-.2 1.8-.8 1.8-.4 1.9-1 1.8-.2 1.8-.2 1.9-.2 1.8-.9 1.9-.1 1.8-.6h1.8l1.9-.6h1.8l1.8-.8 1.9-.2 1.8-.1 1.8-.4h1.9l1.8-.2 1.9-.5 1.8.4 1.8-.7 1.9.1 1.8-.5 1.8-.1 1.9-.1 1.8.3 1.8-.3h1.9l1.8-.1 1.8.1 1.9-.2 1.8.2 1.9-.6 1.8.6 1.8-.1 1.9-.1h1.8l1.8-.1 1.9.3 1.8-.1 1.8.1 1.9.2h1.8l1.9.2 1.8-.2 1.8.9h1.9l1.8.3h1.8l1.9.3 1.8.4 1.8-.1h1.9l1.8.6 1.8-.2 1.9.6 1.8.2 1.9.1 1.8.4 1.8.3 1.9.3 1.8.2 1.8.3 1.9.4 1.8.3 1.8.2h1.9l1.8.3 1.9.3 1.8.6 1.8.1 1.9.4 1.8.5 1.8.1 1.9.3 1.8.3 1.8.4 1.9.3 1.8.3 1.8.9 1.9.2 1.8.3 1.9.1 1.8.3 1.8.5 1.9.4 1.8.3 1.8.4 1.9.2 1.8.2 1.8.5 1.9.4 1.8.1 1.9.3 1.8.5 1.8.7 1.9-.2 1.8.5 1.8.2 1.9.7 1.8-.1 1.8.4 1.9.4 1.8.3 1.8.6h1.9l1.8.5 1.9.1 1.8.4 1.8.2 1.9.4 1.8.3 1.8.2 1.9.2 1.8.4 1.8.2 1.9.6 1.8.2 1.8.1 1.9.5 1.8.1 1.9.2 1.8.2 1.8.3 1.9.4 1.8.1 1.8.3 1.9.1 1.8.2 1.8.2 1.9.3 1.8.5 1.9-.1 1.8.5h1.8l1.9.2 1.8.3 1.8.2h1.9l1.8.4 1.8.2 1.9.1 1.8.2 1.8.3h1.9l1.8.2 1.9.4 1.8-.1 1.8.5 1.9-.3 1.8.3 1.8.4h1.9l1.8.3 1.8.1 1.9.1 1.8.3 1.9.1h1.8l1.8.2 1.9-.1 1.8.3 1.8.1 1.9.1 1.8.1 1.8.1 1.9.2 1.8.2h1.8l1.9.1 1.8.2 1.9.1 1.8.1h1.8l1.9.1 1.8.1 1.8.2 1.9.1h1.8l1.8.1 1.9.2h1.8l1.9.1h1.8l1.8.1 1.9.1 1.8.1 1.8.1 1.9.1h3.6l1.9.1 1.8.2h1.8l1.9.1h1.8l1.9.2h3.6l1.9.1 1.8.1 1.8.1h1.9l1.8.1 1.8-.1 1.9.2h3.7l1.8.1h3.7l1.8.1h1.8l1.9.2h1.8l1.8.1h1.9l1.8.1h3.7l1.8.1 1.9.1h3.6l1.9.1" fill="none"/></g><path stroke="#000" d="M77.4 216.1V384h484.7V216.1H77.4z" fill="none" color="#000"/></svg>