<?xml version="1.0" encoding="UTF-8" standalone="no"?>
<!-- Created with Inkscape (http://www.inkscape.org/) -->

<svg
   xmlns:dc="http://purl.org/dc/elements/1.1/"
   xmlns:cc="http://creativecommons.org/ns#"
   xmlns:rdf="http://www.w3.org/1999/02/22-rdf-syntax-ns#"
   xmlns:svg="http://www.w3.org/2000/svg"
   xmlns="http://www.w3.org/2000/svg"
   xmlns:sodipodi="http://sodipodi.sourceforge.net/DTD/sodipodi-0.dtd"
   xmlns:inkscape="http://www.inkscape.org/namespaces/inkscape"
   version="1.1"
   id="svg2"
   width="682.66669"
   height="682.66669"
   viewBox="0 0 682.66669 682.66669"
   sodipodi:docname="engineer2.svg"
   inkscape:version="0.92.2 2405546, 2018-03-11">
  <metadata
     id="metadata8">
    <rdf:RDF>
      <cc:Work
         rdf:about="">
        <dc:format>image/svg+xml</dc:format>
        <dc:type
           rdf:resource="http://purl.org/dc/dcmitype/StillImage" />
        <dc:title></dc:title>
      </cc:Work>
    </rdf:RDF>
  </metadata>
  <defs
     id="defs6" />
  <sodipodi:namedview
     pagecolor="#ffffff"
     bordercolor="#666666"
     borderopacity="1"
     objecttolerance="10"
     gridtolerance="10"
     guidetolerance="10"
     inkscape:pageopacity="0"
     inkscape:pageshadow="2"
     inkscape:window-width="1364"
     inkscape:window-height="732"
     id="namedview4"
     showgrid="false"
     inkscape:zoom="0.34570311"
     inkscape:cx="391.30957"
     inkscape:cy="41.371432"
     inkscape:window-x="0"
     inkscape:window-y="35"
     inkscape:window-maximized="0"
     inkscape:current-layer="svg2" />
  <g
     id="g12"
     transform="translate(3.536723,-73.887008)">
    <path
       style="fill:#e6e970;stroke-width:1.33333337"
       d="m 228.37073,456.31414 -22.96263,-50.31413 67.96263,-0.34544 c 37.37944,-0.19 98.55298,-0.19 135.94119,0 l 67.97859,0.34544 -22.97859,50.30323 -22.97857,50.30323 -90.00001,0.0107 -90,0.0107 -22.96261,-50.31412 z m 210.63219,-308.9808 c 0.0148,-2.93334 0.28786,-3.97634 0.60678,-2.31779 0.31892,1.65855 0.30681,4.05855 -0.0269,5.33334 -0.33372,1.27478 -0.59466,-0.0823 -0.57986,-3.01555 z m 0,-26.66667 c 0.0148,-2.93333 0.28786,-3.97634 0.60678,-2.31779 0.31892,1.65855 0.30681,4.05855 -0.0269,5.33334 -0.33372,1.27478 -0.59466,-0.0822 -0.57986,-3.01555 z m 0,-26.666667 c 0.0148,-2.933333 0.28786,-3.976337 0.60678,-2.317788 0.31892,1.658551 0.30681,4.058551 -0.0269,5.333334 -0.33372,1.274784 -0.59466,-0.08221 -0.57986,-3.015546 z"
       id="path20"
       inkscape:connector-curvature="0" />
    <path
       style="fill:#00aaee;stroke-width:1.33333337"
       d="m 198.03899,390.33941 c -1.00652,-2.38666 -11.413,-25.1894 -23.12552,-50.67273 L 153.61798,293.33334 H 340.809 c 102.95506,0 187.19102,0.49074 187.19102,1.09052 0,0.5998 -10.15384,23.2498 -22.56408,50.33334 l -22.56407,49.24281 -141.50143,0.3394 -141.50143,0.3394 z"
       id="path18"
       inkscape:connector-curvature="0" />
    <path
       style="fill:#ea4934;stroke-width:1.33333337"
       d="m 250.66668,554.66669 v -37.33334 h 90.66666 90.66667 v 37.33334 37.33333 h -90.66667 -90.66666 z m -48.81095,-321.74439 -17.4776,-22.92229 10.08109,-0.39428 c 5.5446,-0.21686 10.85952,-1.04032 11.81095,-1.82994 1.36834,-1.13562 1.72984,-13.38265 1.72984,-58.6057 V 92.000003 h 10.66666 10.66667 v 57.066667 c 0,42.60742 0.4054,57.47207 1.6,58.66667 0.97383,0.97383 5.71359,1.6 12.11111,1.6 5.78112,0 10.31112,0.51035 10.06667,1.13409 -0.81734,2.08559 -32.43493,45.45091 -33.11111,45.41378 -0.36667,-0.0201 -8.53159,-10.35164 -18.14428,-22.95891 z m 242.30502,0.0751 -17.74946,-22.9973 10.46103,-0.37305 c 7.88,-0.28101 10.87224,-0.91959 12.1277,-2.58817 1.27217,-1.6908 1.66666,-15.56778 1.66666,-58.62695 V 92.000003 h 10.66667 10.66667 v 57.170087 c 0,45.22305 0.36149,57.47008 1.72984,58.6057 0.95142,0.78962 6.33365,1.61308 11.96053,1.82994 l 10.23069,0.39428 -15.41929,21.33333 c -8.48061,11.73333 -16.13307,22.08212 -17.00545,22.9973 -1.24623,1.30737 -5.38987,-3.26438 -19.33559,-21.33334 z m -119.75739,-1.39603 -17.59666,-22.93467 10.20014,-0.39428 c 5.61008,-0.21685 10.97857,-1.04032 11.93,-1.82993 1.36834,-1.13563 1.72984,-13.38265 1.72984,-58.60571 V 90.66667 h 10.66666 10.66667 v 57.17008 c 0,45.22306 0.3615,57.47008 1.72984,58.60571 0.95143,0.78961 6.39344,1.61308 12.09338,1.82993 l 10.36353,0.39428 -16.42671,22.93807 c -9.03469,12.61594 -16.7267,22.93654 -17.09337,22.93467 -0.36667,-0.001 -8.58516,-10.32399 -18.26332,-22.93807 z"
       id="path16"
       inkscape:connector-curvature="0" />
    <path
       style="fill:#1f2526;stroke-width:1.33333337"
       d="m 241.60001,601.06669 c -1.18067,-1.18067 -1.6,-13.28874 -1.6,-46.1993 V 510.26808 L 229.82063,487.46739 C 208.76302,440.30059 148.50905,307.57289 118.80596,242.92381 93.42265,187.67677 88.23223,175.39078 89.374115,173.25714 c 1.337281,-2.49873 3.273433,-2.59047 54.672795,-2.59047 h 53.28643 v -42.08765 c 0,-26.4623 0.51243,-43.045138 1.38024,-44.666672 1.26199,-2.358036 2.95279,-2.579012 19.73333,-2.579012 12.49686,0 18.86364,0.51054 19.9531,1.6 1.1784,1.178398 1.6,12.948149 1.6,44.666664 v 43.06667 h 40 40 v -43.73333 c 0,-32.237041 0.4206,-44.153933 1.6,-45.333337 2.22565,-2.225656 37.24102,-2.225656 39.46667,0 1.1794,1.179404 1.6,13.096296 1.6,45.333337 v 43.73333 h 38.66667 38.66667 V 127.6 c 0,-31.718515 0.4216,-43.488266 1.6,-44.666664 1.08317,-1.083177 7.29736,-1.6 19.23809,-1.6 14.25685,0 18.03976,0.401659 19.73333,2.095239 1.81727,1.817264 2.09524,7.743145 2.09524,44.666665 v 42.57143 h 54.61977 c 52.61482,0 54.67036,0.0945 55.99841,2.57607 1.27984,2.3914 -14.24153,37.98812 -53.52631,122.75727 -7.59057,16.37903 -71.34396,156.68674 -84.2134,185.33589 l -12.87847,28.6692 v 44.7308 c 0,33.01283 -0.41914,45.14993 -1.6,46.33079 -2.3156,2.3156 -197.15107,2.3156 -199.46667,0 z m 190.4,-46.4 v -37.33334 h -90.66667 -90.66666 v 37.33334 37.33333 h 90.66666 90.66667 z m 22.01402,-97.45246 c 12.45896,-27.19886 22.85265,-49.99886 23.09709,-50.66667 0.2654,-0.72504 -54.43596,-1.21421 -135.77778,-1.21421 -82.71238,0 -136.04764,0.48362 -135.77777,1.23118 0.24444,0.67716 10.63554,23.47716 23.09136,50.66667 l 22.64691,49.43548 h 90.03376 90.03376 z M 505.43594,344.7572 c 12.41024,-27.08354 22.56408,-49.73354 22.56408,-50.33334 0,-0.59978 -84.23596,-1.09052 -187.19102,-1.09052 H 153.61798 l 21.29549,46.33334 c 11.71252,25.48333 22.119,48.28607 23.12552,50.67273 l 1.83002,4.3394 141.50143,-0.3394 141.50143,-0.3394 z m 51.26223,-111.56722 c 12.44934,-27.21219 22.83518,-50.01219 23.07962,-50.66667 0.25554,-0.68416 -20.28949,-1.18997 -48.33333,-1.18997 h -48.77778 v 8.66667 8.66666 h 13.17008 c 13.89087,0 17.20383,1.32314 15.83999,6.32623 -0.86364,3.1682 -44.74884,63.38486 -47.2148,64.78535 -1.07648,0.61137 -2.7342,0.81343 -3.68383,0.44903 -1.8327,-0.70328 -49.616,-62.05139 -50.8638,-65.30314 -0.40388,-1.05249 0.24303,-2.89099 1.43759,-4.08555 1.71533,-1.71533 4.95488,-2.17192 15.41001,-2.17192 h 13.2381 v -8.66666 -8.66667 h -38.66667 -38.66667 v 8 8 h 13.06667 c 13.39086,0 16.26666,0.96855 16.26666,5.47849 0,3.7336 -45.8072,65.79551 -48.90166,66.25445 -2.12125,0.3146 -7.87855,-6.31571 -27.06551,-31.16947 -13.40411,-17.363 -24.66582,-32.69602 -25.026,-34.07338 -1.35592,-5.18504 1.82585,-6.49009 15.82309,-6.49009 h 13.17008 v -8 -8 h -40 -40 v 8.66667 8.66666 h 12.55761 c 14.7662,0 16.77572,0.56967 16.77572,4.75562 0,3.29096 -44.22265,65.56853 -47.4348,66.80116 -0.95511,0.36651 -2.62044,0.16617 -3.70073,-0.4452 -3.1404,-1.77723 -50.1978,-63.4544 -50.1978,-65.79323 0,-4.33897 2.99549,-5.31835 16.26666,-5.31835 h 13.06667 v -8.66666 -8.66667 H 149.8889 c -28.43749,0 -47.2664,0.49323 -47.00001,1.23119 0.24445,0.67716 10.63556,23.47716 23.09136,50.66666 l 22.64692,49.43549 h 192.71791 192.7179 z m -320.0315,0.56969 c 8.80001,-12.18698 16.20001,-22.66849 16.44445,-23.29224 0.24445,-0.62374 -4.28555,-1.13409 -10.06667,-1.13409 -6.39752,0 -11.13728,-0.62617 -12.11111,-1.6 -1.1946,-1.1946 -1.6,-16.05925 -1.6,-58.66667 V 92.000003 h -10.66667 -10.66666 v 57.170087 c 0,45.22305 -0.3615,57.47008 -1.72984,58.6057 -0.95143,0.78962 -6.26635,1.61308 -11.81095,1.82994 l -10.08109,0.39428 17.4776,22.92229 c 9.61269,12.60727 17.77761,22.93878 18.14428,22.95891 0.36666,0.0201 7.86666,-9.93455 16.66666,-22.12154 z m 243.83512,-2.42633 15.41929,-21.33333 -10.23069,-0.39428 c -5.62688,-0.21686 -11.00911,-1.04032 -11.96053,-1.82994 -1.36835,-1.13562 -1.72984,-13.38265 -1.72984,-58.6057 V 92.000003 h -10.66667 -10.66667 v 56.411827 c 0,43.05918 -0.39449,56.93615 -1.66666,58.62695 -1.25546,1.66859 -4.2477,2.30716 -12.1277,2.58817 l -10.46103,0.37306 17.74946,22.99729 c 13.94572,18.06896 18.08936,22.64071 19.33559,21.33334 0.87238,-0.91518 8.52484,-11.26397 17.00545,-22.9973 z m -120.74174,0.2714 16.42671,-22.93807 -10.36353,-0.39428 c -5.69994,-0.21685 -11.14195,-1.04032 -12.09338,-1.82993 -1.36834,-1.13563 -1.72984,-13.38265 -1.72984,-58.60571 V 90.66667 h -10.66667 -10.66666 v 57.17008 c 0,45.22306 -0.3615,57.47008 -1.72984,58.60571 -0.95143,0.78961 -6.31992,1.61308 -11.93,1.82993 l -10.20014,0.39428 17.59666,22.93467 c 9.67816,12.61408 17.89665,22.9362 18.26332,22.93807 0.36667,0.001 8.05868,-10.31873 17.09337,-22.93467 z"
       id="path14"
       inkscape:connector-curvature="0" />
  </g>
  <path
     sodipodi:type="star"
     style="fill:#e6e970;fill-opacity:1;stroke:#1f2526;stroke-width:8.22855854;stroke-opacity:1"
     id="path22"
     sodipodi:sides="5"
     sodipodi:cx="176.45198"
     sodipodi:cy="621.9209"
     sodipodi:r1="89.858749"
     sodipodi:r2="44.929375"
     sodipodi:arg1="-0.064426839"
     sodipodi:arg2="0.56389169"
     inkscape:flatsided="false"
     inkscape:rounded="0"
     inkscape:randomized="0"
     d="m 266.1243,616.13559 -51.69884,29.79913 -4.76105,59.48186 -44.31649,-39.96008 -58.04185,13.85288 24.30975,-54.49583 -31.11079,-50.9203 59.34074,6.27981 38.81432,-45.32337 12.36485,58.37697 z"
     inkscape:transform-center-x="0.38913733"
     inkscape:transform-center-y="-5.8855573"
     transform="matrix(0.70295404,-0.19375596,0.19375596,0.70295404,100.18702,222.85385)" />
</svg>
