<?xml version="1.0" encoding="UTF-8" standalone="no"?>
<!-- Created with Inkscape (http://www.inkscape.org/) -->

<svg
   xmlns:dc="http://purl.org/dc/elements/1.1/"
   xmlns:cc="http://creativecommons.org/ns#"
   xmlns:rdf="http://www.w3.org/1999/02/22-rdf-syntax-ns#"
   xmlns:svg="http://www.w3.org/2000/svg"
   xmlns="http://www.w3.org/2000/svg"
   xmlns:sodipodi="http://sodipodi.sourceforge.net/DTD/sodipodi-0.dtd"
   xmlns:inkscape="http://www.inkscape.org/namespaces/inkscape"
   version="1.1"
   id="svg2"
   width="431.9014"
   height="347.5"
   viewBox="0 0 431.9014 347.5"
   sodipodi:docname="engineer.svg"
   inkscape:version="0.92.2 2405546, 2018-03-11">
  <metadata
     id="metadata8">
    <rdf:RDF>
      <cc:Work
         rdf:about="">
        <dc:format>image/svg+xml</dc:format>
        <dc:type
           rdf:resource="http://purl.org/dc/dcmitype/StillImage" />
        <dc:title></dc:title>
      </cc:Work>
    </rdf:RDF>
  </metadata>
  <defs
     id="defs6" />
  <sodipodi:namedview
     pagecolor="#ffffff"
     bordercolor="#666666"
     borderopacity="1"
     objecttolerance="10"
     gridtolerance="10"
     guidetolerance="10"
     inkscape:pageopacity="0"
     inkscape:pageshadow="2"
     inkscape:window-width="1364"
     inkscape:window-height="732"
     id="namedview4"
     showgrid="false"
     inkscape:zoom="1.3828125"
     inkscape:cx="198.92955"
     inkscape:cy="188.90346"
     inkscape:window-x="0"
     inkscape:window-y="35"
     inkscape:window-maximized="0"
     inkscape:current-layer="svg2" />
  <path
     inkscape:connector-curvature="0"
     id="path20"
     d="m 163.24613,193.89694 -11.63145,-25.48603 34.42567,-0.17498 c 18.93412,-0.0962 49.92086,-0.0962 68.85942,0 l 34.43376,0.17498 -11.63954,25.48051 -11.63953,25.48051 -45.58845,0.005 -45.58844,0.005 -11.63144,-25.48603 z M 269.9394,37.386337 c 0.007,-1.485849 0.14581,-2.014168 0.30735,-1.174049 0.16155,0.840119 0.15541,2.055811 -0.0136,2.701541 -0.16905,0.645725 -0.30122,-0.04169 -0.29372,-1.527492 z m 0,-13.507689 c 0.007,-1.485844 0.14581,-2.014169 0.30735,-1.174049 0.16155,0.840119 0.15541,2.05581 -0.0136,2.70154 -0.16905,0.645725 -0.30122,-0.04164 -0.29372,-1.527491 z m 0,-13.507689 c 0.007,-1.4858444 0.14581,-2.0141689 0.30735,-1.1740498 0.16155,0.8401188 0.15541,2.0558108 -0.0136,2.7015408 -0.16905,0.645725 -0.30122,-0.04164 -0.29372,-1.527491 z"
     style="fill:#e6e970;stroke-width:0.6753844" />
  <path
     inkscape:connector-curvature="0"
     id="path18"
     d="m 147.88194,160.47821 c -0.50984,-1.20893 -5.78112,-12.75939 -11.71396,-25.66767 L 125.381,111.34093 h 94.81942 c 52.15068,0 94.81941,0.24858 94.81941,0.55239 0,0.30382 -5.1433,11.77691 -11.42957,25.49576 l -11.42956,24.94337 -71.67589,0.17192 -71.6759,0.17192 z"
     style="fill:#00aaee;stroke-width:0.6753844" />
  <path
     inkscape:connector-curvature="0"
     id="path16"
     d="M 174.53988,243.71627 V 224.8055 h 45.92613 45.92614 v 18.91077 18.91076 H 220.46601 174.53988 Z M 149.81526,80.740417 140.96219,69.1294 l 5.10646,-0.199718 c 2.80855,-0.109848 5.50076,-0.526962 5.9827,-0.926935 0.69311,-0.575235 0.87623,-6.778824 0.87623,-29.686026 V 9.357882 h 5.40307 5.40308 v 28.906453 c 0,21.582285 0.20535,29.111799 0.81046,29.71691 0.49328,0.493282 2.89415,0.810461 6.13474,0.810461 2.92836,0 5.22297,0.258512 5.09915,0.57446 -0.41401,1.056431 -16.42953,23.022626 -16.77204,23.003818 -0.18574,-0.01018 -4.32158,-5.243502 -9.19078,-11.629567 z m 122.73677,0.03804 -8.99078,-11.649013 5.29892,-0.188964 c 3.99152,-0.142342 5.5072,-0.465807 6.14314,-1.311007 0.6444,-0.856455 0.84423,-7.885677 0.84423,-29.69679 V 9.357882 h 5.40307 5.40308 v 28.958839 c 0,22.907202 0.18311,29.110791 0.87623,29.686026 0.48193,0.399973 3.20824,0.817087 6.05847,0.926935 l 5.18223,0.199718 -7.81046,10.806148 c -4.29575,5.943381 -8.17202,11.185439 -8.61391,11.649013 -0.63126,0.662233 -2.73018,-1.653533 -9.79422,-10.806153 z m -60.6617,-0.707142 -8.91338,-11.617289 5.16676,-0.199718 c 2.84172,-0.109843 5.56107,-0.526962 6.043,-0.926929 0.69312,-0.57524 0.87623,-6.778825 0.87623,-29.686031 V 8.6824993 h 5.40307 5.40308 V 37.641334 c 0,22.907206 0.18311,29.11079 0.87623,29.68603 0.48194,0.399968 3.23852,0.817087 6.12576,0.92693 l 5.24953,0.199718 -8.32076,11.619011 c -4.57642,6.390456 -8.47272,11.618235 -8.65845,11.617288 -0.18573,-5.06e-4 -4.34871,-5.229496 -9.25107,-11.619011 z"
     style="fill:#ea4934;stroke-width:0.6753844" />
  <path
     inkscape:connector-curvature="0"
     id="path14"
     d="m 169.94726,267.21965 c -0.59805,-0.59806 -0.81046,-6.73126 -0.81046,-23.40172 v -22.59126 l -5.15624,-11.54942 C 153.31407,185.78546 122.79313,118.5538 107.74738,85.806565 94.889759,57.821824 92.260613,51.5985 92.839021,50.517734 93.516405,49.252032 94.49714,49.205562 120.53288,49.205562 H 147.5245 V 27.886556 c 0,-13.404168 0.25957,-21.8040114 0.69914,-22.6253784 0.63925,-1.1944375 1.49571,-1.3063724 9.99569,-1.3063724 6.33014,0 9.55516,0.2586081 10.10701,0.8104613 0.59691,0.5969047 0.81046,6.5587335 0.81046,22.6253785 v 21.814917 h 20.26153 20.26154 V 27.052956 c 0,-16.329295 0.21305,-22.3656609 0.81046,-22.9630722 1.12737,-1.127382 18.864,-1.127382 19.99138,0 0.59741,0.5974113 0.81046,6.6337772 0.81046,22.9630722 v 22.152606 h 19.58615 19.58614 V 27.390645 c 0,-16.066645 0.21356,-22.0284738 0.81047,-22.6253785 0.54866,-0.5486671 3.69639,-0.8104613 9.74483,-0.8104613 7.22164,0 9.13782,0.2034562 9.99568,1.0613193 0.92052,0.9205169 1.06132,3.922202 1.06132,22.6253785 v 21.564059 h 27.66701 c 26.65142,0 27.69263,0.04787 28.36533,1.304878 0.64829,1.211331 -7.21388,19.242432 -27.11312,62.18125 -3.84491,8.29661 -36.13845,79.36784 -42.65731,93.87973 l -6.52344,14.52204 v 22.65787 c 0,16.72226 -0.21231,22.87016 -0.81046,23.46832 -1.17294,1.17294 -99.86457,1.17294 -101.03751,0 z m 96.44489,-23.50338 V 224.8055 h -45.92614 -45.92613 v 18.91077 18.91076 h 45.92613 45.92614 z m 11.15095,-49.3634 c 6.31094,-13.77727 11.57574,-25.32634 11.69956,-25.66461 0.13443,-0.36726 -27.5739,-0.61504 -68.77665,-0.61504 -41.89698,0 -68.91333,0.24497 -68.77664,0.62364 0.12382,0.343 5.38731,11.89208 11.69666,25.6646 l 11.47153,25.04097 h 45.60555 45.60554 z m 26.04716,-56.96379 c 6.28627,-13.71885 11.42957,-25.19195 11.42957,-25.49577 0,-0.30381 -42.66873,-0.55239 -94.81941,-0.55239 H 125.381 l 10.78698,23.46961 c 5.93284,12.90829 11.20412,24.45875 11.71396,25.66768 l 0.92697,2.19807 71.6759,-0.17191 71.67589,-0.17192 z m 25.96629,-56.513073 c 6.30606,-13.784016 11.56689,-25.333089 11.69071,-25.664608 0.12944,-0.346553 -10.27741,-0.602765 -24.48269,-0.602765 h -24.70781 v 4.39 4.389995 h 6.67115 c 7.03626,0 8.7144,0.670221 8.02356,3.204478 -0.43746,1.604814 -22.667,32.106858 -23.9161,32.81626 -0.54528,0.309682 -1.38498,0.412033 -1.866,0.227451 -0.92833,-0.356238 -25.13241,-31.431405 -25.76446,-33.078541 -0.20458,-0.533126 0.1231,-1.464397 0.72819,-2.069487 0.86888,-0.868881 2.50984,-1.100161 7.80576,-1.100161 h 6.7056 v -4.389995 -4.39 h -19.58614 -19.58615 v 4.052306 4.052306 h 6.61877 c 6.78298,0 8.23968,0.490608 8.23968,2.775065 0,1.891212 -23.2031,33.327945 -24.77056,33.560416 -1.0745,0.159357 -3.99079,-3.199149 -13.70972,-15.78853 -6.78969,-8.795024 -12.49418,-16.561786 -12.67663,-17.259471 -0.68682,-2.626422 0.92487,-3.28748 8.01501,-3.28748 h 6.67115 V 58.66094 54.608634 H 189.39833 169.1368 v 4.39 4.389995 h 6.36091 c 7.47965,0 8.49755,0.28856 8.49755,2.408904 0,1.666997 -22.40047,33.212971 -24.02755,33.837345 -0.48379,0.185651 -1.32735,0.08417 -1.87456,-0.225511 -1.59073,-0.900235 -25.4271,-32.142083 -25.4271,-33.32679 0,-2.197854 1.51733,-2.693948 8.23968,-2.693948 h 6.61877 v -4.389995 -4.39 h -24.03242 c -14.40468,0 -23.942246,0.24984 -23.807309,0.623645 0.123823,0.343007 5.387319,11.89208 11.696659,25.664603 l 11.47153,25.040968 h 97.619 97.619 z m -162.10821,0.28857 c 4.45754,-6.173172 8.20592,-11.482458 8.32974,-11.798411 0.12382,-0.315948 -2.17079,-0.57446 -5.09915,-0.57446 -3.24059,0 -5.64146,-0.317179 -6.13474,-0.810461 -0.60511,-0.605111 -0.81046,-8.134625 -0.81046,-29.71691 V 9.357882 h -5.40308 -5.40307 v 28.958839 c 0,22.907202 -0.18312,29.110791 -0.87623,29.686026 -0.48194,0.399973 -3.17415,0.817087 -5.9827,0.926935 l -5.10646,0.199718 8.85307,11.611017 c 4.8692,6.386065 9.00504,11.619371 9.19078,11.629567 0.18572,0.01018 3.98476,-5.03223 8.4423,-11.205407 z m 123.51182,-1.229029 7.81046,-10.806148 -5.18223,-0.199718 c -2.85023,-0.109848 -5.57654,-0.526962 -6.05847,-0.926935 -0.69312,-0.575235 -0.87623,-6.778824 -0.87623,-29.686026 V 9.357882 h -5.40308 -5.40307 v 28.574752 c 0,21.811118 -0.19983,28.840334 -0.84423,29.696789 -0.63594,0.845205 -2.15162,1.168665 -6.14314,1.311008 l -5.29892,0.188969 8.99078,11.649008 c 7.06404,9.15262 9.16296,11.468386 9.79422,10.806153 0.44189,-0.463574 4.31816,-5.705632 8.61391,-11.649013 z m -61.16031,0.137475 8.32076,-11.619011 -5.24953,-0.199718 c -2.88724,-0.109843 -5.64382,-0.526962 -6.12576,-0.92693 -0.69312,-0.57524 -0.87623,-6.778824 -0.87623,-29.68603 V 8.6824993 h -5.40308 -5.40307 V 37.641334 c 0,22.907206 -0.18311,29.11079 -0.87623,29.68603 -0.48193,0.399968 -3.20128,0.817087 -6.043,0.92693 l -5.16676,0.199718 8.91338,11.617288 c 4.90236,6.389515 9.06534,11.618064 9.25107,11.619011 0.18573,5.07e-4 4.08203,-5.226832 8.65845,-11.617288 z"
     style="fill:#1f2526;stroke-width:0.6753844" />
  <path
     sodipodi:type="star"
     style="fill:#e6e970;fill-opacity:1;stroke:#1f2526;stroke-width:13.5372429;stroke-miterlimit:4;stroke-dasharray:none;stroke-opacity:1"
     id="path22"
     sodipodi:sides="5"
     sodipodi:cx="176.45198"
     sodipodi:cy="621.9209"
     sodipodi:r1="89.858749"
     sodipodi:r2="44.929375"
     sodipodi:arg1="-0.064426839"
     sodipodi:arg2="0.56389169"
     inkscape:flatsided="false"
     inkscape:rounded="0"
     inkscape:randomized="0"
     d="m 266.1243,616.13559 -51.69884,29.79913 -4.76105,59.48186 -44.31649,-39.96008 -58.04185,13.85288 24.30975,-54.49583 -31.11079,-50.9203 59.34074,6.27981 38.81432,-45.32337 12.36485,58.37697 z"
     inkscape:transform-center-x="0.19711501"
     inkscape:transform-center-y="-2.9812591"
     transform="matrix(0.35607313,-0.09814481,0.09814481,0.35607313,96.524686,113.06697)" />
</svg>
