<?xml version="1.0" encoding="UTF-8" standalone="no"?>
<!-- Created with Inkscape (http://www.inkscape.org/) -->

<svg
   xmlns:dc="http://purl.org/dc/elements/1.1/"
   xmlns:cc="http://creativecommons.org/ns#"
   xmlns:rdf="http://www.w3.org/1999/02/22-rdf-syntax-ns#"
   xmlns:svg="http://www.w3.org/2000/svg"
   xmlns="http://www.w3.org/2000/svg"
   xmlns:sodipodi="http://sodipodi.sourceforge.net/DTD/sodipodi-0.dtd"
   xmlns:inkscape="http://www.inkscape.org/namespaces/inkscape"
   version="1.1"
   id="svg2"
   width="342.00577"
   height="342.00595"
   viewBox="0 0 342.00577 342.00595"
   sodipodi:docname="enim.svg"
   inkscape:version="0.92.2 2405546, 2018-03-11">
  <metadata
     id="metadata8">
    <rdf:RDF>
      <cc:Work
         rdf:about="">
        <dc:format>image/svg+xml</dc:format>
        <dc:type
           rdf:resource="http://purl.org/dc/dcmitype/StillImage" />
        <dc:title></dc:title>
      </cc:Work>
    </rdf:RDF>
  </metadata>
  <defs
     id="defs6" />
  <sodipodi:namedview
     pagecolor="#ffffff"
     bordercolor="#666666"
     borderopacity="1"
     objecttolerance="10"
     gridtolerance="10"
     guidetolerance="10"
     inkscape:pageopacity="0"
     inkscape:pageshadow="2"
     inkscape:window-width="1364"
     inkscape:window-height="732"
     id="namedview4"
     showgrid="false"
     fit-margin-top="0"
     fit-margin-left="0"
     fit-margin-right="0"
     fit-margin-bottom="0"
     inkscape:zoom="0.99411765"
     inkscape:cx="256.00297"
     inkscape:cy="181.12723"
     inkscape:window-x="0"
     inkscape:window-y="35"
     inkscape:window-maximized="0"
     inkscape:current-layer="svg2" />
  <g
     id="g28"
     transform="translate(-26.659746,90.9024)">
    <path
       style="fill:#e43016"
       d="M 75.870625,121.98253 C 55.368952,118.51835 45.281398,100.20879 50.446949,75.836918 52.577333,65.785438 56.560489,58.29587 63.42818,51.42818 73.637031,41.219328 86.243512,37.052383 100.71839,39.102279 c 17.2285,2.439856 26.09337,14.825363 23.90967,33.405261 -0.34404,2.927263 -0.85575,5.923084 -1.13713,6.657378 C 123.08013,80.236964 117.12007,80.5 93.239671,80.5 H 63.5 l -0.288568,8.724965 c -0.237465,7.179867 0.09756,9.62255 1.891858,13.793505 5.291848,12.30123 18.985896,16.99388 35.04137,12.0079 3.49544,-1.08549 8.04284,-3.12672 10.10534,-4.53605 4.05664,-2.77195 4.50368,-2.2299 2.37085,2.87468 -1.12763,2.6988 -2.44981,3.69247 -7.25,5.44866 -10.101611,3.69577 -20.054592,4.76491 -29.500225,3.16887 z M 112.32281,69.706053 C 113.57613,64.40299 112.28269,55.715248 109.66055,51.82426 98.47898,35.231926 73.391763,44.434152 66.390994,67.69594 c -1.123555,3.73329 -1.15362,4.839157 -0.149127,5.485416 0.691973,0.445194 11.141518,0.699013 23.22121,0.564044 L 111.42615,73.5 Z M 127.09131,106.25 c 1.9984,-8.1125 5.78139,-25.775 8.40664,-39.25 2.62525,-13.475 4.92306,-25.0625 5.10623,-25.75 0.21982,-0.825021 2.38362,-1.25 6.36444,-1.25 6.42584,0 6.91052,0.485349 5.17781,5.1849 -0.46947,1.273305 -1.16779,3.611376 -1.55184,5.195713 -0.69532,2.868512 -0.67809,2.862674 4.10358,-1.389928 7.83976,-6.972342 14.26204,-9.479048 24.30183,-9.48535 10.33833,-0.0065 16.60641,2.588183 21.04096,8.709912 4.19284,5.788043 4.66055,11.181483 2.01172,23.198119 -2.69689,12.23468 -8.57973,40.659124 -9.48652,45.836634 l -0.65679,3.75 h -6.80872 -6.80873 l 3.28506,-11.99037 c 4.0034,-14.61223 8.34427,-35.37067 9.11,-43.564832 0.64891,-6.944087 -0.76328,-10.648324 -5.61636,-14.731921 -8.96008,-7.539414 -26.64852,-2.742289 -33.75806,9.155223 -3.53959,5.923347 -7.43621,20.814499 -12.06147,46.09352 L 136.5,120.9975 l -6.52108,0.001 -6.52107,10e-4 3.63346,-14.75 z m 80.9384,12.17185 C 209.49965,114.55561 214.55456,94.144374 217.545,80 219.58431,70.354387 225,41.584849 225,40.397166 c 0,-0.113334 3.15,-0.186342 7,-0.16224 3.85,0.0241 7,0.257835 7,0.519408 0,0.261572 -1.11384,4.586354 -2.47521,9.610626 -3.09002,11.404079 -10.75935,46.731989 -13.10898,60.38504 L 221.65184,121 h -7.30117 -7.30117 z m 46.04924,-19.005183 c 0.048,-1.164943 0.28494,-1.4019 0.60416,-0.604167 0.28887,0.721875 0.25335,1.58437 -0.0789,1.91667 -0.3323,0.33229 -0.56864,-0.25834 -0.52522,-1.312503 z M 226.5,26.13944 c -5.14321,-3.176931 -6.80774,-5.805207 -7.27952,-11.49428 -0.40258,-4.8545664 -0.16291,-5.6411391 2.719,-8.9234473 7.55375,-8.6032472 20.67072,-6.49291436 24.09283,3.8761925 C 249.90891,21.344116 236.76183,32.47812 226.5,26.13944 Z"
       id="path32"
       inkscape:connector-curvature="0"
       sodipodi:nodetypes="ssssscscsscssssssssscscscsccsccscccccsssscccccssssscscccscccccsssss" />
    <path
       style="fill:#1a181c"
       d="M 242.32939,118.75 C 244.17822,111.13402 254,45.685204 254,40.98121 254,40.441544 256.27296,40 259.05103,40 c 4.82086,0 5.11721,0.158411 6.50358,3.476449 4.57321,10.945246 25.50817,52.602786 26.21572,52.165497 0.46308,-0.286203 6.8917,-12.913871 14.28582,-28.061486 L 319.5,40.039343 324.54347,40.019672 329.58693,40 l 3.30342,28.75 c 1.81688,15.8125 4.06124,34.0375 4.98747,40.5 l 1.68404,11.75 h -9.5804 -9.58039 l -1.20042,-15.75 c -1.7214,-22.585509 -3.40254,-38.256639 -4.09876,-38.207641 -0.33104,0.0233 -6.43619,12.193847 -13.56699,27.045666 -11.90727,24.800085 -13.15757,26.979185 -15.32407,26.707645 -2.0231,-0.25357 -4.15597,-4.03369 -14.98046,-26.5501 -6.94183,-14.439937 -12.92898,-25.914937 -13.30478,-25.5 -0.93951,1.037357 -4.90592,42.12978 -4.92316,51.00443 -0.002,0.85112 -1.79207,1.25 -5.61084,1.25 -5.3113,0 -5.57947,-0.1192 -5.0622,-2.25 z"
       id="path30"
       inkscape:connector-curvature="0"
       sodipodi:nodetypes="cssccscccsccccscscsccsc" />
  </g>
</svg>
