<svg xmlns="http://www.w3.org/2000/svg" width="342.006" height="342.006"><path d="M49.21 212.885c-20.5-3.464-30.588-21.774-25.423-46.146 2.13-10.051 6.114-17.54 12.981-24.408 10.21-10.21 22.816-14.376 37.29-12.326 17.23 2.44 26.094 14.825 23.91 33.405-.344 2.927-.855 5.923-1.137 6.657-.41 1.072-6.37 1.335-30.251 1.335H36.84l-.288 8.725c-.238 7.18.097 9.623 1.892 13.794 5.291 12.301 18.985 16.994 35.04 12.008 3.496-1.086 8.044-3.127 10.106-4.536 4.057-2.772 4.504-2.23 2.371 2.874-1.128 2.7-2.45 3.693-7.25 5.45-10.102 3.695-20.054 4.764-29.5 3.168zm36.453-52.277c1.253-5.303-.04-13.99-2.662-17.881-11.182-16.593-36.269-7.39-43.27 15.871-1.123 3.734-1.153 4.84-.149 5.486.692.445 11.142.699 23.221.564l21.963-.246zm14.769 36.544c1.998-8.112 5.781-25.775 8.406-39.25 2.625-13.475 4.923-25.062 5.106-25.75.22-.825 2.384-1.25 6.365-1.25 6.426 0 6.91.486 5.178 5.185-.47 1.274-1.168 3.612-1.552 5.196-.695 2.869-.678 2.863 4.103-1.39 7.84-6.972 14.262-9.479 24.302-9.485 10.339-.007 16.607 2.588 21.041 8.71 4.193 5.788 4.66 11.181 2.012 23.198-2.697 12.234-8.58 40.659-9.487 45.836l-.656 3.75h-13.618l3.285-11.99c4.004-14.612 8.345-35.37 9.11-43.565.65-6.944-.763-10.648-5.616-14.732-8.96-7.54-26.649-2.742-33.758 9.155-3.54 5.924-7.436 20.815-12.062 46.094l-2.75 15.036h-6.522l-6.52.002 3.633-14.75zm80.938 12.172c1.47-3.866 6.525-24.277 9.515-38.422 2.04-9.645 7.455-38.415 7.455-39.602 0-.114 3.15-.187 7-.163 3.85.024 7 .258 7 .52 0 .261-1.114 4.586-2.475 9.61-3.09 11.404-10.76 46.732-13.109 60.385l-1.764 10.25H180.39zm46.05-19.005c.047-1.165.284-1.402.603-.604.29.722.254 1.584-.079 1.917-.332.332-.568-.259-.525-1.313zm-27.58-73.277c-5.143-3.177-6.807-5.805-7.28-11.494-.402-4.855-.162-5.642 2.72-8.924 7.553-8.603 20.67-6.493 24.093 3.876 3.876 11.747-9.27 22.88-19.533 16.542z" fill="#e43016"/><path d="M215.67 209.652c1.848-7.616 11.67-73.064 11.67-77.768 0-.54 2.273-.982 5.051-.982 4.821 0 5.117.159 6.504 3.477 4.573 10.945 25.508 52.603 26.216 52.165.463-.286 6.891-12.914 14.285-28.061l13.444-27.541 5.044-.02 5.043-.02 3.304 28.75c1.816 15.813 4.06 34.038 4.987 40.5l1.684 11.75h-19.16l-1.201-15.75c-1.721-22.585-3.403-38.256-4.099-38.207-.33.023-6.436 12.194-13.567 27.045-11.907 24.8-13.157 26.98-15.324 26.708-2.023-.253-4.156-4.034-14.98-26.55-6.942-14.44-12.93-25.915-13.305-25.5-.94 1.037-4.906 42.13-4.923 51.004-.002.852-1.792 1.25-5.611 1.25-5.311 0-5.58-.119-5.062-2.25z" fill="#1a181c"/></svg>