<svg xmlns="http://www.w3.org/2000/svg" width="258.371" height="258.429" version="1"><path d="M0 129.213C0 57.849 57.852 0 129.214 0 200.52 0 258.37 57.849 258.37 129.213c0 71.37-57.851 129.216-129.157 129.216C57.852 258.429 0 200.583 0 129.213" fill="#009e4c"/><path d="M49.078 187.696H209.29v5.025H49.078v-5.025m-5.04 8.829h170.296v5.019H44.038v-5.019m10.088-12.622v-56.664c0-13.074 10.632-23.673 23.752-23.673 13.117 0 23.75 10.599 23.75 23.673v56.664H96.59v-56.664c0-10.299-8.379-18.653-18.712-18.653-10.336 0-18.715 8.354-18.715 18.653v56.664zm5.037-5.024H96.59v5.024H59.163v-5.024m46.278 5.024v-56.667c0-13.071 10.637-23.67 23.755-23.67 13.116 0 23.748 10.599 23.748 23.67v56.667h-5.039v-56.667c0-10.298-8.375-18.65-18.709-18.65-10.336 0-18.715 8.352-18.715 18.65v56.667zm5.04-5.024h37.424v5.024h-37.424v-5.024m46.276 5.024v-56.667c0-13.071 10.643-23.67 23.758-23.67 13.113 0 23.752 10.599 23.752 23.67v56.667h-5.036v-56.667c0-10.298-8.384-18.65-18.716-18.65-10.339 0-18.716 8.352-18.716 18.65v56.667zm5.042-5.024h37.432v5.024H161.8v-5.024M54.1 70.856h-2.213c-.676 0-1.013-.336-1.013-1.011v-1.5c0-.712-.225-1.275-.675-1.764-.488-.486-1.012-.748-1.613-.748h-4.875c-.637 0-1.162.225-1.612.712-.488.488-.713 1.088-.713 1.8v14.961c0 .714.225 1.277.675 1.764.488.488 1.013.75 1.613.75h4.912c.6 0 1.125-.225 1.575-.712.488-.488.713-1.088.713-1.802V81.77c0-.637.337-.975 1.013-.975h2.174c.675 0 1.013.338 1.013.975v1.536c0 1.802-.638 3.302-1.875 4.464-1.238 1.161-2.775 1.763-4.613 1.763h-4.912c-1.8 0-3.338-.602-4.575-1.763-1.275-1.162-1.913-2.662-1.913-4.464V68.345c0-1.8.638-3.3 1.875-4.462 1.275-1.163 2.813-1.763 4.65-1.763h4.875c1.838 0 3.375.6 4.613 1.763 1.275 1.162 1.912 2.662 1.912 4.462v1.538c0 .637-.337.973-1.012.973m19.162 18.677H71.05c-.675 0-1.013-.338-1.013-.975V76.183c0-.713-.224-1.275-.675-1.763-.487-.489-1.013-.751-1.612-.751h-5.213v14.889c0 .637-.337.975-1.012.975H59.31c-.675 0-1.013-.338-1.013-.975V63.433c0-.525.45-.9 1.35-1.088.563-.076 1.163-.15 1.763-.225.338-.037.6.038.788.263.225.225.337.448.337.712v6.863h5.213c1.837 0 3.375.6 4.612 1.762 1.275 1.163 1.913 2.663 1.913 4.463v12.375c0 .637-.338.975-1.013.975m8.175 0h-2.212c-.675 0-1.013-.338-1.013-.975V70.933c0-.638.338-.975 1.013-.975h2.212c.676 0 1.013.337 1.013.975v17.625c0 .637-.337.975-1.013.975zm.713-23.7h-3.637c-.675 0-1.013-.34-1.013-.975v-1.763c0-.637.338-.975 1.013-.975h3.637c.676 0 1.013.338 1.013.975v1.763c0 .636-.337.975-1.013.975m30.938 23.7h-2.175c-.713 0-1.05-.338-1.05-.975V76.07c0-.676-.225-1.237-.676-1.725-.487-.487-1.012-.75-1.612-.75h-2.925c-.6 0-1.125.225-1.575.713-.488.487-.712 1.05-.712 1.762v12.488c0 .412-.3.75-.9.975h-2.325c-.675 0-1.013-.338-1.013-.975V76.07c0-.712-.225-1.275-.675-1.762-.487-.488-1.012-.713-1.612-.713H92.91c-.638 0-1.163.225-1.613.713-.488.487-.713 1.086-.713 1.762l.038 12.488c0 .637-.337.975-1.05.975h-2.175c-.713 0-1.012-.338-1.012-.975V76.07c0-1.762.637-3.225 1.875-4.387 1.275-1.163 2.812-1.725 4.65-1.725h2.924c1.688 0 3.15.525 4.388 1.537 1.237-1.012 2.7-1.537 4.425-1.537h2.925c1.838 0 3.376.562 4.612 1.725 1.276 1.162 1.914 2.625 1.914 4.387v12.488c0 .637-.338.975-1.013.975m8.175 0h-2.213c-.675 0-1.012-.338-1.012-.975V70.933c0-.638.337-.975 1.012-.975h2.213c.675 0 1.012.337 1.012.975v17.625c0 .637-.337.975-1.012.975zm.713-23.7h-3.638c-.675 0-1.013-.34-1.013-.975v-1.763c0-.637.338-.975 1.013-.975h3.638c.675 0 1.012.338 1.012.975v1.763c0 .636-.337.975-1.012.975m15.112 8.512c-.488-.487-1.013-.75-1.611-.75h-2.925c-.639 0-1.164.225-1.613.713a2.521 2.521 0 0 0-.676 1.762v2.475h5.214c.598 0 1.123-.225 1.575-.714.486-.486.712-1.087.712-1.761 0-.676-.226-1.237-.676-1.725zm3.039 6.113c-1.276 1.162-2.813 1.725-4.65 1.725h-5.214v1.237c0 .675.225 1.238.676 1.725.449.488.974.75 1.613.75 2.475 0 4.35-.186 5.661-.525a.858.858 0 0 1 .901.225c.225.261.338.488.338.713v1.537c0 1.125-2.288 1.688-6.9 1.688-1.839 0-3.376-.563-4.614-1.725-1.275-1.162-1.912-2.627-1.912-4.388v-7.35c0-1.762.637-3.187 1.875-4.35 1.275-1.162 2.812-1.762 4.65-1.762h2.926c1.837 0 3.374.562 4.611 1.725 1.275 1.162 1.914 2.625 1.914 4.387 0 1.761-.639 3.224-1.875 4.388m26.401-12.113c0-.712-.226-1.312-.675-1.8-.489-.487-1.014-.75-1.613-.75H156.1v7.538h8.139c.636 0 1.16-.263 1.612-.752.486-.486.712-1.086.712-1.761zm4.236 2.475c0 1.8-.675 3.3-1.911 4.463-1.237 1.162-2.776 1.762-4.612 1.762h-8.14v11.513c0 .637-.337.975-1.05.975h-2.174c-.674 0-1.013-.338-1.013-.975V63.095c0-.676.339-1.012 1.013-1.012l11.364.037c1.836 0 3.375.6 4.648 1.763 1.275 1.162 1.875 2.662 1.875 4.462v2.475m10.455 10.125h-5.212c-.638 0-1.163.224-1.611.713-.49.487-.714 1.087-.714 1.762s.225 1.238.673 1.725c.49.488 1.014.75 1.652.75h5.212zm3.225 8.588h-8.437c-1.838 0-3.374-.563-4.613-1.725-1.275-1.162-1.912-2.627-1.912-4.388 0-1.762.637-3.225 1.875-4.387 1.276-1.163 2.812-1.725 4.65-1.725h5.212V76.07c0-.712-.225-1.275-.674-1.762-.488-.488-1.013-.713-1.613-.713-2.288 0-3.863.113-4.763.3-.337.075-.637-.037-.862-.3-.188-.187-.302-.412-.302-.675v-1.575c0-.489.264-.787.827-.937 1.088-.3 2.812-.45 5.1-.45 1.837 0 3.376.562 4.612 1.725 1.276 1.162 1.913 2.625 1.913 4.387v12.488c0 .637-.337.975-1.013.975m15.938-16.238c-.225.224-.489.338-.75.338-1.95-.038-3.525-.075-4.688-.075-.562 0-1.089.262-1.575.75-.487.487-.712 1.086-.712 1.762v12.451c0 .674-.338 1.012-1.013 1.012h-2.176c-.674 0-1.011-.338-1.011-.975V76.07c0-1.8.636-3.3 1.875-4.462 1.237-1.163 2.812-1.763 4.649-1.69.6 0 2.176.077 4.726.19.675.037 1.011.375 1.011 1.01v1.502c0 .263-.112.488-.336.675m6.336 16.238h-2.212c-.674 0-1.013-.338-1.013-.975V70.933c0-.638.339-.975 1.013-.975h2.212c.675 0 1.013.337 1.013.975v17.625c0 .637-.338.975-1.013.975zm.713-23.7h-3.638c-.675 0-1.011-.34-1.011-.975v-1.763c0-.637.336-.975 1.011-.975h3.638c.675 0 1.012.338 1.012.975v1.763c0 .636-.337.975-1.012.975m14.283 22.087c-1.274 1.088-2.812 1.613-4.651 1.613-4.349 0-6.522-.563-6.522-1.688v-1.537c0-.225.112-.452.298-.675a.804.804 0 0 1 .9-.263c1.313.339 3.077.525 5.324.525.639 0 1.201-.186 1.614-.564.45-.412.675-.937.675-1.573 0-.563-.301-1.013-.9-1.39-.113-.035-.675-.298-1.688-.748-2.401-1.05-3.787-1.725-4.2-1.987-1.35-.938-2.023-2.25-2.023-3.863 0-1.762.636-3.189 1.875-4.237 1.236-1.05 2.812-1.575 4.647-1.575 4.275 0 6.414.562 6.414 1.686v1.539c0 .225-.113.45-.3.675-.225.262-.525.337-.901.262-1.31-.337-3.074-.525-5.213-.525-.674 0-1.236.188-1.649.563a2.15 2.15 0 0 0-.639 1.575c0 .562.302 1.01.864 1.387.15.113.713.338 1.688.75 2.287.938 3.675 1.613 4.237 1.988 1.35.937 2.025 2.248 2.025 3.862 0 1.763-.637 3.15-1.875 4.2" fill="#fff"/></svg>