<?xml version="1.0" encoding="UTF-8" standalone="no"?>
<!-- Created with Inkscape (http://www.inkscape.org/) -->

<svg
   xmlns:dc="http://purl.org/dc/elements/1.1/"
   xmlns:cc="http://creativecommons.org/ns#"
   xmlns:rdf="http://www.w3.org/1999/02/22-rdf-syntax-ns#"
   xmlns:svg="http://www.w3.org/2000/svg"
   xmlns="http://www.w3.org/2000/svg"
   xmlns:sodipodi="http://sodipodi.sourceforge.net/DTD/sodipodi-0.dtd"
   xmlns:inkscape="http://www.inkscape.org/namespaces/inkscape"
   id="svg2443"
   sodipodi:version="0.32"
   inkscape:version="0.92.3 (2405546, 2018-03-11)"
   width="258.37125"
   height="258.42886"
   xml:space="preserve"
   sodipodi:docname="enscp.svg"
   inkscape:output_extension="org.inkscape.output.svg.inkscape"
   version="1.0"><metadata
     id="metadata2448"><rdf:RDF><cc:Work
         rdf:about=""><dc:format>image/svg+xml</dc:format><dc:type
           rdf:resource="http://purl.org/dc/dcmitype/StillImage" /><dc:title></dc:title></cc:Work></rdf:RDF></metadata><defs
     id="defs2446"><inkscape:perspective
       sodipodi:type="inkscape:persp3d"
       inkscape:vp_x="0 : 526.18109 : 1"
       inkscape:vp_y="0 : 1000 : 0"
       inkscape:vp_z="744.09448 : 526.18109 : 1"
       inkscape:persp3d-origin="372.04724 : 350.78739 : 1"
       id="perspective2450" /><clipPath
       clipPathUnits="userSpaceOnUse"
       id="clipPath2460"><path
         d="M 0,2555.24 V 0 h 2066.97 v 2555.24 z"
         id="path2462"
         inkscape:connector-curvature="0" /></clipPath><clipPath
       id="clipPath3065"
       clipPathUnits="userSpaceOnUse"><path
         id="path3067"
         d="M 318.325,544.25 H 419.52 V 479.6 H 318.325 Z"
         inkscape:connector-curvature="0" /></clipPath><clipPath
       id="clipPath2929"
       clipPathUnits="userSpaceOnUse"><path
         id="path2931"
         d="m 51.215,514.49 h 118.677 v 20.016 H 51.215 Z"
         inkscape:connector-curvature="0" /></clipPath><clipPath
       id="clipPath2917"
       clipPathUnits="userSpaceOnUse"><path
         id="path2919"
         d="m 51.215,514.49 h 118.677 v 20.016 H 51.215 Z"
         inkscape:connector-curvature="0" /></clipPath><clipPath
       id="clipPath2425"
       clipPathUnits="userSpaceOnUse"><path
         id="path2427"
         d="m 196.725,544.3 h 121.65 v -68.4 h -121.65 z"
         inkscape:connector-curvature="0" /></clipPath><inkscape:perspective
       inkscape:persp3d-origin="300 : 400 : 1"
       inkscape:vp_z="700 : 600 : 1"
       inkscape:vp_y="0 : 1000 : 0"
       inkscape:vp_x="-50 : 600 : 1"
       id="perspective2415"
       sodipodi:type="inkscape:persp3d" /></defs><sodipodi:namedview
     inkscape:window-height="732"
     inkscape:window-width="1364"
     inkscape:pageshadow="2"
     inkscape:pageopacity="0.0"
     guidetolerance="10.0"
     gridtolerance="10.0"
     objecttolerance="10.0"
     borderopacity="1.0"
     bordercolor="#666666"
     pagecolor="#ffffff"
     id="base"
     showgrid="false"
     inkscape:zoom="1.55625"
     inkscape:cx="259.99562"
     inkscape:cy="78.936924"
     inkscape:window-x="192"
     inkscape:window-y="1235"
     inkscape:current-layer="g2452"
     fit-margin-top="0"
     fit-margin-left="0"
     fit-margin-right="0"
     fit-margin-bottom="0"
     inkscape:window-maximized="0" /><g
     id="g2452"
     inkscape:groupmode="layer"
     inkscape:label="logo_CPP"
     transform="matrix(1.25,0,0,-1.25,-1.2,317.40586)"><g
       id="g4370"
       transform="translate(-0.24)"><g
         transform="translate(1.2,-1.5993139)"
         id="g4269"><path
           id="path2464"
           style="fill:#009e4c;fill-opacity:1;fill-rule:nonzero;stroke:none"
           d="m 0,152.154 c 0,57.091 46.2812,103.37 103.371,103.37 57.045,0 103.326,-46.279 103.326,-103.37 C 206.697,95.0578 160.416,48.7809 103.371,48.7809 46.2812,48.7809 0,95.0578 0,152.154 v 0"
           inkscape:connector-curvature="0" /><g
           id="g3288"><path
             d="M 39.2621,105.367 H 167.432 v -4.02 H 39.2621 v 4.02"
             style="fill:#ffffff;fill-opacity:1;fill-rule:nonzero;stroke:none"
             id="path2466"
             inkscape:connector-curvature="0" /><path
             d="M 35.2301,98.3039 H 171.467 V 94.2891 H 35.2301 v 4.0148"
             style="fill:#ffffff;fill-opacity:1;fill-rule:nonzero;stroke:none"
             id="path2468"
             inkscape:connector-curvature="0" /><path
             d="m 43.3004,108.402 v 45.331 c 0,10.459 8.5058,18.938 19.0019,18.938 10.4938,0 19.0008,-8.479 19.0008,-18.938 v -45.331 h -4.0312 v 45.331 c 0,8.239 -6.7028,14.922 -14.9696,14.922 -8.2691,0 -14.9722,-6.683 -14.9722,-14.922 v -45.331 z m 4.0297,4.019 h 29.9418 v -4.019 H 47.3301 v 4.019"
             style="fill:#ffffff;fill-opacity:1;fill-rule:nonzero;stroke:none"
             id="path2470"
             inkscape:connector-curvature="0" /><path
             d="m 84.3531,108.402 v 45.333 c 0,10.457 8.509,18.936 19.0039,18.936 10.493,0 18.998,-8.479 18.998,-18.936 v -45.333 h -4.031 v 45.333 c 0,8.239 -6.7,14.92 -14.967,14.92 -8.2691,0 -14.9718,-6.681 -14.9718,-14.92 v -45.333 z m 4.0321,4.019 h 29.9388 v -4.019 H 88.3852 v 4.019"
             style="fill:#ffffff;fill-opacity:1;fill-rule:nonzero;stroke:none"
             id="path2472"
             inkscape:connector-curvature="0" /><path
             d="m 125.406,108.402 v 45.333 c 0,10.457 8.514,18.936 19.006,18.936 10.49,0 19.002,-8.479 19.002,-18.936 v -45.333 h -4.029 v 45.333 c 0,8.239 -6.707,14.92 -14.973,14.92 -8.271,0 -14.973,-6.681 -14.973,-14.92 v -45.333 z m 4.033,4.019 h 29.946 v -4.019 h -29.946 v 4.019"
             style="fill:#ffffff;fill-opacity:1;fill-rule:nonzero;stroke:none"
             id="path2474"
             inkscape:connector-curvature="0" /></g><g
           id="g3275"><path
             d="m 43.2793,198.839 h -1.7699 c -0.5403,0 -0.8102,0.269 -0.8102,0.809 v 1.2 c 0,0.57 -0.1801,1.02 -0.5398,1.411 -0.3903,0.389 -0.8102,0.599 -1.2903,0.599 h -3.9 c -0.5101,0 -0.93,-0.18 -1.2898,-0.57 -0.3902,-0.39 -0.5703,-0.87 -0.5703,-1.44 v -11.969 c 0,-0.571 0.1801,-1.021 0.5398,-1.411 0.3903,-0.39 0.8102,-0.6 1.2903,-0.6 h 3.93 c 0.4801,0 0.9,0.18 1.2598,0.57 0.3902,0.39 0.5703,0.87 0.5703,1.441 v 1.229 c 0,0.51 0.2699,0.78 0.8102,0.78 h 1.7394 c 0.5403,0 0.8102,-0.27 0.8102,-0.78 v -1.229 c 0,-1.441 -0.5098,-2.641 -1.5,-3.571 -0.9902,-0.929 -2.2199,-1.41 -3.6899,-1.41 h -3.93 c -1.4403,0 -2.67,0.481 -3.6602,1.41 -1.0199,0.93 -1.5301,2.13 -1.5301,3.571 v 11.969 c 0,1.44 0.5102,2.64 1.5,3.57 1.0203,0.93 2.25,1.41 3.7203,1.41 h 3.9 c 1.47,0 2.6997,-0.48 3.6899,-1.41 1.0203,-0.93 1.5301,-2.13 1.5301,-3.57 v -1.23 c 0,-0.51 -0.27,-0.779 -0.8098,-0.779"
             style="fill:#ffffff;fill-opacity:1;fill-rule:nonzero;stroke:none"
             id="path2476"
             inkscape:connector-curvature="0" /><path
             d="m 58.609,183.898 h -1.7699 c -0.5403,0 -0.8102,0.27 -0.8102,0.78 v 9.9 c 0,0.57 -0.1797,1.02 -0.5402,1.41 -0.3895,0.391 -0.8102,0.601 -1.2899,0.601 h -4.1699 v -11.911 c 0,-0.51 -0.2699,-0.78 -0.8101,-0.78 h -1.77 c -0.5402,0 -0.8101,0.27 -0.8101,0.78 v 20.1 c 0,0.42 0.3601,0.72 1.0801,0.87 0.45,0.061 0.93,0.12 1.4101,0.18 0.2699,0.03 0.4801,-0.03 0.6301,-0.21 0.1801,-0.18 0.2699,-0.359 0.2699,-0.57 v -5.49 h 4.1699 c 1.47,0 2.7,-0.48 3.6899,-1.41 1.0199,-0.93 1.5301,-2.13 1.5301,-3.57 v -9.9 c 0,-0.51 -0.27,-0.78 -0.8098,-0.78"
             style="fill:#ffffff;fill-opacity:1;fill-rule:nonzero;stroke:none"
             id="path2478"
             inkscape:connector-curvature="0" /><path
             d="m 65.1484,183.898 h -1.7699 c -0.5402,0 -0.8101,0.27 -0.8101,0.78 v 14.1 c 0,0.51 0.2699,0.78 0.8101,0.78 h 1.7699 c 0.5403,0 0.8102,-0.27 0.8102,-0.78 v -14.1 c 0,-0.51 -0.2699,-0.78 -0.8102,-0.78 z m 0.5704,18.96 h -2.9102 c -0.5398,0 -0.8102,0.271 -0.8102,0.78 v 1.41 c 0,0.51 0.2704,0.78 0.8102,0.78 h 2.9102 c 0.5402,0 0.8101,-0.27 0.8101,-0.78 v -1.41 c 0,-0.509 -0.2699,-0.78 -0.8101,-0.78"
             style="fill:#ffffff;fill-opacity:1;fill-rule:nonzero;stroke:none"
             id="path2480"
             inkscape:connector-curvature="0" /><path
             d="m 90.4688,183.898 h -1.7403 c -0.5699,0 -0.8398,0.27 -0.8398,0.78 v 9.99 c 0,0.541 -0.1801,0.99 -0.5403,1.38 -0.3898,0.39 -0.8097,0.6 -1.2898,0.6 h -2.3398 c -0.4801,0 -0.9004,-0.18 -1.2602,-0.57 -0.3902,-0.39 -0.5699,-0.84 -0.5699,-1.41 v -9.99 c 0,-0.33 -0.2403,-0.6 -0.7203,-0.78 h -1.8598 c -0.5398,0 -0.8102,0.27 -0.8102,0.78 v 9.99 c 0,0.57 -0.18,1.02 -0.5398,1.41 -0.3902,0.39 -0.8102,0.57 -1.2902,0.57 h -2.3399 c -0.5101,0 -0.9301,-0.18 -1.2898,-0.57 -0.3903,-0.39 -0.5703,-0.869 -0.5703,-1.41 l 0.03,-9.99 c 0,-0.51 -0.2699,-0.78 -0.8398,-0.78 h -1.7402 c -0.57,0 -0.8098,0.27 -0.8098,0.78 v 9.99 c 0,1.41 0.5102,2.58 1.5,3.51 1.0199,0.93 2.25,1.38 3.7199,1.38 h 2.3399 c 1.3504,0 2.5203,-0.42 3.5101,-1.23 0.9899,0.81 2.1598,1.23 3.5403,1.23 h 2.3398 c 1.4703,0 2.7004,-0.45 3.6898,-1.38 1.0204,-0.93 1.5305,-2.1 1.5305,-3.51 v -9.99 c 0,-0.51 -0.2699,-0.78 -0.8101,-0.78"
             style="fill:#ffffff;fill-opacity:1;fill-rule:nonzero;stroke:none"
             id="path2482"
             inkscape:connector-curvature="0" /><path
             d="m 97.0078,183.898 h -1.7699 c -0.5402,0 -0.8102,0.27 -0.8102,0.78 v 14.1 c 0,0.51 0.27,0.78 0.8102,0.78 h 1.7699 c 0.5402,0 0.8102,-0.27 0.8102,-0.78 v -14.1 c 0,-0.51 -0.27,-0.78 -0.8102,-0.78 z m 0.5703,18.96 H 94.668 c -0.5403,0 -0.8102,0.271 -0.8102,0.78 v 1.41 c 0,0.51 0.2699,0.78 0.8102,0.78 h 2.9101 c 0.5403,0 0.8102,-0.27 0.8102,-0.78 v -1.41 c 0,-0.509 -0.2699,-0.78 -0.8102,-0.78"
             style="fill:#ffffff;fill-opacity:1;fill-rule:nonzero;stroke:none"
             id="path2484"
             inkscape:connector-curvature="0" /><path
             d="m 109.668,196.048 c -0.39,0.39 -0.81,0.6 -1.289,0.6 h -2.34 c -0.511,0 -0.931,-0.18 -1.29,-0.57 -0.361,-0.39 -0.541,-0.869 -0.541,-1.41 v -1.98 h 4.171 c 0.479,0 0.899,0.18 1.26,0.571 0.389,0.389 0.57,0.87 0.57,1.409 0,0.541 -0.181,0.99 -0.541,1.38 z m 2.431,-4.89 c -1.021,-0.93 -2.25,-1.38 -3.72,-1.38 h -4.171 v -0.99 c 0,-0.54 0.18,-0.99 0.541,-1.38 0.359,-0.39 0.779,-0.6 1.29,-0.6 1.98,0 3.48,0.149 4.529,0.42 0.3,0.09 0.54,0 0.721,-0.18 0.18,-0.209 0.27,-0.39 0.27,-0.57 v -1.23 c 0,-0.9 -1.83,-1.35 -5.52,-1.35 -1.471,0 -2.701,0.45 -3.691,1.38 -1.02,0.929 -1.53,2.101 -1.53,3.51 v 5.88 c 0,1.41 0.51,2.55 1.5,3.48 1.02,0.93 2.25,1.41 3.721,1.41 h 2.34 c 1.47,0 2.699,-0.45 3.689,-1.38 1.02,-0.93 1.531,-2.1 1.531,-3.51 0,-1.409 -0.511,-2.579 -1.5,-3.51"
             style="fill:#ffffff;fill-opacity:1;fill-rule:nonzero;stroke:none"
             id="path2486"
             inkscape:connector-curvature="0" /><path
             d="m 133.22,200.848 c 0,0.57 -0.181,1.05 -0.54,1.44 -0.391,0.39 -0.811,0.6 -1.29,0.6 h -6.511 v -6.03 h 6.511 c 0.509,0 0.929,0.21 1.29,0.601 0.389,0.389 0.57,0.869 0.57,1.409 z m 3.389,-1.98 c 0,-1.44 -0.54,-2.64 -1.529,-3.57 -0.99,-0.93 -2.221,-1.41 -3.69,-1.41 h -6.511 v -9.21 c 0,-0.51 -0.27,-0.78 -0.84,-0.78 h -1.74 c -0.539,0 -0.81,0.27 -0.81,0.78 v 20.37 c 0,0.541 0.271,0.81 0.81,0.81 l 9.091,-0.03 c 1.469,0 2.7,-0.48 3.719,-1.41 1.02,-0.93 1.5,-2.13 1.5,-3.57 v -1.98"
             style="fill:#ffffff;fill-opacity:1;fill-rule:nonzero;stroke:none"
             id="path2488"
             inkscape:connector-curvature="0" /><path
             d="m 144.973,190.768 h -4.17 c -0.51,0 -0.93,-0.179 -1.289,-0.57 -0.391,-0.39 -0.571,-0.87 -0.571,-1.41 0,-0.54 0.18,-0.99 0.539,-1.38 0.391,-0.39 0.811,-0.6 1.321,-0.6 h 4.17 z m 2.58,-6.87 h -6.75 c -1.47,0 -2.699,0.45 -3.69,1.38 -1.02,0.929 -1.53,2.101 -1.53,3.51 0,1.41 0.51,2.58 1.5,3.51 1.021,0.93 2.25,1.38 3.72,1.38 h 4.17 v 0.99 c 0,0.57 -0.18,1.02 -0.539,1.41 -0.391,0.39 -0.811,0.57 -1.291,0.57 -1.83,0 -3.09,-0.09 -3.81,-0.24 -0.27,-0.06 -0.51,0.03 -0.69,0.24 -0.15,0.15 -0.241,0.33 -0.241,0.54 v 1.26 c 0,0.391 0.211,0.63 0.661,0.75 0.871,0.24 2.25,0.36 4.08,0.36 1.47,0 2.701,-0.45 3.69,-1.38 1.021,-0.93 1.53,-2.1 1.53,-3.51 v -9.99 c 0,-0.51 -0.269,-0.78 -0.81,-0.78"
             style="fill:#ffffff;fill-opacity:1;fill-rule:nonzero;stroke:none"
             id="path2490"
             inkscape:connector-curvature="0" /><path
             d="m 160.303,196.888 c -0.18,-0.179 -0.391,-0.27 -0.6,-0.27 -1.56,0.03 -2.82,0.06 -3.75,0.06 -0.45,0 -0.871,-0.21 -1.26,-0.6 -0.39,-0.39 -0.57,-0.869 -0.57,-1.41 v -9.961 c 0,-0.539 -0.27,-0.809 -0.81,-0.809 h -1.741 c -0.539,0 -0.809,0.27 -0.809,0.78 v 9.99 c 0,1.44 0.509,2.64 1.5,3.57 0.99,0.93 2.25,1.41 3.719,1.351 0.481,0 1.741,-0.061 3.781,-0.151 0.54,-0.03 0.809,-0.3 0.809,-0.809 v -1.201 c 0,-0.21 -0.09,-0.39 -0.269,-0.54"
             style="fill:#ffffff;fill-opacity:1;fill-rule:nonzero;stroke:none"
             id="path2492"
             inkscape:connector-curvature="0" /><path
             d="m 165.372,183.898 h -1.77 c -0.539,0 -0.81,0.27 -0.81,0.78 v 14.1 c 0,0.51 0.271,0.78 0.81,0.78 h 1.77 c 0.54,0 0.81,-0.27 0.81,-0.78 v -14.1 c 0,-0.51 -0.27,-0.78 -0.81,-0.78 z m 0.57,18.96 h -2.91 c -0.54,0 -0.809,0.271 -0.809,0.78 v 1.41 c 0,0.51 0.269,0.78 0.809,0.78 h 2.91 c 0.54,0 0.81,-0.27 0.81,-0.78 v -1.41 c 0,-0.509 -0.27,-0.78 -0.81,-0.78"
             style="fill:#ffffff;fill-opacity:1;fill-rule:nonzero;stroke:none"
             id="path2494"
             inkscape:connector-curvature="0" /><path
             d="m 177.369,185.188 c -1.019,-0.87 -2.25,-1.29 -3.721,-1.29 -3.479,0 -5.218,0.45 -5.218,1.35 v 1.23 c 0,0.18 0.09,0.361 0.239,0.54 0.181,0.21 0.42,0.3 0.72,0.21 1.05,-0.271 2.461,-0.42 4.259,-0.42 0.511,0 0.961,0.149 1.291,0.451 0.36,0.33 0.54,0.75 0.54,1.259 0,0.45 -0.241,0.81 -0.72,1.111 -0.09,0.029 -0.54,0.239 -1.35,0.599 -1.921,0.84 -3.03,1.38 -3.36,1.59 -1.08,0.75 -1.619,1.8 -1.619,3.09 0,1.41 0.509,2.551 1.5,3.39 0.989,0.84 2.25,1.26 3.718,1.26 3.42,0 5.131,-0.45 5.131,-1.349 v -1.231 c 0,-0.18 -0.09,-0.36 -0.24,-0.54 -0.18,-0.21 -0.42,-0.27 -0.721,-0.21 -1.048,0.27 -2.459,0.42 -4.17,0.42 -0.539,0 -0.989,-0.15 -1.319,-0.45 -0.33,-0.33 -0.511,-0.75 -0.511,-1.26 0,-0.45 0.241,-0.809 0.691,-1.11 0.12,-0.09 0.57,-0.27 1.35,-0.6 1.83,-0.75 2.94,-1.29 3.39,-1.59 1.08,-0.75 1.62,-1.799 1.62,-3.09 0,-1.41 -0.51,-2.52 -1.5,-3.36"
             style="fill:#ffffff;fill-opacity:1;fill-rule:nonzero;stroke:none"
             id="path2496"
             inkscape:connector-curvature="0" /></g></g><g
         transform="translate(1.2,-1.5993139)"
         id="g4216"><g
           id="g3361"
           style="fill:#07a6a6;fill-opacity:1"
           transform="translate(1.02811,34.441767)" /><g
           id="g3355"
           style="fill:#231f20;fill-opacity:1"
           transform="translate(1.02811,34.441767)" /></g></g></g></svg>