<svg xmlns="http://www.w3.org/2000/svg" width="398.038" height="398.039"><path d="M248 263.821c2.158 3.545 4.645 5.764 8.965 5.764 4.493 0 7.709-3.705 7.709-8.094 0-10.299-17.342-5.76-17.342-18.279 0-7.139 5.645-10.63 12.292-10.63 2.663 0 5.871.828 7.93 2.658-.668 1.444-1.058 2.995-1.5 4.538h-.559c-1.157-2.987-3.598-4.82-6.856-4.82-3.832 0-6.995 2.551-6.995 6.49 0 10.184 17.454 6.08 17.454 17.88 0 7.931-6.154 12.64-13.68 12.64-2.716 0-7.147-1.16-9.034-3.212.554-1.608.837-3.273 1.055-4.935h.56zm-21.247-13.908h8.584c1.665 0 3.27-.222 4.928-.268-.05.44-.16.94-.16 1.433 0 .45.11.943.16 1.558-1.658-.065-3.263-.279-4.928-.279h-8.584v16.174c3.381.119 6.712-.107 10.032-.222a38.306 38.306 0 0 0 5.092-.5c-.054.615-.168 1.112-.168 1.67 0 .546.114 1.107.168 1.665h-19.998V233.41h19.661c-.05.612-.164 1.1-.164 1.662 0 .558.115 1.112.164 1.662-1.654-.332-3.323-.493-4.973-.608l-5.55-.114h-4.264v13.9zm-56.772-16.503c.772.062 1.604.153 2.437.153.78 0 1.551-.091 2.445-.153v37.88c-.894-.047-1.666-.146-2.445-.146-.833 0-1.665.1-2.437.145zm44.755 37.88h-1.654a66.81 66.81 0 0 0-2.888-3.366l-23.932-26.476h-.546v29.841c-.57-.046-1.05-.145-1.551-.145-.554 0-1.058.1-1.555.145V233.41h2.162l26.312 28.536h.55V233.41c.5.062 1.001.153 1.555.153.489 0 .997-.092 1.547-.153v37.88zm-54.897-37.88c1.444 13.68 2.995 27.317 4.496 37.88-1-.047-1.772-.146-2.609-.146-.886 0-1.769.1-2.601.145-.94-11.128-2.052-23.088-2.823-28.573-6.433 11.475-11.189 20.33-14.516 27.973h-.611l-3.04-6.253c-3.55-7.319-7.43-14.523-11.193-21.72-1.211 10.806-2.716 21.77-2.716 28.573-.719-.046-1.326-.145-1.937-.145-.722 0-1.337.1-1.99.145 1.432-8.904 4.763-32.053 5.313-37.879h1.44c4.428 8.794 9.749 19.226 15.674 29.032 5.267-9.481 10.363-19.115 15.952-29.032h1.161zm41.088-88.212l49.247-42.856 58.716-29.498-48.433 40.92a61.581 61.581 0 0 1 2.88 5.23l82.84-46.704-77.748 60.41a67.565 67.565 0 0 1 2.017 16.413c0 38.899-33.188 70.429-74.134 70.429-13.175 0-25.548-3.259-36.27-8.989l86.51-46.989-62.624 47.704a63.022 63.022 0 0 0 12.384 1.237c34.662 0 62.75-28.386 62.75-63.392 0-11.154-2.85-21.632-7.857-30.743l-50.278 26.828zm-59.882 33.977c-4.782-8.95-7.487-19.184-7.487-30.06 0-35.01 28.092-63.392 62.754-63.392a62.5 62.5 0 0 1 11.093.986l.482.607-62.334 46.191 87.06-45.84c-10.612-5.546-23.343-8.992-36.3-8.992-40.947 0-74.138 31.542-74.138 70.44 0 5.543.672 10.937 1.948 16.12l-77.9 60.092 82.71-46.783a69.57 69.57 0 0 0 3.353 6.108l-51.561 41.512 61.218-30.335 49.247-44.234-50.145 27.58" fill="#005c9e"/><path d="M116.899 226.725l27.267-28.107 75.688-41.736-62.613 50.912-40.342 18.931zm57.04-87.097l61.486-49.53 39.238-17.808-26.43 26.992-74.294 40.346z" fill="#005c9e"/><path d="M86.572 301.344c1.654 0 5.975.379 8.958-.11 9.36-1.563 14.184-4.603 14.184-11.28 0-6.682-4.23-9.062-17.102-9.062h-11.85v37.787c.921-.053 1.914-.137 2.904-.137.924 0 1.844.084 2.906.137v-17.335zm0-18.293c1.987-.107 6.705-.168 9.562.057 5.24.382 7.498 3.369 7.498 7.12 0 4.905-3.85 8.4-10.49 8.947-2.257.168-4.916.168-6.57 0V283.05zm39.946 19.424l-1.073.416c-2.422.951-2.353.829-6.785 1.784-5.21 1.13-10.57 1.784-10.852 7.735-.15 3.752 3.782 6.613 8.209 6.85 4.355.236 8.717-1.677 10.146-5.299v4.58h8.713v-1.016h-2.998V300.92c0-4.4-.784-8.507-10.215-8.923-2.575-.123-2.185.114-4.042.347-2.146.302-4.14.967-5.565 1.501v7.969h1.276l1.574-3.331c1.356-2.858 1.543-5.948 6.184-5.531 4.645.408 5.428 2.968 5.428 5.703v3.82zm0 3.747c0 1.54.069 2.498-.141 4.042-.5 3.456-3.217 7.261-7.717 7.506-3.785.24-5.573-2.74-5.283-5.478.638-6.131 2.999-5.355 10.284-7.617l2.857-.894v2.441zm26.22 12.32h-12.93v-1.016h3.216V293.72h-3.362v-1.074h8.358v5.421c.355-1.96 3.354-5.596 8.072-5.596 1.356 0 2.57.305 3.93.89v9.404h-1.36l-1.718-4.343c-1.215-3.04-2.144-4.996-4-4.106-4.847 2.322-4.424 7.91-4.424 13.152v10.058h4.218v1.016zm19.364-31.901c0 1.662-1.635 2.858-3.496 2.858-1.787 0-3.43-1.31-3.43-2.804 0-1.478 1.574-2.915 3.358-2.915 1.933 0 3.568 1.303 3.568 2.861m-8.997 31.9v-1.015h3.286V293.72h-3.072v-1.074h8.641v24.88h2.934v1.016h-11.789zm34.124-19.821c-1.348-4.05-2.716-5.653-6.414-5.653-3.22 0-7.296 1.073-7.582 4.347-.21 2.922 3.43 4.106 6.715 5 5.574 1.604 12.071 3.27 11.85 8.453-.142 4.936-5.066 8.568-11.777 8.446-3.855-.053-8.213-1.302-9.71-2.2v-8.507h1.287l1.497 4.282c1.647 4.825 3.495 4.882 6.43 5.123 4.064.351 8.709-1.31 9.06-4.645.508-4.107-6.066-5.18-10.21-6.43-2.927-.897-8.638-2.497-8.638-7.376 0-5.714 7.426-7.624 11.353-7.624 3.29 0 7.067 1.07 8.427 1.784v7.8h-1.36l-.928-2.8z" fill="#b1b2b4"/><path d="M216.084 318.79a52.436 52.436 0 0 0-2.895-.084c-.993 0-1.99.027-2.907.084v-35.277c-6.7 0-10.75.328-14.52.66.065-.546.233-1.103.233-1.646 0-.546-.168-1.035-.233-1.635h34.193c-.07.6-.161 1.09-.161 1.635 0 .543.092 1.1.16 1.647-3.32-.333-7.964-.661-13.87-.661z"/><path d="M216.084 318.79l.012-.244a53.022 53.022 0 0 0-2.907-.084c-.997 0-2.002.026-2.922.084l.015.244h.244v-35.522h-.244c-6.708 0-10.769.329-14.543.661l.023.245.241.03c.061-.52.237-1.085.237-1.677-.004-.6-.176-1.092-.237-1.661l-.24.026v.245h34.192v-.245l-.245-.026c-.065.588-.16 1.085-.16 1.661 0 .57.095 1.135.16 1.677l.245-.03.022-.24c-3.327-.337-7.98-.666-13.893-.666h-.244v35.522h.244l.012-.244-.012.244h.245v-35.277h-.245v.244c5.894 0 10.532.329 13.844.661l.306.03-.039-.305c-.068-.554-.156-1.1-.156-1.616 0-.515.087-.997.156-1.608l.03-.271h-34.738l.03.271c.073.634.238 1.116.234 1.608.004.493-.16 1.043-.233 1.616l-.038.302.301-.027c3.77-.332 7.808-.66 14.5-.66v-.245h-.244v35.537l.26-.015a46.27 46.27 0 0 1 2.892-.085c.913 0 1.826.027 2.884.085l.256.011v-.256h-.245zm32.034-9.886h-1.356l-.068.71c-.356 3.568-3.297 8.687-8.863 8.397-6.28-.298-7.643-5.776-7.643-11.972v-3.03h17.862c.638-5.48-3.939-11.249-11.074-11.192-7.358.119-12.354 6.25-12.786 13.508-.428 7.922 5.493 14.053 13.217 13.935 6.063-.122 10.207-4.584 10.643-9.53l.068-.826zm-17.357-10.249c.504-2.846 2.784-5.588 5.92-5.703 3.79-.176 5.23 3.155 5.295 6.131l.069 2.796h-11.858l.573-3.224z"/><path d="M248.118 308.904v-.245h-1.577l-.092.933c-.336 3.384-3.071 8.197-8.167 8.186l-.435-.012c-3.072-.156-4.875-1.528-5.975-3.644-1.096-2.116-1.44-5.004-1.44-8.083v-2.785h17.835l.027-.217c.038-.348.061-.7.061-1.05-.011-5.265-4.51-10.403-11.272-10.414h-.111c-7.506.122-12.595 6.383-13.026 13.737l-.023.82c0 3.79 1.444 7.137 3.824 9.532 2.38 2.398 5.7 3.843 9.439 3.843h.225c6.189-.127 10.436-4.688 10.883-9.757l.065-.825.023-.263h-.263v.244l-.245-.019-.069.822c-.428 4.824-4.465 9.186-10.401 9.309h-.218c-7.22-.004-12.77-5.562-12.774-12.885l.023-.79c.431-7.163 5.336-13.16 12.545-13.279h.103c6.501 0 10.78 4.94 10.78 9.924l-.058.993.245.031v-.244h-18.107v3.273c.004 3.114.34 6.067 1.494 8.309 1.15 2.246 3.17 3.762 6.383 3.908l.462.011c5.451-.015 8.3-5.077 8.652-8.626l.05-.492h1.134v-.245l-.244-.019.244.02zm-17.357-10.249l.24.042c.485-2.758 2.705-5.398 5.692-5.5l.275-.009c3.385-.004 4.683 3.049 4.764 5.898l.06 2.548h-11.31l.52-2.937-.241-.042-.241-.042-.573 3.224-.05.286h12.396l-.073-3.048c-.05-2.945-1.49-6.368-5.252-6.375l-.298.008c-3.281.13-5.63 2.972-6.15 5.905l.24.042zm42.966 3.759l-.71-2.147c-1.57-5.172-3.43-7.49-6.716-7.56-6.93-.114-8.071 7.385-7.926 13.038.145 5.241.718 11.968 8.003 12.025 4.286.054 6.933-3.335 7.636-6.971l.374-1.895h1.272l-.206 1.31c-1.066 6.838-5.573 8.985-10.574 8.924-8.071-.061-12.644-7.086-12.644-13.748 0-6.968 5.356-13.454 13.71-13.756 2.143-.05 5.852.126 9.141 1.727v9.053h-1.36z"/><path d="M273.727 302.414l.233-.076-.71-2.147-.233.076.233-.069c-1.559-5.187-3.51-7.666-6.941-7.735l-.16-.004c-3.309-.007-5.368 1.75-6.529 4.16-1.165 2.41-1.5 5.474-1.5 8.232l.01.898c.077 2.628.249 5.646 1.345 8.052 1.093 2.41 3.178 4.194 6.899 4.214h.1c4.377 0 7.078-3.488 7.78-7.17l.333-1.697h.787l-.16 1.028c-1.055 6.628-5.272 8.694-10.12 8.717h-.21c-7.91-.057-12.396-6.94-12.403-13.503.004-6.846 5.252-13.21 13.473-13.511l.622-.008c2.174 0 5.47.278 8.404 1.71l.107-.22h-.244v8.808h-1.116v.245l.233-.077-.233.077v.244h1.605v-9.45l-.138-.065c-3.04-1.483-6.402-1.758-8.618-1.761l-.638.008c-8.484.305-13.95 6.906-13.946 14-.008 6.761 4.653 13.927 12.888 13.992h.214c4.981.023 9.55-2.28 10.6-9.133l.207-1.307.042-.282h-1.757l-.413 2.093c-.688 3.533-3.216 6.776-7.3 6.773h-.091c-3.568-.039-5.406-1.65-6.46-3.927-1.047-2.28-1.23-5.249-1.303-7.862l-.011-.886c0-2.716.34-5.722 1.455-8.018 1.123-2.296 2.957-3.877 6.085-3.885l.15.004c3.132.073 4.904 2.223 6.486 7.388l.004.008.706 2.143.054.168h.18v-.245zm22.205 16.128v-1.016h3.794V300.45c0-3.392.065-6.788-4.08-6.665-5.994.175-6.777 7.2-6.777 12.438v11.303h4.065v1.016h-12.495v-1.016h3.01v-33.028h-3.217v-1.07h8.637v13.508c.852-2.265 4.493-5 8.35-4.698 5.792.408 7.79 2.433 7.79 7.918v17.37h3.143v1.016h-12.22z"/><path d="M295.932 318.542h.245v-.772h3.793v-17.62c0-1.616-.008-3.228-.523-4.489-.508-1.268-1.616-2.139-3.587-2.124l-.222.004c-3.105.08-4.904 1.99-5.856 4.477-.966 2.487-1.157 5.574-1.157 8.206v11.547h4.064v.527h-12.006v-.527h3.01v-33.516h-3.216v-.58h8.148v13.262l.47.088c.748-2.028 4.022-4.58 7.54-4.565l.566.02c2.876.202 4.756.81 5.91 1.986 1.157 1.173 1.653 2.972 1.653 5.691v17.614h3.144v.527h-11.976v.245h.245-.245v.244h12.465v-1.505h-3.144v-17.125c0-2.765-.5-4.721-1.791-6.035-1.295-1.31-3.308-1.922-6.223-2.128l-.604-.023c-3.75.015-7.124 2.605-7.995 4.878l.23.088h.244v-13.752h-9.126v1.558h3.216v32.538h-3.01v1.505h12.984v-1.505h-4.064v-11.059c-.004-2.609.198-5.65 1.123-8.03.936-2.383 2.525-4.071 5.417-4.163l.206-.004c1.841.015 2.662.714 3.136 1.822.466 1.12.489 2.69.485 4.301v17.133h-3.793v1.505h.244v-.244z"/></svg>