<?xml version="1.0" encoding="UTF-8" standalone="no"?>
<svg
   xmlns:dc="http://purl.org/dc/elements/1.1/"
   xmlns:cc="http://creativecommons.org/ns#"
   xmlns:rdf="http://www.w3.org/1999/02/22-rdf-syntax-ns#"
   xmlns:svg="http://www.w3.org/2000/svg"
   xmlns="http://www.w3.org/2000/svg"
   xmlns:sodipodi="http://sodipodi.sourceforge.net/DTD/sodipodi-0.dtd"
   xmlns:inkscape="http://www.inkscape.org/namespaces/inkscape"
   width="398.03836"
   height="398.03857"
   version="1.1"
   id="svg28"
   sodipodi:docname="mines_paristech.svg"
   inkscape:version="0.92.2 2405546, 2018-03-11">
  <metadata
     id="metadata34">
    <rdf:RDF>
      <cc:Work
         rdf:about="">
        <dc:format>image/svg+xml</dc:format>
        <dc:type
           rdf:resource="http://purl.org/dc/dcmitype/StillImage" />
        <dc:title></dc:title>
      </cc:Work>
    </rdf:RDF>
  </metadata>
  <defs
     id="defs32" />
  <sodipodi:namedview
     pagecolor="#ffffff"
     bordercolor="#666666"
     borderopacity="1"
     objecttolerance="10"
     gridtolerance="10"
     guidetolerance="10"
     inkscape:pageopacity="0"
     inkscape:pageshadow="2"
     inkscape:window-width="1364"
     inkscape:window-height="732"
     id="namedview30"
     showgrid="false"
     fit-margin-top="0"
     fit-margin-left="0"
     fit-margin-right="0"
     fit-margin-bottom="0"
     inkscape:zoom="0.9516129"
     inkscape:cx="121.61257"
     inkscape:cy="201.74819"
     inkscape:window-x="0"
     inkscape:window-y="35"
     inkscape:window-maximized="0"
     inkscape:current-layer="svg28" />
  <desc
     id="desc2">Logo of Mines ParisTech</desc>
  <g
     id="g26"
     transform="translate(46.222738,72.290399)">
    <path
       id="path248"
       d="m 201.77718,191.53061 c 2.15843,3.54483 4.64514,5.76419 8.96553,5.76419 4.49236,0 7.70853,-3.70523 7.70853,-8.0943 0,-10.29875 -17.34235,-5.76047 -17.34235,-18.27858 0,-7.13931 5.6458,-10.63077 12.29248,-10.63077 2.6624,0 5.87131,0.82886 7.9301,2.65863 -0.66829,1.44389 -1.05794,2.99483 -1.50111,4.53804 h -0.55768 c -1.15756,-2.98712 -3.59836,-4.82062 -6.85689,-4.82062 -3.83133,0 -6.99417,2.55161 -6.99417,6.48999 0,10.18405 17.45332,6.08127 17.45332,17.88106 0,7.93039 -6.15408,12.64029 -13.67944,12.64029 -2.71593,0 -7.14691,-1.16133 -9.03412,-3.2126 0.55396,-1.60828 0.83655,-3.27367 1.0544,-4.93535 h 0.56142 z"
       inkscape:connector-curvature="0"
       style="fill:#005c9e;fill-rule:nonzero" />
    <path
       id="path252"
       d="m 180.53059,177.62222 h 8.5835 c 1.66565,0 3.2699,-0.22151 4.9277,-0.26744 -0.0496,0.43927 -0.16043,0.93983 -0.16043,1.4325 0,0.45067 0.11082,0.94356 0.16043,1.55861 -1.65781,-0.065 -3.26205,-0.27884 -4.9277,-0.27884 h -8.5835 v 16.17369 c 3.38068,0.11844 6.71176,-0.10701 10.03128,-0.22174 1.71524,-0.0534 3.37674,-0.21776 5.09201,-0.50032 -0.0535,0.61505 -0.16806,1.11165 -0.16806,1.66934 0,0.54628 0.11453,1.10771 0.16806,1.66541 H 175.6564 v -37.7334 h 19.66119 c -0.0496,0.6113 -0.16415,1.10022 -0.16415,1.66167 0,0.55771 0.11453,1.11168 0.16415,1.66168 -1.65408,-0.33226 -3.32327,-0.49266 -4.97357,-0.60736 l -5.55031,-0.11447 h -4.26312 v 13.9007 -2e-5 z"
       inkscape:connector-curvature="0"
       style="fill:#005c9e;fill-rule:nonzero" />
    <path
       id="path256"
       d="m 123.75829,161.12001 c 0.77163,0.0611 1.60445,0.15271 2.43708,0.15271 0.77927,0 1.55093,-0.0916 2.44492,-0.15271 v 37.87866 c -0.89399,-0.0459 -1.66563,-0.14525 -2.44492,-0.14525 -0.83263,0 -1.66545,0.0993 -2.43708,0.14525 z"
       inkscape:connector-curvature="0"
       style="fill:#005c9e;fill-rule:nonzero" />
    <path
       id="path260"
       d="m 168.51305,198.99867 h -1.65407 c -0.61104,-0.77173 -1.72662,-2.10092 -2.88773,-3.3653 l -23.93211,-26.47618 h -0.54613 v 29.84148 c -0.56926,-0.0459 -1.05049,-0.14525 -1.55092,-0.14525 -0.55397,0 -1.05814,0.0993 -1.55484,0.14525 v -37.87865 h 2.16214 l 26.31195,28.53511 h 0.54987 v -28.53511 c 0.50063,0.0611 1.00105,0.15294 1.55482,0.15294 0.48888,0 0.99696,-0.0919 1.54701,-0.15294 v 37.87865 z"
       inkscape:connector-curvature="0"
       style="fill:#005c9e;fill-rule:nonzero" />
    <path
       id="path264"
       d="m 113.61622,161.12001 c 1.44405,13.67921 2.99496,27.31645 4.49609,37.87866 -1.00068,-0.0459 -1.77232,-0.14525 -2.60905,-0.14525 -0.88615,0 -1.76859,0.0993 -2.60139,0.14525 -0.9397,-11.12761 -2.05119,-23.08778 -2.82281,-28.57336 -6.43274,11.47523 -11.18864,20.32985 -14.51581,27.97346 h -0.61123 l -3.04066,-6.25311 c -3.54874,-7.31908 -7.42986,-14.52344 -11.19237,-21.72035 -1.21089,10.80679 -2.71612,21.77002 -2.71612,28.57336 -0.71811,-0.0459 -1.32542,-0.14525 -1.93665,-0.14525 -0.72202,0 -1.33699,0.0993 -1.99018,0.14525 1.43248,-8.90427 4.76337,-32.05315 5.31361,-37.87866 h 1.43994 c 4.42744,8.79352 9.7485,19.22588 15.67335,29.03151 5.26772,-9.48108 10.36347,-19.1149 15.95221,-29.03151 h 1.16109 -1e-5 z"
       inkscape:connector-curvature="0"
       style="fill:#005c9e;fill-rule:nonzero" />
    <path
       id="path268"
       d="m 154.70396,72.90752 49.24693,-42.85597 58.7164,-29.49758 -48.43315,40.91919 c 1.04285,1.69991 2.0094,3.44178 2.88026,5.22958 L 299.95372,1e-5 222.20622,60.40877 c 1.31796,5.27131 2.01704,10.76458 2.01704,16.4143 0,38.89848 -33.18785,70.4282 -74.13385,70.4282 -13.1749,0 -25.54778,-3.2583 -36.27029,-8.9882 l 86.51025,-46.98928 -62.62421,47.70365 c 4.00331,0.80205 8.14798,1.23756 12.38425,1.23756 34.66228,0 62.75029,-28.38592 62.75029,-63.39191 0,-11.15442 -2.84967,-21.63246 -7.85776,-30.74308 l -50.27803,26.82753 v 0 l 3e-5,-2e-5 z"
       inkscape:connector-curvature="0"
       style="fill:#005c9e;fill-rule:nonzero" />
    <path
       id="path272"
       d="m 94.82256,106.88417 c -4.78259,-8.95021 -7.48714,-19.18368 -7.48714,-30.05924 0,-35.00974 28.09191,-63.39193 62.75403,-63.39193 3.78188,0 7.49477,0.3362 11.09331,0.98553 l 0.48123,0.60736 -62.33398,46.19074 87.06048,-45.83938 C 175.77858,9.83082 163.04685,6.38508 150.08943,6.38508 c -40.94582,0 -74.13739,31.54138 -74.13739,70.43985 0,5.5427 0.67222,10.93665 1.9482,16.1203 L -2e-5,153.03667 82.7095,106.25396 c 1.0199,2.09696 2.1353,4.13307 3.35383,6.10809 L 34.50187,153.87343 95.72007,123.53909 144.967,79.30426 94.82255,106.88418"
       inkscape:connector-curvature="0"
       style="fill:#005c9e;fill-rule:nonzero" />
    <path
       id="path276"
       d="m 70.67631,154.43509 27.26675,-28.10705 75.68851,-41.73685 -62.61285,50.91228 -40.34241,18.93163 h -2e-5 z"
       inkscape:connector-curvature="0"
       style="fill:#005c9e;fill-rule:nonzero" />
    <path
       id="path280"
       d="M 127.71608,67.33801 189.20195,17.80855 228.44054,0 202.01035,26.99167 127.71608,67.338 v 2e-5 z"
       inkscape:connector-curvature="0"
       style="fill:#005c9e;fill-rule:nonzero" />
    <path
       id="path284"
       d="m 40.34969,229.05396 c 1.65406,0 5.97445,0.37817 8.95785,-0.11075 9.35888,-1.56235 14.18342,-4.6031 14.18342,-11.28032 0,-6.68118 -4.2288,-9.06096 -17.10191,-9.06096 H 34.53957 v 37.78702 c 0.92067,-0.0536 1.91389,-0.13754 2.9032,-0.13754 0.9244,0 1.84488,0.0839 2.90693,0.13754 v -17.33501 z m 0,-18.29373 c 1.98626,-0.10703 6.70412,-0.16811 9.56125,0.0573 5.24105,0.38191 7.4987,3.36903 7.4987,7.12045 0,4.90479 -3.85053,8.39995 -10.48956,8.94623 -2.25765,0.16811 -4.91632,0.16811 -6.57038,0 v -16.12402 z"
       inkscape:connector-curvature="0"
       style="fill:#b1b2b4;fill-rule:nonzero" />
    <path
       id="path288"
       d="m 80.2952,230.18428 -1.07343,0.4164 c -2.42178,0.95102 -2.35296,0.82886 -6.78413,1.78383 -5.21046,1.1308 -10.56977,1.78407 -10.85254,7.7355 -0.14903,3.75116 3.78189,6.61215 8.20916,6.84904 4.35471,0.23688 8.71706,-1.67683 10.14581,-5.29814 v 4.58003 h 8.71314 v -1.01608 h -2.99832 v -16.60527 c 0,-4.40073 -0.78339,-8.50696 -10.21463,-8.92339 -2.57475,-0.12239 -2.18491,0.11447 -4.04153,0.34764 -2.14668,0.30168 -4.14077,0.9664 -5.5658,1.50125 v 7.96841 h 1.276 l 1.57386,-3.33104 c 1.356,-2.8575 1.54327,-5.94768 6.18447,-5.53128 4.64512,0.40869 5.42812,2.968 5.42812,5.70311 v 3.81996 h -1.8e-4 l -2e-5,2e-5 z m 0,3.74744 c 0,1.53925 0.06882,2.49821 -0.1412,4.04143 -0.50043,3.45694 -3.21637,7.26173 -7.71637,7.5063 -3.78564,0.24063 -5.57324,-2.73906 -5.28302,-5.47786 0.6379,-6.13095 2.9987,-5.35548 10.28345,-7.61708 l 2.85713,-0.89389 v 2.4411 z"
       inkscape:connector-curvature="0"
       style="fill:#b1b2b4;fill-rule:nonzero" />
    <path
       id="path292"
       d="M 106.51499,246.25142 H 93.58443 v -1.01608 h 3.21636 v -23.80589 h -3.36148 v -1.07344 h 8.358 v 5.42056 c 0.35532,-1.95964 3.35402,-5.59633 8.07151,-5.59633 1.35619,0 2.57082,0.30565 3.93074,0.89017 v 9.40463 h -1.35992 l -1.71879,-4.34338 c -1.21481,-3.04053 -2.14313,-4.99643 -3.99957,-4.10626 -4.84748,2.32242 -4.42352,7.91106 -4.42352,13.15205 v 10.05791 h 4.21723 v 1.01608 z"
       inkscape:connector-curvature="0"
       style="fill:#b1b2b4;fill-rule:nonzero" />
    <path
       id="path296"
       d="m 125.87885,214.35098 c 0,1.66165 -1.63506,2.85725 -3.49541,2.85725 -1.78761,0 -3.43031,-1.31007 -3.43031,-2.80386 0,-1.47818 1.57386,-2.91463 3.35775,-2.91463 1.93291,0 3.56796,1.3026 3.56796,2.86124 m -8.99609,31.90044 v -1.01608 h 3.28519 v -23.80589 h -3.07125 v -1.07344 h 8.64077 v 24.87933 h 2.93361 v 1.01608 h -11.78831 z"
       inkscape:connector-curvature="0"
       style="fill:#b1b2b4;fill-rule:nonzero" />
    <path
       id="path300"
       d="m 151.0062,226.4296 c -1.34836,-4.04912 -2.71593,-5.65344 -6.41353,-5.65344 -3.22028,0 -7.29613,1.07344 -7.58263,4.34712 -0.21021,2.92209 3.43031,4.10625 6.71532,5.00014 5.57344,1.60455 12.07106,3.26994 11.84967,8.45361 -0.14137,4.93532 -5.06534,8.56807 -11.77693,8.44588 -3.85445,-0.0534 -8.21289,-1.3026 -9.71028,-2.20024 v -8.50699 h 1.2872 l 1.49739,4.28206 c 1.64641,4.8246 3.49521,4.88197 6.429,5.12257 4.06447,0.35158 8.70958,-1.3103 9.06099,-4.64508 0.50809,-4.10649 -6.06604,-5.17969 -10.21071,-6.42891 -2.92613,-0.89763 -8.63705,-2.4982 -8.63705,-7.37642 0,-5.71455 7.42596,-7.62451 11.35298,-7.62451 3.28891,0 7.06689,1.06969 8.42682,1.78383 v 7.80029 h -1.35991 l -0.92831,-2.79991 z"
       inkscape:connector-curvature="0"
       style="fill:#b1b2b4;fill-rule:nonzero" />
    <path
       id="path304"
       d="m 169.8616,246.49971 c -1.05815,-0.0574 -1.97881,-0.0839 -2.89557,-0.0839 -0.99321,0 -1.99017,0.0266 -2.9071,0.0839 v -35.27715 c -6.70001,0 -10.74921,0.32849 -14.51953,0.66075 0.0649,-0.54628 0.23296,-1.10397 0.23296,-1.6463 0,-0.54626 -0.16805,-1.03517 -0.23296,-1.6351 h 34.19244 c -0.0688,0.59991 -0.16058,1.08882 -0.16058,1.6351 0,0.54233 0.0918,1.10002 0.16058,1.6463 -3.31969,-0.33226 -7.96463,-0.66075 -13.87024,-0.66075 z"
       inkscape:connector-curvature="0"
       style="fill:#000000;fill-rule:nonzero" />
    <path
       id="path308"
       d="m 169.8616,246.49971 0.0114,-0.24457 c -1.06186,-0.0571 -1.98253,-0.0839 -2.90694,-0.0839 -0.99713,0 -2.00172,0.0268 -2.92221,0.0839 l 0.0151,0.24457 h 0.24472 v -35.52173 h -0.24472 c -6.70766,0 -10.76842,0.32851 -14.5423,0.661 l 0.0228,0.24434 0.2408,0.0305 c 0.061,-0.51945 0.23669,-1.08485 0.23669,-1.67683 -0.004,-0.59987 -0.1757,-1.09253 -0.23669,-1.66165 l -0.2408,0.0266 v 0.24458 h 34.19244 v -0.24458 l -0.24452,-0.0266 c -0.0651,0.58824 -0.1604,1.08485 -0.1604,1.66165 0,0.56915 0.0953,1.13452 0.1604,1.67683 l 0.24452,-0.0305 0.0228,-0.24063 c -3.32716,-0.3362 -7.97975,-0.66469 -13.89301,-0.66469 h -0.24454 v 35.52173 h 0.24454 l 0.0114,-0.24457 -0.0114,0.24457 h 0.24434 v -35.27716 h -0.24434 v 0.24434 c 5.89404,0 10.53152,0.32852 13.84338,0.66098 l 0.30571,0.0305 -0.0382,-0.30565 c -0.0688,-0.55397 -0.15669,-1.10002 -0.15669,-1.61575 0,-0.51573 0.0878,-0.99718 0.15669,-1.60826 l 0.0306,-0.27115 h -34.73859 l 0.0304,0.27115 c 0.0727,0.63417 0.23688,1.1154 0.23314,1.60826 0.004,0.49266 -0.1604,1.04289 -0.23314,1.61575 l -0.0382,0.3017 0.30196,-0.0266 c 3.77014,-0.33246 7.80795,-0.66098 14.50032,-0.66098 v -0.24434 h -0.24434 v 35.53688 l 0.25963,-0.0151 c 0.9093,-0.0574 1.90254,-0.0842 2.89183,-0.0842 0.91286,0 1.82587,0.0268 2.88419,0.0842 l 0.25572,0.0114 v -0.25601 h -0.24434 z"
       inkscape:connector-curvature="0"
       style="fill:#000000;fill-rule:nonzero" />
    <path
       id="path312"
       d="m 201.89561,236.61365 h -1.356 l -0.0686,0.71042 c -0.35532,3.5679 -3.29675,8.68674 -8.86235,8.39622 -6.28015,-0.29773 -7.64381,-5.77562 -7.64381,-11.9716 v -3.02934 H 201.827 c 0.63791,-5.4816 -3.9384,-11.24954 -11.07414,-11.1924 -7.35712,0.11844 -12.35364,6.24962 -12.78543,13.50739 -0.42769,7.9227 5.49324,14.05363 13.21725,13.9352 6.06212,-0.12216 10.20679,-4.58397 10.64232,-9.53075 l 0.0686,-0.82512 v -2e-5 z m -17.35782,-10.24886 c 0.50435,-2.84584 2.78476,-5.58864 5.9211,-5.70334 3.78918,-0.17557 5.22929,3.15546 5.2942,6.13115 l 0.0688,2.79617 h -11.85713 l 0.57298,-3.224 z"
       inkscape:connector-curvature="0"
       style="fill:#000000;fill-rule:nonzero" />
    <path
       id="path316"
       d="m 201.89561,236.61365 v -0.24458 h -1.356 -0.22157 l -0.0918,0.93214 c -0.33612,3.38441 -3.07108,8.1976 -8.16701,8.18617 l -0.43535,-0.0114 c -3.07124,-0.15669 -4.87434,-1.52808 -5.97447,-3.64415 -1.09636,-2.1163 -1.44011,-5.00412 -1.44011,-8.08311 v -2.78477 h 17.83533 l 0.0267,-0.21773 c 0.0382,-0.34764 0.0612,-0.69899 0.0612,-1.05034 -0.0116,-5.2641 -4.51118,-10.40181 -11.27257,-10.41325 h -0.11079 c -7.50618,0.12219 -12.59447,6.38298 -13.02588,13.73657 l -0.0231,0.82117 c 0,3.7894 1.44403,7.13582 3.82385,9.53075 2.37982,2.3989 5.69933,3.84303 9.43907,3.84303 h 0.22531 c 6.1884,-0.12614 10.43622,-4.68727 10.88312,-9.75621 l 0.0649,-0.82512 0.0229,-0.2637 h -0.26355 v 0.24458 l -0.24454,-0.0191 -0.0688,0.82164 c -0.42789,4.8246 -4.4655,9.18686 -10.40155,9.30902 h -0.21785 c -7.21967,-0.004 -12.77016,-5.56181 -12.77388,-12.88486 l 0.0229,-0.79062 c 0.43161,-7.16241 5.33636,-13.15974 12.54485,-13.2782 h 0.10298 c 6.50154,0 10.77997,4.93932 10.77997,9.92433 l -0.0573,0.99298 0.24434,0.0308 v -0.24434 h -18.10652 v 3.27367 c 0.004,3.11327 0.34004,6.06613 1.49367,8.30833 1.1497,2.24619 3.17067,3.76259 6.38312,3.90784 l 0.4622,0.0114 c 5.45107,-0.0152 8.30074,-5.07663 8.65215,-8.62567 l 0.0498,-0.49266 h 1.1344 v -0.24457 l -0.24454,-0.0191 0.24454,0.0191 h -2e-4 3e-5 z m -17.35782,-10.24886 0.2408,0.042 c 0.48495,-2.75793 2.70436,-5.39769 5.69168,-5.50073 l 0.27492,-0.008 c 3.38461,-0.004 4.68336,3.04845 4.76358,5.89803 l 0.061,2.54787 h -11.31081 l 0.51964,-2.93747 -0.2408,-0.0419 -0.2406,-0.042 -0.573,3.22401 -0.0496,0.28632 h 12.39563 l -0.0726,-3.04822 c -0.0496,-2.94516 -1.48973,-6.36781 -5.25244,-6.37552 l -0.29787,0.008 c -3.28127,0.12985 -5.63069,2.97195 -6.15015,5.9057 l 0.2406,0.042 z"
       inkscape:connector-curvature="0"
       style="fill:#000000;fill-rule:nonzero" />
    <path
       id="path320"
       d="m 227.50456,230.12364 -0.71045,-2.14684 c -1.56995,-5.17224 -3.43048,-7.49092 -6.71548,-7.55969 -6.92946,-0.1145 -8.07172,7.38411 -7.92659,13.03757 0.14529,5.241 0.71829,11.96788 8.00287,12.02524 4.28607,0.0534 6.93317,-3.33501 7.63615,-6.97145 l 0.37436,-1.89482 h 1.27208 l -0.20631,1.31032 c -1.06577,6.83763 -5.57324,8.98448 -10.57367,8.9234 -8.0715,-0.0611 -12.64407,-7.08592 -12.64407,-13.748 0,-6.9675 5.35559,-13.45377 13.70985,-13.75569 2.14293,-0.0496 5.85208,0.12613 9.1412,1.72673 v 9.05325 h -1.36012 1.8e-4 z"
       inkscape:connector-curvature="0"
       style="fill:#000000;fill-rule:nonzero" />
    <path
       id="path324"
       d="m 227.50456,230.12364 0.23297,-0.0765 -0.71045,-2.14662 -0.23297,0.0762 0.23297,-0.0688 c -1.55858,-5.18739 -3.51051,-7.66649 -6.94081,-7.73526 l -0.16061,-0.004 c -3.30794,-0.007 -5.36694,1.74957 -6.52821,4.1599 -1.16501,2.41054 -1.50113,5.47415 -1.50113,8.23209 l 0.0114,0.89764 c 0.0765,2.62808 0.24829,5.64598 1.34465,8.05257 1.09245,2.41031 3.17831,4.19415 6.89883,4.21327 h 0.0994 c 4.37764,0 7.07826,-3.48747 7.78108,-7.17009 l 0.33238,-1.69595 h 0.78693 l -0.1604,1.02751 c -1.05441,6.62778 -5.27165,8.6942 -10.11913,8.7173 h -0.21004 c -7.91109,-0.0574 -12.3958,-6.9409 -12.40346,-13.50366 0.004,-6.84532 5.25244,-13.20941 13.47298,-13.51111 l 0.6226,-0.008 c 2.17351,0 5.47029,0.27884 8.40387,1.71132 l 0.10707,-0.22148 h -0.24454 v 8.80867 h -1.1154 v 0.24458 l 0.23297,-0.0765 -0.23297,0.0765 v 0.24457 h 1.35994 0.24452 v -9.45055 l -0.13765,-0.065 c -3.04066,-1.48215 -6.40215,-1.75726 -8.61783,-1.761 l -0.63789,0.008 c -8.4841,0.30545 -13.95047,6.9064 -13.94655,14.00003 -0.008,6.76138 4.65276,13.92752 12.8884,13.99257 h 0.21396 c 4.98123,0.0228 9.54988,-2.28069 10.60037,-9.13347 l 0.20627,-1.30658 0.042,-0.28259 h -1.55464 -0.20258 l -0.41258,2.09326 c -0.68752,3.5334 -3.21619,6.77652 -7.29967,6.7728 h -0.0918 c -3.56778,-0.0382 -5.40538,-1.65024 -6.45961,-3.92696 -1.04655,-2.28047 -1.2301,-5.24846 -1.30247,-7.86139 l -0.0116,-0.88623 c 0,-2.71597 0.34004,-5.72223 1.45544,-8.01807 1.12302,-2.29582 2.95653,-3.8773 6.08504,-3.88499 l 0.14903,0.004 c 3.13245,0.0725 4.90474,2.22307 6.48627,7.38762 l 0.004,0.008 0.70673,2.14311 0.0535,0.16811 h 0.17963 v -0.24458 h -2e-4 l 2e-5,-2e-5 z"
       inkscape:connector-curvature="0"
       style="fill:#000000;fill-rule:nonzero" />
    <path
       id="path328"
       d="m 249.7097,246.25142 v -1.01608 h 3.79327 v -17.07529 c 0,-3.39212 0.0649,-6.78796 -4.07997,-6.66579 -5.99345,0.1758 -6.77649,7.20064 -6.77649,12.43791 v 11.30316 h 4.06447 v 1.01607 h -12.49503 v -1.01607 h 3.01007 v -33.02725 h -3.21637 v -1.06969 h 8.63684 v 13.50737 c 0.85185,-2.2653 4.49237,-5.00041 8.35037,-4.69847 5.79112,0.40869 7.78889,2.43317 7.78889,7.91875 v 17.36929 h 3.1438 v 1.01607 h -12.21988 l 2e-5,2e-5 z"
       inkscape:connector-curvature="0"
       style="fill:#000000;fill-rule:nonzero" />
    <path
       id="path332"
       d="m 249.7097,246.25142 h 0.24434 v -0.77173 h 3.54893 0.24434 v -17.31964 -0.30168 c 0,-1.61575 -0.008,-3.22777 -0.52318,-4.48842 -0.50827,-1.26833 -1.61584,-2.13914 -3.58717,-2.12399 l -0.22142,0.004 c -3.10576,0.0802 -4.90474,1.99017 -5.856,4.47696 -0.96655,2.4868 -1.15736,5.57324 -1.15736,8.20529 v 11.54753 h 4.06448 v 0.52716 H 234.4603 v -0.52716 h 2.76575 0.24452 v -33.51617 h -3.21637 v -0.58055 h 8.14798 v 13.2628 l 0.46985,0.0879 c 0.7487,-2.02843 4.02252,-4.58003 7.54048,-4.56488 l 0.56554,0.0191 c 2.87634,0.20238 4.75572,0.80974 5.90935,1.98645 1.15756,1.17274 1.65408,2.97174 1.65408,5.6917 v 17.61363 h 3.1438 v 0.52716 h -11.97556 v 0.24457 h 0.24451 -0.24451 v 0.24458 h 12.46463 v -1.26067 -0.24457 h -3.14383 v -17.12471 c 0,-2.76567 -0.50061,-4.72156 -1.7915,-6.03558 -1.29521,-1.31032 -3.30815,-1.9214 -6.22273,-2.12775 l -0.60376,-0.0229 c -3.75111,0.0151 -7.12416,2.60524 -7.99504,4.87799 l 0.22925,0.0879 h 0.24434 v -13.75172 h -9.12573 v 1.31404 0.24411 h 3.21638 v 32.53857 h -2.76573 -0.24434 v 1.26065 0.24458 h 12.9839 v -1.26068 -0.24457 h -4.06448 V 233.9319 c -0.004,-2.60896 0.19864,-5.64949 1.12323,-8.0295 0.93578,-2.3835 2.52493,-4.0722 5.41656,-4.16385 l 0.2063,-0.004 c 1.84132,0.0154 2.66258,0.71437 3.13615,1.82231 0.46613,1.11913 0.48888,2.68918 0.48514,4.30118 v 0.3017 16.83095 h -3.54874 -0.24455 v 1.26065 0.24458 h 0.24455 v -0.24458 0 z"
       inkscape:connector-curvature="0"
       style="fill:#000000;fill-rule:nonzero" />
  </g>
</svg>
