<?xml version="1.0" encoding="UTF-8" standalone="no"?>
<!-- Created with Inkscape (http://www.inkscape.org/) -->

<svg
   xmlns:dc="http://purl.org/dc/elements/1.1/"
   xmlns:cc="http://creativecommons.org/ns#"
   xmlns:rdf="http://www.w3.org/1999/02/22-rdf-syntax-ns#"
   xmlns:svg="http://www.w3.org/2000/svg"
   xmlns="http://www.w3.org/2000/svg"
   xmlns:sodipodi="http://sodipodi.sourceforge.net/DTD/sodipodi-0.dtd"
   xmlns:inkscape="http://www.inkscape.org/namespaces/inkscape"
   version="1.1"
   id="svg2"
   width="453.33334"
   height="468"
   viewBox="0 0 453.33335 468"
   sodipodi:docname="model.svg"
   inkscape:version="0.92.4 5da689c313, 2019-01-14">
  <metadata
     id="metadata8">
    <rdf:RDF>
      <cc:Work
         rdf:about="">
        <dc:format>image/svg+xml</dc:format>
        <dc:type
           rdf:resource="http://purl.org/dc/dcmitype/StillImage" />
        <dc:title />
      </cc:Work>
    </rdf:RDF>
  </metadata>
  <defs
     id="defs6" />
  <sodipodi:namedview
     pagecolor="#ffffff"
     bordercolor="#666666"
     borderopacity="1"
     objecttolerance="10"
     gridtolerance="10"
     guidetolerance="10"
     inkscape:pageopacity="0"
     inkscape:pageshadow="2"
     inkscape:window-width="1364"
     inkscape:window-height="704"
     id="namedview4"
     showgrid="false"
     fit-margin-top="0"
     fit-margin-left="0"
     fit-margin-right="0"
     fit-margin-bottom="0"
     inkscape:zoom="1.3828124"
     inkscape:cx="143.42246"
     inkscape:cy="266.48282"
     inkscape:window-x="0"
     inkscape:window-y="27"
     inkscape:window-maximized="0"
     inkscape:current-layer="svg2" />
  <g
     id="g12"
     transform="translate(-106.66667,-105.33334)">
    <path
       style="fill:#e6e91c;stroke-width:1.33333337;fill-opacity:1"
       d="m 157.06038,321.58516 -39.60631,-22.25182 -0.0604,-50.44444 c -0.0393,-32.82104 0.40208,-50.28917 1.26332,-50 0.72804,0.24444 18.70385,11.24444 39.94628,24.44444 l 38.62259,24 0.0537,48.33334 c 0.0296,26.58333 -0.0963,48.29665 -0.27961,48.25181 -0.18333,-0.0448 -18.15617,-10.09483 -39.93963,-22.33333 z m 72.27296,-25.90208 v -48.62363 l 39.12483,-24.19639 c 21.51865,-13.30801 39.51865,-24.19639 40,-24.19639 0.48135,0 0.87517,22.42255 0.87517,49.82789 v 49.82786 l -37,21.07339 c -20.35,11.59036 -38.35,21.93683 -40,22.99214 l -3,1.91876 z M 170.86369,190.73225 c -40.57079,-24.41722 -41.71053,-25.21683 -38.66667,-27.12734 6.45857,-4.05376 75.74569,-43.63597 78.89429,-45.07057 2.97822,-1.35697 7.10416,0.70043 44.75857,22.31878 22.81286,13.09746 41.32884,24.26455 41.14662,24.81577 -0.37708,1.14069 -82.0556,50.36026 -83.43269,50.27664 -0.49343,-0.03 -19.70848,-11.37594 -42.70012,-25.21328 z"
       id="path20"
       inkscape:connector-curvature="0" />
    <path
       style="fill:#247da6;stroke-width:1.33333337;fill-opacity:1"
       d="m 397.02495,322.95509 -39.64174,-22.28841 -0.0249,-50.33334 c -0.0137,-27.68333 0.34652,-50.33333 0.80053,-50.33333 1.64456,0 78.1359,48.54988 78.66543,49.9298 0.29917,0.77963 0.38611,22.54415 0.19319,48.3656 l -0.35075,46.9481 z m 72.3084,-25.98736 v -48.523 l 39.15559,-24.22236 c 21.53557,-13.3223 39.53557,-24.22236 40,-24.22236 0.46443,0 0.84441,22.45396 0.84441,49.89771 v 49.89769 l -39,22.26763 c -21.45,12.24718 -39.45,22.52863 -40,22.84765 -0.55,0.31902 -1,-21.25532 -1,-47.94296 z m -58.6654,-104.40922 c -22.36596,-13.50298 -40.7923,-25.00258 -40.9474,-25.55469 -0.37584,-1.33785 80.92701,-47.67048 83.65049,-47.67048 2.72038,0 83.95146,46.33157 83.57574,47.66888 -0.41483,1.47652 -82.21335,50.35063 -84.04963,50.21913 -0.86009,-0.0616 -19.86323,-11.15986 -42.2292,-24.66284 z"
       id="path18"
       inkscape:connector-curvature="0" />
    <path
       style="fill:#ea1734;stroke-width:1.33333337;fill-opacity:1"
       d="M 279.66668,536.30578 240.00001,514.00866 V 463.671 c 0,-27.68571 0.33314,-50.33765 0.74032,-50.33765 1.02848,0 75.53453,46.61215 77.61015,48.55412 1.30828,1.22404 1.60564,12.18435 1.33333,49.14541 l -0.35047,47.57003 z m 72.33333,-26.0186 v -48.44799 l 39.21515,-24.25292 c 21.56835,-13.33911 39.57556,-24.25292 40.01604,-24.25292 0.44048,0 0.64367,22.59564 0.45152,50.21253 l -0.34937,50.21252 -36,20.5353 c -19.8,11.2944 -37.65,21.41417 -39.66667,22.48837 l -3.66667,1.9531 z m -58.6654,-104.39533 c -22.36596,-13.50298 -40.7922,-25.00258 -40.94719,-25.55469 -0.3644,-1.29807 80.9714,-47.67048 83.61259,-47.67048 2.63905,0 83.97712,46.37185 83.61312,47.66888 -0.41432,1.47635 -82.21287,50.35064 -84.04932,50.21913 -0.86009,-0.0616 -19.86323,-11.15986 -42.2292,-24.66284 z"
       id="path16"
       inkscape:connector-curvature="0" />
    <path
       style="fill:#202627;stroke-width:1.33333337"
       d="m 276.66668,546.80535 -46.66667,-26.37539 -0.34719,-59.72833 c -0.35099,-60.38202 -0.14384,-63.36828 4.39553,-63.36828 1.75772,0 90.04542,54.65709 94.28499,58.36988 2.15299,1.88548 2.33334,6.38663 2.33334,58.23677 0,57.89545 -0.14302,59.50622 -5.26667,59.31705 -1.13667,-0.042 -23.06667,-11.94523 -48.73333,-26.4517 z m 41.6838,-84.91788 c -2.07562,-1.94197 -76.58167,-48.55412 -77.61015,-48.55412 -0.40718,0 -0.74032,22.65194 -0.74032,50.33765 v 50.33766 l 39.66667,22.29712 39.66666,22.29713 0.35047,-47.57003 c 0.27231,-36.96106 -0.0251,-47.92137 -1.33333,-49.14541 z m 24.46501,109.62519 c -1.08616,-1.30875 -1.41325,-17.85745 -1.16326,-58.85236 l 0.34778,-57.03164 47.05666,-29.14766 c 25.88116,-16.03121 47.81116,-29.14765 48.73333,-29.14765 4.70223,0 4.87668,2.22009 4.87668,62.06001 0,54.40608 -0.17656,59.01142 -2.33333,60.86079 -3.77552,3.2374 -92.23742,53.0792 -94.2078,53.0792 -0.98946,0 -2.47899,-0.81932 -3.31006,-1.82069 z m 52.51786,-37.21896 36,-20.5353 0.34937,-50.21252 c 0.19215,-27.61689 -0.011,-50.21253 -0.45152,-50.21253 -0.44048,0 -18.44769,10.91381 -40.01604,24.25292 l -39.21515,24.25292 v 48.44799 48.44799 l 3.66667,-1.9531 c 2.01667,-1.0742 19.86667,-11.19397 39.66667,-22.48837 z M 285.41446,413.32885 c -26.72204,-16.07558 -49.073,-30.09938 -49.66879,-31.164 -0.59578,-1.06461 -0.77441,-2.74046 -0.39694,-3.72413 0.86504,-2.25425 97.64845,-57.77404 100.71309,-57.77404 2.954,0 99.70289,55.49005 100.54387,57.66667 0.35418,0.91666 0.32218,2.50524 -0.0711,3.53014 -0.83416,2.17376 -98.12277,60.82975 -100.75922,60.74845 -0.97644,-0.0301 -23.63884,-13.20751 -50.36089,-29.28309 z m 92.81529,-7.32662 c 22.60616,-13.56544 41.22869,-25.11544 41.38338,-25.66667 0.364,-1.29703 -80.97407,-47.66888 -83.61312,-47.66888 -2.64119,0 -83.97699,46.37241 -83.61259,47.67048 0.36788,1.31045 81.13118,50.07108 83.17639,50.21753 0.86009,0.0616 20.05976,-10.98701 42.66594,-24.55246 z m 17.77026,-71.43581 c -24.56666,-13.88296 -45.71666,-26.13393 -47,-27.22436 -2.1574,-1.83313 -2.33333,-6.44504 -2.33333,-61.16574 0,-50.88689 0.27936,-59.41498 1.99289,-60.83709 1.0961,-0.90968 3.0461,-1.35533 4.33334,-0.99036 2.21076,0.62683 79.30921,48.72788 90.00711,56.15466 l 5,3.47113 v 56.41268 c 0,58.12467 -0.14423,59.7545 -5.26667,59.51675 -1.13667,-0.0528 -22.16667,-11.4547 -46.73334,-25.33767 z m 40.82423,-84.63661 c -0.52953,-1.37992 -77.02087,-49.9298 -78.66543,-49.9298 -0.45401,0 -0.81424,22.65 -0.80053,50.33333 l 0.0249,50.33334 39.64174,22.28841 39.64173,22.28842 0.35075,-46.9481 c 0.19292,-25.82145 0.106,-47.58597 -0.19319,-48.3656 z m 23.32459,108.24951 c -1.08619,-1.30877 -1.41327,-17.86726 -1.16327,-58.89075 l 0.34779,-57.07004 47.02767,-29.10927 c 25.86521,-16.01009 47.79521,-29.10925 48.73333,-29.10925 4.73631,0 4.90567,2.14901 4.90567,62.24775 v 59.04774 l -5,3.22486 c -11.64688,7.51189 -89.77691,51.47965 -91.47854,51.47965 -1.02389,0 -2.54158,-0.81932 -3.37265,-1.82069 z m 50.18452,-36.11628 39,-22.26763 v -49.89769 c 0,-27.44375 -0.37998,-49.89771 -0.84441,-49.89771 -0.46443,0 -18.46443,10.90006 -40,24.22236 l -39.15559,24.22236 v 48.523 c 0,26.68764 0.45,48.26198 1,47.94296 0.55,-0.31902 18.55,-10.60047 40,-22.84765 z m -354.97118,10.66849 c -24.91749,-14.11795 -46.06749,-26.38173 -47.00001,-27.25283 -1.32237,-1.23528 -1.69549,-14.5708 -1.69549,-60.59793 0,-60.37484 0.14922,-62.2141 5.0476,-62.2141 1.78766,0 83.19011,50.37772 91.9524,56.9068 l 4.33334,3.22891 v 56.33215 c 0,58.04323 -0.14943,59.72858 -5.26667,59.39908 -1.13667,-0.0732 -22.45369,-11.68413 -47.37117,-25.80208 z m 41.94512,-37.06485 -0.0261,-48.33334 -39.97393,-24.92124 -39.97395,-24.92124 0.0311,50.92124 0.0311,50.92124 39.63555,22.28288 c 21.79956,12.25558 39.78556,22.30558 39.9689,22.33334 0.18333,0.0277 0.32161,-21.69955 0.30728,-48.28288 z m 22.84153,61.17931 c -1.08623,-1.30882 -1.41327,-17.88053 -1.16327,-58.94273 l 0.34779,-57.12203 46.66667,-28.99724 c 25.66667,-15.94848 47.59667,-29.02425 48.73333,-29.05728 5.14102,-0.14936 5.26667,1.33087 5.26667,62.04338 0,45.51176 -0.37892,59.2112 -1.66667,60.25727 -3.56229,2.89373 -93.45196,53.63932 -95.01556,53.63932 -0.91185,0 -2.33789,-0.81932 -3.16896,-1.82069 z m 50.18452,-36.11629 39,-22.26762 v -50.57351 -50.57351 l -10.33333,6.43659 c -5.68333,3.5401 -23.68333,14.70346 -40,24.80744 l -29.66667,18.37087 v 48.6137 c 0,26.73755 0.45,48.35271 1,48.0337 0.55,-0.31903 18.55,-10.60047 40,-22.84766 z M 402.7478,199.99551 c -26.72204,-16.07558 -49.073,-30.09938 -49.66879,-31.164 -0.59578,-1.06461 -0.76706,-2.75964 -0.38061,-3.76672 0.63711,-1.66025 91.60043,-54.81127 98.51271,-57.56221 2.42821,-0.96638 11.34439,3.67053 52.49655,27.30118 27.26434,15.65591 49.86489,29.22977 50.22344,30.1641 0.35855,0.93435 0.33011,2.53739 -0.0632,3.56229 -0.83416,2.17376 -98.12276,60.82975 -100.75922,60.74844 -0.97644,-0.0301 -23.63884,-13.2075 -50.36089,-29.28308 z m 92.81528,-7.32662 c 22.60616,-13.56544 41.22883,-25.11544 41.3837,-25.66667 0.37572,-1.33731 -80.85536,-47.66888 -83.57574,-47.66888 -2.72348,0 -84.02633,46.33263 -83.65049,47.67048 0.36818,1.31055 81.13153,50.07109 83.1766,50.21753 0.86009,0.0616 20.05976,-10.98701 42.66593,-24.55246 z m -331.98489,5.8751 c -26.99865,-16.19952 -49.44414,-30.38054 -49.87886,-31.5134 -0.43471,-1.13284 -0.20493,-2.98784 0.51062,-4.12222 1.47109,-2.33218 97.07662,-57.57503 99.64167,-57.57503 0.91181,0 23.81823,12.75716 50.90312,28.34925 43.50504,25.04476 49.24527,28.72731 49.24527,31.59254 0,2.84213 -6.10191,6.9153 -49.33333,32.93124 -27.13334,16.32838 -49.93334,29.71121 -50.66667,29.73962 -0.73334,0.0284 -23.42315,-13.20248 -50.42182,-29.402 z m 91.98489,-7.20844 c 22.60616,-13.56544 41.2725,-25.17561 41.48076,-25.80037 0.51344,-1.54032 -81.93103,-48.50486 -84.19898,-47.96399 -2.47261,0.58969 -83.41365,46.93239 -83.42021,47.76215 -0.006,0.75024 82.74025,50.52281 84.13916,50.61047 0.49342,0.0309 19.39309,-11.0428 41.99927,-24.60826 z"
       id="path14"
       inkscape:connector-curvature="0" />
  </g>
</svg>
