<?xml version="1.0" encoding="UTF-8" standalone="no"?>
<!-- Created with Inkscape (http://www.inkscape.org/) -->

<svg
   xmlns:dc="http://purl.org/dc/elements/1.1/"
   xmlns:cc="http://creativecommons.org/ns#"
   xmlns:rdf="http://www.w3.org/1999/02/22-rdf-syntax-ns#"
   xmlns:svg="http://www.w3.org/2000/svg"
   xmlns="http://www.w3.org/2000/svg"
   xmlns:sodipodi="http://sodipodi.sourceforge.net/DTD/sodipodi-0.dtd"
   xmlns:inkscape="http://www.inkscape.org/namespaces/inkscape"
   version="1.1"
   id="svg2"
   width="433.98108"
   height="367.80414"
   viewBox="0 0 433.98108 367.80414"
   sodipodi:docname="system.svg"
   inkscape:version="0.92.3 (2405546, 2018-03-11)">
  <sodipodi:namedview
     pagecolor="#ffffff"
     bordercolor="#666666"
     borderopacity="1"
     objecttolerance="10"
     gridtolerance="10"
     guidetolerance="10"
     inkscape:pageopacity="0"
     inkscape:pageshadow="2"
     inkscape:window-width="1364"
     inkscape:window-height="734"
     id="namedview4"
     showgrid="false"
     fit-margin-top="0"
     fit-margin-left="0"
     fit-margin-right="0"
     fit-margin-bottom="0"
     inkscape:zoom="0.921875"
     inkscape:cx="90.174337"
     inkscape:cy="175.04952"
     inkscape:window-x="0"
     inkscape:window-y="33"
     inkscape:window-maximized="0"
     inkscape:current-layer="svg2"
     inkscape:snap-global="false" />
  <metadata
     id="metadata8">
    <rdf:RDF>
      <cc:Work
         rdf:about="">
        <dc:format>image/svg+xml</dc:format>
        <dc:type
           rdf:resource="http://purl.org/dc/dcmitype/StillImage" />
        <dc:title />
      </cc:Work>
    </rdf:RDF>
  </metadata>
  <defs
     id="defs6" />
  <path
     style="fill:#247da6;fill-opacity:1"
     d="M 10.222506,322.42544 C 8.008591,320.87475 8,320.75106 8,290.42544 v -30.4433 h 208 208 v 30.4433 c 0,30.32562 -0.009,30.44931 -2.22251,32 -1.99387,1.39656 -23.1628,1.5567 -205.77749,1.5567 -182.614689,0 -203.783623,-0.16014 -205.777494,-1.5567 z M 222.78212,310.42909 c 7.4419,-3.10866 13.17396,-11.13502 13.17396,-18.44695 0,-9.8383 -10.13939,-20 -19.95608,-20 -9.70004,0 -19.91334,10.11314 -19.97804,19.78212 -0.0482,7.19796 5.24808,14.97465 12.47804,18.32202 4.91297,2.27463 9.39968,2.38232 14.28212,0.34281 z"
     id="path823"
     inkscape:connector-curvature="0"
     sodipodi:nodetypes="cscccscscsssccs" />
  <path
     style="fill:#1f2527"
     d="M 141.20605,366.78819 C 140.54272,366.12486 140,364.86214 140,363.98214 c 0,-3.32948 2.21272,-4 13.2,-4 H 164 v -14 -14 H 87.90113 c -84.805234,0 -80.558321,0.34165 -85.462195,-6.87505 L 0,321.51787 V 176.63616 31.754446 l 2.117886,-3.76827 c 1.164837,-2.072548 3.813606,-4.721317 5.886154,-5.886154 3.75868,-2.112497 3.993122,-2.117918 92.13211,-2.130505 l 243.47447,0.01262 c 73.71525,0 75.86933,0.05393 79.88956,2.00009 2.63318,1.274699 4.92376,3.409482 6.31573,5.886154 L 432,31.754446 V 141.88186 c 0,85.9202 0.27269,110.56406 1.24055,112.11385 0.98739,1.58107 0.98739,2.39179 0,3.97286 C 432.32304,259.43773 432,267.97056 432,290.73644 v 30.78143 l -2.43894,3.58922 c -4.90387,7.2167 -0.65696,6.87505 -85.46219,6.87505 H 268 v 13.97395 13.97396 l 15.14248,0.27604 c 13.14875,0.2397 15.28762,0.50646 16.24488,2.02605 0.80337,1.27529 0.80299,2.22471 -10e-4,3.5 -1.03355,1.63863 -6.0638,1.7663 -79.03884,2.00605 -59.78638,0.19642 -78.2159,-0.0248 -79.14109,-0.95 z M 260,345.98214 v -14 h -44 -44 v 14 14 h 44 44 z m 161.77749,-23.5567 c 2.21392,-1.55069 2.22251,-1.67438 2.22251,-32 v -30.4433 H 216 8 v 30.4433 c 0,30.32562 0.0086,30.44931 2.222506,32 1.993871,1.39656 23.162805,1.5567 205.777494,1.5567 182.61469,0 203.78362,-0.16014 205.77749,-1.5567 z M 208.5,310.08628 c -7.22996,-3.34737 -12.5262,-11.12406 -12.47804,-18.32202 0.0647,-9.66898 10.278,-19.78212 19.97804,-19.78212 9.81669,0 19.95608,10.1617 19.95608,20 0,7.31193 -5.73206,15.33829 -13.17396,18.44695 -4.88244,2.03951 -9.36915,1.93182 -14.28212,-0.34281 z m 13.53273,-7.62107 c 1.61338,-0.83431 3.61603,-2.83696 4.45034,-4.45034 3.09881,-5.99244 1.02633,-13.68371 -4.45034,-16.5158 C 213.62803,277.15283 204,282.74995 204,291.98214 c 0,9.24441 9.61691,14.83506 18.03273,10.48307 z M 424,141.81088 c 0,-101.112204 -0.13608,-110.321634 -1.65499,-112.000004 -1.57703,-1.74261 -5.42078,-1.82874 -81.60699,-1.82874 H 103.32874 c -83.89775,0 -91.826332,0.14034 -93.499999,1.65499 C 8.078134,31.221396 8,36.006666 8,141.63713 v 110.34501 h 208 208 z"
     id="path819"
     inkscape:connector-curvature="0"
     sodipodi:nodetypes="csscccsscccssccsccsccscsscccsccscccccccccccsscccscsscsssscssssssccccscccs" />
  <g
     id="g1263"
     inkscape:label="Gear10"
     transform="matrix(0.61386999,0,0,0.61386999,133.98096,153.29731)"
     style="fill:#ea1734;fill-opacity:1">
         <animateTransform attributeType="xml" attributeName="transform" type="rotate" from="0 -8.4 9.5" to="360 -8.4 9.5" dur="5s" additive="sum" repeatCount="indefinite" />
    <path
       style="fill:#ea1734;fill-opacity:1;stroke:#1f2527;stroke-width:10.50524712;stroke-opacity:1"
       d="m -50.777834,-100.35718 -11.469601,3.726586 -2.84688,23.682973 1.53373,6.175936 6.699145,12.677597 -18.825325,13.677855 -9.9846,-10.289811 -5.40138,-3.367526 -23.403405,-4.60887 -7.08899,9.75634 11.61836,20.830959 4.87047,4.095916 12.869945,6.319563 -7.18901,22.1287251 -14.126675,-2.451898 -6.35035,0.448823 -21.64142,10.0256429 v 12.059486 l 21.64142,10.025643 6.35035,0.451397 14.126675,-2.454472 7.18901,22.131285 -12.869945,6.317002 -4.87047,4.095917 -11.61836,20.833522 7.08899,9.75634 23.403405,-4.61144 5.40138,-3.36752 9.9846,-10.287237 18.825325,13.675287 -6.699145,12.677579 -1.53373,6.17851 2.84688,23.68042 11.469601,3.7266 16.224659,-17.48396 2.38779,-5.90152 2.03385,-14.190799 h 23.26748 l 2.03129,14.190799 2.39035,5.90152 16.22466,17.48396 11.46959,-3.7266 2.84688,-23.68042 -1.53373,-6.17851 -6.69914,-12.677579 18.82532,-13.675287 9.98459,10.287237 5.40138,3.36752 23.40342,4.61144 7.08899,-9.75634 -11.61836,-20.833522 -4.87046,-4.095917 -12.87253,-6.317002 7.19158,-22.131285 14.12669,2.454472 6.34777,-0.451397 21.643995,-10.025643 V 12.471631 L 82.874235,2.4459881 l -6.34777,-0.448823 -14.12669,2.451898 -7.19158,-22.1287251 12.87253,-6.319563 4.87046,-4.095916 11.61836,-20.830959 -7.08899,-9.75634 -23.40342,4.60887 -5.40138,3.367526 -9.98459,10.289811 -18.82532,-13.677855 6.69914,-12.677597 1.53373,-6.175936 -2.84688,-23.682973 -11.46959,-3.726586 -16.22466,17.486506 -2.39035,5.89895 -2.03129,14.193367 h -23.26748 l -2.03385,-14.193367 -2.38779,-5.89895 z m 32.280039,70.492351 a 48.366418,48.366418 0 0 1 48.36619,48.366196 48.366418,48.366418 0 0 1 -48.36619,48.36621 48.366418,48.366418 0 0 1 -48.3662,-48.36621 48.366418,48.366418 0 0 1 48.3662,-48.366196 z"
       id="path1259"
       inkscape:connector-curvature="0" />
  </g>
  <g
     style="fill:#e6e91c;fill-opacity:1"
     transform="matrix(0.50530071,0,0,0.50530071,247.39758,94.06582)"
     inkscape:label="Gear10"
     id="g2083">
         <animateTransform attributeType="xml" attributeName="transform" type="rotate" from="360 -8.4 9.5" to="0 -8.4 9.5" dur="5s" additive="sum" repeatCount="indefinite" />
    <path
       inkscape:connector-curvature="0"
       id="path2081"
       d="m -50.777834,-100.35718 -11.469601,3.726586 -2.84688,23.682973 1.53373,6.175936 6.699145,12.677597 -18.825325,13.677855 -9.9846,-10.289811 -5.40138,-3.367526 -23.403405,-4.60887 -7.08899,9.75634 11.61836,20.830959 4.87047,4.095916 12.869945,6.319563 -7.18901,22.1287251 -14.126675,-2.451898 -6.35035,0.448823 -21.64142,10.0256429 v 12.059486 l 21.64142,10.025643 6.35035,0.451397 14.126675,-2.454472 7.18901,22.131285 -12.869945,6.317002 -4.87047,4.095917 -11.61836,20.833522 7.08899,9.75634 23.403405,-4.61144 5.40138,-3.36752 9.9846,-10.287237 18.825325,13.675287 -6.699145,12.677579 -1.53373,6.17851 2.84688,23.68042 11.469601,3.7266 16.224659,-17.48396 2.38779,-5.90152 2.03385,-14.190799 h 23.26748 l 2.03129,14.190799 2.39035,5.90152 16.22466,17.48396 11.46959,-3.7266 2.84688,-23.68042 -1.53373,-6.17851 -6.69914,-12.677579 18.82532,-13.675287 9.98459,10.287237 5.40138,3.36752 23.40342,4.61144 7.08899,-9.75634 -11.61836,-20.833522 -4.87046,-4.095917 -12.87253,-6.317002 7.19158,-22.131285 14.12669,2.454472 6.34777,-0.451397 21.643995,-10.025643 V 12.471631 L 82.874235,2.4459881 l -6.34777,-0.448823 -14.12669,2.451898 -7.19158,-22.1287251 12.87253,-6.319563 4.87046,-4.095916 11.61836,-20.830959 -7.08899,-9.75634 -23.40342,4.60887 -5.40138,3.367526 -9.98459,10.289811 -18.82532,-13.677855 6.69914,-12.677597 1.53373,-6.175936 -2.84688,-23.682973 -11.46959,-3.726586 -16.22466,17.486506 -2.39035,5.89895 -2.03129,14.193367 h -23.26748 l -2.03385,-14.193367 -2.38779,-5.89895 z m 32.280039,70.492351 a 48.366418,48.366418 0 0 1 48.36619,48.366196 48.366418,48.366418 0 0 1 -48.36619,48.36621 48.366418,48.366418 0 0 1 -48.3662,-48.36621 48.366418,48.366418 0 0 1 48.3662,-48.366196 z"
       style="fill:#e6e91c;fill-opacity:1;stroke:#1f2527;stroke-width:10.50524712;stroke-opacity:1" />
  </g>
  <g
     id="g2087"
     inkscape:label="Gear10"
     transform="matrix(0.38804589,0,0,0.38804589,337.94757,145.40618)"
     style="fill:#247da6;fill-opacity:1">
     <animateTransform attributeName="transform" attributeType="auto" type="rotate" values="0 -10 10;360 -10 10" calcMode="spline" keyTimes="0;1" keySplines="0 0 1 1" dur="5s" begin="0s" repeatCount="indefinite" additive="sum" accumulate="none" fill="freeze" id="animateTransform3405"></animateTransform>
    <path
       style="fill:#247da6;fill-opacity:1;stroke:#1f2527;stroke-width:10.50524712;stroke-opacity:1"
       d="m -50.777834,-100.35718 -11.469601,3.726586 -2.84688,23.682973 1.53373,6.175936 6.699145,12.677597 -18.825325,13.677855 -9.9846,-10.289811 -5.40138,-3.367526 -23.403405,-4.60887 -7.08899,9.75634 11.61836,20.830959 4.87047,4.095916 12.869945,6.319563 -7.18901,22.1287251 -14.126675,-2.451898 -6.35035,0.448823 -21.64142,10.0256429 v 12.059486 l 21.64142,10.025643 6.35035,0.451397 14.126675,-2.454472 7.18901,22.131285 -12.869945,6.317002 -4.87047,4.095917 -11.61836,20.833522 7.08899,9.75634 23.403405,-4.61144 5.40138,-3.36752 9.9846,-10.287237 18.825325,13.675287 -6.699145,12.677579 -1.53373,6.17851 2.84688,23.68042 11.469601,3.7266 16.224659,-17.48396 2.38779,-5.90152 2.03385,-14.190799 h 23.26748 l 2.03129,14.190799 2.39035,5.90152 16.22466,17.48396 11.46959,-3.7266 2.84688,-23.68042 -1.53373,-6.17851 -6.69914,-12.677579 18.82532,-13.675287 9.98459,10.287237 5.40138,3.36752 23.40342,4.61144 7.08899,-9.75634 -11.61836,-20.833522 -4.87046,-4.095917 -12.87253,-6.317002 7.19158,-22.131285 14.12669,2.454472 6.34777,-0.451397 21.643995,-10.025643 V 12.471631 L 82.874235,2.4459881 l -6.34777,-0.448823 -14.12669,2.451898 -7.19158,-22.1287251 12.87253,-6.319563 4.87046,-4.095916 11.61836,-20.830959 -7.08899,-9.75634 -23.40342,4.60887 -5.40138,3.367526 -9.98459,10.289811 -18.82532,-13.677855 6.69914,-12.677597 1.53373,-6.175936 -2.84688,-23.682973 -11.46959,-3.726586 -16.22466,17.486506 -2.39035,5.89895 -2.03129,14.193367 h -23.26748 l -2.03385,-14.193367 -2.38779,-5.89895 z m 32.280039,70.492351 a 48.366418,48.366418 0 0 1 48.36619,48.366196 48.366418,48.366418 0 0 1 -48.36619,48.36621 48.366418,48.366418 0 0 1 -48.3662,-48.36621 48.366418,48.366418 0 0 1 48.3662,-48.366196 z"
       id="path2085"
       inkscape:connector-curvature="0" />
  </g>
</svg>
