<?xml version="1.0" encoding="UTF-8" standalone="no"?>
<!-- Created with Inkscape (http://www.inkscape.org/) -->

<svg
   xmlns:dc="http://purl.org/dc/elements/1.1/"
   xmlns:cc="http://creativecommons.org/ns#"
   xmlns:rdf="http://www.w3.org/1999/02/22-rdf-syntax-ns#"
   xmlns:svg="http://www.w3.org/2000/svg"
   xmlns="http://www.w3.org/2000/svg"
   xmlns:sodipodi="http://sodipodi.sourceforge.net/DTD/sodipodi-0.dtd"
   xmlns:inkscape="http://www.inkscape.org/namespaces/inkscape"
   version="1.1"
   id="svg2"
   width="433.98108"
   height="367.80414"
   viewBox="0 0 433.98108 367.80414"
   sodipodi:docname="system2.svg"
   inkscape:version="0.92.2 2405546, 2018-03-11">
  <metadata
     id="metadata8">
    <rdf:RDF>
      <cc:Work
         rdf:about="">
        <dc:format>image/svg+xml</dc:format>
        <dc:type
           rdf:resource="http://purl.org/dc/dcmitype/StillImage" />
        <dc:title></dc:title>
      </cc:Work>
    </rdf:RDF>
  </metadata>
  <defs
     id="defs6" />
  <sodipodi:namedview
     pagecolor="#ffffff"
     bordercolor="#666666"
     borderopacity="1"
     objecttolerance="10"
     gridtolerance="10"
     guidetolerance="10"
     inkscape:pageopacity="0"
     inkscape:pageshadow="2"
     inkscape:window-width="1364"
     inkscape:window-height="732"
     id="namedview4"
     showgrid="false"
     fit-margin-top="0"
     fit-margin-left="0"
     fit-margin-right="0"
     fit-margin-bottom="0"
     inkscape:zoom="0.921875"
     inkscape:cx="360.66863"
     inkscape:cy="137.9992"
     inkscape:window-x="0"
     inkscape:window-y="35"
     inkscape:window-maximized="0"
     inkscape:current-layer="svg2" />
  <g
     id="g817"
     transform="translate(-36,-72.017864)">
    <path
       style="fill:#e0e36e"
       d="m 180.34941,297 c 0,-4.675 0.17226,-6.5875 0.3828,-4.25 0.21053,2.3375 0.21053,6.1625 0,8.5 -0.21054,2.3375 -0.3828,0.425 -0.3828,-4.25 z m 50.113,-10.25 -4.96241,-5.25 5.25,4.96241 c 4.87839,4.61116 5.7086,5.53759 4.96241,5.53759 -0.15818,0 -2.52068,-2.3625 -5.25,-5.25 z M 241,291.72497 c 0,-0.15126 3.4875,-3.63876 7.75,-7.75 l 7.75,-7.47497 -7.47497,7.75 C 242.08244,291.44803 241,292.45627 241,291.72497 Z M 337.79569,257.25 337.5,250.5 331,248.40236 c -3.575,-1.1537 -8.075,-3.06451 -10,-4.24626 -1.925,-1.18174 -4.07255,-2.15031 -4.77234,-2.15236 -0.69979,-0.002 -3.2164,1.78823 -5.59246,3.9784 l -4.32012,3.98215 -2.15754,-2.2966 C 301.28881,244.61407 301.40108,243.97283 305.5,240 c 4.14637,-4.01882 4.27564,-5.3412 1.08746,-11.12405 -1.3269,-2.40677 -2.97569,-6.40095 -3.66397,-8.87595 -1.62948,-5.85943 -3.19607,-7 -9.61462,-7 H 288 v -4 -4 h 5.87756 c 6.66889,0 7.4237,-0.58022 9.10639,-7 0.64872,-2.475 2.26772,-6.38013 3.59777,-8.67807 3.19428,-5.51876 3.07681,-6.58725 -1.25072,-11.37732 l -3.66901,-4.06115 2.61702,-2.61701 2.61701,-2.61702 4.50942,4.15664 4.50941,4.15663 7.26436,-3.48135 c 3.9954,-1.91474 7.96443,-3.48135 8.82007,-3.48135 0.85564,0 2.55584,-0.70052 3.77821,-1.5567 1.83382,-1.28446 2.22251,-2.50867 2.22251,-7 V 156 h 4 4 v 5.4433 c 0,4.49133 0.38869,5.71554 2.22251,7 1.22237,0.85618 2.92257,1.5567 3.77821,1.5567 0.85564,0 4.82467,1.56661 8.82007,3.48135 l 7.26436,3.48135 4.50941,-4.15663 4.50942,-4.15664 2.61701,2.61702 2.61702,2.61701 -3.66901,4.06115 c -4.32753,4.79007 -4.445,5.85856 -1.25072,11.37732 1.33005,2.29794 2.94905,6.20307 3.59777,8.67807 1.68269,6.41978 2.4375,7 9.10639,7 H 396 v 4 4 h -5.30887 c -6.41855,0 -7.98514,1.14057 -9.61462,7 -0.68828,2.475 -2.33707,6.46918 -3.66397,8.87595 -3.18818,5.78285 -3.05891,7.10523 1.08746,11.12405 4.09892,3.97283 4.21119,4.61407 1.34246,7.66769 l -2.15754,2.2966 -4.32012,-3.98215 c -2.37606,-2.19017 -4.89267,-3.98046 -5.59246,-3.9784 -0.69979,0.002 -2.84734,0.97062 -4.77234,2.15236 -1.925,1.18175 -6.425,3.09256 -10,4.24626 l -6.5,2.09764 -0.29569,6.75 -0.29569,6.75 H 342 338.09138 Z m 17.38466,-18.09526 c 7.28645,-3.52731 12.45061,-8.65947 16.02765,-15.92831 2.86746,-5.82692 3.28429,-7.65921 3.23225,-14.20803 -0.048,-6.04224 -0.59226,-8.62632 -2.77194,-13.16126 -3.29581,-6.85713 -9.90897,-13.16234 -17.40426,-16.59379 -18.92143,-8.66252 -42.32737,5.4072 -44.86129,26.9669 -1.65227,14.05826 8.61595,29.62552 22.59724,34.25882 6.29256,2.0853 17.44211,1.4435 23.18035,-1.33433 z m -38.1014,-26.73807 c 0.048,-1.16495 0.28494,-1.4019 0.60416,-0.60417 0.28887,0.72187 0.25335,1.58437 -0.0789,1.91667 -0.33229,0.33229 -0.56864,-0.25834 -0.52522,-1.3125 z m 49,0 c 0.048,-1.16495 0.28494,-1.4019 0.60416,-0.60417 0.28887,0.72187 0.25335,1.58437 -0.0789,1.91667 -0.33229,0.33229 -0.56864,-0.25834 -0.52522,-1.3125 z m 0,-6 c 0.048,-1.16495 0.28494,-1.4019 0.60416,-0.60417 0.28887,0.72187 0.25335,1.58437 -0.0789,1.91667 -0.33229,0.33229 -0.56864,-0.25834 -0.52522,-1.3125 z M 340.75,184.33772 c 0.6875,-0.27741 1.8125,-0.27741 2.5,0 0.6875,0.27741 0.125,0.50439 -1.25,0.50439 -1.375,0 -1.9375,-0.22698 -1.25,-0.50439 z m -149.9375,77.97917 c 0.72187,-0.28887 1.58437,-0.25335 1.91667,0.0789 0.33229,0.33229 -0.25834,0.56864 -1.3125,0.52522 -1.16495,-0.048 -1.4019,-0.28494 -0.60417,-0.60416 z m 5.9375,0.0208 c 0.6875,-0.27741 1.8125,-0.27741 2.5,0 0.6875,0.27741 0.125,0.50439 -1.25,0.50439 -1.375,0 -1.9375,-0.22698 -1.25,-0.50439 z M 216,254.62244 c 0,-0.20765 0.7875,-0.99515 1.75,-1.75 1.58606,-1.24387 1.62143,-1.2085 0.37756,0.37756 C 216.82119,254.91575 216,255.44548 216,254.62244 Z M 118.37817,231 c 0,-6.325 0.16237,-8.9125 0.36082,-5.75 0.19845,3.1625 0.19845,8.3375 0,11.5 -0.19845,3.1625 -0.36082,0.575 -0.36082,-5.75 z m 107.89419,0 c 0,-2.475 0.19502,-3.4875 0.43337,-2.25 0.23836,1.2375 0.23836,3.2625 0,4.5 -0.23835,1.2375 -0.43337,0.225 -0.43337,-2.25 z M 285.75,221.2766 c 1.7875,-0.22182 4.7125,-0.22182 6.5,0 1.7875,0.22183 0.325,0.40333 -3.25,0.40333 -3.575,0 -5.0375,-0.1815 -3.25,-0.40333 z m 105.5,0.007 c 1.5125,-0.22913 3.9875,-0.22913 5.5,0 1.5125,0.22912 0.275,0.41659 -2.75,0.41659 -3.025,0 -4.2625,-0.18747 -2.75,-0.41659 z M 171.5,208 c 0.99549,-1.1 2.03498,-2 2.30998,-2 0.275,0 -0.31449,0.9 -1.30998,2 -0.99549,1.1 -2.03498,2 -2.30998,2 -0.275,0 0.31449,-0.9 1.30998,-2 z M 137.46241,193.75 132.5,188.5 l 5.25,4.96241 c 2.8875,2.72932 5.25,5.09182 5.25,5.25 0,0.74619 -0.92643,-0.084 -5.53759,-4.96241 z M 140.5,177 c 4.37419,-4.4 8.17808,-8 8.45308,-8 0.275,0 -3.07889,3.6 -7.45308,8 -4.37419,4.4 -8.17808,8 -8.45308,8 -0.275,0 3.07889,-3.6 7.45308,-8 z m 39.82814,-11.5 c 0.004,-3.85 0.18518,-5.30246 0.40166,-3.2277 0.21647,2.07477 0.21284,5.22477 -0.008,7 -0.22091,1.77524 -0.39803,0.0777 -0.39359,-3.7723 z M 297.5,166 c 3.26557,-3.3 6.16239,-6 6.43739,-6 0.275,0 -2.17182,2.7 -5.43739,6 -3.26557,3.3 -6.16239,6 -6.43739,6 -0.275,0 2.17182,-2.7 5.43739,-6 z m 88.46584,0.25 -5.46584,-5.75 5.75,5.46584 c 5.34193,5.07794 6.20809,6.03416 5.46584,6.03416 -0.15629,0 -2.74379,-2.5875 -5.75,-5.75 z M 242,154.5 c 1.29175,-1.375 2.57363,-2.5 2.84863,-2.5 0.275,0 -0.55688,1.125 -1.84863,2.5 -1.29175,1.375 -2.57363,2.5 -2.84863,2.5 -0.275,0 0.55688,-1.125 1.84863,-2.5 z m 42.92431,-0.25 -2.42431,-2.75 2.75,2.42431 c 2.57029,2.26589 3.20859,3.07569 2.42431,3.07569 -0.17912,0 -1.41662,-1.2375 -2.75,-2.75 z M 246.15789,119 c 0,-1.375 0.22698,-1.9375 0.50439,-1.25 0.27741,0.6875 0.27741,1.8125 0,2.5 -0.27741,0.6875 -0.50439,0.125 -0.50439,-1.25 z m 34.92106,-0.58333 c 0.048,-1.16495 0.28494,-1.4019 0.60416,-0.60417 0.28887,0.72187 0.25335,1.58437 -0.0789,1.91667 -0.33229,0.33229 -0.56864,-0.25834 -0.52522,-1.3125 z m 21.1848,-10.13425 c 1.52006,-0.22986 3.77006,-0.22371 5,0.0136 1.22994,0.23736 -0.0138,0.42542 -2.76375,0.41792 -2.75,-0.008 -3.75631,-0.20172 -2.23625,-0.43157 z"
       id="path825"
       inkscape:connector-curvature="0" />
    <path
       style="fill:#03abea"
       d="M 46.222506,394.4433 C 44.008591,392.89261 44,392.76892 44,362.4433 V 332 h 208 208 v 30.4433 c 0,30.32562 -0.009,30.44931 -2.22251,32 C 455.78362,395.83986 434.61469,396 252,396 69.385311,396 48.216377,395.83986 46.222506,394.4433 Z M 258.78212,382.44695 c 7.4419,-3.10866 13.17396,-11.13502 13.17396,-18.44695 0,-9.8383 -10.13939,-20 -19.95608,-20 -9.70004,0 -19.91334,10.11314 -19.97804,19.78212 -0.0482,7.19796 5.24808,14.97465 12.47804,18.32202 4.91297,2.27463 9.39968,2.38232 14.28212,0.34281 z m 3.01778,-228.15682 -0.2999,-5.70987 -6.33805,-2.17819 c -3.48593,-1.198 -6.83843,-2.67855 -7.45,-3.29012 -1.78598,-1.78598 -3.90487,-1.30131 -6.91382,1.58146 -2.05814,1.97182 -3.10838,2.39634 -3.92013,1.58459 -0.81176,-0.81176 -0.40299,-2.03422 1.5258,-4.56299 l 2.63463,-3.45417 -3.01843,-6.38042 c -1.66013,-3.50923 -3.01878,-7.15209 -3.01921,-8.09524 C 234.99975,121.53146 231.99158,120 227.56574,120 224.79932,120 224,119.59668 224,118.2008 c 0,-1.45587 0.64616,-1.72376 3.38615,-1.40388 4.04423,0.47214 7.61355,-1.20695 7.61464,-3.5821 4.3e-4,-0.94315 1.3332,-4.53129 2.96171,-7.97364 l 2.96091,-6.258815 -2.95944,-3.370618 c -2.60615,-2.968247 -2.77633,-3.522585 -1.42555,-4.643634 1.27998,-1.062284 1.99219,-0.833935 4.30245,1.379435 3.19925,3.065068 4.35792,3.226727 8.00484,1.116843 1.45986,-0.844585 4.90429,-2.325917 7.65429,-3.291848 4.8339,-1.697897 5.01021,-1.896029 5.3075,-5.96439 C 262.05208,80.860992 262.50067,80 264,80 c 1.49933,0 1.94792,0.860992 2.1925,4.208153 0.29729,4.068361 0.4736,4.266493 5.3075,5.96439 2.75,0.965931 6.19443,2.447263 7.65429,3.291848 3.64059,2.106216 5.21419,1.937881 8.6121,-0.921275 2.15285,-1.811507 3.21366,-2.163065 4.03838,-1.338344 0.82472,0.824721 0.35063,1.993145 -1.80482,4.448067 l -2.92336,3.329526 2.96091,6.258815 c 1.62851,3.44235 2.96128,7.03049 2.96171,7.97364 10e-4,2.25372 3.00921,3.78518 7.43505,3.78518 2.50288,0 3.56574,0.44711 3.56574,1.5 0,1.05289 -1.06286,1.5 -3.56574,1.5 -4.42584,0 -7.43401,1.53146 -7.43505,3.78518 -4.3e-4,0.94315 -1.3332,4.53129 -2.96171,7.97364 l -2.96091,6.25881 2.95944,3.37062 c 2.60615,2.96825 2.77633,3.52259 1.42555,4.64364 -1.27998,1.06228 -1.99219,0.83393 -4.30245,-1.37944 -2.96898,-2.84446 -5.0913,-3.32028 -6.87108,-1.5405 -0.61157,0.61157 -3.96407,2.09212 -7.45,3.29012 l -6.33805,2.17819 -0.2999,5.70987 C 265.94599,159.12814 265.61005,160 264,160 c -1.61005,0 -1.94599,-0.87186 -2.2001,-5.70987 z M 274.5,141.61671 c 13.52076,-6.39195 18.93138,-21.88362 12.0286,-34.44026 -10.39523,-18.909659 -34.66197,-18.909659 -45.0572,0 -11.41894,20.77185 11.4654,44.63428 33.0286,34.44026 z"
       id="path823"
       inkscape:connector-curvature="0" />
    <path
       style="fill:#e74933"
       d="m 189,292.69113 c 0,-4.33141 -0.50922,-7.95738 -1.25,-8.90078 -0.6875,-0.87556 -3.95,-2.34568 -7.25,-3.26693 -3.3,-0.92126 -8.35568,-2.99091 -11.23485,-4.59922 -2.87917,-1.60831 -5.94361,-2.9242 -6.80986,-2.9242 -0.86626,0 -3.94246,2.23903 -6.836,4.97563 l -5.26099,4.97562 -3.67915,-3.76779 C 144.65562,277.11118 143,274.9988 143,274.48928 c 0,-0.50951 2.30967,-3.26511 5.1326,-6.12355 l 5.1326,-5.19716 -2.75762,-4.83429 C 148.99089,255.67543 146.56573,249.9 145.11834,245.5 l -2.63163,-8 -7.74335,-0.29206 L 127,236.91587 V 230.95794 225 l 6.75,-0.0153 c 3.7125,-0.008 7.31517,-0.37413 8.00593,-0.81269 0.69077,-0.43855 1.95133,-3.46715 2.80125,-6.73022 0.84992,-3.26307 3.09725,-8.70798 4.99407,-12.0998 1.89681,-3.39182 3.44875,-6.45827 3.44875,-6.81433 0,-0.35605 -2.33501,-3.1163 -5.18892,-6.13389 l -5.18892,-5.48651 4.17913,-4.17913 4.17913,-4.17913 5.47495,5.40694 5.47495,5.40694 8.28484,-4.12215 c 4.55666,-2.26719 9.99442,-4.42806 12.08391,-4.80193 C 187.93627,179.43011 189,177.84105 189,170.42857 V 164 h 6 6 v 6.87756 c 0,7.65869 0.56059,8.51214 6.26672,9.5405 2.07169,0.37336 7.38145,2.53219 11.79945,4.79739 l 8.03273,4.11856 5.232,-5.16701 c 2.87759,-2.84185 5.64887,-5.167 6.15838,-5.167 0.50952,0 2.6219,1.65562 4.69418,3.67915 l 3.76779,3.67915 -4.97562,5.26099 c -2.7366,2.89354 -4.97563,6.02065 -4.97563,6.94912 0,0.92848 1.31099,3.99291 2.91331,6.80986 1.60232,2.81695 3.68165,7.82173 4.62072,11.12173 0.93908,3.3 2.15819,6.5625 2.70913,7.25 0.63942,0.79789 3.68814,1.25 8.42919,1.25 h 7.42746 l -0.29991,5.75 -0.2999,5.75 -6,0.2574 c -9.53261,0.40895 -10.32778,0.76853 -11.05836,5.00066 -0.35528,2.05807 -2.39999,7.42787 -4.5438,11.9329 -2.14381,4.50502 -3.89784,8.79694 -3.89784,9.53759 0,0.74065 2.24994,3.56274 4.99987,6.27132 l 4.99987,4.92469 -4.21317,4.29291 -4.21317,4.29291 -5.06815,-5.00519 C 230.71777,275.25234 227.73566,273 226.87832,273 c -0.85733,0 -3.99318,1.34932 -6.96855,2.99848 -2.97537,1.64916 -8.44727,3.91822 -12.15977,5.04234 L 201,283.08469 V 291.54235 300 h -6 -6 z m 13.20078,-22.79983 c 20.63483,-4.31723 35.36799,-25.21072 31.76979,-45.05361 -2.34623,-12.93865 -11.77333,-25.11115 -23.66323,-30.55452 -19.0699,-8.73049 -42.15205,0.40439 -52.03426,20.59284 -2.44224,4.98929 -2.75406,6.75255 -2.763,15.62399 -0.009,9.17026 0.25331,10.55599 3.16432,16.70071 5.2085,10.99445 14.83223,19.10114 26.34984,22.1962 6.75442,1.81507 10.36711,1.91906 17.17654,0.49439 z M 310,246.5 c 1.86578,-1.925 3.61733,-3.5 3.89233,-3.5 0.275,0 -1.02655,1.575 -2.89233,3.5 -1.86578,1.925 -3.61733,3.5 -3.89233,3.5 -0.275,0 1.02655,-1.575 2.89233,-3.5 z m 63.92431,0.75 -2.42431,-2.75 2.75,2.42431 c 2.57029,2.26589 3.20859,3.07569 2.42431,3.07569 -0.17912,0 -1.41662,-1.2375 -2.75,-2.75 z m -69.48722,-69.5 -2.93709,-3.25 3.25,2.93709 c 3.02946,2.73778 3.70965,3.56291 2.93709,3.56291 -0.1721,0 -1.6346,-1.4625 -3.25,-3.25 z M 376,180.68709 c 0,-0.1721 1.4625,-1.6346 3.25,-3.25 l 3.25,-2.93709 -2.93709,3.25 C 376.82513,180.77946 376,181.45965 376,180.68709 Z m -35.25,-4.34937 c 0.6875,-0.27741 1.8125,-0.27741 2.5,0 0.6875,0.27741 0.125,0.50439 -1.25,0.50439 -1.375,0 -1.9375,-0.22698 -1.25,-0.50439 z M 221.76166,128.29274 c 1.24391,-0.23919 3.04391,-0.23011 4,0.0202 0.95609,0.25029 -0.0617,0.446 -2.26166,0.4349 -2.2,-0.0111 -2.98225,-0.21589 -1.73834,-0.45508 z m 79.98834,0.045 c 0.6875,-0.27741 1.8125,-0.27741 2.5,0 0.6875,0.27741 0.125,0.50439 -1.25,0.50439 -1.375,0 -1.9375,-0.22698 -1.25,-0.50439 z"
       id="path821"
       inkscape:connector-curvature="0" />
    <path
       style="fill:#1f2527"
       d="M 177.20605,438.80605 C 176.54272,438.14272 176,436.88 176,436 c 0,-3.32948 2.21272,-4 13.2,-4 H 200 v -14 -14 h -76.09887 c -84.805234,0 -80.558321,0.34165 -85.462195,-6.87505 L 36,393.53573 V 248.65402 103.77231 l 2.117886,-3.76827 c 1.164837,-2.072548 3.813606,-4.721317 5.886154,-5.886154 3.75868,-2.112497 3.993122,-2.117918 92.13211,-2.130505 l 88.36385,-0.01262 4.80876,-5.483077 c 6.18979,-7.057764 8.77524,-7.771844 13.06948,-3.609695 l 3.23441,3.134908 4.1835,-1.758449 c 3.92983,-1.651821 4.18413,-2.004032 4.19368,-5.808449 0.006,-2.2275 0.55017,-4.59 1.21017,-5.25 1.48316,-1.483158 14.17073,-1.607144 16.86574,-0.164816 1.43958,0.77044 1.93686,2.113102 1.94443,5.25 0.01,3.997947 0.22543,4.305295 4.19368,5.973265 l 4.1835,1.758449 3.23441,-3.134908 c 4.27413,-4.142653 6.72391,-3.472513 13.19697,3.610052 L 303.8527,92 h 75.75792 c 73.71525,0 75.86933,0.05393 79.88956,2.00009 2.63318,1.274699 4.92376,3.409482 6.31573,5.886154 L 468,103.77231 v 110.12741 c 0,85.9202 0.27269,110.56406 1.24055,112.11385 0.98739,1.58107 0.98739,2.39179 0,3.97286 C 468.32304,331.45559 468,339.98842 468,362.7543 v 30.78143 l -2.43894,3.58922 C 460.65719,404.34165 464.9041,404 380.09887,404 H 304 v 13.97395 13.97396 l 15.14248,0.27604 c 13.14875,0.2397 15.28762,0.50646 16.24488,2.02605 0.80337,1.27529 0.80299,2.22471 -10e-4,3.5 -1.03355,1.63863 -6.0638,1.7663 -79.03884,2.00605 -59.78638,0.19642 -78.2159,-0.0248 -79.14109,-0.95 z M 296,418 v -14 h -44 -44 v 14 14 h 44 44 z m 161.77749,-23.5567 c 2.21392,-1.55069 2.22251,-1.67438 2.22251,-32 V 332 H 252 44 v 30.4433 c 0,30.32562 0.0086,30.44931 2.222506,32 C 48.216377,395.83986 69.385311,396 252,396 c 182.61469,0 203.78362,-0.16014 205.77749,-1.5567 z M 244.5,382.10414 C 237.27004,378.75677 231.9738,370.98008 232.02196,363.78212 232.08666,354.11314 242.29996,344 252,344 c 9.81669,0 19.95608,10.1617 19.95608,20 0,7.31193 -5.73206,15.33829 -13.17396,18.44695 -4.88244,2.03951 -9.36915,1.93182 -14.28212,-0.34281 z m 13.53273,-7.62107 c 1.61338,-0.83431 3.61603,-2.83696 4.45034,-4.45034 3.09881,-5.99244 1.02633,-13.68371 -4.45034,-16.5158 C 249.62803,349.17069 240,354.76781 240,364 c 0,9.24441 9.61691,14.83506 18.03273,10.48307 z M 460,213.82874 c 0,-101.1122 -0.13608,-110.32163 -1.65499,-112 C 456.76798,100.08613 452.92423,100 376.73802,100 c -75.74829,0 -79.91471,0.092 -79.24273,1.75 0.3901,0.9625 1.15727,2.9875 1.70482,4.5 0.8938,2.46896 1.47608,2.75 5.69772,2.75 2.58619,0 5.24217,0.54 5.90217,1.2 0.72493,0.72493 1.2,4.23946 1.2,8.87756 0,9.07828 -0.97813,10.43983 -6.79405,9.45724 -4.25207,-0.71839 -5.03133,-0.15181 -7.15399,5.20148 -1.20732,3.04482 -1.09891,3.44621 1.8324,6.7848 1.7136,1.95168 3.11564,4.00979 3.11564,4.57358 C 303,147.08367 292.71543,157 290.65255,157 c -1.13153,0 -3.42876,-1.29906 -5.10494,-2.8868 l -3.04761,-2.8868 -4.25,1.8458 c -4.23912,1.84106 -4.25,1.85946 -4.25,7.18679 0,2.93756 -0.54,5.88101 -1.2,6.54101 -0.72281,0.72281 -4.22222,1.2 -8.8,1.2 -4.57778,0 -8.07719,-0.47719 -8.8,-1.2 -0.66,-0.66 -1.2,-3.56797 -1.2,-6.46216 0,-5.22514 -0.0299,-5.27557 -4.25,-7.16809 l -4.25,-1.90593 -3.04761,2.86809 C 240.77621,155.70936 238.47898,157 237.34745,157 235.28457,157 225,147.08367 225,145.09466 c 0,-0.56379 1.40204,-2.6219 3.11564,-4.57358 2.93131,-3.33859 3.03972,-3.73998 1.8324,-6.7848 C 227.91858,128.61805 227.06056,128 221.98454,128 c -3.42764,0 -4.94143,-0.44528 -5.37755,-1.58179 -1.10624,-2.88281 -0.65552,-15.96968 0.59301,-17.21821 0.66,-0.66 3.35396,-1.2 5.98658,-1.2 4.5559,0 4.85952,-0.17456 6.3,-3.62212 0.83238,-1.99217 1.51342,-3.79217 1.51342,-4 C 231,100.17004 189.74793,100 139.32874,100 55.43099,100 47.502408,100.14034 45.828741,101.65499 44.078134,103.23926 44,108.02453 44,213.65499 V 324 H 252 460 Z M 182.2,306.8 c -0.7374,-0.7374 -1.2,-4.348 -1.2,-9.36601 v -8.16601 l -6.25,-2.23638 c -3.4375,-1.23001 -7.29862,-2.89935 -8.58027,-3.70964 -2.22416,-1.40617 -2.59648,-1.21935 -8.17577,4.10239 C 154.77894,290.49096 151.61008,293 150.95205,293 148.82901,293 133,276.7796 133,274.60406 c 0,-1.12264 2.3226,-4.39298 5.16133,-7.26742 l 5.16134,-5.22625 -2.59159,-5.8052 c -1.42538,-3.19285 -2.89676,-7.04269 -3.26975,-8.55519 -0.66652,-2.70287 -0.80998,-2.75 -8.36974,-2.75 -4.64901,0 -8.16628,-0.47469 -8.89159,-1.2 -1.736,-1.736 -1.65309,-24.17908 0.0947,-25.6296 0.71208,-0.59097 4.56069,-1.20857 8.55246,-1.37245 l 7.25778,-0.29795 3.58319,-8.8312 3.58318,-8.8312 -5.13564,-5.20025 C 135.31104,190.77722 133,187.76632 133,186.94648 133,184.9945 149.09126,169 151.05505,169 c 0.8323,0 3.90724,2.42408 6.8332,5.38684 l 5.31992,5.38684 7.14592,-3.24111 c 3.93025,-1.78262 7.93341,-3.51757 8.89591,-3.85546 1.43593,-0.50409 1.75,-1.84035 1.75,-7.44573 0,-3.97996 0.50088,-7.33226 1.2,-8.03138 0.79084,-0.79084 5.02857,-1.2 12.42857,-1.2 C 208.50198,156 209,156.34353 209,165.91314 v 6.77028 l 4.25,1.24575 c 2.3375,0.68516 6.12007,2.276 8.40572,3.5352 l 4.15572,2.28945 5.31012,-5.37691 c 3.08199,-3.12075 6.19413,-5.37691 7.4169,-5.37691 3.18091,0 18.68452,16.20461 17.83289,18.63921 -0.358,1.02344 -2.87712,4.16455 -5.59805,6.98025 l -4.94714,5.11946 2.25167,4.38054 c 1.23842,2.4093 2.78834,6.18054 3.44427,8.38054 l 1.19261,4 7.89264,0.27979 c 5.95393,0.21106 8.1997,0.68787 9.14265,1.94113 1.77005,2.35252 1.72989,23.63592 -0.0474,25.11092 -0.71357,0.59221 -4.83452,1.20981 -9.15767,1.37245 l -7.86029,0.29571 -1.71388,5.05127 c -0.94264,2.7782 -2.47826,6.52941 -3.4125,8.33603 l -1.69861,3.28475 5.57016,5.83974 C 254.49343,271.22364 257,274.16788 257,274.55453 257,275.6946 239.73541,293 238.59803,293 c -0.57202,0 -3.54608,-2.47989 -6.60902,-5.51087 l -5.56898,-5.51088 -6.96002,2.94717 c -3.828,1.62094 -7.74751,3.18671 -8.71001,3.47948 -1.47552,0.44884 -1.75,1.78083 -1.75,8.49229 C 209,307.81839 208.76492,308 194.62857,308 c -7.4,0 -11.63773,-0.40916 -12.42857,-1.2 z M 201,291.54235 v -8.45766 l 6.75,-2.04387 c 3.7125,-1.12412 9.1844,-3.39318 12.15977,-5.04234 2.97537,-1.64916 6.11122,-2.99848 6.96855,-2.99848 0.85734,0 3.83945,2.25234 6.62693,5.00519 l 5.06815,5.00519 4.21317,-4.29291 4.21317,-4.29291 -4.99987,-4.92469 C 239.24994,266.79129 237,263.9692 237,263.22855 c 0,-0.74065 1.75403,-5.03257 3.89784,-9.53759 2.14381,-4.50503 4.18852,-9.87483 4.5438,-11.9329 0.73058,-4.23213 1.52575,-4.59171 11.05836,-5.00066 l 6,-0.2574 0.2999,-5.75 0.29991,-5.75 h -7.42746 c -4.74105,0 -7.78977,-0.45211 -8.42919,-1.25 -0.55094,-0.6875 -1.77005,-3.95 -2.70913,-7.25 -0.93907,-3.3 -3.0184,-8.30478 -4.62072,-11.12173 C 238.31099,202.56132 237,199.49689 237,198.56841 c 0,-0.92847 2.23903,-4.05558 4.97563,-6.94912 l 4.97562,-5.26099 -3.76779,-3.67915 C 241.11118,180.65562 238.9988,179 238.48928,179 c -0.50951,0 -3.28079,2.32515 -6.15838,5.167 l -5.232,5.16701 -8.03273,-4.11856 c -4.418,-2.2652 -9.72776,-4.42403 -11.79945,-4.79739 C 201.56059,179.3897 201,178.53625 201,170.87756 V 164 h -6 -6 v 6.42857 c 0,7.41248 -1.06373,9.00154 -6.70093,10.01022 -2.08949,0.37387 -7.52725,2.53474 -12.08391,4.80193 l -8.28484,4.12215 -5.47495,-5.40694 -5.47495,-5.40694 -4.17913,4.17913 -4.17913,4.17913 5.18892,5.48651 c 2.85391,3.01759 5.18892,5.77784 5.18892,6.13389 0,0.35606 -1.55194,3.42251 -3.44875,6.81433 -1.89682,3.39182 -4.14415,8.83673 -4.99407,12.0998 -0.84992,3.26307 -2.11048,6.29167 -2.80125,6.73022 -0.69076,0.43856 -4.29343,0.80427 -8.00593,0.81269 L 127,225 v 5.95794 5.95793 l 7.74336,0.29207 7.74335,0.29206 2.63163,8 c 1.44739,4.4 3.87255,10.17543 5.38924,12.83428 l 2.75762,4.83429 -5.1326,5.19716 c -2.82293,2.85844 -5.1326,5.61404 -5.1326,6.12355 0,0.50952 1.65562,2.6219 3.67915,4.69418 l 3.67915,3.76779 5.26099,-4.97562 c 2.89354,-2.7366 5.96974,-4.97563 6.836,-4.97563 0.86625,0 3.93069,1.31589 6.80986,2.9242 2.87917,1.60831 7.93485,3.67796 11.23485,4.59922 3.3,0.92125 6.5625,2.39137 7.25,3.26693 0.74078,0.9434 1.25,4.56937 1.25,8.90078 V 300 h 6 6 z m -15.97576,-22.14544 c -11.51761,-3.09506 -21.14134,-11.20175 -26.34984,-22.1962 -2.91101,-6.14472 -3.17356,-7.53045 -3.16432,-16.70071 0.009,-8.87144 0.32076,-10.6347 2.763,-15.62399 7.69748,-15.72523 22.60834,-24.72422 39.20223,-23.65929 17.7193,1.13716 33.1891,15.38859 36.49526,33.62097 3.5982,19.84289 -11.13496,40.73638 -31.76979,45.05361 -6.80943,1.42467 -10.42212,1.32068 -17.17654,-0.49439 z m 24.42295,-10.29629 c 7.30499,-3.59624 10.75847,-7.20909 14.43448,-15.10062 3.71893,-7.98367 3.63279,-19.20908 -0.20842,-27.16136 -5.26327,-10.89628 -14.59149,-16.94096 -27.17325,-17.60824 -10.60044,-0.5622 -17.59518,1.96002 -24.45238,8.81722 C 165.86726,214.22798 163,221.4572 163,230.85937 c 0,8.98471 2.21025,15.04593 7.72207,21.1764 10.14843,11.2875 24.74025,13.94957 38.72512,7.06485 z M 331.75,270.9199 c -1.40104,-0.81603 -1.75,-2.40521 -1.75,-7.96959 0,-4.88672 -0.37113,-6.95413 -1.25,-6.96318 -0.6875,-0.007 -3.5,-1.06726 -6.25,-2.35597 l -5,-2.34312 -4.70716,4.35598 C 310.2039,258.03981 307.57265,260 306.94561,260 304.8675,260 292,246.76177 292,244.62379 c 0,-1.12645 1.79306,-3.87508 3.98457,-6.10807 l 3.98458,-4.05998 -2.73458,-6.7126 -2.73457,-6.7126 -6.05,-0.0153 c -3.35184,-0.008 -6.58517,-0.55044 -7.25,-1.21527 C 280.44004,219.04001 280,215.21584 280,209.3714 280,198.01645 280.72592,197 288.83529,197 h 5.69244 l 2.74266,-6.2055 2.74266,-6.2055 -4.00653,-4.08235 C 293.80294,178.26135 292,175.52926 292,174.43533 292,172.16284 304.78073,159 306.98724,159 c 0.79038,0 3.32239,1.85031 5.62668,4.1118 l 4.18962,4.11181 6.34823,-2.54632 6.34823,-2.54632 0.30633,-5.7809 c 0.16848,-3.17949 0.78608,-6.35896 1.37245,-7.06548 1.48788,-1.79279 20.15456,-1.79279 21.64244,0 0.58637,0.70652 1.20397,3.88599 1.37245,7.06548 l 0.30633,5.7809 6.34823,2.54632 6.34823,2.54632 4.18962,-4.11181 C 373.69037,160.85031 376.24574,159 377.06467,159 379.25135,159 392,172.21976 392,174.48724 c 0,1.06538 -1.80294,3.77411 -4.00652,6.01941 l -4.00653,4.08235 2.74266,6.2055 2.74266,6.2055 h 5.69244 c 8.19315,0 8.83529,0.94573 8.83529,13.01241 0,6.81624 -0.38671,10.10897 -1.25,10.64344 -0.6875,0.42564 -3.95,0.66304 -7.25,0.52756 l -6,-0.24633 -2.73457,6.75933 -2.73458,6.75933 3.98458,4.05998 C 390.20694,240.74871 392,243.49734 392,244.62379 392,246.76177 379.1325,260 377.05439,260 c -0.62704,0 -3.25829,-1.96019 -5.84723,-4.35598 l -4.70716,-4.35598 -5,2.34312 c -2.75,1.28871 -5.5625,2.3489 -6.25,2.35597 -0.87912,0.009 -1.25,2.07936 -1.25,6.97769 0,5.86245 -0.30615,7.12866 -1.93426,8 -2.4818,1.32822 -18.01718,1.29387 -20.31574,-0.0449 z M 346.01531,258.25 c 0.008,-3.1625 0.36339,-6.29779 0.78881,-6.9673 0.42543,-0.66952 3.68104,-2.12571 7.23469,-3.23598 3.55365,-1.11026 7.81119,-2.92201 9.46119,-4.0261 4.17827,-2.79588 5.05217,-2.59253 9.48366,2.20674 l 3.90341,4.22736 2.55646,-2.40167 c 3.33719,-3.13513 3.23556,-4.00251 -0.94353,-8.05305 -4.02581,-3.90197 -4.24158,-5.27149 -1.53099,-9.71706 1.07884,-1.76939 2.88195,-6.02079 4.0069,-9.44756 1.12495,-3.42677 2.60308,-6.5847 3.28473,-7.01762 0.68165,-0.43293 3.60186,-0.79403 6.48936,-0.80245 L 396,213 v -4 -4 h -5.87756 c -6.60161,0 -7.20172,-0.465 -9.03394,-7 -0.69391,-2.475 -2.3477,-6.38013 -3.67508,-8.67807 -3.15415,-5.4604 -3.06608,-6.29702 1.08658,-10.32193 4.17011,-4.04183 4.2781,-4.92039 0.98505,-8.01404 l -2.51494,-2.36267 -3.77722,3.68836 c -4.28322,4.18245 -6.14104,4.49472 -10.57486,1.77748 -1.71491,-1.05099 -5.59303,-2.69465 -8.61803,-3.6526 -7.56918,-2.39697 -8,-2.88483 -8,-9.05897 L 346,156 h -4 -4 v 5.37756 c 0,6.17414 -0.43082,6.662 -8,9.05897 -3.025,0.95795 -6.90312,2.60161 -8.61803,3.6526 -4.43382,2.71724 -6.29164,2.40497 -10.57486,-1.77748 l -3.77722,-3.68836 -2.51494,2.36267 c -3.29305,3.09365 -3.18506,3.97221 0.98505,8.01404 4.15266,4.02491 4.24073,4.86153 1.08658,10.32193 -1.32738,2.29794 -2.98117,6.20307 -3.67508,8.67807 -1.83222,6.535 -2.43233,7 -9.03394,7 H 288 v 4 4 h 4.91821 c 7.07699,0 7.90772,0.58667 9.71145,6.85836 0.89238,3.1029 2.69078,7.48118 3.99643,9.7295 3.12552,5.38213 3.01568,6.39778 -1.12609,10.41214 -4.1707,4.0424 -4.27827,4.92023 -0.98235,8.01658 l 2.51764,2.3652 4.51134,-4.42755 4.51134,-4.42754 4.72102,2.63731 c 2.59655,1.45052 7.17041,3.35857 10.16412,4.24011 2.99372,0.88153 5.79933,2.16374 6.23469,2.84934 0.43537,0.6856 0.79847,3.83405 0.80689,6.99655 L 338,264 h 4 4 l 0.0153,-5.75 z M 334,241.1243 c -5.33347,-1.75503 -11.25421,-5.37851 -15.14353,-9.26783 -15.29001,-15.29001 -11.18441,-40.60222 8.33998,-51.41839 C 332.02044,177.76567 333.35901,177.5 342,177.5 c 8.64099,0 9.97956,0.26567 14.80355,2.93808 23.95888,13.27279 23.38975,45.75658 -1.0194,58.18392 -5.62582,2.86425 -16.78776,4.1464 -21.78415,2.5023 z m 16.06535,-8.1259 c 4.65824,-1.29404 11.4887,-7.20394 13.98783,-12.10265 6.1432,-12.04165 1.62245,-26.94456 -10.1107,-33.33054 -10.82339,-5.89083 -25.29872,-2.72159 -31.99004,7.00392 -5.44427,7.91298 -6.24331,18.05591 -2.06271,26.18407 2.7525,5.35159 9.65429,11.24788 14.65195,12.51736 3.50011,0.88907 11.87186,0.7423 15.52367,-0.27216 z m -83.86525,-78.70827 0.2999,-5.70987 6.33805,-2.17819 c 3.48593,-1.198 6.83843,-2.67855 7.45,-3.29012 1.77978,-1.77978 3.9021,-1.30396 6.87108,1.5405 2.31026,2.21337 3.02247,2.44172 4.30245,1.37944 1.35078,-1.12105 1.1806,-1.67539 -1.42555,-4.64364 l -2.95944,-3.37062 2.96091,-6.25881 c 1.62851,-3.44235 2.96128,-7.03049 2.96171,-7.97364 10e-4,-2.25372 3.00921,-3.78518 7.43505,-3.78518 2.50288,0 3.56574,-0.44711 3.56574,-1.5 0,-1.05289 -1.06286,-1.5 -3.56574,-1.5 -4.42584,0 -7.43401,-1.53146 -7.43505,-3.78518 -4.3e-4,-0.94315 -1.3332,-4.53129 -2.96171,-7.97364 l -2.96091,-6.258815 2.92336,-3.329526 c 2.15545,-2.454922 2.62954,-3.623346 1.80482,-4.448067 -0.82472,-0.824721 -1.88553,-0.473163 -4.03838,1.338344 -3.39791,2.859156 -4.97151,3.027491 -8.6121,0.921275 C 277.69443,92.619806 274.25,91.138474 271.5,90.172543 266.6661,88.474646 266.48979,88.276514 266.1925,84.208153 265.94792,80.860992 265.49933,80 264,80 c -1.49933,0 -1.94792,0.860992 -2.1925,4.208153 -0.29729,4.068361 -0.4736,4.266493 -5.3075,5.96439 -2.75,0.965931 -6.19443,2.447263 -7.65429,3.291848 -3.64692,2.109884 -4.80559,1.948225 -8.00484,-1.116843 -2.31026,-2.21337 -3.02247,-2.441719 -4.30245,-1.379435 -1.35078,1.121049 -1.1806,1.675387 1.42555,4.643634 l 2.95944,3.370618 -2.96091,6.258815 c -1.62851,3.44235 -2.96128,7.03049 -2.96171,7.97364 -0.001,2.37515 -3.57041,4.05424 -7.61464,3.5821 -2.73999,-0.31988 -3.38615,-0.052 -3.38615,1.40388 0,1.39588 0.79932,1.7992 3.56574,1.7992 4.42584,0 7.43401,1.53146 7.43505,3.78518 4.3e-4,0.94315 1.35908,4.58601 3.01921,8.09524 l 3.01843,6.38042 -2.63463,3.45417 c -1.92879,2.52877 -2.33756,3.75123 -1.5258,4.56299 0.81175,0.81175 1.86199,0.38723 3.92013,-1.58459 3.00895,-2.88277 5.12784,-3.36744 6.91382,-1.58146 0.61157,0.61157 3.96407,2.09212 7.45,3.29012 l 6.33805,2.17819 0.2999,5.70987 C 262.05401,159.12814 262.38995,160 264,160 c 1.61005,0 1.94599,-0.87186 2.2001,-5.70987 z M 253,141.54546 c -16.93405,-8.88632 -19.47901,-31.07787 -4.88924,-42.633185 13.15782,-10.421185 30.15602,-6.764652 38.41784,8.264175 9.1051,16.56281 -3.62416,36.88621 -23.0286,36.76722 -4.31558,-0.0265 -7.26332,-0.69973 -10.5,-2.39821 z m 20.76344,-8.20219 c 9.01685,-6.67942 10.40684,-18.52399 3.1445,-26.79534 -3.69844,-4.21229 -8.58677,-5.92934 -15.09901,-5.30359 -13.88582,1.33425 -20.2631,17.93187 -11.08221,28.84274 1.47077,1.7479 4.04644,3.80048 5.7237,4.56128 4.34509,1.9709 13.85873,1.25375 17.31302,-1.30509 z"
       id="path819"
       inkscape:connector-curvature="0" />
  </g>
</svg>
