<?xml version="1.0" encoding="UTF-8" standalone="no"?>
<!-- Created with Inkscape (http://www.inkscape.org/) -->

<svg
   xmlns:dc="http://purl.org/dc/elements/1.1/"
   xmlns:cc="http://creativecommons.org/ns#"
   xmlns:rdf="http://www.w3.org/1999/02/22-rdf-syntax-ns#"
   xmlns:svg="http://www.w3.org/2000/svg"
   xmlns="http://www.w3.org/2000/svg"
   xmlns:sodipodi="http://sodipodi.sourceforge.net/DTD/sodipodi-0.dtd"
   xmlns:inkscape="http://www.inkscape.org/namespaces/inkscape"
   version="1.1"
   id="svg2"
   width="1800.954"
   height="1800.9547"
   viewBox="0 0 1800.954 1800.9548"
   sodipodi:docname="Logotipo_UIS.svg"
   inkscape:version="0.92.2 2405546, 2018-03-11">
  <metadata
     id="metadata8">
    <rdf:RDF>
      <cc:Work
         rdf:about="">
        <dc:format>image/svg+xml</dc:format>
        <dc:type
           rdf:resource="http://purl.org/dc/dcmitype/StillImage" />
        <dc:title></dc:title>
      </cc:Work>
    </rdf:RDF>
  </metadata>
  <defs
     id="defs6" />
  <sodipodi:namedview
     pagecolor="#ffffff"
     bordercolor="#666666"
     borderopacity="1"
     objecttolerance="10"
     gridtolerance="10"
     guidetolerance="10"
     inkscape:pageopacity="0"
     inkscape:pageshadow="2"
     inkscape:window-width="1364"
     inkscape:window-height="732"
     id="namedview4"
     showgrid="false"
     fit-margin-top="0"
     fit-margin-left="0"
     fit-margin-right="0"
     fit-margin-bottom="0"
     inkscape:zoom="0.16889314"
     inkscape:cx="-120.31351"
     inkscape:cy="900.47736"
     inkscape:window-x="0"
     inkscape:window-y="35"
     inkscape:window-maximized="0"
     inkscape:current-layer="svg2" />
  <path
     style="fill:#69b545;stroke-width:1.33333325"
     d="m 383.92378,1504.3413 c -14.4814,-0.7176 -18.7172,-1.438 -25.7436,-4.3784 -18.8498,-7.8881 -34.0082,-22.189 -43.3204,-40.8698 l -5.596,-11.2261 -1.0187,-103.4406 c -0.5604,-56.8923 -0.8619,-299.9405 -0.6701,-540.10719 l 0.3488,-436.66665 4.252,-10.23104 c 5.7222,-13.76855 10.0046,-20.26775 19.6347,-29.7989 8.8753,-8.78414 19.0531,-14.72402 33.4466,-19.51977 l 9.3333,-3.10976 522.6667,-0.004 c 398.34832,-0.003 526.59742,0.37936 539.19252,1.60648 14.0571,1.36955 17.9413,2.28251 26,6.11109 19.1633,9.10418 34.4769,26.06646 41.8078,46.30892 l 3.6106,9.96991 0.3947,455.99999 c 0.217,250.80002 -0.087,492.89992 -0.6756,537.99992 l -1.0702,82 -3.8471,9.3333 c -8.3815,20.334 -21.4571,33.7352 -43.3939,44.4748 l -12.6478,6.1919 -522.68552,0.1072 c -287.477,0.059 -530.4855,-0.2792 -540.0188,-0.7517 z m 1036.66662,-19.8087 24.6667,-0.8801 10,-4.8127 c 15.9459,-7.6742 25.8614,-20.0414 31.4189,-39.1873 2.1895,-7.5429 2.3245,-37.8672 2.3624,-530.66663 0.03,-393.66301 -0.3464,-525.22099 -1.526,-533.01577 -4.0738,-26.919 -24.502,-47.03758 -51.2529,-50.47614 -5.8279,-0.74912 -216.5481,-1.25651 -530.42642,-1.2772 -574.2337,-0.0379 -531.2185,-0.68606 -547.9994,8.25805 -9.7166,5.17888 -20.4083,16.46396 -25.1171,26.51108 l -3.437,7.33333 -1.0606,56.66667 c -0.5833,31.16666 -0.8776,272.96666 -0.654,537.33328 l 0.4066,480.66663 4.3751,8.995 c 6.0496,12.4375 16.6223,23.4917 27.8629,29.1319 8.7767,4.4039 9.6461,4.5622 29.0475,5.2887 28.5105,1.0675 1001.62032,1.1914 1031.33332,0.1312 z m -556.12092,-169.6324 -3.4542,-1.3283 -0.8762,-32.9597 c -1.0944,-41.1647 -0.82,-747.12887 0.2988,-768.90443 l 0.8192,-15.94478 5.3333,-1.26789 c 6.8055,-1.61785 68.5059,-1.63959 77.3334,-0.0272 l 6.6666,1.21768 V 904.558 c 0,224.8798 -0.4994,409.3723 -1.1097,409.9834 -1.6287,1.6307 -80.8347,1.965 -85.0112,0.3589 z m -61.2124,-11.2246 c -12.1,-3.1707 -29.5,-8.6016 -38.6667,-12.0686 -14.7451,-5.577 -55.2403,-25.1458 -68,-32.8601 -20.5893,-12.448 -49.1714,-34.3947 -66.3333,-50.9339 l -12.3333,-11.8857 V 904.7861 613.64491 l 9.921,-9.42404 c 11.7862,-11.19569 35.0699,-30.19791 48.0071,-39.17929 13.0518,-9.06099 32.5065,-20.72236 34.5712,-20.72236 2.9144,0 3.5007,54.93588 3.5007,328.00462 0,140.56426 0.3936,264.66676 0.8748,275.78336 l 0.8748,20.212 h 8.9585 c 4.9272,0 10.8335,-0.375 13.1252,-0.8333 l 4.1667,-0.8333 0.099,-314.16672 c 0.054,-172.79166 0.5043,-316.82401 1,-320.07187 l 0.9011,-5.90522 11.3334,-4.45436 c 26.2826,-10.32989 60.8981,-20.29061 70.8003,-20.37302 3.421,-0.0284 3.4785,0.13306 4.3333,12.17597 1.1316,15.94219 1.1316,767.64812 0,783.59022 -0.7101,10.0051 -1.2508,12.1858 -3,12.0989 -1.1734,-0.058 -12.0336,-2.7002 -24.1336,-5.8709 z m 176.4472,-65.0231 c 0.4859,-39.0499 0.884,-113.4499 0.8847,-165.3333 l 10e-4,-94.33333 43.00002,0.02 c 24.7475,0.012 43.849,0.5567 45,1.2839 1.7356,1.0964 2.0882,13.4218 2.6667,93.20293 0.3667,50.5667 1.0019,92.2741 1.4115,92.6832 0.4097,0.409 6.7097,0.9086 14,1.11 l 13.2552,0.3663 -0.4596,-107.3334 c -0.2527,-59.0333 -0.5597,-107.44033 -0.6823,-107.57123 -0.1225,-0.1308 -26.416,-0.7308 -58.4299,-1.3333 -32.014,-0.6025 -58.61602,-1.5045 -59.11562,-2.0045 -0.4996,-0.4999 -0.9993,-101.11944 -1.1105,-223.59894 -0.1604,-176.67812 0.1425,-223.03485 1.4658,-224.35892 2.8251,-2.82681 31.91682,4.58694 69.66542,17.7536 14.7254,5.13622 56.0778,25.2116 66.4673,32.26803 3.9237,2.66491 7.6278,4.84528 8.2312,4.84528 0.6035,0 3.8484,2.1 7.2109,4.66667 3.3625,2.56666 6.5058,4.66666 6.985,4.66666 0.4791,0 6.5263,4.35 13.4379,9.66667 6.9118,5.31666 14.7645,11.34674 17.4506,13.40018 2.6861,2.05343 10.1338,8.94092 16.5504,15.30554 l 11.6667,11.57201 v 107.69446 107.69447 h -49.3333 -49.3334 v -94 -94 h -14 -14 v 108 108 l 61,0.0204 c 36.101,0.012 61.8164,0.53634 63,1.28437 1.7569,1.11032 2.0481,21.50469 2.3956,167.76885 l 0.3956,166.5048 -11.7932,11.2227 c -40.2177,38.2724 -86.2165,66.6006 -141.3158,87.0287 -21.044,7.8021 -54.75892,16.8368 -62.83022,16.8368 h -4.6215 z"
     id="path12"
     inkscape:connector-curvature="0" />
</svg>
