<svg xmlns="http://www.w3.org/2000/svg" width="1800.954" height="1800.955"><path d="M383.924 1504.341c-14.482-.717-18.717-1.438-25.744-4.378-18.85-7.888-34.008-22.19-43.32-40.87l-5.596-11.226-1.019-103.44c-.56-56.893-.862-299.941-.67-540.108l.349-436.666 4.252-10.231c5.722-13.769 10.004-20.268 19.634-29.8 8.876-8.784 19.054-14.723 33.447-19.52l9.333-3.109 522.667-.004c398.348-.003 526.598.38 539.193 1.607 14.057 1.37 17.94 2.282 26 6.11 19.163 9.105 34.476 26.067 41.807 46.31l3.611 9.97.395 456c.217 250.8-.087 492.9-.676 538l-1.07 82-3.847 9.333c-8.382 20.334-21.457 33.735-43.394 44.475l-12.648 6.191-522.685.108c-287.477.059-530.486-.28-540.02-.752zm1036.666-19.808l24.667-.88 10-4.813c15.946-7.674 25.861-20.042 31.419-39.187 2.19-7.543 2.325-37.868 2.362-530.667.03-393.663-.346-525.221-1.526-533.016-4.073-26.919-24.502-47.037-51.253-50.476-5.827-.75-216.548-1.257-530.426-1.277-574.234-.038-531.218-.686-548 8.258-9.716 5.179-20.408 16.464-25.116 26.51l-3.437 7.334-1.061 56.667c-.583 31.167-.878 272.967-.654 537.333l.407 480.667 4.375 8.995c6.05 12.437 16.622 23.491 27.863 29.132 8.776 4.404 9.646 4.562 29.047 5.288 28.51 1.068 1001.62 1.192 1031.333.132zM864.47 1314.9l-3.455-1.328-.876-32.96c-1.094-41.165-.82-747.129.299-768.904l.82-15.945 5.332-1.268c6.806-1.618 68.506-1.64 77.334-.027l6.666 1.218v408.872c0 224.88-.499 409.372-1.11 409.983-1.628 1.631-80.834 1.965-85.01.36zm-61.213-11.224c-12.1-3.171-29.5-8.602-38.667-12.069-14.745-5.577-55.24-25.146-68-32.86-20.589-12.448-49.171-34.395-66.333-50.934l-12.333-11.886V613.645l9.92-9.424c11.787-11.196 35.07-30.198 48.008-39.18 13.052-9.06 32.506-20.722 34.571-20.722 2.914 0 3.5 54.936 3.5 328.005 0 140.564.394 264.667.876 275.783l.874 20.212h8.959c4.927 0 10.833-.375 13.125-.833l4.167-.833.099-314.167c.054-172.792.504-316.824 1-320.072l.9-5.905 11.334-4.455c26.283-10.33 60.898-20.29 70.8-20.373 3.422-.028 3.48.133 4.334 12.176 1.131 15.943 1.131 767.649 0 783.59-.71 10.006-1.25 12.186-3 12.1-1.174-.059-12.034-2.7-24.134-5.871zm176.447-65.023c.486-39.05.884-113.45.885-165.334l.001-94.333 43 .02c24.747.012 43.849.557 45 1.284 1.736 1.096 2.088 13.422 2.667 93.203.366 50.566 1.002 92.274 1.411 92.683.41.409 6.71.909 14 1.11l13.255.366-.46-107.333c-.252-59.034-.559-107.44-.681-107.571-.123-.131-26.416-.731-58.43-1.334-32.014-.602-58.616-1.504-59.116-2.004s-1-101.12-1.11-223.6c-.16-176.677.142-223.034 1.465-224.358 2.825-2.827 31.917 4.587 69.666 17.754 14.725 5.136 56.078 25.211 66.467 32.268 3.924 2.664 7.628 4.845 8.231 4.845.604 0 3.849 2.1 7.211 4.666 3.363 2.567 6.506 4.667 6.985 4.667.48 0 6.526 4.35 13.438 9.667 6.912 5.316 14.764 11.347 17.45 13.4 2.687 2.053 10.134 8.94 16.551 15.306l11.667 11.572v215.388h-98.667v-188h-28v216l61 .02c36.101.013 61.816.537 63 1.285 1.757 1.11 2.048 21.505 2.396 167.77l.395 166.504-11.793 11.223c-40.218 38.272-86.216 66.6-141.316 87.028-21.044 7.802-54.759 16.837-62.83 16.837h-4.622z" fill="#69b545"/></svg>