<svg xmlns="http://www.w3.org/2000/svg" width="269.583" height="249.597" viewBox="0 0 252.734 233.997"><path d="M42.189 146.812v5.628h8.143v-5.628c0-2.632-1.63-4.304-4.049-4.304-2.422 0-4.094 1.672-4.094 4.304m-10.459 0v5.628h8.14v-5.628c0-2.632-1.625-4.304-4.05-4.304-2.422 0-4.09 1.672-4.09 4.304m20.993 0v5.628h4.036v-9.932c-2.424 0-4.036 1.672-4.036 4.304m-27.366-4.304l-.065.003v9.929h4.114v-5.628c0-2.632-1.628-4.304-4.05-4.304" fill="#f14b1c"/><path d="M51.816 85.653a3.705 3.705 0 0 0-.416-.023h-.002l-.054.003-.053-.003a5.105 5.105 0 0 0-5.104 5.11v30.045c0 2.927-2.371 5.31-5.29 5.342a5.351 5.351 0 0 1-5.287-5.342V90.741a5.11 5.11 0 0 0-5.107-5.11l-.053.002-.05-.003c-.144 0-.285.008-.42.023a5.1 5.1 0 0 0-4.688 5.088v30.044c0 8.582 6.974 15.568 15.552 15.568h.106c8.576 0 15.554-6.986 15.554-15.568V90.741a5.104 5.104 0 0 0-4.688-5.088m106.46-.023a15.483 15.483 0 0 0-10.502 4.097 15.469 15.469 0 0 0-10.5-4.097c-8.576 0-15.553 6.984-15.553 15.568v30.044a5.106 5.106 0 1 0 10.211 0v-30.044a5.35 5.35 0 0 1 5.343-5.344 5.346 5.346 0 0 1 5.339 5.344v30.044a5.111 5.111 0 0 0 5.11 5.11h.107a5.108 5.108 0 0 0 5.105-5.11v-30.044a5.348 5.348 0 0 1 5.34-5.344 5.35 5.35 0 0 1 5.343 5.344v30.044a5.106 5.106 0 0 0 5.106 5.11 5.107 5.107 0 0 0 5.103-5.11v-30.044c0-8.584-6.979-15.568-15.552-15.568m28.507 7.438c-4.846 4.85-7.514 11.3-7.514 18.16 0 6.86 2.668 13.308 7.514 18.156 10.006 10.017 26.282 10.017 36.285 0a4.63 4.63 0 0 0 0-6.551 4.624 4.624 0 0 0-6.55 0c-6.39 6.395-16.79 6.395-23.186 0a16.325 16.325 0 0 1-4.798-11.604c0-4.386 1.704-8.508 4.798-11.605 6.396-6.4 16.796-6.4 23.187 0a4.627 4.627 0 0 0 6.55 0 4.635 4.635 0 0 0 0-6.556c-10.004-10.012-26.28-10.012-36.286 0m-70.79 7.718c0-8.386-6.817-15.211-15.199-15.211H67.652c-.172 0-.342.01-.513.029a4.989 4.989 0 0 0-4.476 4.964l.001.055-.001.05a4.995 4.995 0 0 0 4.99 4.998h33.141c2.86 0 5.19 2.314 5.217 5.17a5.225 5.225 0 0 1-5.217 5.17H77.63c-8.376 0-15.194 6.827-15.194 15.214l.002.05-.002.055v9.89a4.991 4.991 0 0 0 4.988 4.992l.051-.001.053.001a4.987 4.987 0 0 0 4.987-4.992l-.103-9.944c.031-2.853 2.359-5.17 5.218-5.17h23.164c8.382 0 15.199-6.825 15.199-15.212v-.108M66.606 152.56c-1.509 0-2.655-.322-3.634-1.317l1.26-1.257c.627.63 1.48.838 2.402.838 1.147 0 1.762-.432 1.762-1.232 0-.35-.098-.642-.308-.84-.196-.18-.42-.28-.88-.349l-1.203-.167c-.851-.126-1.48-.39-1.927-.827-.476-.474-.714-1.117-.714-1.96 0-1.776 1.313-3.02 3.467-3.02 1.37 0 2.362.336 3.214 1.161l-1.23 1.218c-.629-.601-1.384-.687-2.04-.687-1.034 0-1.538.573-1.538 1.26 0 .251.083.519.294.714.195.182.516.335.922.392l1.174.167c.909.126 1.482.378 1.9.77.532.504.77 1.232.77 2.113 0 1.93-1.608 3.023-3.69 3.023m10.093-7.866c-.279-.319-.712-.53-1.243-.53-.532 0-.979.211-1.26.53-.377.42-.474.883-.474 2.801 0 1.916.097 2.379.475 2.797.28.323.727.532 1.259.532.53 0 .964-.209 1.243-.532.377-.418.49-.881.49-2.797 0-1.918-.113-2.382-.49-2.8zm1.44 6.772c-.699.701-1.552 1.094-2.683 1.094-1.133 0-1.999-.393-2.7-1.094-1.006-1.005-.978-2.251-.978-3.971 0-1.722-.028-2.967.978-3.974.701-.7 1.567-1.092 2.7-1.092 1.131 0 1.984.393 2.683 1.092 1.006 1.007.993 2.252.993 3.974 0 1.72.013 2.966-.993 3.971m6.738-7.218h-1.83v2.63h1.83c.853 0 1.413-.546 1.413-1.315 0-.769-.56-1.315-1.413-1.315zm1.51 8.227l-1.943-3.974h-1.396v3.974h-1.943v-9.963h3.898c2.027 0 3.23 1.385 3.23 3.051 0 1.399-.854 2.265-1.817 2.615l2.222 4.297h-2.251m7.815-4.185h-2.027v2.45h2.027c.881 0 1.3-.56 1.3-1.231s-.419-1.218-1.3-1.218zm-.126-4.042h-1.9v2.295h1.9c.826 0 1.287-.463 1.287-1.148 0-.687-.461-1.147-1.287-1.147zm.323 8.227h-4.167v-9.963h4c1.942 0 3.074 1.092 3.074 2.8 0 1.105-.727 1.819-1.23 2.056.6.28 1.37.91 1.37 2.239 0 1.86-1.272 2.868-3.047 2.868m9.604-7.781c-.28-.319-.714-.53-1.246-.53-.53 0-.978.211-1.257.53-.377.42-.475.883-.475 2.801 0 1.916.098 2.379.475 2.797.28.323.727.532 1.257.532.532 0 .965-.209 1.246-.532.377-.418.488-.881.488-2.797 0-1.918-.111-2.382-.488-2.8zm1.44 6.772c-.7.701-1.552 1.094-2.686 1.094-1.131 0-1.998-.393-2.696-1.094-1.007-1.005-.978-2.251-.978-3.971 0-1.722-.03-2.967.978-3.974.698-.7 1.565-1.092 2.696-1.092 1.134 0 1.986.393 2.685 1.092 1.006 1.007.993 2.252.993 3.974 0 1.72.013 2.966-.993 3.971m8.851 1.009l-3.943-6.115v6.115h-1.943v-9.963h1.734l3.942 6.102v-6.102h1.943v9.963h-1.733m9.924 0l-3.942-6.115v6.115h-1.942v-9.963h1.733l3.942 6.102v-6.102h1.944v9.963h-1.735m4.042 0v-9.963h6.555v1.736h-4.613v2.337h3.93v1.735h-3.93v2.42h4.613v1.735h-6.554" fill="#8c6851"/><path d="M143.444 152.56c-2.042 0-3.664-1.385-3.664-3.498v-6.55h1.943v6.479c0 1.146.672 1.833 1.721 1.833 1.047 0 1.732-.687 1.732-1.833v-6.479h1.929v6.55c0 2.113-1.621 3.498-3.661 3.498m13.435-.085h-1.735l-3.942-6.115v6.115h-1.942v-9.963h1.733l3.942 6.102v-6.102h1.944v9.963m2.307 0h1.942v-9.963h-1.942zm7.871 0h-1.454l-3.285-9.963h2.013l2 6.493 1.997-6.493h2.028l-3.3 9.963m11.045 0h-6.555v-9.963h6.555v1.736h-4.612v2.337h3.927v1.735h-3.927v2.42h4.612v1.735m9.424 0h-2.252l-1.943-3.974h-1.397v3.974h-1.943v-9.963h3.9c2.027 0 3.228 1.385 3.228 3.051 0 1.399-.851 2.265-1.816 2.615l2.223 4.297m-5.592-8.227v2.63h1.83c.854 0 1.413-.546 1.413-1.315 0-.769-.559-1.315-1.412-1.315h-1.831m9.925 8.312c-1.509 0-2.654-.322-3.633-1.317l1.257-1.257c.629.63 1.483.838 2.405.838 1.146 0 1.761-.432 1.761-1.232 0-.35-.098-.642-.307-.84-.196-.18-.42-.28-.881-.349l-1.201-.167c-.853-.126-1.483-.39-1.93-.827-.476-.474-.713-1.117-.713-1.96 0-1.776 1.314-3.02 3.467-3.02 1.369 0 2.363.336 3.215 1.161l-1.23 1.218c-.63-.601-1.385-.687-2.04-.687-1.035 0-1.54.573-1.54 1.26a.97.97 0 0 0 .294.714c.197.182.518.335.922.392l1.175.167c.91.126 1.482.378 1.901.77.533.504.77 1.232.77 2.113 0 1.93-1.609 3.023-3.692 3.023m5.51-.085h1.942v-9.963h-1.942zm8.052 0h-1.943v-8.227h-2.6v-1.736h7.142v1.736h-2.599v8.227m10.723 0h-6.555v-9.963h6.555v1.736h-4.613v2.337h3.928v1.735h-3.928v2.42h4.613v1.735m-2.949-10.927h-1.216l.894-2.38h1.915l-1.593 2.38m7.578 11.012c-1.51 0-2.657-.322-3.635-1.317l1.258-1.257c.63.63 1.481.838 2.404.838 1.146 0 1.762-.432 1.762-1.232 0-.35-.098-.642-.308-.84-.196-.18-.42-.28-.88-.349l-1.203-.167c-.852-.126-1.482-.39-1.929-.827-.476-.474-.712-1.117-.712-1.96 0-1.776 1.313-3.02 3.466-3.02 1.37 0 2.362.336 3.215 1.161l-1.23 1.218c-.628-.601-1.384-.687-2.041-.687-1.035 0-1.537.573-1.537 1.26 0 .251.083.519.293.714.196.182.517.335.923.392l1.174.167c.909.126 1.481.378 1.9.77.532.504.77 1.232.77 2.113 0 1.93-1.608 3.023-3.69 3.023" fill="#c0a896"/></svg>