<?xml version="1.0" encoding="UTF-8" standalone="no"?>
<!-- Created with Inkscape (http://www.inkscape.org/) -->

<svg
   xmlns:dc="http://purl.org/dc/elements/1.1/"
   xmlns:cc="http://creativecommons.org/ns#"
   xmlns:rdf="http://www.w3.org/1999/02/22-rdf-syntax-ns#"
   xmlns:svg="http://www.w3.org/2000/svg"
   xmlns="http://www.w3.org/2000/svg"
   xmlns:sodipodi="http://sodipodi.sourceforge.net/DTD/sodipodi-0.dtd"
   xmlns:inkscape="http://www.inkscape.org/namespaces/inkscape"
   version="1.1"
   id="svg2"
   width="431.9014"
   height="347.5"
   viewBox="0 0 431.9014 347.5"
   sodipodi:docname="visualization.svg"
   inkscape:version="0.92.4 5da689c313, 2019-01-14">
  <metadata
     id="metadata8">
    <rdf:RDF>
      <cc:Work
         rdf:about="">
        <dc:format>image/svg+xml</dc:format>
        <dc:type
           rdf:resource="http://purl.org/dc/dcmitype/StillImage" />
        <dc:title />
      </cc:Work>
    </rdf:RDF>
  </metadata>
  <defs
     id="defs6" />
  <sodipodi:namedview
     pagecolor="#ffffff"
     bordercolor="#666666"
     borderopacity="1"
     objecttolerance="10"
     gridtolerance="10"
     guidetolerance="10"
     inkscape:pageopacity="0"
     inkscape:pageshadow="2"
     inkscape:window-width="1364"
     inkscape:window-height="704"
     id="namedview4"
     showgrid="false"
     fit-margin-top="0"
     fit-margin-left="0"
     fit-margin-right="0"
     fit-margin-bottom="0"
     inkscape:zoom="0.65186405"
     inkscape:cx="316.40934"
     inkscape:cy="252.83466"
     inkscape:window-x="0"
     inkscape:window-y="27"
     inkscape:window-maximized="0"
     inkscape:current-layer="svg2" />
  <g
     id="g817"
     transform="translate(-36.10536,-80.5)">
    <path
       style="fill:#e6e91c;fill-opacity:1"
       d="m 180,244 v -24 h 24 24 v 24 24 h -24 -24 z"
       id="path827"
       inkscape:connector-curvature="0" />
    <path
       style="fill:#247da6;fill-opacity:1"
       d="m 268,244 v -24 h 24 24 v 24 24 h -24 -24 z m 26.8125,-44.68311 c 0.72187,-0.28887 1.58438,-0.25335 1.91667,0.0789 0.33229,0.33229 -0.25834,0.56864 -1.3125,0.52522 -1.16495,-0.048 -1.4019,-0.28494 -0.60417,-0.60416 z M 271.5,178 c -11.54018,-11.55 -20.75714,-21 -20.48214,-21 0.275,0 9.94196,9.45 21.48214,21 11.54018,11.55 20.75714,21 20.48214,21 -0.275,0 -9.94196,-9.45 -21.48214,-21 z M 39.5,85 c 0.995486,-1.1 2.034975,-2 2.309975,-2 0.275,0 -0.314489,0.9 -1.309975,2 -0.995486,1.1 -2.034975,2 -2.309975,2 -0.275,0 0.314489,-0.9 1.309975,-2 z M 463.40499,84.75 461.5,82.5 l 2.25,1.904988 C 465.86444,86.195206 466.45524,87 465.65499,87 c -0.18976,0 -1.20226,-1.0125 -2.25,-2.25 z"
       id="path825"
       inkscape:connector-curvature="0" />
    <path
       style="fill:#247da6;fill-opacity:1"
       d="M 46.222506,382.4433 C 44.008591,380.89261 44,380.76892 44,350.4433 V 320 h 208 208 v 30.4433 c 0,30.32562 -0.009,30.44931 -2.22251,32 C 455.78362,383.83986 434.61469,384 252,384 69.385311,384 48.216377,383.83986 46.222506,382.4433 Z M 258.78212,370.44695 c 7.4419,-3.10866 13.17396,-11.13502 13.17396,-18.44695 0,-9.8383 -10.13939,-20 -19.95608,-20 -9.70004,0 -19.91334,10.11314 -19.97804,19.78212 -0.0482,7.19796 5.24808,14.97465 12.47804,18.32202 4.91297,2.27463 9.39968,2.38232 14.28212,0.34281 z"
       id="path823"
       inkscape:connector-curvature="0" />
    <path
       style="fill:#ea1734;fill-opacity:1"
       d="m 278,172.5 -17.48576,-17.5072 17.5,-17.5 17.5,-17.5 L 313,137.5 l 17.48576,17.5072 -17.5,17.5 -17.5,17.5 z"
       id="path821"
       inkscape:connector-curvature="0" />
    <path
       style="fill:#1e2426"
       d="M 173.57143,426.42857 C 172.70714,425.56429 172,424.47143 172,424 c 0,-0.47143 0.70714,-1.56429 1.57143,-2.42857 1.25999,-1.25999 4.03463,-1.57143 14,-1.57143 H 200 V 406.01806 392.03612 L 122.75,391.76806 45.5,391.5 42.373287,389.26969 c -6.877512,-4.90577 -6.421345,6.55692 -6.133268,-154.11866 0.259422,-144.692728 0.264416,-145.010576 2.32177,-147.766044 1.133983,-1.518775 3.304482,-3.689214 4.82333,-4.823197 L 46.146661,80.5 H 252 457.85334 l 2.82333,2.091948 c 1.55283,1.150571 3.83583,3.579618 5.07333,5.397883 L 468,91.295766 V 235.74675 c 0,159.90745 0.46762,148.64328 -6.37329,153.52294 L 458.5,391.5 381.25,391.76806 304,392.03612 V 406.01806 420 h 12.42857 c 9.96537,0 12.74001,0.31144 14,1.57143 1.97358,1.97358 1.97358,2.88356 0,4.85714 C 329.02726,427.82988 320.5368,428 252,428 c -68.5368,0 -77.02726,-0.17012 -78.42857,-1.57143 z M 296,406 v -14 h -44 -44 v 14 14 h 44 44 z m 161.77749,-23.5567 c 2.21392,-1.55069 2.22251,-1.67438 2.22251,-32 V 320 H 252 44 v 30.4433 c 0,30.32562 0.0086,30.44931 2.222506,32 C 48.216377,383.83986 69.385311,384 252,384 c 182.61469,0 203.78362,-0.16014 205.77749,-1.5567 z M 244.5,370.10414 C 237.27004,366.75677 231.9738,358.98008 232.02196,351.78212 232.08666,342.11314 242.29996,332 252,332 c 9.81669,0 19.95608,10.1617 19.95608,20 0,7.31193 -5.73206,15.33829 -13.17396,18.44695 -4.88244,2.03951 -9.36915,1.93182 -14.28212,-0.34281 z m 16.33904,-9.48863 C 263.12448,358.33006 263.5,357.11423 263.5,352 c 0,-5.17437 -0.36329,-6.31783 -2.77273,-8.72727 C 258.31783,340.86329 257.17437,340.5 252,340.5 c -5.17437,0 -6.31783,0.36329 -8.72727,2.77273 -2.40074,2.40074 -2.77273,3.56055 -2.77273,8.64501 0,8.86293 3.84178,12.36732 12.83904,11.71147 3.61088,-0.26321 5.51439,-1.02809 7.5,-3.0137 z M 460,201.82874 C 460,100.71654 459.86392,91.507109 458.34501,89.828741 456.75196,88.068442 449.0358,88 252.17375,88 63.272526,88 47.517855,88.12636 45.828741,89.654988 44.078134,91.239265 44,96.024525 44,201.65499 V 312 H 252 460 Z M 173.57143,274.42857 C 172.21546,273.07261 172,268.90043 172,244 c 0,-24.90043 0.21546,-29.07261 1.57143,-30.42857 C 174.92739,212.21546 179.09957,212 204,212 c 24.90043,0 29.07261,0.21546 30.42857,1.57143 C 235.78454,214.92739 236,219.09957 236,244 c 0,24.90043 -0.21546,29.07261 -1.57143,30.42857 C 233.07261,275.78454 228.90043,276 204,276 c -24.90043,0 -29.07261,-0.21546 -30.42857,-1.57143 z M 228,244 v -24 h -24 -24 v 24 24 h 24 24 z m 33.03518,30.06574 C 260.39108,272.86222 260,261.36668 260,243.63717 c 0,-24.57059 0.21639,-28.7107 1.57143,-30.06574 1.35504,-1.35504 5.49515,-1.57143 30.06574,-1.57143 17.72951,0 29.22505,0.39108 30.42857,1.03518 1.845,0.98742 1.93426,2.39165 1.93426,30.42858 0,25.38792 -0.21414,29.60752 -1.57143,30.96481 -1.35729,1.35729 -5.57689,1.57143 -30.96481,1.57143 -28.03693,0 -29.44116,-0.0893 -30.42858,-1.93426 z M 316,244 v -24 h -24 -24 v 24 24 h 24 24 z M 272.10619,177.60628 C 253.6598,159.14491 250.81147,155.8896 251.32542,153.85628 252.02935,151.07142 292.95785,110 295.0291,110 296.88511,110 340,153.11606 340,154.97212 340,157.28927 297.86284,199 295.522,199 c -1.32291,0 -9.54972,-7.51638 -23.41581,-21.39372 z M 313,137.5 l -17.48576,-17.5072 -17.5,17.5 -17.5,17.5 L 278,172.5 l 17.48576,17.5072 17.5,-17.5 17.5,-17.5 z m -139.25,53.4199 c -1.60383,-0.93414 -1.75,-3.47324 -1.75,-30.39816 0,-25.37474 0.21417,-29.59306 1.57143,-30.95031 1.35729,-1.35729 5.57689,-1.57143 30.96481,-1.57143 28.03693,0 29.44116,0.0893 30.42858,1.93426 0.6441,1.20352 1.03518,12.69906 1.03518,30.42857 0,24.57059 -0.21639,28.7107 -1.57143,30.06574 -1.357,1.357 -5.48472,1.56728 -30.25,1.54102 -17.61201,-0.0187 -29.35386,-0.42373 -30.42857,-1.04969 z M 228,160 v -24 h -24 -24 v 24 24 h 24 24 z"
       id="path819"
       inkscape:connector-curvature="0" />
  </g>
</svg>
