<?xml version="1.0" encoding="UTF-8" standalone="no"?>
<svg
   xmlns:dc="http://purl.org/dc/elements/1.1/"
   xmlns:cc="http://creativecommons.org/ns#"
   xmlns:rdf="http://www.w3.org/1999/02/22-rdf-syntax-ns#"
   xmlns:svg="http://www.w3.org/2000/svg"
   xmlns="http://www.w3.org/2000/svg"
   xmlns:sodipodi="http://sodipodi.sourceforge.net/DTD/sodipodi-0.dtd"
   xmlns:inkscape="http://www.inkscape.org/namespaces/inkscape"
   width="824.95856"
   height="325.50479"
   viewBox="0 0 218.27002 86.122765"
   version="1.1"
   id="svg827"
   sodipodi:docname="education-horz.svg"
   inkscape:version="0.92.3 (2405546, 2018-03-11)">
  <metadata
     id="metadata353">
    <rdf:RDF>
      <cc:Work
         rdf:about="">
        <dc:format>image/svg+xml</dc:format>
        <dc:type
           rdf:resource="http://purl.org/dc/dcmitype/StillImage" />
        <dc:title />
      </cc:Work>
    </rdf:RDF>
  </metadata>
  <defs
     id="defs351" />
  <sodipodi:namedview
     pagecolor="#ffffff"
     bordercolor="#666666"
     borderopacity="1"
     objecttolerance="10"
     gridtolerance="10"
     guidetolerance="10"
     inkscape:pageopacity="0"
     inkscape:pageshadow="2"
     inkscape:window-width="1364"
     inkscape:window-height="732"
     id="namedview349"
     showgrid="false"
     inkscape:zoom="1.0594277"
     inkscape:cx="732.71788"
     inkscape:cy="201.70088"
     inkscape:window-x="0"
     inkscape:window-y="35"
     inkscape:window-maximized="0"
     inkscape:current-layer="svg827"
     fit-margin-top="0"
     fit-margin-left="0"
     fit-margin-right="0"
     fit-margin-bottom="0" />
  <path
     stroke-miterlimit="4"
     d="m 206.70717,42.772855 -0.0143,20.189872"
     id="path901"
     inkscape:connector-curvature="0"
     style="fill:none;stroke:#cccccc;stroke-width:0.62212664;stroke-linecap:butt;stroke-linejoin:miter;stroke-miterlimit:4;stroke-dasharray:none;stroke-opacity:1" />
  <path
     stroke-miterlimit="4"
     id="path903"
     d="M 10.154973,43.317216 V 63.668227"
     inkscape:connector-curvature="0"
     style="fill:none;stroke:#cccccc;stroke-width:0.62212664;stroke-linecap:butt;stroke-linejoin:miter;stroke-miterlimit:4;stroke-dasharray:none;stroke-opacity:1" />
  <path
     stroke-miterlimit="4"
     d="M 58.690183,18.716462 V 42.975046"
     id="path905"
     inkscape:connector-curvature="0"
     style="fill:none;stroke:#cccccc;stroke-width:0.62212664;stroke-linecap:butt;stroke-linejoin:miter;stroke-miterlimit:4;stroke-dasharray:none;stroke-opacity:1" />
  <path
     stroke-miterlimit="4"
     d="M 162.34332,18.814136 V 42.739882"
     id="path909"
     inkscape:connector-curvature="0"
     style="fill:none;stroke:#cccccc;stroke-width:0.62212664;stroke-linecap:butt;stroke-linejoin:miter;stroke-miterlimit:4;stroke-dasharray:none;stroke-opacity:1" />
  <path
     stroke-miterlimit="4"
     id="path907"
     d="M 110.61101,42.846888 V 63.197897"
     inkscape:connector-curvature="0"
     style="fill:none;stroke:#cccccc;stroke-width:0.62212664;stroke-linecap:butt;stroke-linejoin:miter;stroke-miterlimit:4;stroke-dasharray:none;stroke-opacity:1" />
  <path
     stroke-miterlimit="4"
     id="path5216"
     d="M 206.66674,43.124356 H 9.888703"
     inkscape:connector-curvature="0"
     style="fill:none;stroke:#cccccc;stroke-width:0.62212664;stroke-linecap:butt;stroke-linejoin:miter;stroke-miterlimit:4;stroke-dasharray:none;stroke-opacity:1" />
  <g
     transform="matrix(0.62212664,0,0,0.62212664,191.20378,46.466421)"
     id="g5174"
     style="fill-opacity:1;stroke:none">
    <rect
       stroke-miterlimit="4"
       id="rect5154"
       width="33.411999"
       height="13.826"
       x="7.2449999"
       y="24.656"
       rx="3.2520001"
       ry="3.2520001"
       style="fill:#247da6;stroke-width:0.236;stroke-miterlimit:4;stroke-dasharray:none;stroke-dashoffset:0" />
    <g
       aria-label="2016"
       style="font-style:normal;font-variant:normal;font-weight:400;font-stretch:normal;font-size:9.87800026px;line-height:1.25;font-family:Ubuntu;-inkscape-font-specification:Ubuntu;font-variant-ligatures:normal;font-variant-caps:normal;font-variant-numeric:normal;font-feature-settings:normal;text-align:start;letter-spacing:0;word-spacing:0;writing-mode:lr-tb;text-anchor:start;fill:#ffffff;stroke-width:0.26499999"
       id="text5158"
       font-style="normal"
       font-variant="normal"
       font-weight="400"
       font-stretch="normal"
       font-size="9.878"
       letter-spacing="0"
       word-spacing="0" />
  </g>
  <g
     transform="matrix(0.62212664,0,0,0.62212664,147.90376,-18.199911)"
     id="g5169"
     style="fill-opacity:1;stroke:none">
    <rect
       stroke-miterlimit="4"
       ry="2.8970001"
       rx="2.8970001"
       y="47.146"
       x="8.316"
       height="12.314"
       width="29.757999"
       id="rect5160"
       style="fill:#247da6;stroke-width:0.20999999;stroke-miterlimit:4;stroke-dasharray:none;stroke-dashoffset:0" />
    <g
       aria-label="2013"
       style="font-style:normal;font-variant:normal;font-weight:400;font-stretch:normal;font-size:7.05600023px;line-height:1.25;font-family:Ubuntu;-inkscape-font-specification:Ubuntu;font-variant-ligatures:normal;font-variant-caps:normal;font-variant-numeric:normal;font-feature-settings:normal;text-align:start;letter-spacing:0;word-spacing:0;writing-mode:lr-tb;text-anchor:start;fill:#ffffff;stroke-width:0.26499999"
       id="text5164"
       font-style="normal"
       font-variant="normal"
       font-weight="400"
       font-stretch="normal"
       font-size="7.056"
       letter-spacing="0"
       word-spacing="0" />
  </g>
  <g
     id="g5182"
     transform="matrix(0.62212664,0,0,0.62212664,95.299847,32.94512)"
     style="fill-opacity:1;stroke:none">
    <rect
       stroke-miterlimit="4"
       id="rect5176"
       width="29.757999"
       height="12.314"
       x="8.316"
       y="47.146"
       rx="2.8970001"
       ry="2.8970001"
       style="fill:#247da6;stroke-width:0.20999999;stroke-miterlimit:4;stroke-dasharray:none;stroke-dashoffset:0" />
    <g
       aria-label="2012"
       style="font-style:normal;font-variant:normal;font-weight:400;font-stretch:normal;font-size:7.05600023px;line-height:1.25;font-family:Ubuntu;-inkscape-font-specification:Ubuntu;font-variant-ligatures:normal;font-variant-caps:normal;font-variant-numeric:normal;font-feature-settings:normal;text-align:start;letter-spacing:0;word-spacing:0;writing-mode:lr-tb;text-anchor:start;fill:#ffffff;stroke-width:0.26499999"
       id="text5180"
       font-style="normal"
       font-variant="normal"
       font-weight="400"
       font-stretch="normal"
       font-size="7.056"
       letter-spacing="0"
       word-spacing="0" />
  </g>
  <g
     transform="matrix(0.62212664,0,0,0.62212664,169.03927,1.0853929)"
     id="g876">
    <circle
       stroke-miterlimit="4"
       id="path5184"
       cx="26.371"
       cy="63.201"
       r="17.440001"
       style="fill:#ececec;fill-opacity:1;stroke:none;stroke-width:0.264;stroke-miterlimit:4;stroke-dasharray:none;stroke-dashoffset:0" />
    <g
       transform="matrix(0.15702,0,0,0.15702,6.763,44.803)"
       id="g5078">
      <path
         id="path2"
         d="m 42.189,146.812 v 5.628 h 8.143 v -5.628 c 0,-2.632 -1.63,-4.304 -4.049,-4.304 -2.422,0 -4.094,1.672 -4.094,4.304 m -10.459,0 v 5.628 h 8.14 v -5.628 c 0,-2.632 -1.625,-4.304 -4.05,-4.304 -2.422,0 -4.09,1.672 -4.09,4.304 m 20.993,0 v 5.628 h 4.036 v -9.932 c -2.424,0 -4.036,1.672 -4.036,4.304 m -27.366,-4.304 -0.065,0.003 v 9.929 h 4.114 v -5.628 c 0,-2.632 -1.628,-4.304 -4.05,-4.304"
         inkscape:connector-curvature="0"
         style="fill:#f14b1c" />
      <path
         id="path4"
         d="M 51.816,85.653 A 3.705,3.705 0 0 0 51.4,85.63 h -0.002 l -0.054,0.003 -0.053,-0.003 a 5.105,5.105 0 0 0 -5.104,5.11 v 30.045 c 0,2.927 -2.371,5.31 -5.29,5.342 A 5.351,5.351 0 0 1 35.61,120.785 V 90.741 a 5.11,5.11 0 0 0 -5.107,-5.11 L 30.45,85.633 30.4,85.63 c -0.144,0 -0.285,0.008 -0.42,0.023 a 5.1,5.1 0 0 0 -4.688,5.088 v 30.044 c 0,8.582 6.974,15.568 15.552,15.568 h 0.106 c 8.576,0 15.554,-6.986 15.554,-15.568 V 90.741 a 5.104,5.104 0 0 0 -4.688,-5.088 m 106.46,-0.023 a 15.483,15.483 0 0 0 -10.502,4.097 15.469,15.469 0 0 0 -10.5,-4.097 c -8.576,0 -15.553,6.984 -15.553,15.568 v 30.044 a 5.106,5.106 0 1 0 10.211,0 v -30.044 a 5.35,5.35 0 0 1 5.343,-5.344 5.346,5.346 0 0 1 5.339,5.344 v 30.044 a 5.111,5.111 0 0 0 5.11,5.11 h 0.107 a 5.108,5.108 0 0 0 5.105,-5.11 v -30.044 a 5.348,5.348 0 0 1 5.34,-5.344 5.35,5.35 0 0 1 5.343,5.344 v 30.044 a 5.106,5.106 0 0 0 5.106,5.11 5.107,5.107 0 0 0 5.103,-5.11 v -30.044 c 0,-8.584 -6.979,-15.568 -15.552,-15.568 m 28.507,7.438 c -4.846,4.85 -7.514,11.3 -7.514,18.16 0,6.86 2.668,13.308 7.514,18.156 10.006,10.017 26.282,10.017 36.285,0 a 4.63,4.63 0 0 0 0,-6.551 4.624,4.624 0 0 0 -6.55,0 c -6.39,6.395 -16.79,6.395 -23.186,0 a 16.325,16.325 0 0 1 -4.798,-11.604 c 0,-4.386 1.704,-8.508 4.798,-11.605 6.396,-6.4 16.796,-6.4 23.187,0 a 4.627,4.627 0 0 0 6.55,0 4.635,4.635 0 0 0 0,-6.556 c -10.004,-10.012 -26.28,-10.012 -36.286,0 m -70.79,7.718 c 0,-8.386 -6.817,-15.211 -15.199,-15.211 H 67.652 c -0.172,0 -0.342,0.01 -0.513,0.029 a 4.989,4.989 0 0 0 -4.476,4.964 l 0.001,0.055 -0.001,0.05 a 4.995,4.995 0 0 0 4.99,4.998 h 33.141 c 2.86,0 5.19,2.314 5.217,5.17 a 5.225,5.225 0 0 1 -5.217,5.17 H 77.63 c -8.376,0 -15.194,6.827 -15.194,15.214 l 0.002,0.05 -0.002,0.055 v 9.89 a 4.991,4.991 0 0 0 4.988,4.992 l 0.051,-10e-4 0.053,10e-4 a 4.987,4.987 0 0 0 4.987,-4.992 l -0.103,-9.944 c 0.031,-2.853 2.359,-5.17 5.218,-5.17 h 23.164 c 8.382,0 15.199,-6.825 15.199,-15.212 v -0.108 M 66.606,152.56 c -1.509,0 -2.655,-0.322 -3.634,-1.317 l 1.26,-1.257 c 0.627,0.63 1.48,0.838 2.402,0.838 1.147,0 1.762,-0.432 1.762,-1.232 0,-0.35 -0.098,-0.642 -0.308,-0.84 -0.196,-0.18 -0.42,-0.28 -0.88,-0.349 l -1.203,-0.167 c -0.851,-0.126 -1.48,-0.39 -1.927,-0.827 -0.476,-0.474 -0.714,-1.117 -0.714,-1.96 0,-1.776 1.313,-3.02 3.467,-3.02 1.37,0 2.362,0.336 3.214,1.161 l -1.23,1.218 c -0.629,-0.601 -1.384,-0.687 -2.04,-0.687 -1.034,0 -1.538,0.573 -1.538,1.26 0,0.251 0.083,0.519 0.294,0.714 0.195,0.182 0.516,0.335 0.922,0.392 l 1.174,0.167 c 0.909,0.126 1.482,0.378 1.9,0.77 0.532,0.504 0.77,1.232 0.77,2.113 0,1.93 -1.608,3.023 -3.69,3.023 M 76.7,144.694 c -0.279,-0.319 -0.712,-0.53 -1.243,-0.53 -0.532,0 -0.979,0.211 -1.26,0.53 -0.377,0.42 -0.474,0.883 -0.474,2.801 0,1.916 0.097,2.379 0.475,2.797 0.28,0.323 0.727,0.532 1.259,0.532 0.53,0 0.964,-0.209 1.243,-0.532 0.377,-0.418 0.49,-0.881 0.49,-2.797 0,-1.918 -0.113,-2.382 -0.49,-2.8 z m 1.44,6.772 c -0.699,0.701 -1.552,1.094 -2.683,1.094 -1.133,0 -1.999,-0.393 -2.7,-1.094 -1.006,-1.005 -0.978,-2.251 -0.978,-3.971 0,-1.722 -0.028,-2.967 0.978,-3.974 0.701,-0.7 1.567,-1.092 2.7,-1.092 1.131,0 1.984,0.393 2.683,1.092 1.006,1.007 0.993,2.252 0.993,3.974 0,1.72 0.013,2.966 -0.993,3.971 m 6.738,-7.218 h -1.83 v 2.63 h 1.83 c 0.853,0 1.413,-0.546 1.413,-1.315 0,-0.769 -0.56,-1.315 -1.413,-1.315 z m 1.51,8.227 -1.943,-3.974 h -1.396 v 3.974 h -1.943 v -9.963 h 3.898 c 2.027,0 3.23,1.385 3.23,3.051 0,1.399 -0.854,2.265 -1.817,2.615 l 2.222,4.297 h -2.251 m 7.815,-4.185 h -2.027 v 2.45 h 2.027 c 0.881,0 1.3,-0.56 1.3,-1.231 0,-0.671 -0.419,-1.218 -1.3,-1.218 z m -0.126,-4.042 h -1.9 v 2.295 h 1.9 c 0.826,0 1.287,-0.463 1.287,-1.148 0,-0.687 -0.461,-1.147 -1.287,-1.147 z m 0.323,8.227 h -4.167 v -9.963 h 4 c 1.942,0 3.074,1.092 3.074,2.8 0,1.105 -0.727,1.819 -1.23,2.056 0.6,0.28 1.37,0.91 1.37,2.239 0,1.86 -1.272,2.868 -3.047,2.868 m 9.604,-7.781 c -0.28,-0.319 -0.714,-0.53 -1.246,-0.53 -0.53,0 -0.978,0.211 -1.257,0.53 -0.377,0.42 -0.475,0.883 -0.475,2.801 0,1.916 0.098,2.379 0.475,2.797 0.28,0.323 0.727,0.532 1.257,0.532 0.532,0 0.965,-0.209 1.246,-0.532 0.377,-0.418 0.488,-0.881 0.488,-2.797 0,-1.918 -0.111,-2.382 -0.488,-2.8 z m 1.44,6.772 c -0.7,0.701 -1.552,1.094 -2.686,1.094 -1.131,0 -1.998,-0.393 -2.696,-1.094 -1.007,-1.005 -0.978,-2.251 -0.978,-3.971 0,-1.722 -0.03,-2.967 0.978,-3.974 0.698,-0.7 1.565,-1.092 2.696,-1.092 1.134,0 1.986,0.393 2.685,1.092 1.006,1.007 0.993,2.252 0.993,3.974 0,1.72 0.013,2.966 -0.993,3.971 m 8.851,1.009 -3.943,-6.115 v 6.115 h -1.943 v -9.963 h 1.734 l 3.942,6.102 v -6.102 h 1.943 v 9.963 h -1.733 m 9.924,0 -3.942,-6.115 v 6.115 h -1.942 v -9.963 h 1.733 l 3.942,6.102 v -6.102 h 1.944 v 9.963 h -1.735 m 4.042,0 v -9.963 h 6.555 v 1.736 h -4.613 v 2.337 h 3.93 v 1.735 h -3.93 v 2.42 h 4.613 v 1.735 h -6.554"
         inkscape:connector-curvature="0"
         style="fill:#8c6851" />
      <path
         id="path6"
         d="m 143.444,152.56 c -2.042,0 -3.664,-1.385 -3.664,-3.498 v -6.55 h 1.943 v 6.479 c 0,1.146 0.672,1.833 1.721,1.833 1.047,0 1.732,-0.687 1.732,-1.833 v -6.479 h 1.929 v 6.55 c 0,2.113 -1.621,3.498 -3.661,3.498 m 13.435,-0.085 h -1.735 l -3.942,-6.115 v 6.115 h -1.942 v -9.963 h 1.733 l 3.942,6.102 v -6.102 h 1.944 v 9.963 m 2.307,0 h 1.942 v -9.963 h -1.942 z m 7.871,0 h -1.454 l -3.285,-9.963 h 2.013 l 2,6.493 1.997,-6.493 h 2.028 l -3.3,9.963 m 11.045,0 h -6.555 v -9.963 h 6.555 v 1.736 h -4.612 v 2.337 h 3.927 v 1.735 h -3.927 v 2.42 h 4.612 v 1.735 m 9.424,0 h -2.252 l -1.943,-3.974 h -1.397 v 3.974 h -1.943 v -9.963 h 3.9 c 2.027,0 3.228,1.385 3.228,3.051 0,1.399 -0.851,2.265 -1.816,2.615 l 2.223,4.297 m -5.592,-8.227 v 2.63 h 1.83 c 0.854,0 1.413,-0.546 1.413,-1.315 0,-0.769 -0.559,-1.315 -1.412,-1.315 h -1.831 m 9.925,8.312 c -1.509,0 -2.654,-0.322 -3.633,-1.317 l 1.257,-1.257 c 0.629,0.63 1.483,0.838 2.405,0.838 1.146,0 1.761,-0.432 1.761,-1.232 0,-0.35 -0.098,-0.642 -0.307,-0.84 -0.196,-0.18 -0.42,-0.28 -0.881,-0.349 l -1.201,-0.167 c -0.853,-0.126 -1.483,-0.39 -1.93,-0.827 -0.476,-0.474 -0.713,-1.117 -0.713,-1.96 0,-1.776 1.314,-3.02 3.467,-3.02 1.369,0 2.363,0.336 3.215,1.161 l -1.23,1.218 c -0.63,-0.601 -1.385,-0.687 -2.04,-0.687 -1.035,0 -1.54,0.573 -1.54,1.26 a 0.97,0.97 0 0 0 0.294,0.714 c 0.197,0.182 0.518,0.335 0.922,0.392 l 1.175,0.167 c 0.91,0.126 1.482,0.378 1.901,0.77 0.533,0.504 0.77,1.232 0.77,2.113 0,1.93 -1.609,3.023 -3.692,3.023 m 5.51,-0.085 h 1.942 v -9.963 h -1.942 z m 8.052,0 h -1.943 v -8.227 h -2.6 v -1.736 h 7.142 v 1.736 h -2.599 v 8.227 m 10.723,0 h -6.555 v -9.963 h 6.555 v 1.736 h -4.613 v 2.337 h 3.928 v 1.735 h -3.928 v 2.42 h 4.613 v 1.735 m -2.949,-10.927 h -1.216 l 0.894,-2.38 h 1.915 l -1.593,2.38 m 7.578,11.012 c -1.51,0 -2.657,-0.322 -3.635,-1.317 l 1.258,-1.257 c 0.63,0.63 1.481,0.838 2.404,0.838 1.146,0 1.762,-0.432 1.762,-1.232 0,-0.35 -0.098,-0.642 -0.308,-0.84 -0.196,-0.18 -0.42,-0.28 -0.88,-0.349 l -1.203,-0.167 c -0.852,-0.126 -1.482,-0.39 -1.929,-0.827 -0.476,-0.474 -0.712,-1.117 -0.712,-1.96 0,-1.776 1.313,-3.02 3.466,-3.02 1.37,0 2.362,0.336 3.215,1.161 l -1.23,1.218 c -0.628,-0.601 -1.384,-0.687 -2.041,-0.687 -1.035,0 -1.537,0.573 -1.537,1.26 0,0.251 0.083,0.519 0.293,0.714 0.196,0.182 0.517,0.335 0.923,0.392 l 1.174,0.167 c 0.909,0.126 1.481,0.378 1.9,0.77 0.532,0.504 0.77,1.232 0.77,2.113 0,1.93 -1.608,3.023 -3.69,3.023"
         inkscape:connector-curvature="0"
         style="fill:#c0a896" />
    </g>
  </g>
  <g
     transform="matrix(0.62212664,0,0,0.62212664,119.35002,-39.187975)"
     id="g888">
    <circle
       stroke-miterlimit="4"
       r="17.440001"
       cy="129.216"
       cx="26.371"
       id="circle5186"
       style="fill:#ececec;fill-opacity:1;stroke:none;stroke-width:0.264;stroke-miterlimit:4;stroke-dasharray:none;stroke-dashoffset:0" />
    <g
       transform="matrix(0.09172,0,0,0.09172,8.375,110.157)"
       id="g842">
      <path
         id="path2-6"
         d="m 248,263.821 c 2.158,3.545 4.645,5.764 8.965,5.764 4.493,0 7.709,-3.705 7.709,-8.094 0,-10.299 -17.342,-5.76 -17.342,-18.279 0,-7.139 5.645,-10.63 12.292,-10.63 2.663,0 5.871,0.828 7.93,2.658 -0.668,1.444 -1.058,2.995 -1.5,4.538 h -0.559 c -1.157,-2.987 -3.598,-4.82 -6.856,-4.82 -3.832,0 -6.995,2.551 -6.995,6.49 0,10.184 17.454,6.08 17.454,17.88 0,7.931 -6.154,12.64 -13.68,12.64 -2.716,0 -7.147,-1.16 -9.034,-3.212 0.554,-1.608 0.837,-3.273 1.055,-4.935 h 0.56 z m -21.247,-13.908 h 8.584 c 1.665,0 3.27,-0.222 4.928,-0.268 -0.05,0.44 -0.16,0.94 -0.16,1.433 0,0.45 0.11,0.943 0.16,1.558 -1.658,-0.065 -3.263,-0.279 -4.928,-0.279 h -8.584 v 16.174 c 3.381,0.119 6.712,-0.107 10.032,-0.222 a 38.306,38.306 0 0 0 5.092,-0.5 c -0.054,0.615 -0.168,1.112 -0.168,1.67 0,0.546 0.114,1.107 0.168,1.665 H 221.879 V 233.41 h 19.661 c -0.05,0.612 -0.164,1.1 -0.164,1.662 0,0.558 0.115,1.112 0.164,1.662 -1.654,-0.332 -3.323,-0.493 -4.973,-0.608 l -5.55,-0.114 h -4.264 v 13.9 z M 169.981,233.41 c 0.772,0.062 1.604,0.153 2.437,0.153 0.78,0 1.551,-0.091 2.445,-0.153 v 37.88 c -0.894,-0.047 -1.666,-0.146 -2.445,-0.146 -0.833,0 -1.665,0.1 -2.437,0.145 z m 44.755,37.88 h -1.654 a 66.81,66.81 0 0 0 -2.888,-3.366 l -23.932,-26.476 h -0.546 v 29.841 c -0.57,-0.046 -1.05,-0.145 -1.551,-0.145 -0.554,0 -1.058,0.1 -1.555,0.145 V 233.41 h 2.162 l 26.312,28.536 h 0.55 V 233.41 c 0.5,0.062 1.001,0.153 1.555,0.153 0.489,0 0.997,-0.092 1.547,-0.153 z m -54.897,-37.88 c 1.444,13.68 2.995,27.317 4.496,37.88 -1,-0.047 -1.772,-0.146 -2.609,-0.146 -0.886,0 -1.769,0.1 -2.601,0.145 -0.94,-11.128 -2.052,-23.088 -2.823,-28.573 -6.433,11.475 -11.189,20.33 -14.516,27.973 h -0.611 l -3.04,-6.253 c -3.55,-7.319 -7.43,-14.523 -11.193,-21.72 -1.211,10.806 -2.716,21.77 -2.716,28.573 -0.719,-0.046 -1.326,-0.145 -1.937,-0.145 -0.722,0 -1.337,0.1 -1.99,0.145 1.432,-8.904 4.763,-32.053 5.313,-37.879 h 1.44 c 4.428,8.794 9.749,19.226 15.674,29.032 5.267,-9.481 10.363,-19.115 15.952,-29.032 z m 41.088,-88.212 49.247,-42.856 58.716,-29.498 -48.433,40.92 a 61.581,61.581 0 0 1 2.88,5.23 l 82.84,-46.704 -77.748,60.41 a 67.565,67.565 0 0 1 2.017,16.413 c 0,38.899 -33.188,70.429 -74.134,70.429 -13.175,0 -25.548,-3.259 -36.27,-8.989 l 86.51,-46.989 -62.624,47.704 a 63.022,63.022 0 0 0 12.384,1.237 c 34.662,0 62.75,-28.386 62.75,-63.392 0,-11.154 -2.85,-21.632 -7.857,-30.743 z m -59.882,33.977 c -4.782,-8.95 -7.487,-19.184 -7.487,-30.06 0,-35.01 28.092,-63.392 62.754,-63.392 a 62.5,62.5 0 0 1 11.093,0.986 l 0.482,0.607 -62.334,46.191 87.06,-45.84 c -10.612,-5.546 -23.343,-8.992 -36.3,-8.992 -40.947,0 -74.138,31.542 -74.138,70.44 0,5.543 0.672,10.937 1.948,16.12 l -77.9,60.092 82.71,-46.783 a 69.57,69.57 0 0 0 3.353,6.108 l -51.561,41.512 61.218,-30.335 49.247,-44.234 -50.145,27.58"
         inkscape:connector-curvature="0"
         style="fill:#005c9e" />
      <path
         id="path4-7"
         d="m 116.899,226.725 27.267,-28.107 75.688,-41.736 -62.613,50.912 z m 57.04,-87.097 61.486,-49.53 39.238,-17.808 -26.43,26.992 z"
         inkscape:connector-curvature="0"
         style="fill:#005c9e" />
      <path
         id="path6-5"
         d="m 86.572,301.344 c 1.654,0 5.975,0.379 8.958,-0.11 9.36,-1.563 14.184,-4.603 14.184,-11.28 0,-6.682 -4.23,-9.062 -17.102,-9.062 h -11.85 v 37.787 c 0.921,-0.053 1.914,-0.137 2.904,-0.137 0.924,0 1.844,0.084 2.906,0.137 z m 0,-18.293 c 1.987,-0.107 6.705,-0.168 9.562,0.057 5.24,0.382 7.498,3.369 7.498,7.12 0,4.905 -3.85,8.4 -10.49,8.947 -2.257,0.168 -4.916,0.168 -6.57,0 V 283.05 Z m 39.946,19.424 -1.073,0.416 c -2.422,0.951 -2.353,0.829 -6.785,1.784 -5.21,1.13 -10.57,1.784 -10.852,7.735 -0.15,3.752 3.782,6.613 8.209,6.85 4.355,0.236 8.717,-1.677 10.146,-5.299 v 4.58 h 8.713 v -1.016 h -2.998 V 300.92 c 0,-4.4 -0.784,-8.507 -10.215,-8.923 -2.575,-0.123 -2.185,0.114 -4.042,0.347 -2.146,0.302 -4.14,0.967 -5.565,1.501 v 7.969 h 1.276 l 1.574,-3.331 c 1.356,-2.858 1.543,-5.948 6.184,-5.531 4.645,0.408 5.428,2.968 5.428,5.703 z m 0,3.747 c 0,1.54 0.069,2.498 -0.141,4.042 -0.5,3.456 -3.217,7.261 -7.717,7.506 -3.785,0.24 -5.573,-2.74 -5.283,-5.478 0.638,-6.131 2.999,-5.355 10.284,-7.617 l 2.857,-0.894 z m 26.22,12.32 h -12.93 v -1.016 h 3.216 V 293.72 h -3.362 v -1.074 h 8.358 v 5.421 c 0.355,-1.96 3.354,-5.596 8.072,-5.596 1.356,0 2.57,0.305 3.93,0.89 v 9.404 h -1.36 l -1.718,-4.343 c -1.215,-3.04 -2.144,-4.996 -4,-4.106 -4.847,2.322 -4.424,7.91 -4.424,13.152 v 10.058 h 4.218 z m 19.364,-31.901 c 0,1.662 -1.635,2.858 -3.496,2.858 -1.787,0 -3.43,-1.31 -3.43,-2.804 0,-1.478 1.574,-2.915 3.358,-2.915 1.933,0 3.568,1.303 3.568,2.861 m -8.997,31.9 v -1.015 h 3.286 V 293.72 h -3.072 v -1.074 h 8.641 v 24.88 h 2.934 v 1.016 h -11.789 z m 34.124,-19.821 c -1.348,-4.05 -2.716,-5.653 -6.414,-5.653 -3.22,0 -7.296,1.073 -7.582,4.347 -0.21,2.922 3.43,4.106 6.715,5 5.574,1.604 12.071,3.27 11.85,8.453 -0.142,4.936 -5.066,8.568 -11.777,8.446 -3.855,-0.053 -8.213,-1.302 -9.71,-2.2 v -8.507 h 1.287 l 1.497,4.282 c 1.647,4.825 3.495,4.882 6.43,5.123 4.064,0.351 8.709,-1.31 9.06,-4.645 0.508,-4.107 -6.066,-5.18 -10.21,-6.43 -2.927,-0.897 -8.638,-2.497 -8.638,-7.376 0,-5.714 7.426,-7.624 11.353,-7.624 3.29,0 7.067,1.07 8.427,1.784 v 7.8 h -1.36 z"
         inkscape:connector-curvature="0"
         style="fill:#333333" />
      <path
         id="path8"
         d="m 216.084,318.79 a 52.436,52.436 0 0 0 -2.895,-0.084 c -0.993,0 -1.99,0.027 -2.907,0.084 v -35.277 c -6.7,0 -10.75,0.328 -14.52,0.66 0.065,-0.546 0.233,-1.103 0.233,-1.646 0,-0.546 -0.168,-1.035 -0.233,-1.635 h 34.193 c -0.07,0.6 -0.161,1.09 -0.161,1.635 0,0.543 0.092,1.1 0.16,1.647 -3.32,-0.333 -7.964,-0.661 -13.87,-0.661 z"
         inkscape:connector-curvature="0" />
      <path
         id="path10"
         d="m 216.084,318.79 0.012,-0.244 a 53.022,53.022 0 0 0 -2.907,-0.084 c -0.997,0 -2.002,0.026 -2.922,0.084 l 0.015,0.244 h 0.244 v -35.522 h -0.244 c -6.708,0 -10.769,0.329 -14.543,0.661 l 0.023,0.245 0.241,0.03 c 0.061,-0.52 0.237,-1.085 0.237,-1.677 -0.004,-0.6 -0.176,-1.092 -0.237,-1.661 l -0.24,0.026 v 0.245 h 34.192 v -0.245 l -0.245,-0.026 c -0.065,0.588 -0.16,1.085 -0.16,1.661 0,0.57 0.095,1.135 0.16,1.677 l 0.245,-0.03 0.022,-0.24 c -3.327,-0.337 -7.98,-0.666 -13.893,-0.666 h -0.244 v 35.522 h 0.244 l 0.012,-0.244 -0.012,0.244 h 0.245 v -35.277 h -0.245 v 0.244 c 5.894,0 10.532,0.329 13.844,0.661 l 0.306,0.03 -0.039,-0.305 c -0.068,-0.554 -0.156,-1.1 -0.156,-1.616 0,-0.515 0.087,-0.997 0.156,-1.608 l 0.03,-0.271 h -34.738 l 0.03,0.271 c 0.073,0.634 0.238,1.116 0.234,1.608 0.004,0.493 -0.16,1.043 -0.233,1.616 l -0.038,0.302 0.301,-0.027 c 3.77,-0.332 7.808,-0.66 14.5,-0.66 v -0.245 h -0.244 v 35.537 l 0.26,-0.015 a 46.27,46.27 0 0 1 2.892,-0.085 c 0.913,0 1.826,0.027 2.884,0.085 l 0.256,0.011 v -0.256 z m 32.034,-9.886 h -1.356 l -0.068,0.71 c -0.356,3.568 -3.297,8.687 -8.863,8.397 -6.28,-0.298 -7.643,-5.776 -7.643,-11.972 v -3.03 h 17.862 c 0.638,-5.48 -3.939,-11.249 -11.074,-11.192 -7.358,0.119 -12.354,6.25 -12.786,13.508 -0.428,7.922 5.493,14.053 13.217,13.935 6.063,-0.122 10.207,-4.584 10.643,-9.53 z m -17.357,-10.249 c 0.504,-2.846 2.784,-5.588 5.92,-5.703 3.79,-0.176 5.23,3.155 5.295,6.131 l 0.069,2.796 h -11.858 l 0.573,-3.224 z"
         inkscape:connector-curvature="0" />
      <path
         id="path12"
         d="m 248.118,308.904 v -0.245 h -1.577 l -0.092,0.933 c -0.336,3.384 -3.071,8.197 -8.167,8.186 l -0.435,-0.012 c -3.072,-0.156 -4.875,-1.528 -5.975,-3.644 -1.096,-2.116 -1.44,-5.004 -1.44,-8.083 v -2.785 h 17.835 l 0.027,-0.217 c 0.038,-0.348 0.061,-0.7 0.061,-1.05 -0.011,-5.265 -4.51,-10.403 -11.272,-10.414 h -0.111 c -7.506,0.122 -12.595,6.383 -13.026,13.737 l -0.023,0.82 c 0,3.79 1.444,7.137 3.824,9.532 2.38,2.398 5.7,3.843 9.439,3.843 h 0.225 c 6.189,-0.127 10.436,-4.688 10.883,-9.757 l 0.065,-0.825 0.023,-0.263 h -0.263 v 0.244 l -0.245,-0.019 -0.069,0.822 c -0.428,4.824 -4.465,9.186 -10.401,9.309 h -0.218 c -7.22,-0.004 -12.77,-5.562 -12.774,-12.885 l 0.023,-0.79 c 0.431,-7.163 5.336,-13.16 12.545,-13.279 h 0.103 c 6.501,0 10.78,4.94 10.78,9.924 l -0.058,0.993 0.245,0.031 v -0.244 h -18.107 v 3.273 c 0.004,3.114 0.34,6.067 1.494,8.309 1.15,2.246 3.17,3.762 6.383,3.908 l 0.462,0.011 c 5.451,-0.015 8.3,-5.077 8.652,-8.626 l 0.05,-0.492 h 1.134 v -0.245 l -0.244,-0.019 0.244,0.02 z m -17.357,-10.249 0.24,0.042 c 0.485,-2.758 2.705,-5.398 5.692,-5.5 l 0.275,-0.009 c 3.385,-0.004 4.683,3.049 4.764,5.898 l 0.06,2.548 h -11.31 l 0.52,-2.937 -0.241,-0.042 -0.241,-0.042 -0.573,3.224 -0.05,0.286 h 12.396 l -0.073,-3.048 c -0.05,-2.945 -1.49,-6.368 -5.252,-6.375 l -0.298,0.008 c -3.281,0.13 -5.63,2.972 -6.15,5.905 l 0.24,0.042 z m 42.966,3.759 -0.71,-2.147 c -1.57,-5.172 -3.43,-7.49 -6.716,-7.56 -6.93,-0.114 -8.071,7.385 -7.926,13.038 0.145,5.241 0.718,11.968 8.003,12.025 4.286,0.054 6.933,-3.335 7.636,-6.971 l 0.374,-1.895 h 1.272 l -0.206,1.31 c -1.066,6.838 -5.573,8.985 -10.574,8.924 -8.071,-0.061 -12.644,-7.086 -12.644,-13.748 0,-6.968 5.356,-13.454 13.71,-13.756 2.143,-0.05 5.852,0.126 9.141,1.727 v 9.053 z"
         inkscape:connector-curvature="0" />
      <path
         id="path14"
         d="m 273.727,302.414 0.233,-0.076 -0.71,-2.147 -0.233,0.076 0.233,-0.069 c -1.559,-5.187 -3.51,-7.666 -6.941,-7.735 l -0.16,-0.004 c -3.309,-0.007 -5.368,1.75 -6.529,4.16 -1.165,2.41 -1.5,5.474 -1.5,8.232 l 0.01,0.898 c 0.077,2.628 0.249,5.646 1.345,8.052 1.093,2.41 3.178,4.194 6.899,4.214 h 0.1 c 4.377,0 7.078,-3.488 7.78,-7.17 l 0.333,-1.697 h 0.787 l -0.16,1.028 c -1.055,6.628 -5.272,8.694 -10.12,8.717 h -0.21 c -7.91,-0.057 -12.396,-6.94 -12.403,-13.503 0.004,-6.846 5.252,-13.21 13.473,-13.511 l 0.622,-0.008 c 2.174,0 5.47,0.278 8.404,1.71 l 0.107,-0.22 h -0.244 v 8.808 h -1.116 v 0.245 l 0.233,-0.077 -0.233,0.077 v 0.244 h 1.605 v -9.45 l -0.138,-0.065 c -3.04,-1.483 -6.402,-1.758 -8.618,-1.761 l -0.638,0.008 c -8.484,0.305 -13.95,6.906 -13.946,14 -0.008,6.761 4.653,13.927 12.888,13.992 h 0.214 c 4.981,0.023 9.55,-2.28 10.6,-9.133 l 0.207,-1.307 0.042,-0.282 h -1.757 l -0.413,2.093 c -0.688,3.533 -3.216,6.776 -7.3,6.773 h -0.091 c -3.568,-0.039 -5.406,-1.65 -6.46,-3.927 -1.047,-2.28 -1.23,-5.249 -1.303,-7.862 l -0.011,-0.886 c 0,-2.716 0.34,-5.722 1.455,-8.018 1.123,-2.296 2.957,-3.877 6.085,-3.885 l 0.15,0.004 c 3.132,0.073 4.904,2.223 6.486,7.388 l 0.004,0.008 0.706,2.143 0.054,0.168 h 0.18 v -0.245 z m 22.205,16.128 v -1.016 h 3.794 V 300.45 c 0,-3.392 0.065,-6.788 -4.08,-6.665 -5.994,0.175 -6.777,7.2 -6.777,12.438 v 11.303 h 4.065 v 1.016 h -12.495 v -1.016 h 3.01 v -33.028 h -3.217 v -1.07 h 8.637 v 13.508 c 0.852,-2.265 4.493,-5 8.35,-4.698 5.792,0.408 7.79,2.433 7.79,7.918 v 17.37 h 3.143 v 1.016 z"
         inkscape:connector-curvature="0" />
      <path
         id="path16"
         d="m 295.932,318.542 h 0.245 v -0.772 h 3.793 v -17.62 c 0,-1.616 -0.008,-3.228 -0.523,-4.489 -0.508,-1.268 -1.616,-2.139 -3.587,-2.124 l -0.222,0.004 c -3.105,0.08 -4.904,1.99 -5.856,4.477 -0.966,2.487 -1.157,5.574 -1.157,8.206 v 11.547 h 4.064 v 0.527 h -12.006 v -0.527 h 3.01 v -33.516 h -3.216 v -0.58 h 8.148 v 13.262 l 0.47,0.088 c 0.748,-2.028 4.022,-4.58 7.54,-4.565 l 0.566,0.02 c 2.876,0.202 4.756,0.81 5.91,1.986 1.157,1.173 1.653,2.972 1.653,5.691 v 17.614 h 3.144 v 0.527 h -11.976 v 0.245 h 0.245 -0.245 v 0.244 h 12.465 v -1.505 h -3.144 v -17.125 c 0,-2.765 -0.5,-4.721 -1.791,-6.035 -1.295,-1.31 -3.308,-1.922 -6.223,-2.128 l -0.604,-0.023 c -3.75,0.015 -7.124,2.605 -7.995,4.878 l 0.23,0.088 h 0.244 v -13.752 h -9.126 v 1.558 h 3.216 v 32.538 h -3.01 v 1.505 h 12.984 v -1.505 h -4.064 v -11.059 c -0.004,-2.609 0.198,-5.65 1.123,-8.03 0.936,-2.383 2.525,-4.071 5.417,-4.163 l 0.206,-0.004 c 1.841,0.015 2.662,0.714 3.136,1.822 0.466,1.12 0.489,2.69 0.485,4.301 v 17.133 h -3.793 v 1.505 h 0.244 z"
         inkscape:connector-curvature="0" />
    </g>
  </g>
  <g
     transform="matrix(0.62212664,0,0,0.62212664,66.491651,-78.184739)"
     id="g894">
    <circle
       stroke-miterlimit="4"
       id="circle5188"
       cx="26.371"
       cy="192.338"
       r="17.440001"
       style="fill:#ececec;fill-opacity:1;stroke:none;stroke-width:0.264;stroke-miterlimit:4;stroke-dasharray:none;stroke-dashoffset:0" />
    <g
       transform="matrix(0.11405,0,0,0.11405,7.247,173.534)"
       id="g4524">
      <path
         id="path2-2"
         d="m 49.21,212.885 c -20.5,-3.464 -30.588,-21.774 -25.423,-46.146 2.13,-10.051 6.114,-17.54 12.981,-24.408 10.21,-10.21 22.816,-14.376 37.29,-12.326 17.23,2.44 26.094,14.825 23.91,33.405 -0.344,2.927 -0.855,5.923 -1.137,6.657 -0.41,1.072 -6.37,1.335 -30.251,1.335 H 36.84 l -0.288,8.725 c -0.238,7.18 0.097,9.623 1.892,13.794 5.291,12.301 18.985,16.994 35.04,12.008 3.496,-1.086 8.044,-3.127 10.106,-4.536 4.057,-2.772 4.504,-2.23 2.371,2.874 -1.128,2.7 -2.45,3.693 -7.25,5.45 -10.102,3.695 -20.054,4.764 -29.5,3.168 z m 36.453,-52.277 c 1.253,-5.303 -0.04,-13.99 -2.662,-17.881 -11.182,-16.593 -36.269,-7.39 -43.27,15.871 -1.123,3.734 -1.153,4.84 -0.149,5.486 0.692,0.445 11.142,0.699 23.221,0.564 l 21.963,-0.246 z m 14.769,36.544 c 1.998,-8.112 5.781,-25.775 8.406,-39.25 2.625,-13.475 4.923,-25.062 5.106,-25.75 0.22,-0.825 2.384,-1.25 6.365,-1.25 6.426,0 6.91,0.486 5.178,5.185 -0.47,1.274 -1.168,3.612 -1.552,5.196 -0.695,2.869 -0.678,2.863 4.103,-1.39 7.84,-6.972 14.262,-9.479 24.302,-9.485 10.339,-0.007 16.607,2.588 21.041,8.71 4.193,5.788 4.66,11.181 2.012,23.198 -2.697,12.234 -8.58,40.659 -9.487,45.836 l -0.656,3.75 h -13.618 l 3.285,-11.99 c 4.004,-14.612 8.345,-35.37 9.11,-43.565 0.65,-6.944 -0.763,-10.648 -5.616,-14.732 -8.96,-7.54 -26.649,-2.742 -33.758,9.155 -3.54,5.924 -7.436,20.815 -12.062,46.094 l -2.75,15.036 h -6.522 l -6.52,0.002 z m 80.938,12.172 c 1.47,-3.866 6.525,-24.277 9.515,-38.422 2.04,-9.645 7.455,-38.415 7.455,-39.602 0,-0.114 3.15,-0.187 7,-0.163 3.85,0.024 7,0.258 7,0.52 0,0.261 -1.114,4.586 -2.475,9.61 -3.09,11.404 -10.76,46.732 -13.109,60.385 l -1.764,10.25 H 180.39 Z m 46.05,-19.005 c 0.047,-1.165 0.284,-1.402 0.603,-0.604 0.29,0.722 0.254,1.584 -0.079,1.917 -0.332,0.332 -0.568,-0.259 -0.525,-1.313 z m -27.58,-73.277 c -5.143,-3.177 -6.807,-5.805 -7.28,-11.494 -0.402,-4.855 -0.162,-5.642 2.72,-8.924 7.553,-8.603 20.67,-6.493 24.093,3.876 3.876,11.747 -9.27,22.88 -19.533,16.542 z"
         inkscape:connector-curvature="0"
         style="fill:#e43016" />
      <path
         id="path4-9"
         d="m 215.67,209.652 c 1.848,-7.616 11.67,-73.064 11.67,-77.768 0,-0.54 2.273,-0.982 5.051,-0.982 4.821,0 5.117,0.159 6.504,3.477 4.573,10.945 25.508,52.603 26.216,52.165 0.463,-0.286 6.891,-12.914 14.285,-28.061 l 13.444,-27.541 5.044,-0.02 5.043,-0.02 3.304,28.75 c 1.816,15.813 4.06,34.038 4.987,40.5 l 1.684,11.75 h -19.16 l -1.201,-15.75 c -1.721,-22.585 -3.403,-38.256 -4.099,-38.207 -0.33,0.023 -6.436,12.194 -13.567,27.045 -11.907,24.8 -13.157,26.98 -15.324,26.708 -2.023,-0.253 -4.156,-4.034 -14.98,-26.55 -6.942,-14.44 -12.93,-25.915 -13.305,-25.5 -0.94,1.037 -4.906,42.13 -4.923,51.004 -0.002,0.852 -1.792,1.25 -5.611,1.25 -5.311,0 -5.58,-0.119 -5.062,-2.25 z"
         inkscape:connector-curvature="0"
         style="fill:#1a181c" />
    </g>
  </g>
  <g
     transform="matrix(0.62212664,0,0,0.62212664,42.742589,-18.199911)"
     id="g5196"
     style="fill-opacity:1;stroke:none">
    <rect
       stroke-miterlimit="4"
       ry="2.8970001"
       rx="2.8970001"
       y="47.146"
       x="8.316"
       height="12.314"
       width="29.757999"
       id="rect5190"
       style="fill:#247da6;stroke-width:0.20999999;stroke-miterlimit:4;stroke-dasharray:none;stroke-dashoffset:0" />
    <g
       aria-label="2010"
       style="font-style:normal;font-variant:normal;font-weight:400;font-stretch:normal;font-size:7.05600023px;line-height:1.25;font-family:Ubuntu;-inkscape-font-specification:Ubuntu;font-variant-ligatures:normal;font-variant-caps:normal;font-variant-numeric:normal;font-feature-settings:normal;text-align:start;letter-spacing:0;word-spacing:0;writing-mode:lr-tb;text-anchor:start;fill:#ffffff;stroke-width:0.26499999"
       id="text5194"
       font-style="normal"
       font-variant="normal"
       font-weight="400"
       font-stretch="normal"
       font-size="7.056"
       letter-spacing="0"
       word-spacing="0" />
  </g>
  <g
     transform="matrix(0.62212664,0,0,0.62212664,16.136721,-115.04201)"
     id="g899">
    <circle
       stroke-miterlimit="4"
       r="17.440001"
       cy="254.345"
       cx="26.371"
       id="circle5198"
       style="fill:#ececec;fill-opacity:1;stroke:none;stroke-width:0.264;stroke-miterlimit:4;stroke-dasharray:none;stroke-dashoffset:0" />
    <g
       transform="matrix(0.02043,0,0,0.02043,7.825,235.62)"
       id="g818">
      <path
         id="path2-3"
         d="m 383.924,1504.341 c -14.482,-0.717 -18.717,-1.438 -25.744,-4.378 -18.85,-7.888 -34.008,-22.19 -43.32,-40.87 l -5.596,-11.226 -1.019,-103.44 c -0.56,-56.893 -0.862,-299.941 -0.67,-540.108 l 0.349,-436.666 4.252,-10.231 c 5.722,-13.769 10.004,-20.268 19.634,-29.8 8.876,-8.784 19.054,-14.723 33.447,-19.52 l 9.333,-3.109 522.667,-0.004 c 398.348,-0.003 526.598,0.38 539.193,1.607 14.057,1.37 17.94,2.282 26,6.11 19.163,9.105 34.476,26.067 41.807,46.31 l 3.611,9.97 0.395,456 c 0.217,250.8 -0.087,492.9 -0.676,538 l -1.07,82 -3.847,9.333 c -8.382,20.334 -21.457,33.735 -43.394,44.475 l -12.648,6.191 -522.685,0.108 c -287.477,0.059 -530.486,-0.28 -540.02,-0.752 z m 1036.666,-19.808 24.667,-0.88 10,-4.813 c 15.946,-7.674 25.861,-20.042 31.419,-39.187 2.19,-7.543 2.325,-37.868 2.362,-530.667 0.03,-393.663 -0.346,-525.221 -1.526,-533.016 -4.073,-26.919 -24.502,-47.037 -51.253,-50.476 -5.827,-0.75 -216.548,-1.257 -530.426,-1.277 -574.234,-0.038 -531.218,-0.686 -548,8.258 -9.716,5.179 -20.408,16.464 -25.116,26.51 l -3.437,7.334 -1.061,56.667 c -0.583,31.167 -0.878,272.967 -0.654,537.333 l 0.407,480.667 4.375,8.995 c 6.05,12.437 16.622,23.491 27.863,29.132 8.776,4.404 9.646,4.562 29.047,5.288 28.51,1.068 1001.62,1.192 1031.333,0.132 z M 864.47,1314.9 l -3.455,-1.328 -0.876,-32.96 c -1.094,-41.165 -0.82,-747.129 0.299,-768.904 l 0.82,-15.945 5.332,-1.268 c 6.806,-1.618 68.506,-1.64 77.334,-0.027 l 6.666,1.218 v 408.872 c 0,224.88 -0.499,409.372 -1.11,409.983 -1.628,1.631 -80.834,1.965 -85.01,0.36 z m -61.213,-11.224 c -12.1,-3.171 -29.5,-8.602 -38.667,-12.069 -14.745,-5.577 -55.24,-25.146 -68,-32.86 -20.589,-12.448 -49.171,-34.395 -66.333,-50.934 l -12.333,-11.886 V 613.645 l 9.92,-9.424 c 11.787,-11.196 35.07,-30.198 48.008,-39.18 13.052,-9.06 32.506,-20.722 34.571,-20.722 2.914,0 3.5,54.936 3.5,328.005 0,140.564 0.394,264.667 0.876,275.783 l 0.874,20.212 h 8.959 c 4.927,0 10.833,-0.375 13.125,-0.833 l 4.167,-0.833 0.099,-314.167 c 0.054,-172.792 0.504,-316.824 1,-320.072 l 0.9,-5.905 11.334,-4.455 c 26.283,-10.33 60.898,-20.29 70.8,-20.373 3.422,-0.028 3.48,0.133 4.334,12.176 1.131,15.943 1.131,767.649 0,783.59 -0.71,10.006 -1.25,12.186 -3,12.1 -1.174,-0.059 -12.034,-2.7 -24.134,-5.871 z m 176.447,-65.023 c 0.486,-39.05 0.884,-113.45 0.885,-165.334 l 10e-4,-94.333 43,0.02 c 24.747,0.012 43.849,0.557 45,1.284 1.736,1.096 2.088,13.422 2.667,93.203 0.366,50.566 1.002,92.274 1.411,92.683 0.41,0.409 6.71,0.909 14,1.11 l 13.255,0.366 -0.46,-107.333 c -0.252,-59.034 -0.559,-107.44 -0.681,-107.571 -0.123,-0.131 -26.416,-0.731 -58.43,-1.334 -32.014,-0.602 -58.616,-1.504 -59.116,-2.004 -0.5,-0.5 -1,-101.12 -1.11,-223.6 -0.16,-176.677 0.142,-223.034 1.465,-224.358 2.825,-2.827 31.917,4.587 69.666,17.754 14.725,5.136 56.078,25.211 66.467,32.268 3.924,2.664 7.628,4.845 8.231,4.845 0.604,0 3.849,2.1 7.211,4.666 3.363,2.567 6.506,4.667 6.985,4.667 0.48,0 6.526,4.35 13.438,9.667 6.912,5.316 14.764,11.347 17.45,13.4 2.687,2.053 10.134,8.94 16.551,15.306 l 11.667,11.572 v 215.388 h -98.667 v -188 h -28 v 216 l 61,0.02 c 36.101,0.013 61.816,0.537 63,1.285 1.757,1.11 2.048,21.505 2.396,167.77 l 0.395,166.504 -11.793,11.223 c -40.218,38.272 -86.216,66.6 -141.316,87.028 -21.044,7.802 -54.759,16.837 -62.83,16.837 h -4.622 z"
         inkscape:connector-curvature="0"
         style="fill:#69b545" />
    </g>
  </g>
  <rect
     style="fill:#247da6;fill-opacity:1;stroke:none;stroke-width:0.14682189;stroke-miterlimit:4;stroke-dasharray:none;stroke-dashoffset:0"
     id="rect5208"
     width="20.786495"
     height="8.6015234"
     x="1.323489e-23"
     y="61.805576"
     rx="2.0231559"
     ry="2.0231559"
     stroke-miterlimit="4" />
  <text
     xml:space="preserve"
     x="2.4407699"
     y="68.380638"
     id="text4060"
     style="font-size:7.46551943px;stroke-width:0.62212664"><tspan
       sodipodi:role="line"
       id="tspan4058"
       x="2.4407699"
       y="68.380638"
       style="font-size:6.14522123px;fill:#ffffff;stroke-width:0.16460414">2007</tspan></text>
  <text
     xml:space="preserve"
     x="23.869087"
     y="61.50499"
     id="text4070"
     class="title"
     style="font-size:6.64177036px;line-height:0.89999998;stroke-width:0.55348086"><tspan
       sodipodi:role="line"
       id="tspan4068"
       x="23.869087"
       y="61.50499"
       style="line-height:0.89999998;stroke-width:0.09110525">Universidad Industrial</tspan><tspan
       sodipodi:role="line"
       x="23.869087"
       y="67.482582"
       style="line-height:0.89999998;stroke-width:0.09110525"
       id="tspan4076">de Santander</tspan></text>
  <text
     id="text4087"
     y="74.965591"
     x="23.982424"
     xml:space="preserve"
     style="font-size:5.87745571px;line-height:0.89999998;stroke-width:0.489788"><tspan
       id="tspan4085"
       style="line-height:0.89999998;stroke-width:0.12958959"
       y="74.965591"
       x="23.982424"
       sodipodi:role="line">Engineer degree in</tspan><tspan
       style="line-height:0.89999998;stroke-width:0.12958959"
       y="80.255302"
       x="23.982424"
       sodipodi:role="line"
       id="tspan4091">Mechanical Engineering</tspan></text>
  <text
     style="font-size:5.48044825px;line-height:0.89999998;stroke-width:0.45670399"
     class="title"
     id="text292"
     y="60.125763"
     x="123.88313"
     xml:space="preserve"><tspan
       id="tspan290"
       style="line-height:0.89999998;stroke-width:0.07517538"
       y="60.125763"
       x="123.88313"
       sodipodi:role="line">Ecole Nationale</tspan><tspan
       style="line-height:0.89999998;stroke-width:0.07517538"
       y="65.058167"
       x="123.88313"
       sodipodi:role="line"
       id="tspan296">Supérieure des Mines</tspan><tspan
       style="line-height:0.89999998;stroke-width:0.07517538"
       y="69.99057"
       x="123.88313"
       sodipodi:role="line"
       id="tspan298">de Paris</tspan></text>
  <text
     xml:space="preserve"
     x="123.85184"
     y="75.44519"
     id="text306"
     style="font-size:5.48044825px;line-height:0.89999998;stroke-width:0.45670399"><tspan
       id="tspan304"
       sodipodi:role="line"
       x="123.85184"
       y="75.44519"
       style="line-height:0.89999998;stroke-width:0.07517538">Master in Materials,</tspan><tspan
       sodipodi:role="line"
       x="123.85184"
       y="80.377594"
       style="line-height:0.89999998;stroke-width:0.07517538"
       id="tspan313">Processing and Modelling</tspan></text>
  <text
     xml:space="preserve"
     x="70.1409"
     y="5.7898054"
     id="text321"
     class="title"
     style="font-size:5.48044825px;line-height:0.89999998;stroke-width:0.45670399"><tspan
       id="tspan319"
       sodipodi:role="line"
       x="70.1409"
       y="5.7898054"
       style="line-height:0.89999998;stroke-width:0.07517538">Ecole Nationale</tspan><tspan
       sodipodi:role="line"
       x="70.1409"
       y="10.722209"
       style="line-height:0.89999998;stroke-width:0.07517538"
       id="tspan328">d'Ingénieurs de Metz</tspan></text>
  <text
     style="font-size:5.48044825px;line-height:0.89999998;stroke-width:0.45670399"
     id="text334"
     y="16.438679"
     x="70.140892"
     xml:space="preserve"><tspan
       id="tspan332"
       style="line-height:0.89999998;stroke-width:0.07517538"
       y="16.438679"
       x="70.140892"
       sodipodi:role="line">Engineer degree +</tspan><tspan
       style="line-height:0.89999998;stroke-width:0.07517538"
       y="21.371082"
       x="70.140892"
       sodipodi:role="line"
       id="tspan338">Master in Materials</tspan><tspan
       style="line-height:0.89999998;stroke-width:0.07517538"
       y="26.303486"
       x="70.140892"
       sodipodi:role="line"
       id="tspan340">and production</tspan></text>
  <text
     style="font-size:5.48044825px;line-height:0.89999998;stroke-width:0.45670399"
     class="title"
     id="text346"
     y="4.8556933"
     x="172.1459"
     xml:space="preserve"><tspan
       id="tspan344"
       style="line-height:0.89999998;stroke-width:0.07517538"
       y="4.8556933"
       x="172.1459"
       sodipodi:role="line">Université Pierre</tspan><tspan
       style="line-height:0.89999998;stroke-width:0.07517538"
       y="9.7880964"
       x="172.1459"
       sodipodi:role="line"
       id="tspan350">et Marie Curie</tspan></text>
  <text
     xml:space="preserve"
     x="172.52057"
     y="15.317744"
     id="text356"
     style="font-size:5.48044825px;line-height:0.89999998;stroke-width:0.45670399"><tspan
       id="tspan354"
       sodipodi:role="line"
       x="172.52057"
       y="15.317744"
       style="line-height:0.89999998;stroke-width:0.07517538">PhD in Physical</tspan><tspan
       sodipodi:role="line"
       x="172.52057"
       y="20.250147"
       style="line-height:0.89999998;stroke-width:0.07517538"
       id="tspan360">Chemistry</tspan></text>
  <text
     xml:space="preserve"
     x="102.99734"
     y="68.039635"
     id="text97"
     style="font-size:5.48044825px;line-height:0.89999998;stroke-width:0.45670399"><tspan
       sodipodi:role="line"
       id="tspan95"
       x="102.99734"
       y="68.039635"
       style="fill:#ffffff;stroke-width:0.10299226">2012</tspan></text>
  <text
     style="font-size:5.48044825px;line-height:0.89999998;stroke-width:0.45670399"
     id="text101"
     y="68.134872"
     x="198.80588"
     xml:space="preserve"><tspan
       style="fill:#ffffff;stroke-width:0.10299226"
       y="68.134872"
       x="198.80588"
       id="tspan99"
       sodipodi:role="line">2016</tspan></text>
  <text
     xml:space="preserve"
     x="155.80525"
     y="17.055096"
     id="text105"
     style="font-size:5.48044825px;line-height:0.89999998;stroke-width:0.45670399"><tspan
       sodipodi:role="line"
       id="tspan103"
       x="155.80525"
       y="17.055096"
       style="fill:#ffffff;stroke-width:0.10299226">2016</tspan></text>
  <text
     style="font-size:5.48044825px;line-height:0.89999998;stroke-width:0.45670399"
     id="text109"
     y="16.9114"
     x="50.563259"
     xml:space="preserve"><tspan
       style="fill:#ffffff;stroke-width:0.10299226"
       y="16.9114"
       x="50.563259"
       id="tspan107"
       sodipodi:role="line">2016</tspan></text>
</svg>
