<svg
   width="813.623"
   height="100%"
   viewBox="0 0 215.271 267.588"
   version="1.1"
   id="svg827">
  <metadata
     id="metadata344">
  </metadata>
  <defs
     id="defs342" />
  <path
     stroke-miterlimit="4"
     id="path5216"
     d="M17.44 13.627v242.147"
     fill="none"
     stroke="#ccc"
     stroke-width="1"
     stroke-linecap="butt"
     stroke-linejoin="miter"
     stroke-dasharray="none"
     stroke-opacity="1" />
  <g
     transform="translate(-6.51 -24.656)"
     id="g5174"
     fill-opacity="1"
     stroke="none">
    <rect
       stroke-miterlimit="4"
       id="rect5154"
       width="33.412"
       height="13.826"
       x="7.245"
       y="24.656"
       rx="3.252"
       ry="3.252"
       fill="#247da6"
       stroke-width=".236"
       stroke-dasharray="none"
       stroke-dashoffset="0" />
    <g
       aria-label="2016"
       style="line-height:1.25;font-variant-ligatures:normal;font-variant-caps:normal;font-variant-numeric:normal;font-feature-settings:normal;text-align:start"
       id="text5158"
       font-style="normal"
       font-variant="normal"
       font-weight="400"
       font-stretch="normal"
       font-size="9.878"
       font-family="Ubuntu"
       letter-spacing="0"
       word-spacing="0"
       writing-mode="lr-tb"
       text-anchor="start"
       fill="#fff"
       stroke-width=".265" />
  </g>
  <g
     transform="translate(-5.755 15.787)"
     id="g5169"
     fill-opacity="1"
     stroke="none">
    <rect
       stroke-miterlimit="4"
       ry="2.897"
       rx="2.897"
       y="47.146"
       x="8.316"
       height="12.314"
       width="29.758"
       id="rect5160"
       fill="#247da6"
       stroke-width=".21"
       stroke-dasharray="none"
       stroke-dashoffset="0" />
    <g
       aria-label="2013"
       style="line-height:1.25;font-variant-ligatures:normal;font-variant-caps:normal;font-variant-numeric:normal;font-feature-settings:normal;text-align:start"
       id="text5164"
       font-style="normal"
       font-variant="normal"
       font-weight="400"
       font-stretch="normal"
       font-size="7.056"
       font-family="Ubuntu"
       letter-spacing="0"
       word-spacing="0"
       writing-mode="lr-tb"
       text-anchor="start"
       fill="#fff"
       stroke-width=".265" />
  </g>
  <g
     id="g5182"
     transform="translate(-5.755 84.65)"
     fill-opacity="1"
     stroke="none">
    <rect
       stroke-miterlimit="4"
       id="rect5176"
       width="29.758"
       height="12.314"
       x="8.316"
       y="47.146"
       rx="2.897"
       ry="2.897"
       fill="#247da6"
       stroke-width=".21"
       stroke-dasharray="none"
       stroke-dashoffset="0" />
    <g
       aria-label="2012"
       style="line-height:1.25;font-variant-ligatures:normal;font-variant-caps:normal;font-variant-numeric:normal;font-feature-settings:normal;text-align:start"
       id="text5180"
       font-style="normal"
       font-variant="normal"
       font-weight="400"
       font-stretch="normal"
       font-size="7.056"
       font-family="Ubuntu"
       letter-spacing="0"
       word-spacing="0"
       writing-mode="lr-tb"
       text-anchor="start"
       fill="#fff"
       stroke-width=".265" />
  </g>
  <circle
     stroke-miterlimit="4"
     r="17.44"
     cy="38.545"
     cx="17.441"
     id="path5184"
     fill="#ececec"
     fill-opacity="1"
     stroke="none"
     stroke-width=".264"
     stroke-dasharray="none"
     stroke-dashoffset="0" />
  <g
     id="g5078"
     transform="translate(-2.167 20.147) scale(.15702)">
    <path
       d="M42.189 146.812v5.628h8.143v-5.628c0-2.632-1.63-4.304-4.049-4.304-2.422 0-4.094 1.672-4.094 4.304m-10.459 0v5.628h8.14v-5.628c0-2.632-1.625-4.304-4.05-4.304-2.422 0-4.09 1.672-4.09 4.304m20.993 0v5.628h4.036v-9.932c-2.424 0-4.036 1.672-4.036 4.304m-27.366-4.304l-.065.003v9.929h4.114v-5.628c0-2.632-1.628-4.304-4.05-4.304"
       id="path2"
       fill="#f14b1c" />
    <path
       d="M51.816 85.653a3.705 3.705 0 00-.416-.023h-.002l-.054.003-.053-.003a5.105 5.105 0 00-5.104 5.11v30.045c0 2.927-2.371 5.31-5.29 5.342a5.351 5.351 0 01-5.287-5.342V90.741a5.11 5.11 0 00-5.107-5.11l-.053.002-.05-.003c-.144 0-.285.008-.42.023a5.1 5.1 0 00-4.688 5.088v30.044c0 8.582 6.974 15.568 15.552 15.568h.106c8.576 0 15.554-6.986 15.554-15.568V90.741a5.104 5.104 0 00-4.688-5.088m106.46-.023a15.483 15.483 0 00-10.502 4.097 15.469 15.469 0 00-10.5-4.097c-8.576 0-15.553 6.984-15.553 15.568v30.044a5.106 5.106 0 1010.211 0v-30.044a5.35 5.35 0 015.343-5.344 5.346 5.346 0 015.339 5.344v30.044a5.111 5.111 0 005.11 5.11h.107a5.108 5.108 0 005.105-5.11v-30.044a5.348 5.348 0 015.34-5.344 5.35 5.35 0 015.343 5.344v30.044a5.106 5.106 0 005.106 5.11 5.107 5.107 0 005.103-5.11v-30.044c0-8.584-6.979-15.568-15.552-15.568m28.507 7.438c-4.846 4.85-7.514 11.3-7.514 18.16 0 6.86 2.668 13.308 7.514 18.156 10.006 10.017 26.282 10.017 36.285 0a4.63 4.63 0 000-6.551 4.624 4.624 0 00-6.55 0c-6.39 6.395-16.79 6.395-23.186 0a16.325 16.325 0 01-4.798-11.604c0-4.386 1.704-8.508 4.798-11.605 6.396-6.4 16.796-6.4 23.187 0a4.627 4.627 0 006.55 0 4.635 4.635 0 000-6.556c-10.004-10.012-26.28-10.012-36.286 0m-70.79 7.718c0-8.386-6.817-15.211-15.199-15.211H67.652c-.172 0-.342.01-.513.029a4.989 4.989 0 00-4.476 4.964l.001.055-.001.05a4.995 4.995 0 004.99 4.998h33.141c2.86 0 5.19 2.314 5.217 5.17a5.225 5.225 0 01-5.217 5.17H77.63c-8.376 0-15.194 6.827-15.194 15.214l.002.05-.002.055v9.89a4.991 4.991 0 004.988 4.992l.051-.001.053.001a4.987 4.987 0 004.987-4.992l-.103-9.944c.031-2.853 2.359-5.17 5.218-5.17h23.164c8.382 0 15.199-6.825 15.199-15.212v-.108M66.606 152.56c-1.509 0-2.655-.322-3.634-1.317l1.26-1.257c.627.63 1.48.838 2.402.838 1.147 0 1.762-.432 1.762-1.232 0-.35-.098-.642-.308-.84-.196-.18-.42-.28-.88-.349l-1.203-.167c-.851-.126-1.48-.39-1.927-.827-.476-.474-.714-1.117-.714-1.96 0-1.776 1.313-3.02 3.467-3.02 1.37 0 2.362.336 3.214 1.161l-1.23 1.218c-.629-.601-1.384-.687-2.04-.687-1.034 0-1.538.573-1.538 1.26 0 .251.083.519.294.714.195.182.516.335.922.392l1.174.167c.909.126 1.482.378 1.9.77.532.504.77 1.232.77 2.113 0 1.93-1.608 3.023-3.69 3.023m10.093-7.866c-.279-.319-.712-.53-1.243-.53-.532 0-.979.211-1.26.53-.377.42-.474.883-.474 2.801 0 1.916.097 2.379.475 2.797.28.323.727.532 1.259.532.53 0 .964-.209 1.243-.532.377-.418.49-.881.49-2.797 0-1.918-.113-2.382-.49-2.8zm1.44 6.772c-.699.701-1.552 1.094-2.683 1.094-1.133 0-1.999-.393-2.7-1.094-1.006-1.005-.978-2.251-.978-3.971 0-1.722-.028-2.967.978-3.974.701-.7 1.567-1.092 2.7-1.092 1.131 0 1.984.393 2.683 1.092 1.006 1.007.993 2.252.993 3.974 0 1.72.013 2.966-.993 3.971m6.738-7.218h-1.83v2.63h1.83c.853 0 1.413-.546 1.413-1.315 0-.769-.56-1.315-1.413-1.315zm1.51 8.227l-1.943-3.974h-1.396v3.974h-1.943v-9.963h3.898c2.027 0 3.23 1.385 3.23 3.051 0 1.399-.854 2.265-1.817 2.615l2.222 4.297h-2.251m7.815-4.185h-2.027v2.45h2.027c.881 0 1.3-.56 1.3-1.231s-.419-1.218-1.3-1.218zm-.126-4.042h-1.9v2.295h1.9c.826 0 1.287-.463 1.287-1.148 0-.687-.461-1.147-1.287-1.147zm.323 8.227h-4.167v-9.963h4c1.942 0 3.074 1.092 3.074 2.8 0 1.105-.727 1.819-1.23 2.056.6.28 1.37.91 1.37 2.239 0 1.86-1.272 2.868-3.047 2.868m9.604-7.781c-.28-.319-.714-.53-1.246-.53-.53 0-.978.211-1.257.53-.377.42-.475.883-.475 2.801 0 1.916.098 2.379.475 2.797.28.323.727.532 1.257.532.532 0 .965-.209 1.246-.532.377-.418.488-.881.488-2.797 0-1.918-.111-2.382-.488-2.8zm1.44 6.772c-.7.701-1.552 1.094-2.686 1.094-1.131 0-1.998-.393-2.696-1.094-1.007-1.005-.978-2.251-.978-3.971 0-1.722-.03-2.967.978-3.974.698-.7 1.565-1.092 2.696-1.092 1.134 0 1.986.393 2.685 1.092 1.006 1.007.993 2.252.993 3.974 0 1.72.013 2.966-.993 3.971m8.851 1.009l-3.943-6.115v6.115h-1.943v-9.963h1.734l3.942 6.102v-6.102h1.943v9.963h-1.733m9.924 0l-3.942-6.115v6.115h-1.942v-9.963h1.733l3.942 6.102v-6.102h1.944v9.963h-1.735m4.042 0v-9.963h6.555v1.736h-4.613v2.337h3.93v1.735h-3.93v2.42h4.613v1.735h-6.554"
       id="path4"
       fill="#8c6851" />
    <path
       d="M143.444 152.56c-2.042 0-3.664-1.385-3.664-3.498v-6.55h1.943v6.479c0 1.146.672 1.833 1.721 1.833 1.047 0 1.732-.687 1.732-1.833v-6.479h1.929v6.55c0 2.113-1.621 3.498-3.661 3.498m13.435-.085h-1.735l-3.942-6.115v6.115h-1.942v-9.963h1.733l3.942 6.102v-6.102h1.944v9.963m2.307 0h1.942v-9.963h-1.942zm7.871 0h-1.454l-3.285-9.963h2.013l2 6.493 1.997-6.493h2.028l-3.3 9.963m11.045 0h-6.555v-9.963h6.555v1.736h-4.612v2.337h3.927v1.735h-3.927v2.42h4.612v1.735m9.424 0h-2.252l-1.943-3.974h-1.397v3.974h-1.943v-9.963h3.9c2.027 0 3.228 1.385 3.228 3.051 0 1.399-.851 2.265-1.816 2.615l2.223 4.297m-5.592-8.227v2.63h1.83c.854 0 1.413-.546 1.413-1.315 0-.769-.559-1.315-1.412-1.315h-1.831m9.925 8.312c-1.509 0-2.654-.322-3.633-1.317l1.257-1.257c.629.63 1.483.838 2.405.838 1.146 0 1.761-.432 1.761-1.232 0-.35-.098-.642-.307-.84-.196-.18-.42-.28-.881-.349l-1.201-.167c-.853-.126-1.483-.39-1.93-.827-.476-.474-.713-1.117-.713-1.96 0-1.776 1.314-3.02 3.467-3.02 1.369 0 2.363.336 3.215 1.161l-1.23 1.218c-.63-.601-1.385-.687-2.04-.687-1.035 0-1.54.573-1.54 1.26a.97.97 0 00.294.714c.197.182.518.335.922.392l1.175.167c.91.126 1.482.378 1.901.77.533.504.77 1.232.77 2.113 0 1.93-1.609 3.023-3.692 3.023m5.51-.085h1.942v-9.963h-1.942zm8.052 0h-1.943v-8.227h-2.6v-1.736h7.142v1.736h-2.599v8.227m10.723 0h-6.555v-9.963h6.555v1.736h-4.613v2.337h3.928v1.735h-3.928v2.42h4.613v1.735m-2.949-10.927h-1.216l.894-2.38h1.915l-1.593 2.38m7.578 11.012c-1.51 0-2.657-.322-3.635-1.317l1.258-1.257c.63.63 1.481.838 2.404.838 1.146 0 1.762-.432 1.762-1.232 0-.35-.098-.642-.308-.84-.196-.18-.42-.28-.88-.349l-1.203-.167c-.852-.126-1.482-.39-1.929-.827-.476-.474-.712-1.117-.712-1.96 0-1.776 1.313-3.02 3.466-3.02 1.37 0 2.362.336 3.215 1.161l-1.23 1.218c-.628-.601-1.384-.687-2.041-.687-1.035 0-1.537.573-1.537 1.26 0 .251.083.519.293.714.196.182.517.335.923.392l1.174.167c.909.126 1.481.378 1.9.77.532.504.77 1.232.77 2.113 0 1.93-1.608 3.023-3.69 3.023"
       id="path6"
       fill="#c0a896" />
  </g>
  <circle
     stroke-miterlimit="4"
     id="circle5186"
     cx="17.441"
     cy="104.56"
     r="17.44"
     fill="#ececec"
     fill-opacity="1"
     stroke="none"
     stroke-width=".264"
     stroke-dasharray="none"
     stroke-dashoffset="0" />
  <g
     id="g842"
     transform="translate(-.555 85.501) scale(.09172)">
    <path
       d="M248 263.821c2.158 3.545 4.645 5.764 8.965 5.764 4.493 0 7.709-3.705 7.709-8.094 0-10.299-17.342-5.76-17.342-18.279 0-7.139 5.645-10.63 12.292-10.63 2.663 0 5.871.828 7.93 2.658-.668 1.444-1.058 2.995-1.5 4.538h-.559c-1.157-2.987-3.598-4.82-6.856-4.82-3.832 0-6.995 2.551-6.995 6.49 0 10.184 17.454 6.08 17.454 17.88 0 7.931-6.154 12.64-13.68 12.64-2.716 0-7.147-1.16-9.034-3.212.554-1.608.837-3.273 1.055-4.935h.56zm-21.247-13.908h8.584c1.665 0 3.27-.222 4.928-.268-.05.44-.16.94-.16 1.433 0 .45.11.943.16 1.558-1.658-.065-3.263-.279-4.928-.279h-8.584v16.174c3.381.119 6.712-.107 10.032-.222a38.306 38.306 0 005.092-.5c-.054.615-.168 1.112-.168 1.67 0 .546.114 1.107.168 1.665h-19.998V233.41h19.661c-.05.612-.164 1.1-.164 1.662 0 .558.115 1.112.164 1.662-1.654-.332-3.323-.493-4.973-.608l-5.55-.114h-4.264v13.9zm-56.772-16.503c.772.062 1.604.153 2.437.153.78 0 1.551-.091 2.445-.153v37.88c-.894-.047-1.666-.146-2.445-.146-.833 0-1.665.1-2.437.145zm44.755 37.88h-1.654a66.81 66.81 0 00-2.888-3.366l-23.932-26.476h-.546v29.841c-.57-.046-1.05-.145-1.551-.145-.554 0-1.058.1-1.555.145V233.41h2.162l26.312 28.536h.55V233.41c.5.062 1.001.153 1.555.153.489 0 .997-.092 1.547-.153zm-54.897-37.88c1.444 13.68 2.995 27.317 4.496 37.88-1-.047-1.772-.146-2.609-.146-.886 0-1.769.1-2.601.145-.94-11.128-2.052-23.088-2.823-28.573-6.433 11.475-11.189 20.33-14.516 27.973h-.611l-3.04-6.253c-3.55-7.319-7.43-14.523-11.193-21.72-1.211 10.806-2.716 21.77-2.716 28.573-.719-.046-1.326-.145-1.937-.145-.722 0-1.337.1-1.99.145 1.432-8.904 4.763-32.053 5.313-37.879h1.44c4.428 8.794 9.749 19.226 15.674 29.032 5.267-9.481 10.363-19.115 15.952-29.032zm41.088-88.212l49.247-42.856 58.716-29.498-48.433 40.92a61.581 61.581 0 012.88 5.23l82.84-46.704-77.748 60.41a67.565 67.565 0 012.017 16.413c0 38.899-33.188 70.429-74.134 70.429-13.175 0-25.548-3.259-36.27-8.989l86.51-46.989-62.624 47.704a63.022 63.022 0 0012.384 1.237c34.662 0 62.75-28.386 62.75-63.392 0-11.154-2.85-21.632-7.857-30.743zm-59.882 33.977c-4.782-8.95-7.487-19.184-7.487-30.06 0-35.01 28.092-63.392 62.754-63.392a62.5 62.5 0 0111.093.986l.482.607-62.334 46.191 87.06-45.84c-10.612-5.546-23.343-8.992-36.3-8.992-40.947 0-74.138 31.542-74.138 70.44 0 5.543.672 10.937 1.948 16.12l-77.9 60.092 82.71-46.783a69.57 69.57 0 003.353 6.108l-51.561 41.512 61.218-30.335 49.247-44.234-50.145 27.58"
       id="path2-6"
       fill="#005c9e" />
    <path
       d="M116.899 226.725l27.267-28.107 75.688-41.736-62.613 50.912zm57.04-87.097l61.486-49.53 39.238-17.808-26.43 26.992z"
       id="path4-7"
       fill="#005c9e" />
    <path
       d="M86.572 301.344c1.654 0 5.975.379 8.958-.11 9.36-1.563 14.184-4.603 14.184-11.28 0-6.682-4.23-9.062-17.102-9.062h-11.85v37.787c.921-.053 1.914-.137 2.904-.137.924 0 1.844.084 2.906.137zm0-18.293c1.987-.107 6.705-.168 9.562.057 5.24.382 7.498 3.369 7.498 7.12 0 4.905-3.85 8.4-10.49 8.947-2.257.168-4.916.168-6.57 0V283.05zm39.946 19.424l-1.073.416c-2.422.951-2.353.829-6.785 1.784-5.21 1.13-10.57 1.784-10.852 7.735-.15 3.752 3.782 6.613 8.209 6.85 4.355.236 8.717-1.677 10.146-5.299v4.58h8.713v-1.016h-2.998V300.92c0-4.4-.784-8.507-10.215-8.923-2.575-.123-2.185.114-4.042.347-2.146.302-4.14.967-5.565 1.501v7.969h1.276l1.574-3.331c1.356-2.858 1.543-5.948 6.184-5.531 4.645.408 5.428 2.968 5.428 5.703zm0 3.747c0 1.54.069 2.498-.141 4.042-.5 3.456-3.217 7.261-7.717 7.506-3.785.24-5.573-2.74-5.283-5.478.638-6.131 2.999-5.355 10.284-7.617l2.857-.894zm26.22 12.32h-12.93v-1.016h3.216V293.72h-3.362v-1.074h8.358v5.421c.355-1.96 3.354-5.596 8.072-5.596 1.356 0 2.57.305 3.93.89v9.404h-1.36l-1.718-4.343c-1.215-3.04-2.144-4.996-4-4.106-4.847 2.322-4.424 7.91-4.424 13.152v10.058h4.218zm19.364-31.901c0 1.662-1.635 2.858-3.496 2.858-1.787 0-3.43-1.31-3.43-2.804 0-1.478 1.574-2.915 3.358-2.915 1.933 0 3.568 1.303 3.568 2.861m-8.997 31.9v-1.015h3.286V293.72h-3.072v-1.074h8.641v24.88h2.934v1.016h-11.789zm34.124-19.821c-1.348-4.05-2.716-5.653-6.414-5.653-3.22 0-7.296 1.073-7.582 4.347-.21 2.922 3.43 4.106 6.715 5 5.574 1.604 12.071 3.27 11.85 8.453-.142 4.936-5.066 8.568-11.777 8.446-3.855-.053-8.213-1.302-9.71-2.2v-8.507h1.287l1.497 4.282c1.647 4.825 3.495 4.882 6.43 5.123 4.064.351 8.709-1.31 9.06-4.645.508-4.107-6.066-5.18-10.21-6.43-2.927-.897-8.638-2.497-8.638-7.376 0-5.714 7.426-7.624 11.353-7.624 3.29 0 7.067 1.07 8.427 1.784v7.8h-1.36z"
       id="path6-5"
       fill="#666" />
    <path
       d="M216.084 318.79a52.436 52.436 0 00-2.895-.084c-.993 0-1.99.027-2.907.084v-35.277c-6.7 0-10.75.328-14.52.66.065-.546.233-1.103.233-1.646 0-.546-.168-1.035-.233-1.635h34.193c-.07.6-.161 1.09-.161 1.635 0 .543.092 1.1.16 1.647-3.32-.333-7.964-.661-13.87-.661z"
       id="path8" />
    <path
       d="M216.084 318.79l.012-.244a53.022 53.022 0 00-2.907-.084c-.997 0-2.002.026-2.922.084l.015.244h.244v-35.522h-.244c-6.708 0-10.769.329-14.543.661l.023.245.241.03c.061-.52.237-1.085.237-1.677-.004-.6-.176-1.092-.237-1.661l-.24.026v.245h34.192v-.245l-.245-.026c-.065.588-.16 1.085-.16 1.661 0 .57.095 1.135.16 1.677l.245-.03.022-.24c-3.327-.337-7.98-.666-13.893-.666h-.244v35.522h.244l.012-.244-.012.244h.245v-35.277h-.245v.244c5.894 0 10.532.329 13.844.661l.306.03-.039-.305c-.068-.554-.156-1.1-.156-1.616 0-.515.087-.997.156-1.608l.03-.271h-34.738l.03.271c.073.634.238 1.116.234 1.608.004.493-.16 1.043-.233 1.616l-.038.302.301-.027c3.77-.332 7.808-.66 14.5-.66v-.245h-.244v35.537l.26-.015a46.27 46.27 0 012.892-.085c.913 0 1.826.027 2.884.085l.256.011v-.256zm32.034-9.886h-1.356l-.068.71c-.356 3.568-3.297 8.687-8.863 8.397-6.28-.298-7.643-5.776-7.643-11.972v-3.03h17.862c.638-5.48-3.939-11.249-11.074-11.192-7.358.119-12.354 6.25-12.786 13.508-.428 7.922 5.493 14.053 13.217 13.935 6.063-.122 10.207-4.584 10.643-9.53zm-17.357-10.249c.504-2.846 2.784-5.588 5.92-5.703 3.79-.176 5.23 3.155 5.295 6.131l.069 2.796h-11.858l.573-3.224z"
       id="path10" />
    <path
       d="M248.118 308.904v-.245h-1.577l-.092.933c-.336 3.384-3.071 8.197-8.167 8.186l-.435-.012c-3.072-.156-4.875-1.528-5.975-3.644-1.096-2.116-1.44-5.004-1.44-8.083v-2.785h17.835l.027-.217c.038-.348.061-.7.061-1.05-.011-5.265-4.51-10.403-11.272-10.414h-.111c-7.506.122-12.595 6.383-13.026 13.737l-.023.82c0 3.79 1.444 7.137 3.824 9.532 2.38 2.398 5.7 3.843 9.439 3.843h.225c6.189-.127 10.436-4.688 10.883-9.757l.065-.825.023-.263h-.263v.244l-.245-.019-.069.822c-.428 4.824-4.465 9.186-10.401 9.309h-.218c-7.22-.004-12.77-5.562-12.774-12.885l.023-.79c.431-7.163 5.336-13.16 12.545-13.279h.103c6.501 0 10.78 4.94 10.78 9.924l-.058.993.245.031v-.244h-18.107v3.273c.004 3.114.34 6.067 1.494 8.309 1.15 2.246 3.17 3.762 6.383 3.908l.462.011c5.451-.015 8.3-5.077 8.652-8.626l.05-.492h1.134v-.245l-.244-.019.244.02zm-17.357-10.249l.24.042c.485-2.758 2.705-5.398 5.692-5.5l.275-.009c3.385-.004 4.683 3.049 4.764 5.898l.06 2.548h-11.31l.52-2.937-.241-.042-.241-.042-.573 3.224-.05.286h12.396l-.073-3.048c-.05-2.945-1.49-6.368-5.252-6.375l-.298.008c-3.281.13-5.63 2.972-6.15 5.905l.24.042zm42.966 3.759l-.71-2.147c-1.57-5.172-3.43-7.49-6.716-7.56-6.93-.114-8.071 7.385-7.926 13.038.145 5.241.718 11.968 8.003 12.025 4.286.054 6.933-3.335 7.636-6.971l.374-1.895h1.272l-.206 1.31c-1.066 6.838-5.573 8.985-10.574 8.924-8.071-.061-12.644-7.086-12.644-13.748 0-6.968 5.356-13.454 13.71-13.756 2.143-.05 5.852.126 9.141 1.727v9.053z"
       id="path12" />
    <path
       d="M273.727 302.414l.233-.076-.71-2.147-.233.076.233-.069c-1.559-5.187-3.51-7.666-6.941-7.735l-.16-.004c-3.309-.007-5.368 1.75-6.529 4.16-1.165 2.41-1.5 5.474-1.5 8.232l.01.898c.077 2.628.249 5.646 1.345 8.052 1.093 2.41 3.178 4.194 6.899 4.214h.1c4.377 0 7.078-3.488 7.78-7.17l.333-1.697h.787l-.16 1.028c-1.055 6.628-5.272 8.694-10.12 8.717h-.21c-7.91-.057-12.396-6.94-12.403-13.503.004-6.846 5.252-13.21 13.473-13.511l.622-.008c2.174 0 5.47.278 8.404 1.71l.107-.22h-.244v8.808h-1.116v.245l.233-.077-.233.077v.244h1.605v-9.45l-.138-.065c-3.04-1.483-6.402-1.758-8.618-1.761l-.638.008c-8.484.305-13.95 6.906-13.946 14-.008 6.761 4.653 13.927 12.888 13.992h.214c4.981.023 9.55-2.28 10.6-9.133l.207-1.307.042-.282h-1.757l-.413 2.093c-.688 3.533-3.216 6.776-7.3 6.773h-.091c-3.568-.039-5.406-1.65-6.46-3.927-1.047-2.28-1.23-5.249-1.303-7.862l-.011-.886c0-2.716.34-5.722 1.455-8.018 1.123-2.296 2.957-3.877 6.085-3.885l.15.004c3.132.073 4.904 2.223 6.486 7.388l.004.008.706 2.143.054.168h.18v-.245zm22.205 16.128v-1.016h3.794V300.45c0-3.392.065-6.788-4.08-6.665-5.994.175-6.777 7.2-6.777 12.438v11.303h4.065v1.016h-12.495v-1.016h3.01v-33.028h-3.217v-1.07h8.637v13.508c.852-2.265 4.493-5 8.35-4.698 5.792.408 7.79 2.433 7.79 7.918v17.37h3.143v1.016z"
       id="path14" />
    <path
       d="M295.932 318.542h.245v-.772h3.793v-17.62c0-1.616-.008-3.228-.523-4.489-.508-1.268-1.616-2.139-3.587-2.124l-.222.004c-3.105.08-4.904 1.99-5.856 4.477-.966 2.487-1.157 5.574-1.157 8.206v11.547h4.064v.527h-12.006v-.527h3.01v-33.516h-3.216v-.58h8.148v13.262l.47.088c.748-2.028 4.022-4.58 7.54-4.565l.566.02c2.876.202 4.756.81 5.91 1.986 1.157 1.173 1.653 2.972 1.653 5.691v17.614h3.144v.527h-11.976v.245h.245-.245v.244h12.465v-1.505h-3.144v-17.125c0-2.765-.5-4.721-1.791-6.035-1.295-1.31-3.308-1.922-6.223-2.128l-.604-.023c-3.75.015-7.124 2.605-7.995 4.878l.23.088h.244v-13.752h-9.126v1.558h3.216v32.538h-3.01v1.505h12.984v-1.505h-4.064v-11.059c-.004-2.609.198-5.65 1.123-8.03.936-2.383 2.525-4.071 5.417-4.163l.206-.004c1.841.015 2.662.714 3.136 1.822.466 1.12.489 2.69.485 4.301v17.133h-3.793v1.505h.244z"
       id="path16" />
  </g>
  <circle
     stroke-miterlimit="4"
     r="17.44"
     cy="167.682"
     cx="17.441"
     id="circle5188"
     fill="#ececec"
     fill-opacity="1"
     stroke="none"
     stroke-width=".264"
     stroke-dasharray="none"
     stroke-dashoffset="0" />
  <g
     id="g4524"
     transform="translate(-1.683 148.878) scale(.11405)">
    <path
       d="M49.21 212.885c-20.5-3.464-30.588-21.774-25.423-46.146 2.13-10.051 6.114-17.54 12.981-24.408 10.21-10.21 22.816-14.376 37.29-12.326 17.23 2.44 26.094 14.825 23.91 33.405-.344 2.927-.855 5.923-1.137 6.657-.41 1.072-6.37 1.335-30.251 1.335H36.84l-.288 8.725c-.238 7.18.097 9.623 1.892 13.794 5.291 12.301 18.985 16.994 35.04 12.008 3.496-1.086 8.044-3.127 10.106-4.536 4.057-2.772 4.504-2.23 2.371 2.874-1.128 2.7-2.45 3.693-7.25 5.45-10.102 3.695-20.054 4.764-29.5 3.168zm36.453-52.277c1.253-5.303-.04-13.99-2.662-17.881-11.182-16.593-36.269-7.39-43.27 15.871-1.123 3.734-1.153 4.84-.149 5.486.692.445 11.142.699 23.221.564l21.963-.246zm14.769 36.544c1.998-8.112 5.781-25.775 8.406-39.25 2.625-13.475 4.923-25.062 5.106-25.75.22-.825 2.384-1.25 6.365-1.25 6.426 0 6.91.486 5.178 5.185-.47 1.274-1.168 3.612-1.552 5.196-.695 2.869-.678 2.863 4.103-1.39 7.84-6.972 14.262-9.479 24.302-9.485 10.339-.007 16.607 2.588 21.041 8.71 4.193 5.788 4.66 11.181 2.012 23.198-2.697 12.234-8.58 40.659-9.487 45.836l-.656 3.75h-13.618l3.285-11.99c4.004-14.612 8.345-35.37 9.11-43.565.65-6.944-.763-10.648-5.616-14.732-8.96-7.54-26.649-2.742-33.758 9.155-3.54 5.924-7.436 20.815-12.062 46.094l-2.75 15.036h-6.522l-6.52.002zm80.938 12.172c1.47-3.866 6.525-24.277 9.515-38.422 2.04-9.645 7.455-38.415 7.455-39.602 0-.114 3.15-.187 7-.163 3.85.024 7 .258 7 .52 0 .261-1.114 4.586-2.475 9.61-3.09 11.404-10.76 46.732-13.109 60.385l-1.764 10.25H180.39zm46.05-19.005c.047-1.165.284-1.402.603-.604.29.722.254 1.584-.079 1.917-.332.332-.568-.259-.525-1.313zm-27.58-73.277c-5.143-3.177-6.807-5.805-7.28-11.494-.402-4.855-.162-5.642 2.72-8.924 7.553-8.603 20.67-6.493 24.093 3.876 3.876 11.747-9.27 22.88-19.533 16.542z"
       id="path2-2"
       fill="#e43016" />
    <path
       d="M215.67 209.652c1.848-7.616 11.67-73.064 11.67-77.768 0-.54 2.273-.982 5.051-.982 4.821 0 5.117.159 6.504 3.477 4.573 10.945 25.508 52.603 26.216 52.165.463-.286 6.891-12.914 14.285-28.061l13.444-27.541 5.044-.02 5.043-.02 3.304 28.75c1.816 15.813 4.06 34.038 4.987 40.5l1.684 11.75h-19.16l-1.201-15.75c-1.721-22.585-3.403-38.256-4.099-38.207-.33.023-6.436 12.194-13.567 27.045-11.907 24.8-13.157 26.98-15.324 26.708-2.023-.253-4.156-4.034-14.98-26.55-6.942-14.44-12.93-25.915-13.305-25.5-.94 1.037-4.906 42.13-4.923 51.004-.002.852-1.792 1.25-5.611 1.25-5.311 0-5.58-.119-5.062-2.25z"
       id="path4-9"
       fill="#1a181c" />
  </g>
  <g
     transform="translate(-5.755 146.122)"
     id="g5196"
     stroke="none"
     fill-opacity="1">
    <rect
       stroke-miterlimit="4"
       ry="2.897"
       rx="2.897"
       y="47.146"
       x="8.316"
       height="12.314"
       width="29.758"
       id="rect5190"
       stroke-dashoffset="0"
       stroke-dasharray="none"
       stroke-width=".21"
       fill="#247da6" />
    <g
       aria-label="2010"
       style="line-height:1.25;font-variant-ligatures:normal;font-variant-caps:normal;font-variant-numeric:normal;font-feature-settings:normal;text-align:start"
       id="text5194"
       font-style="normal"
       font-variant="normal"
       font-weight="400"
       font-stretch="normal"
       font-size="7.056"
       letter-spacing="0"
       word-spacing="0"
       writing-mode="lr-tb"
       text-anchor="start"
       font-family="Ubuntu"
       stroke-width=".265"
       fill="#fff" />
  </g>
  <circle
     stroke-miterlimit="4"
     id="circle5198"
     cx="17.441"
     cy="229.689"
     r="17.44"
     fill="#ececec"
     fill-opacity="1"
     stroke="none"
     stroke-width=".264"
     stroke-dasharray="none"
     stroke-dashoffset="0" />
  <g
     id="g818"
     transform="translate(-1.105 210.964) scale(.02043)">
    <path
       d="M383.924 1504.341c-14.482-.717-18.717-1.438-25.744-4.378-18.85-7.888-34.008-22.19-43.32-40.87l-5.596-11.226-1.019-103.44c-.56-56.893-.862-299.941-.67-540.108l.349-436.666 4.252-10.231c5.722-13.769 10.004-20.268 19.634-29.8 8.876-8.784 19.054-14.723 33.447-19.52l9.333-3.109 522.667-.004c398.348-.003 526.598.38 539.193 1.607 14.057 1.37 17.94 2.282 26 6.11 19.163 9.105 34.476 26.067 41.807 46.31l3.611 9.97.395 456c.217 250.8-.087 492.9-.676 538l-1.07 82-3.847 9.333c-8.382 20.334-21.457 33.735-43.394 44.475l-12.648 6.191-522.685.108c-287.477.059-530.486-.28-540.02-.752zm1036.666-19.808l24.667-.88 10-4.813c15.946-7.674 25.861-20.042 31.419-39.187 2.19-7.543 2.325-37.868 2.362-530.667.03-393.663-.346-525.221-1.526-533.016-4.073-26.919-24.502-47.037-51.253-50.476-5.827-.75-216.548-1.257-530.426-1.277-574.234-.038-531.218-.686-548 8.258-9.716 5.179-20.408 16.464-25.116 26.51l-3.437 7.334-1.061 56.667c-.583 31.167-.878 272.967-.654 537.333l.407 480.667 4.375 8.995c6.05 12.437 16.622 23.491 27.863 29.132 8.776 4.404 9.646 4.562 29.047 5.288 28.51 1.068 1001.62 1.192 1031.333.132zM864.47 1314.9l-3.455-1.328-.876-32.96c-1.094-41.165-.82-747.129.299-768.904l.82-15.945 5.332-1.268c6.806-1.618 68.506-1.64 77.334-.027l6.666 1.218v408.872c0 224.88-.499 409.372-1.11 409.983-1.628 1.631-80.834 1.965-85.01.36zm-61.213-11.224c-12.1-3.171-29.5-8.602-38.667-12.069-14.745-5.577-55.24-25.146-68-32.86-20.589-12.448-49.171-34.395-66.333-50.934l-12.333-11.886V613.645l9.92-9.424c11.787-11.196 35.07-30.198 48.008-39.18 13.052-9.06 32.506-20.722 34.571-20.722 2.914 0 3.5 54.936 3.5 328.005 0 140.564.394 264.667.876 275.783l.874 20.212h8.959c4.927 0 10.833-.375 13.125-.833l4.167-.833.099-314.167c.054-172.792.504-316.824 1-320.072l.9-5.905 11.334-4.455c26.283-10.33 60.898-20.29 70.8-20.373 3.422-.028 3.48.133 4.334 12.176 1.131 15.943 1.131 767.649 0 783.59-.71 10.006-1.25 12.186-3 12.1-1.174-.059-12.034-2.7-24.134-5.871zm176.447-65.023c.486-39.05.884-113.45.885-165.334l.001-94.333 43 .02c24.747.012 43.849.557 45 1.284 1.736 1.096 2.088 13.422 2.667 93.203.366 50.566 1.002 92.274 1.411 92.683.41.409 6.71.909 14 1.11l13.255.366-.46-107.333c-.252-59.034-.559-107.44-.681-107.571-.123-.131-26.416-.731-58.43-1.334-32.014-.602-58.616-1.504-59.116-2.004s-1-101.12-1.11-223.6c-.16-176.677.142-223.034 1.465-224.358 2.825-2.827 31.917 4.587 69.666 17.754 14.725 5.136 56.078 25.211 66.467 32.268 3.924 2.664 7.628 4.845 8.231 4.845.604 0 3.849 2.1 7.211 4.666 3.363 2.567 6.506 4.667 6.985 4.667.48 0 6.526 4.35 13.438 9.667 6.912 5.316 14.764 11.347 17.45 13.4 2.687 2.053 10.134 8.94 16.551 15.306l11.667 11.572v215.388h-98.667v-188h-28v216l61 .02c36.101.013 61.816.537 63 1.285 1.757 1.11 2.048 21.505 2.396 167.77l.395 166.504-11.793 11.223c-40.218 38.272-86.216 66.6-141.316 87.028-21.044 7.802-54.759 16.837-62.83 16.837h-4.622z"
       id="path2-3"
       fill="#69b545" />
  </g>
  <g
     transform="translate(-6.51 229.106)"
     id="g5214"
     fill-opacity="1"
     stroke="none">
    <rect
       stroke-miterlimit="4"
       ry="3.252"
       rx="3.252"
       y="24.656"
       x="7.245"
       height="13.826"
       width="33.412"
       id="rect5208"
       fill="#247da6"
       stroke-width=".236"
       stroke-dasharray="none"
       stroke-dashoffset="0" />
    <g
       aria-label="2007"
       style="line-height:1.25;font-variant-ligatures:normal;font-variant-caps:normal;font-variant-numeric:normal;font-feature-settings:normal;text-align:start"
       id="text5212"
       font-style="normal"
       font-variant="normal"
       font-weight="400"
       font-stretch="normal"
       font-size="9.878"
       font-family="Ubuntu"
       letter-spacing="0"
       word-spacing="0"
       writing-mode="lr-tb"
       text-anchor="start"
       fill="#fff"
       stroke-width=".265" />
  </g>
  <text
     style="font-size:7.92748308px;line-height:0.89999998;stroke-width:0.66062355"
     class="title"
     id="text292"
     y="93.967041"
     x="40.412056"
     xml:space="preserve"><tspan
       style="line-height:0.89999998;stroke-width:0.10874137;font-size:8.81944365px"
       y="93.967041"
       x="40.412056"
       id="tspan298">Ecole Nationale Supérieure des </tspan><tspan
       style="line-height:0.89999998;stroke-width:0.10874137;font-size:8.81944365px"
       y="101.10178"
       x="40.412056"
       id="tspan374">Mines de Paris</tspan></text>
  <text
     xml:space="preserve"
     x="40.351353"
     y="113.20205"
     id="text306"
     style="font-size:7.67937899px;line-height:0.89999998;stroke-width:0.63994825"><tspan
       x="40.351353"
       y="113.20205"
       style="line-height:0.89999998;stroke-width:0.10533812;font-size:8.81944365px"
       id="tspan313">Master in Materials, Processing </tspan><tspan
       x="40.351353"
       y="120.11349"
       style="line-height:0.89999998;stroke-width:0.10533812;font-size:8.81944365px"
       id="tspan372">and Modelling</tspan></text>
  <text
     xml:space="preserve"
     x="39.340965"
     y="161.71338"
     id="text392"
     class="title"
     style="font-size:7.92748308px;line-height:0.89999998;stroke-width:0.66062355"><tspan
       id="tspan390"
       x="39.340965"
       y="161.71338"
       style="line-height:0.89999998;stroke-width:0.10874137;font-size:8.81944365px">Ecole Nationale d'Ingénieurs de Metz</tspan></text>
  <text
     style="font-size:7.67937899px;line-height:0.89999998;stroke-width:0.63994825"
     id="text398"
     y="173.71855"
     x="39.815811"
     xml:space="preserve"><tspan
       id="tspan396"
       style="line-height:0.89999998;stroke-width:0.10533812;font-size:8.81944365px"
       y="173.71855"
       x="39.815811"
       >Engineer degree + Master in Materials</tspan><tspan
       style="line-height:0.89999998;stroke-width:0.10533812;font-size:8.81944365px"
       y="180.62999"
       x="39.815811"
       id="tspan404">and Production</tspan></text>
  <text
     style="font-size:7.92748308px;line-height:0.89999998;stroke-width:0.66062355"
     class="title"
     id="text418"
     y="225.39842"
     x="39.60236"
     xml:space="preserve"><tspan
       style="font-size:8.8194437px;line-height:0.89999998;stroke-width:0.10874137"
       y="225.39842"
       x="39.60236"
       id="tspan416">Universidad Industrial de Santander</tspan></text>
  <text
     xml:space="preserve"
     x="39.537682"
     y="237.40359"
     id="text424"
     style="font-size:7.67937899px;line-height:0.89999998;stroke-width:0.63994825"><tspan
       x="39.537682"
       y="237.40359"
       style="font-size:8.8194437px;line-height:0.89999998;stroke-width:0.10533812"
       id="tspan428">Bachellor in Mechanical Engineering</tspan></text>
  <text
     xml:space="preserve"
     x="41.130951"
     y="33.633217"
     id="text436"
     class="title"
     style="font-size:8.82544708px;line-height:0.89999998;stroke-width:0.7354539"><tspan
       id="tspan434"
       x="41.130951"
       y="33.633217"
       style="line-height:0.89999998;stroke-width:0.12105875;font-size:8.81944365px">Université Pierre et Marie Curie</tspan></text>
  <text
     style="font-size:8.65222836px;line-height:0.89999998;stroke-width:0.72101903"
     id="text442"
     y="47.395542"
     x="41.04884"
     xml:space="preserve"><tspan
       id="tspan440"
       style="line-height:0.89999998;stroke-width:0.1186827;font-size:8.81944365px"
       y="47.395542"
       x="41.04884"
       >PhD in Physical Chemistry</tspan></text>
  <text
     xml:space="preserve"
     x="5.5518618"
     y="264.19934"
     id="text105"
     style="font-size:9.14593697px;line-height:0.89999998;stroke-width:0.76216125"><tspan
       id="tspan103"
       x="5.5518618"
       y="264.19934"
       style="fill:#ffffff;stroke-width:0.17187656">2007</tspan></text>
  <text
     style="font-size:9.14593697px;line-height:0.89999998;stroke-width:0.76216125"
     id="text93"
     y="202.78223"
     x="6.6026831"
     xml:space="preserve"><tspan
       style="fill:#ffffff;stroke-width:0.17187656"
       y="202.78223"
       x="6.6026831"
       id="tspan91"
       >2010</tspan></text>
  <text
     xml:space="preserve"
     x="6.5715823"
     y="140.94345"
     id="text97"
     style="font-size:9.14593697px;line-height:0.89999998;stroke-width:0.76216125"><tspan
       id="tspan95"
       x="6.5715823"
       y="140.94345"
       style="fill:#ffffff;stroke-width:0.17187656">2012</tspan></text>
  <text
     style="font-size:9.14593697px;line-height:0.89999998;stroke-width:0.76216125"
     id="text101"
     y="72.438866"
     x="6.3480029"
     xml:space="preserve"><tspan
       style="fill:#ffffff;stroke-width:0.17187656"
       y="72.438866"
       x="6.3480029"
       id="tspan99"
       >2013</tspan></text>
  <text
     xml:space="preserve"
     x="5.7825871"
     y="10.143645"
     id="text106"
     style="font-size:9.14593697px;line-height:0.89999998;stroke-width:0.76216125"><tspan
       id="tspan104"
       x="5.7825871"
       y="10.143645"
       style="fill:#ffffff;stroke-width:0.17187656">2016</tspan></text>
</svg>
