<svg viewBox="0 0 149 262.05777" height="262.05777" width="149" > <path style="fill:#828282" d="M 0.66667,261.33334 C 0.3,260.96668 0,202.28982 0,130.94033 0,13.56936 0.15066,1.15617 1.58179,0.60699 2.45177,0.27315 9.63594,0 17.54661,0 30.74323,0 32.01502,0.15955 32.96482,1.93426 33.65318,3.22049 34,30.17657 34,82.39343 v 78.52493 L 69.152666,125.45918 104.30533,90 h 20.24035 c 17.53406,0 20.32151,0.2115 20.84734,1.58179 0.33385,0.86998 0.60699,1.69932 0.60699,1.84298 0,0.14366 -16.2,15.90882 -36,35.03371 -19.800004,19.12487 -35.988124,35.28303 -35.973614,35.90701 0.0145,0.62399 16.88951,22.05654 37.500004,47.6279 20.61049,25.57137 37.47361,47.28387 37.47361,48.25 0,1.61682 -1.58855,1.75662 -19.96104,1.75662 -18.91893,0 -20.06206,-0.10842 -21.89576,-2.07667 -1.06409,-1.14216 -14.244124,-17.77403 -29.288954,-36.95969 -15.04485,-19.18567 -27.81552,-34.90117 -28.37929,-34.92334 -0.56376,-0.0222 -4.27626,3.23278 -8.25,7.23322 L 34,202.54704 v 28.52649 c 0,20.85393 -0.32275,28.84923 -1.2,29.72648 -1.29217,1.29217 -30.88335,1.78331 -32.13333,0.53333 z" id="path30" /> </svg>
