<svg viewBox="0 0 16 16" width="16px" height="16px" version="1.1"><path d="M0.27823792,7.9849544 V 0.22784236 H 8.0353691 15.792481 V 7.9849544 15.74208 H 8.0353691 0.27823792 Z M 10.052213,13.427597 c 0,-0.07839 -0.2367703,-0.288821 -0.5261374,-0.467666 -0.6994293,-0.43226 -2.576711,-2.794436 -2.576711,-3.2422468 0,-0.082874 0.2437117,-0.2944548 0.541582,-0.4702042 C 8.2173667,8.8188907 8.6546249,8.0651373 8.6553569,7.2403283 8.6553569,6.3113812 8.3158136,5.7461665 7.5251708,5.3634279 6.944904,5.082524 6.5675245,5.037249 4.8059592,5.037249 c -1.6380988,0 -2.0454372,0.042756 -2.0454372,0.2146315 0,0.1180293 0.1387827,0.2509061 0.3084129,0.2952636 0.5148444,0.1346338 0.6224384,0.7839655 0.6224384,3.7565243 0,2.9985946 -0.091565,3.5555216 -0.6116807,3.7206026 -0.7167177,0.227477 -0.2343798,0.390664 1.1546774,0.390664 0.8791428,0 1.473848,-0.06257 1.473848,-0.155134 0,-0.08532 -0.1380122,-0.155142 -0.3067043,-0.155142 -0.5697936,0 -0.7966663,-0.619031 -0.7470571,-2.03841 l 0.045292,-1.2971504 0.5021923,-0.048426 c 0.4532182,-0.043733 0.5439833,0.02265 0.9308512,0.6803954 0.7799921,1.326211 1.7451656,2.551681 2.254045,2.861968 0.5095543,0.310677 1.6653349,0.424909 1.6653349,0.164593 z M 4.6887496,8.8653956 C 4.6453069,8.7523254 4.6300785,8.0018227 4.6548794,7.197611 L 4.699878,5.7353992 5.673934,5.6891285 c 0.9025709,-0.042854 1.0078907,-0.012494 1.4350552,0.4146984 0.3798386,0.3798296 0.4610274,0.5887895 0.4610274,1.1865989 0,0.6183284 -0.077999,0.8035767 -0.5274856,1.2530757 -0.4749873,0.4749975 -0.6144234,0.5274857 -1.4011521,0.5274857 -0.5822004,0 -0.8999837,-0.068528 -0.9525506,-0.2055623 z M 12.332139,6.5954968 c 0.511563,-0.3119171 0.751702,-0.959267 0.642449,-1.731841 -0.04432,-0.3136545 -0.151756,-0.3765983 -0.711612,-0.4170998 -0.494296,-0.035728 -0.659337,0.00879 -0.659337,0.1771074 0,0.1236423 0.17452,0.2686139 0.387843,0.3221571 0.722281,0.1812757 0.277459,1.3346941 -0.512999,1.3301939 -0.549215,-0.00293 -0.751781,-0.1458599 -0.951145,-0.6702317 -0.319952,-0.8415306 -0.123067,-2.3184143 0.34908,-2.618627 0.303511,-0.1929995 0.869273,-0.1376211 1.26885,0.1241889 0.206559,0.1353564 0.445409,0.2029272 0.530766,0.1501748 0.245196,-0.1515415 0.0164,-0.5420015 -0.462931,-0.7898522 -0.692791,-0.358256 -1.316918,-0.2835884 -1.886945,0.2257307 -0.5023294,0.4488255 -0.5066641,0.4648542 -0.5066641,1.8744307 0,1.4095764 0.00395,1.4256052 0.5066641,1.8744306 0.604583,0.5401955 1.282117,0.5906051 2.005981,0.1492376z" fill="#00cead"/> </svg>
