<svg viewBox="0 0 16 16" width="16px" height="16px"> <path d="M 15.392877,6.5744083 H 8.0947973 v 3.0260335 h 4.2008457 c -0.391604,1.9224202 -2.029222,3.0260322 -4.2008457,3.0260322 -2.5632277,0 -4.6280504,-2.064823 -4.6280504,-4.62805 0,-2.5632277 2.0648227,-4.6280505 4.6280504,-4.6280505 1.1036118,0 2.1004227,0.3916046 2.8836317,1.032411 L 13.256854,2.1243602 C 11.868439,0.91394698 10.088419,0.16633879 8.0947973,0.16633879 c -4.3432476,0 -7.83208525,3.48883761 -7.83208525,7.83208521 0,4.343248 3.48883765,7.832085 7.83208525,7.832085 3.9160427,0 7.4760817,-2.848031 7.4760817,-7.832085 0,-0.4628053 -0.0712,-0.9612104 -0.178002,-1.4240157 z" fill="#828282" /></svg>
