<?xml version="1.0" encoding="UTF-8" standalone="no"?>
<svg
   xmlns:dc="http://purl.org/dc/elements/1.1/"
   xmlns:cc="http://creativecommons.org/ns#"
   xmlns:rdf="http://www.w3.org/1999/02/22-rdf-syntax-ns#"
   xmlns:svg="http://www.w3.org/2000/svg"
   xmlns="http://www.w3.org/2000/svg"
   xmlns:sodipodi="http://sodipodi.sourceforge.net/DTD/sodipodi-0.dtd"
   xmlns:inkscape="http://www.inkscape.org/namespaces/inkscape"
   viewBox="0 0 16 16"
   width="16px"
   height="16px"
   version="1.1"
   id="svg4"
   sodipodi:docname="icon-linkedin.svg"
   inkscape:version="0.92.1 r">
  <metadata
     id="metadata10">
    <rdf:RDF>
      <cc:Work
         rdf:about="">
        <dc:format>image/svg+xml</dc:format>
        <dc:type
           rdf:resource="http://purl.org/dc/dcmitype/StillImage" />
      </cc:Work>
    </rdf:RDF>
  </metadata>
  <defs
     id="defs8" />
  <sodipodi:namedview
     pagecolor="#ffffff"
     bordercolor="#666666"
     borderopacity="1"
     objecttolerance="10"
     gridtolerance="10"
     guidetolerance="10"
     inkscape:pageopacity="0"
     inkscape:pageshadow="2"
     inkscape:window-width="1364"
     inkscape:window-height="734"
     id="namedview6"
     showgrid="false"
     inkscape:zoom="29.5"
     inkscape:cx="9.4813375"
     inkscape:cy="6.7913969"
     inkscape:window-x="0"
     inkscape:window-y="33"
     inkscape:window-maximized="0"
     inkscape:current-layer="svg4" />
  <path
     inkscape:connector-curvature="0"
     style="fill:#0077b7;stroke-width:1.06666672"
     d="M 14.388823,0.26274028 H 1.7174468 c -0.77286085,0 -1.3994037,0.6265442 -1.3994037,1.39940142 V 14.333488 c 0,0.772887 0.62654285,1.399441 1.3994037,1.399441 H 14.388786 c 0.772898,0 1.399441,-0.626554 1.399441,-1.399441 V 1.6621417 c 0,-0.77285722 -0.626543,-1.39940142 -1.399404,-1.39940142 z M 5.1051751,13.620718 c 0,0.224925 -0.1823205,0.407237 -0.4072426,0.407237 H 2.96438 c -0.2249221,0 -0.4072426,-0.182312 -0.4072426,-0.407237 V 6.3537415 c 0,-0.2249352 0.1823205,-0.4072482 0.4072426,-0.4072482 h 1.7335525 c 0.2249221,0 0.4072426,0.182313 0.4072426,0.4072482 z M 3.8311563,5.2614716 c -0.9095455,0 -1.6468879,-0.7373438 -1.6468879,-1.6468736 0,-0.9095498 0.7373424,-1.6468936 1.6468879,-1.6468936 0.9095361,0 1.6468785,0.7373438 1.6468785,1.6468936 0,0.9095298 -0.7372959,1.6468736 -1.6468785,1.6468736 z M 14.164664,13.653521 c 0,0.206786 -0.167661,0.374434 -0.374442,0.374434 H 11.93 c -0.20679,0 -0.374451,-0.167648 -0.374451,-0.374434 v -3.408617 c 0,-0.5084978 0.149157,-2.2282346 -1.328851,-2.2282346 -1.146456,0 -1.3789919,1.1771168 -1.4256889,1.7053618 v 3.9314898 c 0,0.206786 -0.1676235,0.374434 -0.3744421,0.374434 H 6.6274134 c -0.2067906,0 -0.3744513,-0.167648 -0.3744513,-0.374434 V 6.3209385 c 0,-0.2067863 0.1676607,-0.3744452 0.3744513,-0.3744452 H 8.426567 c 0.2067813,0 0.3744421,0.1676589 0.3744421,0.3744452 V 6.9549288 C 9.2261133,6.3169771 9.8578778,5.8245541 11.203017,5.8245541 c 2.978699,0 2.961647,2.7828577 2.961647,4.3118929 z"
     id="path3" />
</svg>
