<?xml version="1.0" encoding="UTF-8" standalone="no"?>
<!-- Created with Inkscape (http://www.inkscape.org/) -->

<svg
   width="297mm"
   height="210mm"
   viewBox="0 0 297 210"
   version="1.1"
   id="svg1"
   inkscape:version="1.3 (0e150ed6c4, 2023-07-21)"
   sodipodi:docname="drawing.svg"
   xmlns:inkscape="http://www.inkscape.org/namespaces/inkscape"
   xmlns:sodipodi="http://sodipodi.sourceforge.net/DTD/sodipodi-0.dtd"
   xmlns="http://www.w3.org/2000/svg"
   xmlns:svg="http://www.w3.org/2000/svg">
  <sodipodi:namedview
     id="namedview1"
     pagecolor="#ffffff"
     bordercolor="#666666"
     borderopacity="1.0"
     inkscape:showpageshadow="2"
     inkscape:pageopacity="0.0"
     inkscape:pagecheckerboard="0"
     inkscape:deskcolor="#d1d1d1"
     inkscape:document-units="mm"
     inkscape:zoom="0.4390467"
     inkscape:cx="633.19005"
     inkscape:cy="577.38733"
     inkscape:window-width="1364"
     inkscape:window-height="749"
     inkscape:window-x="0"
     inkscape:window-y="17"
     inkscape:window-maximized="1"
     inkscape:current-layer="layer1" />
  <defs
     id="defs1">
    <linearGradient
       id="SVGID_1_"
       gradientUnits="userSpaceOnUse"
       x1="110.5698"
       y1="70.949203"
       x2="2.0982001"
       y2="62.331501"
       gradientTransform="matrix(1,0,0,-1,0,113.5125)">&#10;   <stop
   offset="0.2986"
   style="stop-color:#0097CE"
   id="stop1">&#10;   </stop>
&#10;   <stop
   offset="0.3791"
   style="stop-color:#0999C5"
   id="stop2">&#10;   </stop>
&#10;   <stop
   offset="0.5119"
   style="stop-color:#229DAD"
   id="stop3">&#10;   </stop>
&#10;   <stop
   offset="0.6469"
   style="stop-color:#42A38F"
   id="stop4">&#10;   </stop>
&#10;   <stop
   offset="0.7352"
   style="stop-color:#5DAD82"
   id="stop5">&#10;   </stop>
&#10;   <stop
   offset="0.9239"
   style="stop-color:#A1C661"
   id="stop6">&#10;   </stop>
&#10;   <stop
   offset="1"
   style="stop-color:#BED153"
   id="stop7">&#10;   </stop>
&#10;  </linearGradient>
    <linearGradient
       id="SVGID_2_"
       gradientUnits="userSpaceOnUse"
       x1="-3.3872001"
       y1="99.106697"
       x2="101.7764"
       y2="70.632301"
       gradientTransform="matrix(1,0,0,-1,0,113.5125)">&#10;   <stop
   offset="8.199000e-02"
   style="stop-color:#3D65AF"
   id="stop8">&#10;   </stop>
&#10;   <stop
   offset="0.2305"
   style="stop-color:#2372B8"
   id="stop9">&#10;   </stop>
&#10;   <stop
   offset="0.5058"
   style="stop-color:#00B8BB"
   id="stop10">&#10;   </stop>
&#10;  </linearGradient>
    <linearGradient
       id="SVGID_3_"
       gradientUnits="userSpaceOnUse"
       x1="-0.04240106"
       y1="111.6313"
       x2="57.086399"
       y2="96.162903"
       gradientTransform="matrix(1,0,0,-1,0,113.5125)">&#10;   <stop
   offset="0.1297"
   style="stop-color:#000000"
   id="stop11">&#10;   </stop>
&#10;   <stop
   offset="0.3277"
   style="stop-color:#00334B"
   id="stop12">&#10;   </stop>
&#10;   <stop
   offset="0.5276"
   style="stop-color:#006190"
   id="stop13">&#10;   </stop>
&#10;   <stop
   offset="0.6723"
   style="stop-color:#007FBB"
   id="stop14">&#10;   </stop>
&#10;   <stop
   offset="0.7457"
   style="stop-color:#008ACC"
   id="stop15">&#10;   </stop>
&#10;  </linearGradient>
    <linearGradient
       id="SVGID_4_"
       gradientUnits="userSpaceOnUse"
       x1="14.2865"
       y1="112.4456"
       x2="67.492798"
       y2="112.4456"
       gradientTransform="matrix(1,0,0,-1,0,113.5125)">&#10;   <stop
   offset="0.1297"
   style="stop-color:#000000"
   id="stop16">&#10;   </stop>
&#10;   <stop
   offset="0.3277"
   style="stop-color:#00334B"
   id="stop17">&#10;   </stop>
&#10;   <stop
   offset="0.5276"
   style="stop-color:#006190"
   id="stop18">&#10;   </stop>
&#10;   <stop
   offset="0.6723"
   style="stop-color:#007FBB"
   id="stop19">&#10;   </stop>
&#10;   <stop
   offset="0.7457"
   style="stop-color:#008ACC"
   id="stop20">&#10;   </stop>
&#10;  </linearGradient>
    <linearGradient
       id="SVGID_5_"
       gradientUnits="userSpaceOnUse"
       x1="15.0621"
       y1="111.7076"
       x2="62.3568"
       y2="111.7076"
       gradientTransform="matrix(1,0,0,-1,0,113.5125)">&#10;   <stop
   offset="0.1297"
   style="stop-color:#000000"
   id="stop21">&#10;   </stop>
&#10;   <stop
   offset="0.3277"
   style="stop-color:#00334B"
   id="stop22">&#10;   </stop>
&#10;   <stop
   offset="0.5276"
   style="stop-color:#006190"
   id="stop23">&#10;   </stop>
&#10;   <stop
   offset="0.6723"
   style="stop-color:#007FBB"
   id="stop24">&#10;   </stop>
&#10;   <stop
   offset="0.7457"
   style="stop-color:#008ACC"
   id="stop25">&#10;   </stop>
&#10;  </linearGradient>
    <linearGradient
       id="SVGID_6_"
       gradientUnits="userSpaceOnUse"
       x1="5.8502002"
       y1="99.437599"
       x2="54.368599"
       y2="86.300499"
       gradientTransform="matrix(1,0,0,-1,0,113.5125)">&#10;   <stop
   offset="0.1297"
   style="stop-color:#2483C5"
   id="stop26">&#10;   </stop>
&#10;   <stop
   offset="0.1672"
   style="stop-color:#2486C7"
   id="stop27">&#10;   </stop>
&#10;   <stop
   offset="0.676"
   style="stop-color:#29B1DF"
   id="stop28">&#10;   </stop>
&#10;   <stop
   offset="0.9352"
   style="stop-color:#2BC2E8"
   id="stop29">&#10;   </stop>
&#10;  </linearGradient>
    <linearGradient
       id="SVGID_7_"
       gradientUnits="userSpaceOnUse"
       x1="9.0342999"
       y1="108.5579"
       x2="56.328701"
       y2="108.5579"
       gradientTransform="matrix(1,0,0,-1,0,113.5125)">&#10;   <stop
   offset="0.1297"
   style="stop-color:#000000"
   id="stop30">&#10;   </stop>
&#10;   <stop
   offset="0.3277"
   style="stop-color:#00334B"
   id="stop31">&#10;   </stop>
&#10;   <stop
   offset="0.5276"
   style="stop-color:#006190"
   id="stop32">&#10;   </stop>
&#10;   <stop
   offset="0.6723"
   style="stop-color:#007FBB"
   id="stop33">&#10;   </stop>
&#10;   <stop
   offset="0.7457"
   style="stop-color:#008ACC"
   id="stop34">&#10;   </stop>
&#10;  </linearGradient>
    <linearGradient
       id="SVGID_8_"
       gradientUnits="userSpaceOnUse"
       x1="0"
       y1="111.2669"
       x2="0.057947692"
       y2="111.2669"
       gradientTransform="matrix(1,0,0,-1,0,113.5125)">&#10;   <stop
   offset="0"
   style="stop-color:#682C90"
   id="stop35">&#10;   </stop>
&#10;   <stop
   offset="0.496"
   style="stop-color:#817CB9"
   id="stop36">&#10;   </stop>
&#10;   <stop
   offset="1"
   style="stop-color:#FFFFFF"
   id="stop37">&#10;   </stop>
&#10;  </linearGradient>
    <linearGradient
       id="SVGID_9_"
       gradientUnits="userSpaceOnUse"
       x1="228.4462"
       y1="112.9745"
       x2="117.6531"
       y2="112.9745"
       gradientTransform="matrix(1,0,0,-1,0,113.5125)">&#10;   <stop
   offset="0"
   style="stop-color:#682C90"
   id="stop38">&#10;   </stop>
&#10;   <stop
   offset="0.496"
   style="stop-color:#817CB9"
   id="stop39">&#10;   </stop>
&#10;   <stop
   offset="1"
   style="stop-color:#FFFFFF"
   id="stop40">&#10;   </stop>
&#10;  </linearGradient>
    <linearGradient
       id="SVGID_10_"
       gradientUnits="userSpaceOnUse"
       x1="42.7481"
       y1="110.1772"
       x2="21.787399"
       y2="110.1772"
       gradientTransform="matrix(1,0,0,-1,0,113.5125)">&#10;   <stop
   offset="0"
   style="stop-color:#682C90"
   id="stop41">&#10;   </stop>
&#10;   <stop
   offset="0.496"
   style="stop-color:#817CB9"
   id="stop42">&#10;   </stop>
&#10;   <stop
   offset="1"
   style="stop-color:#FFFFFF"
   id="stop43">&#10;   </stop>
&#10;  </linearGradient>
    <linearGradient
       id="SVGID_11_"
       gradientUnits="userSpaceOnUse"
       x1="220.63589"
       y1="111.1786"
       x2="115.833"
       y2="111.1786"
       gradientTransform="matrix(1,0,0,-1,0,113.5125)">&#10;   <stop
   offset="0"
   style="stop-color:#682C90"
   id="stop44">&#10;   </stop>
&#10;   <stop
   offset="0.496"
   style="stop-color:#817CB9"
   id="stop45">&#10;   </stop>
&#10;   <stop
   offset="1"
   style="stop-color:#FFFFFF"
   id="stop46">&#10;   </stop>
&#10;  </linearGradient>
    <linearGradient
       id="SVGID_12_"
       gradientUnits="userSpaceOnUse"
       x1="-3.6726999"
       y1="91.132797"
       x2="42.6712"
       y2="78.584602"
       gradientTransform="matrix(1,0,0,-1,0,113.5125)">&#10;   <stop
   offset="0.1297"
   style="stop-color:#3B67AD"
   id="stop47">&#10;   </stop>
&#10;   <stop
   offset="0.5697"
   style="stop-color:#227CAA"
   id="stop48">&#10;   </stop>
&#10;   <stop
   offset="0.9352"
   style="stop-color:#118AA8"
   id="stop49">&#10;   </stop>
&#10;  </linearGradient>
    <linearGradient
       id="SVGID_13_"
       gradientUnits="userSpaceOnUse"
       x1="133.4601"
       y1="112.0615"
       x2="70.578003"
       y2="112.0615"
       gradientTransform="matrix(1,0,0,-1,0,113.5125)">&#10;   <stop
   offset="0"
   style="stop-color:#682C90"
   id="stop50">&#10;   </stop>
&#10;   <stop
   offset="0.496"
   style="stop-color:#817CB9"
   id="stop51">&#10;   </stop>
&#10;   <stop
   offset="1"
   style="stop-color:#FFFFFF"
   id="stop52">&#10;   </stop>
&#10;  </linearGradient>
    <linearGradient
       id="SVGID_14_"
       gradientUnits="userSpaceOnUse"
       x1="755.96918"
       y1="95.693604"
       x2="4900.1494"
       y2="95.693604"
       gradientTransform="matrix(1,0,0,-1,0,113.5125)">&#10;   <stop
   offset="0.1297"
   style="stop-color:#000000"
   id="stop53">&#10;   </stop>
&#10;   <stop
   offset="0.3277"
   style="stop-color:#00334B"
   id="stop54">&#10;   </stop>
&#10;   <stop
   offset="0.5276"
   style="stop-color:#006190"
   id="stop55">&#10;   </stop>
&#10;   <stop
   offset="0.6723"
   style="stop-color:#007FBB"
   id="stop56">&#10;   </stop>
&#10;   <stop
   offset="0.7457"
   style="stop-color:#008ACC"
   id="stop57">&#10;   </stop>
&#10;  </linearGradient>
    <linearGradient
       id="SVGID_15_"
       gradientUnits="userSpaceOnUse"
       x1="-2.6385"
       y1="102.0505"
       x2="43.842999"
       y2="89.464897"
       gradientTransform="matrix(1,0,0,-1,0,113.5125)">&#10;   <stop
   offset="0.1297"
   style="stop-color:#3A67B0"
   id="stop58">&#10;   </stop>
&#10;   <stop
   offset="0.5622"
   style="stop-color:#357FBD"
   id="stop59">&#10;   </stop>
&#10;   <stop
   offset="0.9352"
   style="stop-color:#3290C6"
   id="stop60">&#10;   </stop>
&#10;  </linearGradient>
    <linearGradient
       id="SVGID_16_"
       gradientUnits="userSpaceOnUse"
       x1="56.157501"
       y1="92.646599"
       x2="104.2326"
       y2="79.629501"
       gradientTransform="matrix(1,0,0,-1,0,113.5125)">&#10;   <stop
   offset="0.1724"
   style="stop-color:#4E5CA8"
   id="stop61">&#10;   </stop>
&#10;   <stop
   offset="0.9937"
   style="stop-color:#1FC3F3"
   id="stop62">&#10;   </stop>
&#10;  </linearGradient>
  </defs>
  <g
     inkscape:label="Layer 1"
     inkscape:groupmode="layer"
     id="layer1">
    <g
       id="g1"
       transform="matrix(0.26125386,0,0,0.26125386,161.24407,76.142757)"
       style="stroke-width:3.8277">
      <path
         d="m 210.83984,107.74826 c 0,-17.79406 -11.0571,-33.169659 -27.46953,-39.216215 a 62.20933,62.20933 0 0 0 1.03601,-11.402715 c 0,-32.997676 -26.77749,-59.7751633 -59.77517,-59.7751633 -19.1765,0 -37.143363,9.156237 -48.373272,24.8774483 -5.528138,-4.319323 -12.265918,-6.564974 -19.34931,-6.564974 -17.449271,0 -31.788034,14.165957 -31.788034,31.788034 0,3.800905 0.691224,7.60181 1.900039,11.057103 -16.584414,5.700944 -27.814323,21.594961 -27.814323,39.216211 0,17.794881 11.057103,33.343291 27.641517,39.389841 -0.690397,3.6281 -1.036009,7.42901 -1.036009,11.40189 0,32.82487 26.777487,59.60318 59.602357,59.60318 19.349305,0 37.144195,-9.32904 48.373275,-24.87744 5.52814,4.31849 12.43872,6.73778 19.52212,6.73778 17.44927,0 31.78803,-14.16679 31.78803,-31.78804 0,-3.8009 -0.69122,-7.60181 -1.90004,-11.0571 16.2388,-5.87375 27.64152,-21.76777 27.64152,-39.38984 z"
         fill="#ffffff"
         id="path1"
         style="stroke-width:3.16482" />
      <path
         d="m 81.958822,87.880528 47.164458,21.595792 47.68205,-41.808305 a 53.174636,53.174636 0 0 0 1.03601,-10.538685 c 0,-29.36875 -23.84061,-53.2101893 -53.21019,-53.2101893 -17.62207,0 -34.033682,8.6378193 -43.881143,23.1493883 l -7.947422,41.117904 9.156237,19.694922 z"
         fill="#f4bd19"
         id="path2"
         style="stroke-width:3.16482" />
      <path
         d="m 33.067129,137.80906 c -0.690397,3.45529 -1.036009,7.08339 -1.036009,10.71149 0,29.36875 24.013418,53.38299 53.382995,53.38299 17.794885,0 34.207315,-8.81062 44.226755,-23.32302 L 137.41549,137.46344 126.8768,117.42291 79.540365,95.82795 Z"
         fill="#3cbeb1"
         id="path3"
         style="stroke-width:3.16482" />
      <path
         d="m 32.722344,56.092494 32.306452,7.60181 7.255371,-36.798581 c -4.491302,-3.455293 -9.847461,-5.182526 -15.548405,-5.182526 -13.993978,0 -25.568672,11.401888 -25.568672,25.568672 0,2.936875 0.518418,6.046556 1.554427,8.810625 z"
         fill="#e9478c"
         id="path4"
         style="stroke-width:3.16482" />
      <path
         d="M 29.957448,63.866283 C 15.445879,68.531218 5.425612,82.525196 5.425612,97.727989 c 0,14.858011 9.156237,28.160761 22.977409,33.343291 L 73.839421,89.953373 65.546387,72.160144 29.957448,63.86711 Z"
         fill="#2c458f"
         id="path5"
         style="stroke-width:3.16482" />
      <path
         d="m 137.93391,178.40772 c 4.4913,3.45612 9.84746,5.35615 15.3756,5.35615 13.99397,0 25.56867,-11.40188 25.56867,-25.56867 0,-3.10968 -0.51842,-6.04738 -1.55443,-8.81145 l -32.30645,-7.60098 z"
         fill="#95c63d"
         id="path6"
         style="stroke-width:3.16482" />
      <path
         d="m 144.49888,133.31693 35.58894,8.29303 c 14.51157,-4.83691 24.53184,-18.65808 24.53184,-33.8617 0,-14.858012 -9.15624,-27.987133 -22.97741,-33.342465 l -46.64522,40.771465 9.50185,18.14049 z"
         fill="#176655"
         id="path7"
         style="stroke-width:3.16482" />
    </g>
    <g
       id="g2"
       transform="matrix(0.13374098,0,0,0.13374098,252.7495,89.240698)"
       style="stroke-width:7.47714">
      <path
         class="st0"
         d="m -63.764588,45.706777 c 60.3580735,0 117.408855,15.709635 167.018228,42.167968 L 280.19375,-124.61874 H -70.379171 V 297.06094 45.706777 Z"
         id="path1-2"
         style="fill:#e9478b;stroke-width:61.8227" />
      <path
         class="st1"
         d="M 103.25364,87.874745 -70.379171,297.06094 v 33.07292 H 279.36692 C 259.52317,225.95417 193.37734,137.48412 103.25364,87.874745 Z"
         id="path2-9"
         style="fill:#3ebeb0;stroke-width:61.8227" />
      <path
         class="st2"
         d="M 103.25364,87.874745 -70.379171,297.06094 v 33.07292 H -8.367452 L 160.30442,126.73542 c 0,0 -11.57552,-9.09505 -27.28515,-20.67057 -11.57552,-8.26823 -29.76563,-18.190105 -29.76563,-18.190105 z"
         id="path3-1"
         style="fill:#37a595;stroke-width:61.8227" />
      <path
         class="st3"
         d="m -63.764588,45.706777 h -6.614583 V 297.06094 L 103.25364,87.874745 C 53.644267,61.416412 -3.4065145,45.706777 -63.764588,45.706777 Z"
         id="path4-2"
         style="fill:#353535;stroke-width:61.8227" />
    </g>
    <g
       id="g63"
       transform="matrix(0.53763265,0,0,0.53763265,83.736292,83.548243)"
       style="stroke-width:0.492127">&#10;  <linearGradient
   id="linearGradient69"
   gradientUnits="userSpaceOnUse"
   x1="110.5698"
   y1="70.949203"
   x2="2.0982001"
   y2="62.331501"
   gradientTransform="matrix(1,0,0,-1,0,113.5125)">&#10;   <stop
   offset="0.2986"
   style="stop-color:#0097CE"
   id="stop63">&#10;   </stop>
&#10;   <stop
   offset="0.3791"
   style="stop-color:#0999C5"
   id="stop64">&#10;   </stop>
&#10;   <stop
   offset="0.5119"
   style="stop-color:#229DAD"
   id="stop65">&#10;   </stop>
&#10;   <stop
   offset="0.6469"
   style="stop-color:#42A38F"
   id="stop66">&#10;   </stop>
&#10;   <stop
   offset="0.7352"
   style="stop-color:#5DAD82"
   id="stop67">&#10;   </stop>
&#10;   <stop
   offset="0.9239"
   style="stop-color:#A1C661"
   id="stop68">&#10;   </stop>
&#10;   <stop
   offset="1"
   style="stop-color:#BED153"
   id="stop69">&#10;   </stop>
&#10;  </linearGradient>
&#10;  <path
   class="st0"
   d="m 108.3,17.3 c -2.5,-0.4 -8,-0.5 -18.9,1.8 -1.3,0.3 -2.6,0.5 -3.9,0.4 -1.4,-0.2 -2.9,-0.5 -4.2,-0.9 -6,-2.1 -10.9,-1.4 -13.8,0.1 -1.7,0.9 -3.2,2.3 -4.3,3.9 -1.8,2.5 -5.6,10 -10.7,12 -2.9,1.9 -6,3.8 -8.8,6.6 C 42,43 41.5,47.3 36.9,51.5 32.4,58.2 26.7,64 20,68.5 c -8.6,6.1 -15.9,8 -15.9,8 0,0 19.2,5.4 40.2,-4.7 16,-7.7 24.3,-22.6 26.2,-25.9 L 81,28 c 0.9,-1.6 2.6,-3.8 4.2,-4.6 0.5,-0.3 1,-0.5 1.1,-0.6 1.2,-0.6 2.4,-1.1 3.6,-1.5 7.3,-2.7 14.9,-2.9 18.4,-3.3 0.4,-0.1 0.4,-0.6 0,-0.7 z"
   id="path7-6"
   style="fill:url(#SVGID_1_);stroke-width:0.492127">&#10;  </path>
&#10;  <linearGradient
   id="linearGradient72"
   gradientUnits="userSpaceOnUse"
   x1="-3.3872001"
   y1="99.106697"
   x2="101.7764"
   y2="70.632301"
   gradientTransform="matrix(1,0,0,-1,0,113.5125)">&#10;   <stop
   offset="8.199000e-02"
   style="stop-color:#3D65AF"
   id="stop70">&#10;   </stop>
&#10;   <stop
   offset="0.2305"
   style="stop-color:#2372B8"
   id="stop71">&#10;   </stop>
&#10;   <stop
   offset="0.5058"
   style="stop-color:#00B8BB"
   id="stop72">&#10;   </stop>
&#10;  </linearGradient>
&#10;  <path
   class="st1"
   d="m 108.3,17.3 c -2.5,-0.4 -8,-0.5 -18.9,1.8 -1.3,0.3 -2.6,0.5 -3.9,0.4 -1.4,-0.2 -2.9,-0.5 -4.2,-0.9 -6.1,-2.1 -10.8,-1.5 -13.8,0.1 -1.7,0.9 -3.2,2.3 -4.3,3.9 -1.8,2.5 -5.6,10 -10.7,12 C 46.7,29.1 41.6,24.4 36.7,20.3 33.9,18.1 31.2,15.9 28.9,14.4 23.2,10.4 17.3,6.8 11.1,3.7 8.3,2.5 5.5,1.4 2.4,0.2 1.1,-0.2 0.3,0.4 0.1,1.5 0,1.8 -0.1,2.8 0.5,4.4 2,8.6 3.9,12.6 6.1,16.5 7,18.1 8,19.7 9,21.4 c 4.9,7.8 10.6,15 17,21.4 1.3,1.3 2.6,2.5 4,3.6 1.7,1.4 3.4,2.7 5.2,3.9 0.2,0.1 1,0.6 1.6,1 1.2,0.6 2.7,1.4 3.7,1.8 4,1.9 8.4,2.8 12.8,2.8 6.4,0.2 11.6,-1.9 14.2,-5.4 1.1,-1.5 2.1,-3 3,-4.6 L 81,28 c 0.9,-1.6 2.6,-3.8 4.2,-4.6 0.5,-0.3 1,-0.5 1.1,-0.6 1.1,-0.5 1.1,-0.4 2.3,-0.8 7.4,-2.7 16.3,-3.6 19.8,-4 0.1,0 0.1,0 0.2,-0.1 0.1,-0.1 0.1,-0.1 0.1,-0.2 0,-0.1 0,-0.2 -0.1,-0.2 -0.1,-0.1 -0.2,-0.2 -0.3,-0.2 z"
   id="path10"
   style="fill:url(#SVGID_2_);stroke-width:0.492127">&#10;  </path>
&#10;  <linearGradient
   id="linearGradient77"
   gradientUnits="userSpaceOnUse"
   x1="-0.04240106"
   y1="111.6313"
   x2="57.086399"
   y2="96.162903"
   gradientTransform="matrix(1,0,0,-1,0,113.5125)">&#10;   <stop
   offset="0.1297"
   style="stop-color:#000000"
   id="stop73">&#10;   </stop>
&#10;   <stop
   offset="0.3277"
   style="stop-color:#00334B"
   id="stop74">&#10;   </stop>
&#10;   <stop
   offset="0.5276"
   style="stop-color:#006190"
   id="stop75">&#10;   </stop>
&#10;   <stop
   offset="0.6723"
   style="stop-color:#007FBB"
   id="stop76">&#10;   </stop>
&#10;   <stop
   offset="0.7457"
   style="stop-color:#008ACC"
   id="stop77">&#10;   </stop>
&#10;  </linearGradient>
&#10;  <path
   class="st2"
   d="M 0,2.1 C 0,2 0.1,1.8 0,1.7 0.1,1.8 0.1,2 0,2.1 Z"
   id="path15"
   style="opacity:0.8;fill:url(#SVGID_3_);stroke-width:0.492127;enable-background:new">&#10;  </path>
&#10;  <linearGradient
   id="linearGradient82"
   gradientUnits="userSpaceOnUse"
   x1="14.2865"
   y1="112.4456"
   x2="67.492798"
   y2="112.4456"
   gradientTransform="matrix(1,0,0,-1,0,113.5125)">&#10;   <stop
   offset="0.1297"
   style="stop-color:#000000"
   id="stop78">&#10;   </stop>
&#10;   <stop
   offset="0.3277"
   style="stop-color:#00334B"
   id="stop79">&#10;   </stop>
&#10;   <stop
   offset="0.5276"
   style="stop-color:#006190"
   id="stop80">&#10;   </stop>
&#10;   <stop
   offset="0.6723"
   style="stop-color:#007FBB"
   id="stop81">&#10;   </stop>
&#10;   <stop
   offset="0.7457"
   style="stop-color:#008ACC"
   id="stop82">&#10;   </stop>
&#10;  </linearGradient>
&#10;  <path
   class="st3"
   d="M 4.9,1 C 4.8,1 4.7,0.9 4.6,1 4.8,1 4.9,1.1 5.1,1.2 5.1,1.1 5,1.1 4.9,1 Z"
   id="path20"
   style="opacity:0.8;fill:url(#SVGID_4_);stroke-width:0.492127;enable-background:new">&#10;  </path>
&#10;  <linearGradient
   id="linearGradient87"
   gradientUnits="userSpaceOnUse"
   x1="15.0621"
   y1="111.7076"
   x2="62.3568"
   y2="111.7076"
   gradientTransform="matrix(1,0,0,-1,0,113.5125)">&#10;   <stop
   offset="0.1297"
   style="stop-color:#000000"
   id="stop83">&#10;   </stop>
&#10;   <stop
   offset="0.3277"
   style="stop-color:#00334B"
   id="stop84">&#10;   </stop>
&#10;   <stop
   offset="0.5276"
   style="stop-color:#006190"
   id="stop85">&#10;   </stop>
&#10;   <stop
   offset="0.6723"
   style="stop-color:#007FBB"
   id="stop86">&#10;   </stop>
&#10;   <stop
   offset="0.7457"
   style="stop-color:#008ACC"
   id="stop87">&#10;   </stop>
&#10;  </linearGradient>
&#10;  <path
   class="st4"
   d="M 6.7,1.8 C 6.6,1.8 6.5,1.7 6.5,1.7 6.6,1.8 6.8,1.8 7,1.9 6.8,1.8 6.7,1.8 6.7,1.8 Z"
   id="path25"
   style="opacity:0.8;fill:url(#SVGID_5_);stroke-width:0.492127;enable-background:new">&#10;  </path>
&#10;  <linearGradient
   id="linearGradient91"
   gradientUnits="userSpaceOnUse"
   x1="5.8502002"
   y1="99.437599"
   x2="54.368599"
   y2="86.300499"
   gradientTransform="matrix(1,0,0,-1,0,113.5125)">&#10;   <stop
   offset="0.1297"
   style="stop-color:#2483C5"
   id="stop88">&#10;   </stop>
&#10;   <stop
   offset="0.1672"
   style="stop-color:#2486C7"
   id="stop89">&#10;   </stop>
&#10;   <stop
   offset="0.676"
   style="stop-color:#29B1DF"
   id="stop90">&#10;   </stop>
&#10;   <stop
   offset="0.9352"
   style="stop-color:#2BC2E8"
   id="stop91">&#10;   </stop>
&#10;  </linearGradient>
&#10;  <path
   class="st5"
   d="m 40.7,35.7 c 3.9,0.6 8,0.2 11.7,-1.2 -3.5,-3.3 -6.8,-6.3 -9.9,-9 C 40.9,24.1 39.4,22.8 38,21.6 37.9,21.5 37.8,21.5 37.8,21.4 37.4,21 37,20.8 36.7,20.5 36.6,20.4 36.5,20.3 36.5,20.3 33.7,18 31,16 28.8,14.4 22.9,10.3 17,6.5 11,3.7 10.5,3.4 10,3.2 9.4,2.9 9.2,2.8 9.1,2.8 8.9,2.7 32,15.4 39.4,26.9 40.7,35.7 Z"
   id="path29"
   style="fill:url(#SVGID_6_);stroke-width:0.492127">&#10;  </path>
&#10;  <linearGradient
   id="linearGradient96"
   gradientUnits="userSpaceOnUse"
   x1="9.0342999"
   y1="108.5579"
   x2="56.328701"
   y2="108.5579"
   gradientTransform="matrix(1,0,0,-1,0,113.5125)">&#10;   <stop
   offset="0.1297"
   style="stop-color:#000000"
   id="stop92">&#10;   </stop>
&#10;   <stop
   offset="0.3277"
   style="stop-color:#00334B"
   id="stop93">&#10;   </stop>
&#10;   <stop
   offset="0.5276"
   style="stop-color:#006190"
   id="stop94">&#10;   </stop>
&#10;   <stop
   offset="0.6723"
   style="stop-color:#007FBB"
   id="stop95">&#10;   </stop>
&#10;   <stop
   offset="0.7457"
   style="stop-color:#008ACC"
   id="stop96">&#10;   </stop>
&#10;  </linearGradient>
&#10;  <path
   class="st6"
   d="M 0.9,5.5 C 0.7,5.2 0.6,4.8 0.4,4.4 0.6,4.7 0.7,5.1 0.9,5.5 Z"
   id="path34"
   style="opacity:0.8;fill:url(#SVGID_7_);stroke-width:0.492127;enable-background:new">&#10;  </path>
&#10;  <linearGradient
   id="linearGradient99"
   gradientUnits="userSpaceOnUse"
   x1="0"
   y1="111.2669"
   x2="0.057947692"
   y2="111.2669"
   gradientTransform="matrix(1,0,0,-1,0,113.5125)">&#10;   <stop
   offset="0"
   style="stop-color:#682C90"
   id="stop97">&#10;   </stop>
&#10;   <stop
   offset="0.496"
   style="stop-color:#817CB9"
   id="stop98">&#10;   </stop>
&#10;   <stop
   offset="1"
   style="stop-color:#FFFFFF"
   id="stop99">&#10;   </stop>
&#10;  </linearGradient>
&#10;  <path
   class="st7"
   d="M 0,2.3 C 0,2.2 0,2.2 0.1,2.2 Z"
   id="path37"
   style="opacity:0.3;fill:url(#SVGID_8_);stroke-width:0.492127;enable-background:new">&#10;  </path>
&#10;  <linearGradient
   id="linearGradient102"
   gradientUnits="userSpaceOnUse"
   x1="228.4462"
   y1="112.9745"
   x2="117.6531"
   y2="112.9745"
   gradientTransform="matrix(1,0,0,-1,0,113.5125)">&#10;   <stop
   offset="0"
   style="stop-color:#682C90"
   id="stop100">&#10;   </stop>
&#10;   <stop
   offset="0.496"
   style="stop-color:#817CB9"
   id="stop101">&#10;   </stop>
&#10;   <stop
   offset="1"
   style="stop-color:#FFFFFF"
   id="stop102">&#10;   </stop>
&#10;  </linearGradient>
&#10;  <path
   class="st8"
   d="M 2.5,0.1 C 3.2,0.4 3.9,0.7 4.6,1 3.9,0.7 3.2,0.4 2.5,0.1 Z"
   id="path40"
   style="opacity:0.3;fill:url(#SVGID_9_);stroke-width:0.492127;enable-background:new">&#10;  </path>
&#10;  <linearGradient
   id="linearGradient105"
   gradientUnits="userSpaceOnUse"
   x1="42.7481"
   y1="110.1772"
   x2="21.787399"
   y2="110.1772"
   gradientTransform="matrix(1,0,0,-1,0,113.5125)">&#10;   <stop
   offset="0"
   style="stop-color:#682C90"
   id="stop103">&#10;   </stop>
&#10;   <stop
   offset="0.496"
   style="stop-color:#817CB9"
   id="stop104">&#10;   </stop>
&#10;   <stop
   offset="1"
   style="stop-color:#FFFFFF"
   id="stop105">&#10;   </stop>
&#10;  </linearGradient>
&#10;  <path
   class="st9"
   d="M 0,2.3 C 0,3 0.2,3.7 0.4,4.4 0.2,3.7 0,3 0,2.3 Z"
   id="path43"
   style="opacity:0.3;fill:url(#SVGID_10_);stroke-width:0.492127;enable-background:new">&#10;  </path>
&#10;  <linearGradient
   id="linearGradient108"
   gradientUnits="userSpaceOnUse"
   x1="220.63589"
   y1="111.1786"
   x2="115.833"
   y2="111.1786"
   gradientTransform="matrix(1,0,0,-1,0,113.5125)">&#10;   <stop
   offset="0"
   style="stop-color:#682C90"
   id="stop106">&#10;   </stop>
&#10;   <stop
   offset="0.496"
   style="stop-color:#817CB9"
   id="stop107">&#10;   </stop>
&#10;   <stop
   offset="1"
   style="stop-color:#FFFFFF"
   id="stop108">&#10;   </stop>
&#10;  </linearGradient>
&#10;  <path
   class="st10"
   d="M 8.6,2.6 8.9,2.8 C 8.3,2.5 7.6,2.2 6.9,1.9 7.1,2 7.3,2.1 7.5,2.2 7.9,2.3 8.2,2.4 8.6,2.6 Z"
   id="path46"
   style="opacity:0.3;fill:url(#SVGID_11_);stroke-width:0.492127;enable-background:new">&#10;  </path>
&#10;  <linearGradient
   id="linearGradient111"
   gradientUnits="userSpaceOnUse"
   x1="-3.6726999"
   y1="91.132797"
   x2="42.6712"
   y2="78.584602"
   gradientTransform="matrix(1,0,0,-1,0,113.5125)">&#10;   <stop
   offset="0.1297"
   style="stop-color:#3B67AD"
   id="stop109">&#10;   </stop>
&#10;   <stop
   offset="0.5697"
   style="stop-color:#227CAA"
   id="stop110">&#10;   </stop>
&#10;   <stop
   offset="0.9352"
   style="stop-color:#118AA8"
   id="stop111">&#10;   </stop>
&#10;  </linearGradient>
&#10;  <path
   class="st11"
   d="M 15.4,23.3 C 9.2,18.3 3.4,11.2 0.9,5.6 c 5.8,14.9 20.9,36 34.3,44.8 0.2,0.2 1,0.6 1.7,1 1.7,-2.7 4.9,-8.3 3.8,-15.7 C 32.4,34.6 23.5,30 15.4,23.3 Z"
   id="path49"
   style="fill:url(#SVGID_12_);stroke-width:0.492127">&#10;  </path>
&#10;  <linearGradient
   id="linearGradient114"
   gradientUnits="userSpaceOnUse"
   x1="133.4601"
   y1="112.0615"
   x2="70.578003"
   y2="112.0615"
   gradientTransform="matrix(1,0,0,-1,0,113.5125)">&#10;   <stop
   offset="0"
   style="stop-color:#682C90"
   id="stop112">&#10;   </stop>
&#10;   <stop
   offset="0.496"
   style="stop-color:#817CB9"
   id="stop113">&#10;   </stop>
&#10;   <stop
   offset="1"
   style="stop-color:#FFFFFF"
   id="stop114">&#10;   </stop>
&#10;  </linearGradient>
&#10;  <path
   class="st12"
   d="M 6.4,1.7 5.2,1.2 c 0.1,0 0.1,0.1 0.2,0.1 0.3,0.1 0.6,0.2 1,0.4 z"
   id="path52"
   style="opacity:0.3;fill:url(#SVGID_13_);stroke-width:0.492127;enable-background:new">&#10;  </path>
&#10;  <linearGradient
   id="linearGradient119"
   gradientUnits="userSpaceOnUse"
   x1="755.96918"
   y1="95.693604"
   x2="4900.1494"
   y2="95.693604"
   gradientTransform="matrix(1,0,0,-1,0,113.5125)">&#10;   <stop
   offset="0.1297"
   style="stop-color:#000000"
   id="stop115">&#10;   </stop>
&#10;   <stop
   offset="0.3277"
   style="stop-color:#00334B"
   id="stop116">&#10;   </stop>
&#10;   <stop
   offset="0.5276"
   style="stop-color:#006190"
   id="stop117">&#10;   </stop>
&#10;   <stop
   offset="0.6723"
   style="stop-color:#007FBB"
   id="stop118">&#10;   </stop>
&#10;   <stop
   offset="0.7457"
   style="stop-color:#008ACC"
   id="stop119">&#10;   </stop>
&#10;  </linearGradient>
&#10;  <path
   class="st13"
   d="M 15.4,23.3 C 23.5,30 32.4,34.5 40.7,35.6 39.4,26.9 32,15.3 8.9,2.8 8.8,2.8 8.7,2.7 8.6,2.6 8.3,2.4 7.9,2.3 7.6,2.1 7.4,2 7.2,2 7,1.8 6.8,1.8 6.7,1.7 6.5,1.7 6.1,1.5 5.8,1.3 5.4,1.2 5.3,1.2 5.3,1.1 5.2,1.1 5,1.1 4.9,1 4.7,1 4,0.7 3.3,0.4 2.6,0.1 1.2,-0.3 0.5,0.4 0.2,1.4 c 0,0.1 0,0.2 -0.1,0.4 -0.1,0.1 0,0.3 0,0.5 0,0.1 0,0.1 -0.1,0.1 0,0.7 0.2,1.4 0.4,2.1 0.1,0.4 0.3,0.8 0.5,1.2 2.5,5.5 8.4,12.6 14.5,17.6 z"
   id="path57"
   style="opacity:0.8;fill:url(#SVGID_14_);stroke-width:0.492127;enable-background:new">&#10;  </path>
&#10;  <linearGradient
   id="linearGradient122"
   gradientUnits="userSpaceOnUse"
   x1="-2.6385"
   y1="102.0505"
   x2="43.842999"
   y2="89.464897"
   gradientTransform="matrix(1,0,0,-1,0,113.5125)">&#10;   <stop
   offset="0.1297"
   style="stop-color:#3A67B0"
   id="stop120">&#10;   </stop>
&#10;   <stop
   offset="0.5622"
   style="stop-color:#357FBD"
   id="stop121">&#10;   </stop>
&#10;   <stop
   offset="0.9352"
   style="stop-color:#3290C6"
   id="stop122">&#10;   </stop>
&#10;  </linearGradient>
&#10;  <path
   class="st14"
   d="M 15.4,23.3 C 23.5,30 32.4,34.5 40.7,35.6 39.4,26.9 32,15.3 8.9,2.8 8.8,2.8 8.7,2.7 8.6,2.6 8.3,2.4 7.9,2.3 7.6,2.1 7.4,2 7.2,2 7,1.8 6.8,1.8 6.7,1.7 6.5,1.7 6.1,1.5 5.8,1.3 5.4,1.2 5.3,1.2 5.3,1.1 5.2,1.1 5,1.1 4.9,1 4.7,1 4,0.7 3.3,0.4 2.6,0.1 1.2,-0.3 0.5,0.4 0.2,1.4 c 0,0.1 0,0.2 -0.1,0.4 -0.1,0.1 0,0.3 0,0.5 0,0.1 0,0.1 -0.1,0.1 0,0.7 0.2,1.4 0.4,2.1 0.1,0.4 0.3,0.8 0.5,1.2 2.5,5.5 8.4,12.6 14.5,17.6 z"
   id="path60"
   style="fill:url(#SVGID_15_);stroke-width:0.492127">&#10;  </path>
&#10;  <linearGradient
   id="linearGradient124"
   gradientUnits="userSpaceOnUse"
   x1="56.157501"
   y1="92.646599"
   x2="104.2326"
   y2="79.629501"
   gradientTransform="matrix(1,0,0,-1,0,113.5125)">&#10;   <stop
   offset="0.1724"
   style="stop-color:#4E5CA8"
   id="stop123">&#10;   </stop>
&#10;   <stop
   offset="0.9937"
   style="stop-color:#1FC3F3"
   id="stop124">&#10;   </stop>
&#10;  </linearGradient>
&#10;  <path
   class="st15"
   d="m 108.3,17.3 c -2.5,-0.4 -8,-0.5 -18.9,1.8 -1.3,0.3 -2.6,0.5 -3.9,0.4 -1.4,-0.2 -2.9,-0.5 -4.2,-0.9 -2.8,-1 -5.8,-1.5 -8.8,-1.4 -2.1,0.1 -4,0.8 -5.7,2 -1.4,0.9 -2.5,2.1 -3.5,3.4 -1.8,2.5 -5.6,10 -10.7,12 4.1,3.9 10.3,7.1 16.2,5.2 5.6,-1.9 9.1,-6.9 10.2,-8.6 1.1,-1.7 2.4,-3.4 3.7,-4.9 1.9,-2 4.3,-3.5 6.9,-4.4 6.6,-2.2 16.6,-3.6 19,-3.8 0.1,-0.2 0.1,-0.7 -0.3,-0.8 z"
   id="path62"
   style="fill:url(#SVGID_16_);stroke-width:0.492127">&#10;  </path>
&#10;  <path
   class="st16"
   d="m 75.9,25.5 c 1,0 1.7,-0.8 1.7,-1.8 0,-1 -0.8,-1.8 -1.7,-1.8 -1,0 -1.7,0.8 -1.7,1.8 0,1 0.7,1.8 1.7,1.8 z"
   id="path63"
   style="fill:#282e38;stroke-width:0.492127">&#10;  </path>
&#10; </g>
    <g
       transform="matrix(3.0423231,0,0,3.0423231,-48.146993,-298.91178)"
       id="g7"
       style="stroke-width:0.0982221">
      <g
         transform="matrix(0.037,0,0,0.037,8.8,122)"
         stroke-width="0.108044"
         id="g6">
        <path
           d="m 385,452 c -4.9,-5.3 -4.6,-8.9 0.94,-15 2.4,-2.6 6,-5.8 8,-7 l 3.6,-2.2 -5.4,-5.9 c 39,-39 188,-68 -28,-110 -42,-83 -59,-146 4.2,-18 0.45,0.4 0.42,-5.8 2.9,-6 4.1,-0.44 4.5,-0.78 4.5,-3.3 0.006,-1.9 -1.1,-3.8 -3.4,-5.6 -3.1,-2.6 -3.4,-3.4 -3.8,-10 -0.21,-4 -0.82,-13 -1.4,-21 l -1,-13 6.3,-5.3 0.43,-28 -6.6,-5.5 c -4.1,-3.4 -7.7,-7.6 -9.5,-11 -2.7,-5.1 -2.9,-6.6 -3.1,-20 -0.24,-13 -0.024,-15 2,-20 1.2,-2.7 3.7,-5.9 5.4,-7.1 1.7,-1.3 4.8,-5.3 6.8,-9 4.6,-8.3 15,-22 20,-25 1.9,-1.5 5.8,-3.7 8.5,-4.8 28,-12 139,-11 163,0.73 2.2,1.2 5.8,4 8,6.2 4.6,4.9 13,17 16,24 1.2,2.7 4.3,7 6.8,9.6 6,6 7.1,10 6.8,25 -0.46,17 -3.1,23 -15,33 l -6.3,5.1 0.78,5.5 c 0.43,3 0.82,9.5 0.86,14 0.078,8.9 0.085,8.9 3.3,10 l 3.2,1.2 v 21 c 0,21 -0.025,21 -2.8,25 -3.1,4.6 -2.8,7.1 1,7.1 1.4,0 3.3,0.25 4.1,0.56 1.6,0.59 4.6,-4.7 29,-52 11,-21 14,-26 17,-27 3.2,-1.2 7.1,1.5 7.1,5 0,1.1 -4.3,10 -9.5,20 -27,50 -32,61 -31,62 1.7,1.7 1.4,3.6 -1.5,8.2 -1.6,2.6 -3.5,4.2 -4.8,4.2 -233,58 -44,74 -32,112 l -4.9,6 4.8,4.4 c 6.4,5.9 8.8,11 8.4,17 -0.15,2.2 -7.2,7.2 -10,7.2 -1.1,0 -5.8,-3.7 -10,-8.2 l -8.4,-8.2 -3.4,1.4 c -21,8.7 -38,12 -62,12 -19,0.028 -31,-1.8 -47,-7.1 -5.7,-1.9 -10,-3.1 -10,-2.7 0,0.4 -1.1,1 -2.4,1.3 -1.3,0.3 -6.2,3.5 -11,7 -10,7.8 -13,8.2 -18,2.7 z m -8.8,-147 c 0,-2 -0.34,-2.5 -1.1,-1.8 -0.61,0.61 -0.79,1.9 -0.42,2.9 0.99,2.6 1.5,2.2 1.5,-1.1 z m 100,-68 c 2.2,-2 2.5,-3.3 2.5,-11 0,-9.5 -0.14,-9.6 -8.9,-6.6 l -5,1.7 v 5.9 c 0,11 5.5,15 11,9.7 z m 15,-1.3 c 1.6,-2.3 2,-7.9 0.94,-12 -0.39,-1.4 -2.3,-2.8 -5.6,-4 -2.7,-0.98 -5.4,-1.8 -5.8,-1.8 -0.44,0.003 -0.8,3.8 -0.8,8.5 0,7.8 0.22,8.6 2.7,11 3.1,2.4 6.3,2 8.6,-1.3 z m -32,-30 c 1.5,-1.8 2.5,-3.6 2.2,-3.9 -0.71,-0.71 -4.7,2.8 -6.1,5.4 -1.7,3.1 0.75,2.2 3.8,-1.5 z m 41,0.72 c -1.9,-2.3 -8.6,-6 -8.6,-4.8 0,2 5.2,6.3 7.5,6.3 1.9,0 2.1,-0.28 1,-1.5 z m -54,-9.1 c 3.2,-1.4 7.5,-4.5 10,-7.2 4.4,-4.7 4.4,-4.7 9.2,-3.7 3.2,0.68 5.9,0.67 8,-0.054 4,-1.4 8.4,-0.5 12,2.4 7.7,6.8 26,10 36,6.8 3.5,-1.2 10,-2.1 19,-2.5 l 14,-0.61 0.33,-5.1 c 0.43,-6.6 -4.9,-17 -8.8,-17 -2.2,0 -2.5,-0.68 -3.2,-5.6 -2,-15 -13,-25 -30,-25 -15,0 -30,10 -32,23 -0.42,2.1 -0.95,4 -1.2,4.4 -0.37,0.63 -15,-2.7 -16,-3.5 -5.6,-11 -6.6,-13 -11,-16 -2.9,-1.8 -7.4,-3.8 -10,-4.4 -6.4,-1.6 -17,-0.56 -23,2.3 -4.5,2.1 -5.3,3.2 -12,16 -3.9,7.4 -8.3,15 -9.7,18 l -2.5,4 h 4.2 c 3.8,0 4.6,0.48 7.5,4.7 3.4,4.9 8.2,8.5 15,11 5.7,2.1 19,1.2 25,-1.7 z m -32,-15 c -8.9,-3.3 -8.5,-17 0.64,-19 10,-2.6 15,14 5.1,18 -2,0.82 -3.7,1.5 -3.9,1.4 -0.17,-0.046 -1,-0.35 -1.9,-0.67 z m 8.2,-6.3 c 0.89,-2.3 -1.4,-4.5 -3,-2.9 -1.4,1.4 -0.52,4.6 1.2,4.6 0.62,0 1.4,-0.75 1.8,-1.7 z m 67,1.3 c -5.2,-5.6 -3.6,-14 3.2,-17 6.1,-2.1 12,2.4 12,9.6 0,8.2 -9.4,13 -15,7 z m 12,-5.9 c -1.2,-1.9 -3.8,-1.3 -3.8,0.79 0,1.1 0.33,2.3 0.74,2.7 1.1,1.1 3.9,-2.1 3.1,-3.5 z m -78,-41 c 26,-11 72,-12 100,-2.9 7.3,2.5 9.4,2.8 9.8,1.7 0.31,-0.8 2.1,-2.1 4.1,-2.9 12,-5.3 23,-5.7 32,-1.3 3.4,1.6 6.4,2.7 6.5,2.6 0.86,-0.86 -12,-19 -15,-21 -5,-3.3 -18,-6.7 -37,-9.1 -20,-2.7 -77,-3.4 -93,-1.1 -22,3 -33,6.5 -41,13 -4.7,4 -16,17 -16,18 0.2,0.2 3.1,-0.91 6.5,-2.4 8.1,-3.7 17,-3.9 27,-0.48 4,1.4 8.3,3.6 9.6,5 2.8,3 2.1,2.9 6.7,0.99 z"
           fill="#abdae7"
           id="path1-1"
           style="stroke-width:0.108044" />
        <path
           d="m 385,452 c -4.7,-5.2 -4.6,-8.8 0.54,-15 2.2,-2.4 6,-5.7 8.4,-7.3 l 4.4,-2.8 -5.1,-5.1 c -2.8,-2.8 -7.1,-8.8 -9.5,-13 -4.1,-7.9 -8.6,-23 -8.6,-29 -0.005,-1.9 -1.8,-4.5 -5.9,-8.6 -3.2,-3.2 -5.9,-6.8 -5.9,-7.8 0,-1.8 0.11,-1.8 1.3,-0.19 0.92,1.2 7.1,2.9 20,5.5 27,5.4 54,7.8 72,6.2 9.3,-0.8 9.6,-0.9 11,-4.3 23,-102 -22,-54 -88,-54 -4.4,-1.2 -8.4,-1.7 -9.1,-1.2 -1.9,1.5 -5.5,-0.63 -6.9,-4.1 -0.98,-2.4 -2.1,-3.3 -3.9,-3.3 -12,-29 -27,-62 -42,-96 0,-2.9 3.1,-5.4 6.3,-5.1 3.3,0.38 4.3,2.3 27,50 l 14,31 10,-1.2 v 7.4 c 0,4.1 -0.53,7.9 -1.2,8.6 -0.71,0.71 -0.84,2.2 -0.35,3.7 l 0.83,2.5 0.77,-2.7 c 0.42,-1.5 0.82,-7.5 0.88,-13 l 0.11,-11 -7.9,-6.3 -0.8,-14 c -0.44,-7.9 -1.1,-17 -1.4,-21 -0.61,-6.3 -0.52,-6.7 2.4,-8.8 3,-2.2 3.1,-2.3 3.7,-16 l 0.63,-14 -3.9,-3.5 c -8.5,-7.7 -10,-9.6 -13,-15 -2.5,-5.3 -2.8,-7.3 -3,-20 -0.19,-13 0.02,-14 2.2,-19 1.3,-2.6 3.9,-5.8 5.7,-6.9 1.8,-1.2 4.1,-3.8 5.1,-5.8 5.4,-11 19,-27 26,-31 16,-8.4 65,-12 112,-9.5 40,2.5 54,6.1 63,16 5.4,6.4 14,21 16,26 0.66,2 1.9,3.7 2.6,3.7 4.1,0 11,14 9.6,19 -0.42,1 -0.7,5.8 -0.61,11 0.26,14 -3.1,21 -17,32 l -4.4,3.8 2.4,29 6,1.3 v 21 c 0,21 -0.045,21 -2.7,25 -3.7,5.5 -3.5,7.2 1.1,7.4 2.1,0.088 4.2,0.21 4.9,0.27 0.62,0.059 10,-17 22,-39 22,-42 23,-43 28,-39 1.2,1.1 2.2,2.9 2.2,4 0,1.8 -7.9,17 -36,70 -4.3,8.1 -5.5,11 -4.7,12 1.8,1.8 1.4,3.6 -1.5,8.2 -1.6,2.5 -3.5,4.2 -4.7,4.2 -2,0 -5.8,4.7 -5.8,7.1 0,0.73 -0.38,1.1 -0.84,0.8 -0.46,-0.28 -5.5,0.66 -11,2.1 -116,-56 -151,94 0.88,70 -2.9,11 -9.5,24 -15,31 -2.4,2.9 -4.3,5.6 -4.3,6.1 0,0.49 1.7,2.2 3.8,3.8 5.8,4.4 9.5,12 9.1,18 -0.14,2.1 -7.2,7.2 -10,7.2 -1.1,0 -6,-3.9 -11,-8.6 l -9,-8.6 -4.1,2.1 c -13,6.5 -32,11 -54,12 -22,0.87 -42,-2 -58,-8.5 -3.8,-1.6 -6.1,-2 -5.8,-1.2 0.28,0.72 -0.61,1.6 -2,1.9 -1.4,0.34 -6.3,3.5 -11,7.1 -10,7.8 -13,8.2 -18,2.7 z m 167,-25 c 1.3,-1.7 1.3,-1.7 -0.4,-0.4 -1.8,1.4 -2.3,2.3 -1.5,2.3 0.22,0 1.1,-0.84 1.9,-1.9 z m 26,-137 c -0.27,-1 -0.49,-0.19 -0.49,1.9 0,2.1 0.22,2.9 0.49,1.9 0.27,-1 0.27,-2.7 0,-3.7 z M 476,237 c 2.8,-2.8 3.1,-2.9 4.2,-1.1 1.8,2.8 6.1,3.5 9.2,1.5 2.4,-1.6 2.7,-2.5 2.7,-8.6 v -6.9 l -4,-1.7 c -6.3,-2.8 -13,-3 -19,-0.76 -5.9,2.2 -6.5,3.3 -5.4,11 0.76,5.1 4.4,9.9 7.5,9.9 0.95,0 3.1,-1.3 4.7,-3 z m -18,-32 c 2.7,-2.9 4.7,-6.1 4.7,-7.5 0,-1.5 1.9,-4 5,-6.8 6.1,-5.4 10,-5.8 16,-1.5 5.4,4 6.6,5.6 6.6,9.1 0,3.9 1.6,6.8 4.4,8.3 1.2,0.64 12,2.3 24,3.6 25,2.8 25,2.8 30,-5.2 2.6,-4.4 5.9,-16 5.9,-20 0,-1.2 -2.8,-7.4 -6.3,-14 -3.4,-6.3 -7.4,-14 -8.8,-18 -1.4,-3.4 -3.2,-6.1 -3.9,-6.1 -0.76,-0.01 -2.4,-1 -3.7,-2.3 -7.7,-7.4 -23,-9 -35,-3.6 -3.7,1.6 -7.2,3.6 -7.9,4.5 -0.94,1.1 -5.3,1.5 -19,1.5 -16,0 -18,-0.25 -22,-2.1 -8.7,-4.5 -22,-4.7 -31,-0.35 -3.4,1.6 -5,3.8 -10,14 -3.4,6.5 -8.2,15 -11,19 -3.7,6 -4.2,7.5 -3.7,11 1.4,10 6.4,20 12,22 3.3,1.6 8.6,1.4 40,-1 7.5,-0.59 7.7,-0.53 7.9,1.8 0.14,2.3 0.17,2.3 0.59,0.19 0.24,-1.2 2.6,-4.5 5.2,-7.3 z m -25,-77 c 15,-4.3 26,-5.6 45,-5.6 21,0.005 31,1.5 45,6.2 l 7.5,2.5 2.5,-2.5 c 1.4,-1.4 3.9,-2.8 5.6,-3.2 1.7,-0.34 4.8,-1.1 6.9,-1.6 5.3,-1.4 15,-1.3 19,0.23 2,0.68 5.4,2.4 7.7,3.8 l 4,2.5 -2.6,-5.1 c -5,-9.8 -11,-17 -17,-20 -13,-6 -38,-9.2 -78,-9.9 -33,-0.61 -48,0.32 -67,4.1 -15,3 -22,6.8 -30,15 -7.1,8.2 -12,15 -11,15 0.58,-0.27 3.4,-1.6 6.3,-3 7.3,-3.4 17,-4.1 25,-1.7 8.7,2.7 13,4.9 14,7 0.56,1.8 0.87,1.8 4.6,0.24 2.2,-0.92 7.1,-2.6 11,-3.7 z"
           fill="#f2d1a2"
           id="path2-8"
           style="stroke-width:0.108044" />
        <path
           d="m 455,450 c -26,-3.9 -44,-11 -57,-22 -8,-7 -11,-11 -16,-20 -3.6,-7.1 -7.8,-22 -7.9,-28 -0.005,-2 -1.6,-4.5 -5.5,-8.3 -3,-3 -5.2,-5.7 -5,-5.9 0.25,-0.25 5.7,0.72 12,2.2 15,3.4 28,5.6 41,6.9 11,1.2 41,1.4 46,0.4 4.1,-0.81 5.8,-4.2 6.9,-13 l 0.74,-6 -23,-0.69 c -31,-0.91 -52,-3.8 -75,-10 l -6.9,-1.9 0.37,-3.7 c 0.2,-2 0.45,-3.8 0.55,-3.9 0.1,-0.11 7.1,1.2 16,2.9 27,5.4 40,6.8 65,6.9 15,0.051 24,-0.33 24,-1 0.6,-0.6 1.4,-5.2 1.8,-10 l 0.69,-9 -23,-0.1 c -26,-0.11 -42,-1.9 -62,-6.5 -11,-1.1 -15,-3.1 -13,-12 0.41,-1.5 0.79,-7.6 0.85,-14 l 0.11,-11 -7.5,-6.6 -1,-18 c -1.4,-25 -1.4,-23 1.5,-25 2.4,-1.3 2.5,-2 3.2,-16 l 0.66,-15 -4,-3.6 c -2.2,-2 -5.4,-4.8 -7,-6.4 -1.6,-1.6 -4.3,-5.5 -5.9,-8.7 -2.5,-5.3 -2.8,-7.2 -2.9,-19 -0.16,-15 1,-20 7,-25 2.2,-1.9 5.5,-6.3 7.5,-9.8 6.5,-12 18,-25 25,-28 16,-8.3 65,-12 112,-9.5 40,2.5 54,6.1 63,16 5.2,6.2 14,21 16,26 0.62,1.9 2.5,4.2 4.2,5.1 3.4,1.9 8,10 7.9,15 -0.5,23 -0.74,25 -4,32 -2,4 -4.9,7.6 -8,9.9 -11,8.2 -9.7,5.4 -8.3,22 l 1.2,15 6.2,2.6 -0.34,21 c -0.33,20 -0.45,21 -2.7,24 -2,2.1 -2.4,3.7 -2.3,8.9 0.034,3.5 0.42,8.3 0.86,11 -3.5,9.4 8.2,19 -12,20 -20,4.5 -37,6.2 -62,6.3 l -23,0.11 -0.6,4.3 c -0.33,2.3 -0.24,6.7 0.2,9.6 l 0.8,5.3 8,0.88 c 18,2 52,-0.66 83,-6.7 8.7,-1.7 16,-2.9 16,-2.8 0.17,0.16 0.57,1.9 0.9,3.9 l 0.58,3.6 -9.4,2.4 c -23,6 -44,8.7 -74,9.5 l -23,0.65 0.69,5.2 c 1.3,9.8 2.9,13 7,14 5.5,1.4 46,0.18 59,-1.8 6.5,-0.96 18,-3.1 26,-4.8 8,-1.7 15,-2.8 15,-2.6 0.71,0.65 -7.5,8.8 -11,11 -2.8,1.7 -3.6,3.4 -5.6,11 -11,41 -42,61 -97,62 -11,0.24 -21,0.21 -22,-0.049 z m 21,-212 c 2.8,-2.8 3.1,-2.9 4.2,-1.1 1.8,2.8 6.1,3.5 9.2,1.5 2.4,-1.6 2.7,-2.5 2.7,-8.7 0,-6.6 0.13,-6.9 2.5,-6.9 1.4,0 3.8,-1.3 5.4,-2.9 2.2,-2.2 2.8,-3.7 2.5,-6.4 -0.49,-4.2 -1.9,-4.1 21,-1.5 16,1.8 18,1.9 20,0.37 3.6,-2.3 7.3,-9.2 9.4,-17 2.8,-11 0.77,-26 -4.7,-37 -2.6,-5 -5.3,-7.2 -11,-8.3 -2,-0.42 -4.6,-1.7 -5.9,-2.9 -7.5,-7.2 -23,-8.8 -34,-3.5 -3.7,1.6 -7.2,3.6 -7.9,4.5 -0.94,1.1 -5.3,1.5 -19,1.5 -16,0 -18,-0.25 -22,-2.1 -9.3,-4.8 -23,-4.6 -33,0.47 -2.9,1.5 -6.4,2.7 -7.8,2.7 -3.7,0 -9.4,5.6 -12,12 -2.2,4.9 -2.5,7.3 -2.5,18 -0.037,14 1,19 5.5,26 5.3,8.2 5.6,8.2 46,5.1 l 7.6,-0.6 0.68,3.6 c 0.85,4.5 3.7,7.2 7.9,7.3 2.5,0.072 3.1,0.48 2.7,2.1 -1,3.9 0.93,12 3.5,14 3.3,3.3 5.3,3.2 9,-0.46 z m -9.8,-33 c -2.3,-1.2 -2.9,-2.4 -2.9,-5.1 0,-2.9 0.93,-4.4 5,-8 6.3,-5.6 10,-5.8 17,-0.99 7.6,5.3 7.7,10 0.45,14 -4.5,2.3 -15,2.4 -19,0.19 z m -38,-75 c 28,-9.8 69,-10 96,-0.95 6.3,2.1 7.9,2.4 8.8,1.2 4.1,-5.5 24,-9 33,-5.9 2,0.68 5.4,2.4 7.7,3.8 l 4,2.5 -2.6,-5.1 c -5,-9.8 -11,-17 -17,-20 -13,-6 -38,-9.2 -78,-9.9 -33,-0.61 -48,0.32 -67,4.1 -15,3 -22,6.8 -30,15 -7.1,8.2 -12,15 -11,15 0.58,-0.27 3.5,-1.6 6.4,-3 7.8,-3.7 17,-4.1 26,-1.2 8.4,2.8 12,4.8 12,7.1 0,1.2 0.55,1.5 1.9,0.91 1,-0.43 5.1,-1.9 9,-3.3 z"
           fill="#ea982a"
           id="path3-7"
           style="stroke-width:0.108044" />
        <path
           d="m 455,450 c -26,-3.9 -44,-11 -57,-22 -8,-7 -11,-11 -16,-20 -3.6,-7.2 -7.8,-22 -7.9,-28 l -0.007,-2.9 6.6,3.3 c 18,8.9 41,11 65,6.6 10,-2 13,-3.5 17,-9.2 4.7,-5.8 5.8,-8.6 6.6,-18 0.35,-4 1.3,-12 2.2,-17 1.2,-7.5 1.4,-16 1.1,-36 -0.43,-22 -2.5,-47 -4,-48 -0.22,-0.16 -22,-5.5 -48,-12 -26,-6.3 -48,-12 -48,-12 -0.54,-0.33 -0.7,-8 -0.36,-18 l 0.6,-17 -5,-3.7 c -6.7,-5 -8.3,-7 -12,-14 -2.6,-5.3 -2.9,-7.2 -3,-18 -0.18,-15 0.97,-20 6.6,-25 2.4,-2.4 6,-7.2 7.9,-11 6.6,-12 18,-25 25,-28 16,-8.3 65,-12 112,-9.5 31,12 53,6.9 62,16 5.5,6.5 12,16 15,23 1.5,3.3 4.1,7.1 5.8,8.5 6.1,5.1 7.2,9.1 6.9,25 -0.23,14 -0.4,15 -3.5,21 -2,4 -4.9,7.6 -8,9.9 -2.6,2 -5.9,4.5 -7.2,5.5 l -2.4,1.9 1.4,17 c 0.75,9.2 1.1,17 0.77,17 -0.32,0.19 -21,5.5 -46,12 -25,6.3 -45,12 -46,12 -0.15,0.095 -1,5.4 -2,12 -2,13 -2.9,60 -1.3,69 0.52,2.9 1.4,9.7 1.9,15 1.3,13 2.6,17 7.6,23 3.5,4.1 5.6,5.4 11,7.1 20,6.2 50,4.7 68,-3.4 2.8,-1.2 5.3,-2 5.6,-1.7 1,1 -3.9,16 -8,25 -11,23 -30,36 -61,42 -9.4,2 -43,3.6 -51,2.4 z m 21,-212 c 2.8,-2.8 3.1,-2.9 4.2,-1.1 1.8,2.8 6.1,3.5 9.2,1.5 2.4,-1.6 2.7,-2.5 2.7,-8.7 0,-6.6 0.13,-6.9 2.5,-6.9 1.4,0 3.8,-1.3 5.4,-2.9 2.2,-2.2 2.8,-3.7 2.5,-6.4 -0.49,-4.2 -1.9,-4.1 21,-1.5 16,1.8 18,1.9 20,0.37 5.5,-3.6 11,-18 11,-28 0,-7.6 -3.1,-21 -6,-26 -3.1,-5.3 -6,-7.5 -11,-8.5 -2,-0.38 -4.7,-1.6 -5.9,-2.8 -7.5,-7.2 -23,-8.8 -34,-3.5 -3.7,1.6 -7.2,3.6 -7.9,4.5 -0.94,1.1 -5.3,1.5 -19,1.5 -16,0 -18,-0.25 -22,-2.1 -8.8,-4.6 -22,-4.7 -32,-0.19 -2.5,1.2 -6.2,2.4 -8.3,2.7 -5.1,0.88 -8,3.1 -11,8.7 -9.3,16 -4.8,48 7.6,54 3.2,1.6 8.5,1.4 40,-1 l 7.6,-0.6 0.68,3.6 c 0.85,4.5 3.7,7.2 7.9,7.3 2.5,0.072 3.1,0.48 2.7,2.1 -1,3.9 0.93,12 3.5,14 3.3,3.3 5.3,3.2 9,-0.46 z m -9,-32 c -5.6,-3.2 -5.1,-7.8 1.3,-14 6.3,-5.6 10,-5.8 17,-0.99 7.6,5.3 7.7,10 0.45,14 -4.2,2.1 -15,2.5 -19,0.59 z m -39,-75 c 28,-9.8 69,-10 96,-0.97 7.6,2.6 7.7,2.6 9.8,0.53 3.1,-2.9 15,-6.4 22,-6.4 6.7,-0.016 11,1.3 17,5 l 4,2.5 -2.6,-5.1 c -5,-9.8 -11,-17 -17,-20 -13,-6 -38,-9.2 -78,-9.9 -33,-0.61 -48,0.32 -67,4.1 -15,3 -22,6.8 -30,15 -7.1,8.2 -12,15 -11,15 0.58,-0.27 3.5,-1.6 6.4,-3 7.8,-3.7 17,-4.1 26,-1.2 8.4,2.8 12,4.8 12,7.1 0,1.2 0.55,1.5 1.9,0.91 1,-0.43 5.1,-1.9 9,-3.3 z m -51,162 c 0.086,-9.7 0.096,-9.7 1.7,-6 2.1,4.9 1.4,17 -1.2,20 -3.9,5.8 -0.38,-12 -0.48,-14 z"
           fill="#37aac6"
           id="path4-9"
           style="stroke-width:0.108044" />
        <path
           d="m 467,205 c -2.7,-1.3 -4,-4.9 -2.9,-8.2 1.9,-6 14,-9.4 21,-5.9 7.5,3.6 7.6,11 0.098,14 -4.3,1.8 -15,1.9 -18,0.23 z m 101,-3 c -0.97,-0.57 -4.1,-4.5 -6.8,-8.7 -4.3,-6.6 -5.3,-9 -6.4,-16 -0.71,-4.7 -1.8,-11 -2.5,-13 -1.7,-6.3 -6.8,-13 -11,-14 -3.7,-1.2 -5.3,-4 -8.1,-14 -1.4,-5 1.5,-8 11,-11 12,-3.7 21,-2.9 30,2.8 l 4,2.5 -2.6,-5.1 c -5,-9.8 -11,-17 -17,-20 -13,-6 -38,-9.2 -78,-9.9 -33,-0.61 -48,0.32 -67,4.1 -15,3 -22,6.8 -30,15 -7.1,8.2 -12,15 -11,15 0.58,-0.27 3.5,-1.6 6.4,-3 7.8,-3.7 17,-4.1 26,-1.1 13,4.4 14,6.1 10,16 -2.4,6.4 -2.7,6.7 -7.4,7.8 -5.9,1.5 -7.6,2.8 -11,8.7 -3,5 -5.9,19 -5,24 0.45,2.3 -0.37,4.4 -3.4,9.1 -8.3,13 -10,13 -20,6.4 -7.8,-5.9 -9.3,-7.6 -13,-15 -2.6,-5.3 -2.9,-7.2 -3,-18 -0.18,-15 0.97,-20 6.6,-25 2.4,-2.4 6,-7.2 7.9,-11 6.6,-12 18,-25 25,-28 16,-8.3 65,-12 112,-9.5 39,2.5 54,6.2 62,16 5.5,6.5 12,16 15,23 1.5,3.3 4.1,7.1 5.8,8.5 6.1,5.1 7.2,9.1 6.9,25 -0.23,14 -0.4,15 -3.5,21 -3.1,6 -8,11 -17,17 -3.6,2.3 -4.6,2.4 -7.1,0.95 z"
           fill="#595959"
           id="path5-2"
           style="stroke-width:0.108044" />
        <path
           d="m 367,315 c -2,-2.4 -15,-31 -15,-33 0,-1 1.2,-2.4 2.7,-3.1 5,-2.3 6.5,-1.6 9,4.2 l 2.3,5.4 -2.2,2.4 c -4.4,4.6 -2.2,9.2 4.3,9.2 3.8,0 4,0.24 6.3,5.9 2.1,5.1 2.2,6.2 0.92,7.4 -2.3,2.3 -6.8,3 -8.2,1.4 z m 212,-2.5 c -3.1,-2.1 -3,-3.8 0.37,-9.6 2.5,-4.3 3,-4.6 5.4,-3.6 6.9,2.6 12,-5.1 6.1,-9.6 l -2.9,-2.3 2.5,-5.4 c 1.4,-3 2.9,-5.6 3.4,-5.9 1.5,-0.9 8.3,3 8.3,4.7 0,1.6 -14,29 -16,32 -1.4,1.8 -4.1,1.7 -7,-0.33 z m -111,-108 c -4.5,-2 -5.3,-4.3 -3,-8.6 4.6,-8.6 20,-8.8 25,-0.31 1.5,2.7 1.4,3.1 -0.97,5.6 -4.4,4.7 -14,6.2 -21,3.3 z m -102,-68 c -2.1,-3.4 15,-27 24,-34 12,-8.6 39,-12 88,-12 48,0.059 77,4.3 86,13 7.4,6.5 22,30 20,33 -1.2,2 -2.7,0.52 -6.2,-6.6 -4.4,-8.7 -11,-19 -15,-22 -9.2,-8.4 -42,-13 -91,-13 -41,-0.11 -62,2.5 -76,9.6 -6.8,3.2 -19,16 -25,26 -4.4,7.5 -4.4,7.5 -5.4,5.9 z"
           fill="#292929"
           id="path6-0"
           style="stroke-width:0.108044" />
      </g>
    </g>
    <text
       xml:space="preserve"
       style="font-size:8.46667px;line-height:1.25;font-family:Cantarell;-inkscape-font-specification:'Cantarell, Normal';text-align:center;letter-spacing:0px;word-spacing:0px;writing-mode:lr-tb;text-anchor:middle;stroke-width:0.264583"
       x="31.130495"
       y="170.44823"
       id="text2"><tspan
         sodipodi:role="line"
         id="tspan2"
         style="font-size:8.46667px;text-align:center;text-anchor:middle;stroke-width:0.264583"
         x="31.130495"
         y="170.44823">Data </tspan><tspan
         sodipodi:role="line"
         style="font-size:8.46667px;text-align:center;text-anchor:middle;stroke-width:0.264583"
         x="31.130495"
         y="181.03157"
         id="tspan3">collection</tspan></text>
    <text
       xml:space="preserve"
       style="font-size:8.46667px;line-height:1.25;font-family:Cantarell;-inkscape-font-specification:'Cantarell, Normal';text-align:center;letter-spacing:0px;word-spacing:0px;writing-mode:lr-tb;text-anchor:middle;stroke-width:0.264583"
       x="103.15839"
       y="170.44823"
       id="text5"><tspan
         sodipodi:role="line"
         style="font-size:8.46667px;text-align:center;text-anchor:middle;stroke-width:0.264583"
         x="103.15839"
         y="170.44823"
         id="tspan5">Data</tspan><tspan
         sodipodi:role="line"
         style="font-size:8.46667px;text-align:center;text-anchor:middle;stroke-width:0.264583"
         x="103.15839"
         y="181.03157"
         id="tspan6">aggregation</tspan><tspan
         sodipodi:role="line"
         style="font-size:8.46667px;text-align:center;text-anchor:middle;stroke-width:0.264583"
         x="103.15839"
         y="191.6149"
         id="tspan7">&amp; processing</tspan></text>
    <text
       xml:space="preserve"
       style="font-size:8.46667px;line-height:1.25;font-family:Cantarell;-inkscape-font-specification:'Cantarell, Normal';text-align:center;letter-spacing:0px;word-spacing:0px;writing-mode:lr-tb;text-anchor:middle;stroke-width:0.264583"
       x="183.93701"
       y="170.82922"
       id="text10"><tspan
         sodipodi:role="line"
         style="font-size:8.46667px;text-align:center;text-anchor:middle;stroke-width:0.264583"
         x="183.93701"
         y="170.82922"
         id="tspan10">Indexing &amp;</tspan><tspan
         sodipodi:role="line"
         style="font-size:8.46667px;text-align:center;text-anchor:middle;stroke-width:0.264583"
         x="183.93701"
         y="181.41257"
         id="tspan12">storage</tspan></text>
    <text
       xml:space="preserve"
       style="font-size:8.46667px;line-height:1.25;font-family:Cantarell;-inkscape-font-specification:'Cantarell, Normal';text-align:center;letter-spacing:0px;word-spacing:0px;writing-mode:lr-tb;text-anchor:middle;stroke-width:0.264583"
       x="264.44559"
       y="170.82922"
       id="text14"><tspan
         sodipodi:role="line"
         style="font-size:8.46667px;text-align:center;text-anchor:middle;stroke-width:0.264583"
         x="264.44559"
         y="170.82922"
         id="tspan14">Analysis &amp;</tspan><tspan
         sodipodi:role="line"
         style="font-size:8.46667px;text-align:center;text-anchor:middle;stroke-width:0.264583"
         x="264.44559"
         y="181.41257"
         id="tspan15">visualization</tspan></text>
    <path
       style="fill:none;stroke:#000000;stroke-width:0.264583px;stroke-linecap:butt;stroke-linejoin:miter;stroke-opacity:1;stroke-dasharray:1.05833197,1.05833197;stroke-dashoffset:0"
       d="M 5.6276372,155.93632 H 293.19564"
       id="path16" />
    <text
       xml:space="preserve"
       style="font-size:8.46667px;line-height:1.25;font-family:Cantarell;-inkscape-font-specification:'Cantarell, Normal';text-align:center;letter-spacing:0px;word-spacing:0px;writing-mode:lr-tb;text-anchor:middle;stroke-width:0.264583"
       x="33.025959"
       y="64.954407"
       id="text17"><tspan
         sodipodi:role="line"
         style="font-size:8.46667px;text-align:center;text-anchor:middle;stroke-width:0.264583"
         x="33.025959"
         y="64.954407"
         id="tspan17">Cluster</tspan></text>
    <rect
       style="fill:none;stroke:#000000;stroke-width:1;stroke-linecap:round;stroke-linejoin:round;stroke-dasharray:none;stroke-dashoffset:0;paint-order:stroke fill markers"
       id="rect17"
       width="51.290371"
       height="65.45282"
       x="6.8520637"
       y="71.098366"
       ry="12.89412" />
    <rect
       style="fill:none;stroke:#000000;stroke-width:1;stroke-linecap:round;stroke-linejoin:round;stroke-dasharray:none;stroke-dashoffset:0;paint-order:stroke fill markers"
       id="rect18"
       width="72.13279"
       height="58.757599"
       x="76.618828"
       y="73.329025"
       ry="12.89412" />
  </g>
</svg>
