<?xml version="1.0" encoding="UTF-8" standalone="no"?>
<svg
   xmlns:dc="http://purl.org/dc/elements/1.1/"
   xmlns:cc="http://creativecommons.org/ns#"
   xmlns:rdf="http://www.w3.org/1999/02/22-rdf-syntax-ns#"
   xmlns:svg="http://www.w3.org/2000/svg"
   xmlns="http://www.w3.org/2000/svg"
   xmlns:sodipodi="http://sodipodi.sourceforge.net/DTD/sodipodi-0.dtd"
   xmlns:inkscape="http://www.inkscape.org/namespaces/inkscape"
   version="1.0"
   width="310.000000pt"
   height="310.000000pt"
   viewBox="0 0 310.000000 310.000000"
   preserveAspectRatio="xMidYMid meet"
   id="svg8"
   sodipodi:docname="icon.svg"
   inkscape:version="0.92.1 r">
  <defs
     id="defs12" />
  <sodipodi:namedview
     pagecolor="#ffffff"
     bordercolor="#666666"
     borderopacity="1"
     objecttolerance="10"
     gridtolerance="10"
     guidetolerance="10"
     inkscape:pageopacity="0"
     inkscape:pageshadow="2"
     inkscape:window-width="1364"
     inkscape:window-height="734"
     id="namedview10"
     showgrid="false"
     inkscape:zoom="0.57096774"
     inkscape:cx="176.01695"
     inkscape:cy="206.66667"
     inkscape:window-x="0"
     inkscape:window-y="33"
     inkscape:window-maximized="0"
     inkscape:current-layer="svg8" />
  <metadata
     id="metadata2">
Created by potrace 1.13, written by Peter Selinger 2001-2015
<rdf:RDF>
  <cc:Work
     rdf:about="">
    <dc:format>image/svg+xml</dc:format>
    <dc:type
       rdf:resource="http://purl.org/dc/dcmitype/StillImage" />
  </cc:Work>
</rdf:RDF>
</metadata>
  <path
     sodipodi:nodetypes="cccssscccccssscscsscscsccsccscsssssscccccccscccccscccccccccccccccccsccccccscccssscssssscssssssscsccccssscssccssccssccssssscccsscsccsccscccsscsssssscscc"
     inkscape:connector-curvature="0"
     id="path14"
     d="m 166.07884,304.0891 c 3.11046,-11.23236 3.29925,-10.56602 -5.35785,-18.91037 l -8.3028,-8.00282 6.0205,-5.20431 c 5.32386,-4.60211 7.06866,-5.20429 15.07927,-5.20429 8.55837,0 17.03385,2.34224 17.03385,4.70741 0,0.5905 -1.12498,3.32888 -2.50006,6.08518 -2.44833,4.90781 -2.39227,12.43593 0.16627,22.3212 1.23942,4.78896 0.43741,5.18156 -13.93223,6.81947 -9.11147,1.03848 -9.20906,1.00754 -8.2069,-2.61147 z m -64.76323,-8.17518 c -20.114039,-8.40378 -35.239149,-18.17627 -49.922469,-32.25538 -9.64483,-9.24796 -9.48004,-9.8742 4.02433,-15.29228 9.47054,-3.79966 25.59102,-16.27337 33.94156,-26.26328 3.21762,-3.84932 6.8719,-6.99875 8.12062,-6.99875 2.558759,0 3.114609,5.55567 0.70483,7.04497 -4.09605,2.5315 -0.75727,20.27798 10.860349,57.72641 6.91394,22.2864 6.96611,22.17813 -7.72925,16.03831 z m 125.11107,-11.53421 c -0.89148,-2.36789 -4.01921,-10.31832 -6.95064,-17.66761 -5.60731,-14.05793 -9.52261,-29.26157 -7.94246,-30.84173 0.51459,-0.51445 3.64174,1.99597 6.9494,5.57881 4.36677,4.73006 11.12025,8.91822 24.65757,15.29141 10.25402,4.82742 18.93288,9.05397 19.28638,9.39232 2.30234,2.20377 -25.97584,22.55206 -31.34081,22.55206 -1.87831,0 -3.65759,-1.64403 -4.65944,-4.30526 z M 154.3705,234.8867 c -12.02517,-2.61213 -32.82795,-15.3939 -41.8163,-25.69301 -4.29833,-4.92516 -8.07866,-7.92469 -9.36531,-7.43096 -3.725879,1.42975 -11.477619,-5.5913 -15.346339,-13.89982 -5.34546,-11.47998 -4.914,-15.21568 2.14,-18.52885 7.53661,-3.53986 9.63226,-1.56749 10.847789,10.20976 0.87594,8.48668 1.25694,9.08649 11.7616,18.51433 22.56064,20.24794 42.45295,29.26199 58.11754,26.33553 14.04565,-2.624 19.49245,-6.07448 34.10978,-21.60813 l 14.18892,-15.0784 -0.73888,13.30716 c -0.40635,7.31893 -1.74994,15.76522 -2.98571,18.76951 l -2.24687,5.46234 -1.93783,-5.46234 -1.93784,-5.46236 -3.04244,3.69591 c -1.67334,2.03277 -3.04245,5.04899 -3.04245,6.70273 0,1.65373 -1.23284,3.46547 -2.7397,4.02608 -1.50684,0.56056 -4.63977,2.40465 -6.96205,4.09787 -5.24769,3.82612 -25.83114,4.9041 -39.00393,2.04265 z m -6.08848,-44.04847 c -1.58895,-1.91456 -1.50342,-2.34831 0.46302,-2.34831 3.90711,0 26.81827,0.78846 25.88404,2.30007 -1.32357,2.14159 -24.17402,2.66664 -26.34708,0.0485 z m 32.13493,-0.71614 c -0.50949,-0.82437 1.14647,-2.5708 3.68004,-3.88093 5.33379,-2.75822 6.60142,-5.25408 4.62264,-9.10151 -1.04657,-2.03495 -3.50921,-2.78888 -9.57312,-2.93085 l -23.4215,0.6381 25.25806,-2.59502 c 8.14789,-1.43866 10.24598,-2.43106 11.3251,-5.3568 1.07042,-2.90212 1.8796,-3.29393 4.21809,-2.0424 6.73552,3.60473 6.82166,5.4965 0.66967,14.70853 -6.72651,10.0724 -14.18111,14.76442 -16.77903,10.5609 z m -42.78065,-6.64198 c -4.92928,-4.92928 0.33875,-9.20131 10.93419,-8.86698 4.33487,0.13682 5.35371,0.47109 2.84263,0.93274 -5.18036,0.95249 -7.82773,3.27706 -7.82773,6.87345 0,3.32276 -3.12914,3.88071 -5.94909,1.06073 z m 20.13276,-23.87608 c -3.82316,-1.02444 -7.19898,-2.6059 -7.5018,-3.51437 -0.88104,-2.64327 7.41242,-3.44551 12.72139,-1.2306 4.18198,1.74473 5.59189,1.65122 10.07131,-0.66793 5.06407,-2.62188 14.36076,-2.66863 14.36076,-0.0721 0,0.70471 -2.04613,2.7382 -4.54693,4.51896 -5.13245,3.65461 -13.82317,3.98907 -25.10473,0.96616 z M 90.346461,148.49018 c -0.006,-1.67905 -1.41003,-5.16631 -3.12079,-7.74946 -1.71075,-2.58316 -3.1151,-5.85413 -3.12078,-7.26885 -0.0124,-3.12599 -3.25718,-4.55875 -7.69539,-3.39813 -5.15168,1.34719 -8.42065,-2.39016 -7.43003,-8.4946 0.47805,-2.94589 -0.20328,-8.08887 -1.5651,-11.81423 -1.49751,-4.09652 -2.55762,-13.125195 -2.79663,-23.818343 -0.47659,-21.321205 2.45056,-30.77552 11.87272,-38.34738 3.38135,-2.717318 7.89337,-7.705598 10.02674,-11.085065 2.13337,-3.379469 4.75063,-6.164087 5.81615,-6.188041 1.06545,-0.02398 4.70465,-2.137445 8.086969,-4.696643 3.38233,-2.559199 7.02698,-4.653088 8.09922,-4.653088 1.07229,0 5.29123,-2.55079 9.37555,-5.668419 4.08431,-3.117628 9.75162,-6.6401106 12.59401,-7.8277366 14.13049,-5.904095 51.33124,1.045867 68.70433,12.8355716 3.07304,2.085422 7.66954,3.791677 10.21447,3.791677 4.31466,0 4.62712,0.402048 4.62712,5.953773 0,6.951282 5.16576,14.940889 18.92546,29.271045 6.37688,6.641242 9.7821,11.763097 11.62273,17.481946 2.58742,8.039121 2.57479,8.173363 -2.05992,21.917664 -2.94352,8.729099 -4.37974,15.653239 -3.89445,18.775619 0.42288,2.72063 0.0161,6.24312 -0.90602,7.82774 -1.40697,2.42028 -1.68249,1.94207 -1.72248,-2.98969 -0.0335,-4.09045 -0.74298,-5.87079 -2.34085,-5.87079 -3.388,0 -5.53449,5.12111 -5.53449,13.20421 0,5.13065 -0.62729,7.1479 -2.22284,7.1479 -1.47753,0 -3.08519,-3.79151 -4.79481,-11.30809 -2.52208,-11.08881 -4.52356,-15.30621 -7.26396,-15.30621 -0.75566,0 -1.37385,1.3697 -1.37385,3.04379 0,1.67409 -1.58926,4.8914 -3.53166,7.14958 -3.26984,3.80142 -4.14811,4.02403 -11.84681,3.00275 -6.28389,-0.83357 -8.9071,-2.00646 -10.73833,-4.80126 -3.37345,-5.14855 -6.75971,-4.74442 -6.75971,0.80673 0,2.47773 -1.04507,5.37228 -2.32238,6.43235 -1.92663,1.59897 -2.59355,1.21407 -3.91386,-2.25855 -0.87532,-2.30226 -1.59149,-7.25915 -1.59149,-11.01533 0,-8.22959 3.80712,-11.9182 15.19029,-14.717461 17.92305,-4.407515 20.00773,-5.41386 20.52573,-9.908513 0.27015,-2.344174 -1.08534,-8.586149 -3.01238,-13.871061 -3.19681,-8.767436 -4.131,-9.880567 -10.66732,-12.710578 -8.43485,-3.652011 -17.23681,-3.117733 -33.97465,2.062261 -8.52423,2.638058 -13.16101,3.15048 -22.29809,2.464214 -11.16361,-0.838481 -11.66886,-0.722765 -15.65546,3.585591 -2.26577,2.448616 -7.64205,7.342873 -11.94731,10.876122 l -7.82773,6.42409 -0.051,10.016357 -0.051,10.016358 3.96503,-1.99434 c 9.39872,-4.72737 39.88793,-3.96927 44.9755,1.11829 2.2213,2.2213 2.06631,2.83117 -1.66845,6.56593 -2.26443,2.26446 -4.11717,4.78966 -4.11717,5.61158 0,2.05899 -2.1267,1.87256 -4.38353,-0.38428 -2.19705,-2.19705 -4.43348,-0.41507 -5.26439,4.19463 -0.80511,4.46682 -8.84023,7.04781 -11.33207,3.64004 -1.75509,-2.40023 -2.00457,-2.39987 -3.52149,0.005 -1.37881,2.18587 -2.27832,2.29398 -5.78658,0.69552 -2.28469,-1.0411 -4.15399,-2.9646 -4.15399,-4.27464 0,-4.39282 5.94886,-8.6428 12.133,-8.66805 3.22894,-0.0132 6.92754,-0.77083 8.21913,-1.68365 1.69187,-1.19573 -0.49619,-1.34254 -7.82775,-0.52518 -5.59683,0.62397 -13.30372,1.30857 -17.12642,1.52133 -8.479649,0.47194 -9.288739,2.06083 -10.966239,21.53515 -0.65277,7.5783 -1.9962,14.58803 -2.98535,15.5772 -1.35428,1.35426 -1.80103,1.04445 -1.80879,-1.25436 z M 201.51064,118.04029 c 0,-0.86104 -0.70446,-1.56554 -1.56554,-1.56554 -0.86104,0 -1.56556,0.70449 -1.56556,1.56554 0,0.86105 0.70446,1.56555 1.56556,1.56555 0.86103,0 1.56554,-0.7045 1.56554,-1.56555 z m 1.43509,-11.95947 c 0.35876,-0.3107 -2.24152,-0.56491 -5.77842,-0.56491 -3.53688,0 -6.87639,0.72111 -7.4211,1.60248 -0.90602,1.46596 11.42821,0.49643 13.19952,-1.03757 z"
     style="fill:#3b3b3b;stroke-width:0.74999994" />
</svg>
