<svg xmlns="http://www.w3.org/2000/svg" xmlns:xlink="http://www.w3.org/1999/xlink" height="533" width="691"><defs><marker id="h" orient="auto" overflow="visible"><path d="M-10 0l-4 4L0 0l-14-4 4 4z" fill-rule="evenodd" stroke="#000" stroke-width=".8pt"/></marker><marker orient="auto" id="k" overflow="visible"><path d="M-10 0l-4 4L0 0l-14-4 4 4z" fill-rule="evenodd" stroke="#000" stroke-width=".8pt"/></marker><marker id="j" orient="auto" overflow="visible"><path d="M-10 0l-4 4L0 0l-14-4 4 4z" fill-rule="evenodd" stroke="#000" stroke-width=".8pt"/></marker><marker orient="auto" id="i" overflow="visible"><path d="M-10 0l-4 4L0 0l-14-4 4 4z" fill-rule="evenodd" stroke="#000" stroke-width=".8pt"/></marker><marker id="g" orient="auto" overflow="visible"><path d="M-10 0l-4 4L0 0l-14-4 4 4z" fill-rule="evenodd" stroke="#000" stroke-width=".8pt"/></marker><marker orient="auto" id="f" overflow="visible"><path d="M-10 0l-4 4L0 0l-14-4 4 4z" fill-rule="evenodd" stroke="#000" stroke-width=".8pt"/></marker><marker id="e" orient="auto" overflow="visible"><path d="M-10 0l-4 4L0 0l-14-4 4 4z" fill-rule="evenodd" stroke="#000" stroke-width=".8pt"/></marker><marker orient="auto" id="c" overflow="visible"><path d="M-10 0l-4 4L0 0l-14-4 4 4z" fill-rule="evenodd" stroke="#000" stroke-width=".8pt"/></marker><path id="a" d="M0 0h800v800H0z"/><marker id="d" orient="auto" overflow="visible"><path d="M-10 0l-4 4L0 0l-14-4 4 4z" fill-rule="evenodd" stroke="#000" stroke-width=".8pt"/></marker><clipPath id="l"><path d="M0 521.57h368.5V0H0v521.57z"/></clipPath><radialGradient id="m" spreadMethod="pad" gradientTransform="matrix(30.63808 0 0 -30.63808 54.731 480.56)" gradientUnits="userSpaceOnUse" r="1" cy="0" cx="0" fy="0" fx="0"><stop offset="0" stop-color="#f9ab95"/><stop offset=".42" stop-color="#ed1c24"/><stop offset=".427" stop-color="#ed1c24"/><stop offset=".873" stop-color="#ed1c24"/><stop offset="1" stop-color="#981015"/></radialGradient><radialGradient id="n" spreadMethod="pad" gradientTransform="matrix(30.64128 0 0 -30.64128 54.736 480.564)" gradientUnits="userSpaceOnUse" r="1" cy="0" cx="0" fy="0" fx="0"><stop offset="0" stop-color="#f9ab95"/><stop offset=".42" stop-color="#ed1c24"/><stop offset=".427" stop-color="#ed1c24"/><stop offset=".873" stop-color="#ed1c24"/><stop offset="1" stop-color="#981015"/></radialGradient><radialGradient id="o" spreadMethod="pad" gradientTransform="matrix(30.63312 0 0 -30.63312 54.732 480.558)" gradientUnits="userSpaceOnUse" r="1" cy="0" cx="0" fy="0" fx="0"><stop offset="0" stop-color="#f9ab95"/><stop offset=".42" stop-color="#ed1c24"/><stop offset=".427" stop-color="#ed1c24"/><stop offset=".873" stop-color="#ed1c24"/><stop offset="1" stop-color="#981015"/></radialGradient><radialGradient id="p" spreadMethod="pad" gradientTransform="matrix(30.63336 0 0 -30.63335 54.73 480.557)" gradientUnits="userSpaceOnUse" r="1" cy="0" cx="0" fy="0" fx="0"><stop offset="0" stop-color="#f9ab95"/><stop offset=".42" stop-color="#ed1c24"/><stop offset=".427" stop-color="#ed1c24"/><stop offset=".873" stop-color="#ed1c24"/><stop offset="1" stop-color="#981015"/></radialGradient><radialGradient id="q" spreadMethod="pad" gradientTransform="matrix(30.66843 0 0 -30.66843 54.738 480.556)" gradientUnits="userSpaceOnUse" r="1" cy="0" cx="0" fy="0" fx="0"><stop offset="0" stop-color="#f9ab95"/><stop offset=".42" stop-color="#ed1c24"/><stop offset=".427" stop-color="#ed1c24"/><stop offset=".873" stop-color="#ed1c24"/><stop offset="1" stop-color="#981015"/></radialGradient><radialGradient id="r" spreadMethod="pad" gradientTransform="matrix(30.66283 0 0 -30.66283 54.738 480.553)" gradientUnits="userSpaceOnUse" r="1" cy="0" cx="0" fy="0" fx="0"><stop offset="0" stop-color="#f9ab95"/><stop offset=".42" stop-color="#ed1c24"/><stop offset=".427" stop-color="#ed1c24"/><stop offset=".873" stop-color="#ed1c24"/><stop offset="1" stop-color="#981015"/></radialGradient><radialGradient id="s" spreadMethod="pad" gradientTransform="matrix(30.66695 0 0 -30.66695 54.74 480.558)" gradientUnits="userSpaceOnUse" r="1" cy="0" cx="0" fy="0" fx="0"><stop offset="0" stop-color="#f9ab95"/><stop offset=".42" stop-color="#ed1c24"/><stop offset=".427" stop-color="#ed1c24"/><stop offset=".873" stop-color="#ed1c24"/><stop offset="1" stop-color="#981015"/></radialGradient><radialGradient id="t" spreadMethod="pad" gradientTransform="matrix(30.6689 0 0 -30.6689 54.74 480.557)" gradientUnits="userSpaceOnUse" r="1" cy="0" cx="0" fy="0" fx="0"><stop offset="0" stop-color="#f9ab95"/><stop offset=".42" stop-color="#ed1c24"/><stop offset=".427" stop-color="#ed1c24"/><stop offset=".873" stop-color="#ed1c24"/><stop offset="1" stop-color="#981015"/></radialGradient></defs><clipPath id="b"><use overflow="visible" xlink:href="#a" width="100%" height="100%"/></clipPath><path fill="#f57921" d="M194.6 262.944h25v25h-25z"/><path transform="translate(194.6 262.944) scale(.03125)" clip-path="url(#b)" d="M541.82 603.47V311.85c0-66.258-53.699-119.98-119.95-119.98H84.68c-2.6 0-4.705 2.094-4.705 4.667v406.93c0 2.573 2.105 4.658 4.705 4.658h90.067c2.6 0 4.705-2.096 4.705-4.687v-319.39a4.7 4.7 0 0 1 4.706-4.695h193.68c36.367 0 65.865 29.479 65.865 65.855v258.22a4.69 4.69 0 0 0 4.688 4.687h88.744c2.58 0 4.69-2.09 4.69-4.66" fill="#faf9f5"/><path transform="translate(194.6 262.944) scale(.03125)" clip-path="url(#b)" d="M359.94 603.44a4.676 4.676 0 0 1-4.687 4.687h-90.046c-2.601 0-4.706-2.095-4.706-4.687V358.69a4.7 4.7 0 0 1 4.706-4.695h90.046a4.684 4.684 0 0 1 4.687 4.695v244.76zm360.08 0c0 2.592-2.105 4.687-4.707 4.687h-90.026c-2.603 0-4.727-2.095-4.727-4.687V196.58c0-2.602 2.124-4.705 4.727-4.705h90.026a4.702 4.702 0 0 1 4.707 4.705v406.86z" fill="#faf9f5"/><path fill="#ff8080" stroke="#000" stroke-linecap="round" stroke-dasharray="2,2" d="M400.5 154.5h110v30h-110z"/><path fill="#ccc" stroke="#000" stroke-linecap="round" stroke-dasharray="2,2" d="M20.5 22.5h110v30h-110z"/><text style="line-height:125%;-inkscape-font-specification:'Latin Modern Sans, Normal';text-align:start" x="51.591" y="41.995" font-weight="400" font-size="22.5" font-family="Latin Modern Sans" letter-spacing="0" word-spacing="0"><tspan x="51.591" y="41.995">train</tspan></text><text y="72.054" x="31.304" style="line-height:125%;-inkscape-font-specification:'Latin Modern Sans, Normal';text-align:start" font-weight="400" font-size="22.5" font-family="Latin Modern Sans" letter-spacing="0" word-spacing="0"><tspan y="72.054" x="31.304">device_id</tspan><tspan y="100.179" x="31.304">gender</tspan><tspan y="128.304" x="31.304">age</tspan><tspan y="156.429" x="31.304">group</tspan></text><path fill="none" stroke="#000" stroke-linecap="round" d="M20.5 22.5h110v150.714h-110z"/><path fill="#ccc" stroke="#000" stroke-linecap="round" stroke-dasharray="2,2" d="M400.5 42.5h110v30h-110z"/><text y="61.995" x="439.591" style="line-height:125%;-inkscape-font-specification:'Latin Modern Sans, Normal';text-align:start" font-weight="400" font-size="22.5" font-family="Latin Modern Sans" letter-spacing="0" word-spacing="0"><tspan y="61.995" x="439.591">test</tspan></text><text style="line-height:125%;-inkscape-font-specification:'Latin Modern Sans, Normal';text-align:start" x="411.304" y="92.054" font-weight="400" font-size="22.5" font-family="Latin Modern Sans" letter-spacing="0" word-spacing="0"><tspan x="411.304" y="92.054">device_id</tspan><tspan x="411.304" y="120.179">??</tspan><tspan x="411.304" y="148.304">??</tspan><tspan x="411.304" y="176.429">??(group)</tspan></text><path fill="none" stroke="#000" stroke-linecap="round" d="M400.5 42.5h110v142h-110z"/><path fill="#ccc" stroke="#000" stroke-linecap="round" stroke-dasharray="2,2" d="M40.5 202.5h150v30h-150z"/><text y="221.995" x="89.591" style="line-height:125%;-inkscape-font-specification:'Latin Modern Sans, Normal';text-align:start" font-weight="400" font-size="22.5" font-family="Latin Modern Sans" letter-spacing="0" word-spacing="0"><tspan y="221.995" x="89.591">phone</tspan></text><text style="line-height:125%;-inkscape-font-specification:'Latin Modern Sans, Normal';text-align:start" x="51.304" y="252.054" font-weight="400" font-size="22.5" font-family="Latin Modern Sans" letter-spacing="0" word-spacing="0"><tspan x="51.304" y="252.054">device_id</tspan><tspan x="51.304" y="280.179">phone_brand</tspan><tspan x="51.304" y="308.304">device_model</tspan></text><path fill="none" stroke="#000" stroke-linecap="round" d="M40.5 202.5h150v120h-150z"/><path fill="#ccc" stroke="#000" stroke-linecap="round" stroke-dasharray="2,2" d="M40.5 352.5h120v30h-120z"/><text style="line-height:125%;-inkscape-font-specification:'Latin Modern Sans, Normal';text-align:start" x="69.591" y="371.995" font-weight="400" font-size="22.5" font-family="Latin Modern Sans" letter-spacing="0" word-spacing="0"><tspan x="69.591" y="371.995">events</tspan></text><text y="402.054" x="51.304" style="line-height:125%;-inkscape-font-specification:'Latin Modern Sans, Normal';text-align:start" font-weight="400" font-size="22.5" font-family="Latin Modern Sans" letter-spacing="0" word-spacing="0"><tspan y="402.054" x="51.304">device_id</tspan><tspan y="430.179" x="51.304">event_id</tspan><tspan y="458.304" x="51.304">time</tspan><tspan y="486.429" x="51.304">longitude</tspan><tspan y="514.554" x="51.304">latitude</tspan></text><path fill="none" stroke="#000" stroke-linecap="round" d="M40.5 352.5h120v170h-120z"/><path fill="#ccc" stroke="#000" stroke-linecap="round" stroke-dasharray="2,2" d="M190.5 382.5h140v30h-140z"/><text y="401.995" x="205.591" style="line-height:125%;-inkscape-font-specification:'Latin Modern Sans, Normal';text-align:start" font-weight="400" font-size="22.5" font-family="Latin Modern Sans" letter-spacing="0" word-spacing="0"><tspan y="401.995" x="205.591">apps_events</tspan></text><text style="line-height:125%;-inkscape-font-specification:'Latin Modern Sans, Normal';text-align:start" x="201.304" y="432.054" font-weight="400" font-size="22.5" font-family="Latin Modern Sans" letter-spacing="0" word-spacing="0"><tspan x="201.304" y="432.054">event_id</tspan><tspan x="201.304" y="460.179">app_id</tspan><tspan x="201.304" y="488.304">is_installed</tspan><tspan x="201.304" y="516.429">is_active</tspan></text><path fill="none" stroke="#000" stroke-linecap="round" d="M190.5 382.5h140v150h-140z"/><path fill="#ccc" stroke="#000" stroke-linecap="round" stroke-dasharray="2,2" d="M360.5 412.5h140v30h-140z"/><text style="line-height:125%;-inkscape-font-specification:'Latin Modern Sans, Normal';text-align:start" x="375.591" y="431.995" font-weight="400" font-size="22.5" font-family="Latin Modern Sans" letter-spacing="0" word-spacing="0"><tspan x="375.591" y="431.995">apps_label</tspan></text><text y="462.054" x="371.304" style="line-height:125%;-inkscape-font-specification:'Latin Modern Sans, Normal';text-align:start" font-weight="400" font-size="22.5" font-family="Latin Modern Sans" letter-spacing="0" word-spacing="0"><tspan y="462.054" x="371.304">app_id</tspan><tspan y="490.179" x="371.304">label_id</tspan></text><path fill="none" stroke="#000" stroke-linecap="round" d="M360.5 412.5h140v90h-140z"/><path fill="#ccc" stroke="#000" stroke-linecap="round" stroke-dasharray="2,2" d="M530.5 442.5h160v30h-160z"/><text y="461.995" x="537.591" style="line-height:125%;-inkscape-font-specification:'Latin Modern Sans, Normal';text-align:start" font-weight="400" font-size="22.5" font-family="Latin Modern Sans" letter-spacing="0" word-spacing="0"><tspan y="461.995" x="537.591">label_categories</tspan></text><text style="line-height:125%;-inkscape-font-specification:'Latin Modern Sans, Normal';text-align:start" x="541.304" y="492.053" font-weight="400" font-size="22.5" font-family="Latin Modern Sans" letter-spacing="0" word-spacing="0"><tspan x="541.304" y="492.053">label_id</tspan><tspan x="541.304" y="520.178">category</tspan></text><path fill="none" stroke="#000" stroke-linecap="round" d="M530.5 442.5h160v90h-160z"/><path d="M30.5 62.5H.5v180h50" fill="none" stroke="#000" marker-end="url(#c)"/><path d="M30.5 62.5H.5v330h50" fill="none" stroke="#000" marker-end="url(#d)"/><path d="M150.5 422.5h40" fill="none" stroke="#000" marker-end="url(#e)"/><path d="M320.5 452.5h50" fill="none" stroke="#000" marker-end="url(#f)"/><path d="M490.5 482.5h40" fill="none" stroke="#000" marker-end="url(#g)"/><path fill="#afdde9" stroke="#000" stroke-linecap="round" d="M210.5 97.5h110v30h-110z"/><text style="line-height:125%;-inkscape-font-specification:'Latin Modern Sans, Normal';text-align:start" x="237.591" y="118.995" font-weight="400" font-size="22.5" font-family="Latin Modern Sans" letter-spacing="0" word-spacing="0"><tspan x="237.591" y="118.995">model</tspan></text><path d="M130.5 110.5h80" fill="none" stroke="#000" marker-end="url(#h)"/><path d="M320.5 112.5l80 60" fill="none" stroke="#000" marker-end="url(#i)"/><path fill="#ff8080" stroke="#000" stroke-linecap="round" stroke-dasharray="2,2" d="M560.5.5h110v30h-110z"/><text y="19.995" x="591.591" style="line-height:125%;-inkscape-font-specification:'Latin Modern Sans, Normal';text-align:start" font-weight="400" font-size="22.5" font-family="Latin Modern Sans" letter-spacing="0" word-spacing="0"><tspan y="19.995" x="591.591">group</tspan></text><text style="line-height:125%;-inkscape-font-specification:'Latin Modern Sans, Normal';text-align:start" x="571.304" y="52.054" font-weight="400" font-size="22.5" font-family="Latin Modern Sans" letter-spacing="0" word-spacing="0"><tspan x="571.304" y="52.054">F 23-</tspan><tspan x="571.304" y="80.179">F 24-26</tspan><tspan x="571.304" y="108.304">F 27-28</tspan><tspan x="571.304" y="136.429">F 29-32</tspan><tspan x="571.304" y="164.554">F 33-42</tspan><tspan x="571.304" y="192.679">F 43+</tspan><tspan x="571.304" y="220.804">M 22-</tspan><tspan x="571.304" y="248.929">M 23-26</tspan><tspan x="571.304" y="277.054">M 27-28</tspan><tspan x="571.304" y="305.179">M 29-31</tspan><tspan x="571.304" y="333.304">M 32-38</tspan><tspan x="571.304" y="361.428">M 39+</tspan></text><path fill="none" stroke="#000" stroke-linecap="round" d="M560.5.5h110v370h-110z"/><ellipse cx="578.263" cy="44.495" rx="7.5" ry="11.995" stroke="#000" stroke-linecap="round" fill="none"/><ellipse cy="44.495" cx="603.286" ry="11.995" rx="15.786" stroke="#000" stroke-linecap="round" fill="none"/><path d="M572.107 36.786c-97.199 91.417-107.399 72.538-131.86 73.543" fill="none" stroke="#000" marker-end="url(#j)"/><path d="M591.75 53.036c-115.175 98.647-124.11 87.03-151.755 86.283" fill="none" stroke="#000" marker-end="url(#k)"/><path d="M410.735 284.075c-3.985.026-7.759.058-8.811-.036-2.129-.185-3.551-1.577-3.717-3.626-.111-1.345-.111-2.46-.005-3.52.192-1.995 1.862-3.895 3.722-3.986.666-.036 2.449-.032 5.678-.018l9.396.018v-3.898s-7.485-.008-9.735-.018c-3.02-.014-4.54-.016-5.502.018-2.12.082-3.894.836-5.272 2.236-1.307 1.323-2.087 3.428-2.203 5.559-.065 1.15-.087 2.652 0 3.545.217 2.292.96 4.09 2.203 5.35 1.329 1.352 3.352 2.21 5.274 2.236 1.577.02 15.235 0 15.235 0v-3.896s-4.148.016-6.263.036m-42.417-14.857v3.894h9.271v14.755h3.913v-14.755h9.271v-3.894h-22.455zm-4.064 7.363c-.028-2.097-.768-3.895-2.202-5.35-1.496-1.521-3.778-2.154-5.272-2.234-1.3-.073-6.418-.05-7.62 0-1.693.072-2.926.577-3.545 1.039-.006.004-.012.002-.012-.008v-7.084h-3.915v24.99h3.91s-.079-10.229.009-11.343c.155-1.98 1.657-3.535 3.573-3.702 1.536-.132 6.145-.096 7.592.002 1.985.137 3.451 1.689 3.567 3.78.038.77-.002 11.264-.002 11.264h3.917s.01-10.455 0-11.354" fill="#8cc751"/><path d="M335.675 268.896c1.026 5.878-14.976 13.576-35.745 17.193-20.767 3.617-38.433 1.782-39.457-4.099-1.024-5.879 14.983-13.574 35.75-17.19 20.766-3.62 38.43-1.784 39.452 4.096z" fill="#034ea2"/><path d="M313.32 279.213h-1.914v-7.703h2.891l1.79 6.112h.042l-.107-6.112h1.928v7.703h-2.771l-1.923-6.322h-.042zm-32.18-6.982h-.045l-1.066 7.063h-2.102l1.444-7.784h3.462l1.437 7.784h-2.094zm10 7.063h-1.975l-1.302-6.999h-.042l-.049 7h-1.95l.173-7.785h3.176l.961 5.95h.042l.962-5.95h3.174l.17 7.784h-1.946l-.052-6.999h-.04zm-16.491-2.196c.076.189.053.431.017.578-.065.258-.24.522-.758.522-.488 0-.784-.28-.784-.707v-.754h-2.088l-.002.604c0 1.735 1.367 2.259 2.83 2.259 1.409 0 2.568-.482 2.753-1.779.094-.672.024-1.112-.008-1.279-.329-1.63-3.283-2.116-3.504-3.027a1.033 1.033 0 0 1-.008-.41c.054-.249.224-.522.712-.522.455 0 .723.28.723.706v.48h1.942v-.546c0-1.696-1.522-1.96-2.625-1.96-1.385 0-2.516.457-2.723 1.724a2.73 2.73 0 0 0 .017 1.052c.34 1.59 3.106 2.052 3.506 3.06zm25.314-.014c.077.187.052.423.017.57-.064.257-.237.517-.752.517-.481 0-.775-.28-.775-.697l-.002-.747h-2.066l-.002.594c0 1.719 1.354 2.237 2.803 2.237 1.393 0 2.542-.475 2.723-1.76.094-.668.027-1.102-.007-1.265-.326-1.615-3.251-2.096-3.469-2.998a.978.978 0 0 1-.007-.403c.055-.25.222-.517.704-.517.451 0 .714.274.714.696v.476h1.927v-.541c0-1.678-1.51-1.94-2.602-1.94-1.369 0-2.491.451-2.694 1.71a2.68 2.68 0 0 0 .018 1.039c.335 1.574 3.073 2.031 3.47 3.03zm6.539 1.046c.54 0 .708-.374.746-.565.015-.085.02-.197.018-.298v-5.76h1.969v5.584c.004.143-.01.437-.017.51-.138 1.454-1.287 1.926-2.717 1.926-1.432 0-2.582-.472-2.718-1.925a6.644 6.644 0 0 1-.017-.511v-5.585h1.967v5.76c0 .102.003.215.018.299.042.19.206.565.75.565zm16.238-.082c.565 0 .762-.357.798-.564.014-.09.019-.198.018-.297v-1.13h-.8v-1.136h2.76v2.09a5.616 5.616 0 0 1-.027.512c-.13 1.416-1.358 1.922-2.738 1.922-1.382 0-2.61-.506-2.74-1.922a6.299 6.299 0 0 1-.029-.513l.002-3.278c0-.138.017-.383.032-.513.173-1.455 1.353-1.923 2.735-1.923 1.38 0 2.589.466 2.732 1.923.026.249.017.513.017.513v.26h-1.963v-.436a1.74 1.74 0 0 0-.025-.296c-.033-.172-.183-.567-.776-.567-.568 0-.734.373-.775.567a1.747 1.747 0 0 0-.033.367v3.56a1.64 1.64 0 0 0 .02.297c.034.208.23.564.793.564z" fill="#fff"/><path d="M228.46 285.51h2.038v-1.628h.915v4.018h-.915v-1.678h-2.038v1.678h-.917v-4.018h.917v1.628z" fill="#231f20"/><g clip-path="url(#l)" transform="matrix(.58797 0 0 -.58797 211.098 547.807)"><path d="M37.376 444.78c0-1.208.38-1.714 1.67-1.714 1.285 0 1.658.506 1.658 1.714v4.095h1.559v-4.131c0-.872-.106-1.473-.438-1.84-.606-.663-1.495-.937-2.78-.937-1.288 0-2.183.274-2.794.938-.338.37-.422.972-.422 1.839v4.13h1.547v-4.094zm8.001.102h2.207l-1.123 2.63-1.084-2.63zm1.97 3.992l3.153-6.834h-1.73l-.682 1.626H44.87l-.654-1.626h-1.652l3.13 6.834h1.653zm3.859.001l1.71-5.254 1.444 5.254h1.838l1.654-5.254 1.598 5.254h1.6l-2.287-6.834h-1.907l-1.578 5.098-1.38-5.098h-1.9l-2.464 6.834h1.672zm11.939-2.779h4.303v-1.188h-4.313c.01-1.233.533-1.68 1.764-1.68h2.549v-1.188h-2.623c-.893 0-1.588.065-2.309.6-.766.558-1.133 1.457-1.133 2.692 0 2.416 1.1 3.542 3.487 3.542h2.578v-1.194h-2.549c-1.129 0-1.693-.513-1.754-1.584m5.68 2.779h1.625v-6.834h-1.625v6.834z" fill="#231f20"/></g><path d="M31.014 471.791c.14-2.671 2.151-4.255 2.151-4.255 3.24-3.157 11.084-7.141 12.904-8.049.024-.002.119-.036.174.035 0 0 .075.059.037.155-4.991 10.904-11.816 19.172-11.816 19.172s-3.715-3.527-3.45-7.058" fill="url(#m)" transform="matrix(.58797 0 0 -.58797 211.098 547.807)"/><path d="M31.809 456.488c1.415-2.523 3.801-4.486 6.285-3.883 1.717.429 5.596 3.137 6.875 4.054l-.004.001c.1.087.071.161.071.161-.038.117-.172.117-.172.117v.005l-13.055-.455z" fill="url(#n)" transform="matrix(.58797 0 0 -.58797 211.098 547.807)"/><path d="M28.685 462.349c1.416-2.994 4.121-3.902 4.121-3.902 1.247-.513 2.496-.546 2.496-.546.195-.035 7.765-.004 9.792.004.088 0 .135.088.135.088.063.102-.047.198-.047.198v.001c-5.734 3.866-16.849 9.805-16.849 9.805-1.011-3.127.352-5.648.352-5.648" fill="url(#o)" transform="matrix(.58797 0 0 -.58797 211.098 547.807)"/><path d="M43.993 484.086c-3.457-.894-4.274-4.03-4.274-4.03-.63-1.974.018-4.14.018-4.14 1.15-5.121 6.83-13.531 8.052-15.298.088-.087.153-.054.153-.054a.163.163 0 0 1 .125.161c1.875 18.782-1.974 23.761-1.974 23.761-.567-.053-2.1-.4-2.1-.4" fill="url(#p)" transform="matrix(.58797 0 0 -.58797 211.098 547.807)"/><path d="M50.313 460.713h.006c.01-.121.1-.146.1-.146.124-.048.187.073.187.073v-.003c1.256 1.809 6.897 10.181 8.052 15.279 0 0 .616 2.47.015 4.14 0 0-.85 3.185-4.313 4.025 0 0-.998.257-2.055.405 0 0-3.869-4.982-1.992-23.773" fill="url(#q)" transform="matrix(.58797 0 0 -.58797 211.098 547.807)"/><path d="M53.509 456.931s-.116-.016-.147-.102c0 0-.03-.114.052-.172v-.002c1.245-.898 5.032-3.546 6.86-4.061 0 0 3.375-1.15 6.304 3.884l-13.069.457v-.004z" fill="url(#r)" transform="matrix(.58797 0 0 -.58797 211.098 547.807)"/><path d="M53.219 458.198v-.001s-.097-.066-.064-.19c0 0 .055-.097.132-.097v-.005c2.053 0 9.831-.008 10.03.026 0 0 1.004.039 2.246.516 0 0 2.766.882 4.2 4.023 0 0 1.282 2.563.292 5.555 0 0-11.1-5.953-16.836-9.827" fill="url(#s)" transform="matrix(.58797 0 0 -.58797 211.098 547.807)"/><path d="M52.133 459.731h.006s-.064-.127.033-.209c0 0 .09-.068.176-.015 1.872.93 9.652 4.887 12.875 8.029 0 0 2.041 1.639 2.15 4.27.235 3.658-3.441 7.043-3.441 7.043s-6.813-8.244-11.799-19.118" fill="url(#t)" transform="matrix(.58797 0 0 -.58797 211.098 547.807)"/></svg>