<svg xmlns="http://www.w3.org/2000/svg" width="769.661" height="902.133" viewBox="0 0 721.557 845.749"><defs><marker id="b" orient="auto" overflow="visible"><path d="M-10 0l-4 4L0 0l-14-4 4 4z" fill-rule="evenodd" stroke="#000" stroke-width=".8pt"/></marker><marker orient="auto" id="a" overflow="visible"><path d="M-10 0l-4 4L0 0l-14-4 4 4z" fill-rule="evenodd" stroke="#000" stroke-width=".8pt"/></marker></defs><path fill="none" stroke="#000" stroke-linecap="round" d="M119.032 47.16h500v348.571h-500z"/><text style="line-height:125%;-inkscape-font-specification:'Latin Modern Sans, Normal';text-align:start" x="193.427" y="444.451" font-weight="400" font-size="37.5" font-family="Latin Modern Sans" letter-spacing="0" word-spacing="0" transform="translate(124.746 -216.63)"><tspan x="193.427" y="444.451">Xtrain</tspan></text><path fill="none" stroke="#000" stroke-linecap="round" d="M650.372 48.17h70.685v348.571h-70.685z"/><text y="440.587" x="-125.556" style="line-height:125%;-inkscape-font-specification:'Latin Modern Sans, Normal';text-align:start" font-weight="400" font-size="22.5" font-family="Latin Modern Sans" letter-spacing="0" word-spacing="0" transform="translate(124.746 -216.63)"><tspan y="440.587" x="-125.556">device_id</tspan></text><path d="M-21.213 290.907v290.924" fill="none" stroke="#000" marker-end="url(#a)" transform="translate(124.746 -216.63)"/><path d="M12.222 248.38h290.924" fill="none" stroke="#000" marker-end="url(#b)" transform="translate(124.746 -216.63)"/><text y="233.506" x="17.885" style="line-height:125%;-inkscape-font-specification:'Latin Modern Sans, Normal';text-align:start" font-weight="400" font-size="22.5" font-family="Latin Modern Sans" letter-spacing="0" word-spacing="0" transform="translate(124.746 -216.63)"><tspan y="233.506" x="17.885">Classes (modèle téléphone, applications, marque)</tspan></text><text y="438.567" x="532.053" style="line-height:125%;-inkscape-font-specification:'Latin Modern Sans, Normal';text-align:start" font-weight="400" font-size="22.5" font-family="Latin Modern Sans" letter-spacing="0" word-spacing="0" transform="translate(124.746 -216.63)"><tspan y="438.567" x="532.053">Ylabel</tspan></text><path fill="#666" d="M119.39 46.803h15v15h-15zm39.395 58.588h15v15h-15zm52.528-32.324h15v15h-15zm0 110.106h15v15h-15zm-40.406 66.67h15v15h-15zm73.741 32.325h15v15h-15zm50.507-115.157h15v15h-15zm5.051 169.705h15v15h-15z"/><path fill="#666" d="M295.155 167.011h15v15h-15z"/><path fill="#666" d="M295.155 167.011h15v15h-15z"/><path fill="#666" d="M295.155 167.011h15v15h-15zm108.087-89.904h15v15h-15zm97.985 70.711h15v15h-15zM346.673 86.2h15v15h-15zm72.731 124.247h15v15h-15zm-15.152 82.833h15v15h-15zm77.782 48.487h15v15h-15zm4.04-76.771h15v15h-15zm25.254-65.66h15v15h-15zm35.355 81.822h15v15h-15zm16.163-108.086h15v15h-15zm-25.254-94.955h15v15h-15zm43.438 31.315h15v15h-15zm-3.032 242.438h15v15h-15z"/><path fill="none" stroke="#000" stroke-linecap="round" d="M119.032 495.668h500V844.24h-500z"/><text y="892.88" x="193.327" style="line-height:125%;-inkscape-font-specification:'Latin Modern Sans, Normal';text-align:start" font-weight="400" font-size="45.738" font-family="Latin Modern Sans" letter-spacing="0" word-spacing="0" transform="translate(124.746 -216.63)"><tspan y="892.88" x="193.327" font-size="37.5">Xtest</tspan></text><path fill="none" stroke="#000" stroke-linecap="round" d="M650.372 496.678h70.685V845.25h-70.685z"/><path d="M-21.213 739.415v290.924" fill="none" stroke="#000" marker-end="url(#a)" transform="translate(124.746 -216.63)"/><path d="M12.222 696.889h290.924" fill="none" stroke="#000" marker-end="url(#b)" transform="translate(124.746 -216.63)"/><text style="line-height:125%;-inkscape-font-specification:'Latin Modern Sans, Normal';text-align:start" x="17.885" y="682.013" font-weight="400" font-size="22.5" font-family="Latin Modern Sans" letter-spacing="0" word-spacing="0" transform="translate(124.746 -216.63)"><tspan x="17.885" y="682.013">Classes (modèle téléphone, applications, marque)</tspan></text><text style="line-height:125%;-inkscape-font-specification:'Latin Modern Sans, Normal';text-align:start" x="544.053" y="887.074" font-weight="400" font-size="22.5" font-family="Latin Modern Sans" letter-spacing="0" word-spacing="0" transform="translate(124.746 -216.63)"><tspan x="544.053" y="887.074">???</tspan></text><path fill="#666" d="M119.39 495.31h15v15h-15zm39.395 58.59h15v15h-15zm52.528-32.326h15v15h-15zm0 110.107h15v15h-15zm-40.406 66.67h15v15h-15zm73.741 32.325h15v15h-15zm50.507-115.156h15v15h-15zm5.051 169.704h15v15h-15z"/><path fill="#666" d="M295.155 615.52h15v15h-15z"/><path fill="#666" d="M295.155 615.52h15v15h-15z"/><path fill="#666" d="M295.155 615.52h15v15h-15zm108.087-89.905h15v15h-15zm97.985 70.711h15v15h-15zm-154.554-61.62h15v15h-15zm94.955 162.635h15v15h-15zm-37.376 44.447h15v15h-15zm77.782 48.487h15v15h-15zm4.04-76.772h15v15h-15zm25.254-65.66h15v15h-15zm35.355 81.823h15v15h-15zm16.163-108.086h15v15h-15zm-25.254-94.955h15v15h-15zm43.438 31.315h15v15h-15zm-3.032 242.436h15v15h-15z"/><text style="line-height:125%;-inkscape-font-specification:'Latin Modern Sans, Normal';text-align:start" x="-121.516" y="887.074" font-weight="400" font-size="22.5" font-family="Latin Modern Sans" letter-spacing="0" word-spacing="0" transform="translate(124.746 -216.63)"><tspan x="-121.516" y="887.074">device_id</tspan></text></svg>