<?xml version="1.0" encoding="UTF-8" standalone="no"?>
<!-- Created with Inkscape (http://www.inkscape.org/) -->

<svg
   xmlns:dc="http://purl.org/dc/elements/1.1/"
   xmlns:cc="http://creativecommons.org/ns#"
   xmlns:rdf="http://www.w3.org/1999/02/22-rdf-syntax-ns#"
   xmlns:svg="http://www.w3.org/2000/svg"
   xmlns="http://www.w3.org/2000/svg"
   xmlns:sodipodi="http://sodipodi.sourceforge.net/DTD/sodipodi-0.dtd"
   xmlns:inkscape="http://www.inkscape.org/namespaces/inkscape"
   version="1.1"
   id="svg2"
   width="151.67638"
   height="142.02974"
   viewBox="0 0 151.67638 142.02974"
   sodipodi:docname="iaflash.svg"
   inkscape:version="0.92.3 (2405546, 2018-03-11)">
  <metadata
     id="metadata8">
    <rdf:RDF>
      <cc:Work
         rdf:about="">
        <dc:format>image/svg+xml</dc:format>
        <dc:type
           rdf:resource="http://purl.org/dc/dcmitype/StillImage" />
        <dc:title></dc:title>
      </cc:Work>
    </rdf:RDF>
  </metadata>
  <defs
     id="defs6" />
  <sodipodi:namedview
     pagecolor="#ffffff"
     bordercolor="#666666"
     borderopacity="1"
     objecttolerance="10"
     gridtolerance="10"
     guidetolerance="10"
     inkscape:pageopacity="0"
     inkscape:pageshadow="2"
     inkscape:window-width="1364"
     inkscape:window-height="734"
     id="namedview4"
     showgrid="false"
     fit-margin-top="0"
     fit-margin-left="0"
     fit-margin-right="0"
     fit-margin-bottom="0"
     inkscape:zoom="1.668772"
     inkscape:cx="109.78865"
     inkscape:cy="72.752676"
     inkscape:window-x="0"
     inkscape:window-y="33"
     inkscape:window-maximized="0"
     inkscape:current-layer="svg2" />
  <g
     id="g817"
     transform="translate(-23.965351,-28.864513)">
    <path
       style="fill:#e82531"
       d="M 48.907284,168.67902 C 45.539651,166.90554 43.910266,165.14724 42,161.2252 L 39.5,156.09237 32,155.79618 24.5,155.5 24.232676,129.53181 23.965351,103.56361 36.21767,91.281807 48.469988,79 h 28.396332 28.39633 l 9.00976,5.15589 c 7.37127,4.218249 9.30236,4.942026 10.61868,3.979896 4.38521,-3.205256 8.70337,-4.358565 14.17705,-3.786452 l 5.57408,0.582606 4.85851,-4.932681 4.85851,-4.93268 -11.91754,-0.28329 c -15.37345,-0.365439 -15.64433,-1.017522 -4.90865,-11.816538 7.62612,-7.671104 7.71431,-7.818407 6.59819,-11.020114 -1.84547,-5.293937 -1.39143,-11.264776 1.14256,-15.024957 7.07237,-10.494693 20.58856,-10.782151 28.13425,-0.59835 3.08031,4.157238 2.95143,13.971652 -0.24226,18.449309 -4.29842,6.026514 -12.9907,8.765228 -19.71062,6.210316 -2.36671,-0.899823 -3.15221,-0.5899 -6.8151,2.688941 -2.27704,2.038293 -4.28522,4.0564 -4.46262,4.484683 -0.1774,0.428282 4.9976,0.905758 11.5,1.061058 11.20318,0.26757 11.83849,0.394121 12.1268,2.415612 0.22648,1.587971 -1.86697,4.120374 -8.19006,9.907332 l -8.49431,7.774084 2.00965,3.939237 c 1.32939,2.605826 1.9166,5.452338 1.73476,8.409318 l -0.27489,4.47009 8.9553,5.25516 8.9553,5.25516 0.27221,19.35544 c 0.20837,14.81557 -0.0262,19.54482 -1,20.16287 -0.69971,0.44409 -4.73865,0.81433 -8.97542,0.82275 l -7.7032,0.0153 -1.92074,4.34215 c -2.62575,5.93593 -7.1407,8.959 -14.10745,9.44589 -4.59442,0.3211 -6.15999,-0.019 -8.97345,-1.94954 -11.666,-8.00485 -10.99011,-23.11087 1.32162,-29.53804 6.95502,-3.63077 18.60249,0.49567 21.56121,7.63866 1.22694,2.96209 1.47374,3.06088 7.64654,3.06088 H 165 v -14.40496 -14.40496 l -7.90104,-4.63206 -7.90103,-4.63206 -3.73851,2.53702 c -5.021,3.40734 -12.70114,3.52261 -17.53774,0.26322 C 122.53622,111.09694 120,106.52534 120,100.44716 V 95.190078 L 112.16211,90.595039 104.32422,86 H 77.352007 50.379794 L 40.169647,96.375608 29.959501,106.75122 30.22975,128.12561 30.5,149.5 l 4.697103,0.30263 c 4.317522,0.27818 4.819694,0.0656 6.214083,-2.63088 3.481884,-6.73322 11.811105,-10.84199 18.762319,-9.25536 C 68.335814,139.77945 73,145.90195 73,154.75325 c 0,6.3323 -2.969024,10.96517 -8.969961,13.99675 -5.664627,2.86168 -9.588931,2.84326 -15.122755,-0.071 z m 94.603676,-7.87442 c 3.45627,-4.10754 3.31604,-8.84747 -0.38426,-12.98882 -2.1982,-2.46022 -3.69493,-3.21578 -6.37028,-3.21578 -12.0332,0 -14.66422,16.19065 -3.13221,19.27479 4.22163,1.12904 7.10738,0.23291 9.88675,-3.07019 z m -82.106205,2.05684 c 3.30738,-1.50694 5.92227,-7.09602 5.090887,-10.88128 C 65.703695,148.37445 60.703314,144 57.373615,144 c -3.261509,0 -8.055341,2.53678 -9.343971,4.94461 -2.039039,3.80998 -1.22724,9.01164 1.893433,12.13231 3.166628,3.16663 7.104877,3.77873 11.481678,1.78452 z m 78.380035,-52.93626 c 6.42632,-2.24023 8.27574,-10.322927 3.62632,-15.848455 -5.00273,-5.945399 -15.05738,-3.318602 -17.00534,4.442675 -0.97454,3.88289 1.89513,9.27302 5.85279,10.99333 3.9863,1.73276 3.7724,1.72104 7.52623,0.41245 z m 26.52812,-57.729899 c 5.33739,-5.571037 2.64895,-14.911829 -4.83231,-16.789506 -6.81102,-1.709456 -13.84717,6.207292 -11.51341,12.954353 2.42068,6.998372 11.31568,9.085382 16.34572,3.835153 z"
       id="path821"
       inkscape:connector-curvature="0" />
    <path
       style="fill:#22469a"
       d="M 48.907284,168.67902 C 45.539651,166.90554 43.910266,165.14724 42,161.2252 L 39.5,156.09237 32,155.79618 24.5,155.5 24.232676,129.53181 23.965351,103.56361 36.21767,91.281807 48.469988,79 76.984994,79.03006 105.5,79.06012 l 9.14663,5.251058 c 8.436,4.843079 9.04093,5.395622 7.78607,7.111749 -0.74832,1.023381 -1.51962,2.337826 -1.71401,2.92099 -0.19438,0.583164 -3.96266,-1.055651 -8.37395,-3.64181 L 104.32422,86 H 77.352007 50.379794 L 40.169647,96.375608 29.959501,106.75122 30.22975,128.12561 30.5,149.5 l 4.697103,0.30263 c 4.317522,0.27818 4.819694,0.0656 6.214083,-2.63088 3.481884,-6.73322 11.811105,-10.84199 18.762319,-9.25536 C 68.335814,139.77945 73,145.90195 73,154.75325 c 0,6.3323 -2.969024,10.96517 -8.969961,13.99675 -5.664627,2.86168 -9.588931,2.84326 -15.122755,-0.071 z m 12.497471,-5.81758 c 3.30738,-1.50694 5.92227,-7.09602 5.090887,-10.88128 C 65.703695,148.37445 60.703314,144 57.373615,144 c -3.261509,0 -8.055341,2.53678 -9.343971,4.94461 -2.039039,3.80998 -1.22724,9.01164 1.893433,12.13231 3.166628,3.16663 7.104877,3.77873 11.481678,1.78452 z m 66.687195,5.97706 c -11.666,-8.00485 -10.99011,-23.11087 1.32162,-29.53804 6.95502,-3.63077 18.60249,0.49567 21.56121,7.63866 1.22694,2.96209 1.47374,3.06088 7.64654,3.06088 H 165 v -14.40496 -14.40496 l -8.00029,-4.69025 -8.0003,-4.69025 1.70215,-2.88152 1.70216,-2.88151 4.54814,2.65911 c 2.50148,1.46251 6.57314,3.84561 9.04814,5.29577 l 4.5,2.63666 0.27221,19.35821 c 0.20837,14.81781 -0.0262,19.54759 -1,20.16564 -0.69971,0.44409 -4.73865,0.81433 -8.97542,0.82275 l -7.7032,0.0153 -1.92074,4.34215 c -2.62575,5.93593 -7.1407,8.959 -14.10745,9.44589 -4.59442,0.3211 -6.15999,-0.019 -8.97345,-1.94954 z m 15.41901,-8.0339 c 3.45627,-4.10754 3.31604,-8.84747 -0.38426,-12.98882 -2.1982,-2.46022 -3.69493,-3.21578 -6.37028,-3.21578 -12.0332,0 -14.66422,16.19065 -3.13221,19.27479 4.22163,1.12904 7.10738,0.23291 9.88675,-3.07019 z"
       id="path819"
       inkscape:connector-curvature="0" />
  </g>
</svg>
