<svg xmlns="http://www.w3.org/2000/svg" width="2268.398" height="883.911" viewBox="0 0 600.18 233.868"><defs><marker id="i" orient="auto" overflow="visible"><path d="M-10.69-4.437L1.328-.017-10.69 4.401c1.92-2.61 1.909-6.18 0-8.84z" fill-rule="evenodd" stroke="#000" stroke-width=".688" stroke-linejoin="round"/></marker><marker orient="auto" id="h" overflow="visible"><path d="M-10.69-4.437L1.328-.017-10.69 4.401c1.92-2.61 1.909-6.18 0-8.84z" fill-rule="evenodd" stroke="#000" stroke-width=".688" stroke-linejoin="round"/></marker><linearGradient gradientTransform="translate(-42.098 98.463) scale(.28222)" id="g" gradientUnits="userSpaceOnUse" x1="139" y1="179" x2="147" y2="100"><stop offset="0%" stop-opacity=".15"/><stop offset="30%" stop-opacity=".06"/><stop offset="100%" stop-opacity=".03"/></linearGradient><linearGradient gradientTransform="translate(-42.098 98.463) scale(.28222)" id="f" gradientUnits="userSpaceOnUse" x1="164" y1="161" x2="109" y2="217"><stop offset="0%" stop-opacity=".15"/><stop offset="30%" stop-opacity=".06"/><stop offset="100%" stop-opacity=".03"/></linearGradient><linearGradient gradientTransform="translate(-42.098 98.463) scale(.28222)" id="e" gradientUnits="userSpaceOnUse" x1="80" y1="140" x2="80" y2="60"><stop offset="0%" stop-opacity=".15"/><stop offset="30%" stop-opacity=".06"/><stop offset="100%" stop-opacity=".03"/></linearGradient><linearGradient gradientTransform="translate(-42.098 98.463) scale(.28222)" id="d" gradientUnits="userSpaceOnUse" x1="187" y1="220" x2="138" y2="102"><stop offset="0%" stop-color="#e4b022"/><stop offset="30%" stop-color="#fcd209"/></linearGradient><linearGradient gradientTransform="translate(-42.098 98.463) scale(.28222)" id="c" gradientUnits="userSpaceOnUse" x1="72" y1="225" x2="118" y2="149"><stop offset="0%" stop-color="#388b41"/><stop offset="100%" stop-color="#4cb749"/></linearGradient><linearGradient gradientTransform="translate(-42.098 98.463) scale(.28222)" id="b" gradientUnits="userSpaceOnUse" x1="128" y1="16" x2="128" y2="107"><stop offset="0%" stop-color="#f06b59"/><stop offset="100%" stop-color="#df2227"/></linearGradient><linearGradient gradientTransform="translate(-42.098 98.463) scale(.28222)" gradientUnits="userSpaceOnUse" id="a" x1="81.903" y1="81.837" x2="81.903" y2="163.837"><stop offset="0%" stop-color="#81b4e0"/><stop offset="100%" stop-color="#0c5a94"/></linearGradient></defs><path fill="#ececec" paint-order="stroke fill markers" d="M0 0h239v232H0zm360.454 1.299H600.18v232.57H360.454z"/><g transform="translate(490.052 -45.148)"><circle r="31.044" cy="134.588" cx="-5.973" fill="#fff"/><path d="M13.782 140.232a19.756 19.756 0 0 0-39.51 0h5.644a14.111 14.111 0 0 1 28.222 0" fill-opacity=".1"/><circle r="10.724" cy="138.539" cx="-4.562" fill-opacity=".1"/><circle r="11.571" cy="133.131" cx="-7.412" fill="url(#a)"/><path d="M22.249 120.477a31.609 31.609 0 0 0-54.469-3.67l12.7 22.014a14.111 14.111 0 0 1 13.264-18.344" fill="url(#b)"/><path d="M-32.22 116.808a31.609 31.609 0 0 0 23.707 49.106L4.75 143.338a14.111 14.111 0 0 1-24.271-4.516" fill="url(#c)"/><path d="M-8.513 165.915a31.609 31.609 0 0 0 30.762-45.438H-6.256a14.111 14.111 0 0 1 11.007 22.86" fill="url(#d)"/><path d="M-32.22 116.808l12.7 22.013a14.111 14.111 0 0 1 .564-9.595l-12.7-13.265" fill="url(#e)"/><path d="M-8.513 165.915L4.75 143.337a14.111 14.111 0 0 1-8.184 4.798l-5.645 17.78" fill="url(#f)"/><path d="M22.249 120.477H-6.256a14.111 14.111 0 0 1 11.007 5.362l18.062-4.516" fill="url(#g)"/></g><g fill-rule="evenodd"><path d="M130.528 167.328a.666.666 0 0 0-.33.088.666.666 0 0 0-.329.571v16.801a.445.445 0 0 1-.22.396.458.458 0 0 1-.46 0l-2.746-1.582a1.316 1.316 0 0 0-1.318 0l-10.959 6.326a1.35 1.35 0 0 0-.659 1.164v12.65c0 .472.25.905.66 1.142l10.958 6.325c.41.236.908.236 1.318 0l10.96-6.325c.409-.237.658-.67.658-1.142v-31.538c0-.48-.262-.93-.68-1.164l-6.524-3.646a.644.644 0 0 0-.329-.066zM60.029 183.12a1.24 1.24 0 0 0-.592.154l-10.96 6.325a1.312 1.312 0 0 0-.658 1.142l.021 16.977c0 .236.122.455.33.57a.64.64 0 0 0 .659 0l6.5-3.733c.412-.244.681-.67.681-1.142v-7.928c0-.473.25-.907.66-1.142l2.766-1.603c.207-.12.429-.176.66-.176.225 0 .457.056.658.176l2.767 1.603c.41.235.66.669.66 1.142v7.928c0 .472.271.9.68 1.142l6.5 3.734a.66.66 0 0 0 .988-.571l.023-16.977c0-.476-.248-.906-.659-1.142l-10.959-6.325a1.23 1.23 0 0 0-.593-.154h-.132zm98.479.154a1.31 1.31 0 0 0-.66.176l-10.958 6.325c-.41.236-.66.669-.66 1.142v12.65c0 .476.269.907.682 1.142l10.871 6.193c.401.23.892.247 1.296.022l6.588-3.668a.666.666 0 0 0 .352-.57.649.649 0 0 0-.33-.572l-11.025-6.325a.71.71 0 0 1-.351-.593v-3.953c0-.236.147-.453.351-.57l3.426-1.978a.658.658 0 0 1 .66 0l3.425 1.977c.205.118.33.335.33.571v3.119a.656.656 0 0 0 .988.57l6.567-3.82a1.32 1.32 0 0 0 .659-1.143v-3.052c0-.472-.25-.906-.66-1.142l-10.892-6.326a1.306 1.306 0 0 0-.66-.175zm-32.768 9.444c.057 0 .125.014.176.043l3.755 2.175a.34.34 0 0 1 .176.285v4.349a.338.338 0 0 1-.176.285l-3.755 2.174a.332.332 0 0 1-.33 0l-3.755-2.174a.34.34 0 0 1-.176-.285v-4.349a.34.34 0 0 1 .176-.285l3.756-2.174a.29.29 0 0 1 .153-.044z" fill="#404137"/><path d="M191.341 182.966c-.38 0-.75.078-1.076.263l-10.344 5.974a2.18 2.18 0 0 0-1.076 1.889v11.925c0 .774.406 1.502 1.076 1.889l2.701 1.559c1.313.647 1.797.637 2.394.637 1.943 0 3.053-1.18 3.053-3.229v-11.771c0-.167-.144-.286-.308-.286h-1.295c-.166 0-.308.12-.308.286v11.771c0 .909-.946 1.822-2.482 1.055l-2.81-1.647c-.1-.055-.176-.15-.176-.264v-11.925c0-.114.075-.229.175-.286l10.322-5.952a.305.305 0 0 1 .308 0l10.322 5.952a.35.35 0 0 1 .176.286v11.925a.33.33 0 0 1-.154.285l-10.344 5.952a.319.319 0 0 1-.308 0l-2.657-1.581a.276.276 0 0 0-.264 0c-.733.416-.871.464-1.559.703-.17.059-.427.15.088.439l3.47 2.042c.33.192.698.286 1.076.286.383 0 .746-.094 1.076-.286l10.344-5.951a2.184 2.184 0 0 0 1.077-1.889v-11.925c0-.775-.407-1.502-1.077-1.89l-10.344-5.973a2.157 2.157 0 0 0-1.076-.263zm-98.39.241c-.229 0-.455.058-.66.176l-10.958 6.303a1.35 1.35 0 0 0-.66 1.164v12.65c0 .473.25.905.66 1.142l10.959 6.325c.41.237.908.237 1.318 0l10.959-6.325c.409-.237.659-.669.659-1.142v-12.65c0-.473-.25-.928-.66-1.164l-10.958-6.303a1.312 1.312 0 0 0-.66-.176zm113.742.066v.308h.856v2.262h.352v-2.262h.878v-.308zm2.394 0v2.57h.329v-1.516c0-.062.003-.157 0-.285-.004-.13 0-.244 0-.308v-.066l.725 2.174h.351l.747-2.174c0 .139-.019.272-.022.396v1.778h.33v-2.57h-.484l-.746 2.175-.725-2.174h-.505zm-14.979 8.214c-2.945 0-4.7 1.254-4.7 3.338 0 2.262 1.742 2.883 4.569 3.163 3.382.33 3.645.827 3.645 1.493 0 1.155-.92 1.647-3.096 1.647-2.734 0-3.335-.682-3.536-2.042-.024-.146-.136-.264-.286-.264h-1.34a.313.313 0 0 0-.307.308c0 1.74.947 3.8 5.469 3.8 3.273 0 5.16-1.286 5.16-3.537 0-2.231-1.524-2.83-4.7-3.25-3.207-.425-3.513-.632-3.513-1.384 0-.62.26-1.45 2.635-1.45 2.123 0 2.907.459 3.229 1.89a.3.3 0 0 0 .285.241h1.34c.083 0 .163-.05.22-.11.056-.063.095-.134.088-.22-.208-2.464-1.851-3.623-5.162-3.623zm-35.622 3.009c-.044 0-.092 0-.132.022l-2.108 1.23a.256.256 0 0 0-.132.22v2.415c0 .09.053.174.132.22l2.108 1.207a.23.23 0 0 0 .242 0l2.108-1.207a.258.258 0 0 0 .132-.22v-2.416a.258.258 0 0 0-.132-.22l-2.108-1.23c-.04-.023-.066-.021-.11-.021z" fill="#83cd29"/></g><path fill="#ccc" d="M439.113 175.16v15.223h-2.293V171.65h2.423l11.463 15.09v-15.09h2.292v18.733h-2.423zm32.487 14.489c-1.51.577-3.14.865-4.887.865-6.785 0-10.179-3.253-10.179-9.76 0-6.157 3.275-9.236 9.824-9.236 1.88 0 3.627.263 5.241.788v2.096a13.952 13.952 0 0 0-4.979-.918c-5.108 0-7.661 2.424-7.661 7.27 0 5.196 2.513 7.796 7.545 7.796.803 0 1.693-.106 2.672-.316v-6.366h2.423zm3.864-6.497V171.65h2.422v11.5c0 3.598 1.79 5.4 5.372 5.4 3.58 0 5.371-1.802 5.371-5.4v-11.5h2.423v11.5c0 4.91-2.598 7.364-7.794 7.364s-7.794-2.454-7.794-7.363zm22.334-11.502v16.768h9.8v1.965h-12.222V171.65zm23.489 10.875l-3.498-8.49-6.694 16.348h-2.515l9.314-21.204 9.313 21.204h-2.684l-2.425-5.896h-6.194l.667-1.962zm8.475 7.858V171.65h7.991c3.564 0 5.345 1.498 5.345 4.493 0 2.437-1.741 4.24-5.226 5.41l6.431 8.83h-3.196l-5.96-8.423v-1.584c3.58-.569 5.37-1.944 5.37-4.127 0-1.728-.995-2.594-2.985-2.594h-5.346v16.728h-2.424zm23.62-18.733v13.336c0 3.598-2.118 5.396-6.354 5.396v-1.964c2.62 0 3.93-1.146 3.93-3.432V171.65zm4.323 18.078V187.5c1.966.699 4.087 1.05 6.367 1.05 3.222 0 4.834-1.18 4.834-3.54 0-2.005-1.189-3.012-3.564-3.012h-2.41c-3.921 0-5.883-1.702-5.883-5.108 0-3.58 2.512-5.372 7.535-5.372 2.182 0 4.212.264 6.09.787v2.227c-1.878-.7-3.908-1.049-6.09-1.049-3.407 0-5.11 1.136-5.11 3.407 0 2.008 1.152 3.012 3.457 3.012h2.411c3.99 0 5.987 1.704 5.987 5.108 0 3.67-2.419 5.504-7.258 5.504-2.279 0-4.4-.263-6.366-.786z"/><path d="M439.725 174.548v15.223h-2.292v-18.733h2.423l11.462 15.09v-15.09h2.293v18.733h-2.423zm32.487 14.489c-1.51.577-3.139.865-4.886.865-6.785 0-10.178-3.253-10.178-9.76 0-6.157 3.275-9.236 9.825-9.236 1.878 0 3.625.263 5.24.788v2.095a13.95 13.95 0 0 0-4.978-.918c-5.109 0-7.663 2.425-7.663 7.27 0 5.197 2.515 7.796 7.546 7.796.802 0 1.694-.104 2.673-.315v-6.366h2.422zm3.865-6.497v-11.503h2.422v11.502c0 3.598 1.79 5.398 5.372 5.398 3.58 0 5.37-1.8 5.37-5.398v-11.502h2.424v11.502c0 4.91-2.598 7.362-7.794 7.362s-7.794-2.452-7.794-7.362zm22.334-11.503v16.768h9.8v1.965h-12.222v-18.733zM521.9 181.91l-3.497-8.49-6.695 16.35h-2.515l9.314-21.205 9.314 21.205h-2.687l-2.423-5.895h-6.195l.669-1.964zm8.475 7.86v-18.732h7.991c3.564 0 5.344 1.497 5.344 4.493 0 2.436-1.74 4.24-5.226 5.41l6.432 8.83h-3.197l-5.959-8.423v-1.586c3.58-.569 5.37-1.943 5.37-4.127 0-1.728-.996-2.593-2.987-2.593h-5.345v16.729h-2.423z"/><path d="M553.995 171.037v13.336c0 3.599-2.118 5.397-6.354 5.397v-1.965c2.62 0 3.93-1.145 3.93-3.432v-13.336zm4.322 18.077v-2.226c1.966.698 4.087 1.049 6.367 1.049 3.222 0 4.834-1.18 4.834-3.538 0-2.007-1.188-3.013-3.564-3.013h-2.41c-3.921 0-5.883-1.703-5.883-5.11 0-3.58 2.511-5.37 7.535-5.37 2.182 0 4.213.263 6.09.786v2.228c-1.878-.7-3.908-1.05-6.09-1.05-3.407 0-5.11 1.137-5.11 3.407 0 2.008 1.151 3.012 3.457 3.012h2.411c3.99 0 5.987 1.704 5.987 5.11 0 3.668-2.418 5.502-7.258 5.502-2.279 0-4.4-.263-6.366-.787z" fill="#a6120d"/><path d="M535.934 199.77l-.89-2.706h-.633l1.228 3.419a16.446 16.446 0 0 1-.25.594.466.466 0 0 1-.123.125.4.4 0 0 1-.227.052.89.89 0 0 1-.115-.01 1.876 1.876 0 0 1-.21-.05v.51c.061.016.114.027.156.033.042.006.103.01.182.01.322 0 .549-.093.681-.28.132-.185.359-.702.682-1.549.136-.36.305-.825.508-1.395.27-.76.446-1.245.524-1.459h-.617zm-3.304.227c-.403 0-.678-.182-.825-.548-.079-.194-.117-.448-.117-.76 0-.432.095-.742.287-.93a.93.93 0 0 1 .67-.282c.293 0 .514.115.665.344.15.23.226.519.226.868 0 .393-.075.71-.226.949-.15.24-.378.36-.68.36zm-1.455.388h.515v-.424c.118.16.229.275.333.347.174.122.388.183.641.183.453 0 .806-.174 1.062-.521.255-.348.382-.784.382-1.309 0-.554-.128-.973-.387-1.257-.259-.284-.595-.426-1.01-.426a1.231 1.231 0 0 0-.994.49v-1.653h-.542z"/><path fill="#b3b3b3" d="M411.948 156.61l-21.878 7.7 3.457 28.664 18.444 10.137 18.54-10.274 3.455-28.663z"/><path fill="#a6120d" d="M411.897 200.69l16.666-9.224 3.22-25.635-19.886-6.782z"/><path fill="#dd1b16" d="M411.896 200.69v-41.642l-19.371 6.905 2.962 25.635z"/><path d="M417.37 181.216l-5.473 2.56h-5.77l-2.712 6.784-5.045.093 13.527-30.092zm-.528-1.289l-4.91-9.718-4.026 9.551h3.99z" fill="#f2f2f2"/><path fill="#b3b3b3" d="M416.501 179.768h-4.594l-.01 4.002 6.353.006 2.97 6.878 4.826.09-14.15-30.183.037 9.648z"/><path d="M553.129 197.984c0 1.473-1.152 2.558-2.566 2.558s-2.566-1.085-2.566-2.558c0-1.483 1.152-2.558 2.566-2.558s2.566 1.075 2.566 2.558zm-1.123 0c0-.92-.668-1.55-1.443-1.55s-1.443.63-1.443 1.55c0 .91.668 1.55 1.443 1.55s1.443-.64 1.443-1.55zm6.659 0c0 1.473-1.152 2.558-2.566 2.558s-2.566-1.085-2.566-2.558c0-1.482 1.152-2.558 2.566-2.558s2.566 1.075 2.566 2.558zm-1.123 0c0-.92-.668-1.55-1.443-1.55s-1.443.63-1.443 1.55c0 .91.668 1.55 1.443 1.55s1.443-.64 1.443-1.55zm6.428-2.404v4.593c0 1.889-1.114 2.66-2.431 2.66-1.24 0-1.986-.829-2.267-1.507l.978-.407c.174.416.6.908 1.288.908.843 0 1.365-.52 1.365-1.5v-.368h-.039c-.251.31-.736.582-1.347.582-1.279 0-2.45-1.114-2.45-2.548 0-1.444 1.171-2.567 2.45-2.567.61 0 1.095.27 1.347.572h.04v-.417h1.066zm-.987 2.413c0-.9-.601-1.56-1.366-1.56-.775 0-1.424.66-1.424 1.56 0 .891.65 1.54 1.424 1.54.765 0 1.366-.649 1.366-1.54zm2.746-5.105v7.497h-1.096v-7.497zm4.27 5.938l.871.58a2.546 2.546 0 0 1-2.13 1.135c-1.454 0-2.54-1.124-2.54-2.558 0-1.522 1.095-2.558 2.413-2.558 1.328 0 1.977 1.056 2.19 1.627l.116.29-3.42 1.417c.262.513.67.775 1.24.775.572 0 .969-.282 1.26-.708zm-2.684-.92l2.286-.95c-.126-.32-.504-.542-.95-.542-.57 0-1.365.504-1.336 1.491zm-23.465-.588v-1.085h3.657c.035.19.054.413.054.655 0 .814-.223 1.821-.94 2.539-.698.726-1.59 1.114-2.77 1.114-2.19 0-4.03-1.783-4.03-3.972 0-2.19 1.84-3.972 4.03-3.972 1.21 0 2.073.475 2.721 1.094l-.765.766a2.766 2.766 0 0 0-1.958-.775c-1.598 0-2.848 1.288-2.848 2.887 0 1.598 1.25 2.886 2.848 2.886 1.037 0 1.628-.416 2.006-.794.307-.307.509-.745.588-1.344l-2.594.001z"/><text style="line-height:6.61458302px;-inkscape-font-specification:'Noto Color Emoji';text-align:start" x="-414.714" y="-21.094" font-weight="400" font-size="5.953" font-family="Noto Color Emoji" letter-spacing="0" word-spacing="0" stroke-width=".265" transform="translate(427.808 41.787)"><tspan x="-414.714" y="-21.094" style="-inkscape-font-specification:Lato" font-size="16.933" font-family="Lato">Back-end</tspan></text><path d="M-176.574 48.692h86.934" fill="none" stroke="#000" stroke-width="2" marker-end="url(#h)" transform="translate(427.808 41.787)"/><path d="M-90.721 89.329h-86.934" fill="none" stroke="#000" stroke-width="2" marker-end="url(#i)" transform="translate(427.808 41.787)"/><text y="119.567" x="-165.267" style="line-height:6.61458302px;-inkscape-font-specification:'Noto Color Emoji';text-align:start" font-weight="400" font-size="5.953" font-family="Noto Color Emoji" letter-spacing="0" word-spacing="0" stroke-width=".265" transform="translate(427.808 41.787)"><tspan style="-inkscape-font-specification:Lato" y="119.567" x="-165.267" font-size="16.933" font-family="Lato">Ajax call</tspan></text><text style="line-height:6.61458302px;-inkscape-font-specification:'Noto Color Emoji';text-align:start" x="-175.001" y="30.187" font-weight="400" font-size="5.953" font-family="Noto Color Emoji" letter-spacing="0" word-spacing="0" stroke-width=".265" transform="translate(427.808 41.787)"><tspan x="-175.001" y="30.187" style="-inkscape-font-specification:Lato" font-size="16.933" font-family="Lato">Return json</tspan></text><text y="-21.094" x="-54.28" style="line-height:6.61458302px;-inkscape-font-specification:'Noto Color Emoji';text-align:start" font-weight="400" font-size="5.953" font-family="Noto Color Emoji" letter-spacing="0" word-spacing="0" stroke-width=".265" transform="translate(427.808 41.787)"><tspan style="-inkscape-font-specification:Lato" y="-21.094" x="-54.28" font-size="16.933" font-family="Lato">Front-end</tspan></text><text y="42.576" x="-304.5" style="line-height:13.22916698px;-inkscape-font-specification:'Noto Color Emoji';text-align:center" font-weight="400" font-size="5.953" font-family="Noto Color Emoji" letter-spacing="0" word-spacing="0" text-anchor="middle" stroke-width=".265" transform="translate(427.808 41.787)"><tspan style="line-height:13.22916698px;-inkscape-font-specification:Lato;text-align:center" y="42.576" x="-304.5" font-size="16.933" font-family="Lato">Data:</tspan><tspan style="line-height:13.22916698px;-inkscape-font-specification:Lato;text-align:center" y="59.424" x="-304.5" font-size="16.933" font-family="Lato">{Ingredients, Recipes}</tspan></text></svg>