<?xml version="1.0" encoding="UTF-8" standalone="no"?>
<svg
   xmlns:dc="http://purl.org/dc/elements/1.1/"
   xmlns:cc="http://creativecommons.org/ns#"
   xmlns:rdf="http://www.w3.org/1999/02/22-rdf-syntax-ns#"
   xmlns:svg="http://www.w3.org/2000/svg"
   xmlns="http://www.w3.org/2000/svg"
   xmlns:sodipodi="http://sodipodi.sourceforge.net/DTD/sodipodi-0.dtd"
   xmlns:inkscape="http://www.inkscape.org/namespaces/inkscape"
   width="3592.8318"
   height="1400"
   viewBox="0 0 950.60295 370.41647"
   version="1.1"
   id="svg127"
   sodipodi:docname="main.svg"
   inkscape:version="0.92.3 (2405546, 2018-03-11)">
  <metadata
     id="metadata131">
    <rdf:RDF>
      <cc:Work
         rdf:about="">
        <dc:format>image/svg+xml</dc:format>
        <dc:type
           rdf:resource="http://purl.org/dc/dcmitype/StillImage" />
        <dc:title></dc:title>
      </cc:Work>
    </rdf:RDF>
  </metadata>
  <sodipodi:namedview
     pagecolor="#ffffff"
     bordercolor="#666666"
     borderopacity="1"
     objecttolerance="10"
     gridtolerance="10"
     guidetolerance="10"
     inkscape:pageopacity="0"
     inkscape:pageshadow="2"
     inkscape:window-width="1364"
     inkscape:window-height="732"
     id="namedview129"
     showgrid="false"
     fit-margin-top="0"
     fit-margin-left="0"
     fit-margin-right="0"
     fit-margin-bottom="0"
     inkscape:zoom="0.15509327"
     inkscape:cx="770.6527"
     inkscape:cy="58.400883"
     inkscape:window-x="0"
     inkscape:window-y="35"
     inkscape:window-maximized="0"
     inkscape:current-layer="svg127" />
  <defs
     id="defs49">
    <marker
       id="i"
       orient="auto"
       overflow="visible"
       style="overflow:visible">
      <path
         d="m -10.69,-4.437 12.018,4.42 -12.018,4.418 c 1.92,-2.61 1.909,-6.18 0,-8.84 z"
         id="path2"
         inkscape:connector-curvature="0"
         style="fill-rule:evenodd;stroke:#000000;stroke-width:0.68800002;stroke-linejoin:round" />
    </marker>
    <marker
       orient="auto"
       id="h"
       overflow="visible"
       style="overflow:visible">
      <path
         d="m -10.69,-4.437 12.018,4.42 -12.018,4.418 c 1.92,-2.61 1.909,-6.18 0,-8.84 z"
         id="path5"
         inkscape:connector-curvature="0"
         style="fill-rule:evenodd;stroke:#000000;stroke-width:0.68800002;stroke-linejoin:round" />
    </marker>
    <linearGradient
       gradientTransform="matrix(0.28222,0,0,0.28222,-42.098,98.463)"
       id="g"
       gradientUnits="userSpaceOnUse"
       x1="139"
       y1="179"
       x2="147"
       y2="100">
      <stop
         offset="0%"
         stop-opacity=".15"
         id="stop8" />
      <stop
         offset="30%"
         stop-opacity=".06"
         id="stop10" />
      <stop
         offset="100%"
         stop-opacity=".03"
         id="stop12" />
    </linearGradient>
    <linearGradient
       gradientTransform="matrix(0.28222,0,0,0.28222,-42.098,98.463)"
       id="f"
       gradientUnits="userSpaceOnUse"
       x1="164"
       y1="161"
       x2="109"
       y2="217">
      <stop
         offset="0%"
         stop-opacity=".15"
         id="stop15" />
      <stop
         offset="30%"
         stop-opacity=".06"
         id="stop17" />
      <stop
         offset="100%"
         stop-opacity=".03"
         id="stop19" />
    </linearGradient>
    <linearGradient
       gradientTransform="matrix(0.28222,0,0,0.28222,-42.098,98.463)"
       id="e"
       gradientUnits="userSpaceOnUse"
       x1="80"
       y1="140"
       x2="80"
       y2="60">
      <stop
         offset="0%"
         stop-opacity=".15"
         id="stop22" />
      <stop
         offset="30%"
         stop-opacity=".06"
         id="stop24" />
      <stop
         offset="100%"
         stop-opacity=".03"
         id="stop26" />
    </linearGradient>
    <linearGradient
       gradientTransform="matrix(0.28222,0,0,0.28222,-42.098,98.463)"
       id="d"
       gradientUnits="userSpaceOnUse"
       x1="187"
       y1="220"
       x2="138"
       y2="102">
      <stop
         offset="0%"
         stop-color="#e4b022"
         id="stop29" />
      <stop
         offset="30%"
         stop-color="#fcd209"
         id="stop31" />
    </linearGradient>
    <linearGradient
       gradientTransform="matrix(0.28222,0,0,0.28222,-42.098,98.463)"
       id="c"
       gradientUnits="userSpaceOnUse"
       x1="72"
       y1="225"
       x2="118"
       y2="149">
      <stop
         offset="0%"
         stop-color="#388b41"
         id="stop34" />
      <stop
         offset="100%"
         stop-color="#4cb749"
         id="stop36" />
    </linearGradient>
    <linearGradient
       gradientTransform="matrix(0.28222,0,0,0.28222,-42.098,98.463)"
       id="b"
       gradientUnits="userSpaceOnUse"
       x1="128"
       y1="16"
       x2="128"
       y2="107">
      <stop
         offset="0%"
         stop-color="#f06b59"
         id="stop39" />
      <stop
         offset="100%"
         stop-color="#df2227"
         id="stop41" />
    </linearGradient>
    <linearGradient
       gradientTransform="matrix(0.28222,0,0,0.28222,-42.098,98.463)"
       gradientUnits="userSpaceOnUse"
       id="a"
       x1="81.903"
       y1="81.836998"
       x2="81.903"
       y2="163.83701">
      <stop
         offset="0%"
         stop-color="#81b4e0"
         id="stop44" />
      <stop
         offset="100%"
         stop-color="#0c5a94"
         id="stop46" />
    </linearGradient>
  </defs>
  <path
     d="M 0,0 H 378.54328 V 367.45624 H 0 Z M 570.90979,2.05744 H 950.60296 V 370.41648 H 570.90979 Z"
     id="path51"
     inkscape:connector-curvature="0"
     style="fill:#ececec;stroke-width:1.58386314;paint-order:stroke fill markers" />
  <g
     transform="matrix(1.5838631,0,0,1.5838631,776.17528,-71.50825)"
     id="g73">
    <circle
       r="31.044001"
       cy="134.588"
       cx="-5.973"
       id="circle53"
       style="fill:#ffffff" />
    <path
       d="m 13.782,140.232 a 19.756,19.756 0 0 0 -39.51,0 h 5.644 a 14.111,14.111 0 0 1 28.222,0"
       id="path55"
       inkscape:connector-curvature="0"
       style="fill-opacity:0.1" />
    <circle
       r="10.724"
       cy="138.539"
       cx="-4.5619998"
       id="circle57"
       style="fill-opacity:0.1" />
    <circle
       r="11.571"
       cy="133.131"
       cx="-7.4120002"
       id="circle59"
       style="fill:url(#a)" />
    <path
       d="m 22.249,120.477 a 31.609,31.609 0 0 0 -54.469,-3.67 l 12.7,22.014 a 14.111,14.111 0 0 1 13.264,-18.344"
       id="path61"
       style="fill:url(#b)"
       inkscape:connector-curvature="0" />
    <path
       d="m -32.22,116.808 a 31.609,31.609 0 0 0 23.707,49.106 L 4.75,143.338 a 14.111,14.111 0 0 1 -24.271,-4.516"
       id="path63"
       style="fill:url(#c)"
       inkscape:connector-curvature="0" />
    <path
       d="M -8.513,165.915 A 31.609,31.609 0 0 0 22.249,120.477 H -6.256 a 14.111,14.111 0 0 1 11.007,22.86"
       id="path65"
       style="fill:url(#d)"
       inkscape:connector-curvature="0" />
    <path
       d="m -32.22,116.808 12.7,22.013 a 14.111,14.111 0 0 1 0.564,-9.595 l -12.7,-13.265"
       id="path67"
       style="fill:url(#e)"
       inkscape:connector-curvature="0" />
    <path
       d="M -8.513,165.915 4.75,143.337 a 14.111,14.111 0 0 1 -8.184,4.798 l -5.645,17.78"
       id="path69"
       style="fill:url(#f)"
       inkscape:connector-curvature="0" />
    <path
       d="M 22.249,120.477 H -6.256 a 14.111,14.111 0 0 1 11.007,5.362 l 18.062,-4.516"
       id="path71"
       style="fill:url(#g)"
       inkscape:connector-curvature="0" />
  </g>
  <g
     id="g79"
     transform="scale(1.5838631)"
     style="fill-rule:evenodd">
    <path
       d="m 130.528,167.328 a 0.666,0.666 0 0 0 -0.33,0.088 0.666,0.666 0 0 0 -0.329,0.571 v 16.801 a 0.445,0.445 0 0 1 -0.22,0.396 0.458,0.458 0 0 1 -0.46,0 l -2.746,-1.582 a 1.316,1.316 0 0 0 -1.318,0 l -10.959,6.326 a 1.35,1.35 0 0 0 -0.659,1.164 v 12.65 c 0,0.472 0.25,0.905 0.66,1.142 l 10.958,6.325 c 0.41,0.236 0.908,0.236 1.318,0 l 10.96,-6.325 c 0.409,-0.237 0.658,-0.67 0.658,-1.142 v -31.538 c 0,-0.48 -0.262,-0.93 -0.68,-1.164 l -6.524,-3.646 a 0.644,0.644 0 0 0 -0.329,-0.066 z M 60.029,183.12 a 1.24,1.24 0 0 0 -0.592,0.154 l -10.96,6.325 a 1.312,1.312 0 0 0 -0.658,1.142 l 0.021,16.977 c 0,0.236 0.122,0.455 0.33,0.57 a 0.64,0.64 0 0 0 0.659,0 l 6.5,-3.733 c 0.412,-0.244 0.681,-0.67 0.681,-1.142 v -7.928 c 0,-0.473 0.25,-0.907 0.66,-1.142 l 2.766,-1.603 c 0.207,-0.12 0.429,-0.176 0.66,-0.176 0.225,0 0.457,0.056 0.658,0.176 l 2.767,1.603 c 0.41,0.235 0.66,0.669 0.66,1.142 v 7.928 c 0,0.472 0.271,0.9 0.68,1.142 l 6.5,3.734 a 0.66,0.66 0 0 0 0.988,-0.571 l 0.023,-16.977 c 0,-0.476 -0.248,-0.906 -0.659,-1.142 l -10.959,-6.325 a 1.23,1.23 0 0 0 -0.593,-0.154 z m 98.479,0.154 a 1.31,1.31 0 0 0 -0.66,0.176 l -10.958,6.325 c -0.41,0.236 -0.66,0.669 -0.66,1.142 v 12.65 c 0,0.476 0.269,0.907 0.682,1.142 l 10.871,6.193 c 0.401,0.23 0.892,0.247 1.296,0.022 l 6.588,-3.668 a 0.666,0.666 0 0 0 0.352,-0.57 0.649,0.649 0 0 0 -0.33,-0.572 l -11.025,-6.325 a 0.71,0.71 0 0 1 -0.351,-0.593 v -3.953 c 0,-0.236 0.147,-0.453 0.351,-0.57 l 3.426,-1.978 a 0.658,0.658 0 0 1 0.66,0 l 3.425,1.977 c 0.205,0.118 0.33,0.335 0.33,0.571 v 3.119 a 0.656,0.656 0 0 0 0.988,0.57 l 6.567,-3.82 a 1.32,1.32 0 0 0 0.659,-1.143 v -3.052 c 0,-0.472 -0.25,-0.906 -0.66,-1.142 l -10.892,-6.326 a 1.306,1.306 0 0 0 -0.66,-0.175 z m -32.768,9.444 c 0.057,0 0.125,0.014 0.176,0.043 l 3.755,2.175 a 0.34,0.34 0 0 1 0.176,0.285 v 4.349 a 0.338,0.338 0 0 1 -0.176,0.285 l -3.755,2.174 a 0.332,0.332 0 0 1 -0.33,0 l -3.755,-2.174 a 0.34,0.34 0 0 1 -0.176,-0.285 v -4.349 a 0.34,0.34 0 0 1 0.176,-0.285 l 3.756,-2.174 a 0.29,0.29 0 0 1 0.153,-0.044 z"
       id="path75"
       inkscape:connector-curvature="0"
       style="fill:#404137" />
    <path
       d="m 191.341,182.966 c -0.38,0 -0.75,0.078 -1.076,0.263 l -10.344,5.974 a 2.18,2.18 0 0 0 -1.076,1.889 v 11.925 c 0,0.774 0.406,1.502 1.076,1.889 l 2.701,1.559 c 1.313,0.647 1.797,0.637 2.394,0.637 1.943,0 3.053,-1.18 3.053,-3.229 v -11.771 c 0,-0.167 -0.144,-0.286 -0.308,-0.286 h -1.295 c -0.166,0 -0.308,0.12 -0.308,0.286 v 11.771 c 0,0.909 -0.946,1.822 -2.482,1.055 l -2.81,-1.647 c -0.1,-0.055 -0.176,-0.15 -0.176,-0.264 v -11.925 c 0,-0.114 0.075,-0.229 0.175,-0.286 l 10.322,-5.952 a 0.305,0.305 0 0 1 0.308,0 l 10.322,5.952 a 0.35,0.35 0 0 1 0.176,0.286 v 11.925 a 0.33,0.33 0 0 1 -0.154,0.285 l -10.344,5.952 a 0.319,0.319 0 0 1 -0.308,0 l -2.657,-1.581 a 0.276,0.276 0 0 0 -0.264,0 c -0.733,0.416 -0.871,0.464 -1.559,0.703 -0.17,0.059 -0.427,0.15 0.088,0.439 l 3.47,2.042 c 0.33,0.192 0.698,0.286 1.076,0.286 0.383,0 0.746,-0.094 1.076,-0.286 l 10.344,-5.951 a 2.184,2.184 0 0 0 1.077,-1.889 v -11.925 c 0,-0.775 -0.407,-1.502 -1.077,-1.89 l -10.344,-5.973 a 2.157,2.157 0 0 0 -1.076,-0.263 z m -98.39,0.241 c -0.229,0 -0.455,0.058 -0.66,0.176 l -10.958,6.303 a 1.35,1.35 0 0 0 -0.66,1.164 v 12.65 c 0,0.473 0.25,0.905 0.66,1.142 l 10.959,6.325 c 0.41,0.237 0.908,0.237 1.318,0 l 10.959,-6.325 c 0.409,-0.237 0.659,-0.669 0.659,-1.142 v -12.65 c 0,-0.473 -0.25,-0.928 -0.66,-1.164 L 93.61,183.383 a 1.312,1.312 0 0 0 -0.66,-0.176 z m 113.742,0.066 v 0.308 h 0.856 v 2.262 h 0.352 v -2.262 h 0.878 v -0.308 z m 2.394,0 v 2.57 h 0.329 v -1.516 c 0,-0.062 0.003,-0.157 0,-0.285 -0.004,-0.13 0,-0.244 0,-0.308 v -0.066 l 0.725,2.174 h 0.351 l 0.747,-2.174 c 0,0.139 -0.019,0.272 -0.022,0.396 v 1.778 h 0.33 v -2.57 h -0.484 l -0.746,2.175 -0.725,-2.174 z m -14.979,8.214 c -2.945,0 -4.7,1.254 -4.7,3.338 0,2.262 1.742,2.883 4.569,3.163 3.382,0.33 3.645,0.827 3.645,1.493 0,1.155 -0.92,1.647 -3.096,1.647 -2.734,0 -3.335,-0.682 -3.536,-2.042 -0.024,-0.146 -0.136,-0.264 -0.286,-0.264 h -1.34 a 0.313,0.313 0 0 0 -0.307,0.308 c 0,1.74 0.947,3.8 5.469,3.8 3.273,0 5.16,-1.286 5.16,-3.537 0,-2.231 -1.524,-2.83 -4.7,-3.25 -3.207,-0.425 -3.513,-0.632 -3.513,-1.384 0,-0.62 0.26,-1.45 2.635,-1.45 2.123,0 2.907,0.459 3.229,1.89 a 0.3,0.3 0 0 0 0.285,0.241 h 1.34 c 0.083,0 0.163,-0.05 0.22,-0.11 0.056,-0.063 0.095,-0.134 0.088,-0.22 -0.208,-2.464 -1.851,-3.623 -5.162,-3.623 z m -35.622,3.009 c -0.044,0 -0.092,0 -0.132,0.022 l -2.108,1.23 a 0.256,0.256 0 0 0 -0.132,0.22 v 2.415 c 0,0.09 0.053,0.174 0.132,0.22 l 2.108,1.207 a 0.23,0.23 0 0 0 0.242,0 l 2.108,-1.207 a 0.258,0.258 0 0 0 0.132,-0.22 v -2.416 a 0.258,0.258 0 0 0 -0.132,-0.22 l -2.108,-1.23 c -0.04,-0.023 -0.066,-0.021 -0.11,-0.021 z"
       id="path77"
       inkscape:connector-curvature="0"
       style="fill:#83cd29" />
  </g>
  <path
     d="m 695.49488,277.42946 v 24.11115 h -3.6318 V 271.8701 h 3.8377 l 18.15582,23.9005 v -23.9005 h 3.63022 v 29.67051 h -3.8377 z m 51.45496,22.94859 c -2.39163,0.91389 -4.97333,1.37005 -7.74034,1.37005 -10.74651,0 -16.12214,-5.15231 -16.12214,-15.45851 0,-9.75184 5.18715,-14.62856 15.55987,-14.62856 2.97766,0 5.74467,0.41656 8.30103,1.24809 v 3.31977 a 22.098058,22.098058 0 0 0 -7.88606,-1.45398 c -8.09037,0 -12.13397,3.83928 -12.13397,11.51468 0,8.22975 3.98025,12.3478 11.95024,12.3478 1.27185,0 2.68148,-0.16789 4.23209,-0.5005 v -10.08288 h 3.8377 z m 6.12005,-10.29036 V 271.8701 h 3.83611 v 18.21443 c 0,5.69874 2.83512,8.55286 8.50852,8.55286 5.67023,0 8.50693,-2.85412 8.50693,-8.55286 V 271.8701 h 3.8377 v 18.21443 c 0,7.77676 -4.11488,11.66357 -12.34463,11.66357 -8.22976,0 -12.34463,-3.88681 -12.34463,-11.66199 z m 35.374,-18.21759 v 26.55822 h 15.52185 v 3.11229 H 784.60777 V 271.8701 Z m 37.20336,17.22451 -5.54036,-13.447 -10.60238,25.893 h -3.98341 l 14.7521,-33.58423 14.75052,33.58423 h -4.25109 l -3.84087,-9.33846 h -9.81045 l 1.05644,-3.10754 z m 13.42324,12.446 V 271.8701 h 12.65665 c 5.64488,0 8.46574,2.37263 8.46574,7.1163 0,3.85987 -2.7575,6.71558 -8.27726,8.5687 l 10.18582,13.98551 h -5.06203 l -9.43982,-13.34088 v -2.50884 c 5.67023,-0.90122 8.50534,-3.07903 8.50534,-6.5366 0,-2.73692 -1.57594,-4.10854 -4.72783,-4.10854 h -8.46733 v 26.49486 z m 37.41084,-29.67051 v 21.1224 c 0,5.69874 -3.35462,8.54653 -10.06386,8.54653 v -3.11071 c 4.14972,0 6.22458,-1.81511 6.22458,-5.43582 v -21.1224 z m 6.84704,28.63308 v -3.52885 c 3.11388,1.10712 6.47325,1.66306 10.08446,1.66306 5.10321,0 7.65639,-1.86896 7.65639,-5.60688 0,-3.17564 -1.88321,-4.77059 -5.64488,-4.77059 h -3.81711 c -6.21033,0 -9.31787,-2.69574 -9.31787,-8.09038 0,-5.67023 3.97866,-8.50851 11.93441,-8.50851 3.45599,0 6.67123,0.41814 9.64572,1.2465 v 3.52726 c -2.97449,-1.1087 -6.18973,-1.66147 -9.64572,-1.66147 -5.39622,0 -8.09354,1.79927 -8.09354,5.39622 0,3.1804 1.82461,4.7706 5.47541,4.7706 h 3.8187 c 6.31961,0 9.48258,2.6989 9.48258,8.09037 0,5.81278 -3.83136,8.71759 -11.49567,8.71759 -3.60963,0 -6.969,-0.41656 -10.08288,-1.24492 z"
     id="path81"
     inkscape:connector-curvature="0"
     style="fill:#cccccc;stroke-width:1.58386314" />
  <path
     d="m 696.4642,276.46014 v 24.11114 h -3.63021 v -29.6705 h 3.8377 l 18.15424,23.90049 v -23.90049 h 3.6318 v 29.6705 h -3.8377 z m 51.45496,22.94859 c -2.39163,0.91389 -4.97174,1.37004 -7.73875,1.37004 -10.74651,0 -16.12056,-5.15231 -16.12056,-15.4585 0,-9.75185 5.18715,-14.62856 15.56146,-14.62856 2.97449,0 5.7415,0.41655 8.29944,1.24808 v 3.31819 a 22.09489,22.09489 0 0 0 -7.88447,-1.45398 c -8.09196,0 -12.13714,3.84087 -12.13714,11.51468 0,8.23134 3.98341,12.3478 11.95183,12.3478 1.27025,0 2.68306,-0.16472 4.23366,-0.49892 v -10.08287 h 3.83612 z m 6.12164,-10.29036 v -18.21918 h 3.83611 v 18.2176 c 0,5.69874 2.83512,8.54969 8.50851,8.54969 5.67023,0 8.50535,-2.85095 8.50535,-8.54969 v -18.2176 h 3.83928 v 18.2176 c 0,7.77676 -4.11487,11.6604 -12.34463,11.6604 -8.22975,0 -12.34462,-3.88364 -12.34462,-11.6604 z m 35.37399,-18.21918 v 26.55822 h 15.52186 v 3.11229 h -19.35797 v -29.67051 z m 37.20336,17.22135 -5.53876,-13.447 -10.60397,25.89616 h -3.98341 l 14.7521,-33.58582 14.7521,33.58582 h -4.25584 l -3.8377,-9.33687 h -9.81203 l 1.0596,-3.11071 z m 13.42324,12.44916 v -29.66892 h 12.65665 c 5.64489,0 8.46417,2.37104 8.46417,7.11629 0,3.85829 -2.75592,6.71558 -8.27727,8.5687 l 10.18741,13.98551 h -5.06361 l -9.43824,-13.34087 v -2.51201 c 5.67023,-0.90122 8.50534,-3.07745 8.50534,-6.5366 0,-2.73692 -1.57753,-4.10696 -4.731,-4.10696 h -8.46575 v 26.49644 h -3.8377 z"
     id="path83"
     inkscape:connector-curvature="0"
     style="stroke-width:1.58386314" />
  <path
     d="m 877.45224,270.89919 v 21.1224 c 0,5.70033 -3.35462,8.54811 -10.06386,8.54811 v -3.11229 c 4.14972,0 6.22458,-1.81352 6.22458,-5.43582 v -21.1224 z m 6.84546,28.6315 v -3.52568 c 3.11387,1.10553 6.47325,1.66147 10.08445,1.66147 5.10321,0 7.6564,-1.86896 7.6564,-5.60371 0,-3.17881 -1.88163,-4.77218 -5.64489,-4.77218 h -3.81711 c -6.21033,0 -9.31787,-2.69732 -9.31787,-8.09354 0,-5.67023 3.97708,-8.50534 11.93441,-8.50534 3.45599,0 6.67282,0.41655 9.64573,1.24491 v 3.52885 c -2.9745,-1.1087 -6.18974,-1.66306 -9.64573,-1.66306 -5.39622,0 -8.09354,1.80086 -8.09354,5.39623 0,3.18039 1.82303,4.77059 5.47542,4.77059 h 3.81869 c 6.31961,0 9.48259,2.6989 9.48259,8.09354 0,5.80961 -3.82978,8.71442 -11.49568,8.71442 -3.60962,0 -6.969,-0.41656 -10.08287,-1.2465 z"
     id="path85"
     inkscape:connector-curvature="0"
     style="fill:#a6120d;stroke-width:1.58386314" />
  <path
     d="m 848.84609,316.40833 -1.40964,-4.28593 h -1.00258 l 1.94498,5.41523 a 26.048213,26.048213 0 0 1 -0.39597,0.94081 0.73808021,0.73808021 0 0 1 -0.19481,0.19798 0.63354524,0.63354524 0 0 1 -0.35954,0.0824 1.4096382,1.4096382 0 0 1 -0.18214,-0.0158 2.9713272,2.9713272 0 0 1 -0.33261,-0.0792 v 0.80777 c 0.0966,0.0254 0.18056,0.0428 0.24708,0.0523 0.0665,0.009 0.16314,0.0158 0.28826,0.0158 0.51001,0 0.86954,-0.1473 1.07861,-0.44348 0.20907,-0.29302 0.56861,-1.11187 1.0802,-2.45341 0.2154,-0.57019 0.48308,-1.30668 0.8046,-2.20949 0.42764,-1.20373 0.7064,-1.9719 0.82994,-2.31085 h -0.97724 z m -5.23308,0.35954 c -0.6383,0 -1.07386,-0.28826 -1.30669,-0.86796 -0.12513,-0.30727 -0.18531,-0.70957 -0.18531,-1.20373 0,-0.68423 0.15046,-1.17523 0.45457,-1.473 a 1.4729927,1.4729927 0 0 1 1.06118,-0.44665 c 0.46408,0 0.81411,0.18215 1.05327,0.54485 0.23758,0.36429 0.35796,0.82203 0.35796,1.3748 0,0.62245 -0.11879,1.12454 -0.35796,1.50308 -0.23758,0.38013 -0.5987,0.57019 -1.07702,0.57019 z m -2.30452,0.61454 h 0.81568 v -0.67156 c 0.1869,0.25342 0.36271,0.43556 0.52743,0.5496 0.27559,0.19323 0.61454,0.28985 1.01526,0.28985 0.71749,0 1.27659,-0.27559 1.68206,-0.8252 0.40389,-0.55118 0.60504,-1.24174 0.60504,-2.07327 0,-0.87746 -0.20274,-1.5411 -0.61296,-1.99092 -0.41022,-0.44982 -0.9424,-0.67472 -1.5997,-0.67472 a 1.9497355,1.9497355 0 0 0 -1.57436,0.77609 v -2.61813 h -0.85845 z"
     id="path87"
     inkscape:connector-curvature="0"
     style="stroke-width:1.58386314" />
  <path
     d="m 652.46924,248.0488 -34.65176,12.19575 5.47542,45.39985 29.21277,16.05562 29.36482,-16.27261 5.47225,-45.39827 z"
     id="path89"
     inkscape:connector-curvature="0"
     style="fill:#b3b3b3;stroke-width:1.58386314" />
  <path
     d="m 652.38846,317.86549 26.39666,-14.60956 5.10004,-40.60233 -31.4967,-10.74176 z"
     id="path91"
     inkscape:connector-curvature="0"
     style="fill:#a6120d;stroke-width:1.58386314" />
  <path
     d="m 652.38688,317.86549 v -65.95523 l -30.68101,10.93657 4.6914,40.60233 z"
     id="path93"
     inkscape:connector-curvature="0"
     style="fill:#dd1b16;stroke-width:1.58386314" />
  <path
     d="m 661.05694,287.02134 -8.66848,4.05469 h -9.13889 l -4.29544,10.74492 -7.99058,0.1473 21.42491,-47.66161 z m -0.83628,-2.0416 -7.77676,-15.39199 -6.37664,15.12748 h 6.31962 z"
     id="path95"
     inkscape:connector-curvature="0"
     style="fill:#f2f2f2;stroke-width:1.58386314" />
  <path
     d="m 659.68057,284.7279 h -7.27627 l -0.0158,6.33862 10.06228,0.01 4.70408,10.89381 7.64372,0.14254 -22.41166,-47.80574 0.0586,15.28111 z"
     id="path97"
     inkscape:connector-curvature="0"
     style="fill:#b3b3b3;stroke-width:1.58386314" />
  <path
     d="m 876.08062,313.57955 c 0,2.33303 -1.82461,4.05152 -4.0642,4.05152 -2.23958,0 -4.06419,-1.71849 -4.06419,-4.05152 0,-2.34887 1.82461,-4.05152 4.06419,-4.05152 2.23959,0 4.0642,1.70265 4.0642,4.05152 z m -1.77868,0 c 0,-1.45715 -1.05802,-2.45499 -2.28552,-2.45499 -1.22749,0 -2.28551,0.99784 -2.28551,2.45499 0,1.44132 1.05802,2.45499 2.28551,2.45499 1.2275,0 2.28552,-1.01367 2.28552,-2.45499 z m 10.54694,0 c 0,2.33303 -1.82461,4.05152 -4.06419,4.05152 -2.23958,0 -4.06419,-1.71849 -4.06419,-4.05152 0,-2.34728 1.82461,-4.05152 4.06419,-4.05152 2.23958,0 4.06419,1.70265 4.06419,4.05152 z m -1.77868,0 c 0,-1.45715 -1.05802,-2.45499 -2.28551,-2.45499 -1.22749,0 -2.28552,0.99784 -2.28552,2.45499 0,1.44132 1.05803,2.45499 2.28552,2.45499 1.22749,0 2.28551,-1.01367 2.28551,-2.45499 z m 10.18108,-3.8076 v 7.27468 c 0,2.99192 -1.76443,4.21307 -3.85038,4.21307 -1.96399,0 -3.14555,-1.31302 -3.59061,-2.38688 l 1.54901,-0.64463 c 0.2756,0.65889 0.95032,1.43815 2.04002,1.43815 1.3352,0 2.16197,-0.82361 2.16197,-2.3758 v -0.58286 h -0.0618 c -0.39755,0.491 -1.16572,0.92181 -2.13346,0.92181 -2.02576,0 -3.88047,-1.76442 -3.88047,-4.03568 0,-2.2871 1.85471,-4.06578 3.88047,-4.06578 0.96616,0 1.73433,0.42764 2.13346,0.90597 h 0.0634 v -0.66047 h 1.6884 z m -1.56328,3.82186 c 0,-1.42548 -0.9519,-2.47083 -2.16355,-2.47083 -1.2275,0 -2.25543,1.04535 -2.25543,2.47083 0,1.41122 1.02952,2.43915 2.25543,2.43915 1.21165,0 2.16355,-1.02793 2.16355,-2.43915 z m 4.34929,-8.08562 v 11.87422 h -1.73591 v -11.87422 z m 6.7631,9.40498 1.37954,0.91864 a 4.0325155,4.0325155 0 0 1 -3.37363,1.79768 c -2.30293,0 -4.02301,-1.78026 -4.02301,-4.05152 0,-2.41064 1.73433,-4.05152 3.82186,-4.05152 2.10337,0 3.1313,1.67256 3.46866,2.57694 l 0.18373,0.45932 -5.41681,2.24434 c 0.41497,0.81252 1.06119,1.22749 1.96399,1.22749 0.90597,0 1.53476,-0.44665 1.99567,-1.12137 z m -4.25109,-1.45716 3.62071,-1.50467 c -0.19957,-0.50684 -0.79827,-0.85845 -1.50467,-0.85845 -0.9028,0 -2.16197,0.79826 -2.11604,2.36154 z m -37.16535,-0.93131 v -1.71849 h 5.79219 c 0.0554,0.30093 0.0855,0.65413 0.0855,1.03743 0,1.28926 -0.35321,2.88421 -1.48884,4.02143 -1.10553,1.14988 -2.51834,1.76442 -4.3873,1.76442 -3.46866,0 -6.38296,-2.82403 -6.38296,-6.2911 0,-3.46866 2.9143,-6.29111 6.38296,-6.29111 1.91648,0 3.28335,0.75234 4.3097,1.73275 l -1.21166,1.21324 a 4.3809654,4.3809654 0 0 0 -3.1012,-1.2275 c -2.53102,0 -4.51085,2.04002 -4.51085,4.57262 0,2.53101 1.97983,4.57103 4.51085,4.57103 1.64246,0 2.57853,-0.65889 3.17723,-1.25759 0.48624,-0.48625 0.80618,-1.17998 0.93131,-2.12871 l -4.10854,0.002 z"
     id="path99"
     inkscape:connector-curvature="0"
     style="stroke-width:1.58386314" />
  <text
     style="font-weight:400;font-size:9.42873764px;line-height:10.47659397px;font-family:'Noto Color Emoji';-inkscape-font-specification:'Noto Color Emoji';text-align:start;letter-spacing:0;word-spacing:0;stroke-width:0.41972369"
     x="20.73912"
     y="32.774883"
     font-weight="400"
     font-size="5.953"
     letter-spacing="0"
     word-spacing="0"
     id="text103">
    <tspan
       x="20.73912"
       y="32.774883"
       style="font-size:26.81955528px;font-family:Lato;-inkscape-font-specification:Lato;stroke-width:0.41972369"
       font-size="16.933"
       id="tspan101">Back-end</tspan>
  </text>
  <path
     d="M 397.92026,143.30635 H 535.61182"
     id="path105"
     inkscape:connector-curvature="0"
     style="fill:none;stroke:#000000;stroke-width:3.16772628;marker-end:url(#h)" />
  <path
     d="M 533.89966,207.66979 H 396.20811"
     id="path107"
     inkscape:connector-curvature="0"
     style="fill:none;stroke:#000000;stroke-width:3.16772628;marker-end:url(#i)" />
  <text
     y="255.56265"
     x="415.82901"
     style="font-weight:400;font-size:9.42873764px;line-height:10.47659397px;font-family:'Noto Color Emoji';-inkscape-font-specification:'Noto Color Emoji';text-align:start;letter-spacing:0;word-spacing:0;stroke-width:0.41972369"
     font-weight="400"
     font-size="5.953"
     letter-spacing="0"
     word-spacing="0"
     id="text111">
    <tspan
       style="font-size:26.81955528px;font-family:Lato;-inkscape-font-specification:Lato;stroke-width:0.41972369"
       y="255.56265"
       x="415.82901"
       font-size="16.933"
       id="tspan109">Ajax call</tspan>
  </text>
  <text
     style="font-weight:400;font-size:9.42873764px;line-height:10.47659397px;font-family:'Noto Color Emoji';-inkscape-font-specification:'Noto Color Emoji';text-align:start;letter-spacing:0;word-spacing:0;stroke-width:0.41972369"
     x="400.41168"
     y="113.99696"
     font-weight="400"
     font-size="5.953"
     letter-spacing="0"
     word-spacing="0"
     id="text115">
    <tspan
       x="400.41168"
       y="113.99696"
       style="font-size:26.81955528px;font-family:Lato;-inkscape-font-specification:Lato;stroke-width:0.41972369"
       font-size="16.933"
       id="tspan113">Return json</tspan>
  </text>
  <text
     y="32.774883"
     x="591.61725"
     style="font-weight:400;font-size:9.42873764px;line-height:10.47659397px;font-family:'Noto Color Emoji';-inkscape-font-specification:'Noto Color Emoji';text-align:start;letter-spacing:0;word-spacing:0;stroke-width:0.41972369"
     font-weight="400"
     font-size="5.953"
     letter-spacing="0"
     word-spacing="0"
     id="text119">
    <tspan
       style="font-size:26.81955528px;font-family:Lato;-inkscape-font-specification:Lato;stroke-width:0.41972369"
       y="32.774883"
       x="591.61725"
       font-size="16.933"
       id="tspan117">Front-end</tspan>
  </text>
  <text
     y="133.61945"
     x="195.30299"
     style="font-weight:400;font-size:9.42873764px;line-height:20.95318985px;font-family:'Noto Color Emoji';-inkscape-font-specification:'Noto Color Emoji';text-align:center;letter-spacing:0;word-spacing:0;text-anchor:middle;stroke-width:0.41972369"
     font-weight="400"
     font-size="5.953"
     letter-spacing="0"
     word-spacing="0"
     id="text125">
    <tspan
       style="font-size:26.81955528px;line-height:20.95318985px;font-family:Lato;-inkscape-font-specification:Lato;text-align:center;stroke-width:0.41972369"
       y="133.61945"
       x="195.30299"
       font-size="16.933"
       id="tspan121">Data:</tspan>
    <tspan
       style="font-size:26.81955528px;line-height:20.95318985px;font-family:Lato;-inkscape-font-specification:Lato;text-align:center;stroke-width:0.41972369"
       y="160.30437"
       x="195.30299"
       font-size="16.933"
       id="tspan123">{Ingredients, Recipes}</tspan>
  </text>
</svg>
