<svg width="16" height="16" version="1.1" viewBox="0 0 16 17" xmlns="http://www.w3.org/2000/svg">
 <g transform="translate(-19 -125)">
  <path d="m26 142c-0.73-0.24-0.2-0.85-4e-3 -1.2v-2.1c-0.25 0.03-0.62-0.06-0.79 0.045 0.088 0.6-0.46 0.94-0.81 1.3 0.48 1-1.5 1-0.9-0.014 0.34-0.37 0.86-0.019 1.1-0.56 0.7-0.38 0.022-1.7 0.63-1.8 0.1 0.29-0.21 0.92 0.32 0.76 0.31 0.041 0.57 0.022 0.46-0.36v-1.1h-1.5c-0.073 0.35 0.2 1.1-0.21 1.1-0.16-0.37 0.014-0.86-0.093-1.2-0.19-0.15-0.37-0.54-0.56-0.17-0.82 0.82-1.6 1.6-2.5 2.5 0.46 0.87-1.2 1.1-0.98 0.15 0.14-0.63 0.83-0.097 1.1-0.58 0.8-0.8 1.6-1.6 2.4-2.4-0.21-0.17-0.35-0.49-0.67-0.4-0.32 0.063-1.4-0.058-0.68-0.27 0.23-0.13 0.92 0.21 0.88-0.19v-1.3h-1.5c0.032 0.24-0.062 0.61 0.045 0.77 0.37-0.11 1.2 0.16 0.38 0.25-0.65-6e-3 -1.3 8e-3 -1.7 0.61-0.31 0.27 0.06 1.1-0.68 0.97-0.9-0.17-0.29-1.4 0.38-1 0.37-0.36 0.73-0.85 1.3-0.79 0.08-0.2 0.011-0.54 0.034-0.79h-2.2c-0.26 0.86-1.5 0.071-0.87-0.53 0.54-0.49 0.72 0.42 1.2 0.26h1.9c-0.031-0.25 0.061-0.61-0.045-0.79-0.59 0.062-0.95-0.45-1.3-0.82-1.1 0.5-0.95-1.6 0.066-0.85 0.21 0.41 0.052 0.85 0.56 1.1 0.39 0.62 1.6-0.031 1.8 0.57-0.29 0.1-0.92-0.21-0.76 0.32-0.041 0.31-0.022 0.57 0.36 0.46h1.1v-1.5c-0.38-0.042-0.84 0.1-1.2-0.1 0.16-0.36 0.78-0.1 1.1-0.17 0.14-0.052 0.59-0.34 0.39-0.49-0.85-0.85-1.7-1.7-2.6-2.6-0.87 0.46-1.1-1.2-0.15-0.98 0.63 0.14 0.097 0.83 0.58 1.1 0.8 0.8 1.6 1.6 2.4 2.4 0.17-0.21 0.49-0.35 0.4-0.67-0.077-0.36 0.092-1.4 0.27-0.63 0.11 0.24-0.22 0.92 0.23 0.83h1.3v-1.5c-0.24 0.032-0.61-0.062-0.77 0.045 0.11 0.38-0.17 1.2-0.25 0.37 0.011-0.65-0.016-1.3-0.61-1.7-0.27-0.3-1 0.078-0.97-0.65 0.1-0.89 1.4-0.37 1 0.34 0.36 0.39 0.88 0.75 0.78 1.3 0.25-0.03 0.62 0.06 0.79-0.045v-2.2c-0.88-0.27-0.021-1.6 0.56-0.84 0.41 0.54-0.45 0.7-0.29 1.2v1.9c0.25-0.03 0.62 0.06 0.79-0.045-0.088-0.6 0.46-0.94 0.81-1.3-0.48-1 1.5-1 0.9 0.014-0.34 0.37-0.86 0.019-1.1 0.56-0.68 0.4-0.058 1.5-0.59 1.9-0.22-0.21 0.21-0.94-0.32-0.79-0.28-5e-3 -0.63-0.083-0.5 0.32v1.1h1.5c0.073-0.35-0.2-1.1 0.21-1.1 0.16 0.37-0.014 0.86 0.093 1.2 0.19 0.15 0.37 0.54 0.56 0.17 0.82-0.82 1.6-1.6 2.5-2.5-0.46-0.87 1.2-1.1 0.98-0.15-0.14 0.63-0.83 0.097-1.1 0.58-0.8 0.8-1.6 1.6-2.4 2.4 0.21 0.17 0.35 0.49 0.67 0.4 0.32-0.063 1.4 0.058 0.68 0.27-0.23 0.13-0.92-0.21-0.88 0.19v1.3h1.5c-0.032-0.24 0.062-0.61-0.045-0.77-0.37 0.11-1.2-0.16-0.38-0.25 0.65 6e-3 1.3-8e-3 1.7-0.61 0.31-0.27-0.067-1.1 0.68-0.97 0.9 0.17 0.3 1.4-0.37 1-0.37 0.36-0.73 0.85-1.3 0.79-0.08 0.2-0.011 0.54-0.034 0.79h2.2c0.26-0.86 1.5-0.071 0.87 0.53-0.54 0.49-0.72-0.42-1.2-0.26h-1.9c0.031 0.25-0.061 0.61 0.045 0.79 0.59-0.062 0.95 0.45 1.3 0.82 1.1-0.51 0.91 1.6-0.074 0.85-0.19-0.42-0.051-0.85-0.55-1.1-0.39-0.62-1.6 0.031-1.8-0.57 0.29-0.1 0.92 0.21 0.76-0.32 0.041-0.31 0.022-0.57-0.36-0.46h-1.1v1.5c0.38 0.042 0.84-0.1 1.2 0.1-0.16 0.36-0.78 0.1-1.1 0.17-0.14 0.052-0.59 0.34-0.39 0.49 0.85 0.85 1.7 1.7 2.6 2.6 0.87-0.46 1.1 1.2 0.15 0.98-0.63-0.14-0.097-0.83-0.58-1.1-0.8-0.8-1.6-1.6-2.4-2.4-0.17 0.21-0.49 0.35-0.4 0.67 0.077 0.36-0.092 1.4-0.27 0.63-0.11-0.24 0.22-0.92-0.23-0.83h-1.3v1.5c0.24-0.032 0.61 0.062 0.77-0.045-0.11-0.38 0.17-1.2 0.25-0.37-0.011 0.65 0.016 1.3 0.61 1.7 0.27 0.3 1-0.078 0.97 0.65-0.1 0.89-1.4 0.37-1-0.34-0.36-0.39-0.88-0.75-0.78-1.3-0.25 0.03-0.62-0.06-0.79 0.045v2.2c0.64 0.19 0.41 1.2-0.27 1zm0.25-0.27c0.62-0.56-0.8-0.65-0.26-0.02l0.13 0.044zm-2.1-1.2c0.2-1.2-1.1 0.3 0 0zm4.4 9e-3c0.39-0.66-0.91-0.42-0.29 0.05 0.096 0.04 0.22 0.026 0.29-0.05zm-7.7-0.9c0.46-0.64-0.9-0.47-0.27 0.048 0.089 0.045 0.2 0.017 0.27-0.048zm11-0.012c0.4-0.71-0.94-0.36-0.26 0.065 0.091 0.038 0.2 5e-3 0.26-0.065zm-4.9-3.1c0.096-0.35-0.42-0.12-0.62-0.18-0.74-0.046-1.6 0.19-2.2-0.46-0.35-0.21-0.07-0.98-0.57-0.84-0.21 0.057-0.041 0.49-0.11 0.69 0.33 0.33 0.67 0.67 1 1 0.82-5e-3 1.6-9e-3 2.5-0.014 0.0027-0.062 0.0054-0.12 0.0081-0.18zm1.4-0.3c0.19-0.25 0.59-0.41 0.5-0.77-0.0042-0.73-0.0084-1.5-0.013-2.2-0.34-0.098-0.44 0.059-0.37 0.39-0.043 0.7 0.14 1.5-0.2 2.1-0.15 0.53-0.97 0.4-1.1 0.73-0.052 0.36 0.69 0.33 0.86 0.078 0.11-0.11 0.23-0.23 0.34-0.34zm-8.4 0.17c0.37-0.63-0.9-0.4-0.31 0.058 0.098 0.037 0.24 0.049 0.31-0.058zm13 0.028c0.44-0.65-0.88-0.47-0.29 0.04 0.094 0.02 0.21 0.033 0.29-0.04zm-5-0.46c0.45-0.19 0.59-0.68 0.53-1.1-0.013-0.73 0.026-1.5-0.019-2.2-0.16-0.46-0.62-0.76-1.1-0.67-0.76 0.013-1.5-0.026-2.3 0.019-0.46 0.16-0.76 0.62-0.67 1.1 0.013 0.76-0.026 1.5 0.019 2.3 0.22 0.76 1.1 0.7 1.7 0.68 0.56-0.018 1.1 0.023 1.7-0.027 0.047-0.023 0.094-0.046 0.14-0.069zm-3.3-0.78c0.11-0.7 0.62-1.4 0.91-2 0.44-0.89 0.77 0.77 1.1 1.1 0.19 0.24 0.61 1.3 0.068 0.73-0.18-0.29-0.23-0.78-0.68-0.63-0.26 0.027-0.58-0.054-0.8 0.04-0.19 0.23-0.24 0.83-0.58 0.78zm1.4-1.5c-0.12-0.25-0.24-0.64-0.36-0.16-0.24 0.38-0.4 0.76 0.24 0.61 0.46 0.11 0.29-0.17 0.13-0.44zm1.7 1.5c-0.044-0.76-0.12-1.6 0.043-2.3 0.4 0.28 0.092 1.3 0.19 1.8-0.042 0.13 0.098 0.79-0.23 0.53zm-3.6-1.3c0.0039-0.69-0.11-1.6 0.61-2 0.3-0.15 0.94-0.13 0.64-0.55-0.29 0.028-0.65-0.13-0.83 0.18-0.26 0.29-0.6 0.54-0.81 0.85 0.0046 0.8-0.013 1.6 0.018 2.4 0.48 0.2 0.36-0.27 0.36-0.57 1.8e-5 -0.12 7.8e-5 -0.23 5.8e-5 -0.35zm-4.9 0.37c0.32-1.2-1.2 0.21 0 0zm15-0.014c0.41-0.67-0.93-0.39-0.26 0.075 0.091 0.048 0.2-6e-3 0.26-0.075zm-4.9-1.5c0.096-0.32-0.13-0.5-0.34-0.69-0.24-0.21-0.44-0.5-0.7-0.65-0.81 5e-3 -1.6 9e-3 -2.4 0.014-0.098 0.34 0.059 0.44 0.39 0.37 0.71 0.045 1.5-0.14 2.1 0.21 0.52 0.15 0.38 0.98 0.71 1.1 0.33 0.056 0.21-0.12 0.23-0.35zm-8.9-0.65c0.39-0.68-0.93-0.36-0.26 0.065 0.091 0.038 0.2 5e-3 0.26-0.065zm13 0.012c0.45-0.63-0.89-0.44-0.27 0.047 0.089 0.045 0.2 0.017 0.27-0.047zm-12-3.2c0.4-0.73-0.95-0.37-0.25 0.062l0.14-0.011zm11-0.032c0.35-0.74-1-0.25-0.23 0.095l0.12-0.016zm-7.6-0.9c0.4-0.68-0.93-0.4-0.27 0.063 0.091 0.043 0.2 9e-3 0.27-0.063zm4.4 4e-3c0.43-0.63-0.91-0.46-0.27 0.057 0.092 0.046 0.2 0.011 0.27-0.057zm-2.2-1.1c0.43-0.66-0.94-0.41-0.27 0.068 0.091 0.058 0.21 8e-3 0.27-0.068zm-4.2 14c-0.85-0.41-0.071-1.2 0.53-1.1 0.26-0.29 0.6-0.54 0.82-0.85-0.043-0.45 0.5-0.86 0.3-0.16-0.0069 0.44-0.43 0.65-0.68 0.96-0.45 0.24-0.24 0.63-0.45 0.99-0.13 0.14-0.34 0.21-0.52 0.15zm0.35-0.34c0.32-0.7-0.94-0.31-0.28 0.085 0.098 0.015 0.21-6e-3 0.28-0.085zm7.4 0.34c-0.63-0.14-0.12-0.8-0.58-1-0.23-0.26-0.53-0.49-0.72-0.77-0.21-0.36-0.013-1.1 0.19-0.37 0.016 0.41 0.45 0.59 0.67 0.89 0.29 0.49 1.3 0.054 1.1 0.97-0.086 0.24-0.38 0.39-0.62 0.32zm0.3-0.31c0.46-0.62-0.88-0.46-0.28 0.043 0.091 0.046 0.21 0.024 0.28-0.043zm-4.8 0.25c-0.25-0.4 0.23-1.3 0.22-0.5-0.03 0.15 0.1 0.67-0.22 0.5zm1.3 5e-3c-0.14-0.21-0.0094-1.3 0.2-0.63-0.041 0.17 0.15 0.78-0.2 0.63zm-6.9-2.2c-0.71-0.43 0.018-1.2 0.56-1 0.33-0.3 0.62-0.65 0.96-0.91 0.36-0.21 1.1-0.013 0.36 0.19-0.41 0.025-0.6 0.45-0.9 0.68-0.48 0.21-0.068 0.72-0.45 1-0.16 0.11-0.37 0.12-0.54 0.043zm0.33-0.23c0.63-0.41-0.65-0.76-0.3-0.082 0.062 0.09 0.2 0.16 0.3 0.082zm12 0.23c-0.47-0.26-0.012-0.83-0.53-1.1-0.29-0.23-0.47-0.64-0.88-0.66-0.76-0.18-0.039-0.42 0.33-0.2 0.35 0.21 0.61 0.58 0.92 0.85 0.29 0.24 1.1-0.011 0.92 0.72-0.069 0.33-0.46 0.52-0.76 0.35zm0.44-0.3c0.38-0.73-1-0.27-0.22 0.095 0.084 0.013 0.16-0.035 0.22-0.095zm-13-3.3c-0.14-0.52 1.5-0.068 0.55 0.032-0.18-5e-3 -0.37 0.018-0.55-0.032zm12 0c-0.14-0.52 1.5-0.068 0.55 0.032-0.18-5e-3 -0.37 0.018-0.55-0.032zm-12-1.3c-0.14-0.52 1.5-0.068 0.55 0.032-0.18-5e-3 -0.37 0.018-0.55-0.032zm12 0c-0.14-0.52 1.5-0.068 0.55 0.032-0.18-5e-3 -0.37 0.018-0.55-0.032zm-10-1.8c-0.43-0.016-0.63-0.43-0.94-0.68-0.23-0.45-0.62-0.24-0.97-0.43-0.74-0.73 0.9-1.4 0.88-0.36-0.12 0.47 0.5 0.7 0.74 1 0.17 0.2 1.1 0.29 0.52 0.47l-0.11-0.024zm-1.4-1.3c0.6-0.7-0.93-0.47-0.19 0.022l0.093 6e-3zm10 1.3c-0.051-0.39 0.69-0.18 0.83-0.56 0.36-0.35 0.77-0.66 0.69-1.2 0.58-0.99 1.6 0.71 0.45 0.77-0.34-0.2-0.49 0.25-0.73 0.41-0.25 0.23-0.45 0.56-0.82 0.56-0.13-0.018-0.32 0.16-0.42 0.028zm2.2-1.3c0.39-0.71-0.95-0.36-0.26 0.068 0.092 0.031 0.2 2e-3 0.26-0.068zm-8.8-0.46c-0.11-0.33-0.12-0.68-0.45-0.88-0.33-0.48-0.77-0.61-1.3-0.71-0.77-0.89 1.2-1.3 0.86-0.19 0.021 0.23 0.35 0.39 0.49 0.59 0.22 0.24 0.53 0.43 0.53 0.8 0.043 0.13 0.14 0.58-0.15 0.39zm-1.2-1.8c0.32-0.85-1-0.086-0.14 0.092l0.072-0.032zm6 1.8c-0.01-0.3 0.016-0.72 0.29-0.92 0.26-0.26 0.52-0.53 0.78-0.79-0.47-1 1.5-0.94 0.9 0.039-0.46 0.26-1 0.22-1.3 0.78-0.27 0.19-0.37 0.47-0.42 0.79 6e-3 0.11-0.14 0.23-0.23 0.11zm1.6-1.7c0.63-0.51-0.76-0.68-0.26-0.03 0.07 0.06 0.18 0.096 0.26 0.03zm-4.7 0.14c-0.19-0.3 0.12-1.3 0.21-0.55-0.042 0.16 0.12 0.7-0.21 0.55zm1.4 4e-3c-0.21-0.28 0.088-1.4 0.2-0.56-0.043 0.14 0.12 0.7-0.2 0.56z" stroke-width=".027"/>
 </g>
</svg>
