<svg width="16" height="16" version="1.1" viewBox="0 0 16 17" xmlns="http://www.w3.org/2000/svg">
 <g transform="translate(-19 -125)">
  <g transform="matrix(.33 0 0 .33 18 126)" fill="none" fill-rule="evenodd">
   <g fill-rule="nonzero">
    <path d="m6.5 0h36c3.6 0 6.5 2.9 6.5 6.5v37c0 3.6-2.9 6.5-6.5 6.5h-36c-3.6 0-6.5-2.9-6.5-6.5v-37c0-3.6 2.9-6.5 6.5-6.5" fill="#5468ff"/>
    <path d="m30 11v-1.7c0-1.2-0.96-2.2-2.1-2.2h-5a2.1 2.1 0 0 0-2.1 2.2v1.7c0 0.2 0.18 0.33 0.38 0.28a16 16 0 0 1 4.4-0.62c1.4 0 2.8 0.19 4.2 0.57a0.29 0.29 0 0 0 0.36-0.28m-14 2.2-0.85-0.86a2.1 2.1 0 0 0-3 0l-1 1a2.1 2.1 0 0 0 0 3l0.84 0.84c0.14 0.13 0.33 0.1 0.45-0.031a16 16 0 0 1 1.6-1.9 16 16 0 0 1 1.9-1.7c0.15-0.09 0.16-0.3 0.045-0.44m9.1 5.4v7.4c0 0.21 0.23 0.36 0.42 0.26l6.5-3.4c0.15-0.074 0.19-0.26 0.12-0.4a8.1 8.1 0 0 0-6.8-4.1c-0.15 0-0.3 0.12-0.3 0.28m0 18c-5.4 0-9.8-4.4-9.8-9.9s4.4-9.9 9.8-9.9c5.4 0 9.8 4.4 9.8 9.9s-4.4 9.9-9.8 9.9m0-24c-7.7 0-14 6.3-14 14 0 7.7 6.3 14 14 14s14-6.3 14-14c0-7.7-6.2-14-14-14" fill="#fff"/>
   </g>
  </g>
 </g>
</svg>
