<svg width="16" height="16" version="1.1" viewBox="0 0 16 17" xmlns="http://www.w3.org/2000/svg">
 <g transform="translate(-19 -125)">
  <path d="m26 126c-0.63 0.083-1.2 0.14-1.9 0.32-2.1 0.62-3.8 2.1-4.8 4-1.6 3.1-0.99 7 1.6 9.4 1.1 1 2.5 1.7 4 2 0.83 0.18 1.7 0.23 2.6 0.11 0.96-0.14 1.9-0.4 2.8-0.86 2.3-1.2 4-3.6 4.3-6.3 0.38-4-2.4-7.8-6.4-8.6-0.67-0.13-1.4-0.24-2.1-0.15m1.1 6.7h1.6c0.19 0 0.46-0.052 0.58 0.13 0.11 0.17-0.0035 0.36-0.095 0.51-0.22 0.36-0.43 0.72-0.65 1.1-0.65 1-1.3 2.1-1.9 3.1l-0.52 0.86c-0.056 0.094-0.13 0.28-0.23 0.33-0.15 0.067-0.43 0.013-0.59 0.013l0.37-2.3 0.2-1.3h-1.5c-0.18 0-0.45 0.05-0.59-0.11-0.094-0.12-0.059-0.28 0.0028-0.4 0.15-0.29 0.35-0.57 0.52-0.86 0.71-1.2 1.5-2.4 2.2-3.6 0.15-0.24 0.3-0.48 0.45-0.73 0.058-0.098 0.12-0.26 0.22-0.32 0.072-0.043 0.19-0.022 0.27-0.022 0.08 0 0.24-0.031 0.31 0.022 0.064 0.051 0.015 0.17-4.8e-4 0.24-0.051 0.21-0.074 0.43-0.11 0.64l-0.29 1.7c-0.054 0.32-0.15 0.66-0.16 0.99z" fill="#0878c6"/>
 </g>
</svg>
