<svg width="16" height="16" version="1.1" viewBox="0 0 16 17" xmlns="http://www.w3.org/2000/svg">
 <g transform="translate(-19 -125)">
  <path d="m26 125-7.8 2.8 1.2 10 6.6 3.6 6.6-3.7 1.2-10z" fill="#b3b3b3"/>
  <path d="m34 129-7.1-2.4v15l6-3.3z" fill="#a6120d"/>
  <path d="m19 129 1.1 9.2 5.9 3.3v-15l-6.9 2.5z" fill="#dd1b16"/>
  <path d="m28 134-2 0.92h-2.1l-0.97 2.4-1.8 0.033 4.8-11zm-0.19-0.46-1.8-3.5-1.4 3.4h1.4z" fill="#f2f2f2"/>
  <path d="m26 127 0.012 3.5 1.6 3.4h-1.6l-3e-3 1.4 2.3 2e-3 1.1 2.5 1.7 0.032z" fill="#b3b3b3"/>
 </g>
</svg>
