<svg width="16" height="16" version="1.1" viewBox="0 0 15.72 16.652" xmlns="http://www.w3.org/2000/svg">
 <g transform="translate(-18.598 -125.39)">
  <path d="m25.758 141.68c0-0.0149-0.09613-0.0376-0.21363-0.0486-0.73622-0.0687-1.7152-0.36384-2.5129-0.75747-0.81533-0.40236-1.376-0.79857-2.0361-1.4389-1.1845-1.149-1.9467-2.5739-2.2609-4.2265-0.03777-0.19872-0.06868-0.41323-0.06868-0.4767 0-0.0635-0.01497-0.11544-0.03345-0.11544-0.02141 0-0.03345-0.30107-0.03345-0.83635 0-0.53526 0.01197-0.83634 0.03345-0.83634 0.01834 0 0.03345-0.0502 0.03345-0.11132 0-0.15828 0.11819-0.78775 0.21608-1.1507 0.34594-1.2826 1.0974-2.5664 2.0588-3.5173 0.93537-0.92519 2.0664-1.5974 3.3287-1.9784 0.34733-0.10477 1.1525-0.26763 1.3237-0.26763 0.05398 0 0.09813-0.0149 0.09813-0.0335 0-0.0213 0.30108-0.0335 0.83634-0.0335 0.53526 0 0.83634 0.0112 0.83634 0.0335 0 0.0188 0.05192 0.0335 0.11538 0.0335 0.1705 0 0.78597 0.12256 1.206 0.24014 2.5247 0.7067 4.5724 2.6717 5.38 5.1627 0.16485 0.50851 0.32374 1.2348 0.32384 1.4803 2.4e-5 0.0598 0.01516 0.1087 0.03349 0.1087 0.02144 0 0.03345 0.31223 0.03345 0.86979 0 0.55757-0.01197 0.8698-0.03345 0.8698-0.01834 0-0.03345 0.052-0.03345 0.11543 0 0.0635-0.03101 0.278-0.06887 0.47671-0.29977 1.5726-1.0581 3.0078-2.1841 4.1338-1.1944 1.1944-2.8558 2.0299-4.4378 2.2317-0.1748 0.0223-0.34395 0.0541-0.3759 0.0707-0.07386 0.0385-1.5644 0.0401-1.5644 2e-3zm-1.4236-5.1875c0.71041-0.1949 1.3902-0.66818 1.9292-1.3432 0.13119-0.16428 0.24994-0.29868 0.2639-0.29868 0.01403 0 0.13072 0.13172 0.25946 0.29271 0.60865 0.76116 1.3217 1.2276 2.1346 1.3964 0.33144 0.0688 0.9229 0.0718 1.2363 6e-3 1.4316-0.29968 2.3986-1.5298 2.3139-2.9435-0.0739-1.2339-0.93945-2.2466-2.1974-2.5711-0.40192-0.10365-1.0339-0.10346-1.455 7.4e-4 -0.77658 0.19197-1.5586 0.7401-2.1237 1.4885-0.07851 0.10402-0.15419 0.18907-0.16816 0.18907-0.01403 0-0.08966-0.0851-0.16816-0.18907-0.98042-1.2986-2.4095-1.8489-3.7459-1.4426-0.32262 0.098-0.76714 0.33903-1.025 0.55557-0.61008 0.5124-0.96235 1.2023-1.0058 1.97-0.07466 1.3174 0.73253 2.4586 2.0278 2.8669 0.49678 0.1566 1.201 0.16558 1.7241 0.022zm-1.0687-0.90488c-0.7786-0.0894-1.4476-0.65094-1.6408-1.377-0.05566-0.20915-0.06186-0.61605-0.01272-0.83196 0.06393-0.28049 0.25409-0.60979 0.48777-0.8446 0.70514-0.70862 1.762-0.7777 2.6707-0.17458 0.35942 0.23857 0.82549 0.76197 1.0737 1.2058 0.11708 0.20934 0.11759 0.21205 0.06147 0.32173-0.14081 0.27517-0.47583 0.71247-0.74274 0.96947-0.32104 0.30912-0.58806 0.48664-0.91965 0.61146-0.19393 0.073-0.29699 0.0932-0.67662 0.13247-0.0552 6e-3 -0.19069 0-0.30109-0.0132zm1.1347-1.5267c0.04208-0.0168 0.05291-0.0744 0.05291-0.28435v-0.26405h-1.7318l-0.02016 0.0752c-0.01104 0.0413-0.02038 0.14576-0.02063 0.23179-7.68e-4 0.26368-0.0077 0.26165 0.88572 0.26165 0.42957 0 0.80485-0.01 0.83396-0.0202zm4.886 1.5252c-0.285-0.0385-0.5963-0.14892-0.86879-0.30804-0.40744-0.23804-1.0212-0.91134-1.2683-1.3913-0.05641-0.10964-0.05584-0.11319 0.049-0.3011 0.25183-0.45151 0.72905-0.98869 1.0937-1.2311 0.38119-0.25338 0.87784-0.41518 1.27-0.41378 0.26717 9.1e-4 0.6134 0.0912 0.90788 0.23621 1.0826 0.53365 1.3492 1.9084 0.54041 2.7865-0.43428 0.47152-1.0898 0.70828-1.7239 0.62264zm0.45965-1.2122 0.0097-0.276 0.18399-7e-3c0.1012-4e-3 0.23292-0.0169 0.29272-0.0266l0.10872-0.0187v-0.53222h-0.26094c-0.15834 0-0.27672-0.0149-0.30109-0.0403-0.0244-0.0244-0.04015-0.14295-0.04015-0.30245v-0.26228l-0.55199 0.02-0.0099 0.26661c-6e-3 0.16129-0.02582 0.27672-0.05018 0.29221-0.02216 0.0149-0.14781 0.0258-0.27924 0.026-0.27375 5.9e-4 -0.27957 6e-3 -0.27957 0.28522 0 0.2489 0.04373 0.284 0.35365 0.284h0.24852v0.26206c0 0.14407 0.01011 0.27209 0.0223 0.28435 0.01235 0.0132 0.13961 0.0223 0.283 0.0223h0.2607z" fill="#11959b" stroke-width=".033454"/>
 </g>
</svg>
