<svg
   xmlns="http://www.w3.org/2000/svg"
   version="1.1"
   viewBox="0 0 19.02116 11.313456"
   height="16"
   width="22">
  <g
     transform="translate(-22.995373,-100.84328)"
     id="layer1">
    <path
       id="path358"
       d="m 30.781338,112.11388 c -2.15199,-0.288 -4.239981,-1.068 -5.963973,-2.22799 -0.877997,-0.591 -1.821992,-1.378 -1.821992,-1.52 0,-0.203 0.200999,-0.15 0.968995,0.253 2.149991,1.129 4.151982,1.75199 6.615971,2.05899 0.919996,0.114 3.002987,0.129 3.919983,0.028 1.550993,-0.171 3.219986,-0.57199 4.56398,-1.09599 0.377998,-0.148 0.802996,-0.27 0.943995,-0.274 0.222,-0.004 0.259999,0.015 0.277999,0.144 0.028,0.198 -0.104999,0.334 -0.688997,0.70799 -1.335994,0.856 -2.911987,1.453 -4.779978,1.811 -0.555998,0.107 -1.007996,0.14 -2.145991,0.155 -0.792997,0.01 -1.643993,-0.007 -1.889992,-0.04 z m 9.748957,-0.75 c -0.017,-0.027 0.054,-0.265 0.158,-0.529 0.435998,-1.10599 0.546997,-1.80499 0.319998,-2.01099 -0.169999,-0.154 -0.902996,-0.199 -1.753992,-0.107 -0.379998,0.041 -0.718997,0.058 -0.752997,0.036 -0.218999,-0.135 0.461998,-0.538 1.198995,-0.71 0.546997,-0.127 1.809992,-0.103 2.101991,0.04 0.178999,0.089 0.193999,0.124 0.211999,0.491 0.037,0.78 -0.387999,1.88899 -0.952996,2.48599 -0.315999,0.334 -0.460998,0.417 -0.530998,0.304 z"
       style="fill:#fe9904;stroke-width:0.99999553" />
    <path
       id="path360"
       d="m 25.103363,106.6729 a 1.4259937,1.4259937 0 0 1 -0.870996,-0.46 c -0.289999,-0.302 -0.419998,-0.655 -0.425998,-1.14799 -0.008,-0.742 0.376998,-1.313 1.110995,-1.645 0.255999,-0.11599 1.464994,-0.14999 2.041991,-0.058 l 0.342999,0.055 -0.023,-0.54699 c -0.026,-0.612 -0.122,-0.808 -0.509998,-1.036 -0.345999,-0.203 -1.152995,-0.18 -1.866992,0.055 -0.307998,0.1 -0.602997,0.167 -0.656997,0.146 -0.103999,-0.04 -0.136999,-0.52 -0.045,-0.663 0.067,-0.107 0.549998,-0.314 1.006996,-0.43299 0.497997,-0.13 1.426993,-0.127 1.901991,0.006 0.509998,0.14299 0.895996,0.48999 1.081995,0.96999 0.128,0.332 0.145,0.525 0.181,2.00099 0.036,1.49 0.052,1.65699 0.173999,1.88999 0.074,0.142 0.121999,0.291 0.106999,0.333 -0.015,0.042 -0.167999,0.166 -0.339998,0.276 -0.375998,0.242 -0.486998,0.208 -0.739997,-0.225 -0.093,-0.158 -0.179999,-0.287 -0.195999,-0.287 -0.014,0 -0.181999,0.126 -0.371998,0.28 a 2.4199893,2.4199893 0 0 1 -1.901992,0.49 z m 1.447994,-0.956 c 0.321998,-0.142 0.654997,-0.51499 0.705997,-0.79199 0.022,-0.116 0.03,-0.339 0.02,-0.495 -0.02,-0.268 -0.034,-0.288 -0.244999,-0.335 a 5.6999748,5.6999748 0 0 0 -0.800996,-0.06 c -0.945997,-0.017 -1.313995,0.262 -1.313995,0.995 0,0.60199 0.382998,0.90399 1.057995,0.83399 0.176,-0.019 0.434998,-0.085 0.575998,-0.147 z m 11.563949,0.927 c -0.495998,-0.104 -0.825996,-0.234 -0.976996,-0.385 -0.143999,-0.144 -0.151999,-0.664 -0.011,-0.71799 0.054,-0.021 0.319999,0.034 0.592998,0.12299 1.307994,0.428 2.330989,0.211 2.427989,-0.51199 0.033,-0.245 0.016,-0.292 -0.179999,-0.487 -0.171998,-0.171 -0.400997,-0.277 -1.119994,-0.517 -0.686997,-0.228 -0.969996,-0.356 -1.171995,-0.53 -0.915996,-0.78299 -0.678997,-2.07999 0.473998,-2.59398 0.637997,-0.285 2.118991,-0.201 2.558988,0.14499 0.136,0.107 0.164,0.183 0.164,0.441 0,0.172 -0.027,0.329 -0.06,0.349 -0.032,0.02 -0.274999,-0.036 -0.539997,-0.124 -0.515998,-0.174 -1.164995,-0.213 -1.582994,-0.097 -0.335998,0.093 -0.525997,0.324 -0.525997,0.639 0,0.444 0.215999,0.596 1.405994,0.98899 0.926995,0.307 1.246994,0.519 1.469993,0.973 0.145999,0.3 0.165999,0.408 0.138999,0.752 -0.018,0.22 -0.081,0.495 -0.139999,0.60999 -0.175999,0.338 -0.595997,0.698 -0.987996,0.845 -0.462997,0.175 -1.356994,0.22 -1.935992,0.098 z m -7.587967,-0.309 c -0.212999,-0.513 -1.586993,-5.17198 -1.551993,-5.26398 0.03,-0.08 0.136,-0.10199 0.487998,-0.10199 0.395998,0 0.459998,0.017 0.540998,0.14399 0.05,0.079 0.311998,1.023 0.579997,2.098 a 71.609683,71.609683 0 0 0 0.536998,2.07199 c 0.031,0.078 0.139999,-0.275 0.324998,-1.057 l 0.501998,-2.12299 c 0.122999,-0.52 0.266999,-0.99 0.317999,-1.04 0.117999,-0.11899 0.847996,-0.12899 0.999995,-0.014 0.073,0.055 0.259999,0.74 0.603998,2.21 0.273999,1.17199 0.512998,2.12999 0.529998,2.12999 0.019,0 0.272998,-0.93 0.565997,-2.066 0.292999,-1.13599 0.575997,-2.13199 0.627997,-2.21299 0.086,-0.13299 0.137,-0.14499 0.524998,-0.12799 0.385998,0.017 0.429998,0.033 0.448998,0.15999 0.025,0.178 -1.572993,5.28698 -1.674993,5.35098 -0.134999,0.086 -0.982995,0.058 -1.059995,-0.035 -0.038,-0.046 -0.293999,-1.01199 -0.567998,-2.14599 -0.313998,-1.30099 -0.514998,-2.01999 -0.544997,-1.94999 -0.025,0.062 -0.250999,0.97699 -0.501998,2.03399 -0.249999,1.057 -0.482998,1.97199 -0.515998,2.03399 -0.05,0.094 -0.149999,0.113 -0.574997,0.113 h -0.512998 z"
       style="fill:#232f3e;stroke-width:0.99999553" />
  </g>
</svg>
