<svg
   xmlns="http://www.w3.org/2000/svg"
   width="16"
   height="21"
   viewBox="0 0 18.549917 21.418512"
   version="1.1"
>
  <g
     id="layer1"
     transform="translate(-84.573781,-75.681537)">
    <g
       transform="matrix(0.99999557,0,0,0.99999557,61.068885,28.706049)"
       style="fill:none;fill-rule:evenodd"
       id="g330">
      <path
         style="fill:#36a2eb"
         d="m 41.51,57.763 c -2.995,0.058 -2.371,1.954 -4.481,2.433 -2.144,0.487 -2.482,-5.235 -4.625,-5.235 -2.143,0 -2.618,5.558 -5.301,9.375 l -0.077,0.108 5.753,3.321 8.73,-5.04 z"
         id="path322" />
      <path
         style="fill:#ffce56"
         d="m 41.51,57.59 c -1.003,-1.287 -1.683,-2.765 -3.146,-2.765 -2.588,0 -1.907,4.222 -4.767,4.222 -2.86,0 -3.161,-4.542 -6.402,-0.272 -1.033,1.36 -1.864,2.877 -2.517,4.313 l 8.101,4.677 8.73,-5.04 z"
         id="path324" />
      <path
         style="fill:#fe6184;fill-opacity:0.8"
         d="m 24.05,59.34 c 0.982,-2.721 1.406,-4.924 3.28,-4.924 2.861,0 3.542,8.037 5.994,7.22 2.452,-0.818 2.18,-5.177 5.994,-5.177 0.726,0 1.467,0.445 2.191,1.164 v 5.102 l -8.73,5.04 -8.73,-5.04 z"
         id="path326" />
      <path
         style="stroke:#e6e6e6;stroke-width:1.09000003"
         d="m 32.78,47.605 8.73,5.04 v 10.08 l -8.73,5.04 -8.73,-5.04 v -10.08 z"
         id="path328" />
    </g>
  </g>
</svg>
