<svg width="16" height="16" version="1.1" viewBox="0 0 16 17" xmlns="http://www.w3.org/2000/svg">
 <g transform="translate(-19 -125)" stroke-width=".9">
  <path d="m22 140c0.29-0.057 0.72 0.084 0.21 0.043 0.053-0.013-0.36 0.026-0.21-0.043zm12-4c5e-3 0.71 0.13 1.4 0.14 2.1-6.6-11-1-11-0.14-2.1zm-13 3.9c0.17-0.041 0.12 0.072 0 0zm1.6 0.27c-1.4-0.14-2.8-0.19-4.1-0.56-0.23-1.3-0.31-2.6-0.41-3.8-0.16-2.8 0.92-5.8 3.1-7.7 0.73-0.65 1.6-1.2 2.5-1.5 2.2-0.83 4.8-0.4 6.7 1 4.8 4.3 3.7 6.9 4.1 11-0.45 0.45-1.2 0.52-1.8 0.78-3.2 1-6.6 1.4-10 1.3z" fill="#f7a738"/>
  <path d="m24 139c-0.18-0.083-0.073-0.29-0.085-0.44 0.042-0.37-7.8e-4 -0.75 0.13-1.1 0.38-0.25 0.9-0.07 1.3-0.14 1.1-0.021 2.3-0.18 3.4-0.36 0.46 0.1 0.34 0.76 0.51 1.1 0.29 0.57-0.46 0.65-0.85 0.68-1.4 0.21-2.8 0.33-4.2 0.32-0.07-5e-3 -0.14-0.024-0.19-0.077zm-2-3.3c-0.55-0.019-0.93-0.57-0.9-1.1 0.018-0.18-0.027-0.5 0.039-0.62 0.34 0.14 0.68 0.3 1 0.41 0.23-0.16 0.48-0.81 0.67-0.24 0.17 0.21 0.3 0.82 0.53 0.75 0.18-0.42 0.29-0.88 0.51-1.3 0.12 0.3 0.31 0.43 0.55 0.12 0.42-0.18 0.4 0.9 0.74 0.73 0.12-0.24 0.2-0.95 0.46-0.4 0.32 0.62 0.36-0.84 0.66-0.4 0.22 0.38 0.45 0.76 0.66 1.1 0.27 0.03 0.15-0.6 0.27-0.84 0.049-0.23 0.13-0.86 0.31-0.36 0.071 0.37 0.35 0.54 0.59 0.16 0.27-0.27 0.66-0.75 0.92-0.21 0.11 0.19 0.25 0.13 0.39 9e-3 0.31-0.26 0.69-0.41 0.85 0.089 0.23 0.52 0.45-0.072 0.58-0.33 0.04-0.2 0.19-0.21 0.37-0.18 0.14 0.035 0.41-0.083 0.38 0.14 0.058 0.42 0.21 0.9-0.1 1.3-0.3 0.47-0.92 0.42-1.4 0.55-2.1 0.41-4.2 0.61-6.3 0.61-0.59 3e-3 -1.2 0.022-1.8-0.017zm0.97-2.1c-0.1-0.24-0.28-0.66-0.47-0.23-0.21 0.25-0.41 0.81-0.81 0.43-0.19-0.11-0.48-0.14-0.64-0.27 0.013-0.43-0.08-0.87 0.059-1.3 0.25-0.49 0.87-0.37 1.3-0.4 1.8 0.016 3.6-0.029 5.3-0.29 0.93-0.11 1.8-0.3 2.8-0.48 0.49-0.1 0.87 0.35 0.89 0.81 0.0016 0.26 0.2 0.75 0.067 0.91-0.24-0.034-0.47-0.067-0.71-0.1-0.14 0.25-0.34 0.76-0.55 0.23-0.3-0.47-0.77 0.53-1.1 0.2-0.23-0.27-0.53-0.51-0.76-0.097-0.26 0.39-0.59 0.47-0.7-0.022-0.15-0.29-0.24-0.61-0.42-0.88-0.24 0.3-0.17 0.93-0.31 1.3 0.0086 0.34-0.2 0.37-0.31 0.052-0.2-0.25-0.29-0.7-0.57-0.82-0.15 0.23-0.28 1.2-0.56 0.51-0.34-0.65-0.28 0.76-0.57 0.26-0.065-0.42-0.39-0.36-0.61-0.12-0.26-0.2-0.17-0.74-0.45-0.87-0.22 0.5-0.34 1-0.58 1.5-0.15 4e-3 -0.22-0.3-0.31-0.41z" fill="#4d4d4d"/>
  <path d="m23 135a24 24 0 0 1-0.4-0.74c-0.24-0.45-0.23-0.45-0.5-0.054-0.081 0.12-0.17 0.22-0.21 0.22-0.069 0-1-0.38-1.1-0.44-0.05-0.038-0.08-0.38-0.033-0.38 0.028 0 0.67 0.25 0.82 0.32 0.069 0.033 0.15 0.051 0.18 0.04 0.027-0.011 0.17-0.19 0.33-0.41 0.15-0.21 0.29-0.38 0.31-0.37 0.023 7e-3 0.14 0.21 0.26 0.45 0.14 0.27 0.25 0.44 0.28 0.43 0.033-5e-3 0.085-0.088 0.11-0.18 0.029-0.095 0.14-0.4 0.23-0.67 0.1-0.27 0.2-0.55 0.21-0.61 0.054-0.19 0.14-0.12 0.23 0.15 0.13 0.43 0.21 0.63 0.27 0.63 0.032 0 0.064-0.015 0.072-0.034 0.028-0.067 0.27-0.21 0.33-0.19 0.03 0.011 0.1 0.12 0.16 0.25 0.059 0.13 0.13 0.23 0.16 0.23 0.033 0 0.09-0.11 0.14-0.27 0.045-0.15 0.089-0.28 0.098-0.3 0.033-0.06 0.14 0.033 0.27 0.24 0.07 0.11 0.15 0.2 0.17 0.2 0.021 0 0.1-0.17 0.18-0.38 0.078-0.21 0.15-0.39 0.17-0.41 0.057-0.063 0.13 0.034 0.39 0.51 0.22 0.4 0.34 0.58 0.39 0.58 0.022 0 0.06-0.1 0.084-0.23 0.099-0.51 0.22-1.2 0.23-1.3 0.018-0.19 0.11-0.19 0.19 3e-3 0.038 0.091 0.12 0.28 0.19 0.42l0.22 0.49c0.057 0.12 0.12 0.23 0.15 0.24 0.025 0.01 0.2-0.14 0.4-0.32 0.19-0.19 0.37-0.34 0.4-0.34 0.025 0 0.16 0.11 0.29 0.24 0.14 0.13 0.26 0.24 0.27 0.24 0.014 0 0.19-0.11 0.4-0.23 0.21-0.13 0.4-0.23 0.43-0.22 0.03 0.012 0.12 0.12 0.2 0.24 0.08 0.12 0.16 0.21 0.18 0.19a1.6 1.6 0 0 0 0.17-0.26c0.073-0.13 0.16-0.24 0.2-0.24 0.037 0 0.2 0.023 0.37 0.05 0.32 0.052 0.4 0.12 0.38 0.31-0.013 0.085-0.037 0.091-0.32 0.081l-0.3-0.01-0.2 0.38c-0.11 0.21-0.23 0.38-0.26 0.39-0.033 4e-3 -0.15-0.14-0.27-0.31-0.12-0.18-0.24-0.32-0.27-0.32-0.033 0-0.22 0.099-0.41 0.22l-0.35 0.22-0.2-0.19a2.2 2.2 0 0 1-0.22-0.22c-0.043-0.092-0.2 7e-3 -0.57 0.36-0.31 0.3-0.42 0.38-0.47 0.36-0.034-0.022-0.12-0.18-0.19-0.35-0.072-0.17-0.15-0.31-0.18-0.3-0.045 0.014-0.28 1.1-0.29 1.3-9.2e-4 0.064-0.02 0.13-0.042 0.14-0.045 0.027-0.18-0.088-0.18-0.15 0-0.024-0.064-0.14-0.14-0.27a11 11 0 0 1-0.25-0.42c-0.24-0.42-0.27-0.47-0.32-0.46-0.024 7e-3 -0.1 0.17-0.18 0.36-0.076 0.19-0.16 0.35-0.2 0.36-0.031 6e-3 -0.1-0.076-0.16-0.18-0.09-0.17-0.2-0.27-0.24-0.23a5.4 5.4 0 0 0-0.1 0.32c-0.12 0.38-0.19 0.46-0.27 0.29-0.27-0.54-0.39-0.74-0.44-0.76-0.054-0.021-0.21 0.073-0.36 0.22-0.098 0.095-0.16 0.061-0.22-0.13-0.036-0.1-0.083-0.18-0.11-0.17-0.039 0.015-0.13 0.25-0.42 1.1-0.098 0.28-0.14 0.35-0.18 0.3z" fill="#4cb5e6"/>
 </g>
</svg>
