<svg width="16" height="16" version="1.1" viewBox="0 0 16 17" xmlns="http://www.w3.org/2000/svg">
 <g transform="translate(-19 -125)">
  <path d="m26 142c-0.019-0.017-0.1-0.089-0.18-0.16-0.38-0.33-0.28-0.96 0.19-1.2l0.15-0.065-0.018-3.4-0.26-0.026c-0.73-0.072-1.5-0.44-2.1-0.95-0.13-0.12-0.25-0.22-0.27-0.21-0.019 7e-3 -0.62 0.48-1.3 1-1.2 0.95-1.3 1-1.3 1.1 0.021 0.039 0.031 0.17 0.024 0.29-0.012 0.18-0.033 0.24-0.12 0.35-0.14 0.18-0.3 0.28-0.48 0.31-0.45 0.068-0.86-0.32-0.81-0.78 0.047-0.48 0.59-0.78 1-0.56l0.15 0.075 1.3-1c0.71-0.57 1.3-1 1.3-1.1 0.012-0.012-0.06-0.16-0.16-0.32-0.37-0.61-0.52-1.2-0.49-2l0.018-0.47-0.47-0.11c-0.26-0.06-0.79-0.18-1.2-0.27-0.38-0.087-0.9-0.2-1.1-0.26l-0.45-0.1-0.17 0.17c-0.25 0.25-0.55 0.3-0.87 0.13-0.11-0.059-0.29-0.26-0.29-0.33 0-0.022-0.016-0.04-0.035-0.04-0.051 0-0.043-0.48 0.0087-0.54 0.33-0.43 0.67-0.52 1.1-0.3 0.16 0.092 0.32 0.33 0.32 0.47 0 0.048 0.02 0.1 0.043 0.12 0.024 0.019 0.4 0.12 0.84 0.21 0.44 0.1 1.1 0.26 1.5 0.35 0.41 0.093 0.77 0.17 0.81 0.18 0.049 8e-3 0.09-0.059 0.19-0.32 0.29-0.73 0.77-1.3 1.4-1.7l0.25-0.16-0.25-0.53c-0.14-0.29-0.47-0.97-0.73-1.5l-0.48-0.99-0.22-0.014c-0.29-0.018-0.46-0.13-0.58-0.38-0.19-0.38-0.1-0.64 0.35-1 0.056-0.044 0.49-0.043 0.54 2e-3 0.023 0.019 0.095 0.07 0.16 0.11 0.065 0.043 0.16 0.15 0.2 0.23 0.069 0.13 0.081 0.19 0.071 0.39-0.011 0.2-0.028 0.25-0.13 0.38-0.14 0.17-0.15 0.11 0.23 0.88 0.14 0.28 0.25 0.52 0.25 0.52 0 6e-3 0.19 0.41 0.43 0.9l0.43 0.89 0.25-0.086c0.73-0.25 1.7-0.25 2.3 1e-3 0.13 0.047 0.25 0.074 0.26 0.061 0.012-0.014 0.31-0.63 0.66-1.4 0.35-0.73 0.68-1.4 0.72-1.5l0.08-0.16-0.091-0.096c-0.2-0.21-0.23-0.57-0.081-0.82 0.087-0.15 0.25-0.3 0.33-0.3 0.021 0 0.038-0.016 0.038-0.035 0-0.051 0.48-0.044 0.54 9e-3 0.42 0.33 0.52 0.62 0.34 0.99-0.12 0.25-0.29 0.36-0.59 0.38l-0.22 0.02-0.73 1.5c-0.4 0.83-0.73 1.5-0.72 1.5 5e-3 5e-3 0.13 0.09 0.29 0.19 0.32 0.21 0.78 0.65 0.98 0.95 0.17 0.25 0.36 0.63 0.45 0.88 0.035 0.1 0.085 0.18 0.11 0.18 0.045 0 2.8-0.63 3.1-0.7 0.1-0.027 0.13-0.055 0.15-0.13 0.089-0.44 0.5-0.71 0.91-0.59 0.14 0.04 0.33 0.19 0.49 0.39 0.052 0.068 0.058 0.5 0.0081 0.56-0.019 0.023-0.07 0.096-0.11 0.16-0.15 0.23-0.44 0.34-0.74 0.27-0.14-0.029-0.21-0.073-0.35-0.21l-0.17-0.17-1.2 0.28c-0.69 0.16-1.4 0.32-1.6 0.37l-0.36 0.085-0.0023 0.63c-0.0019 0.53-0.014 0.67-0.076 0.9-0.11 0.38-0.26 0.74-0.44 1-0.086 0.13-0.15 0.24-0.15 0.24 0.0049 4e-3 0.6 0.48 1.3 1.1l1.3 1 0.14-0.072c0.43-0.22 0.97 0.068 1 0.55 0.049 0.41-0.29 0.81-0.7 0.81-0.24 0-0.57-0.22-0.66-0.44-0.055-0.13-0.062-0.44-0.011-0.53 0.031-0.059-0.07-0.15-0.89-0.8-0.51-0.41-1.1-0.88-1.3-1.1l-0.4-0.32-0.26 0.25c-0.55 0.53-1.3 0.86-2.1 0.95l-0.23 0.026-0.015 3.4 0.13 0.06c0.18 0.083 0.36 0.3 0.41 0.5 0.033 0.14 0.031 0.2-0.014 0.36-0.052 0.18-0.12 0.27-0.39 0.48-0.053 0.042-0.54 0.04-0.58-2e-3zm0.49-0.24c0.27-0.12 0.37-0.44 0.22-0.68-0.098-0.16-0.23-0.23-0.42-0.23-0.52 0-0.68 0.7-0.2 0.92 0.081 0.037 0.17 0.067 0.2 0.067 0.029 0 0.12-0.03 0.2-0.067zm-5.9-3c0.21-0.2 0.22-0.48 0.023-0.69-0.27-0.29-0.75-0.15-0.84 0.25-0.033 0.16 0.082 0.4 0.23 0.5 0.17 0.11 0.44 0.081 0.58-0.053zm12 0.054c0.27-0.17 0.31-0.55 0.074-0.77-0.34-0.32-0.93 0.021-0.81 0.47 0.027 0.11 0.18 0.3 0.28 0.33 0.13 0.052 0.35 0.036 0.46-0.034zm-5.6-2.8c0.1-0.028 0.32-0.12 0.49-0.2 0.23-0.12 0.36-0.21 0.59-0.44 0.25-0.25 0.33-0.35 0.46-0.63 0.19-0.38 0.26-0.7 0.26-1.1 0.0023-1.1-0.78-2.1-1.9-2.4-0.31-0.074-0.83-0.074-1.1 0-0.69 0.16-1.3 0.66-1.6 1.3-0.47 0.97-0.25 2.1 0.55 2.9 0.29 0.27 0.75 0.52 1.1 0.59 0.1 0.02 0.22 0.044 0.26 0.053 0.13 0.029 0.73-0.013 0.92-0.066zm-7.9-3.7c0.43-0.26 0.26-0.9-0.23-0.9-0.29 0-0.49 0.2-0.49 0.48-3e-4 0.38 0.4 0.61 0.72 0.42zm15 0.012c0.33-0.16 0.34-0.69 0.018-0.86-0.32-0.17-0.69 0.034-0.72 0.39-0.032 0.38 0.36 0.63 0.7 0.47zm-11-5.2c0.4-0.26 0.22-0.89-0.27-0.89-0.38 3.3e-4 -0.61 0.41-0.42 0.74 0.12 0.21 0.47 0.29 0.69 0.15zm6.6 0.018c0.16-0.084 0.25-0.23 0.25-0.43-2.3e-4 -0.29-0.2-0.48-0.49-0.48-0.51 0-0.66 0.68-0.2 0.91 0.15 0.078 0.28 0.077 0.44-5e-3z" stroke-width=".035"/>
 </g>
</svg>
