<svg width="16" height="16" version="1.1" viewBox="0 0 16 17" xmlns="http://www.w3.org/2000/svg">
 <g transform="translate(-19 -125)">
  <g transform="matrix(.073 0 0 .073 19 126)">
   <path d="m98 224c-47-6.1-85-41-96-89-2.3-10-2.3-34 0.029-45 8.2-39 37-72 74-84 13-4.2 20-5.3 36-5.4 12-0.026 17 0.42 24 2.1 15 3.4 29 9.6 41 18 6.3 4.5 20 18 20 20 0 0.66-19 17-42 36-23 19-42 35-42 36 0.01 0.63 21 13 47 29 26 15 47 28 48 28 2.1 3.5-23 30-36 38-23 14-49 20-75 17z" fill="#d2a902"/>
   <path d="m140 206c-3.4-1.9-5.4-6.8-5.3-13 0.049-4.9 2.4-10 4.4-10 0.51 0 2.6 3.4 4.7 7.6 2.6 5.4 3.8 9 3.8 12 0.053 4.3-0.16 4.7-2.4 4.9-1.4 0.13-3.7-0.42-5.1-1.2zm-94-83c-2.1-0.82-2.3-1.4-1.9-4.7 0.69-4.9 4.3-14 7.1-18 1.9-2.8 2.9-3.4 6.7-3.7 8.9-0.65 16 3.3 15 8.3-0.81 3.2-10 13-16 16-5.6 3.2-7.8 3.7-11 2.6zm65-43c-3-1.8-5.8-6.8-5.8-10 0-5.4 6.5-12 12-12 3.8-6e-3 9.1 3 11 6.1 2.8 5.5 1.1 13-3.8 16-2.9 2-9.6 1.9-13-0.19zm-39-46c-0.55-0.22-2.2-0.67-3.8-1s-2.8-1.2-2.8-1.9c0-2 5-6.4 9.4-8.2 5.6-2.3 14 0.15 19 5.4 1.8 2 1.8 2.3 0.32 3.8-1.2 1.2-4.1 1.7-11 2-5.4 0.18-10 0.16-11-0.062z" fill="#574500"/>
  </g>
 </g>
</svg>
