<svg width="16" height="16" version="1.1" viewBox="0 0 16 17" xmlns="http://www.w3.org/2000/svg">
 <g transform="translate(-18 -125)">
  <g transform="matrix(.05 0 0 .05 16 124)">
   <path d="m36 355c-0.41-0.43-0.75-16-0.75-34v-33l14-8e-3c26-0.016 42-3.5 58-13 9.7-5.7 24-20 30-29 2.1-3.4 4-6.2 4.4-6.2 1-2e-4 47 47 47 48 0 1.7-11 15-19 23-23 22-50 36-83 42-9.1 1.7-49 3.1-50 1.8zm208-12c-16-16-19-20-18-23 0.4-1.1 7.2-8.3 15-16l14-14 10-0.42c14-0.57 20-3.4 27-13 4.4-6 5.9-15 4.5-25-0.31-2.3 1.3-4.3 10-13 6.5-6.4 11-11 12-10 0.87 0.19 11 9.3 23 20l21 20-0.65 6.3c-1.5 14-9.5 33-20 46-18 23-45 35-78 35l-9.7 0.01-12-13zm-69 6.1c15-11 21-18 33-32 2.3-2.9 2.6-3 4.3-1.4s0.96 2.5-17 20c-19 19-19 19-23 19h-4.4z" fill="#f79a3d"/>
   <path d="m36 356c28-1.2 57 0.097 83-12 28-11 53-31 70-55-15-17-31-33-47-48-6.6 13-28 33-33 34 27-17 44-49 41-82-1.5-45-45-84-89-81-12-0.62-29 4.6-24-13-0.21-19-0.71-37 0.15-56 38-1.5 78 2.7 110 25 50 31 79 92 72 150-7.2 75-75 138-151 139-10 0.59-20 0.63-31-0.4zm125-255c17-8.4 1.2-19-8-26-29-23-68-33-104-31-13-5.2-13 6.9-12 15 0.13 17 0.27 34 0.4 51 24 0.033 50-1.3 71 13 9.3 6.2 20 17 28 2 8.3-7.9 17-16 25-24zm2.4 255c24-19 47-41 61-68 21-1.9 44 4.9 63-6.3 17-13 9-44-13-47-14-3.4-37 5.8-29-16 1-18 0.63-35-1.2-53 16-1.9 39 3.4 49-14 10-10-4.3-38-5.5-35 17 12 11 46-11 48-23 1.4 6.8 18 12 26 12 12 25 24 38 34 16-7.4 17-24 24-37 22-34 18-82-9.1-113-7.4-9.5 9.8 9.3 12 14 20 33 17 78-6.3 108 4.7 18 21 36 19 57 0.026 7.6 2 25-5.3 10-13-11-24-28-40-34-23 6.4-19 30-27 47-9.4 20-36 4.8-46 22-11 10-30 24-11 36 7.4 9 23 24 29 21-34 0.39-68 0.99-103-0.19zm33-20c4-5.3 21-17 14-20-12 15-26 28-41 39 13 1.7 19-12 28-19zm85 19c5.4-0.83 4.8 1.2 0 0zm7-0.96c5.8-2 0.86 2.2 0 0zm5.1-1c6.4-1.9-1.3 2.3 0 0zm21-7.8c4.6-4.4 9.5-3.1 0 0zm14-8.9c3.4-5.5 4.1-1.2 0 0zm9-7.9c12-12-7.6 8.6-1.3 1.4zm6.5-7.8c7.6-7.7-4.8 6.9 0 0zm2.5-3.4c3.4-5.5 4.1-1.2 0 0zm4-5.6c4.8-7.6-2.3 7 0 0zm4.2-7.5c6.7-11-5.2 13 0 0zm4.9-11c0.9-7.7 3.3-0.87 0 0zm-316-5.2c6.1-0.63 23 0.47 7.8 0.34-0.39-0.18-11 0.31-7.8-0.34zm28-0.95c5.8-1.3 3 1.8 0 0zm6.5-0.97c5.8-2 0.86 2.2 0 0zm5.1-1c6.4-1.9-1.3 2.3 0 0zm279-1.9c1.2-3.5 0.39 4.6 0 0zm-269-1.4c8.2-4.5-2.5 3.5 0 0zm4.1-1.4c8.6-6.3 8.5-1.3 0 0zm266-2.6c0.75-5.6 0.75 5.6 0 0zm-88-166c6.4-1.9-1.3 2.3 0 0zm-15-1c7.2-0.69 12 1.1 0 0zm-58-31c-4.4-5.7 6.2 6.4 0 0zm-9.9-11c-11-12 14 13 1.1 1.2zm136-6c-4.4-5.6 6.5 6.4 0 0zm-11-7.3c-4.1-4.4 7.9 5.8 0 0zm-45-13c6.1-1 5.3 1.4 0 0z" fill="#f58f45"/>
   <path d="m317 219c-18-17-37-33-53-52 14-0.45 32-8.3 33-26 2.5-17-13-32-30-30-14 0.022-28 0.3-42 0.45-14-23-31-44-52-60-6.4-4.3-16-11-1.8-9.2 37-0.2 75-0.078 112 0.57 28 5.8 54 22 68 47 19 32 16 74-5.9 103-5.2 7.6 0.22 17-10 23-6.1 6.9-11 12-18 3.1zm-199-89c-17-13-38-20-60-19-7.4-0.09-15-0.1-22-0.16-0.18-22-0.35-44-0.53-66 32-0.32 64 1.2 93 16 16 7.5 30 18 41 31-15 15-30 29-45 43-2.3-1.7-4.6-3.4-6.9-5z" fill="#e0704e"/>
  </g>
 </g>
</svg>
