<svg width="16" height="16" version="1.1" viewBox="0 0 16 17" xmlns="http://www.w3.org/2000/svg">
 <g transform="translate(-19 -125)" stroke-width="1.1">
  <rect x="18" y="126" width="16" height="16" fill="#f69837" stroke-linecap="round" stroke-linejoin="round"/>
  <path d="m18 141v-0.59h1.6v1.2h-1.6zm3.3 0v-0.59h12v-1.7h-12v-12h-1.7v12h-1.6v-13h16v16h-13zm5.2-5.2c0.31-0.23 0.32-0.23 0.32-0.016 0 0.19 0.068 0.22 0.59 0.22h0.59v-5.9l-1.1 0.064-0.032 1-0.031 1-0.27-0.22c-0.84-0.66-2.1-0.27-2.6 0.79-0.24 0.53-0.27 1.7-0.05 2.2 0.17 0.41 0.64 0.89 1 1.1 0.41 0.17 1.3 0.071 1.6-0.2zm-1.2-1c-0.28-0.24-0.31-0.33-0.31-0.93 0-0.59 0.032-0.69 0.3-0.92 0.35-0.3 0.8-0.33 1.3-0.095 0.31 0.16 0.32 0.18 0.32 1 0 0.97-0.076 1.1-0.78 1.2-0.38 0.043-0.52 6e-3 -0.78-0.22zm6.8 1.1c0.24-0.11 0.52-0.29 0.62-0.41 0.19-0.21 0.18-0.23-0.19-0.55l-0.39-0.34-0.27 0.22c-0.52 0.41-1.3 0.22-1.6-0.39-0.26-0.51-0.041-1.4 0.41-1.6 0.33-0.18 0.92-0.13 1.2 0.099l0.27 0.21 0.68-0.7-0.24-0.22c-0.41-0.37-0.75-0.5-1.4-0.5-0.79 0-1.5 0.33-1.9 0.91-0.58 0.83-0.45 2.2 0.27 2.9 0.61 0.59 1.7 0.76 2.5 0.4z" fill="#2c2a2f"/>
 </g>
</svg>
