<svg
   xmlns="http://www.w3.org/2000/svg"
   version="1.1"
   viewBox="0 0 21.752903 12.35095"
   height="16"
   width="22">
  <g
     transform="translate(-14.825929,-203.89)"
     id="layer1">
    <path
       id="path200"
       d="m 27.403873,207.78999 h 1.949992 v 1.99399 h 0.986995 c 0.454998,0 0.922996,-0.081 1.354994,-0.228 a 3.3899851,3.3899851 0 0 0 0.657997,-0.297 c -0.274998,-0.36 -0.415998,-0.813 -0.456998,-1.25999 -0.056,-0.61 0.067,-1.401 0.477998,-1.877 l 0.204999,-0.238 0.244999,0.197 c 0.614997,0.494 1.131995,1.184 1.222995,1.971 0.739997,-0.217 1.609993,-0.166 2.26299,0.20999 l 0.267998,0.155 -0.140999,0.276 c -0.551998,1.077 -1.705992,1.41 -2.834987,1.352 -1.687993,4.20498 -5.363977,6.19597 -9.820956,6.19597 -2.30299,0 -4.414981,-0.86 -5.618975,-2.90399 l -0.02,-0.033 -0.174999,-0.357 c -0.405998,-0.89899 -0.540998,-1.88399 -0.449998,-2.86798 l 0.028,-0.295 h 1.666992 v -1.99399 h 1.949991 V 205.84 h 3.900983 v -1.95 h 2.339989 z"
       style="clip-rule:evenodd;fill:#394d54;fill-rule:evenodd;stroke-width:0.99999553" />
    <path
       id="path202"
       d="m 33.722845,208.52798 c 0.13,-1.01699 -0.629997,-1.81499 -1.101995,-2.19399 -0.542998,0.629 -0.627997,2.27499 0.224999,2.96899 -0.475998,0.422 -1.478993,0.806 -2.504989,0.806 H 17.841916 c -0.1,1.07099 0.089,2.05799 0.517998,2.90298 l 0.141999,0.26 c 0.09,0.153 0.188999,0.3 0.294999,0.442 0.513998,0.034 0.987995,0.045 1.420993,0.035 0.851997,-0.019 1.546994,-0.119 2.073991,-0.302 a 0.15021651,0.15021651 0 1 1 0.098,0.284 4.1899814,4.1899814 0 0 1 -0.217999,0.069 c -0.414998,0.118 -0.859996,0.198 -1.433993,0.233 0.034,0 -0.035,0.005 -0.036,0.005 l -0.063,0.005 a 16.219928,16.219928 0 0 1 -1.559993,-0.005 l -0.008,0.005 c 1.041995,1.16999 2.669988,1.87299 4.709979,1.87299 4.31998,0 7.984964,-1.91499 9.606957,-6.21397 1.150994,0.118 2.25699,-0.175 2.759987,-1.158 -0.800997,-0.46199 -1.831993,-0.315 -2.424989,-0.016 z"
       style="fill:#00aada;stroke-width:0.99999553" />
    <path
       id="path204"
       d="m 33.722845,208.52798 c 0.13,-1.01699 -0.629997,-1.81499 -1.101995,-2.19399 -0.542998,0.629 -0.627997,2.27499 0.224999,2.96899 -0.475998,0.422 -1.478993,0.806 -2.504989,0.806 H 18.581913 c -0.05,1.64099 0.557997,2.88698 1.635992,3.63998 0.851997,-0.019 1.546994,-0.119 2.073991,-0.302 a 0.15021651,0.15021651 0 1 1 0.098,0.284 4.1899814,4.1899814 0 0 1 -0.217999,0.069 6.8599696,6.8599696 0 0 1 -1.471993,0.244 l -0.014,-0.014 c 1.469993,0.754 3.601984,0.752 6.044973,-0.187 2.739988,-1.053 5.289976,-3.05899 7.069969,-5.35298 a 2.1509905,2.1509905 0 0 0 -0.078,0.038 z"
       style="fill:#24b8eb;stroke-width:0.99999553" />
    <path
       id="path206"
       d="m 17.865916,211.41097 c 0.077,0.574 0.244999,1.112 0.493998,1.60099 l 0.141999,0.26 c 0.09,0.153 0.188999,0.3 0.294999,0.442 0.513998,0.034 0.987995,0.045 1.420993,0.035 0.851997,-0.019 1.546994,-0.119 2.073991,-0.302 a 0.15021651,0.15021651 0 1 1 0.098,0.284 4.1899814,4.1899814 0 0 1 -0.217999,0.069 6.8599696,6.8599696 0 0 1 -1.469993,0.238 c -0.02,0.002 -0.054,0.002 -0.073,0.003 -0.225999,0.013 -0.466998,0.02 -0.716997,0.02 -0.271999,0 -0.549998,-0.005 -0.850996,-0.02 1.040995,1.16999 2.679988,1.87499 4.719979,1.87499 3.698983,0 6.915969,-1.40399 8.78396,-4.50498 H 17.864916 Z"
       style="fill:#008bb8;stroke-width:0.99999553" />
    <path
       id="path208"
       d="m 18.694912,211.41097 c 0.219999,1.008 0.751997,1.79999 1.522993,2.33799 0.851997,-0.019 1.546994,-0.12 2.073991,-0.302 a 0.15021651,0.15021651 0 1 1 0.098,0.284 4.1899814,4.1899814 0 0 1 -0.217999,0.069 6.9619691,6.9619691 0 0 1 -1.479993,0.238 c 1.469993,0.754 3.595983,0.744 6.039972,-0.195 1.477994,-0.568 2.899987,-1.41399 4.176982,-2.43199 H 18.695912 Z"
       style="fill:#039bc6;stroke-width:0.99999553" />
    <g
       id="g224"
       style="clip-rule:evenodd;fill-rule:evenodd"
       transform="matrix(0.99999557,0,0,0.99999557,-242.28293,175.59313)">
      <path
         id="path210"
         d="m 263.238,32.663 h 0.134 v 1.409 h -0.134 z m -0.256,0 h 0.14 v 1.409 h -0.14 z m -0.256,0 h 0.139 v 1.409 h -0.139 z m -0.256,0 h 0.139 v 1.409 h -0.139 z m -0.256,0 h 0.139 v 1.409 h -0.139 z m -0.25,0 h 0.133 v 1.409 h -0.134 z m -0.141,-0.14 h 1.69 v 1.69 h -1.69 z m 3.366,-1.81 h 0.133 v 1.408 h -0.133 z m -0.256,0 h 0.138 v 1.408 h -0.138 z m -0.257,0 h 0.14 v 1.408 h -0.14 z m -0.256,0 h 0.14 v 1.408 h -0.14 z m -0.256,0 h 0.139 v 1.408 h -0.139 z m -0.25,0 h 0.133 v 1.408 h -0.133 z m -0.141,-0.141 h 1.69 v 1.69 h -1.69 z"
         style="fill:#00acd3" />
      <path
         id="path212"
         d="m 265.189,32.663 h 0.133 v 1.409 h -0.133 z m -0.256,0 h 0.138 v 1.409 h -0.138 z m -0.257,0 h 0.14 v 1.409 h -0.14 z m -0.256,0 h 0.14 v 1.409 h -0.14 z m -0.256,0 h 0.139 v 1.409 h -0.139 z m -0.25,0 h 0.133 v 1.409 h -0.133 z m -0.141,-0.14 h 1.69 v 1.69 h -1.69 z"
         style="fill:#20c2ef" />
      <path
         id="path214"
         d="m 267.139,32.663 h 0.133 v 1.409 h -0.133 z m -0.256,0 h 0.139 v 1.409 h -0.14 z m -0.256,0 h 0.138 v 1.409 h -0.138 z m -0.256,0 h 0.138 v 1.409 h -0.138 z m -0.256,0 h 0.138 v 1.409 h -0.138 z m -0.251,0 h 0.133 v 1.409 h -0.133 z m -0.141,-0.14 h 1.69 v 1.69 h -1.69 z"
         style="fill:#00acd3" />
      <path
         id="path216"
         d="m 267.139,30.713 h 0.133 v 1.408 h -0.133 z m -0.256,0 h 0.139 v 1.408 h -0.14 z m -0.256,0 h 0.138 v 1.408 h -0.138 z m -0.256,0 h 0.138 v 1.408 h -0.138 z m -0.256,0 h 0.138 v 1.408 h -0.138 z m -0.251,0 h 0.133 v 1.408 h -0.133 z m -0.141,-0.141 h 1.69 v 1.69 h -1.69 z m 3.367,2.091 h 0.133 v 1.409 h -0.134 z m -0.257,0 h 0.139 v 1.409 h -0.139 z m -0.256,0 h 0.139 v 1.409 h -0.14 z m -0.256,0 h 0.139 v 1.409 h -0.14 z m -0.256,0 h 0.138 v 1.409 h -0.138 z m -0.251,0 h 0.133 v 1.409 h -0.133 z m -0.14,-0.14 h 1.69 v 1.69 h -1.69 z"
         style="fill:#20c2ef" />
      <path
         id="path218"
         d="m 269.09,30.713 h 0.133 v 1.408 h -0.134 z m -0.257,0 h 0.139 v 1.408 h -0.139 z m -0.256,0 h 0.139 v 1.408 h -0.14 z m -0.256,0 h 0.139 v 1.408 h -0.14 z m -0.256,0 h 0.138 v 1.408 h -0.138 z m -0.251,0 h 0.133 v 1.408 h -0.133 z m -0.14,-0.141 h 1.69 v 1.69 h -1.69 z"
         style="fill:#00acd3" />
      <path
         id="path220"
         d="m 269.09,28.762 h 0.133 v 1.41 h -0.134 z m -0.257,0 h 0.139 v 1.41 h -0.139 z m -0.256,0 h 0.139 v 1.41 h -0.14 z m -0.256,0 h 0.139 v 1.41 h -0.14 z m -0.256,0 h 0.138 v 1.41 h -0.138 z m -0.251,0 h 0.133 v 1.41 h -0.133 z m -0.14,-0.14 h 1.69 v 1.69 h -1.69 z"
         style="fill:#20c2ef" />
      <path
         id="path222"
         d="m 271.04,32.663 h 0.133 v 1.409 h -0.134 z m -0.257,0 h 0.139 v 1.409 h -0.139 z m -0.256,0 h 0.139 v 1.409 h -0.139 z m -0.256,0 h 0.139 v 1.409 h -0.139 z m -0.256,0 h 0.139 v 1.409 h -0.14 z m -0.25,0 h 0.133 v 1.409 h -0.134 z m -0.142,-0.14 h 1.69 v 1.69 h -1.69 z"
         style="fill:#00acd3" />
    </g>
    <path
       id="path226"
       d="m 23.072893,212.54597 a 0.46599806,0.46599806 0 1 1 0,0.93199 0.46599806,0.46599806 0 0 1 0,-0.93199"
       style="clip-rule:evenodd;fill:#d4edf1;fill-rule:evenodd;stroke-width:0.99999553" />
    <path
       id="path228"
       d="m 23.072893,212.67796 c 0.043,0 0.083,0.008 0.120999,0.023 a 0.1359994,0.1359994 0 1 0 0.187999,0.183 0.33499851,0.33499851 0 1 1 -0.308998,-0.206 m -8.246964,-1.09899 h 21.689904 c -0.471998,-0.12 -1.493994,-0.281 -1.324994,-0.9 -0.859997,0.994 -2.929987,0.697 -3.452985,0.207 -0.581998,0.844 -3.969982,0.523 -4.206981,-0.134 -0.729997,0.856 -2.989987,0.856 -3.719983,0 -0.236999,0.657 -3.624984,0.978 -4.206982,0.134 -0.522998,0.49 -2.593988,0.787 -3.452984,-0.207 0.168999,0.619 -0.852997,0.78 -1.324995,0.9"
       style="clip-rule:evenodd;fill:#394d54;fill-rule:evenodd;stroke-width:0.99999553" />
    <path
       id="path230"
       d="m 24.312887,215.90595 c -1.154994,-0.548 -1.788992,-1.29299 -2.14199,-2.10599 a 7.1499682,7.1499682 0 0 1 -1.542993,0.234 c -0.225999,0.013 -0.462998,0.02 -0.712997,0.02 -0.286999,0 -0.589998,-0.01 -0.906996,-0.026 1.058995,1.05799 2.36199,1.87299 4.773979,1.88799 0.177999,0 0.354998,-0.004 0.529997,-0.01 z"
       style="fill:#bfdbe0;stroke-width:0.99999553" />
    <path
       id="path232"
       d="m 22.599895,214.54996 a 4.044982,4.044982 0 0 1 -0.427998,-0.75 7.1499682,7.1499682 0 0 1 -1.543993,0.234 c 0.410998,0.223 0.999995,0.43 1.971991,0.516 z"
       style="fill:#d4edf1;stroke-width:0.99999553" />
  </g>
</svg>
