<svg width="22" height="16" version="1.1" viewBox="0 0 22 12" xmlns="http://www.w3.org/2000/svg">
 <g transform="translate(-15 -204)">
  <g>
   <path d="m27 208h1.9v2h0.99c0.45 0 0.92-0.081 1.4-0.23a3.4 3.4 0 0 0 0.66-0.3c-0.27-0.36-0.42-0.81-0.46-1.3-0.056-0.61 0.067-1.4 0.48-1.9l0.2-0.24 0.24 0.2c0.61 0.49 1.1 1.2 1.2 2 0.74-0.22 1.6-0.17 2.3 0.21l0.27 0.16-0.14 0.28c-0.55 1.1-1.7 1.4-2.8 1.4-1.7 4.2-5.4 6.2-9.8 6.2-2.3 0-4.4-0.86-5.6-2.9l-0.02-0.033-0.17-0.36c-0.41-0.9-0.54-1.9-0.45-2.9l0.028-0.3h1.7v-2h1.9v-1.9h3.9v-2h2.3z" clip-rule="evenodd" fill="#394d54" fill-rule="evenodd"/>
   <path d="m34 209c0.13-1-0.63-1.8-1.1-2.2-0.54 0.63-0.63 2.3 0.22 3-0.48 0.42-1.5 0.81-2.5 0.81h-12c-0.1 1.1 0.089 2.1 0.52 2.9l0.14 0.26c0.09 0.15 0.19 0.3 0.29 0.44 0.51 0.034 0.99 0.045 1.4 0.035 0.85-0.019 1.5-0.12 2.1-0.3a0.15 0.15 0 1 1 0.098 0.28 4.2 4.2 0 0 1-0.22 0.069c-0.41 0.12-0.86 0.2-1.4 0.23 0.034 0-0.035 5e-3 -0.036 5e-3l-0.063 5e-3a16 16 0 0 1-1.6-5e-3l-8e-3 5e-3c1 1.2 2.7 1.9 4.7 1.9 4.3 0 8-1.9 9.6-6.2 1.2 0.12 2.3-0.18 2.8-1.2-0.8-0.46-1.8-0.32-2.4-0.016z" fill="#00aada"/>
   <path d="m34 209c0.13-1-0.63-1.8-1.1-2.2-0.54 0.63-0.63 2.3 0.22 3-0.48 0.42-1.5 0.81-2.5 0.81h-12c-0.05 1.6 0.56 2.9 1.6 3.6 0.85-0.019 1.5-0.12 2.1-0.3a0.15 0.15 0 1 1 0.098 0.28 4.2 4.2 0 0 1-0.22 0.069 6.9 6.9 0 0 1-1.5 0.24l-0.014-0.014c1.5 0.75 3.6 0.75 6-0.19 2.7-1.1 5.3-3.1 7.1-5.4a2.2 2.2 0 0 0-0.078 0.038z" fill="#24b8eb"/>
   <path d="m18 211c0.077 0.57 0.24 1.1 0.49 1.6l0.14 0.26c0.09 0.15 0.19 0.3 0.29 0.44 0.51 0.034 0.99 0.045 1.4 0.035 0.85-0.019 1.5-0.12 2.1-0.3a0.15 0.15 0 1 1 0.098 0.28 4.2 4.2 0 0 1-0.22 0.069 6.9 6.9 0 0 1-1.5 0.24c-0.02 2e-3 -0.054 2e-3 -0.073 3e-3 -0.23 0.013-0.47 0.02-0.72 0.02-0.27 0-0.55-5e-3 -0.85-0.02 1 1.2 2.7 1.9 4.7 1.9 3.7 0 6.9-1.4 8.8-4.5h-15z" fill="#008bb8"/>
   <path d="m19 211c0.22 1 0.75 1.8 1.5 2.3 0.85-0.019 1.5-0.12 2.1-0.3a0.15 0.15 0 1 1 0.098 0.28 4.2 4.2 0 0 1-0.22 0.069 7 7 0 0 1-1.5 0.24c1.5 0.75 3.6 0.74 6-0.2 1.5-0.57 2.9-1.4 4.2-2.4h-12z" fill="#039bc6"/>
  </g>
  <g clip-rule="evenodd" fill-rule="evenodd">
   <g transform="matrix(1 0 0 1 -242 176)">
    <path d="m263 33h0.13v1.4h-0.13zm-0.26 0h0.14v1.4h-0.14zm-0.26 0h0.14v1.4h-0.14zm-0.26 0h0.14v1.4h-0.14zm-0.26 0h0.14v1.4h-0.14zm-0.25 0h0.13v1.4h-0.13zm-0.14-0.14h1.7v1.7h-1.7zm3.4-1.8h0.13v1.4h-0.13zm-0.26 0h0.14v1.4h-0.14zm-0.26 0h0.14v1.4h-0.14zm-0.26 0h0.14v1.4h-0.14zm-0.26 0h0.14v1.4h-0.14zm-0.25 0h0.13v1.4h-0.13zm-0.14-0.14h1.7v1.7h-1.7z" fill="#00acd3"/>
    <path d="m265 33h0.13v1.4h-0.13zm-0.26 0h0.14v1.4h-0.14zm-0.26 0h0.14v1.4h-0.14zm-0.26 0h0.14v1.4h-0.14zm-0.26 0h0.14v1.4h-0.14zm-0.25 0h0.13v1.4h-0.13zm-0.14-0.14h1.7v1.7h-1.7z" fill="#20c2ef"/>
    <path d="m267 33h0.13v1.4h-0.13zm-0.26 0h0.14v1.4h-0.14zm-0.26 0h0.14v1.4h-0.14zm-0.26 0h0.14v1.4h-0.14zm-0.26 0h0.14v1.4h-0.14zm-0.25 0h0.13v1.4h-0.13zm-0.14-0.14h1.7v1.7h-1.7z" fill="#00acd3"/>
    <path d="m267 31h0.13v1.4h-0.13zm-0.26 0h0.14v1.4h-0.14zm-0.26 0h0.14v1.4h-0.14zm-0.26 0h0.14v1.4h-0.14zm-0.26 0h0.14v1.4h-0.14zm-0.25 0h0.13v1.4h-0.13zm-0.14-0.14h1.7v1.7h-1.7zm3.4 2.1h0.13v1.4h-0.13zm-0.26 0h0.14v1.4h-0.14zm-0.26 0h0.14v1.4h-0.14zm-0.26 0h0.14v1.4h-0.14zm-0.26 0h0.14v1.4h-0.14zm-0.25 0h0.13v1.4h-0.13zm-0.14-0.14h1.7v1.7h-1.7z" fill="#20c2ef"/>
    <path d="m269 31h0.13v1.4h-0.13zm-0.26 0h0.14v1.4h-0.14zm-0.26 0h0.14v1.4h-0.14zm-0.26 0h0.14v1.4h-0.14zm-0.26 0h0.14v1.4h-0.14zm-0.25 0h0.13v1.4h-0.13zm-0.14-0.14h1.7v1.7h-1.7z" fill="#00acd3"/>
    <path d="m269 29h0.13v1.4h-0.13zm-0.26 0h0.14v1.4h-0.14zm-0.26 0h0.14v1.4h-0.14zm-0.26 0h0.14v1.4h-0.14zm-0.26 0h0.14v1.4h-0.14zm-0.25 0h0.13v1.4h-0.13zm-0.14-0.14h1.7v1.7h-1.7z" fill="#20c2ef"/>
    <path d="m271 33h0.13v1.4h-0.13zm-0.26 0h0.14v1.4h-0.14zm-0.26 0h0.14v1.4h-0.14zm-0.26 0h0.14v1.4h-0.14zm-0.26 0h0.14v1.4h-0.14zm-0.25 0h0.13v1.4h-0.13zm-0.14-0.14h1.7v1.7h-1.7z" fill="#00acd3"/>
   </g>
   <path d="m23 213a0.47 0.47 0 1 1 0 0.93 0.47 0.47 0 0 1 0-0.93" fill="#d4edf1"/>
   <path d="m23 213c0.043 0 0.083 8e-3 0.12 0.023a0.14 0.14 0 1 0 0.19 0.18 0.33 0.33 0 1 1-0.31-0.21m-8.2-1.1h22c-0.47-0.12-1.5-0.28-1.3-0.9-0.86 0.99-2.9 0.7-3.5 0.21-0.58 0.84-4 0.52-4.2-0.13-0.73 0.86-3 0.86-3.7 0-0.24 0.66-3.6 0.98-4.2 0.13-0.52 0.49-2.6 0.79-3.5-0.21 0.17 0.62-0.85 0.78-1.3 0.9" fill="#394d54"/>
  </g>
  <path d="m24 216c-1.2-0.55-1.8-1.3-2.1-2.1a7.1 7.1 0 0 1-1.5 0.23c-0.23 0.013-0.46 0.02-0.71 0.02-0.29 0-0.59-0.01-0.91-0.026 1.1 1.1 2.4 1.9 4.8 1.9 0.18 0 0.35-4e-3 0.53-0.01z" fill="#bfdbe0"/>
  <path d="m23 215a4 4 0 0 1-0.43-0.75 7.1 7.1 0 0 1-1.5 0.23c0.41 0.22 1 0.43 2 0.52z" fill="#d4edf1"/>
 </g>
</svg>
