<svg width="16" height="16" version="1.1" viewBox="0 0 16 17" xmlns="http://www.w3.org/2000/svg">
 <g transform="translate(-19 -125)">
  <g transform="matrix(.033 0 0 .033 17 125)" fill="#4a0">
   <path d="m269 38c-128 0-231 104-231 231 0 128 104 231 231 231 128 0 231-104 231-231 0-15-1.4-29-4.1-43l37-6.7-83-99-22 61-22 61 43-7.5c2.2 11 3.3 23 3.3 35 0 102-82 184-184 184s-184-82-184-184 82-184 184-184c60 0 113 28 146 72l18-50c-42-43-100-69-165-69z"/>
   <path d="m326 358c-29 37-82 43-118 14-37-29-43-82-14-118 42-53 75-17 172-81 19-13-4.4 143-39 185z"/>
  </g>
  <path d="m25 137s0.75 0.12 1.8-0.57" fill="none" stroke="#fff" stroke-linecap="round" stroke-linejoin="round" stroke-width=".29"/>
 </g>
</svg>
