<?xml version="1.0" encoding="UTF-8" standalone="no"?>
<svg
   version="1.1"
   x="0px"
   y="0px"
   width="12"
   height="16"
   viewBox="0 0 98.1 118"
   xml:space="preserve"
   id="svg2"
   sodipodi:docname="elasticsearch.svg"
   inkscape:version="1.3 (0e150ed6c4, 2023-07-21)"
   xmlns:inkscape="http://www.inkscape.org/namespaces/inkscape"
   xmlns:sodipodi="http://sodipodi.sourceforge.net/DTD/sodipodi-0.dtd"
   xmlns="http://www.w3.org/2000/svg"
   xmlns:svg="http://www.w3.org/2000/svg"><defs
   id="defs2" /><sodipodi:namedview
   id="namedview2"
   pagecolor="#ffffff"
   bordercolor="#666666"
   borderopacity="1.0"
   inkscape:showpageshadow="2"
   inkscape:pageopacity="0.0"
   inkscape:pagecheckerboard="0"
   inkscape:deskcolor="#d1d1d1"
   inkscape:zoom="16.894199"
   inkscape:cx="10.595353"
   inkscape:cy="3.6698988"
   inkscape:window-width="1364"
   inkscape:window-height="732"
   inkscape:window-x="37"
   inkscape:window-y="935"
   inkscape:window-maximized="1"
   inkscape:current-layer="svg2" />&#10;&#10;<path
   style="fill:#FFFFFF"
   class="st1"
   d="M40.9,103.9c-8.9,2.3-18.2-1.2-23.4-8.7c-3.2-4.4-4.4-9.9-3.5-15.3c0.2-0.9,0.4-1.7,0.6-2.6l0.5-1.6l1.4,1  c3.3,2.4,6.9,4.2,10.8,5.4l1,0.3l-0.1,1c-0.1,1.4,0.3,2.9,1.1,4.1c1.6,2.3,4.4,3.4,7.1,2.7c0.6-0.2,1.2-0.4,1.7-0.7L65.5,72  c1.4-0.9,2.3-2.2,2.6-3.8c0.3-1.6-0.1-3.3-1-4.6c-1.6-2.3-4.4-3.3-7.1-2.6c-0.6,0.2-1.2,0.4-1.7,0.7l-10.5,6.7  c-1.7,1.1-3.6,1.9-5.6,2.4c-8.9,2.3-18.2-1.2-23.4-8.7c-3.1-4.4-4.4-9.9-3.4-15.3c0.9-5.2,4.1-9.9,8.6-12.7l27.5-17.5  c1.7-1.1,3.6-1.9,5.6-2.5c8.9-2.3,18.2,1.2,23.4,8.7c3.2,4.4,4.4,9.9,3.5,15.3c-0.2,0.9-0.4,1.7-0.7,2.6l-0.5,1.6l-1.4-1  c-3.3-2.4-6.9-4.2-10.8-5.4l-1-0.3l0.1-1c0.1-1.4-0.3-2.9-1.1-4.1c-1.6-2.3-4.4-3.3-7.1-2.6c-0.6,0.2-1.2,0.4-1.7,0.7L32.4,46.1  c-1.4,0.9-2.3,2.2-2.6,3.8s0.1,3.3,1,4.6c1.6,2.3,4.4,3.3,7.1,2.6c0.6-0.2,1.2-0.4,1.7-0.7l10.5-6.7c1.7-1.1,3.6-1.9,5.6-2.5  c8.9-2.3,18.2,1.2,23.4,8.7c3.2,4.4,4.4,9.9,3.5,15.3c-0.9,5.2-4.1,9.9-8.6,12.7l-27.5,17.5C44.8,102.5,42.9,103.3,40.9,103.9"
   id="path2" />&#10;<g
   id="g2"
   transform="matrix(1.4258719,0,0,1.4052539,-3.426127,-49.100114)"
   style="stroke-width:0.706452"><path
     d="m 29.303507,74.147956 15.81937,7.243415 15.992974,-14.022867 a 17.835234,17.835234 0 0 0 0.347486,-3.534767 c 0,-9.850534 -7.996348,-17.847159 -17.847159,-17.847159 -5.910598,0 -11.415194,2.897199 -14.718118,7.764505 l -2.665634,13.791303 3.071081,6.605848 z"
     fill="#f4bd19"
     id="path2-3"
     style="stroke-width:18.0476" /><path
     d="m 12.904809,90.894419 c -0.231566,1.158935 -0.347487,2.375831 -0.347487,3.592727 0,9.850534 8.054309,17.905124 17.90512,17.905124 5.968559,0 11.473432,-2.95516 14.83404,-7.82275 L 47.904155,90.778497 44.369389,84.056728 28.492335,76.813591 Z"
     fill="#3cbeb1"
     id="path3"
     style="stroke-width:18.0476" /><path
     d="m 12.789164,63.485974 10.835865,2.549712 2.433515,-12.342563 c -1.506422,-1.158936 -3.302925,-1.738264 -5.215071,-1.738264 -4.693701,0 -8.575954,3.824292 -8.575954,8.575955 0,0.985053 0.173881,2.028067 0.521368,2.95516 z"
     fill="#e9478c"
     id="path4"
     style="stroke-width:18.0476" /><path
     d="m 11.861795,66.09337 c -4.8673065,1.564659 -8.2281915,6.258361 -8.2281915,11.35751 0,4.983505 3.071082,9.445365 7.7068215,11.183629 L 26.580189,74.843207 23.798633,68.875203 11.861795,66.093647 Z"
     fill="#2c458f"
     id="path5"
     style="stroke-width:18.0476" /><path
     d="m 48.078037,104.51156 c 1.506422,1.15921 3.302925,1.7965 5.15711,1.7965 4.693701,0 8.575954,-3.82429 8.575954,-8.57595 0,-1.043014 -0.173882,-2.028346 -0.521368,-2.955438 L 50.453869,92.227236 Z"
     fill="#95c63d"
     id="path6"
     style="stroke-width:18.0476" /><path
     d="m 50.279987,89.38772 11.936838,2.781555 c 4.867307,-1.622342 8.228191,-6.258084 8.228191,-11.35751 0,-4.983505 -3.071081,-9.387126 -7.706823,-11.183351 l -15.645209,13.675103 3.187003,6.08448 z"
     fill="#176655"
     id="path7"
     style="stroke-width:18.0476" /></g></svg>
