<svg width="16" height="16" version="1.1" viewBox="0 0 16 17" xmlns="http://www.w3.org/2000/svg">
 <g transform="translate(-19 -125)">
  <path d="m23 142c-0.2-0.11-0.21-0.19-0.21-1.1v-0.86h1.4l0.0035 0.78c0.0037 0.85-0.021 1-0.17 1.2-0.088 0.083-0.13 0.091-0.49 0.1-0.3 7e-3 -0.42-4e-3 -0.5-0.047zm3.5 2e-3c-0.22-0.094-0.23-0.18-0.23-1.1v-0.86l1.4-3e-5 -0.0077 0.88c-0.0069 0.8-0.014 0.89-0.078 0.97-0.039 0.052-0.11 0.12-0.16 0.14-0.12 0.063-0.73 0.058-0.88-8e-3zm3.4 4e-3c-0.047-0.026-0.12-0.096-0.16-0.16-0.066-0.1-0.072-0.18-0.072-0.97l-2.5e-4 -0.86h1.4v0.82c0 0.93-0.027 1.1-0.24 1.2-0.15 0.074-0.78 0.079-0.9 8e-3zm-7.3-2.8c-0.15-0.051-0.34-0.14-0.43-0.2-0.37-0.26-0.68-0.72-0.76-1.1-0.052-0.27-0.052-7.8 0-8.1 0.12-0.62 0.59-1.1 1.2-1.4l0.24-0.086 3.9-0.01c4.2-0.012 4.2-0.016 4.6 0.21 0.41 0.19 0.69 0.51 0.89 0.99l0.11 0.26 0.01 3.9c0.0068 2.6-0.0028 4-0.028 4.1-0.13 0.69-0.7 1.3-1.4 1.4-0.11 0.025-1.5 0.038-4.1 0.038l-4-4e-5 -0.27-0.093zm7.3-2c0.17-0.063 0.37-0.29 0.42-0.46 0.03-0.11 0.039-0.97 0.032-3.1l-0.011-2.9-0.1-0.15c-0.056-0.085-0.17-0.19-0.25-0.23-0.15-0.074-0.2-0.076-3.1-0.076-1.6-2.1e-4 -3 0.011-3 0.025-0.15 0.053-0.32 0.22-0.39 0.36-0.066 0.15-0.069 0.3-0.069 3.1 0 2.7 0.0038 2.9 0.068 3.1 0.074 0.16 0.15 0.24 0.32 0.33 0.099 0.052 0.44 0.059 3.1 0.06 2 6.9e-4 3-0.011 3-0.038zm-5.7-0.77-0.11-0.11v-2.5c0-2.7 0.0013-2.7 0.17-2.7 0.033-0.013 1.2-0.023 2.6-0.023 2.5 0 2.5 6.8e-4 2.6 0.077l0.098 0.077v5.2l-0.18 0.18h-5.1zm-5.4 1.4c-0.15-0.089-0.2-0.25-0.2-0.63-1.8e-4 -0.32 0.073-0.51 0.22-0.58 0.066-0.033 0.34-0.047 0.96-0.047l0.86-5.5e-4v1.3l-0.86-1.4e-4c-0.79-1.1e-4 -0.87-7e-3 -0.98-0.072zm14-0.6v-0.67h0.88c1.2 0 1.2-6.9e-4 1.2 0.69v0.39l-0.25 0.25h-1.8zm-14-2.8c-0.15-0.083-0.22-0.27-0.22-0.61 0-0.33 0.057-0.52 0.19-0.61 0.074-0.052 0.21-0.061 0.97-0.061h0.88v1.3l-0.86-1e-3c-0.67-1e-3 -0.88-0.013-0.96-0.054zm14-0.61v-0.67h0.88c1.2 0 1.2 2e-3 1.2 0.67 0 0.66-0.013 0.67-1.2 0.67h-0.86zm-14-2.8c-0.15-0.07-0.23-0.29-0.23-0.59 2.9e-4 -0.37 0.052-0.54 0.2-0.63 0.11-0.066 0.19-0.072 0.98-0.072l0.86-1.4e-4v1.3l-0.86-2e-3c-0.56-1e-3 -0.89-0.017-0.95-0.044zm14-0.62v-0.67h0.87c1.2 0 1.2-1e-3 1.2 0.69 0 0.38-0.0032 0.39-0.11 0.51l-0.11 0.12-1.8 0.022zm-10-3.6c0-0.47 0.016-0.89 0.036-0.95 0.068-0.18 0.24-0.24 0.64-0.24 0.27-1.1e-4 0.39 0.016 0.47 0.06 0.2 0.12 0.21 0.15 0.22 1.1l0.011 0.88h-1.4zm3.5-0.012c1.8e-4 -1.2 0.012-1.2 0.69-1.2 0.38 0 0.52 0.048 0.61 0.2 0.027 0.051 0.045 0.39 0.049 0.96l0.0074 0.88-1.4-2e-5 1.4e-4 -0.86zm3.5 8e-3c0-0.94 0.016-1 0.22-1.1 0.15-0.076 0.78-0.078 0.93-2e-3 0.21 0.11 0.23 0.22 0.22 1.1l-0.0099 0.83-1.4 0.02z" stroke-width=".037"/>
 </g>
</svg>
