<svg
   xmlns="http://www.w3.org/2000/svg"
   viewBox="0 0 835.0001 721.07267"
   height="16"
   width="16"
   version="1.1"
   id="svg6"
   >
  <path
     style="fill:#f1dd1c"
     d="m 0,360.53633 v -417.5 h 835.00006 v 835 H 0 Z"
     id="path821"
     inkscape:connector-curvature="0" />
  <path
     style="fill:#0f0f0f"
     d="m 318,711.48133 c -96.1068,7.9747 -124.6632,-123.6157 -25.5952,-95.1344 107.4157,86.3523 84.5584,-99.2142 84.5725,-163.97964 0.01,-41.777 0.015,-83.55396 0.023,-125.33096 23.0722,8.3449 80.90725,-18.0653 77.99645,16.2569 -2.6084,99.16086 6.6081,199.579 -6.5543,297.7431 -14.351,56.4276 -77.77465,78.6518 -130.44215,70.445 z"
     id="path870"
     inkscape:connector-curvature="0" />
  <path
     style="fill:#0f0f0f"
     d="m 626.50006,712.51543 c -44.77404,7.3092 -174.83941,-65.9064 -96.22394,-98.9791 44.1029,-37.8481 109.99554,84.8216 158.95614,3.6951 6.3114,-74.669 -103.79654,-62.6489 -138.11924,-113.2823 -62.99207,-58.06054 -22.1193,-178.3001 66.00254,-180.913 45.0268,-20.6353 181.6221,50.81006 95.9286,84.44696 -32.0195,41.183 -101.5687,-63.35746 -113.51914,17.4262 22.07954,66.77914 126.87314,55.41244 157.97534,122.40314 46.8813,80.6966 -28.3622,177.1152 -116.5582,165.5618 l -14.4418,-0.3588 z"
     id="path868"
     inkscape:connector-curvature="0" />
  <path
     d="m 351.203,-299.53127 c 1.8313,-40.6925 -3.5863,-88.6339 2.5714,-125 11.8984,32.8022 -2.2333,82.5306 23.4286,29.4881 10.4312,-26.5203 57.2349,-32.6164 75.0834,-26.9567 -62.3655,-4.489 -102.8596,62.9146 -92.6831,119.4385 -0.2534,42.6763 -0.3498,85.3534 -0.5226,128.0301 -18.1005,-15.2328 -2.8344,-63.8324 -7.8777,-92.1224 0,-10.9592 0,-21.9184 0,-32.8776 z m -725.75001,125.4437 c -2.467,-115.7672 -0.7541,-231.6337 -1.25,-347.4437 76.66671,0 153.33331,0 230.00001,0 -15.0319,18.3738 -63.8509,3.038 -92.1222,8.2029 -43.1259,0.099 -86.2519,0.1981 -129.3778,0.2971 0,51 0,102 0,153 69.5,0.1698 139,0.3395 208.5,0.5093 -15.0492,18.3555 -63.8493,3.0424 -92.1222,8.2065 -38.7926,0.095 -77.5852,0.1894 -116.3778,0.2842 0.039,56.0756 -0.873,112.1653 0.3085,168.2298 76.0803,-0.237 156.3696,4.9547 230.7009,-1.3344 29.4062,-39.9838 61.3957,-78.0163 90.1497,-118.4408 -26.3155,-41.7057 -60.5144,-79.2461 -87.9541,-120.4842 27.0672,9.2837 38.0452,48.1237 60.295,68.1068 12.5849,12.1177 27.61,59.0339 43.9012,32.4228 27.9827,-32.9419 50.2476,-72.7913 81.0988,-102 -6.3673,25.7444 -38.1062,51.5829 -53.5657,78.207 -10.4182,19.5882 -47.3708,40.3932 -19.4343,61.0632 28.4202,36.5362 56.5017,72.8383 85,109.2298 -23.38,-2.58 -32.7668,-37.7453 -50.6169,-53.0208 -17.1165,-22.2887 -33.865,-45.0284 -52.3277,-66.2911 -33.8203,37.2759 -62.9967,81.1363 -95.5554,120.7774 -79.7365,0.016 -159.6378,-0.095 -239.25001,0.4782 z m 1393.00011,4.8933 c -46.92304,-0.057 -85.94584,-41.32 -81.54224,-88.337 17.4188,7.9827 7.9326,52.4516 35.2922,64.0674 44.14154,29.8381 121.30544,26.6618 146.37564,-26.281 16.6828,-63.368 -59.4533,-73.53 -102.3002,-84.1071 -36.19114,-4.3981 -80.16184,-29.8673 -67.83524,-72.7928 13.7287,-60.9591 99.93204,-64.835 144.75944,-36.3866 34.2356,13.6107 29.1499,102.0731 14.0004,29.0989 -28.1612,-53.7186 -130.95434,-54.9666 -151.25004,5.6513 -13.5279,57.6028 55.51314,65.0757 94.24974,75.6419 40.1602,5.133 92.2543,32.5921 75.5772,82.021 -11.1816,46.1631 -67.4063,55.1242 -107.3269,51.424 z m -227.00004,0 c -46.8811,-0.551 -85.9341,-40.7751 -81.4657,-88.337 15.752,13.2261 10.9822,62.0673 45.7871,71 44.6225,19.658 111.8785,17.2717 135.6786,-32.2502 17.3686,-59.7717 -53.1254,-74.2525 -95.1237,-83.5018 -40.3631,-4.6578 -93.3565,-31.4959 -73.5913,-81.6821 24.482,-58.337 119.2013,-60.8509 157.4841,-15.5659 22.8186,36.0902 8.8231,63.2998 -4.0191,8.7031 -32.6904,-45.4198 -123.2063,-45.3129 -146.25,9.5476 -17.0945,60.2515 55.1621,68.6005 95.25,78.6701 43.8929,4.5918 96.0274,42.031 70.5,92.0792 -18.5103,38.7002 -66.4718,44.1786 -104.25,41.337 z M 477.203,-305.53127 c 61.86022,0.2031 132.65572,3.2949 194.65006,-1 10.3776,-71.1585 -62.64714,-140.2558 -133.58834,-109.3939 -42.04442,16.9242 -72.92642,69.0137 -62.56172,111.3939 z m 76.25002,136.3346 c -83.89832,-8.3309 -106.06472,-115.5229 -81.98892,-181.9583 17.3557,-69.5708 109.11562,-102.7867 166.00696,-57.3763 32.7958,25.6642 44.6556,70.3065 44.0134,110.5 -70.17124,0.299 -140.47804,-1.5837 -210.55416,0.6418 -5.7266,58.6581 34.4417,126.9826 99.77272,121.8582 48.5167,3.1359 95.04124,-33.7021 99.49144,-82.5724 17.9611,6.2911 -10.5482,55.5061 -28.4886,66.5724 -23.35964,21.6223 -58.17994,23.6438 -88.25284,22.3346 z m -341.25002,-7.2144 c 85.031,-14.5929 103.033,-129.6988 68,-195.4818 -31.0318,-69.6802 -142.7942,-63.7336 -170.5184,6.4451 -34.2042,66.805 -12.6115,178.604 73.5184,189.0509 l 14.5,0.8656 z m -124,-92.5384 c 2.0361,-38.2881 -5.2328,-128.1566 7,-144.7439 -1.7393,35.5574 -1.0518,77.0469 19.5902,26.7658 41.8727,-65.9215 154.9398,-50.9353 177.9758,23.8963 28.4352,68.0026 6.8542,178.0322 -76.7795,192.9026 -51.3683,11.7046 -104.3831,-21.3192 -117.3803,-71.4026 -10.7441,37.7503 3.7178,91.4392 -6.9062,125 -8.1851,-27.3017 -1.153,-69.8206 -3.5,-102.9604 0,-16.4859 0,-32.9719 0,-49.4578 z"
     style="fill:#0f0f0f"
     id="path819"
     inkscape:connector-curvature="0" />
</svg>
