<svg width="16" height="16" version="1.1" viewBox="0 0 835 721" xmlns="http://www.w3.org/2000/svg">
 <path d="m0 361v-418h835v835h-835z" fill="#f1dd1c"/>
 <path d="m318 711c-96 8-125-124-26-95 107 86 85-99 85-164 0.01-42 0.015-84 0.023-125 23 8.3 81-18 78 16-2.6 99 6.6 200-6.6 298-14 56-78 79-130 70z" fill="#0f0f0f"/>
 <path d="m627 713c-45 7.3-175-66-96-99 44-38 110 85 159 3.7 6.3-75-104-63-138-113-63-58-22-178 66-181 45-21 182 51 96 84-32 41-102-63-114 17 22 67 127 55 158 122 47 81-28 177-117 166l-14-0.36z" fill="#0f0f0f"/>
</svg>
