<svg width="16" height="16" version="1.1" viewBox="0 0 15.7 16.7" xmlns="http://www.w3.org/2000/svg">
 <path d="m3.59 15.8c0-0.437-0.0309-0.591-0.126-0.627-0.0927-0.0356-0.126-0.182-0.126-0.555v-0.506h1.01v0.506c0 0.373-0.0333 0.519-0.126 0.555-0.0951 0.0365-0.126 0.19-0.126 0.627v0.579h-0.504zm1.6 0.0053c0-0.442-0.0307-0.596-0.126-0.632-0.0927-0.0355-0.126-0.182-0.126-0.555v-0.506h1.01v0.487c0 0.268-0.0358 0.523-0.0795 0.567-0.0437 0.0439-0.091 0.325-0.105 0.626l-0.0254 0.546-0.546 0.0526v-0.584zm1.66 0.521c-0.0329-0.0329-0.0598-0.295-0.0598-0.583 0-0.387-0.0327-0.535-0.126-0.571-0.0927-0.0356-0.126-0.182-0.126-0.555v-0.506h1.09v0.456c0 0.286-0.0453 0.501-0.122 0.578-0.074 0.074-0.132 0.331-0.147 0.657-0.0237 0.503-0.0382 0.537-0.238 0.56-0.117 0.0137-0.24-2e-3 -0.273-0.035zm1.59-0.0039c-0.0308-0.0308-0.056-0.293-0.056-0.583 0-0.29-0.0378-0.55-0.084-0.579-0.0462-0.0285-0.084-0.276-0.084-0.551v-0.499h1.01v0.506c0 0.373-0.0333 0.519-0.126 0.555-0.0951 0.0365-0.126 0.19-0.126 0.627v0.579h-0.238c-0.131 0-0.263-0.0252-0.294-0.056zm1.62-0.523c0-0.437-0.0308-0.591-0.126-0.627-0.0927-0.0356-0.126-0.182-0.126-0.555v-0.506h1.01v0.506c0 0.373-0.0333 0.519-0.126 0.555-0.0951 0.0365-0.126 0.19-0.126 0.627v0.579h-0.504zm1.6 0c0-0.437-0.0309-0.591-0.126-0.627-0.0927-0.0356-0.126-0.182-0.126-0.555v-0.506h1.01v0.506c0 0.373-0.0333 0.519-0.126 0.555-0.0951 0.0365-0.126 0.19-0.126 0.627v0.579h-0.504zm-9.01-1.95c-0.397-0.231-0.399-0.258-0.399-5.49 0-5.37-0.00724-5.29 0.48-5.49 0.173-0.0715 1.59-0.0916 5.29-0.0748l5.06 0.0229 0.382 0.383v10.3l-0.471 0.405-5.1-0.0025c-3.31-0.0017-5.15-0.0326-5.24-0.0881zm8.4-0.95 0.602-0.621 4.8e-4 -1.42 4.78e-4 -1.42 0.244-0.139c0.517-0.294 0.722-0.974 0.452-1.5-0.582-1.12-2.24-0.749-2.24 0.507 0 0.467 0.178 0.778 0.584 1.02l0.288 0.17v2.57l-1.54 1.44h1.01l0.602-0.621zm-0.1-4.17c-0.268-0.211-0.294-0.574-0.0561-0.789 0.343-0.311 0.928-0.0788 0.925 0.367-0.0016 0.265-0.0683 0.373-0.308 0.499-0.249 0.131-0.305 0.124-0.561-0.0775zm-1.68 2.64c0.61-0.289 0.842-0.952 0.548-1.56-0.429-0.886-1.53-0.93-2.07-0.0838l-0.168 0.263-4.91 0.00648v0.672h4.94l0.164 0.277c0.299 0.506 0.945 0.69 1.5 0.426zm-0.929-0.722c-0.271-0.387-0.0337-0.905 0.415-0.905 0.46 0 0.727 0.649 0.392 0.953-0.225 0.204-0.649 0.179-0.807-0.0476zm-3.25-1.33c0.153-0.0932 0.342-0.282 0.42-0.419l0.142-0.25 2.69-9.59e-4 2.18-2.18h2.56v-0.672h-2.82l-2.18 2.18-2.44-0.00102-0.142-0.25c-0.424-0.746-1.5-0.784-2.01-0.0719-0.237 0.333-0.259 0.955-0.044 1.28 0.348 0.531 1.1 0.707 1.63 0.382zm-0.938-0.592c-0.268-0.211-0.294-0.574-0.0561-0.789 0.343-0.311 0.928-0.0788 0.925 0.367-0.00155 0.265-0.0683 0.373-0.308 0.499-0.249 0.131-0.305 0.124-0.561-0.0775zm3.41-1.49c0.32-0.187 0.598-0.782 0.538-1.15-0.0915-0.564-0.636-1.04-1.19-1.04-0.338 0-0.868 0.308-1.01 0.589l-0.13 0.251h-3.1v0.672h1.55c1.45 0 1.55 0.0104 1.6 0.159 0.0779 0.246 0.46 0.589 0.75 0.674 0.311 0.0913 0.679 0.0365 0.997-0.149zm-1.03-0.601c-0.0924-0.0924-0.168-0.262-0.168-0.378 0-0.46 0.649-0.727 0.953-0.392 0.306 0.338 0.0455 0.938-0.407 0.938-0.115 0-0.286-0.0756-0.378-0.168zm-5.43 6.18c-0.0469-0.0838-0.251-0.13-0.655-0.147l-0.587-0.0253v-0.504l0.587-0.0253c0.404-0.0174 0.608-0.0631 0.655-0.147 0.0465-0.083 0.213-0.122 0.526-0.122h0.458v1.09h-0.458c-0.312 0-0.479-0.0386-0.526-0.122zm12.6-0.424v-0.546h0.458c0.312 0 0.479 0.0386 0.526 0.122 0.0469 0.0838 0.251 0.13 0.655 0.147l0.587 0.0253v0.504l-0.587 0.0253c-0.404 0.0174-0.608 0.0631-0.655 0.147-0.0465 0.083-0.213 0.122-0.526 0.122h-0.458zm-12.6-1.21c0-0.0442-0.274-0.0914-0.609-0.105l-0.609-0.0247v-0.504l0.609-0.0247c0.466-0.0189 0.609-0.0534 0.609-0.147 0-0.0935 0.119-0.122 0.504-0.122h0.504v1.01h-0.504c-0.277 0-0.504-0.0361-0.504-0.0803zm12.6-0.424v-0.504h0.504c0.385 0 0.504 0.0288 0.504 0.122 0 0.0936 0.143 0.128 0.609 0.147l0.609 0.0247v0.504l-0.609 0.0247c-0.335 0.0136-0.609 0.0608-0.609 0.105 0 0.0442-0.227 0.0803-0.504 0.0803h-0.504zm-12.6-1.22c-0.0367-0.0956-0.192-0.126-0.644-0.126h-0.596l0.0266-0.231c0.026-0.226 0.0406-0.231 0.635-0.256 0.466-0.0189 0.609-0.0534 0.609-0.147 0-0.0935 0.119-0.122 0.504-0.122h0.504v1.01h-0.495c-0.362 0-0.508-0.0337-0.543-0.126zm12.6-0.378v-0.504h0.504c0.392 0 0.504 0.028 0.504 0.126 0 0.101 0.126 0.126 0.63 0.126h0.63v0.504h-0.59c-0.447 0-0.602 0.0305-0.639 0.126-0.0354 0.0922-0.181 0.126-0.543 0.126h-0.495zm-12.6-1.22c-0.0366-0.0954-0.191-0.126-0.639-0.126h-0.59v-0.504h0.59c0.447 0 0.602-0.0305 0.639-0.126 0.0354-0.0922 0.181-0.126 0.543-0.126h0.495v1.01h-0.495c-0.362 0-0.508-0.0337-0.543-0.126zm12.6-0.378v-0.504h0.495c0.362 0 0.508 0.0337 0.543 0.126 0.0366 0.0954 0.191 0.126 0.639 0.126h0.59v0.504h-0.59c-0.447 0-0.602 0.0305-0.639 0.126-0.0354 0.0922-0.181 0.126-0.543 0.126h-0.495zm-12.6-1.22c0-0.101-0.126-0.126-0.63-0.126h-0.63v-0.504h0.59c0.447 0 0.602-0.0305 0.639-0.126 0.0354-0.0922 0.181-0.126 0.543-0.126h0.495v1.01h-0.504c-0.392 0-0.504-0.028-0.504-0.126zm12.6-0.378v-0.504h0.495c0.362 0 0.508 0.0337 0.543 0.126 0.0366 0.0954 0.191 0.126 0.639 0.126h0.59v0.504h-0.63c-0.504 0-0.63 0.0252-0.63 0.126 0 0.098-0.112 0.126-0.504 0.126h-0.504zm-12.6-1.21c0-0.0935-0.143-0.128-0.609-0.147l-0.609-0.0247v-0.504l0.609-0.0247c0.335-0.0136 0.609-0.0608 0.609-0.105 0-0.0442 0.227-0.0803 0.504-0.0803h0.504v1.01h-0.504c-0.385 0-0.504-0.0288-0.504-0.122zm12.6-0.382v-0.504h0.504c0.277 0 0.504 0.0361 0.504 0.0803s0.274 0.0914 0.609 0.105l0.609 0.0247 0.0526 0.546h-0.635c-0.509 0-0.635 0.0251-0.635 0.126 0 0.098-0.112 0.126-0.504 0.126h-0.504zm-10.3-2.27c0-0.373 0.0333-0.519 0.126-0.555 0.0951-0.0365 0.126-0.19 0.126-0.627v-0.579h0.504v0.579c0 0.437 0.0309 0.591 0.126 0.627 0.0927 0.0356 0.126 0.182 0.126 0.555v0.506h-1.01zm1.6 0.0116c0-0.362 0.0337-0.508 0.126-0.543 0.0956-0.0367 0.126-0.192 0.126-0.644v-0.596l0.546 0.0526 0.0254 0.546c0.014 0.3 0.0612 0.582 0.105 0.626 0.0437 0.0439 0.0795 0.299 0.0795 0.567v0.487h-1.01zm1.6 0.0433c0-0.293 0.043-0.487 0.122-0.553 0.0791-0.0657 0.131-0.299 0.147-0.661l0.0247-0.56h0.504l0.0247 0.56c0.016 0.362 0.0678 0.595 0.147 0.661 0.0793 0.0658 0.122 0.26 0.122 0.553v0.452h-1.09zm1.68-0.0355c0-0.268 0.0358-0.523 0.0795-0.567 0.0437-0.0439 0.091-0.325 0.105-0.626 0.0254-0.545 0.0259-0.546 0.277-0.546h0.252l0.0249 0.571c0.0177 0.404 0.0605 0.585 0.147 0.618 0.0876 0.0336 0.122 0.186 0.122 0.542v0.495h-1.01zm1.6-0.0194c0-0.373 0.0333-0.519 0.126-0.555 0.0951-0.0365 0.126-0.19 0.126-0.627v-0.579h0.504v0.579c0 0.437 0.0309 0.591 0.126 0.627 0.0927 0.0356 0.126 0.182 0.126 0.555v0.506h-1.01zm1.6 0c0-0.373 0.0333-0.519 0.126-0.555 0.0951-0.0365 0.126-0.19 0.126-0.627v-0.579h0.504v0.579c0 0.437 0.0309 0.591 0.126 0.627 0.0927 0.0356 0.126 0.182 0.126 0.555v0.506h-1.01z" fill="#214478" stroke-width=".084"/>
</svg>
