<svg width="13" height="16" version="1.1" viewBox="0 0 226 271" xmlns="http://www.w3.org/2000/svg">
 <g transform="translate(-67 -47)" stroke-width="1.3">
  <path d="m239 316c-3.7-1.5-9.3-5.2-12-8.2-5.3-5.1-12-17-12-21-9e-3 -1.2-3.4-1.7-12-1.7-11 0-13-0.37-15-2.6-2.2-2.5-2.2-2.8-0.18-6 2.1-3.2 2.8-3.4 15-3.4h12l1.6-5.8c4.3-15 21-28 37-28 11 0 19 3.1 27 10 8.7 7.8 13 17 13 29 0.088 16-7.7 28-22 35-8.1 4.1-22 4.7-31 1.2zm21-9.5c12-3.1 21-14 21-27 0-9.2-1.3-13-7.4-19-13-14-34-12-44 4.1-3.1 4.7-3.7 7-3.7 14 0 14 6.2 23 19 28 6.2 2.2 8.3 2.3 16 0.45zm-22-23c-1.6-1.6-0.94-6.7 1-8.4 2.6-2.1 7-0.6 8.1 2.7 0.46 1.5 0.12 3.5-0.76 4.6-1.6 2-6.8 2.6-8.4 1zm23 0c-1.6-1.6-0.94-6.7 1-8.4 2.6-2.1 7-0.6 8.1 2.7 0.46 1.5 0.12 3.5-0.76 4.6-1.6 2-6.8 2.6-8.4 1zm-113 0.77c-13-3.1-26-14-32-26-2.7-6-2.9-8.3-3.3-53-0.37-43-0.58-46-2.7-46-3.3-0.019-16-5.9-21-10-13-9.6-22-29-22-45 0-23 15-45 36-53 10-4.2 31-4.2 41-0.0079 34 13 46 55 26 85-8.7 13-24 23-39 24-4 0.42-7.3 1-7.3 1.3 0 0.29 1.2 2.8 2.6 5.6 3.4 6.6 11 13 17 15 2.9 0.8 19 1.4 38 1.4 31 7e-3 33-0.17 33-2.3 0.026-4.7 6.4-16 12-21 8.5-7.7 15-10 27-10 16-0.027 29 7.7 36 22 4.7 9.6 4.5 25-0.44 35-11 21-37 28-57 15-7.4-4.7-14-13-16-21l-1.5-5.7h-32c-35 0-43-0.92-52-6.7l-6.1-3.9v32c0 31 0.033 32 3.4 39 5.8 12 18 19 32 19 8.7 0 13 5.1 7.4 9.8-2.7 2.4-11 2.7-19 0.76zm119-71c20-10 19-39-0.62-49-21-11-46 9.2-40 32 1.8 6.5 8.8 15 15 18 6.5 3.2 18 2.8 25-0.91zm-27-15c-3.5-3.5-6.3-7.3-6.3-8.4 0-5.3 7.3-7 11-2.6 2.4 2.6 2.5 2.6 10-4.7 7.7-7.3 11-8.8 14-5.7 3.4 3.4 1.5 7.2-8.8 17-5.7 5.7-11 10-12 10-1.1 0-4.8-2.9-8.3-6.4zm-96-54c20-10 30-35 22-57-4-11-15-22-26-26-22-8.2-47 2.4-57 24-4.1 8.9-4.1 28 0 36 5.2 11 16 21 28 25 1.8 0.6 8.4 0.92 15 0.7 9.1-0.31 13-1.1 18-3.8zm-37-12c-5.2-2.9-6.5-8.5-6.5-28 0-21 1.4-26 7.9-28 5.2-2.2 6.1-1.8 27 11 16 9.9 19 14 18 20-0.8 4.2-3.8 6.6-21 17-16 9.8-20 11-25 8.2zm18-17c5.5-3.4 11-7 13-8.1 3.1-2 3.1-2.1-10-11-7.2-4.7-14-8.5-14-8.5-0.55-0.017-1 7.5-1 17 0 9.2 0.47 17 1 17 0.57 0 5.5-2.8 11-6.1z" fill="#6fb1fe"/>
  <path d="m141 281c-10-4.2-21-15-25-25-2.6-7-2.8-10-2.8-51 0-33-0.39-44-1.7-45-0.92-0.7-4.5-2.3-8-3.6-34-13-47-56-25-86 16-21 44-28 68-17 34 16 43 62 16 89-8.2 8.2-22 15-31 16-3.9 0.37-6.9 1.4-7.3 2.5-2.1 5.5 10 19 19 22 3 0.83 19 1.4 38 1.4l33 8e-3 2.4-7.6c3.4-11 15-22 25-25 13-3.8 27-0.75 38 7.9 2.3 2 6.1 7.3 8.3 12 7.5 15 5 32-6.3 44-13 14-34 16-49 5.8-7.1-4.8-14-15-16-22l-1.4-5.2-34-8e-3c-19-4e-3 -36-0.6-39-1.3-2.6-0.72-7.6-3.1-11-5.3-3.5-2.2-6.6-4-7-4-1.2 0-0.57 61 0.7 65 4.1 15 15 23 32 26 5.7 0.76 11 1.9 11 2.4 0.64 0.58 0.78 2.6 0.31 4.5-0.82 3.3-1.3 3.4-9.8 3.4-6.4-0.022-11-0.97-17-3.3zm124-66c19-8.8 24-32 9.2-46-6.7-6.7-13-9-23-8.2-8.6 0.62-14 4.2-21 13-5 6.6-6 20-2 28 7.3 14 23 20 37 14zm-25-18c-3.6-3.6-5.6-6.8-5.3-8.3 0.71-3.7 6.2-3.9 10-0.28l3.3 3.1 7.3-7.7c8-8.5 13-9.8 14-3.7 0.35 2.5-1.7 5.4-9.3 13-5.4 5.4-11 9.8-12 9.8-1.1 0-4.7-2.6-7.8-5.8zm-98-51c8.5-3.8 19-14 23-23 3.2-6.5 3.7-9.1 3.7-20 0.011-11-0.32-13-4.5-20-5.4-10-13-17-23-21-11-4.9-26-4.9-36-0.045-14 6.4-22 16-26 30-7 24 8.1 50 33 57 6.5 1.8 23 0.34 29-2.6zm-37-17c-3.2-3.2-3.3-3.7-3.3-25 0-12 0.37-22 0.83-23 1.2-3.1 8.3-6.4 12-5.5 1.7 0.43 10 5.3 19 11 16 10 19 13 18 20-0.63 4.3-3.6 6.7-20 17-17 10-21 11-26 6.1zm24-16c6.5-4.1 12-7.9 12-8.5 0.58-0.94-26-19-28-19-0.49 0-0.89 8.2-0.89 18 0 21-1.5 20 16 8.9z" fill="#1b87fe"/>
 </g>
</svg>
