<svg
   xmlns="http://www.w3.org/2000/svg"
   version="1.1"
   width="13"
   height="16"
   viewBox="0 0 226.22958 271.06348"
   >
  <g
     id="g817"
     transform="translate(-66.666667,-47.288264)">
    <path
       style="fill:#6fb1fe;stroke-width:1.33333337"
       d="m 239.28052,316.02367 c -3.69571,-1.46708 -9.31407,-5.16052 -12.48523,-8.20767 -5.27402,-5.06776 -12.08396,-16.76801 -12.1156,-20.816 -0.009,-1.21351 -3.40086,-1.66667 -12.47304,-1.66667 -10.7128,0 -12.79409,-0.36914 -14.8424,-2.6325 -2.23093,-2.46515 -2.2421,-2.84659 -0.17592,-6 2.09906,-3.20355 2.81323,-3.3675 14.66912,-3.3675 h 12.46266 l 1.62345,-5.7984 C 220.21124,252.29227 236.55131,240 252.54564,240 c 11.17256,0 19.45868,3.06441 27.26556,10.08347 8.71477,7.83533 12.65839,16.9125 12.72837,29.2974 0.0884,15.63161 -7.67794,28.02244 -22.2433,35.4884 -8.08232,4.14285 -22.16692,4.66708 -31.01575,1.1544 z m 21.30147,-9.47476 c 12.22692,-3.07879 20.75134,-14.20116 20.75134,-27.07566 0,-9.16781 -1.3247,-12.64685 -7.3586,-19.32565 C 261.43716,246.27 240.279,248.22823 229.67805,264.24735 226.59963,268.89916 226,271.23404 226,278.56929 c 0,14.02434 6.15689,22.94608 18.99729,27.52838 6.20914,2.21581 8.33272,2.2773 15.5847,0.45124 z m -22.35976,-23.4378 c -1.58451,-1.5845 -0.941,-6.74135 1.04712,-8.39134 2.55402,-2.11965 7.04449,-0.59857 8.10594,2.74575 0.46476,1.46435 0.122,3.53365 -0.76173,4.59847 -1.64999,1.98812 -6.80684,2.63162 -8.39133,1.04712 z m 22.66666,0 c -1.5845,-1.5845 -0.941,-6.74135 1.04712,-8.39134 2.55403,-2.11965 7.0445,-0.59857 8.10595,2.74575 0.46476,1.46435 0.122,3.53365 -0.76173,4.59847 -1.64999,1.98812 -6.80684,2.63162 -8.39134,1.04712 z m -113.22766,0.77466 c -13.28038,-3.12994 -26.34513,-13.83704 -32.11338,-26.31821 -2.74991,-5.95019 -2.8993,-8.34524 -3.27883,-52.56756 -0.3654,-42.57595 -0.58166,-46.33439 -2.66667,-46.34636 -3.28515,-0.0188 -15.510993,-5.94124 -21.198854,-10.26905 -12.559663,-9.55646 -21.736829,-28.57684 -21.736829,-45.05126 0,-22.612411 14.900881,-44.518781 36.000003,-52.925009 10.43335,-4.156816 30.88185,-4.160698 41.33333,-0.0079 33.70033,13.390678 46.45841,55.022929 26.08841,85.131789 -8.71441,12.88074 -24.3482,22.59702 -38.75111,24.08354 -4.03552,0.41653 -7.3373,0.99726 -7.3373,1.29054 0,0.29329 1.16465,2.81616 2.58811,5.60637 3.38104,6.62738 10.73641,12.98936 17.04212,14.74047 2.88638,0.80156 19.12414,1.40181 38.03644,1.40607 30.53757,0.007 33.00097,-0.16667 33.01302,-2.3259 0.0263,-4.70986 6.39014,-15.80634 11.92842,-20.7993 8.50892,-7.67111 15.00246,-10.13934 26.72522,-10.15839 16.44798,-0.0267 29.02164,7.67745 36.1445,22.14663 4.72498,9.59822 4.52714,25.15737 -0.4405,34.6422 -11.23873,21.45834 -36.83977,28.26438 -57.36188,15.24965 -7.44386,-4.72076 -13.95981,-13.27977 -16.04493,-21.0758 l -1.51693,-5.67165 h -32.3245 c -35.44937,0 -42.51044,-0.91851 -51.6579,-6.71966 L 124,184.05873 v 31.70884 c 0,31.40783 0.0326,31.77434 3.43812,38.60826 5.81329,11.66576 18.12624,18.9575 32.01188,18.9575 8.66484,0 12.57827,5.14783 7.44501,9.79335 -2.67369,2.41967 -10.82326,2.74131 -19.23378,0.75909 z m 119.12906,-70.98813 c 19.68599,-10.39299 19.32544,-38.80151 -0.62468,-49.21945 -20.93724,-10.93342 -45.72588,9.19672 -39.55326,32.12006 1.75878,6.53168 8.75928,14.90144 15.06266,18.0089 6.54791,3.22798 18.06842,2.8108 25.11528,-0.90951 z m -27.17374,-15.27677 c -3.45578,-3.50852 -6.28322,-7.28852 -6.28322,-8.4 0,-5.33074 7.32819,-6.97984 11.33618,-2.55107 2.3922,2.64336 2.49236,2.59712 10.10766,-4.66667 7.67511,-7.3208 11.2643,-8.76166 14.2895,-5.73646 3.4127,3.4127 1.48881,7.23977 -8.76283,17.43128 C 254.60428,199.36408 249.03172,204 247.92037,204 c -1.11133,0 -4.84806,-2.87061 -8.30382,-6.37913 z m -96.25682,-53.91826 c 20.39831,-10.47324 29.83699,-35.04644 21.75676,-56.642763 -3.97982,-10.637052 -14.9627,-21.554852 -25.79298,-25.640154 -21.7712,-8.212336 -47.273885,2.36323 -57.102253,23.679414 -4.091788,8.874444 -4.091788,27.594013 0,36.468453 5.237995,11.36038 16.465864,21.33152 28.445413,25.26151 1.83333,0.60144 8.43333,0.91724 14.66666,0.70177 9.05008,-0.31283 12.68175,-1.08408 18.0264,-3.82823 z M 106.47475,131.36535 C 101.27047,128.45855 100,122.91068 100,103.09154 c 0,-20.644723 1.40445,-25.692907 7.89607,-28.381824 5.21707,-2.160981 6.11239,-1.78844 26.57241,11.056755 15.73871,9.881072 19.10699,13.699108 17.85647,20.240819 -0.79831,4.17602 -3.78302,6.64884 -20.70252,17.15193 -15.81022,9.81449 -19.88657,11.14467 -25.14768,8.20613 z m 17.55974,-17.49976 c 5.48103,-3.37393 11.3938,-7.03906 13.1395,-8.14474 3.1495,-1.99482 3.07238,-2.0758 -10.00001,-10.500845 C 119.92829,90.550217 113.55,86.715348 113,86.698075 112.45,86.6808 112,94.166667 112,103.33333 112,112.5 112.46552,120 113.03449,120 c 0.56896,0 5.51896,-2.76048 11,-6.13441 z"
       id="path821"
       inkscape:connector-curvature="0" />
    <path
       style="fill:#1b87fe;stroke-width:1.33333337"
       d="m 140.66667,280.68755 c -10.31117,-4.18782 -20.61035,-14.81879 -24.54538,-25.33608 -2.62052,-7.004 -2.78796,-10.08115 -2.78796,-51.23823 0,-33.46476 -0.39288,-44.0854 -1.66666,-45.05372 -0.91667,-0.69685 -4.53124,-2.32551 -8.03238,-3.61924 C 69.517452,142.83355 57.12292,99.610377 79.084285,69.827624 94.84074,48.459616 122.75928,41.638017 147.35311,53.14686 c 34.36793,16.082697 42.5531,62.42992 15.76057,89.24166 -8.21071,8.21659 -21.65803,15.06828 -31.41309,16.00561 -3.89315,0.37408 -6.87881,1.38752 -7.2968,2.47679 -2.09661,5.46367 9.96705,19.14468 19.12328,21.68709 3.00593,0.83466 18.7382,1.4302 37.8961,1.43455 l 32.75651,0.008 2.39209,-7.5886 c 3.43726,-10.90423 14.68388,-22.01196 25.4587,-25.14429 12.97172,-3.77098 27.3147,-0.75078 37.55882,7.90876 2.34079,1.9787 6.09079,7.26944 8.33334,11.75718 7.52374,15.05634 5.0421,32.37982 -6.32891,44.17992 -13.34669,13.85036 -33.62391,16.23652 -49.24711,5.79526 -7.11544,-4.75538 -14.2677,-14.5211 -16.37988,-22.36511 l -1.40285,-5.21035 -34.28193,-0.008 c -18.85507,-0.004 -36.40266,-0.59658 -38.99464,-1.31666 -2.59199,-0.7201 -7.56282,-3.11675 -11.04631,-5.32591 -3.48348,-2.2086 -6.61277,-4.01609 -6.95397,-4.01609 -1.22892,0 -0.57471,60.77746 0.70375,65.37936 4.07241,14.65889 14.82235,23.34648 31.69225,25.61212 5.67433,0.76206 10.84304,1.85681 11.48601,2.43276 0.64299,0.57594 0.78155,2.59112 0.30793,4.47813 -0.81944,3.26491 -1.29546,3.42943 -9.8357,3.39931 -6.37623,-0.0225 -11.29082,-0.97236 -16.9746,-3.2808 z m 124,-65.85934 c 19.17748,-8.79726 23.75804,-31.77709 9.2336,-46.32325 -6.70251,-6.71253 -13.09475,-8.98017 -23.24454,-8.24601 -8.60548,0.62246 -14.44857,4.1512 -20.9175,12.63241 -5.02238,6.58465 -5.99244,20.12299 -1.9985,27.89093 7.27751,14.15426 23.35751,20.27062 36.92694,14.04592 z m -24.51632,-18.00836 c -3.58104,-3.6488 -5.55994,-6.78157 -5.26399,-8.33333 0.71345,-3.74096 6.15621,-3.89117 10.00429,-0.27609 l 3.29635,3.09676 7.31645,-7.7363 c 8.00146,-8.4606 12.75935,-9.7607 13.61344,-3.71992 0.34867,2.46606 -1.74905,5.39835 -9.29997,13 -5.3626,5.39863 -10.69027,9.8157 -11.83927,9.8157 -1.14901,0 -4.67129,-2.63107 -7.8273,-5.84682 z m -98.30428,-51.28106 c 8.51346,-3.76591 18.79062,-13.85638 23.12369,-22.70361 3.17792,-6.48869 3.67567,-9.12249 3.68552,-19.50185 0.0107,-11.129087 -0.31753,-12.60657 -4.52075,-20.357786 -5.43518,-10.023113 -12.52466,-16.731609 -22.64118,-21.424433 -10.621,-4.926844 -25.65895,-4.945695 -36.22086,-0.0454 -13.75797,6.383135 -21.90403,15.749949 -26.024771,29.924803 -7.040618,24.218866 8.066013,49.857076 33.418951,56.716956 6.52677,1.76598 22.52262,0.33593 29.1794,-2.60868 z m -37.24001,-16.81152 c -3.2014,-3.2014 -3.27273,-3.73662 -3.27273,-24.55761 0,-11.706693 0.37271,-22.256157 0.82824,-23.443257 1.20836,-3.148926 8.28338,-6.404472 11.92955,-5.489342 1.72548,0.433068 10.36307,5.336242 19.19464,10.89594 C 149.64411,96.431005 151.8576,98.93994 150.81327,106 c -0.63075,4.26406 -3.56098,6.70087 -20.003,16.63475 -17.03668,10.29315 -21.06661,11.23012 -26.20421,6.09252 z m 23.67572,-16.31185 c 6.49639,-4.11833 12.09337,-7.94373 12.43771,-8.5009 0.58066,-0.93952 -25.83822,-18.581187 -27.82584,-18.581187 -0.49151,0 -0.89365,8.164194 -0.89365,18.142657 0,21.0937 -1.54914,20.24315 16.28178,8.93943 z"
       id="path819"
       inkscape:connector-curvature="0" />
  </g>
</svg>
