<svg width="16" height="16" version="1.1" viewBox="0 0 16 17" xmlns="http://www.w3.org/2000/svg">
 <g transform="translate(-19 -125)" stroke-width="1.1">
  <path d="m19 140c-0.029-0.26 0.033-0.99 0.027-0.34 0.023 0.4-0.029 1.6-0.027 0.51zm2.6 0.98c0.034-0.59 0.016 0.68 0 0zm0.31-0.18c0.02-0.8 0.05 0.8 3.2e-4 0.13 1.4e-4 -0.042-2.5e-4 -0.084-3.2e-4 -0.13zm3.4-0.81c0.11-0.35-0.25-1.5 0.23-1.3 0.18 0.65 0.035 1.3 0.078 2v0.87c-0.74-0.17-0.083-1.1-0.3-1.6zm3.7 0.015v-1.6c0.65 0.2 0.17 1 0.31 1.5v1.6c-0.65-0.2-0.17-1-0.31-1.5zm3.7 0.88c-0.28-0.69 0.52-0.52 0.39 0.058 0.034 0.6-0.56 0.59-0.39-0.058zm-13 0.61c0.1-0.18 0.47-0.4 0.13-0.086zm1-0.5c0.42-0.39-0.33 0.41 0 0zm12-0.077c-0.079-0.19 0.2 0.2 0.088 0.099zm0.46-1.3c-0.038-0.34 0.05-0.7 0.032-0.15 0.018 0.43-0.052 0.94-0.032 0.15zm-13 0.95c0.42-0.39-0.33 0.41 0 0zm13-0.015c-0.079-0.19 0.2 0.2 0.088 0.099zm-0.37-0.43c-0.079-0.19 0.2 0.2 0.088 0.099zm-0.36-0.42c-0.51-0.25 0.15-1.7 0.16-0.68-0.028 0.14 0.18 1-0.16 0.68zm-0.56-6e-3c-0.16-0.31 0.36 0.43 0 0zm-11-0.6c0.02-0.69 0.042 0.81 0 0zm0.84 0.37c0.42-0.39-0.33 0.41 0 0zm3.7-0.015c-0.079-0.19 0.2 0.2 0.088 0.099zm-4.3-0.51c0.016-0.68 0.033 0.69 0 0zm10 0.32c-0.11-0.24 0.31 0.37 0 0zm-5.6-0.18c-0.078-0.19 0.2 0.2 0.088 0.099zm-4.1-0.11c0.42-0.39-0.33 0.41 0 0zm3.5 0.046c-0.079-0.19 0.2 0.2 0.088 0.099zm0.93 0.084c0.12-0.3 0.22-0.049 0 0zm5.5-0.21c-0.079-0.19 0.2 0.2 0.088 0.099zm-0.61-0.061c-0.08-0.19 0.2 0.2 0.088 0.098zm-8.5-0.17c0.42-0.39-0.33 0.41 0 0zm2.9-0.015c-0.078-0.18 0.2 0.21 0.088 0.099zm1 0.023c0.12-0.31 0.22-0.049 0 0zm0.55 0c0.11-0.26 0.36-0.16 0 0zm-8.7-2.2c-0.021-0.34 0.03-1.8 0.059-0.82 0.011 0.81 0.012 1.6-0.029 2.4-0.038-0.54-0.023-1.1-0.03-1.6zm2.7 0.86c0.02-0.79 0.051 0.81 3.6e-4 0.13 1e-4 -0.042-2.8e-4 -0.084-3.6e-4 -0.13zm0.31-0.18c0.049-1.3 0.024 1.2 0 0zm7.2 0.4c-0.3-0.41 0.56-1.1 0.32-0.3 0.21 0.39-0.33 1.2-0.32 0.37l3.7e-4 -0.042 2.8e-4 -0.032zm2.4 0.44c-0.15-0.31 0.36 0.43 0 0zm1.3-2v-2.1c0.27-0.24 1.2-0.074 1.1-0.56 0.041 1.3 0.016 2.5 0.013 3.8-0.013-1-0.019-2.1-0.029-3.1-0.74-0.3-0.83 0.64-0.73 1.1v3c-0.73-0.4-0.092-1.5-0.31-2.1zm-7.3 1.9c-0.19-0.42-0.35-1.8 0.14-1.6-0.051 0.45 0.23 1.4-0.14 1.6zm-1.5-0.078c0.42-0.39-0.33 0.41 0 0zm0.85-0.077c-0.077-0.19 0.2 0.2 0.088 0.099zm3 0.084c0.12-0.31 0.22-0.053 0 0zm0.61-0.061c0.12-0.3 0.22-0.051 0 0zm2.8-0.21c-0.076-0.19 0.2 0.21 0.088 0.099zm-7.5-0.033c0.1-0.18 0.47-0.4 0.13-0.088zm1.4-0.15c-0.078-0.19 0.2 0.2 0.088 0.099zm3.1 0.022c0.12-0.3 0.22-0.043 0 0zm0.61-0.06c0.12-0.31 0.22-0.049 0 0zm1.5-0.21c-0.079-0.19 0.2 0.2 0.088 0.098zm0.55 0c-0.078-0.18 0.2 0.21 0.088 0.099zm-10-0.15c-0.3-0.38 0.38 0.38 0 0zm4 0.02c0.056-0.34 0.13 0.15 0.0076 0.015zm-0.68-0.11c-0.078-0.18 0.2 0.21 0.088 0.099zm4.5 0.084c0.12-0.31 0.22-0.049 0 0zm1.3-0.27c-0.039-0.19 0.28 0.39 0 0zm-5.5-0.15c0.48-0.19 0.16 0.29 0.0086 0.015zm-4-0.03c-0.14-0.29 0.36 0.43 0 0zm0.58 0.031c0.26-0.39 0.29 0.16 0 0zm2.7-0.092c-0.18-0.33 0.37 0.43 0 0zm5.2 0.083c0.12-0.3 0.22-0.047 0 0zm0.55 0c0.11-0.26 0.36-0.15 0 0zm-0.37-1.1v-0.95c0.51 0.31 0.45 1.7-0.0047 1.6-0.021-0.23 0.025-0.46 0.0047-0.69zm-8.5 0.75c-0.078-0.19 0.2 0.2 0.088 0.099zm3.3-0.061c-0.08-0.19 0.2 0.2 0.088 0.098zm-2.5 0.022c0.11-0.26 0.36-0.15 0 0zm0.55 0c0.12-0.3 0.22-0.046 0 0zm8.4-0.14c-0.079-0.19 0.2 0.2 0.088 0.099zm0.68 0.022c0.11-0.26 0.37-0.16 0 0zm-5.8-0.19c0.16-0.67 0.44-2.1-0.71-1.8-0.47 0.088-0.68-0.33-0.071-0.26 0.86 0.26 1.1-0.56 0.85-1.2-0.047-0.68 0.56-0.29 0.31 0.15-0.24 0.8 0.5 1.4 1.2 0.99 0.54 0.3-0.56 0.28-0.79 0.28-0.96 0.22 0.085 1.5-0.81 1.8zm-3.6-0.83c0.038-1.1 0.034 1-7.8e-4 0.093 2.6e-4 -0.031 5.2e-4 -0.062 7.8e-4 -0.093zm-1.9 0.75c-0.079-0.19 0.2 0.2 0.088 0.099zm0.55 0c-0.078-0.19 0.2 0.2 0.088 0.099zm3.3-0.061c-0.078-0.19 0.2 0.2 0.088 0.099zm-1.2 0.023c0.12-0.31 0.22-0.049 0 0zm8.3-0.084c-0.078-0.18 0.2 0.21 0.088 0.099zm-4.5-0.11c0.42-0.39-0.33 0.41 0 0zm3.9 0.046c-0.078-0.19 0.2 0.2 0.088 0.099zm0.81 0.084c0.11-0.26 0.36-0.15 0 0zm0.61-0.061c0.12-0.31 0.22-0.05 0 0zm-9.5-0.62c0.011-0.8 0.18 0.19 0.011 0.42-0.022-0.14-0.0074-0.28-0.011-0.42zm-2.6 0.35c-0.098-0.23 0.28 0.31 0 0zm2.8 0.023c0.07-0.21 0.27-0.068 0 0zm8.1-0.15c-0.11-0.24 0.32 0.37 0 0zm0.93 0.023c0.12-0.31 0.22-0.047 0 0zm-5.2-0.19c0.42-0.39-0.33 0.41 0 0zm5.8 0.13c0.069-0.21 0.27-0.064 0 0zm-9.5-0.33c-0.082-0.19 0.2 0.2 0.088 0.098zm0.8 0.022c0.11-0.26 0.36-0.15 0 0zm3.7-0.13c0.42-0.39-0.33 0.41 0 0zm3.1 0.046c-0.038-0.19 0.28 0.39 0 0zm1.7 0.022c0.12-0.3 0.22-0.047 0 0zm-12-0.27c-0.08-0.19 0.2 0.2 0.088 0.098zm3.3-0.061c-0.079-0.19 0.2 0.2 0.088 0.099zm0.31 0.022c0.11-0.26 0.36-0.16 0 0zm3.7-0.057c0.1-0.18 0.47-0.39 0.13-0.085zm2.4-0.088c-0.14-0.32 0.28 0.38 0 0zm3 0.022c0.12-0.31 0.22-0.046 0 0zm-13-1.7c0.028-0.38-0.085-1.5 0.096-1.3 0.0081 0.82-0.22 1.7 0.095 2.5 0.63 0.08 1.8-0.25 2.1 0.17-0.7 0.11-1.6 0.11-2.2-0.026-0.21-0.42 0.12-0.89-0.029-1.3zm3.1 1.3c-0.38-1-0.024-2.1-0.15-3.2 3e-3 -1 0.0082-2 0.027-3 0.18 0.51-0.37 1.5 0.45 1.6h2.9v-2.7c0.65 0.2 0.17 1 0.31 1.5v1.2c1.1 9e-3 2.2-0.026 3.4 0.036-0.77 0.61-1.8 0.17-2.7 0.23-0.7-0.14-0.68 0.57-0.64 1v0.86c-0.67-0.25-0.16-1.2-0.3-1.7-0.083-0.37-0.61-0.098-0.9-0.18h-2.5v4.1c0.41 0.12 1.1-0.27 1.3 0.14-0.38 0.18-0.87 0.25-1.2 0.012zm7.2 0.087c-0.28-1.2-0.072-2.4-0.2-3.7 0.023-0.79 0.83-1.2 1.5-1 0.75 3e-3 1.5 5e-3 2.3 8e-3v-2.7c0.65 0.2 0.17 1 0.31 1.5v1.2c1 0.4 0.73-1.4 0.76-1.5 0.016 1.1 0.012 2.2-0.0021 3.2 0.014-0.51 0.14-1.9-0.7-1.4-0.14 0.54-0.021 1.1-0.055 1.7v1.6c-0.58 0.34-0.22-0.85-0.31-1.2v-2.2h-3.4v4.1h3.1c-0.82 0.57-1.8 0.038-2.7 0.28-0.17 8e-3 -0.34 3e-3 -0.5-0.039zm-1.7-0.12c0.22-0.56 1.5 0.27 0.48 0.11-0.11-0.012-0.74 0.18-0.48-0.11zm-3.5-0.27c0.069-0.21 0.27-0.064 0 0zm3.1 5e-3c0.033-0.13 0.7-0.54 0 0zm1.6-0.088c-0.1-0.24 0.31 0.37 0 0zm-0.61-0.061c-0.075-0.22 0.3 0.38 0 0zm5 0.022c0.069-0.21 0.27-0.064 0 0zm-12-2v-1.9h-2.6c-0.091-0.47-0.031-1.4-0.028-2 0.21 0.53-0.42 1.7 0.49 1.7h2.1c0.012-0.4 0.0025-1.3 0.029-1.4 0.025 1.8 0.038 3.6 0.0043 5.4-0.038-0.62-0.024-1.2-0.03-1.9zm-0.19 1.6c-0.079-0.19 0.2 0.2 0.088 0.099zm3.1 0.022c0.11-0.26 0.36-0.15 0 0zm4-0.083c-0.11-0.24 0.31 0.37 0 0zm5.1-0.038c0.12-0.3 0.22-0.05 0 0zm-7.3-0.15c-0.079-0.19 0.2 0.2 0.088 0.099zm-5.8-0.18c-0.08-0.19 0.2 0.2 0.088 0.098zm3.7 0.084c0.12-0.31 0.22-0.049 0 0zm3.9-0.019c0.32-0.2 0.071 0.13 0 0zm-3.2-0.044c0.07-0.2 0.27-0.077 0 0zm8.5-0.06c0.12-0.31 0.22-0.049 0 0zm-7.4-0.21c-0.12-0.24 0.32 0.37 0 0zm-5.2-0.12c-0.12-0.24 0.32 0.37 0 0zm-0.61-0.061c-0.042-0.19 0.28 0.39 0 0zm4.5 0.084c0.11-0.26 0.36-0.16 0 0zm9.1-0.12c0.07-0.21 0.27-0.075 0 0zm-7.6-0.15c-0.078-0.18 0.2 0.21 0.088 0.099zm-5.8-0.18c-0.041-0.2 0.28 0.39 0 0zm-0.61-0.061c-0.1-0.24 0.31 0.37 0 0zm5.2 0.083c0.12-0.31 0.22-0.045 0 0zm0.79-0.27c-0.14-0.32 0.28 0.38 0 0zm-5.8-0.18c-0.034-0.19 0.28 0.39 0 0zm-0.61-0.061c-0.14-0.32 0.28 0.38 0 0zm0.25-0.37c-0.079-0.19 0.2 0.2 0.088 0.099zm9.5-3.1v-1.3c0.71 0.47 0.12 1.5 0.31 2.2-0.53 0.89-0.24-0.69-0.31-0.88z" fill="#ccc"/>
  <path d="m33 140c-0.31-0.48-1.1-1.1-1.2-1.5 0.69-0.072 0.97 0.8 1.4 1.2 0.34 0.4 0.68 0.8 1 1.2-0.047 0.14 0.041 0.68-0.11 0.5-0.38-0.45-0.77-0.9-1.2-1.4zm-6.2-0.26c-0.39-0.39-0.73-0.83-1.1-1.2 0.52-0.16 0.82 0.32 1.1 0.67 0.26 0.3 0.51-0.48 0.77-0.6 0.27-0.19 0.79-0.12 0.36 0.18-0.32 0.36-0.6 0.76-0.97 1.1-0.063-0.01-0.12-0.036-0.17-0.077zm-2.6-3c-0.4-0.47-0.81-0.94-1.2-1.4 0.36-0.61 0.7 0.31 1 0.54 0.66 0.76 1.3 1.5 2 2.3-0.23-0.039-0.54 0.11-0.67-0.14-0.36-0.43-0.73-0.85-1.1-1.3zm4.6 0.32c0.42-0.33 0.88-1.5 1.4-0.82 0.55 0.61 1.1 1.2 1.6 1.9-0.66 0.24-0.99-0.69-1.4-1.1-0.29-0.65-0.87-0.49-1.1 0.08-0.29 0.35-0.58 0.69-0.87 1-0.14-0.042-0.69 0.1-0.45-0.11 0.28-0.33 0.56-0.66 0.84-0.99zm-6.4-2.4c-0.26-0.11-0.36-0.97-0.18-0.85 0.24 0.29 0.48 0.57 0.73 0.85-0.15 0.17-0.3 0.44-0.45 0.11-0.032-0.038-0.063-0.076-0.095-0.11zm-1.9-2.2c-0.43-0.51-0.86-1-1.3-1.5-0.0068-0.26-0.059-0.81 0.27-0.31 0.77 0.92 1.6 1.8 2.3 2.8 0.14 0.28 0.089 0.85-0.19 0.33-0.36-0.42-0.72-0.84-1.1-1.3z" fill="#f00"/>
  <path d="m21 136a100 100 0 0 1-0.99-1.1c-0.61-0.72-0.62-0.74-0.62-1l0.0011-0.31 2.1 2.4 0.58-0.64 0.0022 0.3c0.0022 0.25-0.03 0.33-0.22 0.57-0.12 0.15-0.27 0.27-0.33 0.27-0.057 0-0.27-0.19-0.47-0.41zm1.3-0.81v-0.31l1.8-2.1c0.97-1.1 1.8-2.1 1.8-2.1 0.094 0 0.2 0.1 0.72 0.72 0.21 0.25 0.39 0.44 0.41 0.44 0.018-2e-3 1-1.4 2.2-3l2.2-3 0.53-8e-3 -0.15 0.2c-0.082 0.11-1.1 1.6-2.4 3.2-1.2 1.7-2.3 3.1-2.3 3.1-0.13 0.071-0.21 5e-3 -0.7-0.57-0.24-0.29-0.46-0.53-0.49-0.54-0.024-0.01-0.85 0.93-1.8 2.1l-1.8 2.1z" fill="#09fc09"/>
  <path d="m20 141c0.4-0.45 0.82-0.89 1.2-1.3 0.066 0.42-0.1 0.8-0.44 1.1-0.3 0.32-0.6 0.78-1.1 0.68-0.13-0.032 0.23-0.28 0.29-0.4zm1.5-1.4c0.081-0.57 0.64-1.1 1.1-1.3 0.33-0.05 0.4 0.026 0.13 0.25-0.41 0.47-0.83 0.92-1.3 1.4l-0.0033-0.3zm1.3-1.7c0.29-0.36 0.61-0.68 0.92-1 0.082 0.14 0.41 0.28 0.17 0.42-0.3 0.3-0.6 0.85-1.1 0.63zm1.3-1.2c-0.065-0.51 0.64-0.88 0.92-1.3 0.85-0.9 1.7-1.9 2.6-2.7 0.48 0.16 0.79 0.79 1.2 1.1 0.49 0.57 0.97 1.2 1.5 1.7 1.1-1.2 2.1-2.5 3.2-3.7-0.015 0.21 0.03 0.45-0.022 0.65-1 1.2-2 2.4-3 3.5-0.52 0.016-0.79-0.75-1.2-1.1-0.52-0.55-0.96-1.3-1.5-1.7-0.7 0.57-1.3 1.3-1.9 1.9-0.51 0.55-1 1.1-1.5 1.7-0.044-0.047-0.084-0.1-0.12-0.16z" fill="#00f"/>
  <path d="m19 134v-7.9h16v16h-16zm3.1 5.9 0.0022-1.6h-2.7v3.1h2.7zm12 0v-1.6h-12v3.1h12zm-12-7.6 0.0065-5.7h-2.7v11h2.7zm12 0v-5.7h-12v11h12z" fill="#060506"/>
 </g>
</svg>
