<svg width="16" height="16" version="1.1" viewBox="0 0 15.72 16.652" xmlns="http://www.w3.org/2000/svg">
 <g transform="translate(-18.598 -125.39)">
  <g transform="matrix(.068673 0 0 .068673 10.689 112.09)" stroke-width="1.3333">
   <path d="m222.67 400v-6.6667h26.667v13.333h-26.667zm0-26.667v-6.6667h26.667v13.333h-26.667zm0-26.667v-6.6667h26.667v13.333h-26.667z" fill="#8ecdfe"/>
   <path d="m262.67 400v-6.6667h26.667v13.333h-26.667zm0-26.667v-6.6667h53.333v13.333h-53.333zm0-26.667v-6.6667h40v13.333h-40zm-120-66.667v-6.6667h40v13.333h-40z" fill="#c5c5c5"/>
   <path d="m182.67 400v-6.6667h26.667v13.333h-26.667zm0-26.667v-6.6667h26.667v13.333h-26.667zm0-26.667v-6.6667h26.667v13.333h-26.667zm13.333-66.667v-6.6667h53.333v13.333h-53.333z" fill="#ace500"/>
   <path d="m142.67 400v-6.6667h26.667v13.333h-26.667zm0-26.667v-6.6667h26.667v13.333h-26.667zm0-26.667v-6.6667h26.667v13.333h-26.667z" fill="#e20064"/>
   <path d="m129.33 313.33v-13.333h200v26.667h-200zm0-66.667v-13.333h200v26.667h-200z" fill="#575757"/>
   <path d="m115.38 214.52h231.02v211.33h-231.02zm53.954 185.48v-6.6667h-26.667v13.333h26.667zm40 0v-6.6667h-26.667v13.333h26.667zm40 0v-6.6667h-26.667v13.333h26.667zm40 0v-6.6667h-26.667v13.333h26.667zm-120-26.667v-6.6667h-26.667v13.333h26.667zm40 0v-6.6667h-26.667v13.333h26.667zm40 0v-6.6667h-26.667v13.333h26.667zm66.667 0v-6.6667h-53.333v13.333h53.333zm-146.67-26.667v-6.6667h-26.667v13.333h26.667zm40 0v-6.6667h-26.667v13.333h26.667zm40 0v-6.6667h-26.667v13.333h26.667zm53.333 0v-6.6667h-40v13.333h40zm26.667-33.333v-13.333h-200v26.667h200zm-146.67-33.333v-6.6667h-40v13.333h40zm66.667 0v-6.6667h-53.333v13.333h53.333zm80-33.333v-13.333h-200v26.667h200z" fill="#1b1b1b"/>
  </g>
 </g>
</svg>
