<svg width="16" height="16" version="1.1" viewBox="0 0 16 17" xmlns="http://www.w3.org/2000/svg">
 <g transform="translate(-19 -125)">
  <g transform="matrix(.035 0 0 .035 5.7 121)">
   <path d="m400 587c-12-2.6-22-11-27-21l-2.7-5.7v-52c0-51 0.04-52 2.1-56 4.8-10 12-17 22-21 3.8-1.5 11-1.8 62-2.2l58-0.5 1-129 2.7-5.7c4.9-10 15-18 27-21 3.6-0.76 25-1.1 66-1.1h60l0.58-114 2.3-5.8c3.1-7.7 12-17 19-20l5.7-2.8h104l5.7 2.7c7.3 3.4 15 11 18 18l2.9 6v404l-3.3 6.7c-4.1 8.2-12 16-20 19l-5.7 2.3-198 0.17c-151 0.13-199-0.11-203-1zm407-3.8c11-5.2 19-15 21-26 0.83-4.4 1.1-59 0.84-202l-0.3-196-3.1-6.5c-5.5-12-15-19-27-21-4.2-0.81-20-1.1-51-0.83-44 0.32-46 0.39-51 2.5-8 3.3-15 10-19 18l-3.3 6.7-0.53 59c-0.29 32-0.63 59-0.75 59s-27 0.25-60 0.26c-33 3e-3 -62 0.43-66 0.97-3.2 0.53-8 2-10 3.2-6.7 3.2-14 12-17 19l-2.3 5.8-1 128-58 0.5c-58 0.5-58 0.51-64 2.8-7.6 3.1-15 10-19 18l-2.8 6v102l2.8 5.7c4.8 9.8 14 17 24 20 2.1 0.51 90 0.82 203 0.74l199-0.15z" fill="#f9d79e"/>
   <path d="m400 585c-10-2.5-20-9.9-24-20l-2.8-5.7v-102l2.8-6c3.5-7.6 11-15 19-18 5.7-2.3 6.1-2.3 64-2.8 86 13 58-63 59-128l2.3-5.8c2.8-7 11-15 17-19 2.5-1.2 7.3-2.7 10-3.2 153 2.1 157-3.2 12 2.9-15 0.68-16 0.88-20 3.4-2.2 1.5-4.5 2.7-5 2.7-1.2 0-8.1 7.7-8.1 9 0 0.55 0.9 1 2 1 1.1 0 2-0.67 2-1.5 0-0.82 0.68-1.5 1.5-1.5s1.5-0.69 1.5-1.5c0-2.1 3.6-5.8 4.9-5 0.76 0.47 1.1 44 1.1 149v148l-13 0.42c-7 0.23-15 0.88-17 1.4-3.1 0.79 1.5 1.1 20 1.3 94 1.2 125 1.6 8 1.7-75 0.053-136-0.3-138-0.79zm104-1.6c-0.68-0.27-2-0.29-3-0.037-0.97 0.25-0.42 0.48 1.2 0.5 1.6 0.02 2.4-0.19 1.8-0.46z" fill="#fcc827"/>
   <path d="m537 584c-32-0.58-37-1.8-11-2.7l13-0.45v-148c1.6-141-55-154 70-156l62-0.66-7.2e-4 153c-4e-4 84-0.34 153-0.75 154-1.3 0.77-101 1.3-133 0.75zm-37-0.76c0.97-0.25 2.3-0.24 3 0.037 0.68 0.27-0.12 0.48-1.8 0.46-1.6-0.02-2.2-0.24-1.2-0.5z" fill="#fdc315"/>
   <path d="m644 585-29-0.55 56-0.97 0.72-154c0.39-85 1.1-181 1.5-213l0.78-59 2.7-5.7c3.8-8 11-15 18-18l6.2-2.9h101l5.6 2.6c7.6 3.6 13 8.6 17 16l3.4 6.3v405l-2.3 4.7c-3.7 7.5-9.6 13-17 17l-6.7 3.3-65 0.037c-35 0.02-78-0.21-94-0.52zm164-3.3c7.5-3.7 15-12 18-19l2.2-5.8v-199c0-198-9e-3 -199-2-204-2.7-7.3-9.8-15-17-18l-6-2.8h-101l-6.6 3.3c-7.7 3.8-13 9.2-17 17l-2.6 5.6-0.64 68c-0.45 47-1.1 328-0.87 358 4e-3 0.43 29 0.65 64 0.5l64-0.28z" fill="#f49e18"/>
   <path d="m673 584c-0.26-30 0.43-311 0.87-358l0.64-68 2.6-5.6c3.7-7.9 9-13 17-17l6.6-3.3h101l6 2.8c7.6 3.6 15 11 17 18 2 5.5 2 6.3 2 204v199l-2.2 5.8c-2.7 7.3-10 15-18 19l-5.6 2.8-64 0.28c-35 0.15-64-0.072-64-0.5z" fill="#f17901"/>
  </g>
 </g>
</svg>
