<svg width="16" height="16" version="1.1" viewBox="0 0 8.2 9.1" xmlns="http://www.w3.org/2000/svg">
 <g transform="translate(-16 -56)">
  <path d="m22 65c-0.16-0.068-0.3-0.16-0.43-0.27-0.11-0.097-0.48-0.22-0.85-0.28-0.57-0.098-0.7-0.091-1 0.05-0.24 0.1-0.49 0.17-0.74 0.21-0.38 0.044-0.4 0.034-0.47-0.26-0.04-0.23-0.051-0.47-0.035-0.7 0.036-0.49-0.31-1.1-0.68-1.2-0.32-0.078-0.96-0.45-1.2-0.68-0.16-0.18-0.17-0.21-0.02-0.52 0.01-0.18 0.63-0.66 0.4-0.45h0.82c0.57 0 0.5-0.065 0.83 1e-6 0.55 1 1.1 2.2 2.3 2.4 1.2 0.13 2.2-0.75 2.2-1.9l-0.044-0.58 0.47 0.12c0.33 0.024 0.38-0.032 0.39-0.13 0.016-0.31 0.24 0.33 0.25 0.73 3e-3 0.25 0.054 0.48 0.11 0.51 0.057 0.036 0.17 0.21 0.24 0.4 0.13 0.3 0.12 0.34-0.034 0.46-0.14 0.091-0.3 0.16-0.46 0.2-0.34 0.078-1.1 0.82-1.1 1.2-0.078 0.35-0.4 0.87-0.55 0.86-0.12-0.019-0.24-0.053-0.36-0.1zm-1.2-2.8c-0.46-0.23-0.7-0.67-0.68-1.3 7e-3 -0.28 0.12-0.53 0.081-0.26 0.027 0.18 0.42 0.14 0.45 0.018 0.046-0.22-0.063 0.32-0.063 0.5 0 0.16 0.12 0.37 0.34 0.58 0.3 0.3 0.38 0.33 0.72 0.29 0.42-0.057 0.58 0.058 0.29 0.21-0.27 0.14-0.77 0.12-1.1-0.056z" fill="#f6a115"/>
  <path d="m17 60c0.2-0.18 0.33-0.43 0.41-0.75 0.1-0.43 0.095-0.52-0.078-0.86-0.13-0.27-0.21-0.56-0.26-0.86-0.055-0.41-0.038-0.49 0.11-0.57 0.29-0.15 0.92-0.21 1.3-0.12 0.3 0.068 0.45 0.04 0.88-0.17 0.29-0.14 0.52-0.3 0.52-0.36 0-0.059 0.17-0.29 0.37-0.52l0.36-0.41 0.29 0.21c0.16 0.11 0.34 0.33 0.4 0.48 0.16 0.4 0.85 0.6 1.4 0.41 0.39-0.12 0.43-0.12 0.55 0.042 0.07 0.096 0.13 0.31 0.13 0.48 0 0.18 0.09 0.42 0.23 0.58 0.38 0.48 0.63 1 0.71 1.7 0.043 0.32 0.067 0.57 0.054 0.57-0.014 0-0.13-0.23-0.26-0.52-0.32-0.7-0.92-1.3-1.6-1.7-0.45-0.22-0.66-0.26-1.3-0.26-0.66 0-0.84 0.04-1.3 0.29-0.85 0.43-1.3 1.1-1.5 2.4l-0.053 0.26-1.7-5e-3zm2.9 4e-3c0-0.15 0.097-0.41 0.22-0.59 0.36-0.53 0.67-0.7 1.4-0.75 0.84-0.053 1.5 0.27 1.9 0.91 0.4 0.6 0.38 0.7-0.11 0.7-0.35 0-0.44-0.046-0.67-0.33-0.69-0.87-1.9-0.84-2.3 0.048-0.17 0.38-0.46 0.39-0.46 0.013z" fill="#ef6225"/>
 </g>
</svg>
