<svg
   xmlns="http://www.w3.org/2000/svg"
   width="16"
   height="16"
   viewBox="0 0 8.2222528 9.102029"
   version="1.1"
>
  <g
     inkscape:label="Layer 1"
     inkscape:groupmode="layer"
     id="layer1"
     transform="translate(-16.447027,-55.533793)">
    <path
       inkscape:connector-curvature="0"
       style="fill:#f6a115;stroke-width:0.99999553"
       d="m 21.95276,64.534754 c -0.15604,-0.06797 -0.300989,-0.158981 -0.429998,-0.269999 -0.105999,-0.097 -0.479997,-0.222999 -0.847996,-0.284999 -0.571997,-0.098 -0.699997,-0.091 -0.997995,0.05 -0.236657,0.102735 -0.486335,0.172389 -0.741997,0.206999 -0.383998,0.044 -0.401998,0.034 -0.465998,-0.255999 -0.03952,-0.232113 -0.05127,-0.468106 -0.035,-0.702997 0.036,-0.486998 -0.312998,-1.090995 -0.682997,-1.179995 -0.324998,-0.078 -0.963995,-0.449998 -1.176995,-0.684997 -0.164999,-0.181999 -0.165999,-0.213999 -0.02,-0.521997 0.01049,-0.181719 0.627727,-0.661713 0.403998,-0.450999 h 0.817996 c 0.565998,0 0.496797,-0.06465 0.830997,10e-7 0.553262,1.029197 1.063521,2.18772 2.324989,2.357988 1.242995,0.128 2.22799,-0.748997 2.150991,-1.915991 l -0.04381,-0.578586 0.46581,0.122588 c 0.329998,0.024 0.384127,-0.03153 0.389127,-0.125529 0.016,-0.313999 0.24287,0.329527 0.24887,0.730526 0.003,0.246998 0.054,0.477997 0.111999,0.512997 0.057,0.036 0.167,0.214999 0.243999,0.397998 0.126,0.302999 0.123,0.342999 -0.034,0.459998 -0.140646,0.09091 -0.295923,0.156881 -0.458998,0.195 -0.342998,0.078 -1.065995,0.821996 -1.143994,1.178994 -0.078,0.354999 -0.404999,0.866996 -0.549998,0.859996 -0.123316,-0.019 -0.243866,-0.05291 -0.358999,-0.100998 z m -1.216994,-2.819988 c -0.461998,-0.226999 -0.695997,-0.669997 -0.677997,-1.285994 0.007,-0.282999 0.123965,-0.530022 0.081,-0.260999 0.027,0.181999 0.419124,0.143393 0.445046,0.01805 0.04641,-0.224423 -0.06305,0.320953 -0.06305,0.502951 0,0.156 0.123999,0.371999 0.336999,0.584998 0.299998,0.299999 0.376998,0.330998 0.715996,0.285999 0.421998,-0.057 0.579998,0.058 0.292999,0.211999 -0.270999,0.144999 -0.772996,0.119999 -1.129995,-0.056 z"
       id="path386"
       />
    <path
       inkscape:connector-curvature="0"
       style="fill:#ef6225;stroke-width:0.99999553"
       d="m 17.237781,60.163773 c 0.2,-0.181999 0.334999,-0.429998 0.412999,-0.750997 0.102999,-0.429998 0.095,-0.519997 -0.078,-0.858996 -0.125644,-0.273168 -0.212162,-0.56268 -0.256999,-0.859996 -0.055,-0.411998 -0.038,-0.494998 0.114,-0.572998 0.294998,-0.151999 0.919995,-0.211999 1.301994,-0.123999 0.299998,0.068 0.446998,0.04 0.881996,-0.170999 0.286999,-0.14 0.521998,-0.300999 0.522998,-0.359999 0,-0.059 0.165999,-0.292998 0.367998,-0.519997 l 0.364998,-0.411999 0.289999,0.206999 c 0.159999,0.113 0.339998,0.327999 0.402998,0.476998 0.165,0.399999 0.848996,0.596998 1.431994,0.412998 0.385998,-0.122999 0.429998,-0.119999 0.548997,0.042 0.07,0.096 0.128,0.313999 0.128,0.483998 0,0.184 0.09,0.416998 0.225999,0.577998 0.384394,0.475512 0.631313,1.04716 0.713997,1.652993 0.043,0.315998 0.067,0.574997 0.054,0.574997 -0.014,0 -0.131999,-0.232999 -0.261998,-0.517998 -0.32,-0.697997 -0.924997,-1.331994 -1.577994,-1.651993 -0.451998,-0.221999 -0.661998,-0.263999 -1.302995,-0.264999 -0.657997,0 -0.842996,0.04 -1.336994,0.285999 -0.850996,0.425998 -1.263994,1.063995 -1.525993,2.36399 l -0.053,0.261999 -0.832996,-0.002 -0.833996,-0.003 z m 2.899987,0.004 c 0,-0.15 0.097,-0.413998 0.216,-0.587997 0.359998,-0.529998 0.674997,-0.701997 1.360994,-0.745997 0.836996,-0.053 1.524993,0.267999 1.949991,0.909996 0.396998,0.599997 0.381998,0.695997 -0.112,0.695997 -0.349998,0 -0.442998,-0.046 -0.672997,-0.332999 -0.691997,-0.867996 -1.884991,-0.842996 -2.27999,0.048 -0.166999,0.377998 -0.460997,0.385999 -0.460997,0.013 z"
       id="path388"
       />
  </g>
</svg>
