<svg width="16" height="16" version="1.1" viewBox="0 0 15.72 16.652" xmlns="http://www.w3.org/2000/svg">
 <g transform="translate(-18.598 -125.39)">
  <path d="m25.634 141.72c-0.49872-0.0536-0.99094-0.1938-1.145-0.32598l-0.09489-0.081-0.09406-1.2812-0.09489-1.2804-0.22381-0.38275a9.431 9.431 0 0 1-0.223-0.39493c0-7e-3 0.0746 0.014 0.16623 0.0446 0.64062 0.22056 1.9276 0.38112 2.7109 0.33815 0.81092-0.0438 1.6097-0.16701 2.0516-0.31707 0.12244-0.0415 0.22219-0.0658 0.22219-0.0544 0 0.0105-0.09325 0.18245-0.20597 0.38114l-0.20598 0.36004-0.0738 1.2894-0.0746 1.2894-0.09975 0.089c-0.13379 0.12-0.5271 0.24003-0.97959 0.30005-0.33491 0.0438-1.3218 0.0591-1.6356 0.0259zm-0.12732-3.56a11.41 11.41 0 0 1-1.132-0.1865c-0.34464-0.081-0.7201-0.21895-0.77362-0.28381-0.02838-0.035-0.25544-2.2016-0.25625-2.4441 0-0.0779 0.0081-0.0844 0.06162-0.0551 0.18408 0.098 0.49304-0.0244 0.81254-0.32114 0.13786-0.12805 0.21084-0.17921 0.19948-0.13946l-0.12164 0.41926c-0.0892 0.30003-0.09974 0.36896-0.06811 0.43789 0.04541 0.10146 0.14434 0.10542 0.21246 0.0106a1.8002 1.8002 0 0 0 0.13137-0.34222 27.531 27.531 0 0 1 0.3933-1.2488c0.07055-0.19788 0.09649-0.32437 0.0892-0.42979-0.0081-0.13787-0.01613-0.14998-0.09813-0.1598-0.04948-5e-3 -0.10948 7e-3 -0.1338 0.026-0.02433 0.0202-0.0892 0.17278-0.14434 0.33815-0.08109 0.24247-0.13786 0.34868-0.28869 0.53927-0.21733 0.27327-0.53278 0.52223-0.66252 0.52223-0.14597 0-0.20516-0.10052-0.20273-0.34383 0.0016-0.28383 0.07866-0.55873 0.26355-0.94878 0.31869-0.67063 0.67144-1.0623 0.95526-1.0599 0.13379 2e-3 0.18651 0.0389 0.29274 0.20598 0.11434 0.18246 0.16542 0.21894 0.24571 0.17597 0.15812-0.0844 0.12002-0.30572-0.08758-0.5133-0.18732-0.18735-0.36086-0.24329-0.59197-0.18977-0.48006 0.11035-1.0428 0.7801-1.3234 1.574-0.03243 0.0909-0.06325 0.14034-0.07218 0.11351a216.69 216.69 0 0 1-0.40382-3.7724l8.05e-4 -0.068 0.23192 0.073c0.26598 0.0844 0.88958 0.18409 1.5326 0.24328 0.69739 0.065 3.0645 0.0551 3.7627-0.0158 0.64549-0.065 1.1823-0.15735 1.4305-0.2441a0.94878 0.94878 0 0 1 0.18489-0.0544c5e-3 5e-3 -0.09489 0.96174-0.22057 2.1262-0.16786 1.5489-0.24246 2.1327-0.27652 2.1757-0.11758 0.14281-0.65117 0.55468-0.7201 0.55468-0.04054 0-0.0738-0.0141-0.0738-0.03 0-0.0158 0.07946-0.12489 0.1784-0.24003 0.2676-0.31626 0.3933-0.54252 0.3933-0.70632 0-0.12156-0.01211-0.14595-0.103-0.20029-0.18976-0.11595-0.39735-0.065-0.63738 0.15648a1.0055 1.0055 0 0 1-0.15895 0.1298c-0.01052 0-0.01052-0.0486-8.24e-4 -0.10859 0.01385-0.0868 5e-3 -0.11436-0.04784-0.14278-0.12974-0.0689-0.21814 0.0365-0.33816 0.40383-0.04704 0.14349-0.09245 0.2003-0.29842 0.37706-0.22868 0.19464-0.43709 0.32923-0.5125 0.32923-0.01865 0-0.03243-0.0396-0.03243-0.0875 0-0.0827 0.40546-1.124 0.71928-1.8473 0.07785-0.18001 0.13786-0.35922 0.13218-0.39734-0.0056-0.0405-0.04462-0.0804-0.09731-0.099-0.07541-0.026-0.09974-0.0186-0.16218 0.0479-0.05921 0.0609-0.79308 1.8554-0.8912 2.1765-0.02594 0.0844-0.21165 0.20758-0.32599 0.21569-0.08759 7e-3 -0.09081 2e-3 -0.0892-0.13631 0.0016-0.094 0.05513-0.27328 0.1557-0.52142 0.12488-0.30653 0.14841-0.3941 0.12488-0.46141-0.03568-0.10053-0.13948-0.12244-0.20922-0.0446-0.02758 0.0324-0.0892 0.15648-0.13786 0.27815-0.19138 0.4833-0.48412 0.84416-0.6828 0.84416-0.05918 0-0.10543-0.0194-0.11678-0.0504-0.0292-0.0769 0.07297-0.40221 0.21489-0.68603 0.13299-0.26437 0.14597-0.36248 0.05596-0.41925-0.15002-0.0933-0.31869 0.16139-0.53764 0.81092-0.12164 0.36166-0.12488 0.56926-0.0097 0.6609 0.17678 0.13788 0.50277 0.0544 0.73794-0.19138l0.13299-0.13789v0.12736c0 0.27653 0.1703 0.33897 0.47358 0.17192 0.19948-0.11034 0.19381-0.10859 0.19381-0.0486 0 0.0689 0.12813 0.14436 0.24652 0.14436 0.1265 0 0.32437-0.0949 0.50845-0.24408a0.62765 0.62765 0 0 1 0.13542-0.0974c0 8e-3 -0.09893 0.22705-0.21895 0.48817-0.18894 0.40951-0.28869 0.66819-0.2895 0.74929 0 0.0446 0.10218 0.12157 0.16218 0.12157 0.10543 0 0.20516-0.14439 0.31464-0.45331 0.14111-0.39654 0.42006-1.0347 0.5271-1.205 0.04784-0.0761 0.13704-0.20031 0.19868-0.27572 0.18651-0.22867 0.51412-0.37869 0.51412-0.23517 0 0.0665-0.04298 0.13052-0.31302 0.46547-0.24165 0.30004-0.30328 0.42736-0.2603 0.53925 0.03893 0.10383 0.12488 0.14684 0.29274 0.14596 0.18651-8.2e-4 0.35843-0.0851 0.61224-0.30004 0.11758-0.10053 0.21895-0.17677 0.22382-0.17103 0.0056 5e-3 -0.06488 0.66902-0.15813 1.4726-0.19138 1.651-0.15083 1.514-0.48655 1.6397-0.23111 0.0868-0.72334 0.20272-1.1515 0.27085-0.3195 0.051-1.8408 0.0925-2.1303 0.0584zm-0.41357-7.9648c-1.171-0.0625-2.0792-0.21893-2.2811-0.39248-0.07461-0.065-0.0803-0.0804-0.04054-0.12736 0.06975-0.0844 0.20192-0.14033 0.48493-0.20677 0.65766-0.15403 1.4597-0.22383 2.9007-0.25139l1.0461-0.0204 0.19219-0.74362 0.19138-0.74441 0.95364-1.0056a48.505 48.505 0 0 1 0.995-1.0299c0.10379-0.0633 0.47034 0.23273 0.44925 0.3633-0.0056 0.034-0.41033 0.48493-0.90012 1.0031l-0.89039 0.94227-0.15002 0.59198c-0.08272 0.32437-0.15083 0.61628-0.15165 0.6471 0 0.0454 0.02757 0.0551 0.15083 0.0551 0.22868 0 0.97229 0.0916 1.3023 0.15981 0.64306 0.13296 0.80281 0.29193 0.44844 0.44439-0.61549 0.26435-2.8415 0.41355-4.7001 0.31463zm2.6841-0.27975c0.03568-0.03 0.04298-0.0551 0.02189-0.0763-0.02108-0.021-0.04622-0.0194-0.07622 5e-3 -0.103 0.0859-0.4752 0.0804-0.69739-0.0106-0.04054-0.0158-0.05596-8e-3 -0.05596 0.0292 0 0.0844 0.12327 0.1135 0.44844 0.10544 0.20678-5e-3 0.32275-0.0226 0.35924-0.0526z" fill="#ea494a" stroke-width=".81092"/>
 </g>
</svg>
