<svg width="16" height="16" version="1.1" viewBox="0 0 16 17" xmlns="http://www.w3.org/2000/svg">
 <g transform="matrix(.07146 0 0 .07146 .5053 .02843)">
  <path d="m99.81 237.3c0.7219-0.2889 1.584-0.2534 1.917 0.0789 0.3323 0.3323-0.2583 0.5686-1.312 0.5252-1.165-0.048-1.402-0.2849-0.6042-0.6042zm7 0c0.7219-0.2889 1.584-0.2534 1.917 0.0789 0.3323 0.3323-0.2583 0.5686-1.312 0.5252-1.165-0.048-1.402-0.2849-0.6042-0.6042zm-15.81-1.676c-3.648-1.325-66.32-37.71-73.76-42.82-4.723-3.245-11.41-11.54-13.59-16.86-2.318-5.66-2.847-7.955-1.833-7.955 0.5259 0 1.241 1.521 1.59 3.38 0.9052 4.825 7.557 14.66 12.7 18.77 5.633 4.504 72.5 43.48 76.15 44.39 1.518 0.3771 3.007 1.086 3.309 1.575 0.7263 1.175-0.342 1.065-4.568-0.47zm21.41 0.5101c0.3159-0.5111 1.732-1.22 3.148-1.575 1.416-0.3553 19.98-10.32 41.26-22.15 42.33-23.53 47-26.95 50.74-37.1 2.133-5.794 3.887-8.114 2.888-3.822-1.16 4.987-5.397 12.04-9.791 16.3-2.693 2.612-18.03 11.74-43.65 26-35.56 19.78-46.34 25.18-44.59 22.35zm-13.05-15.08c-1.731-0.4246-18.72-9.887-37.76-21.03-37.09-21.71-41.17-24.82-43.5-33.28-0.8436-3.052-1.094-16.88-0.8828-48.76 0.3268-49.36 0.1426-47.95 7.193-55.18 3.352-3.438 64.39-41.58 70.87-44.29 4.423-1.848 13.58-2.001 17.43-0.2901 7.031 3.122 74.16 43.22 77.07 46.03 1.802 1.742 3.739 4.755 4.305 6.696 0.6607 2.266 0.9196 20.4 0.7238 50.69l-0.305 47.16-3 4.255c-2.28 3.233-5.642 5.731-14 10.4-71.75 40.09-70.46 39.47-78.15 37.58zm-15.59-66.84 0.2661-27.27 43.47 0.5389 1 54h26v-126h-26l-1 45h-43l-1-45h-26l-0.2593 62c-0.1426 34.1-0.03904 62.58 0.2301 63.28 0.3703 0.9685 3.598 1.212 13.26 1l12.77-0.28zm-83.69 9.186c0.04798-1.165 0.2849-1.402 0.6042-0.6042 0.2889 0.7219 0.2533 1.584-0.07895 1.917-0.3323 0.3323-0.5686-0.2583-0.5252-1.312zm211.4-44.42c0-25.58 0.1295-36.04 0.2878-23.25s0.1583 33.71 0 46.5-0.2878 2.325-0.2878-23.25zm-211.4-42.58c0.04798-1.165 0.2849-1.402 0.6042-0.6042 0.2889 0.7219 0.2533 1.584-0.07895 1.917-0.3323 0.3323-0.5686-0.2583-0.5252-1.312zm1.508-7.083c1.308-5.552 6.742-14.35 11.79-19.09 2.853-2.68 19.75-13.85 38.12-25.2 30.11-18.61 41.86-25.01 43.27-23.6 0.2857 0.2857-0.3325 0.8214-1.374 1.191-1.041 0.3691-3.254 1.214-4.918 1.878-6.602 2.635-69.24 42.18-74.21 46.85-4.777 4.488-11.26 15-11.26 18.25 0 0.7047-0.468 1.571-1.04 1.924-0.6809 0.4208-0.8096-0.3357-0.3726-2.191zm207.8-1.084c-1.824-5.537-5.746-12.22-9.062-15.44-4.351-4.221-78.93-48.36-83.36-49.33-1.606-0.3527-3.188-1.075-3.515-1.604-0.8082-1.308 4.167-0.05421 8.572 2.16 11.25 5.652 76.1 44.68 79.15 47.63 3.861 3.739 8.169 11 9.245 15.58 0.7086 3.015-0.1068 3.806-1.031 1zm-109.5-67.93c0.7219-0.2889 1.584-0.2533 1.917 0.07895 0.3323 0.3323-0.2583 0.5686-1.312 0.5252-1.165-0.04798-1.402-0.2849-0.6042-0.6042zm8 0c0.7219-0.2889 1.584-0.2533 1.917 0.07895 0.3323 0.3323-0.2583 0.5686-1.312 0.5252-1.165-0.04798-1.402-0.2849-0.6042-0.6042z" fill="#fa3f88"/>
  <path d="m100 237.3c-1.375-0.2377-3.918-1.081-5.651-1.874s-3.482-1.442-3.887-1.442c-1.503 0-70.13-40.47-74.35-43.85-4.98-3.982-11.63-13.67-12.67-18.45-0.3819-1.761-1.2-3.522-1.819-3.915-1.597-1.013-1.587-92.5 0.01047-95.88 0.6242-1.321 2.529-5.367 4.234-8.991 2.009-4.272 4.951-8.329 8.365-11.54 5.225-4.909 67.78-44.3 74.74-47.06 1.939-0.7698 4.535-1.904 5.77-2.521 3.42-1.709 16.21-1.333 19.75 0.5811 1.65 0.8899 3.482 1.621 4.072 1.624 2.268 0.01304 78.13 45.33 81.73 48.82 2.089 2.027 4.941 6.16 6.337 9.185s2.949 6.281 3.451 7.236c1.201 2.284 1.201 98.24 0 100.5-0.5022 0.955-2.056 4.211-3.454 7.236-4.37 9.46-8.278 12.23-49.88 35.41-21.31 11.87-39.09 21.59-39.5 21.59-0.4132 3e-3 -1.923 0.6174-3.354 1.364-2.996 1.563-10.24 2.578-13.9 1.946zm38.5-32.1c15.4-8.572 32.95-18.35 39-21.73 8.358-4.67 11.72-7.168 14-10.4l3-4.255 0.305-47.16c0.1959-30.29-0.0631-48.43-0.7238-50.69-0.5658-1.941-2.503-4.954-4.305-6.696-2.915-2.818-70.04-42.91-77.07-46.03-3.852-1.71-13.01-1.558-17.43 0.2901-6.485 2.71-67.52 40.85-70.87 44.29-7.051 7.231-6.867 5.818-7.193 55.18-0.2111 31.88 0.03918 45.71 0.8828 48.76 2.337 8.456 6.411 11.57 43.5 33.28 19.04 11.14 36.03 20.6 37.76 21.03 6.658 1.633 10.62 0.0272 39.15-15.85z" fill="#c8167d"/>
 </g>
</svg>
