<svg
   xmlns="http://www.w3.org/2000/svg"
   version="1.1"
   viewBox="0 0 20.207413 12.580955"
   height="16"
   width="16">
  <g
     transform="translate(-59.443913,-66.191666)"
     id="layer1">
    <path
       id="path400"
       d="m 74.149848,77.479617 c -0.184999,-0.057 -0.332999,-0.236999 -0.373998,-0.455998 -0.05,-0.269999 0.206999,-1.701993 0.359998,-2.001992 0.206999,-0.406998 0.519997,-0.542997 1.235994,-0.539997 l 0.503998,0.002 0.077,-0.427998 c 0.042,-0.235999 0.09,-0.495998 0.103999,-0.579998 0.028,-0.159999 0.04,-0.165999 0.501998,-0.225999 0.147999,-0.02 0.223999,-0.013 0.223999,0.021 0,0.149 -0.723997,4.145982 -0.756997,4.180982 -0.022,0.023 -0.157999,0.027 -0.302998,0.009 -0.251999,-0.032 -0.263999,-0.04 -0.263999,-0.171999 0,-0.149999 -0.05,-0.176999 -0.137,-0.072 -0.163999,0.196999 -0.868995,0.355999 -1.171994,0.262999 z m 0.799996,-0.591997 c 0.12,-0.04 0.296999,-0.144 0.395999,-0.228999 0.176999,-0.153 0.179999,-0.163 0.302998,-0.849997 0.068,-0.380998 0.113,-0.703997 0.101,-0.715997 -0.048,-0.049 -0.698997,-0.018 -0.809997,0.037 -0.178999,0.089 -0.264999,0.322999 -0.386998,1.043995 -0.107999,0.644998 -0.107999,0.654998 -0.018,0.719998 0.115,0.085 0.15,0.084 0.414998,-0.006 z m 2.576989,0.592997 c -0.359999,-0.057 -0.649997,-0.137 -0.647997,-0.177999 0.005,-0.167 0.706997,-3.951983 0.737996,-3.980983 0.023,-0.021 0.187,-0.053 0.364999,-0.072 l 0.323998,-0.033 -0.027,0.134999 c -0.096,0.479998 -0.227,1.299995 -0.209999,1.316995 0.011,0.011 0.125999,-0.02 0.253998,-0.068 0.714997,-0.271999 1.251995,-0.13 1.323994,0.349998 0.033,0.223999 -0.121999,1.294995 -0.246998,1.702993 -0.18,0.587997 -0.493998,0.808996 -1.199995,0.847996 a 4.0499821,4.0499821 0 0 1 -0.672997,-0.021 z m 0.934996,-0.613997 c 0.175999,-0.067 0.279998,-0.340999 0.405998,-1.076996 0.119999,-0.702997 0.111999,-0.739997 -0.175999,-0.728997 -0.197999,0.008 -0.566998,0.123 -0.689997,0.215999 -0.058,0.044 -0.12,0.273999 -0.216999,0.813997 -0.074,0.413998 -0.127,0.767997 -0.116,0.787997 0.028,0.052 0.648997,0.043 0.792997,-0.012 z m -7.212968,-0.14 c 0.312998,-0.388998 0.568997,-0.726997 0.568997,-0.749997 0,-0.025 -0.135999,-0.342998 -0.302998,-0.708997 l -0.303999,-0.664997 0.234999,-0.05 c 0.401998,-0.086 0.385998,-0.098 0.613997,0.445998 0.113999,0.272999 0.223999,0.495998 0.242999,0.495998 0.02,0 0.189999,-0.209999 0.378998,-0.467998 0.261999,-0.359998 0.373999,-0.474998 0.477998,-0.496998 0.177999,-0.036 0.596998,-0.035 0.596998,0.001 0,0.016 -0.264999,0.366998 -0.587998,0.779997 l -0.587997,0.751996 0.303998,0.658998 c 0.168,0.361998 0.303999,0.669997 0.303999,0.684997 0,0.015 -0.149999,0.028 -0.332998,0.028 h -0.333999 l -0.203999,-0.429998 -0.203999,-0.428998 -0.363999,0.429998 -0.363998,0.428998 h -0.705997 z"
       style="fill:#04c5fd;stroke-width:0.99999553" />
    <path
       id="path402"
       d="m 69.956866,67.64066 c 0.259999,-0.06 0.466998,-0.127999 0.459998,-0.151999 -0.013,-0.043 -1.909991,-0.634997 -2.034991,-0.634997 -0.076,0 0.713997,0.859996 0.831997,0.905996 a 0.35699843,0.35699843 0 0 0 0.174999,0.01 l 0.567997,-0.13 z m -1.891991,1.176995 c 0.506997,-0.466998 0.921996,-0.875996 0.921996,-0.909996 0,-0.09 -0.953996,-1.099995 -1.037996,-1.099995 -0.072,0 -1.832992,1.598993 -1.907991,1.729992 -0.045,0.08 0.045,0.196999 0.591997,0.765997 0.207999,0.215999 0.406998,0.386998 0.443998,0.378998 0.036,-0.008 0.479998,-0.396998 0.987996,-0.864996 z m 1.582993,1.641993 c 0,-0.045 -0.113,-0.571998 -0.249999,-1.169995 -0.196,-0.850996 -0.265999,-1.087995 -0.324999,-1.087995 -0.110999,0 -1.802992,1.587993 -1.748992,1.641992 0.056,0.056 2.073991,0.686997 2.21999,0.693997 0.071,0.003 0.105,-0.022 0.104,-0.078 z m 1.029995,-0.013 c 0.375998,-0.083 0.672997,-0.173999 0.703997,-0.214999 0.036,-0.047 0.04,-0.13 0.014,-0.245999 -0.303998,-1.345994 -0.528997,-2.26399 -0.561997,-2.29699 -0.054,-0.054 -1.375994,0.236999 -1.461994,0.321998 -0.054,0.054 -0.022,0.249999 0.209999,1.261995 0.262999,1.153995 0.312999,1.316994 0.404998,1.316994 0.023,0 0.333999,-0.064 0.690997,-0.142999 z M 66.88688,69.91565 c -0.031,-0.109999 -0.814996,-0.965996 -0.850996,-0.929996 -0.021,0.021 0.419998,1.984991 0.476998,2.124991 0.043,0.105999 0.409998,-1.066995 0.373998,-1.194995 z m 3.487985,1.402994 c 0.436998,-0.405998 0.782996,-0.748997 0.769996,-0.761997 -0.046,-0.046 -1.140995,0.231999 -1.218995,0.309999 -0.066,0.066 -0.164999,0.345998 -0.373998,1.059995 -0.02,0.07 -0.023,0.13 -0.005,0.13 0.019,0 0.389998,-0.332999 0.827997,-0.737997 z m -1.129996,0.929996 c 0.053,-0.086 0.404999,-1.269995 0.404999,-1.362994 0,-0.119 -0.002,-0.12 -1.365994,-0.534998 -0.914996,-0.277999 -1.115996,-0.324999 -1.163995,-0.272999 -0.033,0.035 -0.148999,0.357999 -0.257999,0.719997 -0.143999,0.475998 -0.183999,0.669997 -0.146999,0.708997 0.053,0.054 2.27999,0.771997 2.422989,0.779996 0.044,0.004 0.092,-0.014 0.106999,-0.038 z m -1.060995,0.330998 -1.469993,-0.447998 c -0.255999,-0.078 -0.446998,-0.167 -0.516998,-0.241 -0.09,-0.096 -0.175999,-0.402998 -0.456998,-1.619992 -0.346998,-1.504994 -0.384998,-1.742993 -0.301999,-1.897992 0.036,-0.068 1.009996,-0.987996 2.092991,-1.976991 0.180999,-0.166 0.256999,-0.203999 0.403998,-0.203999 0.16,0 0.816997,0.188999 2.742988,0.784996 0.397999,0.123 0.549998,0.192999 0.605998,0.276999 0.074,0.112999 0.729996,2.876987 0.729996,3.077986 0,0.06 -0.013,0.141999 -0.028,0.182999 -0.016,0.041 -0.567997,0.574998 -1.226994,1.185995 -1.047996,0.972996 -1.342994,1.212995 -1.478994,1.204995 a 45.935797,45.935797 0 0 1 -1.095995,-0.325998 z m -8.155964,1.482993 c 0.015,-0.074 0.051,-0.265999 0.08,-0.423998 l 0.055,-0.288999 0.360998,-0.047 c 0.199999,-0.026 0.366998,-0.044 0.372998,-0.04 a 4.3399808,4.3399808 0 0 1 -0.065,0.413998 l -0.075,0.406998 -0.218999,0.03 c -0.119999,0.017 -0.289998,0.043 -0.377998,0.058 -0.153999,0.027 -0.157999,0.024 -0.131999,-0.108999 z m 0.909996,3.399985 c 0.01,-0.046 0.124,-0.685997 0.253999,-1.422994 0.13,-0.735997 0.247999,-1.356994 0.261999,-1.379994 0.026,-0.043 0.515998,-0.116999 0.577997,-0.088 0.02,0.01 0.03,0.079 0.02,0.153999 -0.012,0.113999 -10e-4,0.132 0.072,0.107999 l 0.487998,-0.170999 c 0.789996,-0.279999 1.182994,-0.135999 1.182994,0.434998 0,0.107999 -0.09,0.701997 -0.197999,1.320995 l -0.197999,1.125995 h -0.369998 c -0.359999,0 -0.369998,-0.003 -0.346999,-0.106 0.099,-0.439998 0.359999,-2.086991 0.337999,-2.141991 -0.015,-0.038 -0.08,-0.07 -0.144999,-0.07 -0.126,0 -0.655998,0.203999 -0.792997,0.303999 -0.06,0.044 -0.124999,0.301999 -0.248999,1.005996 -0.091,0.520998 -0.166999,0.959996 -0.166999,0.976996 0,0.017 -0.167999,0.03 -0.372998,0.03 -0.331999,0 -0.371999,-0.008 -0.355999,-0.082 z m -1.493993,0.012 c 0,-0.139999 0.480998,-2.791988 0.511998,-2.820988 0.033,-0.032 0.682997,-0.133999 0.708996,-0.110999 0.012,0.01 -0.409998,2.478989 -0.491997,2.871987 -0.027,0.128 -0.033,0.13 -0.377999,0.13 -0.276998,0 -0.350998,-0.015 -0.350998,-0.07 z m 8.700961,0.084 c -0.137999,-0.051 -0.236999,-0.173 -0.284998,-0.351999 -0.04,-0.149999 -0.015,-0.378998 0.143999,-1.304994 0.106,-0.617998 0.202999,-1.157995 0.215999,-1.200995 0.016,-0.055 0.102,-0.087 0.292999,-0.11 a 3.3199853,3.3199853 0 0 0 0.359998,-0.057 c 0.11,-0.032 0.105999,0.014 -0.129,1.342994 -0.185999,1.053996 -0.182999,1.065996 0.196,0.964997 0.119999,-0.033 0.325998,-0.116 0.455998,-0.185999 l 0.236999,-0.128 0.165999,-0.953996 0.164999,-0.953996 0.213999,-0.03 c 0.117,-0.016 0.280999,-0.04 0.363999,-0.055 l 0.149999,-0.026 -0.023,0.229999 a 45.519798,45.519798 0 0 1 -0.245999,1.504994 l -0.222999,1.276994 -0.317999,0.014 -0.317998,0.014 v -0.148999 c 0,-0.123999 -0.014,-0.142999 -0.083,-0.111999 -0.534998,0.236999 -1.109995,0.353998 -1.335994,0.269999 z m -3.992982,1.009995 -0.232999,-0.203999 0.145999,-0.185999 c 0.08,-0.101 0.168,-0.259999 0.194999,-0.349999 0.04,-0.132999 0.479998,-2.535989 0.479998,-2.623988 0,-0.014 -0.095,-0.025 -0.211999,-0.025 -0.236999,0 -0.242999,-0.013 -0.174999,-0.401998 0.033,-0.186 0.037,-0.19 0.266999,-0.212 l 0.232999,-0.024 0.061,-0.329998 c 0.084,-0.455998 0.231999,-0.725997 0.464998,-0.846997 0.240999,-0.124999 0.714997,-0.154999 1.276994,-0.079 0.309999,0.042 0.506998,0.044 0.729997,0.008 0.166999,-0.028 0.311999,-0.042 0.321998,-0.033 0.014,0.014 -0.651997,3.864983 -0.722996,4.177982 -0.022,0.098 -0.05,0.106 -0.377999,0.106 -0.253999,0 -0.352998,-0.017 -0.352998,-0.06 0,-0.033 0.137999,-0.844996 0.307999,-1.803992 0.169999,-0.959996 0.299998,-1.750992 0.291998,-1.759993 -0.037,-0.037 -0.533997,-0.111999 -0.742996,-0.111999 -0.301999,0 -0.411999,0.098 -0.471998,0.419998 a 3.7199835,3.7199835 0 0 0 -0.047,0.295999 c 0,0.022 0.159999,0.04 0.353998,0.04 0.395998,0 0.386998,-0.01 0.291999,0.354998 l -0.061,0.236999 -0.337999,0.014 c -0.269998,0.01 -0.341998,0.03 -0.359998,0.094 -0.013,0.045 -0.122,0.633997 -0.239999,1.309995 -0.235999,1.332994 -0.270999,1.477994 -0.419998,1.723992 -0.113,0.188 -0.357999,0.475998 -0.402998,0.473998 -0.017,0 -0.135,-0.092 -0.263999,-0.203999 z"
       style="fill:#23aaf4;stroke-width:0.99999553" />
  </g>
</svg>
