<svg width="16" height="16" version="1.1" viewBox="0 0 20 13" xmlns="http://www.w3.org/2000/svg">
 <g transform="translate(-59 -66)">
  <path d="m74 77c-0.18-0.057-0.33-0.24-0.37-0.46-0.05-0.27 0.21-1.7 0.36-2 0.21-0.41 0.52-0.54 1.2-0.54l0.5 2e-3 0.077-0.43c0.042-0.24 0.09-0.5 0.1-0.58 0.028-0.16 0.04-0.17 0.5-0.23 0.15-0.02 0.22-0.013 0.22 0.021 0 0.15-0.72 4.1-0.76 4.2-0.022 0.023-0.16 0.027-0.3 9e-3 -0.25-0.032-0.26-0.04-0.26-0.17 0-0.15-0.05-0.18-0.14-0.072-0.16 0.2-0.87 0.36-1.2 0.26zm0.8-0.59c0.12-0.04 0.3-0.14 0.4-0.23 0.18-0.15 0.18-0.16 0.3-0.85 0.068-0.38 0.11-0.7 0.1-0.72-0.048-0.049-0.7-0.018-0.81 0.037-0.18 0.089-0.26 0.32-0.39 1-0.11 0.64-0.11 0.65-0.018 0.72 0.12 0.085 0.15 0.084 0.41-6e-3zm2.6 0.59c-0.36-0.057-0.65-0.14-0.65-0.18 5e-3 -0.17 0.71-4 0.74-4 0.023-0.021 0.19-0.053 0.36-0.072l0.32-0.033-0.027 0.13c-0.096 0.48-0.23 1.3-0.21 1.3 0.011 0.011 0.13-0.02 0.25-0.068 0.71-0.27 1.3-0.13 1.3 0.35 0.033 0.22-0.12 1.3-0.25 1.7-0.18 0.59-0.49 0.81-1.2 0.85a4 4 0 0 1-0.67-0.021zm0.93-0.61c0.18-0.067 0.28-0.34 0.41-1.1 0.12-0.7 0.11-0.74-0.18-0.73-0.2 8e-3 -0.57 0.12-0.69 0.22-0.058 0.044-0.12 0.27-0.22 0.81-0.074 0.41-0.13 0.77-0.12 0.79 0.028 0.052 0.65 0.043 0.79-0.012zm-7.2-0.14c0.31-0.39 0.57-0.73 0.57-0.75 0-0.025-0.14-0.34-0.3-0.71l-0.3-0.66 0.23-0.05c0.4-0.086 0.39-0.098 0.61 0.45 0.11 0.27 0.22 0.5 0.24 0.5 0.02 0 0.19-0.21 0.38-0.47 0.26-0.36 0.37-0.47 0.48-0.5 0.18-0.036 0.6-0.035 0.6 1e-3 0 0.016-0.26 0.37-0.59 0.78l-0.59 0.75 0.3 0.66c0.17 0.36 0.3 0.67 0.3 0.68s-0.15 0.028-0.33 0.028h-0.33l-0.41-0.86-0.73 0.86h-0.71z" fill="#04c5fd"/>
  <path d="m70 68c0.26-0.06 0.47-0.13 0.46-0.15-0.013-0.043-1.9-0.63-2-0.63-0.076 0 0.71 0.86 0.83 0.91a0.36 0.36 0 0 0 0.17 0.01l0.57-0.13zm-1.9 1.2c0.51-0.47 0.92-0.88 0.92-0.91 0-0.09-0.95-1.1-1-1.1-0.072 0-1.8 1.6-1.9 1.7-0.045 0.08 0.045 0.2 0.59 0.77 0.21 0.22 0.41 0.39 0.44 0.38 0.036-8e-3 0.48-0.4 0.99-0.86zm1.6 1.6c0-0.045-0.11-0.57-0.25-1.2-0.2-0.85-0.27-1.1-0.32-1.1-0.11 0-1.8 1.6-1.7 1.6 0.056 0.056 2.1 0.69 2.2 0.69 0.071 3e-3 0.1-0.022 0.1-0.078zm1-0.013c0.38-0.083 0.67-0.17 0.7-0.21 0.036-0.047 0.04-0.13 0.014-0.25-0.3-1.3-0.53-2.3-0.56-2.3-0.054-0.054-1.4 0.24-1.5 0.32-0.054 0.054-0.022 0.25 0.21 1.3 0.26 1.2 0.31 1.3 0.4 1.3 0.023 0 0.33-0.064 0.69-0.14zm-3.8-0.53c-0.031-0.11-0.81-0.97-0.85-0.93-0.021 0.021 0.42 2 0.48 2.1 0.043 0.11 0.41-1.1 0.37-1.2zm3.5 1.4c0.44-0.41 0.78-0.75 0.77-0.76-0.046-0.046-1.1 0.23-1.2 0.31-0.066 0.066-0.16 0.35-0.37 1.1-0.02 0.07-0.023 0.13-5e-3 0.13 0.019 0 0.39-0.33 0.83-0.74zm-1.1 0.93c0.053-0.086 0.4-1.3 0.4-1.4 0-0.12-2e-3 -0.12-1.4-0.53-0.91-0.28-1.1-0.32-1.2-0.27-0.033 0.035-0.15 0.36-0.26 0.72-0.14 0.48-0.18 0.67-0.15 0.71 0.053 0.054 2.3 0.77 2.4 0.78 0.044 4e-3 0.092-0.014 0.11-0.038zm-1.1 0.33-1.5-0.45c-0.26-0.078-0.45-0.17-0.52-0.24-0.09-0.096-0.18-0.4-0.46-1.6-0.35-1.5-0.38-1.7-0.3-1.9 0.036-0.068 1-0.99 2.1-2 0.18-0.17 0.26-0.2 0.4-0.2 0.16 0 0.82 0.19 2.7 0.78 0.4 0.12 0.55 0.19 0.61 0.28 0.074 0.11 0.73 2.9 0.73 3.1 0 0.06-0.013 0.14-0.028 0.18-0.016 0.041-0.57 0.57-1.2 1.2-1 0.97-1.3 1.2-1.5 1.2a46 46 0 0 1-1.1-0.33zm-8.2 1.5c0.015-0.074 0.051-0.27 0.08-0.42l0.055-0.29 0.36-0.047c0.2-0.026 0.37-0.044 0.37-0.04a4.3 4.3 0 0 1-0.065 0.41l-0.075 0.41-0.22 0.03c-0.12 0.017-0.29 0.043-0.38 0.058-0.15 0.027-0.16 0.024-0.13-0.11zm0.91 3.4c0.01-0.046 0.12-0.69 0.25-1.4 0.13-0.74 0.25-1.4 0.26-1.4 0.026-0.043 0.52-0.12 0.58-0.088 0.02 0.01 0.03 0.079 0.02 0.15-0.012 0.11-1e-3 0.13 0.072 0.11l0.49-0.17c0.79-0.28 1.2-0.14 1.2 0.43 0 0.11-0.09 0.7-0.2 1.3l-0.2 1.1h-0.37c-0.36 0-0.37-3e-3 -0.35-0.11 0.099-0.44 0.36-2.1 0.34-2.1-0.015-0.038-0.08-0.07-0.14-0.07-0.13 0-0.66 0.2-0.79 0.3-0.06 0.044-0.12 0.3-0.25 1-0.091 0.52-0.17 0.96-0.17 0.98s-0.17 0.03-0.37 0.03c-0.33 0-0.37-8e-3 -0.36-0.082zm-1.5 0.012c0-0.14 0.48-2.8 0.51-2.8 0.033-0.032 0.68-0.13 0.71-0.11 0.012 0.01-0.41 2.5-0.49 2.9-0.027 0.13-0.033 0.13-0.38 0.13-0.28 0-0.35-0.015-0.35-0.07zm8.7 0.084c-0.14-0.051-0.24-0.17-0.28-0.35-0.04-0.15-0.015-0.38 0.14-1.3 0.11-0.62 0.2-1.2 0.22-1.2 0.016-0.055 0.1-0.087 0.29-0.11a3.3 3.3 0 0 0 0.36-0.057c0.11-0.032 0.11 0.014-0.13 1.3-0.19 1.1-0.18 1.1 0.2 0.96 0.12-0.033 0.33-0.12 0.46-0.19l0.24-0.13 0.33-1.9 0.21-0.03c0.12-0.016 0.28-0.04 0.36-0.055l0.15-0.026-0.023 0.23a46 46 0 0 1-0.25 1.5l-0.22 1.3-0.64 0.028v-0.15c0-0.12-0.014-0.14-0.083-0.11-0.53 0.24-1.1 0.35-1.3 0.27zm-4 1-0.23-0.2 0.15-0.19c0.08-0.1 0.17-0.26 0.19-0.35 0.04-0.13 0.48-2.5 0.48-2.6 0-0.014-0.095-0.025-0.21-0.025-0.24 0-0.24-0.013-0.17-0.4 0.033-0.19 0.037-0.19 0.27-0.21l0.23-0.024 0.061-0.33c0.084-0.46 0.23-0.73 0.46-0.85 0.24-0.12 0.71-0.15 1.3-0.079 0.31 0.042 0.51 0.044 0.73 8e-3 0.17-0.028 0.31-0.042 0.32-0.033 0.014 0.014-0.65 3.9-0.72 4.2-0.022 0.098-0.05 0.11-0.38 0.11-0.25 0-0.35-0.017-0.35-0.06 0-0.033 0.14-0.84 0.31-1.8 0.17-0.96 0.3-1.8 0.29-1.8-0.037-0.037-0.53-0.11-0.74-0.11-0.3 0-0.41 0.098-0.47 0.42a3.7 3.7 0 0 0-0.047 0.3c0 0.022 0.16 0.04 0.35 0.04 0.4 0 0.39-0.01 0.29 0.35l-0.061 0.24-0.34 0.014c-0.27 0.01-0.34 0.03-0.36 0.094-0.013 0.045-0.12 0.63-0.24 1.3-0.24 1.3-0.27 1.5-0.42 1.7-0.11 0.19-0.36 0.48-0.4 0.47-0.017 0-0.14-0.092-0.26-0.2z" fill="#23aaf4"/>
 </g>
</svg>
