<svg width="16" height="16" version="1.1" viewBox="0 0 16 17" xmlns="http://www.w3.org/2000/svg">
 <g transform="translate(-19 -125)" stroke-width="1.4">
  <path d="m23 142c-0.33-0.094-0.9-0.64-1.1-1.1-0.36-0.65-0.32-0.99 0.31-2.6 0.29-0.74 0.52-1.4 0.52-1.4 0.35-0.93 0.88-1.2 1-1.3 0.014 0.015-0.53 1.4-0.91 2.4-0.8 2.1-0.82 2.2-0.39 2.8 0.13 0.19 0.17 0.28 0.087 0.2-0.14-0.13-0.15-0.12-0.22 0.088-0.07 0.2-0.058 0.23 0.12 0.35 0.34 0.23 0.59 0.3 0.99 0.3 0.61 0 1.1-0.26 1.4-0.74 0.087-0.13 1.2-3 2.5-6.4 0.8-2.1 1.6-4.2 2.5-6.3 0.052-0.1 0.24-0.32 0.42-0.5l0.33-0.32 0.048 0.19c0.039 0.16-0.0087 0.25-0.29 0.57-0.33 0.36-0.43 0.6-2.7 6.4-0.81 2.1-1.6 4.2-2.5 6.3-0.16 0.35-0.65 0.79-1 0.9-0.37 0.099-0.77 0.1-1.1 7e-3zm-0.32-5.1s1.1-2.9 2.1-5.4c1.7-4.5 1.7-4.5 1.7-4.9-0.026-0.34-0.0087-0.47 0.075-0.54 0.18-0.15 0.94-0.087 1.6 0.14 0.5 0.17 0.61 0.23 0.61 0.36l0.0073 0.15-0.4-0.14c-0.25-0.082-0.5-0.13-0.76-0.15-0.31-0.013-0.36 4e-3 -0.36 0.13 0 0.17 0.44 0.49 0.91 0.66l0.33 0.12-1 2.7c-0.57 1.5-1 2.7-1 2.8 0.02 0.054-0.16 0.13-0.49 0.2-1 0.22-1.5 0.67-1.9 1.8-0.17 0.44-0.32 0.83-0.35 0.87-0.073 0.28-1 1.3-1 1.3zm4.3-4.4c0-0.015 0.056-0.072 0.13-0.13 0.11-0.09 0.12-0.087 0.026 0.026-0.094 0.12-0.15 0.16-0.15 0.098zm0.57-0.5c0.18-0.19 0.33-0.34 0.34-0.34 0.012 0 0.02 0.054 0.02 0.12 0 0.067-0.022 0.098-0.049 0.072-0.028-0.029-0.18 0.072-0.34 0.22-0.28 0.26-0.28 0.26 0.029-0.07zm1.4-4.6c0.052-0.02 0.11-0.019 0.14 7e-3 0.025 0.023-0.017 0.041-0.094 0.038-0.084-4e-3 -0.1-0.02-0.043-0.043zm0.55-0.33-0.14-0.16 0.16 0.14c0.062 0.046 0.12 0.1 0.16 0.16 0 0.058-0.058 0.015-0.19-0.14z" fill="#aaa"/>
  <path d="m23 141c-0.023-0.036 0.35-1.1 0.82-2.3 0.47-1.2 0.85-2.3 0.85-2.3 0.18-0.39 0.29-0.65 0.42-1l0.71-1.8 0.4-1 0.39-0.17c0.29-0.14 0.55-0.32 0.79-0.53 0.22-0.2 0.41-0.35 0.41-0.33 0 0.12-3.4 8.8-3.5 9-0.098 0.12-0.22 0.22-0.35 0.31-0.25 0.14-0.85 0.25-0.91 0.15zm-0.7-0.47c-0.12-0.17-0.2-0.34-0.19-0.38 0.017-0.042 0.44-1.1 0.95-2.5 0.5-1.3 0.96-2.4 1-2.5 0.07-0.07 0.038 0.074-0.084 0.4-0.11 0.28-0.23 0.6-0.27 0.72-0.17 0.68-0.49 1.3-0.76 1.9-0.45 1.2-0.54 1.4-0.54 1.8 0 0.24 0.036 0.5 0.084 0.59 0.14 0.26 0.029 0.19-0.21-0.14zm1.9-5.8c0.029-0.069 0.18-0.48 0.34-0.9 0.16-0.43 0.32-0.77 0.36-0.77 0.036 0 0.043 0.056 0.017 0.13-0.029 0.068-0.18 0.47-0.34 0.9-0.16 0.43-0.54 1.4-0.58 1.4-0.038 0 0.17-0.68 0.2-0.75z" fill="#d20101"/>
  <path d="m23 141c-0.24-0.09-0.34-0.34-0.33-0.83 3e-3 -0.36 0.09-0.65 0.54-1.8l0.71-1.8c0-0.03 0.11-0.35 0.25-0.71 0.14-0.36 0.25-0.72 0.25-0.8 0-0.08 0.026-0.15 0.059-0.15 0.033 0 0.22-0.43 0.41-0.95 0.34-0.92 0.36-0.95 0.64-1.1 0.16-0.069 0.42-0.15 0.59-0.17l0.3-0.049-0.7 1.8-0.73 1.9-0.17 0.45c-0.64 1.7-1.6 4.1-1.6 4.2-0.023 0.026-0.11 0.019-0.2-0.015zm-0.7-0.84c-0.15-0.15 0.0073-0.71 0.64-2.4 0.59-1.5 0.96-2.4 1.2-2.7l0.37-0.53-0.42 1.1c-0.17 0.46-1.7 4.5-1.7 4.5-0.01 0.012-0.041-8.6e-4 -0.067-0.029zm1.8-5.3c0.1-0.27 0.23-0.62 0.29-0.78 0.058-0.16 0.23-0.42 0.39-0.57l0.29-0.28-0.1 0.29c-0.34 0.96-0.57 1.5-0.74 1.6-0.11 0.11-0.68 1.4-0.71 1.4s0.48-1.4 0.58-1.6z" fill="#b30000"/>
  <path d="m29 127c-0.48-0.13-1.2-0.5-1.4-0.68-0.15-0.17-0.084-0.35 0.13-0.35 0.79 0 2.5 0.86 2.1 1.1-0.14 0.093-0.4 0.08-0.86-0.043z" fill="#343333"/>
 </g>
</svg>
