<svg width="16" height="16" version="1.1" viewBox="0 0 16 17" xmlns="http://www.w3.org/2000/svg">
 <g transform="translate(-19 -125)">
  <path d="m20 133s1.5-2.2 4.5-2.4v-0.8c-3.3 0.26-6.1 3-6.1 3s1.6 4.7 6.1 5.1v-0.85c-3.3-0.42-4.5-4.1-4.5-4.1zm4.5 2.4v0.77c-2.5-0.45-3.2-3.1-3.2-3.1s1.2-1.3 3.2-1.6v0.85c-0.0016 0-0.0024-6.4e-4 -0.0039-6.4e-4 -1-0.13-1.9 0.85-1.9 0.85s0.46 1.7 1.9 2.1m0-7.1v1.5c0.097-8e-3 0.19-0.014 0.29-0.017 3.7-0.13 6.2 3.1 6.2 3.1s-2.8 3.4-5.7 3.4c-0.27 0-0.52-0.025-0.75-0.066v0.91c0.2 0.025 0.41 0.04 0.63 0.04 2.7 0 4.7-1.4 6.6-3 0.31 0.25 1.6 0.87 1.9 1.1-1.8 1.5-6 2.7-8.4 2.7-0.23 0-0.45-0.014-0.67-0.035v1.3h10v-11h-10zm0 3.2v-0.98c0.096-7e-3 0.19-0.012 0.29-0.015 2.7-0.084 4.5 2.3 4.5 2.3s-1.9 2.6-3.9 2.6c-0.29 0-0.56-0.047-0.79-0.13v-3c1 0.13 1.3 0.59 1.9 1.6l1.4-1.2s-1-1.3-2.7-1.3c-0.19-7e-5 -0.37 0.013-0.54 0.032" fill="#77b900" stroke-width=".79"/>
 </g>
</svg>
