<svg width="16" height="16" version="1.1" viewBox="0 0 16 17" xmlns="http://www.w3.org/2000/svg">
 <g transform="translate(-19 -125)" stroke-width="1.2">
  <path d="m21 139c0.013-0.015 0.033-0.026 0.044-0.022 0.013 3e-3 2e-3 0.016-0.023 0.027-0.027 0.015-0.035 0.013-0.021-5e-3zm0.42-0.27c0.012-0.017 0.033-0.027 0.043-0.024 0.013 3e-3 2e-3 0.016-0.022 0.028-0.027 0.015-0.036 0.012-0.021-5e-3zm0.4-0.26c0.013-0.015 0.032-0.026 0.044-0.022 0.013 3e-3 2e-3 0.016-0.022 0.028-0.027 0.015-0.036 0.012-0.022-6e-3zm0.66-0.44a0.15 0.15 0 0 1 0.068-0.039c0.02-3e-3 0.0037 0.011-0.034 0.033-0.037 0.022-0.053 0.024-0.035 7e-3zm0.28-0.16a0.1 0.1 0 0 1 0.057-0.033c0.02-3e-3 0.0098 0.01-0.022 0.028-0.031 0.018-0.046 0.019-0.034 6e-3zm-1.9 0.87a0.1 0.1 0 0 1 0.057-0.033c0.018-3e-3 0.0088 0.01-0.022 0.028-0.032 0.018-0.046 0.022-0.034 5e-3zm1.4-0.87a0.22 0.22 0 0 1 0.08-0.046c0.024-7e-3 0.011 9e-3 -0.033 0.034-0.044 0.025-0.065 0.03-0.047 0.012zm0.66-0.38a1.1 1.1 0 0 1 0.17-0.099c0.05-0.022 0.014 4e-3 -0.08 0.058-0.094 0.054-0.13 0.073-0.091 0.04zm7.2-4.4a0.37 0.37 0 0 1 0.1-0.059c0.031-0.011 0.011 7e-3 -0.045 0.04-0.057 0.033-0.081 0.042-0.058 0.018zm0.24-0.17c0.014-0.016 0.033-0.027 0.044-0.024 0.013 5e-3 0.0026 0.017-0.022 0.03-0.027 0.014-0.036 0.012-0.022-6e-3zm-0.78 0.3c-0.062-9e-3 -0.062-9e-3 8.5e-4 -0.016 0.036-2e-3 0.069 3.9e-4 0.072 6e-3 0.01 0.018-0.0044 0.02-0.073 9e-3zm1.2-0.82c-0.027-0.023-0.49-0.42-1-0.9l-0.97-0.86-0.072-0.57-0.26-2.1c-0.11-0.86-0.2-1.6-0.2-1.6a69 69 0 0 0 0.13 1.7 990 990 0 0 1 0.17 2l0.025 0.31-0.96-0.84c-0.67-0.59-0.97-0.84-0.99-0.82-0.041 0.035 0.089-0.39 0.22-0.73 0.17-0.43 0.41-0.95 0.7-1.5l0.4-0.78c0.079-0.16 0.15-0.29 0.16-0.28a12 12 0 0 1 1.7 1.8c0.27 0.34 0.87 1.4 1 1.8 0.29 0.75 0.48 1.6 0.42 2l-0.011 0.082 0.062-0.016c0.059-0.016 0.06-0.015 0.012 0.016-0.034 0.021-0.058 0.11-0.079 0.27-0.042 0.35-0.17 0.71-0.35 0.99-0.052 0.08-0.053 0.08-0.1 0.042zm-2.5-6.2c-0.0074-0.013-0.015-2e-3 -0.015 0.024a0.16 0.16 0 0 0 0.011 0.07c0.0066 0.011 0.014 2e-3 0.015-0.024a0.16 0.16 0 0 0-0.01-0.07zm1.1 7c-0.049-0.02-0.048-0.022 0.0033-0.014 0.055 7e-3 0.078 0.019 0.06 0.03-0.0054 3e-3 -0.034-5e-3 -0.063-0.016zm-2.3 1.3-0.13-0.04 0.13 0.029c0.12 0.028 0.15 0.038 0.13 0.048a0.89 0.89 0 0 1-0.13-0.036zm4.8-3.7a0.15 0.15 0 0 1 0.069-0.039c0.018-3e-3 0.0034 0.013-0.034 0.035-0.037 0.022-0.053 0.024-0.034 5e-3zm-6.4 2.5c-0.015-0.026-0.011-0.035 0.0065-0.021 0.016 0.012 0.026 0.033 0.023 0.044-0.0023 0.013-0.016 2e-3 -0.028-0.022zm-0.13-0.18c-0.018-0.032-0.02-0.047-6e-3 -0.035a0.1 0.1 0 0 1 0.033 0.057c0.0039 0.019-0.0087 0.01-0.027-0.022zm-0.27-0.42c-0.018-0.032-0.021-0.048-6e-3 -0.035a0.1 0.1 0 0 1 0.033 0.056c0.0039 0.019-0.0087 0.01-0.027-0.022zm-0.23-0.46c-0.022-0.037-0.024-0.053-0.0053-0.034 0.019 0.018 0.037 0.05 0.04 0.068 0.0022 0.019-0.013 3e-3 -0.034-0.034zm-0.11-0.24c-0.015-0.026-0.012-0.036 0.0059-0.022 0.016 0.012 0.026 0.032 0.023 0.044-0.0023 0.013-0.016 2e-3 -0.028-0.022zm1.8-2c-2.8e-4 -0.032 0.0039-0.062 0.01-0.066 0.0065-4e-3 0.012 0.02 0.013 0.052 2e-3 0.033-0.0023 0.062-0.0087 0.066-0.0065 4e-3 -0.012-0.022-0.014-0.053zm0.033-0.65a0.21 0.21 0 0 1 0.027-0.077c0.0054-3e-3 0.0039 0.026-0.0044 0.064a0.21 0.21 0 0 1-0.026 0.075c-0.0065 4e-3 -0.0043-0.025 0.0039-0.062zm0.054-0.27a1.1 1.1 0 0 1 0.057-0.19 0.75 0.75 0 0 1-0.035 0.17 1.1 1.1 0 0 1-0.057 0.19 0.75 0.75 0 0 1 0.034-0.17z" fill="#b8e366"/>
  <path d="m30 133c-0.28 0.053-0.76-1.3e-4 -0.78-0.086-0.0059-0.025-0.07-0.53-0.14-1.1-0.2-1.7-0.19-1.6-0.27-1.7-0.074-0.068-0.082-0.24 0.075 1.6l0.096 1.2-0.16 5e-3c-0.47 0.014-0.69-0.044-0.99-0.25-0.5-0.35-0.89-0.93-1-1.6-0.14-0.59-0.19-1.4-0.13-1.9 0.029-0.24 0.12-0.6 0.15-0.59 0.016 5e-3 0.45 0.38 0.97 0.84l0.95 0.84-0.025-0.31c-0.013-0.17-0.09-1.1-0.17-2-0.08-0.96-0.14-1.7-0.13-1.7 0.0062 1e-3 0.098 0.71 0.2 1.6 0.1 0.86 0.22 1.8 0.26 2.1l0.071 0.57 2 1.8-0.13 0.15c-0.28 0.34-0.55 0.53-0.84 0.59zm-5-0.88c-0.013-0.027-0.011-0.036 0.0059-0.022 0.016 0.013 0.027 0.032 0.024 0.044-0.0029 0.012-0.016 2e-3 -0.03-0.023zm3.4-6c-0.0074-0.013-0.012-0.044-0.012-0.07 0.0024-0.026 0.0089-0.036 0.016-0.024 0.0074 0.013 0.011 0.044 0.011 0.069-0.0017 0.027-0.0089 0.036-0.017 0.023z" fill="#afdc5a"/>
  <path d="m28 135c-0.45 0.15-0.94 0.05-1.5-0.3-0.65-0.43-1.2-1.1-1.6-2-0.12-0.25-0.25-0.57-0.26-0.64-0.016-0.076 1.7-0.21 2-0.16l0.075 9e-3 0.086 0.24a2.4 2.4 0 0 0 0.26 0.51c0.41 0.65 0.92 0.97 1.5 0.97l0.21-3e-3 -0.041 0.12c-0.034 0.1-0.35 0.69-0.57 1-0.067 0.11-0.073 0.12-0.23 0.17zm1.1-1.3a0.44 0.44 0 0 1-0.14-0.047c-0.0098-0.017-0.15-1.7-0.22-2.5-0.023-0.3-0.023-0.3 0.041-0.24 0.051 0.049 0.068 0.088 0.081 0.2l0.17 1.4c0.084 0.69 0.17 1.3 0.18 1.3 0.047 0.025 0.019 0.023-0.12-8e-3z" fill="#78b840"/>
  <path d="m27 137a24 24 0 0 1-1.9 0.61c-1.2 0.34-1.4 0.42-1.9 0.71-0.22 0.13-0.61 0.37-0.86 0.53l-0.79 0.52c-0.69 0.46-1.1 0.81-1.5 1.3-0.21 0.27-0.27 0.33-0.4 0.41l-0.16 0.094-0.047-0.066c-0.045-0.062-0.041-0.074 0.083-0.25 0.07-0.1 0.34-0.42 0.59-0.71 0.26-0.29 0.52-0.6 0.58-0.7 0.08-0.11 0.14-0.17 0.18-0.18 0.037-0.011 0.12-0.07 0.19-0.13 0.14-0.12 0.15-0.13 0.2-0.052 0.046 0.079 0.36-0.077 0.82-0.41a19 19 0 0 1 1.1-0.68c0.65-0.39 0.7-0.43 0.77-0.53 0.097-0.14 0.18-0.22 0.25-0.23 0.082-0.019 0.094 0.035 0.04 0.17-0.056 0.14-0.04 0.19 0.052 0.18 0.23-0.033 1.7-0.43 2.1-0.56 0.35-0.12 0.89-0.44 1-0.59a0.75 0.75 0 0 0 0.21-0.41c0.01-0.096 0.015-0.1 0.041-0.058 0.016 0.028 0.042 0.043 0.057 0.034 0.11-0.063 1.2-1.9 1.4-2.4 0.074-0.17 0.078-0.17 0.34-0.12l0.12 0.024-0.21 0.24c-0.31 0.36-0.51 0.66-0.8 1.2-0.38 0.75-0.54 1-0.67 1.2a0.68 0.68 0 0 0-0.14 0.22c-0.05 0.22-0.2 0.32-0.77 0.53zm4.9-5.5c-0.14 0.07-0.15 0.071-0.15 2e-3 -0.0046-0.04 0.0018-0.071 0.012-0.07 0.011 3e-4 0.13-0.049 0.27-0.11 0.51-0.22 0.59-0.33 0.97-1.4 0.17-0.46 0.25-0.63 0.33-0.68 0.053-0.031 0.063-0.026 0.093 0.046 0.056 0.13 0.056 0.15-3e-4 0.14-0.11-0.018-0.2 0.11-0.34 0.45-0.069 0.18-0.18 0.45-0.25 0.62a1.6 1.6 0 0 0-0.11 0.32c0.0066 0.011 0.041 0.034 0.077 0.052 0.061 0.032 0.063 0.035 0.023 0.079-0.053 0.054-0.72 0.46-0.93 0.56z" fill="#3b3b3a"/>
 </g>
</svg>
