<svg width="16" height="16" version="1.1" viewBox="0 0 16 17" xmlns="http://www.w3.org/2000/svg">
 <g transform="translate(-19 -125)">
  <path d="m26 128 0.36-0.93 0.55-0.36 0.4 0.22 0.079 0.28 0.65-0.16 0.34 0.5 0.02 0.89-0.32 0.71-0.5 0.22-0.48-0.3-0.48 0.2-0.58-0.55z" fill="#fff"/>
  <g>
   <g>
    <path d="m28 126c-0.043-0.096-0.19-0.19-0.24-0.19-0.059 5.7e-4 -0.16-0.027-0.12-0.13 0.036-0.1 0.18-0.1 0.24-0.079 0.062 0.024 0.2 0.077 0.25 0.41 0.048 0.33-0.078 0.081-0.12-0.015z"/>
    <path d="m26 126c-0.11 0.051-0.13-0.1-0.089-0.18 0.043-0.076 0.18-0.17 0.26-0.2 0.082-0.033 0.16-0.03 0.18 0.015-0.016 0.17-0.25 0.32-0.35 0.37z"/>
    <path d="m27 129c0.11 7e-3 0.29-0.18 0.27-0.36-0.024-0.17-0.13-0.31-0.25-0.31-0.13-6.8e-4 -0.3 0.17-0.27 0.33 0.012 0.06 0.045 0.2 0.11 0.13 0.076-0.015 0.014-0.057 0.057-0.15 0.02-0.035 0.088-0.045 0.12-7e-3 0.031 0.037 0.041 0.13-0.036 0.17-0.048 0.017-0.07-0.034-0.13 0.017-0.061 0.051 0.076 0.19 0.14 0.19z"/>
    <path d="m26 128c-0.04 0.016-0.055 0.094-0.019 0.14 0.033 0.04 0.11 7e-3 0.13 0.069 0.067 0.067-0.09 0.13-0.15 0.11-0.17-0.046-0.26-0.33-0.15-0.55 0.15-0.19 0.33-0.14 0.43 7.3e-4 0.048 0.075 0.072 0.18 0.05 0.26-0.022 0.057-0.032 0.16-0.12 0.17-0.01-0.038-0.075-0.035-0.042-0.076 0.038-0.046 0.015-0.083-0.0027-0.11-0.023-0.038-0.084-0.03-0.12-0.015z"/>
   </g>
   <path d="m22 140c0.83-0.32-0.85 0.026 0 0zm9.4-0.36c-0.25-0.089-0.98-0.099-0.45 0.17 0.16-0.031 0.28-0.15 0.45-0.17zm-2 0.11c0.081-0.8-1.8-0.27-0.67 0.012 0.22-0.015 0.45-0.023 0.67-0.012zm-4.9-0.013c0.45-0.74-1.7-0.26-1.1 0.12 0.37-0.04 0.74-0.2 1.1-0.12zm6.1 0.11c-0.052-0.62-1.5-0.51-0.67-0.06 0.22 6e-3 0.45 5e-3 0.67 0.06zm-2.4-0.093c0.0074-0.89-1.1 0.49-0.17 0.028 0.058-9e-3 0.12-0.018 0.17-0.028zm-5.2 0.12c0.75-0.85-1.2 0.25-0.23 0.03l0.13-0.021zm1.4-0.012c-0.6-0.13-0.12 0.28 0 1e-4zm4.8 0.26c0.42 3e-3 0.95-0.019 0.2-0.093-0.53-0.13-1.6-5e-4 -1.8 0.16 0.52-0.071 1-0.087 1.6-0.071zm-2.1 0.1c0.49-0.51 0.0052-0.8-0.24-0.17-0.28 0.25 0.12 0.21 0.24 0.17zm-0.37-0.39c0.72-0.38-0.28-0.58-0.36-0.25-0.076 0.096-1.6-0.34-1.7 0.44 0.64-0.32 1.6 0.6 2-0.19zm-8.7-1.2c1-0.48 2-0.95 3.1-1.4-0.47-0.67 0.19-1.2 0.27-1.8-0.017-0.83 0.7-1.2 1.3-1.4 0.31-0.9 1.3-0.55 1.8-0.079 0.68 0.29 1.2-0.99 0.98-1.5-0.57-0.45-1.1-1.1-1-1.9 0.0042-0.71 0.16-1.5 0.59-2.1 0.62-0.43 0.57-1.3 0.98-1.8 0.38-0.53 1-0.071 1.2 0.17 1.3-0.31 0.67 1.5 1.2 2.1 0.27 0.88 0.087 1.8-0.081 2.7-0.24 0.88-0.76 1.7-1 2.5 0.66-0.49 1.8-1.4 2.5-0.89 0.27 0.65 1.4 0.12 1.6 1 0.18 0.67-0.075 1.4 0.68 1.8 0.16 0.72 0.21 1.5 1.1 1.6 0.43 0.28 1.6 0.59 1.6 0.86-2.8 1-5.6 2-8.4 3-2.8-1-5.7-2.1-8.5-3.1zm8.6 0.41c0.82-0.098-0.23-1.7-0.6-0.99-0.45 0.36-1.5-0.19-1.6 0.038 0.28 0.8 1.5 0.44 1.9 0.59-0.21 0.32-1.4 0.18-0.53 0.43 0.27 8e-3 0.55-5e-3 0.82-0.063zm-1.9-0.064c-0.12-0.65-1.3-0.63-1.5-0.43 0.26 0.56 1 0.41 1.5 0.43zm4.5-0.024c1-0.79-1.3-0.85-0.83 0.038 0.28-3e-3 0.56-6.1e-4 0.83-0.038zm-0.91-0.6c-0.33-0.098-1.1-0.14-0.56 0.32 0.25 0.52 0.49-0.061 0.56-0.32zm2.1 0.41c0.85-0.79-1-0.45-0.63 0.15 0.21-0.03 0.42-0.099 0.63-0.15zm-7.3-0.045c0.023-0.51-1.5-0.88-0.69-0.3 0.22 0.12 0.47 0.18 0.69 0.3zm4.3-0.16c-0.77-1.5-0.74-3.3-0.077-4.9 0.27-0.79 0.78-1.5 0.86-2.4-0.41 0.9-1.4 1.2-2.3 1.4 1.1-0.23 0.96 1.1 0.78 1.8-0.23 1-0.48 2.1-0.046 3.1 0.14 0.36 0.29 1 0.79 0.95zm4-0.11c0.56 0.025 1.1-1.7 0.37-0.78-0.34 0.17-1.5 1.4-0.37 0.78zm-9.2 0.054c-0.3-0.7-1.5-0.14-1.4 0.21 0.42-0.2 0.9-0.26 1.4-0.21zm2.1-0.28c-0.43-0.46-0.053-1.6-1.1-1.4-0.71 0.031-1.3-0.79-1.8-0.77-0.69 0.86 0.49 1.8 1.3 2 0.52 0.16 1.1 0.17 1.6 0.15zm6.1-0.18c0.77-0.14 2-0.65 1.6-1.6-0.55-0.96-1.4 0.44-2.2 0.45-0.85 0.28-1.8 0.36-2.7 0.13-0.16 1.1 1.1 1.3 1.9 1.2 0.44 3e-3 0.88-0.019 1.3-0.12zm-8.5-0.16c-0.19-0.18-0.81-0.65-0.36-0.14 0.072 0.062 0.44 0.58 0.36 0.14zm4-0.032c0.88-0.7-0.17-2 0.4-2.9 0.2-0.55 0.51-2.4-0.43-1.9-0.18 0.47 0.61 1.3 0.048 1.5 0.24-0.58-0.18-0.14-0.39-0.11 0.62-0.094 0.13-1.5-0.14-0.8 0.47 0.11 0.21 0.47-0.11 0.17-0.85 0.66 0.79 0.92 0.78 1.1-0.5 0.075-1.5-0.78-1.4 0.23 0.1 0.36 1.6 0.45 0.9 0.62-0.55-0.28-1.7-0.55-1.3 0.48 0.28 0.58 1.5 0.31 1.6 0.62-0.55 0.42-2-0.77-1.7 0.35 0.24 0.69 1.1 0.98 1.8 0.65zm1.6-1.1c0.33-0.67-1-0.029-0.12-6e-3 0.041 2e-3 0.083 3e-3 0.12 6e-3zm1.4-0.4c-0.29 0.015-1.6 0.14-0.87 0.43 0.32-0.01 0.91 0.065 0.87-0.43zm-5.1 0.29c0.0028-0.59-1.4-0.29-0.48-0.036 0.16 0.032 0.32 0.05 0.48 0.036zm6.4-0.41c0.17-0.93-1.6 0.44-0.72 0.33 0.25-0.089 0.47-0.23 0.72-0.33zm-7.4-0.087c-0.27-0.39-1.1-0.35-0.51 0.12 0.19 0.14 0.62 0.35 0.51-0.12zm5.3 0.07c1.2-0.13 2.4-0.62 3-1.6-0.4-1.2-1.7-0.41-2.2 0.19-0.55 0.5-1.7 0.2-2 0.67-0.2 1.1 0.41 0.81 1.2 0.75zm-4.1-0.8c-0.86 0.05-1.4-1.7-2.3-0.71-0.054 0.85 1 1.2 1.7 1.5 0.53 0.071 0.43-0.45 0.57-0.76zm6.5 0.63c0.41-0.13 0.86-1.3 0.16-0.57-0.22 0.11-0.22 0.36-0.16 0.57zm-8.7-0.56c-0.81-1.1-0.043 1.1 0 0zm2.6-0.78c0.54-0.78-1.4-1.5-1.6-0.61-0.0033 0.68 1.2 1.5 1.6 0.61zm3.7 0.12c0.56-0.22 1.9-0.7 1.3-1.4-0.81 0.037-1.5 0.6-2.1 1.1-0.59 0.87 0.38 0.52 0.8 0.35zm-1.2-2.7c1.2-0.6 1.7-2.2 1-3.4-0.36 0.33-0.82 0.7-1.2 0.25-0.61 0.21-1.1-0.029-1.3-0.62-0.77 0.45-0.81 1.7-0.74 2.5 0.084 1.1 1.3 1.7 2.2 1.2zm-0.53-0.22c-0.22-0.46 0.35-0.77 0.2-0.14-7.4e-4 0.039-0.18 0.35-0.2 0.14zm-1.4-0.21c-0.18-0.73 0.52-0.42 0.081 0.022zm2.6-2.9c0.72-0.54 0.17-2.6-0.69-1.5-0.28 0.11 0.085-0.93-0.54-0.62-0.74 0.32-1.1 1.6-0.32 2.1 0.51-3e-3 1.2 0.4 1.6 0.05z" stroke-width=".023"/>
  </g>
 </g>
</svg>
