<svg
   xmlns="http://www.w3.org/2000/svg"
   version="1.1"
   id="Layer_1"
   x="0px"
   y="0px"
   viewBox="0 0 257.10001 192"
   xml:space="preserve"
   width="16"
   height="16"
>
<g
   id="g10"
   transform="translate(-76.8,-96)">
	<path
   d="m 299.3,184.8 c -1.6,-0.6 -3.2,-1.1 -4.9,-1.6 0,-0.5 0,-0.9 0,-1.4 -1.8,-47.7 -41,-85.8 -89.2,-85.8 -48.2,0 -87.4,38.2 -89.2,85.9 0,0.5 0,0.9 0,1.4 -1.6,0.4 -3.1,0.9 -4.6,1.5 -20.2,7.7 -34.6,27.2 -34.6,50.2 0,23 14.4,42.5 34.7,50.1 3.5,1.3 7.3,2.3 11.1,2.9 4.5,-1.4 7.8,-5.6 7.8,-10.5 v -85 c 0,-2.8 -1,-5.3 -2.7,-7.2 h 0.1 c 0,-1.3 0,-2.5 0.1,-3.8 2,-41 35.8,-73.6 77.3,-73.6 41.5,0 75.4,32.6 77.3,73.6 0.1,1.3 0.1,2.5 0.1,3.8 h 0.4 c -1.7,1.9 -2.7,4.4 -2.7,7.2 v 85 c 0,4.9 3.3,9.1 7.8,10.5 3.9,-0.6 7.6,-1.5 11.1,-2.9 20.3,-7.6 34.7,-27.2 34.7,-50.1 0,-22.9 -14.3,-42.5 -34.6,-50.2 z"
   id="path2"
   inkscape:connector-curvature="0" />
	<path
   d="m 149.2,215.4 h 112.4 c 3.8,0 6.9,-3.1 6.9,-6.9 v -6.3 c 0,-3.8 -3.1,-6.9 -6.9,-6.9 H 149.2 c -3.8,0 -6.9,3.1 -6.9,6.9 v 6.3 c 0,3.8 3.1,6.9 6.9,6.9 z m 4.2,-13.8 H 188 v 7.6 h -34.6 z"
   id="path4"
   inkscape:connector-curvature="0" />
	<path
   d="m 142.3,242.8 c 0,3.8 3.1,6.9 6.9,6.9 h 112.4 c 3.8,0 6.9,-3.1 6.9,-6.9 v -6.3 c 0,-3.8 -3.1,-6.9 -6.9,-6.9 H 149.2 c -3.8,0 -6.9,3.1 -6.9,6.9 z m 11.1,-6.9 H 188 v 7.6 h -34.6 z"
   id="path6"
   inkscape:connector-curvature="0" />
	<path
   d="m 142.3,277.2 c 0,3.8 3.1,6.9 6.9,6.9 h 112.4 c 3.8,0 6.9,-3.1 6.9,-6.9 v -6.3 c 0,-3.8 -3.1,-6.9 -6.9,-6.9 H 149.2 c -3.8,0 -6.9,3.1 -6.9,6.9 z m 110.4,-6.9 h 1.2 c 2.1,0 3.8,1.7 3.8,3.8 0,2.1 -1.7,3.8 -3.8,3.8 h -1.2 c -2.1,0 -3.8,-1.7 -3.8,-3.8 0,-2.1 1.7,-3.8 3.8,-3.8 z m -13.1,0 h 1.2 c 2.1,0 3.8,1.7 3.8,3.8 0,2.1 -1.7,3.8 -3.8,3.8 h -1.2 c -2.1,0 -3.8,-1.7 -3.8,-3.8 0,-2.1 1.7,-3.8 3.8,-3.8 z"
   id="path8"
   inkscape:connector-curvature="0" />
</g>

</svg>
