<svg width="16" height="16" version="1.1" viewBox="0 0 16 17" xmlns="http://www.w3.org/2000/svg">
 <g transform="translate(-19 -125)">
  <ellipse cx="26" cy="134" rx="6.6" ry="6.6" fill="#fff" stroke-linecap="round" stroke-linejoin="round"/>
  <path d="m26 126c-0.19 0.034-0.39 0.2-0.55 0.29-0.36 0.21-0.72 0.41-1.1 0.62-1.2 0.71-2.5 1.4-3.7 2.1-0.39 0.23-0.78 0.45-1.2 0.68-0.16 0.09-0.4 0.18-0.48 0.35-0.065 0.14-0.037 0.31-0.037 0.46v7.2c0 0.13-0.011 0.26 0.06 0.37 0.063 0.1 0.18 0.15 0.28 0.21l0.63 0.36c0.74 0.42 1.5 0.85 2.2 1.3 0.94 0.55 1.9 1.1 2.8 1.6 0.23 0.13 0.45 0.26 0.68 0.39 0.13 0.076 0.26 0.16 0.42 0.14 0.17-0.028 0.35-0.18 0.49-0.26 0.36-0.2 0.71-0.41 1.1-0.62 1.2-0.71 2.5-1.4 3.7-2.1l1.2-0.69c0.16-0.091 0.4-0.18 0.48-0.36 0.061-0.13 0.032-0.31 0.032-0.45v-7.3c0-0.12 0.013-0.24-0.049-0.34-0.064-0.11-0.19-0.16-0.29-0.22-0.19-0.11-0.39-0.22-0.58-0.34-0.74-0.42-1.5-0.85-2.2-1.3-0.96-0.56-1.9-1.1-2.9-1.7-0.24-0.13-0.47-0.27-0.7-0.41-0.12-0.069-0.24-0.15-0.38-0.12m2.3 9.5v-3.8c0-0.39-0.08-0.87 0.15-1.2 0.4-0.59 1.3-0.47 1.6 0.15 0.093 0.21 0.069 0.44 0.069 0.66v5.2c0 0.53 0.12 1.2-0.41 1.5-0.078 0.049-0.16 0.092-0.25 0.12-0.5 0.14-1.1-9.4e-4 -1.5-0.34-0.26-0.23-0.47-0.54-0.7-0.81-1.2-1.4-2.3-2.9-3.5-4.2v3.9c0 0.4 0.079 0.87-0.17 1.2-0.4 0.57-1.3 0.45-1.6-0.16-0.096-0.21-0.069-0.45-0.069-0.68v-5.4c0-0.44-0.067-0.9 0.32-1.2 0.068-0.053 0.14-0.098 0.22-0.13 0.094-0.041 0.2-0.073 0.3-0.086 0.43-0.058 0.91 0.065 1.3 0.34 0.33 0.27 0.59 0.66 0.85 0.98 0.74 0.89 1.5 1.8 2.2 2.7 0.39 0.47 0.77 0.99 1.2 1.4z" fill="#019539"/>
 </g>
</svg>
