<svg width="16" height="16" version="1.1" viewBox="0 0 16 17" xmlns="http://www.w3.org/2000/svg">
 <g transform="translate(-19 -125)">
  <path d="m25 142c-0.28-0.038-0.71-0.12-0.95-0.18-0.43-0.11-0.44-0.12-0.5-0.31-0.1-0.28-0.1-1.4 8.9e-4 -1.9 0.16-0.78 0.64-1.7 1.1-2.2 0.21-0.2 0.53-0.33 0.93-0.4 1.5-0.24 1.7-0.34 1.8-0.8 0.061-0.21 0.061-0.29-0.0039-0.64-0.14-0.74-0.14-0.75-0.025-0.94 0.26-0.44-0.019-0.81-0.61-0.81-0.2 0-0.22-0.01-0.21-0.11 0.01-0.069 0.1-0.15 0.26-0.24 0.43-0.24 0.46-0.43 0.11-0.67-0.3-0.21-0.38-0.32-0.41-0.55-0.021-0.18 0.0012-0.25 0.18-0.51 0.25-0.38 0.26-0.51 0.017-0.75-0.14-0.13-0.29-0.22-0.6-0.32-0.36-0.12-0.45-0.17-0.68-0.41-0.34-0.35-0.49-0.65-0.54-1.1-0.086-0.77-0.29-1.2-0.79-1.7-0.19-0.18-0.36-0.34-0.38-0.34-0.021 0-0.16-0.1-0.32-0.23-0.15-0.12-0.26-0.19-0.23-0.13 0.25 0.48 0.31 0.78 0.31 1.7 0 1.1 0.071 1.3 0.76 2.1 0.48 0.56 0.85 1.2 0.85 1.5-2.9e-4 0.28-0.15 0.46-0.57 0.65l-0.37 0.17 0.034 0.23c0.1 0.72 0.1 0.76-0.072 0.96-0.21 0.24-0.38 0.32-0.65 0.32-0.41 0-0.42 0.24-0.015 0.35 0.28 0.075 0.37 0.17 0.37 0.39 0 0.15-0.028 0.21-0.14 0.29-0.079 0.059-0.16 0.14-0.17 0.18-0.04 0.11 0.06 0.38 0.24 0.64 0.2 0.3 0.24 0.77 0.09 1.1-0.2 0.38-0.56 0.63-1 0.71-0.39 0.063-0.96 0.35-1.1 0.57-0.14 0.18-0.14 0.18-0.14 0.96 2.9e-4 0.5 0.022 0.84 0.061 0.95 0.033 0.092 0.05 0.18 0.036 0.19-0.032 0.032-0.4-0.23-0.81-0.57-1.3-1.1-2.1-2.5-2.6-4.2-0.15-0.57-0.27-2-0.21-2.4l0.036-0.22 0.14 0.37c0.13 0.35 0.27 0.58 0.37 0.58 0.1 0 0.23-0.26 0.34-0.68 0.064-0.25 0.13-0.44 0.14-0.43 0.012 0.012 0.074 0.28 0.14 0.59 0.14 0.69 0.2 0.83 0.37 0.85 0.21 0.024 0.2 0.048 0.46-1.7 0.013-0.09 0.033-0.15 0.044-0.14 0.011 0.011 0.053 0.32 0.094 0.68s0.097 0.85 0.13 1.1c0.07 0.6 0.24 0.83 0.45 0.62 0.079-0.079 0.11-0.22 0.17-0.65 0.094-0.79 0.092-0.82-0.048-0.82-0.15 0-0.16 0.036-0.2 0.66-0.019 0.29-0.041 0.51-0.048 0.51-0.02-0.02-0.1-0.65-0.19-1.4-0.095-0.84-0.11-0.94-0.2-1-0.099-0.1-0.25-0.091-0.31 0.016-0.044 0.083-0.2 0.97-0.28 1.6-0.018 0.14-0.047 0.26-0.065 0.26-0.018 0-0.079-0.24-0.14-0.54-0.1-0.53-0.2-0.76-0.34-0.81-0.13-0.049-0.25 0.14-0.39 0.6-0.1 0.35-0.14 0.42-0.17 0.34-0.022-0.054-0.13-0.32-0.23-0.58l-0.19-0.49 0.091-0.42c0.05-0.23 0.14-0.57 0.19-0.76 0.24-0.8 0.94-2 1.6-2.8 1.7-1.9 4.4-2.9 7.1-2.5 1.1 0.16 2.5 0.69 3.5 1.4 1.2 0.83 2.4 2.4 3 3.8 0.36 0.98 0.44 1.4 0.44 2.7 0 0.98-0.018 1.2-0.2 2-0.43 1.9-1.8 3.7-3.5 4.7-0.82 0.49-1.8 0.91-2.6 1-0.15 0.028-0.38 0.07-0.5 0.093-0.42 0.081-1.8 0.092-2.3 0.02zm5.7-6.2c0.066-0.11 0.11-0.54 0.2-2.2 0.072-1.3 0.089-1.5 0.11-1.5 0.012-0.012 0.036 0.12 0.054 0.29 0.035 0.33 0.15 1.3 0.22 1.9 0.025 0.2 0.072 0.59 0.11 0.87 0.065 0.54 0.15 0.72 0.3 0.66 0.16-0.062 0.18-0.18 0.32-2 0.029-0.36 0.067-0.75 0.085-0.85l0.032-0.2 0.034 0.2c0.019 0.11 0.049 0.31 0.067 0.44 0.1 0.77 0.19 1.2 0.28 1.3 0.21 0.21 0.37-1e-3 0.51-0.66 0.045-0.21 0.096-0.38 0.11-0.38 0.016 1.4e-4 0.067 0.066 0.11 0.15 0.088 0.15 0.12 0.17 0.23 0.1 0.052-0.033 0.04-0.091-0.061-0.29-0.15-0.29-0.27-0.38-0.39-0.29-0.08 0.058-0.32 0.79-0.32 0.98-0.0031 0.25-0.074-0.046-0.22-0.9-0.12-0.72-0.18-0.96-0.25-1-0.054-0.054-0.13-0.084-0.17-0.067-0.13 0.05-0.19 0.26-0.24 0.87-0.09 1.1-0.16 1.9-0.17 1.9-0.011 0.013-0.13-0.89-0.23-1.7-0.083-0.72-0.24-1.8-0.28-1.9-0.055-0.2-0.18-0.27-0.29-0.16-0.068 0.068-0.093 0.21-0.12 0.66-0.036 0.64-0.14 2.2-0.16 2.5-0.0091 0.11-0.021 0.35-0.027 0.54-0.0097 0.32-0.013 0.33-0.051 0.15-0.023-0.11-0.076-0.6-0.12-1.1-0.16-1.9-0.16-1.9-0.27-2-0.12-0.095-0.25-0.054-0.31 0.096-0.02 0.048-0.056 0.48-0.08 0.97s-0.06 1.1-0.081 1.4l-0.037 0.56-0.089-0.59c-0.22-1.5-0.28-1.8-0.37-1.8-0.12-0.12-0.27-0.07-0.34 0.1-0.027 0.073-0.086 0.44-0.13 0.82-0.12 1-0.11 1-0.27 0.4-0.17-0.67-0.23-0.8-0.35-0.84-0.14-0.044-0.27 0.094-0.36 0.39-0.045 0.14-0.093 0.28-0.1 0.31-0.015 0.041 0.028 0.061 0.13 0.061 0.14 0 0.16-0.018 0.21-0.23 0.07-0.28 0.092-0.24 0.26 0.44 0.16 0.66 0.24 0.81 0.4 0.81 0.17 0 0.24-0.2 0.31-0.98 0.056-0.61 0.13-1.1 0.15-0.93 0.0036 0.04 0.026 0.22 0.05 0.39s0.08 0.59 0.12 0.93c0.12 0.94 0.21 1.2 0.43 1.2 0.17 0 0.22-0.26 0.28-1.5 0.031-0.64 0.064-1.2 0.075-1.2 0.037-0.037 0.073 0.23 0.12 0.9 0.1 1.4 0.16 2 0.23 2.1 0.084 0.16 0.26 0.18 0.35 0.029z" stroke-width=".049"/>
 </g>
</svg>
