<svg width="16" height="16" version="1.1" viewBox="0 0 22 13" xmlns="http://www.w3.org/2000/svg" xmlns:xlink="http://www.w3.org/1999/xlink">
 <defs>
  <clipPath id="o-7">
   <use width="100%" height="100%" overflow="visible" xlink:href="#d"/>
  </clipPath>
  <linearGradient id="g-3" x1="122" x2="219" y1="226" y2="226" gradientTransform="matrix(1 0 0 -1 0 288)" gradientUnits="userSpaceOnUse">
   <stop stop-color="#6cc04a" offset=".092"/>
   <stop stop-color="#66b848" offset=".29"/>
   <stop stop-color="#54a044" offset=".6"/>
   <stop stop-color="#41873f" offset=".86"/>
  </linearGradient>
  <linearGradient id="i-3" x1="122" x2="219" y1="137" y2="137" gradientTransform="matrix(1 0 0 -1 0 288)" gradientUnits="userSpaceOnUse">
   <stop stop-color="#6cc04a" offset=".092"/>
   <stop stop-color="#66b848" offset=".29"/>
   <stop stop-color="#54a044" offset=".6"/>
   <stop stop-color="#41873f" offset=".86"/>
  </linearGradient>
  <linearGradient id="j-6" x1="122" x2="219" y1="124" y2="124" gradientTransform="matrix(1 0 0 -1 0 288)" gradientUnits="userSpaceOnUse">
   <stop stop-color="#6cc04a" offset=".092"/>
   <stop stop-color="#66b848" offset=".29"/>
   <stop stop-color="#54a044" offset=".6"/>
   <stop stop-color="#41873f" offset=".86"/>
  </linearGradient>
  <clipPath id="n">
   <use width="100%" height="100%" overflow="visible" xlink:href="#c"/>
  </clipPath>
 </defs>
 <g transform="matrix(1.5 0 0 1.5 -96 -47)" fill="#699f63">
  <path d="m72 42a0.41 0.41 0 0 1-0.2-0.054l-0.66-0.39c-0.098-0.055-0.05-0.075-0.018-0.086 0.13-0.045 0.16-0.055 0.3-0.13 0.015-9e-3 0.034-5e-3 0.049 3e-3l0.5 0.3c0.018 0.01 0.044 0.01 0.06 0l2-1.1a0.062 0.062 0 0 0 0.03-0.053v-2.3a0.063 0.063 0 0 0-0.03-0.054l-2-1.1a0.061 0.061 0 0 0-0.06 0l-2 1.1a0.063 0.063 0 0 0-0.03 0.054v2.3a0.06 0.06 0 0 0 0.03 0.053l0.54 0.31c0.29 0.15 0.47-0.026 0.47-0.2v-2.2c0-0.032 0.025-0.057 0.057-0.057h0.25c0.03 0 0.056 0.025 0.056 0.057v2.2c0 0.39-0.21 0.61-0.58 0.61-0.11 0-0.2 0-0.45-0.12l-0.51-0.3a0.41 0.41 0 0 1-0.2-0.36v-2.3c0-0.15 0.078-0.28 0.2-0.36l2-1.1a0.43 0.43 0 0 1 0.41 0l2 1.1c0.13 0.074 0.21 0.21 0.21 0.36v2.3a0.42 0.42 0 0 1-0.21 0.36l-2 1.1a0.41 0.41 0 0 1-0.21 0.055z"/>
  <path d="m73 41c-0.86 0-1-0.39-1-0.72 0-0.031 0.026-0.056 0.057-0.056h0.25c0.029 0 0.052 0.02 0.057 0.048 0.038 0.26 0.15 0.39 0.67 0.39 0.41 0 0.59-0.094 0.59-0.31 0-0.13-0.05-0.22-0.69-0.28-0.54-0.053-0.87-0.17-0.87-0.6 0-0.4 0.33-0.63 0.89-0.63 0.63 0 0.94 0.22 0.98 0.69a0.057 0.057 0 0 1-0.015 0.043 0.058 0.058 0 0 1-0.042 0.018h-0.25a0.056 0.056 0 0 1-0.055-0.044c-0.061-0.27-0.21-0.36-0.61-0.36-0.45 0-0.5 0.16-0.5 0.28 0 0.14 0.062 0.18 0.67 0.26 0.6 0.08 0.89 0.19 0.89 0.62 0 0.43-0.36 0.67-0.98 0.67z"/>
 </g>
 <path d="m16 9.2a0.56 0.56 0 1 1-0.56-0.56c0.3 0 0.56 0.24 0.56 0.56zm-1-3e-3a0.47 0.47 0 1 0 0.94 3e-3 0.47 0.47 0 0 0-0.94-3e-3zm0.26-0.31h0.22c0.074 0 0.22 0 0.22 0.16 0 0.12-0.074 0.14-0.12 0.15 0.086 0.0059 0.092 0.062 0.1 0.14 0.0059 0.05 0.015 0.14 0.032 0.17h-0.13l-0.024-0.2c-0.0089-0.035-0.021-0.053-0.065-0.053h-0.11v0.25h-0.12v-0.63zm0.12 0.27h0.097c0.08 0 0.094-0.056 0.094-0.089 0-0.086-0.059-0.086-0.092-0.086h-0.1z" fill="#699f63" stroke-width="1.5"/>
 <path d="m4.7 2.2a0.25 0.25 0 0 0-0.12-0.22l-2.1-1.2a0.24 0.24 0 0 0-0.11-0.033h-0.022a0.25 0.25 0 0 0-0.12 0.033l-2.1 1.2a0.25 0.25 0 0 0-0.13 0.22l5e-3 3.2c0 0.046 0.023 0.087 0.062 0.11a0.12 0.12 0 0 0 0.12 0l1.2-0.71a0.25 0.25 0 0 0 0.13-0.22v-1.5a0.25 0.25 0 0 1 0.12-0.22l0.53-0.3a0.25 0.25 0 0 1 0.25 0l0.53 0.3a0.25 0.25 0 0 1 0.12 0.22v1.5c0 0.09 0.049 0.17 0.13 0.22l1.2 0.71a0.12 0.12 0 1 0 0.19-0.11zm10-4.4a0.13 0.13 0 0 0-0.19 0.11v3.2a0.088 0.088 0 0 1-0.13 0.077l-0.52-0.3a0.25 0.25 0 0 0-0.25 0l-2.1 1.2a0.25 0.25 0 0 0-0.12 0.22v2.4c0 0.09 0.047 0.17 0.12 0.22l2.1 1.2a0.25 0.25 0 0 0 0.25 0l2.1-1.2a0.25 0.25 0 0 0 0.13-0.22v-6a0.25 0.25 0 0 0-0.13-0.22zm-0.19 6.1a0.063 0.063 0 0 1-0.032 0.054l-0.71 0.41a0.063 0.063 0 0 1-0.062 0l-0.71-0.41a0.063 0.063 0 0 1-0.032-0.054v-0.82c0-0.023 0.012-0.044 0.032-0.055l0.71-0.41a0.063 0.063 0 0 1 0.062 0l0.71 0.41c0.02 0.011 0.032 0.032 0.032 0.055zm7.1-0.85a0.25 0.25 0 0 0 0.12-0.22v-0.58a0.25 0.25 0 0 0-0.12-0.22l-2.1-1.2a0.25 0.25 0 0 0-0.25 0l-2.1 1.2a0.25 0.25 0 0 0-0.12 0.22v2.4c0 0.09 0.048 0.17 0.13 0.22l2.1 1.2a0.25 0.25 0 0 0 0.25 1e-3l1.2-0.69a0.12 0.12 0 0 0 0-0.22l-2.1-1.2a0.13 0.13 0 0 1-0.063-0.11v-0.75c0-0.045 0.024-0.086 0.062-0.11l0.65-0.38a0.12 0.12 0 0 1 0.12 0l0.65 0.38a0.12 0.12 0 0 1 0.063 0.11v0.59a0.13 0.13 0 0 0 0.19 0.11z" fill="#333"/>
 <path d="m19 2.9a0.048 0.048 0 0 1 0.048 0l0.4 0.23a0.048 0.048 0 0 1 0.023 0.041v0.46a0.05 0.05 0 0 1-0.024 0.042l-0.4 0.23a0.048 0.048 0 0 1-0.048 0l-0.4-0.23a0.048 0.048 0 0 1-0.024-0.042v-0.46c0-0.018 0.01-0.034 0.024-0.042z" fill="#699f63"/>
 <path d="m8.2 0.79a0.25 0.25 0 0 0-0.25 0l-2.1 1.2a0.25 0.25 0 0 0-0.12 0.22v2.4c0 0.089 0.048 0.17 0.12 0.22l2.1 1.2a0.25 0.25 0 0 0 0.25 0l2.1-1.2a0.25 0.25 0 0 0 0.12-0.22v-2.4c0-0.089-0.048-0.17-0.12-0.22z" fill="#699f63" stroke-width=".049"/>
 <g transform="matrix(.049 0 0 .049 -.36 -.4)" clip-path="url(#n)" fill="none">
  <path d="m168 71-42 24c-1.6 0.91-2.7 2.6-2.7 4.4v49c0 1.2 0.51 2.3 1.3 3.2l47-81a5.2 5.2 0 0 0-3.8 0.53zm4 107c0.41-0.11 0.81-0.28 1.2-0.49l42-24c1.6-0.91 2.6-2.6 2.6-4.4v-49c0-1.3-0.6-2.6-1.5-3.5z"/>
  <path d="m215 95-42-24a5 5 0 0 0-1.3-0.53l-47 81c0.41 0.46 0.89 0.86 1.4 1.2l42 24a5.1 5.1 0 0 0 3.9 0.49l44-81a5.6 5.6 0 0 0-1.1-0.87z"/>
 </g>
 <g transform="matrix(.049 0 0 .049 -.36 -.4)" clip-path="url(#o-7)">
  <path d="m218 148v-49c0-1.8-1.1-3.5-2.7-4.4l-42-24a5.1 5.1 0 0 0-1.6-0.57l46 79c0.099-0.38 0.16-0.77 0.16-1.2zm-92-53c-1.6 0.91-2.7 2.6-2.7 4.4v49c0 1.8 1.2 3.5 2.7 4.4l42 24a5.1 5.1 0 0 0 3.3 0.63l-45-83z" fill="none"/>
  <path d="m167 62-0.19-0.33-0.58 0.33z" fill="url(#g-3)"/>
  <path d="m215 153c1.2-0.71 2.1-1.9 2.5-3.2l-46-79a5.2 5.2 0 0 0-3.6 0.57l-42 24 45 83a5.1 5.1 0 0 0 1.9-0.63z" fill="none"/>
  <path d="m219 152 0.28-0.16-0.28-0.48z" fill="url(#i-3)"/>
  <path d="m215 153-42 24a5.1 5.1 0 0 1-1.9 0.63l0.84 1.5 47-27v-0.64l-1.2-2c-0.35 1.3-1.3 2.5-2.5 3.2z" fill="url(#j-6)"/>
 </g>
</svg>
