<?xml version="1.0" encoding="UTF-8" standalone="no"?>
<svg
   xmlns:dc="http://purl.org/dc/elements/1.1/"
   xmlns:cc="http://creativecommons.org/ns#"
   xmlns:rdf="http://www.w3.org/1999/02/22-rdf-syntax-ns#"
   xmlns:svg="http://www.w3.org/2000/svg"
   xmlns="http://www.w3.org/2000/svg"
   xmlns:xlink="http://www.w3.org/1999/xlink"
   id="svg8023"
   version="1.1"
   viewBox="0 0 21.7099 13.296692"
   height="13.296692mm"
   width="21.7099mm">
  <defs
     id="defs8017">
    <clipPath
       id="o">
      <use
         id="use37"
         overflow="visible"
         xlink:href="#d"
         width="100%"
         height="100%"
         style="overflow:visible"
         x="0"
         y="0" />
    </clipPath>
    <linearGradient
       gradientTransform="matrix(1,0,0,-1,0,288.11)"
       gradientUnits="userSpaceOnUse"
       id="g"
       x1="121.862"
       x2="219.27901"
       y1="226.166"
       y2="226.166">
      <stop
         id="stop40"
         stop-color="#6cc04a"
         offset=".092" />
      <stop
         id="stop42"
         stop-color="#66b848"
         offset=".286" />
      <stop
         id="stop44"
         stop-color="#54a044"
         offset=".597" />
      <stop
         id="stop46"
         stop-color="#41873f"
         offset=".862" />
    </linearGradient>
    <linearGradient
       gradientTransform="matrix(1,0,0,-1,0,288.11)"
       gradientUnits="userSpaceOnUse"
       id="h"
       x1="121.862"
       x2="219.27901"
       y1="164.34801"
       y2="164.34801">
      <stop
         id="stop49"
         stop-color="#6cc04a"
         offset=".092" />
      <stop
         id="stop51"
         stop-color="#66b848"
         offset=".286" />
      <stop
         id="stop53"
         stop-color="#54a044"
         offset=".597" />
      <stop
         id="stop55"
         stop-color="#41873f"
         offset=".862" />
    </linearGradient>
    <linearGradient
       gradientTransform="matrix(1,0,0,-1,0,288.11)"
       gradientUnits="userSpaceOnUse"
       id="i"
       x1="121.862"
       x2="219.27901"
       y1="136.53799"
       y2="136.53799">
      <stop
         id="stop58"
         stop-color="#6cc04a"
         offset=".092" />
      <stop
         id="stop60"
         stop-color="#66b848"
         offset=".286" />
      <stop
         id="stop62"
         stop-color="#54a044"
         offset=".597" />
      <stop
         id="stop64"
         stop-color="#41873f"
         offset=".862" />
    </linearGradient>
    <linearGradient
       gradientTransform="matrix(1,0,0,-1,0,288.11)"
       gradientUnits="userSpaceOnUse"
       id="j"
       x1="121.862"
       x2="219.27901"
       y1="123.968"
       y2="123.968">
      <stop
         id="stop67"
         stop-color="#6cc04a"
         offset=".092" />
      <stop
         id="stop69"
         stop-color="#66b848"
         offset=".286" />
      <stop
         id="stop71"
         stop-color="#54a044"
         offset=".597" />
      <stop
         id="stop73"
         stop-color="#41873f"
         offset=".862" />
    </linearGradient>
    <linearGradient
       gradientTransform="matrix(1,0,0,-1,0,288.11)"
       gradientUnits="userSpaceOnUse"
       id="k"
       x1="233.472"
       x2="173.39101"
       y1="201.588"
       y2="79.023003">
      <stop
         id="stop76"
         stop-color="#41873f"
         offset="0" />
      <stop
         id="stop78"
         stop-color="#418b3d"
         offset=".329" />
      <stop
         id="stop80"
         stop-color="#419637"
         offset=".635" />
      <stop
         id="stop82"
         stop-color="#3fa92d"
         offset=".932" />
      <stop
         id="stop84"
         stop-color="#3fae2a"
         offset="1" />
    </linearGradient>
    <clipPath
       id="o-7">
      <use
         id="use37-5"
         overflow="visible"
         xlink:href="#d"
         width="100%"
         height="100%"
         style="overflow:visible"
         x="0"
         y="0" />
    </clipPath>
    <linearGradient
       gradientTransform="matrix(1,0,0,-1,0,288.11)"
       gradientUnits="userSpaceOnUse"
       id="g-3"
       x1="121.862"
       x2="219.27901"
       y1="226.166"
       y2="226.166">
      <stop
         id="stop40-5"
         stop-color="#6cc04a"
         offset=".092" />
      <stop
         id="stop42-6"
         stop-color="#66b848"
         offset=".286" />
      <stop
         id="stop44-2"
         stop-color="#54a044"
         offset=".597" />
      <stop
         id="stop46-9"
         stop-color="#41873f"
         offset=".862" />
    </linearGradient>
    <linearGradient
       gradientTransform="matrix(1,0,0,-1,0,288.11)"
       gradientUnits="userSpaceOnUse"
       id="h-1"
       x1="121.862"
       x2="219.27901"
       y1="164.34801"
       y2="164.34801">
      <stop
         id="stop49-2"
         stop-color="#6cc04a"
         offset=".092" />
      <stop
         id="stop51-7"
         stop-color="#66b848"
         offset=".286" />
      <stop
         id="stop53-0"
         stop-color="#54a044"
         offset=".597" />
      <stop
         id="stop55-9"
         stop-color="#41873f"
         offset=".862" />
    </linearGradient>
    <linearGradient
       gradientTransform="matrix(1,0,0,-1,0,288.11)"
       gradientUnits="userSpaceOnUse"
       id="i-3"
       x1="121.862"
       x2="219.27901"
       y1="136.53799"
       y2="136.53799">
      <stop
         id="stop58-6"
         stop-color="#6cc04a"
         offset=".092" />
      <stop
         id="stop60-0"
         stop-color="#66b848"
         offset=".286" />
      <stop
         id="stop62-6"
         stop-color="#54a044"
         offset=".597" />
      <stop
         id="stop64-2"
         stop-color="#41873f"
         offset=".862" />
    </linearGradient>
    <linearGradient
       gradientTransform="matrix(1,0,0,-1,0,288.11)"
       gradientUnits="userSpaceOnUse"
       id="j-6"
       x1="121.862"
       x2="219.27901"
       y1="123.968"
       y2="123.968">
      <stop
         id="stop67-1"
         stop-color="#6cc04a"
         offset=".092" />
      <stop
         id="stop69-8"
         stop-color="#66b848"
         offset=".286" />
      <stop
         id="stop71-7"
         stop-color="#54a044"
         offset=".597" />
      <stop
         id="stop73-9"
         stop-color="#41873f"
         offset=".862" />
    </linearGradient>
    <linearGradient
       gradientTransform="matrix(1,0,0,-1,0,288.11)"
       gradientUnits="userSpaceOnUse"
       id="k-2"
       x1="233.472"
       x2="173.39101"
       y1="201.588"
       y2="79.023003">
      <stop
         id="stop76-0"
         stop-color="#41873f"
         offset="0" />
      <stop
         id="stop78-2"
         stop-color="#418b3d"
         offset=".329" />
      <stop
         id="stop80-3"
         stop-color="#419637"
         offset=".635" />
      <stop
         id="stop82-7"
         stop-color="#3fa92d"
         offset=".932" />
      <stop
         id="stop84-5"
         stop-color="#3fae2a"
         offset="1" />
    </linearGradient>
    <clipPath
       id="n">
      <use
         id="use25"
         overflow="visible"
         xlink:href="#c"
         width="100%"
         height="100%"
         style="overflow:visible"
         x="0"
         y="0" />
    </clipPath>
    <linearGradient
       gradientTransform="matrix(1,0,0,-1,0,288.11)"
       gradientUnits="userSpaceOnUse"
       id="f"
       x1="164.157"
       x2="270.965"
       y1="158.647"
       y2="237.562">
      <stop
         id="stop28"
         stop-color="#41873f"
         offset=".138" />
      <stop
         id="stop30"
         stop-color="#54a044"
         offset=".403" />
      <stop
         id="stop32"
         stop-color="#66b848"
         offset=".714" />
      <stop
         id="stop34"
         stop-color="#6cc04a"
         offset=".908" />
    </linearGradient>
    <linearGradient
       gradientTransform="matrix(0.04907978,0,0,-0.04907978,53.043001,80.331876)"
       gradientUnits="userSpaceOnUse"
       id="e"
       x1="187.702"
       x2="149.63699"
       y1="199.285"
       y2="121.633">
      <stop
         id="stop14"
         stop-color="#41873f"
         offset="0" />
      <stop
         id="stop16"
         stop-color="#418b3d"
         offset=".329" />
      <stop
         id="stop18"
         stop-color="#419637"
         offset=".635" />
      <stop
         id="stop20"
         stop-color="#3fa92d"
         offset=".932" />
      <stop
         id="stop22"
         stop-color="#3fae2a"
         offset="1" />
    </linearGradient>
  </defs>
  <metadata
     id="metadata8020">
    <rdf:RDF>
      <cc:Work
         rdf:about="">
        <dc:format>image/svg+xml</dc:format>
        <dc:type
           rdf:resource="http://purl.org/dc/dcmitype/StillImage" />
        <dc:title></dc:title>
      </cc:Work>
    </rdf:RDF>
  </metadata>
  <g
     transform="translate(-53.401001,-66.589751)"
     id="layer1">
    <g
       id="g290"
       style="fill:#699f63"
       transform="matrix(0.99999557,0,0,0.99999557,-8.262729,37.735626)">
      <path
         id="path286"
         d="m 72.394,42.15 a 0.41,0.41 0 0 1 -0.205,-0.054 l -0.655,-0.387 c -0.098,-0.055 -0.05,-0.075 -0.018,-0.086 0.13,-0.045 0.157,-0.055 0.296,-0.134 0.015,-0.009 0.034,-0.005 0.049,0.003 l 0.503,0.299 c 0.018,0.01 0.044,0.01 0.06,0 l 1.961,-1.132 a 0.062,0.062 0 0 0 0.03,-0.053 v -2.262 a 0.063,0.063 0 0 0 -0.03,-0.054 l -1.96,-1.13 a 0.061,0.061 0 0 0 -0.06,0 l -1.96,1.13 a 0.063,0.063 0 0 0 -0.03,0.054 v 2.262 a 0.06,0.06 0 0 0 0.03,0.053 l 0.537,0.31 c 0.292,0.146 0.47,-0.026 0.47,-0.198 v -2.234 c 0,-0.032 0.025,-0.057 0.057,-0.057 h 0.249 c 0.03,0 0.056,0.025 0.056,0.057 v 2.234 c 0,0.389 -0.211,0.612 -0.58,0.612 -0.113,0 -0.203,0 -0.452,-0.123 l -0.514,-0.296 a 0.414,0.414 0 0 1 -0.205,-0.358 v -2.262 c 0,-0.147 0.078,-0.284 0.205,-0.358 l 1.96,-1.132 a 0.43,0.43 0 0 1 0.413,0 l 1.96,1.132 c 0.127,0.074 0.206,0.21 0.206,0.358 v 2.262 a 0.415,0.415 0 0 1 -0.206,0.358 l -1.96,1.132 a 0.411,0.411 0 0 1 -0.207,0.055 z" />
      <path
         id="path288"
         d="m 73,40.592 c -0.858,0 -1.038,-0.394 -1.038,-0.724 0,-0.031 0.026,-0.056 0.057,-0.056 h 0.253 c 0.029,0 0.052,0.02 0.057,0.048 0.038,0.258 0.152,0.388 0.671,0.388 0.413,0 0.589,-0.094 0.589,-0.313 0,-0.126 -0.05,-0.22 -0.692,-0.283 -0.536,-0.053 -0.868,-0.171 -0.868,-0.6 0,-0.396 0.333,-0.632 0.892,-0.632 0.628,0 0.94,0.218 0.979,0.686 a 0.057,0.057 0 0 1 -0.015,0.043 0.058,0.058 0 0 1 -0.042,0.018 h -0.254 a 0.056,0.056 0 0 1 -0.055,-0.044 c -0.061,-0.271 -0.21,-0.358 -0.613,-0.358 -0.45,0 -0.503,0.157 -0.503,0.275 0,0.142 0.062,0.184 0.67,0.264 0.603,0.08 0.89,0.193 0.89,0.616 0,0.427 -0.357,0.672 -0.978,0.672 z" />
    </g>
    <path
       id="path292"
       d="m 67.563941,75.955456 a 0.37899832,0.37899832 0 1 1 -0.378,-0.378 c 0.204,0 0.378,0.163 0.378,0.377 z m -0.695,-0.002 a 0.31700158,0.31700158 0 1 0 0.634,0.002 0.31700158,0.31700158 0 0 0 -0.634,-0.002 z m 0.175,-0.21 h 0.146 c 0.05,0 0.148,0 0.148,0.111 0,0.078 -0.05,0.094 -0.08,0.104 0.058,0.004 0.062,0.042 0.07,0.096 0.004,0.034 0.01,0.092 0.022,0.112 h -0.09 l -0.016,-0.134 c -0.006,-0.024 -0.014,-0.036 -0.044,-0.036 h -0.074 v 0.17 h -0.082 v -0.424 z m 0.08,0.185 h 0.066 c 0.054,0 0.064,-0.038 0.064,-0.06 0,-0.058 -0.04,-0.058 -0.062,-0.058 h -0.068 z"
       style="fill:#699f63;stroke-width:0.99999553" />
    <path
       id="path294"
       d="m 58.059981,71.034476 a 0.24999889,0.24999889 0 0 0 -0.125,-0.218 l -2.07899,-1.19699 a 0.24499891,0.24499891 0 0 0 -0.114,-0.033 h -0.022 a 0.2479989,0.2479989 0 0 0 -0.115,0.033 l -2.07799,1.19699 a 0.25199888,0.25199888 0 0 0 -0.126,0.218 l 0.005,3.21999 c 0,0.046 0.023,0.087 0.062,0.11 a 0.11999947,0.11999947 0 0 0 0.125,0 l 1.23499,-0.708 a 0.25299888,0.25299888 0 0 0 0.126,-0.218 v -1.50499 a 0.24999889,0.24999889 0 0 1 0.125,-0.217 l 0.526,-0.303 a 0.24999889,0.24999889 0 0 1 0.251,0 l 0.526,0.303 a 0.24999889,0.24999889 0 0 1 0.125,0.217 v 1.50499 c 0,0.09 0.049,0.172 0.126,0.218 l 1.23499,0.707 a 0.12499945,0.12499945 0 1 0 0.188,-0.108 z m 10.00195,-4.42898 a 0.12599944,0.12599944 0 0 0 -0.18699,0.11 v 3.18999 a 0.08799961,0.08799961 0 0 1 -0.132,0.077 l -0.52,-0.3 a 0.25099889,0.25099889 0 0 0 -0.251,0 l -2.07999,1.19999 a 0.25099889,0.25099889 0 0 0 -0.125,0.217 v 2.39999 c 0,0.09 0.047,0.173 0.125,0.218 l 2.07999,1.201 a 0.25099889,0.25099889 0 0 0 0.25,0 l 2.07999,-1.2 a 0.25099889,0.25099889 0 0 0 0.126,-0.218 v -5.98497 a 0.25099889,0.25099889 0 0 0 -0.129,-0.22 z m -0.19299,6.10598 a 0.06299972,0.06299972 0 0 1 -0.032,0.054 l -0.714,0.41199 a 0.06299972,0.06299972 0 0 1 -0.062,0 l -0.714,-0.412 a 0.06299972,0.06299972 0 0 1 -0.032,-0.054 v -0.82399 c 0,-0.023 0.012,-0.044 0.032,-0.055 l 0.714,-0.412 a 0.06299972,0.06299972 0 0 1 0.062,0 l 0.714,0.412 c 0.02,0.011 0.032,0.032 0.032,0.055 z m 7.11696,-0.846 a 0.25099889,0.25099889 0 0 0 0.125,-0.217 v -0.582 a 0.25099889,0.25099889 0 0 0 -0.125,-0.217 l -2.06599,-1.19999 a 0.25099889,0.25099889 0 0 0 -0.252,0 l -2.07899,1.19999 a 0.25099889,0.25099889 0 0 0 -0.125,0.218 v 2.39999 c 0,0.09 0.048,0.173 0.127,0.218 l 2.06499,1.177 a 0.24999889,0.24999889 0 0 0 0.247,0.001 l 1.25,-0.694 a 0.12499945,0.12499945 0 0 0 0,-0.219 l -2.09099,-1.2 a 0.12599944,0.12599944 0 0 1 -0.063,-0.11 v -0.752 c 0,-0.045 0.024,-0.086 0.062,-0.108 l 0.65199,-0.37599 a 0.12499945,0.12499945 0 0 1 0.125,0 l 0.651,0.37599 a 0.12499945,0.12499945 0 0 1 0.063,0.108 v 0.592 a 0.12599944,0.12599944 0 0 0 0.189,0.109 z"
       style="fill:#333333;stroke-width:0.99999553" />
    <path
       id="path296"
       d="m 72.762911,71.753476 a 0.04799979,0.04799979 0 0 1 0.048,0 l 0.4,0.23 a 0.04799979,0.04799979 0 0 1 0.023,0.041 v 0.461 a 0.04999978,0.04999978 0 0 1 -0.024,0.042 l -0.399,0.22999 a 0.04799979,0.04799979 0 0 1 -0.048,0 l -0.39899,-0.22999 a 0.04799979,0.04799979 0 0 1 -0.024,-0.042 v -0.46 c 0,-0.018 0.01,-0.034 0.024,-0.042 z"
       style="fill:#699f63;stroke-width:0.99999553" />
    <path
       id="path298"
       d="m 61.539691,69.662276 a 0.24961977,0.24961977 0 0 0 -0.24967,0 l -2.06792,1.19333 a 0.24961977,0.24961977 0 0 0 -0.12496,0.21634 v 2.38852 c 0,0.0892 0.0476,0.17163 0.12486,0.21634 l 2.06793,1.19431 a 0.24996333,0.24996333 0 0 0 0.24986,0 l 2.06744,-1.19431 a 0.24986517,0.24986517 0 0 0 0.12481,-0.21634 v -2.38862 c 0,-0.0892 -0.0476,-0.17163 -0.12491,-0.21624 z"
       style="fill:url(#e);stroke-width:0.04907978" />
    <g
       id="g304"
       transform="matrix(0.04907978,0,0,0.04907978,53.043001,66.191496)"
       clip-path="url(#n)">
      <path
         id="path300"
         d="M 167.944,70.717 125.722,95.031 C 124.146,95.94 123,97.619 123,99.439 v 48.666 c 0,1.203 0.514,2.339 1.313,3.238 l 47.44,-81.152 a 5.17,5.17 0 0 0 -3.809,0.526 z m 4.044,106.622 c 0.41,-0.113 0.81,-0.275 1.186,-0.492 l 42.177,-24.334 c 1.574,-0.91 2.649,-2.59 2.649,-4.408 V 99.437 c 0,-1.338 -0.598,-2.598 -1.54,-3.534 z"
         style="fill:none" />
      <path
         id="path302"
         d="M 215.327,95.031 173.075,70.717 a 5.044,5.044 0 0 0 -1.322,-0.526 l -47.44,81.152 c 0.409,0.46 0.888,0.861 1.42,1.169 l 42.323,24.334 a 5.137,5.137 0 0 0 3.931,0.492 L 216.46,95.902 a 5.6,5.6 0 0 0 -1.133,-0.871 z"
         style="fill:url(#f)" />
    </g>
    <g
       id="g318"
       transform="matrix(0.04907978,0,0,0.04907978,53.043001,66.191496)"
       clip-path="url(#o-7)">
      <path
         id="path306"
         d="M 218,148.105 V 99.437 c 0,-1.818 -1.098,-3.497 -2.673,-4.406 L 173.075,70.717 a 5.08,5.08 0 0 0 -1.551,-0.571 l 46.317,79.128 C 217.94,148.895 218,148.505 218,148.105 Z M 125.722,95.031 C 124.146,95.94 123,97.619 123,99.439 v 48.666 c 0,1.818 1.16,3.497 2.733,4.408 l 42.323,24.334 a 5.13,5.13 0 0 0 3.256,0.632 L 125.975,94.885 Z"
         style="fill:none" />
      <path
         id="path308"
         d="m 166.821,62.11 -0.194,-0.331 -0.58,0.331 z"
         style="fill:url(#g-3)" />
      <path
         id="path310"
         d="m 215.351,152.513 c 1.228,-0.71 2.144,-1.891 2.491,-3.238 L 171.525,70.147 a 5.157,5.157 0 0 0 -3.581,0.571 l -41.968,24.168 45.337,82.594 a 5.107,5.107 0 0 0 1.861,-0.632 z"
         style="fill:url(#h-1)" />
      <path
         id="path312"
         d="M 219,151.892 219.279,151.73 219,151.253 Z"
         style="fill:url(#i-3)" />
      <path
         id="path314"
         d="m 215.351,152.513 -42.177,24.334 a 5.089,5.089 0 0 1 -1.861,0.632 l 0.84,1.53 L 219,151.892 v -0.639 l -1.158,-1.978 c -0.347,1.347 -1.263,2.527 -2.491,3.238 z"
         style="fill:url(#j-6)" />
      <path
         id="path316"
         d="m 215.351,152.513 -42.177,24.334 a 5.089,5.089 0 0 1 -1.861,0.632 l 0.84,1.53 L 219,151.892 v -0.639 l -1.158,-1.978 c -0.347,1.347 -1.263,2.527 -2.491,3.238 z"
         style="fill:url(#k-2)" />
    </g>
  </g>
</svg>
