<svg
   xmlns="http://www.w3.org/2000/svg"
   id="svg7"
   version="1.1"
   viewBox="0 0 12.809369 14.823519"
   height="16"
   width="16">
  <g
     transform="translate(-92.195736,-102.66603)"
     id="layer1">
    <path
       style="fill:#fe0303;stroke-width:0.99999553"
       id="path136"
       d="m 95.890763,109.31427 c -1.032996,-0.819 -1.584993,-2.22499 -1.369994,-3.49399 0.361998,-2.13999 2.501989,-3.57298 4.54598,-3.04398 1.721991,0.44699 2.824991,1.85199 2.824991,3.59998 0,1.124 -0.367,1.97599 -1.18,2.74299 -0.275,0.26 -0.541,0.472 -0.59,0.47 -0.05,0 -0.332994,-0.432 -0.629993,-0.96 l -0.539998,-0.957 0.195999,-0.14199 c 0.300999,-0.22 0.505998,-0.683 0.505998,-1.148 0,-0.47 -0.133999,-0.765 -0.487998,-1.07599 -0.741996,-0.652 -1.825992,-0.447 -2.26199,0.42899 -0.305998,0.614 -0.216999,1.19 0.261999,1.693 0.152,0.15999 0.275999,0.30199 0.275999,0.31599 0,0.106 -1.056995,1.847 -1.120995,1.847 -0.045,0 -0.238999,-0.125 -0.429998,-0.276 z" />
    <path
       style="fill:#0303fe;stroke-width:0.99999553"
       id="path138"
       d="m 101.50474,117.36023 c -1.821994,-0.501 -3.033989,-2.31999 -2.75299,-4.12998 0.152999,-0.99 0.866996,-2.13499 1.59699,-2.56399 l 0.22,-0.129 0.415,0.713 c 0.229,0.391 0.48,0.82 0.559,0.94999 l 0.143,0.238 -0.214,0.2 c -0.71,0.663 -0.639,1.81599 0.142,2.33299 0.26,0.172 0.378,0.2 0.82499,0.2 0.446,0 0.565,-0.028 0.824,-0.2 0.632,-0.418 0.824,-1.29799 0.43,-1.96999 -0.11,-0.188 -0.266,-0.378 -0.345,-0.42 -0.079,-0.042 -0.143,-0.109 -0.143,-0.148 0,-0.106 1.03,-1.89299 1.092,-1.89299 0.029,0 0.17999,0.093 0.33699,0.207 a 3.8379829,3.8379829 0 0 1 1.487,2.47699 c 0.26,1.85199 -0.94,3.66598 -2.73599,4.13298 -0.515,0.135 -1.39699,0.136 -1.87999,0.003 z" />
    <path
       style="fill:#02fe02;stroke-width:0.99999553"
       id="path140"
       d="m 93.574773,117.46523 a 3.6449839,3.6449839 0 0 1 -2.888987,-2.07499 c -0.713997,-1.49399 -0.441998,-3.06599 0.732997,-4.23198 0.854996,-0.849 1.921991,-1.227 3.031986,-1.075 0.588998,0.08 1.385994,0.349 1.385994,0.466 0,0.04 -0.236999,0.482 -0.526998,0.984 -0.449998,0.77999 -0.547997,0.90499 -0.673997,0.86899 -0.495998,-0.143 -0.829996,-0.128 -1.227994,0.055 -0.905996,0.415 -1.134995,1.529 -0.469998,2.28699 0.311999,0.355 0.605997,0.487 1.084995,0.488 0.731997,0 1.337994,-0.505 1.429994,-1.19299 l 0.039,-0.29 h 2.24199 v 0.277 c 0,0.392 -0.189999,1.07199 -0.419998,1.50499 -0.261999,0.49 -1.056996,1.28799 -1.516994,1.51999 -0.703997,0.357 -1.473993,0.5 -2.22199,0.414 z" />
  </g>
</svg>
