<svg width="16" height="16" version="1.1" viewBox="0 0 15 15" xmlns="http://www.w3.org/2000/svg">
 <g transform="translate(-109 -119)">
  <g transform="matrix(.13 0 0 .13 97 110)">
   <path d="m151 67c-15 0-25 6.3-25 12v19h25v2.9h-47c-6 0-12 10-12 25s6.3 25 12 25h19v-12c0-8.1 6.6-15 15-15l27-2e-3c6.5 0 12-5.3 12-12v-21h2e-3v-13c-1e-3 -6-10-12-25-12z" fill="#004a94"/>
   <circle cx="137" cy="84" r="3.6" fill="#fff"/>
  </g>
  <g transform="matrix(.13 0 0 .13 97 110)">
   <path d="m198 102h-19v12c0 8.1-6.6 15-15 15l-27 3e-3c-6.5 0-12 5.3-12 12v13l2e-3 -3e-3v21c0 6 10 12 25 12s25-6.3 25-12v-19h-25v-2.9h47c6 0 12-10 12-25s-6.3-25-12-25z" fill="#fb9200"/>
   <circle cx="165" cy="170" r="3.6" fill="#fff"/>
  </g>
 </g>
</svg>
