<svg
   xmlns="http://www.w3.org/2000/svg"
   width="16"
   height="16"
   viewBox="0 0 15.446749 15.447008"
   version="1.1"
>
  <g
     inkscape:label="Layer 1"
     inkscape:groupmode="layer"
     id="layer1"
     transform="translate(-108.69329,-119.18721)">
    <g
       transform="matrix(0.12956943,0,0,0.12956943,96.871377,110.45293)"
       id="g154">
      <path
         d="m 150.848,67.41 c -15.19,0 -25.222,6.307 -25.222,12.325 v 19.196 h 25.222 v 2.866 h -47.284 c -6.02,0 -12.324,10.031 -12.324,25.222 0,15.191 6.305,25.222 12.324,25.222 h 19.193 v -11.996 c 0,-8.086 6.578,-14.665 14.665,-14.665 l 26.848,-0.002 c 6.505,0 11.798,-5.293 11.798,-11.799 V 93.041 h 0.002 V 79.735 C 176.069,73.717 166.038,67.41 150.848,67.41 Z"
         id="path150"
         inkscape:connector-curvature="0"
         style="fill:#004a94" />
      <circle
         cx="137.179"
         cy="84.408997"
         r="3.6300001"
         id="circle152"
         style="fill:#ffffff" />
    </g>
    <g
       transform="matrix(0.12956943,0,0,0.12956943,96.871377,110.45293)"
       id="g160">
      <path
         d="m 198.132,101.798 h -19.198 v 11.981 c 0,8.086 -6.578,14.664 -14.664,14.664 l -26.849,0.003 c -6.505,0 -11.797,5.293 -11.797,11.799 v 13.234 l 0.002,-0.003 v 20.827 c 0,6.019 10.031,12.325 25.222,12.325 15.191,0 25.222,-6.307 25.222,-12.325 v -19.196 h -25.222 v -2.866 h 47.284 c 6.02,0 12.324,-10.031 12.324,-25.222 0,-15.191 -6.305,-25.221 -12.324,-25.221 z"
         id="path156"
         inkscape:connector-curvature="0"
         style="fill:#fb9200" />
      <circle
         cx="164.517"
         cy="169.63"
         r="3.6300001"
         id="circle158"
         style="fill:#ffffff" />
    </g>
  </g>
</svg>
