<svg
   xmlns="http://www.w3.org/2000/svg"
   viewBox="0 0 24.750978 40.2"
   version="1.1"
   width="12"
   height="16">
  <path
     d="m 19.250979,12.2 c -1.3,-1 -1.8,3.9 -4.4,3.9 -3,0 -4,-13 -6.3000004,-13 -0.7,0 -0.8,-0.4 -7.89999995,21.3 -2.90000005,9 4.39999995,15.8 11.80000035,15.8 4.6,0 12.3,-3 12.3,-12.6 0,-7.1 -3.5,-13.9 -5.5,-15.4 z m -6.9,23.1 c -3.7000004,0 -6.7000004,-3.1 -6.7000004,-7 0,-3.9 3,-7 6.7000004,-7 3.7,0 6.7,3.1 6.7,7 0,3.8 -3,7 -6.7,7 z"
     id="path2"
     inkscape:connector-curvature="0"
     style="fill:#f05732" />
  <path
     d="m 16.350979,0 c -0.5,0 -1.8,2.5 -1.8,3.6 0,1.5 1,2 1.8,2 0.8,0 1.8,-0.5 1.8,-2 -0.1,-1.1 -1.4,-3.6 -1.8,-3.6 z"
     id="path4"
     inkscape:connector-curvature="0"
     style="fill:#9e529f" />
</svg>
