<svg width="16" height="22" preserveAspectRatio="xMidYMid" version="1.1" viewBox="0 0 256 327" xmlns="http://www.w3.org/2000/svg">
 <path d="m69 5e-3c-1.7 0.051-3.4 0.66-5.5 2.3-4.9-1.9-9.7-2.6-14 1.3-6.6-0.86-8.8 0.91-10 3-1.5-0.03-11-1.5-15 5-11-1.3-14 6.4-10 14-2.2 3.4-4.5 6.8 0.67 13-1.8 3.6-0.7 7.6 3.6 12-1.1 5.1 1.1 8.7 5.1 12-0.75 7 6.4 11 8.6 13 0.82 4.1 2.5 7.9 11 10 1.4 6.1 6.3 7.1 11 8.4-16 9.2-29 21-29 51l-2.3 4.1c-18 11-34 46-8.9 75 1.7 9 4.5 15 6.9 23 3.7 29 28 42 34 44 9.4 7.1 19 14 33 19 13 13 27 18 40 18 0.2 0 28-5 41-18 14-4.7 23-12 33-19 6.4-1.6 31-15 34-44 2.5-7.2 5.3-14 6.9-23 25-29 9.2-64-8.9-75l-2.3-4.1c0.092-30-13-42-29-51 4.8-1.3 9.7-2.3 11-8.4 8.2-2.1 9.9-6 11-10 2.1-1.5 9.3-5.5 8.6-13 4-2.8 6.3-6.4 5.1-12 4.3-4.8 5.5-8.7 3.6-12 5.2-6.5 2.9-9.9 0.67-13 3.9-7.2 0.46-15-10-14-4.3-6.4-14-5-15-5-1.6-2.1-3.8-3.8-10-3-4.3-3.9-9.1-3.2-14-1.3-5.9-4.6-9.8-0.92-14 0.48-7.1-2.3-8.7 0.86-12 2.2-7.8-1.6-10 1.9-14 5.7l-4.3-0.086c-12 6.9-18 21-20 28-2.1-7.2-7.9-21-20-28l-4.3 0.086c-3.7-3.8-6.1-7.3-14-5.7-3.5-1.3-5.1-4.5-12-2.2-2.9-0.92-5.6-2.8-8.7-2.7"/>
 <path d="m46 30c31 16 49 29 59 40-5.1 20-31 21-41 21 2-0.92 3.6-2 4.2-3.7-2.4-1.7-11-0.18-17-3.6 2.3-0.48 3.4-0.94 4.5-2.6-5.7-1.8-12-3.4-15-6.4 1.9 0.024 3.7 0.43 6.3-1.3-5.1-2.7-10-4.9-15-9.1 2.6-0.064 5.5-0.026 6.3-0.99-4.6-2.9-8.6-6.1-12-9.6 3.7 0.44 5.2 0.062 6.1-0.58-3.5-3.6-8-6.6-10-11 2.7 0.94 5.2 1.3 7-0.082-1.2-2.7-6.3-4.3-9.2-11 2.9 0.28 5.9 0.63 6.5 0-1.3-5.4-3.6-8.5-5.9-12 6.1-0.091 15 0.024 15-0.5l-3.8-3.9c6-1.6 12 0.26 17 1.7 2-1.6-0.036-3.6-2.5-5.6 5.1 0.68 9.7 1.9 14 3.5 2.2-2-1.4-4-3.2-6 7.9 1.5 11 3.6 15 5.7 2.4-2.3 0.14-4.3-1.5-6.3 5.9 2.2 9 5 12 7.8 1.1-1.5 2.8-2.6 0.74-6.1 4.2 2.4 7.4 5.3 9.7 8.5 2.6-1.7 1.6-3.9 1.6-6 4.4 3.6 7.2 7.4 11 11 0.69-0.5 1.3-2.2 1.8-4.9 10 10 25 36 3.8 46-18-15-40-26-64-34l7e-3 -4e-3" fill="#75A928"/>
 <path d="m211 30c-31 16-49 29-59 40 5.1 20 31 21 41 21-2-0.92-3.6-2-4.2-3.7 2.4-1.7 11-0.18 17-3.6-2.3-0.48-3.4-0.94-4.5-2.6 5.7-1.8 12-3.4 15-6.4-1.9 0.024-3.7 0.43-6.3-1.3 5.1-2.7 10-4.9 15-9.1-2.6-0.064-5.5-0.026-6.3-0.99 4.6-2.9 8.6-6.1 12-9.6-3.7 0.44-5.2 0.062-6.1-0.58 3.5-3.6 8-6.6 10-11-2.7 0.94-5.2 1.3-7-0.082 1.2-2.7 6.3-4.3 9.2-11-2.9 0.28-5.9 0.63-6.5 0 1.3-5.4 3.6-8.5 5.9-12-6.1-0.091-15 0.024-15-0.5l3.8-3.9c-6-1.6-12 0.26-17 1.7-2-1.6 0.035-3.6 2.5-5.6-5.1 0.68-9.7 1.9-14 3.5-2.2-2 1.4-4 3.2-6-7.9 1.5-11 3.6-15 5.7-2.4-2.3-0.14-4.3 1.5-6.3-5.9 2.2-9 5-12 7.8-1.1-1.5-2.8-2.6-0.74-6.1-4.2 2.4-7.4 5.3-9.7 8.5-2.6-1.7-1.6-3.9-1.6-6-4.4 3.6-7.2 7.4-11 11-0.69-0.5-1.3-2.2-1.8-4.9-10 10-25 36-3.8 46 18-15 40-26 64-34h-4e-3" fill="#75A928"/>
 <g fill="#BC1142">
  <path d="m166 237c0.11 19-16 34-37 34-21 0.1-37-15-37-34-1e-3 -0.12-1e-3 -0.24 0-0.36-0.11-19 16-34 37-34s37 15 37 34v0.36"/>
  <path d="m107 139c15 10 18 33 6.2 51-12 18-34 25-50 15-15-10-18-33-6.2-51 12-18 34-25 50-15"/>
  <path d="m149 137c-15 10-18 33-6.2 51 12 18 34 25 50 15 15-10 18-33 6.2-51-12-18-34-25-50-15"/>
  <path d="m30 156c17-4.5 5.6 69-7.9 63-15-12-20-47 7.9-63"/>
  <path d="m222 155c-17-4.5-5.6 69 7.9 63 15-12 20-47-7.9-63"/>
  <path d="m166 100c29-4.8 53 12 52 43-0.94 12-62-42-52-43"/>
  <path d="m87 99c-29-4.8-53 12-52 43 0.94 12 62-42 52-43"/>
  <path d="m128 92c-17-0.45-34 13-34 20-0.047 9.3 14 19 34 19 21 0.15 34-7.6 34-17 0.076-11-19-22-34-22v1e-3"/>
  <path d="m129 282c15-0.65 35 4.8 35 12 0.25 7-18 23-36 23-18 0.8-37-15-36-21-0.28-8.1 22-14 37-14"/>
  <path d="m74 239c11 13 15 35 6.6 42-8.4 5.1-29 3-43-18-9.8-17-8.5-35-1.7-40 10-6.2 26 2.2 38 16h-1e-3"/>
  <path d="m182 235c-12 13-18 38-9.5 46 8 6.2 30 5.3 45-17 12-15 7.7-40 1.1-46-9.8-7.6-24 2.1-37 17v4e-3"/>
 </g>
</svg>
