<svg
   xmlns="http://www.w3.org/2000/svg"
   width="16"
   height="22"
   viewBox="0 0 256 327"
   version="1.1"
   preserveAspectRatio="xMidYMid"
   >
  <g
     id="g30">
    <path
       d="m 69.298131,0.005 c -1.653,0.051 -3.433,0.662 -5.453,2.255 -4.946,-1.907 -9.743,-2.57 -14.032,1.313 -6.623,-0.859 -8.775,0.914 -10.406,2.984 -1.454,-0.03 -10.879,-1.495 -15.202,4.953 -10.862,-1.285 -14.2950001,6.389 -10.405,13.546 -2.219,3.434 -4.5180001,6.827 0.67,13.375 -1.835,3.646 -0.697,7.602 3.626,12.389 -1.141,5.127 1.102,8.743 5.125,11.562 -0.753,7.015 6.433,11.094 8.578,12.547 0.824,4.087 2.541,7.945 10.748,10.077 1.354,6.092 6.286,7.144 11.063,8.422 -15.787,9.177 -29.325,21.25 -29.233,50.875 l -2.313,4.125 c -18.1020001,11.008 -34.388,46.39 -8.92,75.148 1.663,9.002 4.453,15.468 6.937,22.624 3.715,28.836 27.962,42.339 34.358,43.936 9.371,7.138 19.352,13.911 32.859,18.656 12.731999,13.131 26.525999,18.136 40.394999,18.128 0.204,0 28.277,-4.996 41.01,-18.128 13.506,-4.745 23.487,-11.518 32.859,-18.656 6.395,-1.597 30.642,-15.1 34.357,-43.936 2.484,-7.156 5.274,-13.622 6.938,-22.624 25.466,-28.761 9.181,-64.144 -8.921,-75.152 l -2.316,-4.125 c 0.092,-29.622 -13.446,-41.696 -29.233,-50.875 4.776,-1.278 9.709,-2.33 11.062,-8.422 8.207,-2.133 9.925,-5.99 10.748,-10.077 2.146,-1.453 9.331,-5.532 8.579,-12.547 4.022,-2.819 6.265,-6.436 5.124,-11.562 4.324,-4.787 5.461,-8.743 3.626,-12.39 5.189,-6.544 2.887,-9.937 0.671,-13.371 3.888,-7.157 0.457,-14.832 -10.409,-13.546 -4.321,-6.448 -13.744,-4.984 -15.202,-4.954 -1.63,-2.069 -3.782,-3.842 -10.405,-2.983 -4.289,-3.883 -9.085,-3.221 -14.032,-1.313 -5.874,-4.635 -9.761,-0.92 -14.201,0.485 -7.111,-2.324 -8.738,0.859 -12.232,2.156 -7.756,-1.639 -10.113,1.929 -13.831,5.695 l -4.325,-0.086 c -11.698,6.894 -17.51,20.932 -19.57,28.149 -2.061,-7.218 -7.859,-21.256 -19.555,-28.149 l -4.325,0.086 C 100.38713,6.829 98.031131,3.261 90.275131,4.9 c -3.495,-1.297 -5.116,-4.48 -12.233,-2.156 -2.914,-0.922 -5.594,-2.838 -8.749,-2.74"
       id="path2"
       inkscape:connector-curvature="0"
       style="fill:#000000"
       sodipodi:nodetypes="cccccccccccccccccccccccccccccccccccccccccccccc" />
    <path
       d="M46.008,30.334 C77.044,46.335 95.087,59.279 104.972,70.303 C99.91,90.592 73.502,91.518 63.846,90.949 C65.823,90.029 67.473,88.926 68.058,87.233 C65.635,85.511 57.044,87.051 51.046,83.682 C53.35,83.204 54.428,82.739 55.505,81.039 C49.839,79.232 43.735,77.674 40.145,74.68 C42.082,74.704 43.891,75.114 46.421,73.359 C41.346,70.624 35.93,68.456 31.722,64.275 C34.346,64.211 37.175,64.249 37.998,63.284 C33.353,60.406 29.433,57.206 26.189,53.705 C29.861,54.148 31.412,53.767 32.3,53.127 C28.788,49.53 24.344,46.493 22.225,42.061 C24.951,43.001 27.446,43.361 29.244,41.979 C28.051,39.287 22.939,37.699 19.995,31.408 C22.866,31.687 25.91,32.034 26.519,31.408 C25.187,25.98 22.901,22.928 20.659,19.766 C26.802,19.675 36.11,19.79 35.689,19.271 L31.89,15.39 C37.891,13.774 44.031,15.649 48.489,17.041 C50.49,15.462 48.453,13.465 46.011,11.426 C51.111,12.107 55.719,13.279 59.885,14.894 C62.11,12.885 58.44,10.875 56.664,8.866 C64.543,10.36 67.881,12.461 71.198,14.564 C73.605,12.257 71.336,10.296 69.712,8.288 C75.653,10.488 78.713,13.329 81.934,16.133 C83.026,14.659 84.709,13.578 82.677,10.022 C86.895,12.453 90.072,15.318 92.422,18.528 C95.032,16.866 93.977,14.594 93.991,12.499 C98.375,16.065 101.157,19.86 104.562,23.565 C105.248,23.065 105.848,21.372 106.379,18.693 C116.836,28.838 131.613,54.393 110.177,64.525 C91.934,49.479 70.146,38.542 46.001,30.338 L46.008,30.334"
       fill="#75A928"
       id="path4" />
    <path
       d="M210.686,30.334 C179.654,46.337 161.611,59.277 151.727,70.303 C156.789,90.592 183.196,91.518 192.852,90.949 C190.875,90.029 189.225,88.926 188.641,87.233 C191.064,85.511 199.655,87.051 205.652,83.682 C203.348,83.204 202.271,82.739 201.193,81.039 C206.86,79.232 212.964,77.674 216.553,74.68 C214.616,74.704 212.807,75.114 210.277,73.359 C215.353,70.624 220.769,68.456 224.977,64.275 C222.352,64.211 219.523,64.249 218.701,63.284 C223.346,60.406 227.266,57.206 230.51,53.705 C226.837,54.148 225.287,53.767 224.399,53.127 C227.91,49.53 232.355,46.493 234.474,42.061 C231.747,43.001 229.252,43.361 227.454,41.979 C228.647,39.287 233.76,37.699 236.703,31.408 C233.833,31.687 230.788,32.034 230.179,31.408 C231.514,25.978 233.8,22.926 236.042,19.764 C229.899,19.673 220.591,19.788 221.012,19.269 L224.811,15.387 C218.81,13.772 212.67,15.647 208.212,17.039 C206.211,15.46 208.247,13.463 210.689,11.424 C205.59,12.104 200.981,13.277 196.816,14.892 C194.59,12.883 198.261,10.873 200.037,8.864 C192.158,10.358 188.82,12.459 185.502,14.562 C183.095,12.255 185.365,10.294 186.989,8.286 C181.048,10.486 177.988,13.327 174.767,16.131 C173.674,14.657 171.992,13.576 174.023,10.02 C169.806,12.451 166.629,15.316 164.279,18.526 C161.669,16.864 162.724,14.591 162.71,12.497 C158.326,16.063 155.544,19.857 152.139,23.563 C151.453,23.063 150.853,21.37 150.322,18.69 C139.865,28.836 125.088,54.391 146.524,64.523 C164.757,49.473 186.544,38.538 210.69,30.334 L210.686,30.334"
       fill="#75A928"
       id="path6" />
    <path
       d="M165.933,236.933 C166.041,255.866 149.484,271.295 128.953,271.394 C108.421,271.494 91.689,256.227 91.581,237.294 C91.58,237.174 91.58,237.054 91.581,236.933 C91.473,218.001 108.029,202.572 128.561,202.472 C149.093,202.372 165.824,217.639 165.933,236.572 L165.933,236.933"
       fill="#BC1142"
       id="path8" />
    <path
       d="M107.246,139.004 C122.65,149.097 125.427,171.973 113.448,190.099 C101.469,208.226 79.271,214.74 63.867,204.648 C48.463,194.555 45.687,171.679 57.665,153.553 C69.644,135.426 91.842,128.912 107.246,139.004"
       fill="#BC1142"
       id="path10" />
    <path
       d="M148.822,137.177 C133.419,147.269 130.642,170.146 142.62,188.272 C154.599,206.399 176.797,212.913 192.201,202.82 C207.605,192.728 210.382,169.852 198.403,151.725 C186.425,133.599 164.227,127.085 148.822,137.177"
       fill="#BC1142"
       id="path12" />
    <path
       d="M30.258,155.504 C46.889,151.046 35.873,224.307 22.341,218.296 C7.456,206.324 2.662,171.263 30.258,155.504"
       fill="#BC1142"
       id="path14" />
    <path
       d="M222.453,154.591 C205.82,150.134 216.838,223.398 230.37,217.387 C245.255,205.414 250.049,170.349 222.453,154.591"
       fill="#BC1142"
       id="path16" />
    <path
       d="M165.946,100.034 C194.647,95.188 218.529,112.24 217.565,143.362 C216.621,155.294 155.372,101.811 165.946,100.034"
       fill="#BC1142"
       id="path18" />
    <path
       d="M86.646,99.121 C57.943,94.274 34.063,111.33 35.027,142.45 C35.971,154.381 97.221,100.898 86.646,99.121"
       fill="#BC1142"
       id="path20" />
    <path
       d="M127.874,91.863 C110.744,91.417 94.304,104.576 94.264,112.209 C94.217,121.483 107.808,130.979 127.991,131.22 C148.601,131.367 161.753,123.619 161.819,114.048 C161.895,103.204 143.074,91.695 127.874,91.862 L127.874,91.863"
       fill="#BC1142"
       id="path22" />
    <path
       d="M128.92,282.043 C143.855,281.391 163.895,286.853 163.935,294.1 C164.183,301.136 145.76,317.034 127.93,316.727 C109.464,317.524 91.357,301.601 91.594,296.082 C91.317,287.99 114.078,281.672 128.92,282.043"
       fill="#BC1142"
       id="path24" />
    <path
       d="M73.756,239.098 C84.389,251.908 89.237,274.414 80.363,281.049 C71.968,286.114 51.581,284.028 37.091,263.211 C27.318,245.743 28.577,227.968 35.439,222.746 C45.7,216.496 61.554,224.939 73.757,239.098 L73.756,239.098"
       fill="#BC1142"
       id="path26" />
    <path
       d="M181.956,235.037 C170.451,248.512 164.045,273.09 172.437,281.006 C180.462,287.156 202.004,286.296 217.916,264.217 C229.47,249.388 225.599,224.623 218.999,218.047 C209.195,210.464 195.12,220.169 181.956,235.033 L181.956,235.037"
       fill="#BC1142"
       id="path28" />
  </g>
</svg>
