<svg width="16" height="16" version="1.1" viewBox="0 0 16 17" xmlns="http://www.w3.org/2000/svg">
 <g transform="translate(-19 -125)">
  <path d="m30 141c-0.1-0.045-0.23-0.15-0.3-0.23-0.062-0.082-0.3-0.56-0.53-1.1-0.53-1.2-0.84-1.7-1.1-2-0.38-0.43-1.9-1.4-2.8-1.7l-0.25-0.1-0.41 0.4c-0.64 0.62-1.3 1-2.2 1.2-0.3 0.074-0.51 0.094-1 0.094-0.8 8e-4 -1.2-0.09-1.9-0.41-0.49-0.23-0.74-0.45-0.82-0.75-0.1-0.38 0.096-0.83 0.47-1 0.32-0.19 0.64-0.17 1.1 0.043 0.8 0.41 1.6 0.37 2.4-0.11 0.33-0.19 0.96-0.82 1.2-1.2 0.1-0.16 0.4-0.7 0.65-1.2 0.26-0.51 0.67-1.3 0.92-1.8s0.47-0.87 0.48-0.91c0.034-0.089-0.15-0.15-0.6-0.19-0.83-0.084-1.6 0.28-2.3 1.1-0.35 0.41-0.56 0.55-0.86 0.55-0.52 3e-3 -1-0.4-1-0.84 0-0.21 0.11-0.43 0.38-0.76 0.71-0.88 1.5-1.5 2.5-1.7 0.35-0.11 0.46-0.12 1.1-0.12 0.64-2e-3 0.75 9e-3 1.1 0.12 0.58 0.16 0.95 0.32 1.7 0.76 1.1 0.63 1.5 0.77 2.2 0.77 0.7 0 1.4-0.34 1.9-0.91 0.61-0.72 0.79-0.82 1.2-0.73 0.56 0.11 0.9 0.57 0.76 1-0.12 0.39-0.94 1.3-1.6 1.7-0.75 0.5-1.3 0.69-2.2 0.72-0.55 0.021-0.99-0.023-1.4-0.15-0.081-0.022-0.15 0.072-0.54 0.76-0.47 0.84-1.3 2.4-1.3 2.4 0 0.014 0.14 0.11 0.32 0.21 0.74 0.43 1.9 1.3 2.2 1.6 0.33 0.38 0.66 1 1.4 2.6 0.33 0.7 0.4 0.91 0.4 1.1 0 0.28-0.087 0.47-0.3 0.65-0.3 0.26-0.67 0.32-1 0.17zm-1.1-12c-1.3-0.36-1.8-2.1-0.78-3 1-1 2.8-0.43 3 1 0.22 1.2-1 2.3-2.2 2z" stroke-width=".044"/>
 </g>
</svg>
