<svg width="16" height="16" version="1.1" viewBox="0 0 16 17" xmlns="http://www.w3.org/2000/svg">
 <g transform="matrix(.089 0 0 .09 -.95 .27)" stroke-width="12">
  <path d="m124 124c-0.49-0.49-0.26-14-0.26-29v-27h69v56h-34c-19 0-35 0.45-35-0.042z" fill="#f8cf19"/>
  <path d="m125 178c-0.49-0.49-0.89-13-0.89-27v-26h69v55h-34c-19 0-34-0.4-35-0.89zm-93-9.3c-8.2-1.6-18-4.9-20-6.8-1.9-1.7-2.3-4.5-2.3-16 0-7.9 0.58-15 1.3-15 0.71-0.44 3.6 0.76 6.5 2.6 17 11 45 13 54 3.7 5.2-5.2 4.7-12-1.1-18-2.5-2.5-7.1-5.7-10-7.2-30-14-33-16-39-22-9-9-12-17-11-31 1.2-21 14-34 39-39 16-3.2 38-2.4 51 2l4.3 1.4v15c0 14-0.19 15-2.3 14-13-5.4-22-7.6-31-7.7-17-0.17-25 4.8-25 14 0 7.2 4.3 11 26 21 31 15 39 24 39 46-9e-3 11-1.6 17-6.4 24-4.7 7.1-13 13-23 16-6.3 2.3-12 2.9-27 3.2-11 0.22-21 0.11-23-0.24z" fill="#1b9fc7"/>
  <path d="m124 68-0.044-54c0.93-0.33 19-0.6 37-0.8l32-0.36-1e-3 28c-7.4e-4 15 0.55 28-0.0016 28z" fill="#0170c4"/>
 </g>
</svg>
