<svg width="16" height="16" version="1.1" viewBox="0 0 16 17" xmlns="http://www.w3.org/2000/svg">
 <g transform="translate(-19 -125)">
  <path d="m18 126v16h16v-16h-16m7.1 4.5c-0.052 0.35-0.16 1.1-0.47 1.4-0.5 0.35-2 0.074-2.6 0.074l0.074-1.3 0.79-0.12h2.2m5 1.4h-4c0.05-0.34 0.18-1.2 0.47-1.4 0.41-0.29 1.6-0.074 2-0.074 0.3 0 1.2-0.15 1.4 0.12 0.21 0.27 0.074 1 0.074 1.3m-5.8 1.3-0.36 1.4h-1.9v-1.4h2.2m5.8 0v1.4h-4.8l0.47-1.3 1.2-0.074h3.2m-6.6 2.7c-0.29 1-0.34 1.4-1.4 1.4v-1.4h1.4m6.6 0v1.4h-5.7l0.43-1.4z" fill="#fd574f"/>
 </g>
</svg>
