<svg width="16" height="16" version="1.1" viewBox="0 0 16 17" xmlns="http://www.w3.org/2000/svg">
 <g transform="translate(-19 -125)">
  <path d="m28 138c-0.098-0.058-0.11-0.26-0.11-2.9 0-2.4 0.012-2.8 0.091-2.8 0.05-0.02 0.27 0.04 0.49 0.13l0.4 0.17 0.14-0.12c0.38-0.35 0.99-0.44 1.6-0.24 0.44 0.15 0.72 0.41 0.95 0.87 0.17 0.35 0.2 0.47 0.22 1 0.034 0.85-0.12 1.3-0.56 1.8-0.24 0.24-0.4 0.35-0.64 0.42-0.43 0.13-0.88 0.12-1.2-0.024-0.42-0.19-0.44-0.16-0.44 0.76 0 0.96-0.022 1-0.5 1-0.17-1e-3 -0.36-0.03-0.42-0.064zm2.3-2.6c0.29-0.24 0.42-0.58 0.42-1.1 0-0.88-0.52-1.4-1.2-1.2-0.63 0.21-0.89 1.2-0.51 2 0.24 0.48 0.88 0.63 1.3 0.3zm-11 0.95c-0.21-0.081-0.41-0.23-0.63-0.45-0.4-0.42-0.39-0.54 0.047-0.78l0.32-0.17 0.29 0.31c0.27 0.29 0.3 0.31 0.59 0.31 0.35 0 0.51-0.12 0.51-0.38 0-0.21-0.21-0.37-0.69-0.53-0.82-0.27-1.1-0.63-1.2-1.3-0.0045-1.1 1.5-1.6 2.4-0.8 0.11 0.11 0.2 0.22 0.2 0.26 0 0.096-0.46 0.51-0.57 0.51-0.046 0-0.12-0.039-0.16-0.087-0.1-0.13-0.47-0.23-0.64-0.19a0.37 0.37 0 0 0-0.22 0.18c-0.11 0.25 0.055 0.42 0.61 0.6 0.91 0.3 1.2 0.62 1.2 1.2-0.0045 1-1.1 1.6-2.1 1.2zm13 8e-3c-0.53-0.21-1-0.74-0.94-0.99 0.02-0.053 0.18-0.17 0.35-0.25l0.31-0.16 0.29 0.31c0.27 0.28 0.31 0.31 0.57 0.31 0.32 0 0.53-0.15 0.53-0.39 0-0.2-0.14-0.31-0.69-0.52-0.59-0.23-0.91-0.44-1-0.67a1.2 1.2 0 0 1 0.55-1.6c0.56-0.27 1.3-0.14 1.7 0.3 0.2 0.21 0.17 0.32-0.17 0.57-0.24 0.18-0.3 0.19-0.4 0.073-0.1-0.13-0.47-0.23-0.64-0.19a0.37 0.37 0 0 0-0.22 0.18c-0.12 0.26 0.05 0.41 0.68 0.64 0.84 0.3 1.2 0.63 1.2 1.2-0.0045 0.98-1.1 1.6-2.1 1.2zm-11 0.017c-0.022-0.022-0.041-0.92-0.041-2 0-2.3-0.037-2.1 0.6-1.9l0.37 0.16 0.18-0.13c0.59-0.43 1.5-0.46 2-0.05 0.41 0.36 0.44 0.49 0.44 2.2 0.0015 1.3-0.015 1.6-0.084 1.6-0.052 0.043-0.25 0.064-0.5 0.052l-0.41-0.018-0.03-1.5c-0.033-1.6-0.056-1.7-0.35-1.8-0.22-0.084-0.63-0.015-0.79 0.13-0.31 0.29-0.34 0.43-0.36 1.8-0.013 0.73-0.047 1.3-0.084 1.3-0.067 0.08-0.84 0.11-0.92 0.036zm4.2-0.034c-0.017-0.044-0.023-0.97-0.015-2.1l0.016-2h0.97v4.1l-0.47 0.018c-0.34 0.013-0.48-2e-3 -0.5-0.061zm0.064-4.7c-0.61-0.53 0.11-1.5 0.78-1.1 0.56 0.36 0.3 1.2-0.37 1.2-0.18 0-0.31-0.04-0.42-0.14z" fill="#1922f9" stroke-width=".74"/>
 </g>
</svg>
