<svg
   xmlns="http://www.w3.org/2000/svg"
   id="svg8949"
   version="1.1"
   viewBox="0 0 21.394899 10.710446"
   height="16"
   width="21">
  <g
     transform="translate(-194.9216,-222.09716)"
     id="layer1">
    <path
       id="path406"
       d="m 214.10051,232.18719 c 0.27614,-0.46262 0.58312,-0.76135 0.85736,-0.11581 0.2281,0.20309 0.3546,0.61414 0.64233,0.69381 0.17129,-0.0568 0.82875,0.12574 0.62719,-0.11055 -0.40272,-0.50967 -0.80838,-1.01702 -1.20888,-1.52844 0.37835,-0.56701 0.8355,-1.0794 1.25399,-1.61799 -0.483,-0.0458 -0.98101,-0.0448 -1.1836,0.5012 -0.19985,0.12415 -0.39914,0.81808 -0.59811,0.4711 -0.25215,-0.32798 -0.5047,-0.65565 -0.75728,-0.9833 -0.37067,0.004 -1.10883,-0.10531 -0.49188,0.39842 0.41322,0.61853 1.27747,1.08018 0.41897,1.86039 -0.27069,0.33145 -1.0043,1.22239 -0.79908,0.98318 0.31695,-0.0112 0.78867,0.18004 0.95491,-0.19874 0.0947,-0.11776 0.18939,-0.23551 0.28408,-0.35327 z m -4.45198,-0.696 0.006,-1.27499 c 0.67488,0.35125 1.34954,0.70292 2.02399,1.05499 l 0.012,1.496 c 0.23674,-0.058 0.76008,0.17057 0.645,-0.23926 v -3.03073 c -0.23674,0.058 -0.76008,-0.17057 -0.645,0.23926 -0.003,0.43062 0.11298,1.12131 -0.47617,0.59214 -0.54986,-0.26196 -1.07932,-0.60236 -1.63667,-0.8314 -0.25795,0.0308 -0.71928,-0.14178 -0.57914,0.28711 v 2.98288 c 0.23697,-0.058 0.75941,0.17057 0.64593,-0.23926 10e-4,-0.34558 0.003,-0.69116 0.004,-1.03674 z m -1.49999,-0.354 -0.006,-1.62999 c -0.24066,0.055 -0.76712,-0.18269 -0.657,0.22826 v 3.03173 c 0.24295,-0.0593 0.77701,0.17165 0.66727,-0.23926 -10e-4,-0.46358 -0.003,-0.92716 -0.004,-1.39074 z m -4.19998,0.706 v -0.923 h 2.02499 v 1.847 c 0.24286,-0.0592 0.77575,0.17158 0.66699,-0.23926 v -3.03173 c -0.24118,0.0624 -0.764,-0.15556 -0.65934,0.25124 -0.0392,0.2658 0.13643,0.74949 -0.29576,0.61676 h -1.73589 v -0.868 c -0.24058,0.0624 -0.76576,-0.15558 -0.65687,0.25126 -0.004,1.00658 -0.007,2.01315 -0.0111,3.01973 0.24307,-0.0593 0.77666,0.17165 0.66773,-0.23926 -2.4e-4,-0.22825 -4.9e-4,-0.45649 -7.3e-4,-0.68474 z m -3.90899,-1.13799 c 0.0386,-0.26596 -0.14062,-0.75197 0.29311,-0.619 0.52824,0.0423 1.34596,-0.19455 1.52615,0.47975 0.13945,0.61473 -0.50853,0.83317 -0.98261,0.74885 -0.28089,0.002 -0.56177,0.006 -0.84265,0.008 l 0.006,-0.61799 z m -0.005,1.62999 c -0.0866,-0.37305 0.0555,-0.52032 0.43063,-0.43782 0.70891,0.001 1.63763,0.0802 1.99615,-0.68367 0.32168,-0.67242 -0.0781,-1.59623 -0.86981,-1.6583 -0.72987,-0.0952 -1.46874,-0.0465 -2.20297,-0.0582 v 3.26999 c 0.23703,-0.0581 0.76078,0.1706 0.646,-0.23926 z m -2.79998,0.454 c 0.75222,-0.003 1.67234,-0.63994 1.3622,-1.47954 -0.37481,-0.81604 -1.43804,-0.5628 -2.1495,-0.50796 -0.81996,0.24976 -0.85362,-0.8561 -0.0316,-0.73653 0.64413,-0.1821 1.87366,0.68665 1.84327,-0.29679 -0.92637,-0.31549 -2.16495,-0.55549 -2.96152,0.17045 -0.77214,0.9595 0.5736,1.81264 1.46612,1.44937 0.50362,-0.27247 1.73351,0.16542 0.91399,0.709 -0.81204,0.36845 -1.79854,-0.11472 -2.48449,-0.1875 -0.68332,0.56811 0.39515,0.696 0.82014,0.819 0.4013,0.0885 0.81324,0.0948 1.22136,0.0605 z m 4.92097,-9.02596 c 1.6099,-0.21798 3.20327,-1.28123 4.85786,-0.75363 0.94308,0.18605 1.82308,0.68183 2.7916,0.70526 0.47771,-0.0135 1.10154,-0.14547 0.53371,-0.73824 -0.52895,-0.16118 -1.3689,-0.0185 -1.98588,-0.36184 -1.06693,-0.33618 -2.21035,-0.69999 -3.3283,-0.38455 -1.14274,0.24698 -2.23546,0.72025 -3.40298,0.857 0.0598,0.21616 -0.13832,0.71602 0.0831,0.75443 0.1515,-0.0183 0.30143,-0.048 0.45087,-0.0784 z m 3.43599,1.33399 c -0.79262,-0.12302 -1.96028,-0.36709 -2.46899,-0.677 0.71253,-0.20435 1.41232,-0.46228 2.14499,-0.58599 -0.17559,0.56678 0.35108,1.24116 0.95384,1.05107 0.75468,-0.072 0.25128,-1.4021 1.0379,-0.86071 0.42582,0.1817 1.83478,0.43749 0.72883,0.71538 -0.75044,0.34667 -1.58215,0.43426 -2.39657,0.35725 z m 2.00599,3.66698 c 0.70107,-0.4735 0.74918,-1.34891 1.11699,-2.00699 0.67628,-0.1952 0.25771,-0.26796 -0.031,-0.67 -0.0788,-0.82481 0.97003,-1.16041 1.57555,-1.42638 0.5014,-0.098 -0.0875,-1.03987 -0.53956,-0.69635 -1.38947,-0.0765 -2.66859,-0.96944 -4.09607,-0.79836 -1.3681,0.16106 -2.63203,0.79259 -4.00188,0.9441 -0.21789,0.7796 0.44147,0.93082 1.10779,1.02739 1.3312,0.41561 2.70833,0.88214 4.12319,0.7036 -0.89591,0.94593 -1.94167,1.95077 -3.284,2.14285 -0.74088,0.14559 -2.05006,-0.21346 -1.62313,-1.20678 0.47015,-0.7801 0.41892,0.8991 1.05841,0.15346 0.40829,-0.4296 -0.0226,-1.19904 -0.61065,-1.07238 -1.08543,-0.01 -1.40565,1.4406 -0.78079,2.15806 0.89281,0.85609 2.35646,0.69319 3.36298,0.12065 1.15321,-0.6118 2.07424,-1.56489 2.91818,-2.54287 -0.0507,0.70386 0.0979,1.53568 -0.411,2.10499 0.0495,0.31716 -0.12127,1.08021 0.115,1.065 z"
       style="fill:#07486f;fill-opacity:1;stroke-width:0.99999553" />
  </g>
</svg>
