<svg
   xmlns="http://www.w3.org/2000/svg"
   viewBox="0 0 168.93161 169.09088"
   height="16"
   width="16"
   version="1.1">
  <path
     id="path817"
     d="M 69.49306,168.56289 C 57.16108,166.36774 40.57666,158.52168 30.38151,150.05928 17.58783,139.44001 8.6652402,125.97645 2.8346802,108.49306 0.20928,100.62062 0,98.848679 0,84.493059 0,70.137437 0.20928,68.365497 2.8346802,60.493059 12.47035,31.599749 31.64518,12.422443 60.49306,2.827223 68.35733,0.211451 70.15232,0 84.49306,0 c 14.355624,0 16.12756,0.209287 24,2.834679 28.68176,9.565125 46.61565,27.214707 57.57109,56.65838 2.63621,7.085045 2.79438,8.440566 2.85886,24.5 0.0617,15.36925 -0.15958,17.671491 -2.30695,24.000001 -9.77185,28.79877 -28.28814,47.59372 -57.123,57.98267 -6.51922,2.34882 -9.3308,2.74704 -21.5,3.04518 -7.7,0.18865 -16.025,-0.0175 -18.5,-0.45802 z m -11,-39.06983 c 0,-4.99261 -0.005,-5 -3.30887,-5 -6.1663,0 -6.80307,-1.25384 -7.6472,-15.05796 -0.8252,-13.494411 -2.27508,-18.398221 -6.63412,-22.438041 l -2.69161,-2.4945 2.52483,-1.98603 c 4.14016,-3.25665 5.94157,-9.330399 6.78305,-22.870183 0.42204,-6.790692 1.20933,-12.788704 1.74954,-13.328916 0.54022,-0.540211 2.83669,-1.230941 5.10329,-1.534956 l 4.12109,-0.552753 V 39.22448 34.219238 l -6.37071,0.511379 c -11.61932,0.932687 -15.62929,6.677595 -15.62929,22.39136 0,15.490862 -2.53756,21.371082 -9.22251,21.371082 -2.72805,0 -2.77749,0.106814 -2.77749,6 0,5.67922 0.12928,6 2.41821,6 6.89702,0 8.67316,3.70003 9.59936,19.997191 0.79742,14.0313 1.9262,18.05226 5.80725,20.68683 3.64703,2.4757 5.86322,3.09958 11.42518,3.2163 l 4.75,0.0997 z m 67.39093,2.47951 c 4.74526,-3.10922 5.93097,-6.8467 6.69127,-21.09162 0.8657,-16.219651 2.69492,-20.281231 9.1678,-20.356091 2.69091,-0.0311 2.75,-0.16072 2.75,-6.0318 0,-5.679219 -0.12929,-6 -2.41821,-6 -6.87198,0 -8.72392,-3.774463 -9.30996,-18.974763 -0.73467,-19.055722 -3.77742,-23.814504 -15.84631,-24.783279 l -6.42552,-0.515779 v 5.005242 5.005241 l 4.12108,0.552753 c 2.2666,0.304015 4.58976,1.021422 5.16257,1.594238 0.57282,0.572816 1.35069,6.570828 1.72861,13.328916 0.74688,13.35598 2.1798,18.207382 6.58305,22.288181 l 2.69674,2.49925 -2.69674,2.49925 c -4.41303,4.08986 -5.8359,8.92695 -6.58903,22.399671 -0.77064,13.78583 -1.44106,15.10108 -7.69741,15.10108 h -3.30887 v 5.13691 5.13691 l 6.33981,-0.5089 c 3.60492,-0.28937 7.50943,-1.27526 9.05112,-2.28541 z M 65.74306,88.295379 c 2.17192,-2.51184 2.21653,-4.69124 0.15623,-7.632728 -1.29893,-1.854482 -2.36127,-2.219386 -5.74253,-1.972508 -3.35451,0.244924 -4.39148,0.811724 -5.41657,2.960626 -3.45166,7.23577 5.70851,12.76757 11.00287,6.64461 z m 23.66667,0.63798 c 1.76915,-1.67973 1.84293,-6.82011 0.12755,-8.887016 -1.63015,-1.964213 -8.38916,-2.047512 -9.98631,-0.123072 -0.65283,0.78662 -1.04543,3.138768 -0.87244,5.227008 0.48143,5.81156 6.39793,7.89731 10.7312,3.78308 z m 24.33333,-0.63798 c 2.17192,-2.51184 2.21653,-4.69124 0.15623,-7.632728 -1.29893,-1.854482 -2.36127,-2.219386 -5.74253,-1.972508 -3.3545,0.244924 -4.39148,0.811724 -5.41657,2.960626 -3.451656,7.23577 5.70851,12.76757 11.00287,6.64461 z"
     style="fill:#6c9900" />
</svg>
