<svg
   xmlns="http://www.w3.org/2000/svg"
   version="1.1"
   viewBox="0 0 6.6131053 6.7141614"
   height="16"
   width="16">
  <g
     transform="translate(-42.72218,-163.70951)"
     id="layer1">
    <path
       id="path402"
       d="m 47.278294,165.15852 c 0.259999,-0.06 0.466998,-0.128 0.459998,-0.152 -0.013,-0.043 -1.909991,-0.635 -2.034991,-0.635 -0.076,0 0.713997,0.86 0.831997,0.906 0.0566,0.0178 0.116741,0.0213 0.174999,0.01 l 0.567997,-0.13 z m -1.891991,1.17699 c 0.506998,-0.467 0.921996,-0.87599 0.921996,-0.90999 0,-0.09 -0.953996,-1.1 -1.037996,-1.1 -0.072,0 -1.832992,1.59899 -1.907991,1.72999 -0.045,0.08 0.045,0.197 0.591997,0.766 0.207999,0.216 0.406998,0.387 0.443998,0.379 0.036,-0.008 0.479998,-0.397 0.987996,-0.865 z m 1.582993,1.64199 c 0,-0.045 -0.113,-0.57199 -0.249999,-1.16999 -0.195999,-0.851 -0.265999,-1.088 -0.324999,-1.088 -0.110999,0 -1.802992,1.588 -1.748992,1.642 0.056,0.056 2.073991,0.68699 2.21999,0.69399 0.071,0.003 0.105,-0.022 0.104,-0.078 z m 1.029995,-0.013 c 0.375998,-0.083 0.672997,-0.174 0.703997,-0.215 0.036,-0.047 0.04,-0.13 0.014,-0.246 -0.303998,-1.346 -0.528997,-2.26399 -0.561997,-2.29699 -0.054,-0.054 -1.375994,0.237 -1.461994,0.322 -0.054,0.054 -0.022,0.25 0.209999,1.26199 0.262999,1.154 0.312999,1.317 0.404998,1.317 0.023,0 0.333999,-0.064 0.690997,-0.143 z m -3.790983,-0.531 c -0.031,-0.11 -0.814996,-0.966 -0.850996,-0.93 -0.021,0.021 0.419998,1.98499 0.476998,2.12499 0.043,0.106 0.409998,-1.06699 0.373998,-1.19499 z m 3.487985,1.40299 c 0.436998,-0.406 0.782996,-0.74899 0.769996,-0.76199 -0.046,-0.046 -1.140995,0.23199 -1.218995,0.30999 -0.066,0.066 -0.164999,0.346 -0.373998,1.06 -0.02,0.07 -0.023,0.13 -0.005,0.13 0.019,0 0.389998,-0.333 0.827996,-0.738 z m -1.129996,0.93 c 0.053,-0.086 0.404999,-1.27 0.404999,-1.363 0,-0.119 -0.002,-0.12 -1.365994,-0.53499 -0.914996,-0.278 -1.115995,-0.325 -1.163995,-0.273 -0.033,0.035 -0.148999,0.358 -0.257999,0.71999 -0.143999,0.476 -0.183999,0.67 -0.146999,0.709 0.053,0.054 2.27999,0.772 2.422989,0.78 0.044,0.004 0.092,-0.014 0.106999,-0.038 z m -1.060995,0.331 -1.469993,-0.448 c -0.255999,-0.078 -0.446998,-0.167 -0.516998,-0.241 -0.09,-0.096 -0.175999,-0.403 -0.456998,-1.61999 -0.346998,-1.505 -0.384998,-1.743 -0.301999,-1.898 0.036,-0.068 1.009996,-0.98799 2.092991,-1.97699 0.180999,-0.166 0.256999,-0.204 0.403998,-0.204 0.16,0 0.816997,0.189 2.742988,0.785 0.397999,0.123 0.549998,0.193 0.605998,0.277 0.074,0.113 0.729996,2.87699 0.729996,3.07799 0,0.06 -0.013,0.14199 -0.028,0.18299 -0.016,0.041 -0.567997,0.575 -1.226994,1.186 -1.047996,0.973 -1.342994,1.21299 -1.478994,1.20499 -0.36667,-0.10411 -0.73203,-0.21278 -1.095995,-0.32599 z"
       style="fill:#1a1a1a;stroke-width:0.99999553" />
  </g>
</svg>
