<svg
   xmlns="http://www.w3.org/2000/svg"
   width="16"
   height="16"
   viewBox="0 0 16.295927 17.472923"
   version="1.1"
>
  <g
     inkscape:label="Layer 1"
     inkscape:groupmode="layer"
     id="layer1"
     transform="translate(72.02594,-90.015027)">
    <path
       inkscape:connector-curvature="0"
       style="fill:#e55b2d;stroke-width:0.99999553"
       d="m -62.713981,92.703015 v 2.687988 l 4.655979,2.687988 v -2.687988 z m -9.311959,2.687988 v 2.687988 l 2.327989,1.343994 v -2.687988 z m 6.983969,1.343994 -2.32799,1.343994 v 8.064969 l 2.32799,1.34399 v -5.37698 l 2.32799,1.344 v -2.68899 l -2.32799,-1.343995 z"
       id="path192" />
    <path
       inkscape:connector-curvature="0"
       style="fill:#ed8e24;stroke-width:0.99999553"
       d="m -62.713981,92.703015 -6.98397,4.031982 v 2.687988 l 4.65598,-2.687988 v 2.687988 l 2.32799,-1.343994 z m 6.983969,1.343994 -2.32799,1.343994 v 2.687988 l 2.32799,-1.343994 z m -4.65598,5.375976 -2.327989,1.343995 v 2.68899 l 2.327989,-1.344 z m -2.327989,4.032985 -2.32799,-1.344 v 5.37598 l 2.32799,-1.34399 z"
       id="path194-3" />
    <path
       inkscape:connector-curvature="0"
       style="fill:#f8bf3c;stroke-width:0.99999553"
       d="m -62.713981,90.015027 -9.311959,5.375976 2.327989,1.343994 6.98397,-4.031982 4.655979,2.687988 2.32799,-1.343994 z m 0,8.063964 -2.32799,1.343994 2.32799,1.343995 2.327989,-1.343995 z"
       id="path196-6" />
  </g>
</svg>
