<svg width="16" height="16" version="1.1" viewBox="0 0 16 17" xmlns="http://www.w3.org/2000/svg">
 <g transform="translate(72 -90)">
  <path d="m-63 93v2.7l4.7 2.7v-2.7zm-9.3 2.7v2.7l2.3 1.3v-2.7zm7 1.3-2.3 1.3v8.1l2.3 1.3v-5.4l2.3 1.3v-2.7l-2.3-1.3z" fill="#e55b2d"/>
  <path d="m-63 93-7 4v2.7l4.7-2.7v2.7l2.3-1.3zm7 1.3-2.3 1.3v2.7l2.3-1.3zm-4.7 5.4-2.3 1.3v2.7l2.3-1.3zm-2.3 4-2.3-1.3v5.4l2.3-1.3z" fill="#ed8e24"/>
  <path d="m-63 90-9.3 5.4 2.3 1.3 7-4 4.7 2.7 2.3-1.3zm0 8.1-2.3 1.3 2.3 1.3 2.3-1.3z" fill="#f8bf3c"/>
 </g>
</svg>
