<svg width="16" height="16" version="1.1" viewBox="0 0 16 17" xmlns="http://www.w3.org/2000/svg">
 <g transform="matrix(1.2 0 0 1.2 -24 -153)">
  <g transform="matrix(.037 0 0 .037 8.8 122)" stroke-width="1.1">
   <path d="m385 452c-4.9-5.3-4.6-8.9 0.94-15 2.4-2.6 6-5.8 8-7l3.6-2.2-5.4-5.9c39-39 188-68-28-110-42-83-59-146 4.2-18 0.45 0.4 0.42-5.8 2.9-6 4.1-0.44 4.5-0.78 4.5-3.3 6e-3 -1.9-1.1-3.8-3.4-5.6-3.1-2.6-3.4-3.4-3.8-10-0.21-4-0.82-13-1.4-21l-1-13 6.3-5.3 0.43-28-6.6-5.5c-4.1-3.4-7.7-7.6-9.5-11-2.7-5.1-2.9-6.6-3.1-20-0.24-13-0.024-15 2-20 1.2-2.7 3.7-5.9 5.4-7.1 1.7-1.3 4.8-5.3 6.8-9 4.6-8.3 15-22 20-25 1.9-1.5 5.8-3.7 8.5-4.8 28-12 139-11 163 0.73 2.2 1.2 5.8 4 8 6.2 4.6 4.9 13 17 16 24 1.2 2.7 4.3 7 6.8 9.6 6 6 7.1 10 6.8 25-0.46 17-3.1 23-15 33l-6.3 5.1 0.78 5.5c0.43 3 0.82 9.5 0.86 14 0.078 8.9 0.085 8.9 3.3 10l3.2 1.2v21c0 21-0.025 21-2.8 25-3.1 4.6-2.8 7.1 1 7.1 1.4 0 3.3 0.25 4.1 0.56 1.6 0.59 4.6-4.7 29-52 11-21 14-26 17-27 3.2-1.2 7.1 1.5 7.1 5 0 1.1-4.3 10-9.5 20-27 50-32 61-31 62 1.7 1.7 1.4 3.6-1.5 8.2-1.6 2.6-3.5 4.2-4.8 4.2-233 58-44 74-32 112l-4.9 6 4.8 4.4c6.4 5.9 8.8 11 8.4 17-0.15 2.2-7.2 7.2-10 7.2-1.1 0-5.8-3.7-10-8.2l-8.4-8.2-3.4 1.4c-21 8.7-38 12-62 12-19 0.028-31-1.8-47-7.1-5.7-1.9-10-3.1-10-2.7s-1.1 1-2.4 1.3-6.2 3.5-11 7c-10 7.8-13 8.2-18 2.7zm-8.8-147c0-2-0.34-2.5-1.1-1.8-0.61 0.61-0.79 1.9-0.42 2.9 0.99 2.6 1.5 2.2 1.5-1.1zm100-68c2.2-2 2.5-3.3 2.5-11 0-9.5-0.14-9.6-8.9-6.6l-5 1.7v5.9c0 11 5.5 15 11 9.7zm15-1.3c1.6-2.3 2-7.9 0.94-12-0.39-1.4-2.3-2.8-5.6-4-2.7-0.98-5.4-1.8-5.8-1.8-0.44 3e-3 -0.8 3.8-0.8 8.5 0 7.8 0.22 8.6 2.7 11 3.1 2.4 6.3 2 8.6-1.3zm-32-30c1.5-1.8 2.5-3.6 2.2-3.9-0.71-0.71-4.7 2.8-6.1 5.4-1.7 3.1 0.75 2.2 3.8-1.5zm41 0.72c-1.9-2.3-8.6-6-8.6-4.8 0 2 5.2 6.3 7.5 6.3 1.9 0 2.1-0.28 1-1.5zm-54-9.1c3.2-1.4 7.5-4.5 10-7.2 4.4-4.7 4.4-4.7 9.2-3.7 3.2 0.68 5.9 0.67 8-0.054 4-1.4 8.4-0.5 12 2.4 7.7 6.8 26 10 36 6.8 3.5-1.2 10-2.1 19-2.5l14-0.61 0.33-5.1c0.43-6.6-4.9-17-8.8-17-2.2 0-2.5-0.68-3.2-5.6-2-15-13-25-30-25-15 0-30 10-32 23-0.42 2.1-0.95 4-1.2 4.4-0.37 0.63-15-2.7-16-3.5-5.6-11-6.6-13-11-16-2.9-1.8-7.4-3.8-10-4.4-6.4-1.6-17-0.56-23 2.3-4.5 2.1-5.3 3.2-12 16-3.9 7.4-8.3 15-9.7 18l-2.5 4h4.2c3.8 0 4.6 0.48 7.5 4.7 3.4 4.9 8.2 8.5 15 11 5.7 2.1 19 1.2 25-1.7zm-32-15c-8.9-3.3-8.5-17 0.64-19 10-2.6 15 14 5.1 18-2 0.82-3.7 1.5-3.9 1.4-0.17-0.046-1-0.35-1.9-0.67zm8.2-6.3c0.89-2.3-1.4-4.5-3-2.9-1.4 1.4-0.52 4.6 1.2 4.6 0.62 0 1.4-0.75 1.8-1.7zm67 1.3c-5.2-5.6-3.6-14 3.2-17 6.1-2.1 12 2.4 12 9.6 0 8.2-9.4 13-15 7zm12-5.9c-1.2-1.9-3.8-1.3-3.8 0.79 0 1.1 0.33 2.3 0.74 2.7 1.1 1.1 3.9-2.1 3.1-3.5zm-78-41c26-11 72-12 100-2.9 7.3 2.5 9.4 2.8 9.8 1.7 0.31-0.8 2.1-2.1 4.1-2.9 12-5.3 23-5.7 32-1.3 3.4 1.6 6.4 2.7 6.5 2.6 0.86-0.86-12-19-15-21-5-3.3-18-6.7-37-9.1-20-2.7-77-3.4-93-1.1-22 3-33 6.5-41 13-4.7 4-16 17-16 18 0.2 0.2 3.1-0.91 6.5-2.4 8.1-3.7 17-3.9 27-0.48 4 1.4 8.3 3.6 9.6 5 2.8 3 2.1 2.9 6.7 0.99z" fill="#abdae7"/>
   <path d="m385 452c-4.7-5.2-4.6-8.8 0.54-15 2.2-2.4 6-5.7 8.4-7.3l4.4-2.8-5.1-5.1c-2.8-2.8-7.1-8.8-9.5-13-4.1-7.9-8.6-23-8.6-29-5e-3 -1.9-1.8-4.5-5.9-8.6-3.2-3.2-5.9-6.8-5.9-7.8 0-1.8 0.11-1.8 1.3-0.19 0.92 1.2 7.1 2.9 20 5.5 27 5.4 54 7.8 72 6.2 9.3-0.8 9.6-0.9 11-4.3 23-102-22-54-88-54-4.4-1.2-8.4-1.7-9.1-1.2-1.9 1.5-5.5-0.63-6.9-4.1-0.98-2.4-2.1-3.3-3.9-3.3-12-29-27-62-42-96 0-2.9 3.1-5.4 6.3-5.1 3.3 0.38 4.3 2.3 27 50l14 31 10-1.2v7.4c0 4.1-0.53 7.9-1.2 8.6-0.71 0.71-0.84 2.2-0.35 3.7l0.83 2.5 0.77-2.7c0.42-1.5 0.82-7.5 0.88-13l0.11-11-7.9-6.3-0.8-14c-0.44-7.9-1.1-17-1.4-21-0.61-6.3-0.52-6.7 2.4-8.8 3-2.2 3.1-2.3 3.7-16l0.63-14-3.9-3.5c-8.5-7.7-10-9.6-13-15-2.5-5.3-2.8-7.3-3-20-0.19-13 0.02-14 2.2-19 1.3-2.6 3.9-5.8 5.7-6.9 1.8-1.2 4.1-3.8 5.1-5.8 5.4-11 19-27 26-31 16-8.4 65-12 112-9.5 40 2.5 54 6.1 63 16 5.4 6.4 14 21 16 26 0.66 2 1.9 3.7 2.6 3.7 4.1 0 11 14 9.6 19-0.42 1-0.7 5.8-0.61 11 0.26 14-3.1 21-17 32l-4.4 3.8 2.4 29 6 1.3v21c0 21-0.045 21-2.7 25-3.7 5.5-3.5 7.2 1.1 7.4 2.1 0.088 4.2 0.21 4.9 0.27 0.62 0.059 10-17 22-39 22-42 23-43 28-39 1.2 1.1 2.2 2.9 2.2 4 0 1.8-7.9 17-36 70-4.3 8.1-5.5 11-4.7 12 1.8 1.8 1.4 3.6-1.5 8.2-1.6 2.5-3.5 4.2-4.7 4.2-2 0-5.8 4.7-5.8 7.1 0 0.73-0.38 1.1-0.84 0.8-0.46-0.28-5.5 0.66-11 2.1-116-56-151 94 0.88 70-2.9 11-9.5 24-15 31-2.4 2.9-4.3 5.6-4.3 6.1 0 0.49 1.7 2.2 3.8 3.8 5.8 4.4 9.5 12 9.1 18-0.14 2.1-7.2 7.2-10 7.2-1.1 0-6-3.9-11-8.6l-9-8.6-4.1 2.1c-13 6.5-32 11-54 12-22 0.87-42-2-58-8.5-3.8-1.6-6.1-2-5.8-1.2 0.28 0.72-0.61 1.6-2 1.9-1.4 0.34-6.3 3.5-11 7.1-10 7.8-13 8.2-18 2.7zm167-25c1.3-1.7 1.3-1.7-0.4-0.4-1.8 1.4-2.3 2.3-1.5 2.3 0.22 0 1.1-0.84 1.9-1.9zm26-137c-0.27-1-0.49-0.19-0.49 1.9 0 2.1 0.22 2.9 0.49 1.9 0.27-1 0.27-2.7 0-3.7zm-102-53c2.8-2.8 3.1-2.9 4.2-1.1 1.8 2.8 6.1 3.5 9.2 1.5 2.4-1.6 2.7-2.5 2.7-8.6v-6.9l-4-1.7c-6.3-2.8-13-3-19-0.76-5.9 2.2-6.5 3.3-5.4 11 0.76 5.1 4.4 9.9 7.5 9.9 0.95 0 3.1-1.3 4.7-3zm-18-32c2.7-2.9 4.7-6.1 4.7-7.5 0-1.5 1.9-4 5-6.8 6.1-5.4 10-5.8 16-1.5 5.4 4 6.6 5.6 6.6 9.1 0 3.9 1.6 6.8 4.4 8.3 1.2 0.64 12 2.3 24 3.6 25 2.8 25 2.8 30-5.2 2.6-4.4 5.9-16 5.9-20 0-1.2-2.8-7.4-6.3-14-3.4-6.3-7.4-14-8.8-18-1.4-3.4-3.2-6.1-3.9-6.1-0.76-0.01-2.4-1-3.7-2.3-7.7-7.4-23-9-35-3.6-3.7 1.6-7.2 3.6-7.9 4.5-0.94 1.1-5.3 1.5-19 1.5-16 0-18-0.25-22-2.1-8.7-4.5-22-4.7-31-0.35-3.4 1.6-5 3.8-10 14-3.4 6.5-8.2 15-11 19-3.7 6-4.2 7.5-3.7 11 1.4 10 6.4 20 12 22 3.3 1.6 8.6 1.4 40-1 7.5-0.59 7.7-0.53 7.9 1.8 0.14 2.3 0.17 2.3 0.59 0.19 0.24-1.2 2.6-4.5 5.2-7.3zm-25-77c15-4.3 26-5.6 45-5.6 21 5e-3 31 1.5 45 6.2l7.5 2.5 2.5-2.5c1.4-1.4 3.9-2.8 5.6-3.2 1.7-0.34 4.8-1.1 6.9-1.6 5.3-1.4 15-1.3 19 0.23 2 0.68 5.4 2.4 7.7 3.8l4 2.5-2.6-5.1c-5-9.8-11-17-17-20-13-6-38-9.2-78-9.9-33-0.61-48 0.32-67 4.1-15 3-22 6.8-30 15-7.1 8.2-12 15-11 15 0.58-0.27 3.4-1.6 6.3-3 7.3-3.4 17-4.1 25-1.7 8.7 2.7 13 4.9 14 7 0.56 1.8 0.87 1.8 4.6 0.24 2.2-0.92 7.1-2.6 11-3.7z" fill="#f2d1a2"/>
   <path d="m455 450c-26-3.9-44-11-57-22-8-7-11-11-16-20-3.6-7.1-7.8-22-7.9-28-5e-3 -2-1.6-4.5-5.5-8.3-3-3-5.2-5.7-5-5.9 0.25-0.25 5.7 0.72 12 2.2 15 3.4 28 5.6 41 6.9 11 1.2 41 1.4 46 0.4 4.1-0.81 5.8-4.2 6.9-13l0.74-6-23-0.69c-31-0.91-52-3.8-75-10l-6.9-1.9 0.37-3.7c0.2-2 0.45-3.8 0.55-3.9 0.1-0.11 7.1 1.2 16 2.9 27 5.4 40 6.8 65 6.9 15 0.051 24-0.33 24-1 0.6-0.6 1.4-5.2 1.8-10l0.69-9-23-0.1c-26-0.11-42-1.9-62-6.5-11-1.1-15-3.1-13-12 0.41-1.5 0.79-7.6 0.85-14l0.11-11-7.5-6.6-1-18c-1.4-25-1.4-23 1.5-25 2.4-1.3 2.5-2 3.2-16l0.66-15-4-3.6c-2.2-2-5.4-4.8-7-6.4s-4.3-5.5-5.9-8.7c-2.5-5.3-2.8-7.2-2.9-19-0.16-15 1-20 7-25 2.2-1.9 5.5-6.3 7.5-9.8 6.5-12 18-25 25-28 16-8.3 65-12 112-9.5 40 2.5 54 6.1 63 16 5.2 6.2 14 21 16 26 0.62 1.9 2.5 4.2 4.2 5.1 3.4 1.9 8 10 7.9 15-0.5 23-0.74 25-4 32-2 4-4.9 7.6-8 9.9-11 8.2-9.7 5.4-8.3 22l1.2 15 6.2 2.6-0.34 21c-0.33 20-0.45 21-2.7 24-2 2.1-2.4 3.7-2.3 8.9 0.034 3.5 0.42 8.3 0.86 11-3.5 9.4 8.2 19-12 20-20 4.5-37 6.2-62 6.3l-23 0.11-0.6 4.3c-0.33 2.3-0.24 6.7 0.2 9.6l0.8 5.3 8 0.88c18 2 52-0.66 83-6.7 8.7-1.7 16-2.9 16-2.8 0.17 0.16 0.57 1.9 0.9 3.9l0.58 3.6-9.4 2.4c-23 6-44 8.7-74 9.5l-23 0.65 0.69 5.2c1.3 9.8 2.9 13 7 14 5.5 1.4 46 0.18 59-1.8 6.5-0.96 18-3.1 26-4.8s15-2.8 15-2.6c0.71 0.65-7.5 8.8-11 11-2.8 1.7-3.6 3.4-5.6 11-11 41-42 61-97 62-11 0.24-21 0.21-22-0.049zm21-212c2.8-2.8 3.1-2.9 4.2-1.1 1.8 2.8 6.1 3.5 9.2 1.5 2.4-1.6 2.7-2.5 2.7-8.7 0-6.6 0.13-6.9 2.5-6.9 1.4 0 3.8-1.3 5.4-2.9 2.2-2.2 2.8-3.7 2.5-6.4-0.49-4.2-1.9-4.1 21-1.5 16 1.8 18 1.9 20 0.37 3.6-2.3 7.3-9.2 9.4-17 2.8-11 0.77-26-4.7-37-2.6-5-5.3-7.2-11-8.3-2-0.42-4.6-1.7-5.9-2.9-7.5-7.2-23-8.8-34-3.5-3.7 1.6-7.2 3.6-7.9 4.5-0.94 1.1-5.3 1.5-19 1.5-16 0-18-0.25-22-2.1-9.3-4.8-23-4.6-33 0.47-2.9 1.5-6.4 2.7-7.8 2.7-3.7 0-9.4 5.6-12 12-2.2 4.9-2.5 7.3-2.5 18-0.037 14 1 19 5.5 26 5.3 8.2 5.6 8.2 46 5.1l7.6-0.6 0.68 3.6c0.85 4.5 3.7 7.2 7.9 7.3 2.5 0.072 3.1 0.48 2.7 2.1-1 3.9 0.93 12 3.5 14 3.3 3.3 5.3 3.2 9-0.46zm-9.8-33c-2.3-1.2-2.9-2.4-2.9-5.1 0-2.9 0.93-4.4 5-8 6.3-5.6 10-5.8 17-0.99 7.6 5.3 7.7 10 0.45 14-4.5 2.3-15 2.4-19 0.19zm-38-75c28-9.8 69-10 96-0.95 6.3 2.1 7.9 2.4 8.8 1.2 4.1-5.5 24-9 33-5.9 2 0.68 5.4 2.4 7.7 3.8l4 2.5-2.6-5.1c-5-9.8-11-17-17-20-13-6-38-9.2-78-9.9-33-0.61-48 0.32-67 4.1-15 3-22 6.8-30 15-7.1 8.2-12 15-11 15 0.58-0.27 3.5-1.6 6.4-3 7.8-3.7 17-4.1 26-1.2 8.4 2.8 12 4.8 12 7.1 0 1.2 0.55 1.5 1.9 0.91 1-0.43 5.1-1.9 9-3.3z" fill="#ea982a"/>
   <path d="m455 450c-26-3.9-44-11-57-22-8-7-11-11-16-20-3.6-7.2-7.8-22-7.9-28l-7e-3 -2.9 6.6 3.3c18 8.9 41 11 65 6.6 10-2 13-3.5 17-9.2 4.7-5.8 5.8-8.6 6.6-18 0.35-4 1.3-12 2.2-17 1.2-7.5 1.4-16 1.1-36-0.43-22-2.5-47-4-48-0.22-0.16-22-5.5-48-12-26-6.3-48-12-48-12-0.54-0.33-0.7-8-0.36-18l0.6-17-5-3.7c-6.7-5-8.3-7-12-14-2.6-5.3-2.9-7.2-3-18-0.18-15 0.97-20 6.6-25 2.4-2.4 6-7.2 7.9-11 6.6-12 18-25 25-28 16-8.3 65-12 112-9.5 31 12 53 6.9 62 16 5.5 6.5 12 16 15 23 1.5 3.3 4.1 7.1 5.8 8.5 6.1 5.1 7.2 9.1 6.9 25-0.23 14-0.4 15-3.5 21-2 4-4.9 7.6-8 9.9-2.6 2-5.9 4.5-7.2 5.5l-2.4 1.9 1.4 17c0.75 9.2 1.1 17 0.77 17-0.32 0.19-21 5.5-46 12-25 6.3-45 12-46 12-0.15 0.095-1 5.4-2 12-2 13-2.9 60-1.3 69 0.52 2.9 1.4 9.7 1.9 15 1.3 13 2.6 17 7.6 23 3.5 4.1 5.6 5.4 11 7.1 20 6.2 50 4.7 68-3.4 2.8-1.2 5.3-2 5.6-1.7 1 1-3.9 16-8 25-11 23-30 36-61 42-9.4 2-43 3.6-51 2.4zm21-212c2.8-2.8 3.1-2.9 4.2-1.1 1.8 2.8 6.1 3.5 9.2 1.5 2.4-1.6 2.7-2.5 2.7-8.7 0-6.6 0.13-6.9 2.5-6.9 1.4 0 3.8-1.3 5.4-2.9 2.2-2.2 2.8-3.7 2.5-6.4-0.49-4.2-1.9-4.1 21-1.5 16 1.8 18 1.9 20 0.37 5.5-3.6 11-18 11-28 0-7.6-3.1-21-6-26-3.1-5.3-6-7.5-11-8.5-2-0.38-4.7-1.6-5.9-2.8-7.5-7.2-23-8.8-34-3.5-3.7 1.6-7.2 3.6-7.9 4.5-0.94 1.1-5.3 1.5-19 1.5-16 0-18-0.25-22-2.1-8.8-4.6-22-4.7-32-0.19-2.5 1.2-6.2 2.4-8.3 2.7-5.1 0.88-8 3.1-11 8.7-9.3 16-4.8 48 7.6 54 3.2 1.6 8.5 1.4 40-1l7.6-0.6 0.68 3.6c0.85 4.5 3.7 7.2 7.9 7.3 2.5 0.072 3.1 0.48 2.7 2.1-1 3.9 0.93 12 3.5 14 3.3 3.3 5.3 3.2 9-0.46zm-9-32c-5.6-3.2-5.1-7.8 1.3-14 6.3-5.6 10-5.8 17-0.99 7.6 5.3 7.7 10 0.45 14-4.2 2.1-15 2.5-19 0.59zm-39-75c28-9.8 69-10 96-0.97 7.6 2.6 7.7 2.6 9.8 0.53 3.1-2.9 15-6.4 22-6.4 6.7-0.016 11 1.3 17 5l4 2.5-2.6-5.1c-5-9.8-11-17-17-20-13-6-38-9.2-78-9.9-33-0.61-48 0.32-67 4.1-15 3-22 6.8-30 15-7.1 8.2-12 15-11 15 0.58-0.27 3.5-1.6 6.4-3 7.8-3.7 17-4.1 26-1.2 8.4 2.8 12 4.8 12 7.1 0 1.2 0.55 1.5 1.9 0.91 1-0.43 5.1-1.9 9-3.3zm-51 162c0.086-9.7 0.096-9.7 1.7-6 2.1 4.9 1.4 17-1.2 20-3.9 5.8-0.38-12-0.48-14z" fill="#37aac6"/>
   <path d="m467 205c-2.7-1.3-4-4.9-2.9-8.2 1.9-6 14-9.4 21-5.9 7.5 3.6 7.6 11 0.098 14-4.3 1.8-15 1.9-18 0.23zm101-3c-0.97-0.57-4.1-4.5-6.8-8.7-4.3-6.6-5.3-9-6.4-16-0.71-4.7-1.8-11-2.5-13-1.7-6.3-6.8-13-11-14-3.7-1.2-5.3-4-8.1-14-1.4-5 1.5-8 11-11 12-3.7 21-2.9 30 2.8l4 2.5-2.6-5.1c-5-9.8-11-17-17-20-13-6-38-9.2-78-9.9-33-0.61-48 0.32-67 4.1-15 3-22 6.8-30 15-7.1 8.2-12 15-11 15 0.58-0.27 3.5-1.6 6.4-3 7.8-3.7 17-4.1 26-1.1 13 4.4 14 6.1 10 16-2.4 6.4-2.7 6.7-7.4 7.8-5.9 1.5-7.6 2.8-11 8.7-3 5-5.9 19-5 24 0.45 2.3-0.37 4.4-3.4 9.1-8.3 13-10 13-20 6.4-7.8-5.9-9.3-7.6-13-15-2.6-5.3-2.9-7.2-3-18-0.18-15 0.97-20 6.6-25 2.4-2.4 6-7.2 7.9-11 6.6-12 18-25 25-28 16-8.3 65-12 112-9.5 39 2.5 54 6.2 62 16 5.5 6.5 12 16 15 23 1.5 3.3 4.1 7.1 5.8 8.5 6.1 5.1 7.2 9.1 6.9 25-0.23 14-0.4 15-3.5 21-3.1 6-8 11-17 17-3.6 2.3-4.6 2.4-7.1 0.95z" fill="#595959"/>
   <path d="m367 315c-2-2.4-15-31-15-33 0-1 1.2-2.4 2.7-3.1 5-2.3 6.5-1.6 9 4.2l2.3 5.4-2.2 2.4c-4.4 4.6-2.2 9.2 4.3 9.2 3.8 0 4 0.24 6.3 5.9 2.1 5.1 2.2 6.2 0.92 7.4-2.3 2.3-6.8 3-8.2 1.4zm212-2.5c-3.1-2.1-3-3.8 0.37-9.6 2.5-4.3 3-4.6 5.4-3.6 6.9 2.6 12-5.1 6.1-9.6l-2.9-2.3 2.5-5.4c1.4-3 2.9-5.6 3.4-5.9 1.5-0.9 8.3 3 8.3 4.7 0 1.6-14 29-16 32-1.4 1.8-4.1 1.7-7-0.33zm-111-108c-4.5-2-5.3-4.3-3-8.6 4.6-8.6 20-8.8 25-0.31 1.5 2.7 1.4 3.1-0.97 5.6-4.4 4.7-14 6.2-21 3.3zm-102-68c-2.1-3.4 15-27 24-34 12-8.6 39-12 88-12 48 0.059 77 4.3 86 13 7.4 6.5 22 30 20 33-1.2 2-2.7 0.52-6.2-6.6-4.4-8.7-11-19-15-22-9.2-8.4-42-13-91-13-41-0.11-62 2.5-76 9.6-6.8 3.2-19 16-25 26-4.4 7.5-4.4 7.5-5.4 5.9z" fill="#292929"/>
  </g>
 </g>
</svg>
