<svg
   xmlns="http://www.w3.org/2000/svg"
   id="svg7429"
   version="1.1"
   viewBox="0 0 24.187893 24.187893"
   height="16"
   width="16">
  <g
     transform="translate(-40.892239,-168.44334)"
     id="layer1">
    <rect
       y="168.44334"
       x="40.892239"
       height="24.187893"
       width="24.187893"
       id="rect7984"
       style="fill:#0073c0;fill-opacity:1;stroke:none;stroke-width:1.05833328" />
    <path
       id="path426"
       d="m 51.021968,185.70563 v -6.07199 l 1.908336,-0.0415 1.908336,-0.0452 0.04526,-1.36147 0.04526,-1.36337 H 44.012795 v 2.80403 h 3.893987 v 12.14962 h 3.115188 z m 10.620305,5.76272 c 1.689594,-0.49781 2.745591,-1.82535 2.890792,-3.63566 0.177257,-2.20625 -0.686399,-3.3622 -3.601703,-4.8274 -1.851765,-0.92964 -2.432563,-1.42935 -2.432563,-2.08747 0,-0.98245 0.805198,-1.48972 2.340164,-1.47463 0.925882,0.008 1.455765,0.14331 2.839874,0.72412 0.248915,0.10369 0.271543,-0.015 0.271543,-1.3615 v -1.47649 l -0.739197,-0.21498 c -0.43937,-0.12822 -1.468966,-0.21497 -2.530619,-0.21497 -2.283593,0 -3.16799,0.29041 -4.299414,1.40675 -0.91834,0.90513 -1.250225,1.8857 -1.108798,3.26416 0.18103,1.74993 1.050341,2.71165 3.569647,3.9449 2.198734,1.07486 2.828559,1.85552 2.300562,2.84175 -0.592112,1.1088 -3.428216,1.05789 -5.170609,-0.0924 -0.320572,-0.2112 -0.618514,-0.3828 -0.661885,-0.3828 -0.04526,0 -0.08297,0.69394 -0.08297,1.5463 v 1.54251 l 0.66377,0.2508 c 0.363943,0.13766 0.976795,0.31489 1.361483,0.39598 0.854225,0.17726 3.6017,0.0829 4.389925,-0.14897 z"
       style="fill:#ffffff;stroke-width:1.88570762" />
  </g>
</svg>
