<svg width="16" height="16" version="1.1" viewBox="0 0 16 17" xmlns="http://www.w3.org/2000/svg">
 <g transform="translate(-19 -125)">
  <g transform="matrix(.031 0 0 .031 16 120)">
   <g transform="matrix(1.5 0 0 1.4 -55 -42)" stroke="#000">
    <g stroke-width=".95px">
     <path d="m261 171-155 170 154 169 155-170z" fill="#019833"/>
     <path d="m260 171v-15l-168 185h14z" fill="#66fe98"/>
     <path d="m259 171v-15l168 185h-14z" fill="#45fe02"/>
     <path d="m260 511v15l-168-185h14z" fill="#017d17"/>
    </g>
    <path d="m123 175h108l6.6 7.3v22l-5.2 7h-12v111l102-111h-17l-5.9-7v-24l5.5-5.5h110l5.5 6v22l-248 280h-28l-8.2-5.2v-268h-14l-5-5.5v-24z" fill="none" stroke-width="19"/>
    <path d="m259 511v15l168-185h-14z" fill="#005d04" stroke-width=".95px"/>
    <path d="m259 155-169 186 168 185 169-186z" fill="none" stroke-width="5.7"/>
    <path d="m233 187 6.1-3.5-6.3-6.9h-109l-5.6 6.1v23l6.2 6.8 2.9-6.8-3.9-4.3v-16l2.9-2.8h104z" fill="#fefefe" stroke-width=".95px"/>
    <path transform="matrix(.9 0 0 .99 -437 -185)" d="m829 370-4.3 4.3v16l3.8 3.8h20v15l-131 133v-148h22l4.5-4.5v-16l-4.1-3.2h-115l-3.8 3.8v16l3.8 3.8h20v272l3.8 3.8h23l275-283v-12l-4.3-4.3z" fill="none" stroke-width="1px"/>
    <g>
     <g stroke-width=".95px">
      <path d="m143 205v271l3.2 4-2.5 5.2-7.1-7.7v-265z" fill="#fefefe"/>
      <path d="m126 205-1.8 6.5h13l7.3-6.5z" fill="#808080"/>
      <path d="m307 212 2.9-6.6-4.2-4.3v-15l4.8-5.3h101l3.9 5.7 5.5-4.3-5.6-6.2h-108l-5.4 5.9v23l5.6 5.8m-88 112-11 28 119-131v-16z" fill="#fefefe"/>
      <path d="m232 186 5.2-3.8v23l-6 6.6h-12v112l-11 28v-147h20l3.6-3.3z" fill="#808080"/>
     </g>
     <path transform="matrix(.9 0 0 .99 -437 -185)" d="m829 370-4.3 4.3v16l3.8 3.8h20v15l-131 133v-148h22l4.5-4.5v-16l-4.1-3.2h-115l-3.8 3.8v16l3.8 3.8h20v272l3.8 3.8h23l275-283v-12l-4.3-4.3z" fill="#ccc" stroke-width="1px"/>
     <path d="m415 186 5.5-3.5v22l-249 281h-26l2.5-5.5h20l247-281z" fill="#808080" stroke-width=".95px"/>
     <path d="m327 205-5.6 6.4h-15l3.4-6.4h17z" fill="#808080" stroke-width=".95px"/>
    </g>
    <g transform="matrix(.9 0 0 .99 -93 -192)" fill="#ccc" stroke-miterlimit="10">
     <path d="m400 560a1.2 1.2 0 0 0-0.56 0.28l-5.3 4.6a1.2 1.2 0 0 0-0.34 0.53l-5.3 15a1.2 1.2 0 0 0 0.28 1.3l4.1 4.1a1.2 1.2 0 0 0 0.88 0.34h16a1.2 1.2 0 0 0 0.88-0.34l4.3-4.3a1.2 1.2 0 0 0 0.31-0.53l4.6-16a1.2 1.2 0 0 0-0.31-1.2l-3.5-3.5a1.2 1.2 0 0 0-0.88-0.34h-15a1.2 1.2 0 0 0-0.25 0zm-30 42a1.2 1.2 0 0 0-0.94 0.91l-2 8.1a1.2 1.2 0 0 0 1.2 1.5h9.7l-24 68a1.2 1.2 0 0 0 1.2 1.6h35a1.2 1.2 0 0 0 1.2-0.84l2.3-7.3a1.2 1.2 0 0 0-1.2-1.6h-7.9l24-69a1.2 1.2 0 0 0-1.2-1.6h-37a1.2 1.2 0 0 0-0.25 0zm111 0.25a1.2 1.2 0 0 0-0.69 0.41l-7.2 8.2h-12l-7.7-8a1.2 1.2 0 0 0-0.88-0.38h-28a1.2 1.2 0 0 0-1.2 0.81l-2.5 7.6a1.2 1.2 0 0 0 1.2 1.6h7.4l-23 68a1.2 1.2 0 0 0 1.2 1.6h29a1.2 1.2 0 0 0 1.2-0.81l2.2-6.6a1.2 1.2 0 0 0-1.2-1.6h-5.1l15-46h26l-17 53a1.2 1.2 0 0 0 1.2 1.6h28a1.2 1.2 0 0 0 1.1-0.75l2.5-6.1a1.2 1.2 0 0 0-1.1-1.7h-5.1l15-47h25l-17 54a1.2 1.2 0 0 0 1.2 1.6h31a1.2 1.2 0 0 0 1.2-0.78l2.5-6.6a1.2 1.2 0 0 0-1.2-1.7h-6.2l19-61a1.2 1.2 0 0 0-0.19-1.1l-5.8-7.8a1.2 1.2 0 0 0-1-0.47h-22a1.2 1.2 0 0 0-0.91 0.38l-7 7.7h-12l-7.2-7.9a1.2 1.2 0 0 0-0.91-0.38h-18a1.2 1.2 0 0 0-0.25 0z" stroke-width="8"/>
     <path d="m400 561-5.3 4.6-5.3 15 4.1 4.1h16l4.3-4.3 4.6-16-3.5-3.5zm-30 42-2 8.1h11l-24 70h35l2.3-7.3h-9.6l24-71zm111 0.25-7.6 8.6h-13l-8.1-8.3h-28l-2.5 7.6h9.1l-24 69h29l2.2-6.6h-6.8l15-48h29l-17 55h28l2.5-6.1h-6.8l16-49h28l-17 55h31l2.5-6.6h-7.8l19-62-5.8-7.8h-22l-7.3 8.1h-13l-7.6-8.3z"/>
    </g>
   </g>
  </g>
 </g>
</svg>
