<svg width="16" height="16" version="1.1" viewBox="0 0 16 17" xmlns="http://www.w3.org/2000/svg">
 <g transform="translate(-19 -125)">
  <g transform="matrix(.27 0 0 .27 -24 93)">
   <path d="m188 158c-0.39-0.39-0.71-2.8-0.71-5.5 0-7.5-0.41-7.9-7-7.9-6.1 0-8.8-1.6-7.7-4.5 0.43-1.1 2.1-1.5 6.4-1.5 3.2 0 6.4-0.54 7-1.2s1.2-3.8 1.2-7c0-4.3 0.4-6 1.5-6.4 2.8-1.1 4.4 1.6 4.7 8l0.3 6.2 6.5 0.5c5.8 0.44 6.5 0.75 6.8 2.7 0.35 2.5-1.2 3.1-8.8 3.5l-4.5 0.26-0.5 6.5c-0.43 5.6-0.79 6.5-2.5 6.8-1.1 0.16-2.4-0.027-2.8-0.42z" fill="#2beeae"/>
   <path d="m200 184c-9.3-2-17-15-10-17 1-0.2 2.3 1.2 3.7 3.7 2 3.9 6.3 7.1 9.4 7.1 2.1 0 4.6 2.8 4 4.4-0.7 1.8-3.2 2.4-7.1 1.5z" fill="#5e5e5e"/>
  </g>
 </g>
</svg>
